# Blender v3.4.1 OBJ File: 'Tiny_Treats_Pleasant_Picnic_ASSETS_EXPORT.blend'
# www.blender.org
mtllib apple.mtl
o apple
v -0.000000 0.283756 -0.160498
v -0.000000 0.242877 -0.196084
v -0.000000 0.070959 -0.201591
v -0.000000 0.002728 -0.074184
v 0.061420 0.283756 -0.148281
v 0.075038 0.242877 -0.181158
v 0.083951 0.151588 -0.202676
v 0.077146 0.070959 -0.186246
v 0.055258 0.025334 -0.133405
v 0.028389 0.002729 -0.068537
v 0.113489 0.283756 -0.113489
v 0.138652 0.242877 -0.138652
v 0.155122 0.151588 -0.155122
v 0.142546 0.070959 -0.142546
v 0.102104 0.025334 -0.102104
v 0.052456 0.002729 -0.052456
v 0.148281 0.283756 -0.061420
v 0.181158 0.242877 -0.075038
v 0.202676 0.151588 -0.083951
v 0.186246 0.070959 -0.077146
v 0.133406 0.025334 -0.055258
v 0.068537 0.002728 -0.028389
v 0.160498 0.283757 0.000000
v 0.196084 0.242877 0.000000
v 0.219375 0.151588 0.000000
v 0.201591 0.070959 0.000000
v 0.144397 0.025334 0.000000
v 0.074184 0.002728 0.000000
v 0.148281 0.283756 0.061420
v 0.181158 0.242877 0.075038
v 0.202676 0.151588 0.083951
v 0.186246 0.070959 0.077146
v 0.133406 0.025334 0.055258
v 0.068537 0.002728 0.028389
v 0.113489 0.283756 0.113489
v 0.138652 0.242877 0.138652
v 0.155122 0.151588 0.155122
v 0.142546 0.070959 0.142546
v 0.102104 0.025334 0.102104
v 0.052456 0.002729 0.052456
v 0.061420 0.283756 0.148281
v 0.075038 0.242877 0.181158
v 0.083951 0.151588 0.202676
v 0.077145 0.070959 0.186246
v 0.055258 0.025334 0.133406
v 0.028389 0.002729 0.068537
v -0.000000 0.283756 0.160498
v -0.000000 0.242877 0.196084
v -0.000000 0.151588 0.219375
v -0.000000 0.070959 0.201591
v -0.000000 0.025334 0.144397
v -0.000000 0.002728 0.074184
v -0.061420 0.283756 0.148281
v -0.075038 0.242877 0.181158
v -0.083951 0.151588 0.202676
v -0.077146 0.070959 0.186246
v -0.055258 0.025334 0.133405
v -0.028389 0.002729 0.068537
v -0.113489 0.283756 0.113489
v -0.138652 0.242877 0.138652
v -0.155122 0.151588 0.155122
v -0.142547 0.070959 0.142546
v -0.102104 0.025334 0.102104
v -0.052456 0.002729 0.052456
v -0.000000 -0.000001 0.000000
v -0.148281 0.283756 0.061420
v -0.181158 0.242877 0.075038
v -0.202676 0.151588 0.083951
v -0.186246 0.070959 0.077146
v -0.133406 0.025334 0.055258
v -0.068537 0.002728 0.028389
v -0.160498 0.283757 -0.000000
v -0.196084 0.242877 -0.000000
v -0.219375 0.151588 -0.000000
v -0.201591 0.070959 -0.000000
v -0.144397 0.025334 -0.000000
v -0.074184 0.002728 -0.000000
v -0.148281 0.283756 -0.061420
v -0.181158 0.242877 -0.075038
v -0.202676 0.151588 -0.083951
v -0.186246 0.070959 -0.077146
v -0.133406 0.025334 -0.055258
v -0.068537 0.002728 -0.028389
v -0.113489 0.283756 -0.113489
v -0.138652 0.242877 -0.138652
v -0.155121 0.151588 -0.155122
v -0.142546 0.070959 -0.142546
v -0.102104 0.025334 -0.102104
v -0.052456 0.002729 -0.052456
v -0.061420 0.283756 -0.148281
v -0.075038 0.242877 -0.181158
v -0.083951 0.151588 -0.202676
v -0.077146 0.070959 -0.186246
v -0.055258 0.025334 -0.133405
v -0.028389 0.002729 -0.068537
v 0.000000 0.151588 -0.219375
v 0.000000 0.025334 -0.144397
v -0.001436 0.262187 -0.020371
v 0.018955 0.260434 0.000086
v -0.001436 0.262187 0.020543
v -0.021827 0.263939 0.000086
v 0.016617 0.353055 -0.020345
v 0.020299 0.339601 -0.031878
v 0.028546 0.352030 -0.008377
v 0.038962 0.337996 -0.013153
v 0.028546 0.352030 0.008549
v 0.038962 0.337996 0.013326
v 0.016617 0.353055 0.020518
v 0.020299 0.339601 0.032050
v -0.000255 0.354505 0.020518
v -0.006095 0.341869 0.032050
v -0.012184 0.355530 0.008549
v -0.024759 0.343473 0.013326
v -0.012184 0.355530 -0.008377
v -0.024759 0.343473 -0.013153
v -0.000255 0.354505 -0.020345
v -0.006095 0.341869 -0.031878
v 0.008197 0.353976 0.000086
v 0.000002 0.274588 -0.000000
v 0.032616 0.309407 -0.078740
v 0.060266 0.309407 -0.060265
v 0.078741 0.309407 -0.032615
v 0.085229 0.309408 0.000000
v 0.078741 0.309407 0.032615
v 0.060266 0.309407 0.060265
v 0.032616 0.309407 0.078740
v 0.000001 0.309407 0.085228
v -0.032614 0.309407 0.078740
v -0.060264 0.309407 0.060265
v -0.078740 0.309407 0.032615
v -0.085227 0.309408 -0.000000
v -0.078740 0.309407 -0.032615
v -0.060264 0.309407 -0.060265
v -0.032614 0.309407 -0.078740
v 0.000001 0.309407 -0.085228
vt 0.316776 0.343809
vt 0.316776 0.344377
vt 0.321120 0.344377
vt 0.316776 0.353272
vt 0.316776 0.370656
vt 0.328336 0.370656
vt 0.325232 0.353272
vt 0.316776 0.390650
vt 0.316776 0.419102
vt 0.328258 0.419102
vt 0.329622 0.390650
vt 0.316776 0.349081
vt 0.325232 0.349081
vt 0.316776 0.455478
vt 0.326174 0.455478
vt 0.337993 0.419102
vt 0.340513 0.390650
vt 0.332400 0.349081
vt 0.324803 0.344377
vt 0.338137 0.370656
vt 0.334142 0.455478
vt 0.332400 0.353272
vt 0.337190 0.349081
vt 0.327264 0.344377
vt 0.347790 0.390650
vt 0.344685 0.370656
vt 0.339466 0.455478
vt 0.344498 0.419102
vt 0.337190 0.353272
vt 0.341336 0.455478
vt 0.346782 0.419102
vt 0.328128 0.344377
vt 0.346985 0.370656
vt 0.338872 0.353272
vt 0.350346 0.390650
vt 0.338872 0.349081
vt 0.327264 0.344377
vt 0.344685 0.370656
vt 0.337190 0.353272
vt 0.344498 0.419102
vt 0.347790 0.390650
vt 0.337190 0.349081
vt 0.339466 0.455478
vt 0.332400 0.349081
vt 0.324803 0.344377
vt 0.340513 0.390650
vt 0.338137 0.370656
vt 0.334142 0.455478
vt 0.337993 0.419102
vt 0.332400 0.353272
vt 0.325232 0.349081
vt 0.321120 0.344377
vt 0.329622 0.390650
vt 0.328336 0.370656
vt 0.326174 0.455478
vt 0.328258 0.419102
vt 0.325232 0.353272
vt 0.316776 0.344377
vt 0.316776 0.370656
vt 0.316776 0.353272
vt 0.316776 0.419102
vt 0.316776 0.390650
vt 0.316776 0.349081
vt 0.316776 0.455478
vt 0.305215 0.370656
vt 0.308320 0.353272
vt 0.305293 0.419102
vt 0.303929 0.390650
vt 0.308320 0.349081
vt 0.312431 0.344377
vt 0.307377 0.455478
vt 0.301151 0.349081
vt 0.308748 0.344377
vt 0.293038 0.390650
vt 0.295414 0.370656
vt 0.299409 0.455478
vt 0.295558 0.419102
vt 0.301151 0.353272
vt 0.285761 0.390650
vt 0.288866 0.370656
vt 0.294085 0.455478
vt 0.289054 0.419102
vt 0.306287 0.344377
vt 0.296361 0.353272
vt 0.296361 0.349081
vt 0.305423 0.344377
vt 0.286567 0.370656
vt 0.294679 0.353272
vt 0.286770 0.419102
vt 0.283205 0.390650
vt 0.307377 0.455478
vt 0.310692 0.410041
vt 0.316776 0.410041
vt 0.294679 0.349081
vt 0.292215 0.455478
vt 0.289054 0.419102
vt 0.285761 0.390650
vt 0.296361 0.349081
vt 0.306288 0.344377
vt 0.288866 0.370656
vt 0.294085 0.455478
vt 0.296361 0.353272
vt 0.301151 0.349081
vt 0.308748 0.344377
vt 0.293038 0.390650
vt 0.295415 0.370656
vt 0.299409 0.455478
vt 0.295558 0.419102
vt 0.301151 0.353272
vt 0.305293 0.419102
vt 0.312431 0.344377
vt 0.305215 0.370656
vt 0.308320 0.353272
vt 0.303929 0.390650
vt 0.308320 0.349081
vt 0.316776 0.382203
vt 0.309946 0.410041
vt 0.304789 0.410041
vt 0.309946 0.382203
vt 0.304157 0.410041
vt 0.300710 0.410041
vt 0.304157 0.382203
vt 0.300288 0.410041
vt 0.299078 0.410041
vt 0.300288 0.382203
vt 0.298929 0.410041
vt 0.300140 0.410041
vt 0.298929 0.382203
vt 0.300288 0.410041
vt 0.303734 0.410041
vt 0.304157 0.410041
vt 0.309314 0.410041
vt 0.309946 0.410041
vt 0.316030 0.410041
vt 0.316776 0.410041
vt 0.322859 0.410041
vt 0.323605 0.410041
vt 0.328762 0.410041
vt 0.323605 0.382203
vt 0.329395 0.410041
vt 0.332841 0.410041
vt 0.329395 0.382203
vt 0.333263 0.410041
vt 0.334473 0.410041
vt 0.333263 0.382203
vt 0.334622 0.410041
vt 0.333411 0.410041
vt 0.334622 0.382203
vt 0.333263 0.410041
vt 0.329817 0.410041
vt 0.323605 0.410041
vt 0.317521 0.410041
vt 0.818073 0.798493
vt 0.821053 0.869128
vt 0.825732 0.864539
vt 0.821688 0.794947
vt 0.829040 0.861294
vt 0.825732 0.864539
vt 0.818073 0.798493
vt 0.821053 0.869128
vt 0.817744 0.872373
vt 0.814458 0.802038
vt 0.817744 0.872373
vt 0.829040 0.861294
vt 0.829040 0.878764
vt 0.825732 0.882009
vt 0.825523 0.946119
vt 0.827638 0.944045
vt 0.829040 0.878764
vt 0.827638 0.944045
vt 0.825732 0.882009
vt 0.825523 0.946119
vt 0.821053 0.886598
vt 0.822532 0.949052
vt 0.817744 0.889842
vt 0.820418 0.951126
vt 0.817744 0.889842
vt 0.820418 0.951126
vt 0.821053 0.886598
vt 0.822532 0.949052
vt 0.824037 0.947708
vt 0.329395 0.410041
vt 0.324237 0.410041
vn 0.0000 -1.0000 -0.0000
vn -0.0000 -0.9818 -0.1897
vn 0.0726 -0.9818 -0.1753
vn -0.0000 -0.8718 -0.4898
vn -0.0000 -0.5110 -0.8596
vn 0.3289 -0.5110 -0.7941
vn 0.1874 -0.8718 -0.4525
vn 0.0000 0.0159 -0.9999
vn -0.0000 0.4530 -0.8915
vn 0.3412 0.4530 -0.8236
vn 0.3826 0.0159 -0.9238
vn -0.0000 0.8152 -0.5792
vn 0.2216 0.8152 -0.5351
vn 0.6304 0.4530 -0.6304
vn 0.7070 0.0159 -0.7070
vn 0.3464 -0.8718 -0.3464
vn 0.1342 -0.9818 -0.1342
vn 0.6078 -0.5110 -0.6078
vn 0.4095 0.8152 -0.4095
vn 0.4525 -0.8718 -0.1875
vn 0.1753 -0.9818 -0.0726
vn 0.9238 0.0159 -0.3826
vn 0.7941 -0.5110 -0.3289
vn 0.5351 0.8152 -0.2216
vn 0.8236 0.4530 -0.3412
vn 0.5792 0.8152 0.0000
vn 0.8915 0.4530 0.0000
vn 0.1897 -0.9818 0.0000
vn 0.8596 -0.5110 0.0000
vn 0.4898 -0.8718 0.0000
vn 0.9999 0.0159 0.0000
vn 0.1753 -0.9818 0.0726
vn 0.7941 -0.5110 0.3289
vn 0.4525 -0.8718 0.1875
vn 0.8236 0.4530 0.3412
vn 0.9238 0.0159 0.3826
vn 0.5351 0.8152 0.2216
vn 0.3464 -0.8718 0.3464
vn 0.1342 -0.9818 0.1342
vn 0.7070 0.0159 0.7070
vn 0.6078 -0.5110 0.6078
vn 0.4095 0.8152 0.4095
vn 0.6304 0.4530 0.6304
vn 0.1874 -0.8718 0.4525
vn 0.0726 -0.9818 0.1753
vn 0.3826 0.0159 0.9238
vn 0.3289 -0.5110 0.7941
vn 0.2216 0.8152 0.5351
vn 0.3412 0.4530 0.8236
vn 0.0000 -0.9818 0.1897
vn -0.0000 -0.5110 0.8596
vn 0.0000 -0.8718 0.4898
vn -0.0000 0.4530 0.8915
vn -0.0000 0.0159 0.9999
vn -0.0000 0.8152 0.5792
vn -0.3289 -0.5110 0.7941
vn -0.1874 -0.8718 0.4525
vn -0.3412 0.4530 0.8236
vn -0.3826 0.0159 0.9238
vn -0.0726 -0.9818 0.1753
vn -0.2216 0.8152 0.5351
vn -0.3464 -0.8718 0.3464
vn -0.1342 -0.9818 0.1342
vn -0.7070 0.0159 0.7070
vn -0.6078 -0.5110 0.6078
vn -0.4095 0.8152 0.4095
vn -0.6304 0.4530 0.6304
vn -0.9238 0.0159 0.3826
vn -0.7941 -0.5110 0.3289
vn -0.5351 0.8152 0.2216
vn -0.8236 0.4530 0.3412
vn -0.1753 -0.9818 0.0726
vn -0.4525 -0.8718 0.1874
vn -0.1897 -0.9818 -0.0000
vn -0.8596 -0.5110 -0.0000
vn -0.4898 -0.8718 -0.0000
vn -0.8915 0.4530 -0.0000
vn -0.9999 0.0159 -0.0000
vn -0.2216 0.8152 -0.5351
vn -0.0054 0.9999 -0.0130
vn 0.0000 0.9999 -0.0141
vn -0.5792 0.8152 -0.0000
vn -0.8236 0.4530 -0.3412
vn -0.9238 0.0159 -0.3826
vn -0.4525 -0.8718 -0.1875
vn -0.1753 -0.9818 -0.0726
vn -0.7941 -0.5110 -0.3289
vn -0.5351 0.8152 -0.2216
vn -0.3464 -0.8718 -0.3464
vn -0.1342 -0.9818 -0.1342
vn -0.7070 0.0159 -0.7070
vn -0.6078 -0.5110 -0.6078
vn -0.4095 0.8152 -0.4095
vn -0.6304 0.4530 -0.6304
vn -0.3412 0.4530 -0.8236
vn -0.0726 -0.9818 -0.1753
vn -0.3289 -0.5110 -0.7941
vn -0.1874 -0.8718 -0.4525
vn -0.3826 0.0159 -0.9238
vn -0.0000 1.0000 0.0000
vn -0.0100 0.9999 -0.0100
vn -0.0130 0.9999 -0.0054
vn -0.0141 0.9999 -0.0000
vn -0.0130 0.9999 0.0054
vn -0.0100 0.9999 0.0100
vn -0.0054 0.9999 0.0130
vn 0.0000 0.9999 0.0141
vn 0.0054 0.9999 0.0130
vn 0.0100 0.9999 0.0100
vn 0.0130 0.9999 0.0054
vn 0.0141 0.9999 -0.0000
vn 0.0130 0.9999 -0.0054
vn 0.0100 0.9999 -0.0100
vn 0.0054 0.9999 -0.0130
vn -0.0350 -0.2774 -0.9601
vn -0.3558 0.2874 -0.8893
vn 0.4048 0.2141 -0.8890
vn 0.9249 -0.3803 0.0000
vn 0.9091 0.1664 0.3819
vn 0.4048 0.2141 0.8890
vn -0.0350 -0.2774 0.9601
vn -0.3558 0.2874 0.8893
vn -0.8609 0.3353 0.3826
vn -0.9844 -0.1757 -0.0000
vn -0.8609 0.3353 -0.3826
vn 0.9091 0.1664 -0.3819
vn 0.2553 0.8626 -0.4368
vn 0.5100 0.8410 -0.1809
vn 0.5100 0.8410 0.1809
vn 0.2553 0.8626 0.4368
vn -0.1052 0.8932 0.4371
vn -0.3606 0.9149 0.1812
vn -0.3606 0.9149 -0.1812
vn -0.1052 0.8932 -0.4371
vn 0.0856 0.9963 0.0000
usemtl tiny_treats_1
s 1
f 65/1/1 4/2/2 10/3/3
f 97/4/4 3/5/5 8/6/6 9/7/7
f 96/8/8 2/9/9 6/10/10 7/11/11
f 4/2/2 97/12/4 9/13/7 10/3/3
f 3/5/5 96/8/8 7/11/11 8/6/6
f 2/9/9 1/14/12 5/15/13 6/10/10
f 7/11/11 6/10/10 12/16/14 13/17/15
f 10/3/3 9/13/7 15/18/16 16/19/17
f 8/6/6 7/11/11 13/17/15 14/20/18
f 6/10/10 5/15/13 11/21/19 12/16/14
f 65/1/1 10/3/3 16/19/17
f 9/7/7 8/6/6 14/20/18 15/22/16
f 16/19/17 15/18/16 21/23/20 22/24/21
f 14/20/18 13/17/15 19/25/22 20/26/23
f 12/16/14 11/21/19 17/27/24 18/28/25
f 65/1/1 16/19/17 22/24/21
f 15/22/16 14/20/18 20/26/23 21/29/20
f 13/17/15 12/16/14 18/28/25 19/25/22
f 18/28/25 17/27/24 23/30/26 24/31/27
f 65/1/1 22/24/21 28/32/28
f 21/29/20 20/26/23 26/33/29 27/34/30
f 19/25/22 18/28/25 24/31/27 25/35/31
f 22/24/21 21/23/20 27/36/30 28/32/28
f 20/26/23 19/25/22 25/35/31 26/33/29
f 65/1/1 28/32/28 34/37/32
f 27/34/30 26/33/29 32/38/33 33/39/34
f 25/35/31 24/31/27 30/40/35 31/41/36
f 28/32/28 27/36/30 33/42/34 34/37/32
f 26/33/29 25/35/31 31/41/36 32/38/33
f 24/31/27 23/30/26 29/43/37 30/40/35
f 34/37/32 33/42/34 39/44/38 40/45/39
f 32/38/33 31/41/36 37/46/40 38/47/41
f 30/40/35 29/43/37 35/48/42 36/49/43
f 65/1/1 34/37/32 40/45/39
f 33/39/34 32/38/33 38/47/41 39/50/38
f 31/41/36 30/40/35 36/49/43 37/46/40
f 40/45/39 39/44/38 45/51/44 46/52/45
f 38/47/41 37/46/40 43/53/46 44/54/47
f 36/49/43 35/48/42 41/55/48 42/56/49
f 65/1/1 40/45/39 46/52/45
f 39/50/38 38/47/41 44/54/47 45/57/44
f 37/46/40 36/49/43 42/56/49 43/53/46
f 65/1/1 46/52/45 52/58/50
f 45/57/44 44/54/47 50/59/51 51/60/52
f 43/53/46 42/56/49 48/61/53 49/62/54
f 46/52/45 45/51/44 51/63/52 52/58/50
f 44/54/47 43/53/46 49/62/54 50/59/51
f 42/56/49 41/55/48 47/64/55 48/61/53
f 51/60/52 50/59/51 56/65/56 57/66/57
f 49/62/54 48/61/53 54/67/58 55/68/59
f 52/58/50 51/63/52 57/69/57 58/70/60
f 50/59/51 49/62/54 55/68/59 56/65/56
f 48/61/53 47/64/55 53/71/61 54/67/58
f 65/1/1 52/58/50 58/70/60
f 58/70/60 57/69/57 63/72/62 64/73/63
f 56/65/56 55/68/59 61/74/64 62/75/65
f 54/67/58 53/71/61 59/76/66 60/77/67
f 65/1/1 58/70/60 64/73/63
f 57/66/57 56/65/56 62/75/65 63/78/62
f 55/68/59 54/67/58 60/77/67 61/74/64
f 62/75/65 61/74/64 68/79/68 69/80/69
f 60/77/67 59/76/66 66/81/70 67/82/71
f 65/1/1 64/73/63 71/83/72
f 63/78/62 62/75/65 69/80/69 70/84/73
f 61/74/64 60/77/67 67/82/71 68/79/68
f 64/73/63 63/72/62 70/85/73 71/83/72
f 65/1/1 71/83/72 77/86/74
f 70/84/73 69/80/69 75/87/75 76/88/76
f 68/79/68 67/82/71 73/89/77 74/90/78
f 90/91/79 134/92/80 135/93/81 1/14/12
f 71/83/72 70/85/73 76/94/76 77/86/74
f 69/80/69 68/79/68 74/90/78 75/87/75
f 67/82/71 66/81/70 72/95/82 73/89/77
f 74/90/78 73/89/77 79/96/83 80/97/84
f 77/86/74 76/94/76 82/98/85 83/99/86
f 75/87/75 74/90/78 80/97/84 81/100/87
f 73/89/77 72/95/82 78/101/88 79/96/83
f 65/1/1 77/86/74 83/99/86
f 76/88/76 75/87/75 81/100/87 82/102/85
f 83/99/86 82/98/85 88/103/89 89/104/90
f 81/100/87 80/97/84 86/105/91 87/106/92
f 79/96/83 78/101/88 84/107/93 85/108/94
f 65/1/1 83/99/86 89/104/90
f 82/102/85 81/100/87 87/106/92 88/109/89
f 80/97/84 79/96/83 85/108/94 86/105/91
f 85/108/94 84/107/93 90/91/79 91/110/95
f 65/1/1 89/104/90 95/111/96
f 88/109/89 87/106/92 93/112/97 94/113/98
f 86/105/91 85/108/94 91/110/95 92/114/99
f 89/104/90 88/103/89 94/115/98 95/111/96
f 87/106/92 86/105/91 92/114/99 93/112/97
f 65/1/1 95/111/96 4/2/2
f 94/113/98 93/112/97 3/5/5 97/4/4
f 92/114/99 91/110/95 2/9/9 96/8/8
f 95/111/96 94/115/98 97/12/4 4/2/2
f 93/112/97 92/114/99 96/8/8 3/5/5
f 91/110/95 90/91/79 1/14/12 2/9/9
f 135/93/81 134/92/80 119/116/100
f 134/117/80 133/118/101 119/119/100
f 133/120/101 132/121/102 119/122/100
f 132/123/102 131/124/103 119/125/100
f 131/126/103 130/127/104 119/128/100
f 130/129/104 129/130/105 119/125/100
f 129/131/105 128/132/106 119/122/100
f 128/133/106 127/134/107 119/119/100
f 127/135/107 126/136/108 119/116/100
f 126/137/108 125/138/109 119/139/100
f 125/140/109 124/141/110 119/142/100
f 124/143/110 123/144/111 119/145/100
f 123/146/111 122/147/112 119/148/100
f 122/149/112 121/150/113 119/145/100
f 120/151/114 135/152/81 119/139/100
f 98/153/115 117/154/116 103/155/117
f 99/156/118 107/157/119 109/158/120 100/159/121
f 100/159/121 109/158/120 111/160/122
f 100/159/121 111/160/122 113/161/123 101/162/124
f 101/162/124 113/161/123 115/163/125
f 101/162/124 115/163/125 117/154/116 98/153/115
f 98/153/115 103/155/117 105/164/126 99/156/118
f 99/156/118 105/164/126 107/157/119
f 105/165/126 103/166/117 102/167/127 104/168/128
f 107/169/119 105/165/126 104/168/128 106/170/129
f 109/171/120 107/169/119 106/170/129 108/172/130
f 111/173/122 109/171/120 108/172/130 110/174/131
f 113/175/123 111/173/122 110/174/131 112/176/132
f 115/177/125 113/175/123 112/176/132 114/178/133
f 117/179/116 115/177/125 114/178/133 116/180/134
f 103/166/117 117/179/116 116/180/134 102/167/127
f 104/168/128 102/167/127 118/181/135
f 102/167/127 116/180/134 118/181/135
f 116/180/134 114/178/133 118/181/135
f 114/178/133 112/176/132 118/181/135
f 112/176/132 110/174/131 118/181/135
f 110/174/131 108/172/130 118/181/135
f 108/172/130 106/170/129 118/181/135
f 106/170/129 104/168/128 118/181/135
f 121/182/113 120/183/114 119/142/100
f 84/107/93 133/118/101 134/117/80 90/91/79
f 78/101/88 132/121/102 133/120/101 84/107/93
f 72/95/82 131/124/103 132/123/102 78/101/88
f 66/81/70 130/127/104 131/126/103 72/95/82
f 59/76/66 129/130/105 130/129/104 66/81/70
f 53/71/61 128/132/106 129/131/105 59/76/66
f 47/64/55 127/134/107 128/133/106 53/71/61
f 41/55/48 126/136/108 127/135/107 47/64/55
f 35/48/42 125/138/109 126/137/108 41/55/48
f 29/43/37 124/141/110 125/140/109 35/48/42
f 23/30/26 123/144/111 124/143/110 29/43/37
f 17/27/24 122/147/112 123/146/111 23/30/26
f 11/21/19 121/150/113 122/149/112 17/27/24
f 5/15/13 120/183/114 121/182/113 11/21/19
f 1/14/12 135/152/81 120/151/114 5/15/13
