# Blender v3.4.1 OBJ File: 'Tiny_Treats_Pleasant_Picnic_ASSETS_EXPORT.blend'
# www.blender.org
mtllib apple_cut.mtl
o apple_cut
v -0.000000 0.283756 -0.160498
v -0.000000 0.242877 -0.196084
v -0.000000 0.070959 -0.201591
v -0.000000 0.002728 -0.074184
v 0.061420 0.283756 -0.148281
v 0.075038 0.242877 -0.181158
v 0.083951 0.151588 -0.202676
v 0.077146 0.070959 -0.186246
v 0.055258 0.025334 -0.133405
v 0.028389 0.002729 -0.068537
v 0.113489 0.283756 -0.113489
v 0.138652 0.242877 -0.138652
v 0.155122 0.151588 -0.155122
v 0.142546 0.070959 -0.142546
v 0.102104 0.025334 -0.102104
v 0.052456 0.002729 -0.052456
v 0.148281 0.283756 -0.061420
v 0.181158 0.242877 -0.075038
v 0.202676 0.151588 -0.083951
v 0.186246 0.070959 -0.077146
v 0.133406 0.025334 -0.055258
v 0.068537 0.002728 -0.028389
v 0.160498 0.283757 0.000000
v 0.196084 0.242877 0.000000
v 0.219375 0.151588 0.000000
v 0.201591 0.070959 0.000000
v 0.144397 0.025334 0.000000
v 0.074184 0.002728 0.000000
v 0.148281 0.283756 0.061420
v 0.181158 0.242877 0.075038
v 0.202676 0.151588 0.083951
v 0.186246 0.070959 0.077146
v 0.133406 0.025334 0.055258
v 0.068537 0.002728 0.028389
v 0.113489 0.283756 0.113489
v 0.138652 0.242877 0.138652
v 0.155122 0.151588 0.155122
v 0.142546 0.070959 0.142546
v 0.102104 0.025334 0.102104
v 0.052456 0.002729 0.052456
v 0.083951 0.151588 0.202676
v 0.077145 0.070959 0.186246
v -0.061420 0.283756 0.148281
v -0.077146 0.070959 0.186246
v -0.055258 0.025334 0.133405
v -0.113489 0.283756 0.113489
v -0.138652 0.242877 0.138652
v -0.155122 0.151588 0.155122
v -0.142547 0.070959 0.142546
v -0.102104 0.025334 0.102104
v -0.052456 0.002729 0.052456
v -0.000000 -0.000001 0.000000
v -0.148281 0.283756 0.061420
v -0.181158 0.242877 0.075038
v -0.202676 0.151588 0.083951
v -0.186246 0.070959 0.077146
v -0.133406 0.025334 0.055258
v -0.068537 0.002728 0.028389
v -0.160498 0.283757 -0.000000
v -0.196084 0.242877 -0.000000
v -0.219375 0.151588 -0.000000
v -0.201591 0.070959 -0.000000
v -0.144397 0.025334 -0.000000
v -0.074184 0.002728 -0.000000
v -0.148281 0.283756 -0.061420
v -0.181158 0.242877 -0.075038
v -0.202676 0.151588 -0.083951
v -0.186246 0.070959 -0.077146
v -0.133406 0.025334 -0.055258
v -0.068537 0.002728 -0.028389
v -0.113489 0.283756 -0.113489
v -0.138652 0.242877 -0.138652
v -0.155121 0.151588 -0.155122
v -0.142546 0.070959 -0.142546
v -0.102104 0.025334 -0.102104
v -0.052456 0.002729 -0.052456
v -0.061420 0.283756 -0.148281
v -0.075038 0.242877 -0.181158
v -0.083951 0.151588 -0.202676
v -0.077146 0.070959 -0.186246
v -0.055258 0.025334 -0.133405
v -0.028389 0.002729 -0.068537
v 0.000000 0.151588 -0.219375
v 0.000000 0.025334 -0.144397
v -0.001436 0.262187 -0.041834
v 0.018955 0.260434 -0.021377
v -0.001436 0.262187 -0.000920
v -0.021827 0.263939 -0.021377
v 0.016617 0.353055 -0.041808
v 0.020299 0.339601 -0.053341
v 0.028546 0.352030 -0.029840
v 0.038962 0.337996 -0.034617
v 0.028546 0.352030 -0.012914
v 0.038962 0.337996 -0.008137
v 0.016617 0.353055 -0.000945
v 0.020299 0.339601 0.010587
v -0.000255 0.354505 -0.000945
v -0.006095 0.341869 0.010587
v -0.012184 0.355530 -0.012914
v -0.024759 0.343473 -0.008137
v -0.012184 0.355530 -0.029840
v -0.024759 0.343473 -0.034617
v -0.000255 0.354505 -0.041808
v -0.006095 0.341869 -0.053341
v 0.008197 0.353976 -0.021377
v 0.000002 0.274588 -0.000000
v 0.032616 0.309407 -0.078740
v 0.060266 0.309407 -0.060265
v 0.078741 0.309407 -0.032615
v 0.085229 0.309408 0.000000
v 0.078741 0.309407 0.032615
v 0.060266 0.309407 0.060265
v 0.032616 0.309407 0.078740
v -0.060264 0.309407 0.060265
v -0.078740 0.309407 0.032615
v -0.085227 0.309408 -0.000000
v -0.078740 0.309407 -0.032615
v -0.060264 0.309407 -0.060265
v -0.032614 0.309407 -0.078740
v 0.000001 0.309407 -0.085228
v -0.052802 0.250228 0.127475
v -0.061453 0.224258 0.148361
v -0.068612 0.150932 0.165645
v -0.063709 0.092838 0.153807
v -0.048085 0.060271 0.116089
v -0.025779 0.041504 0.062235
v 0.000000 0.038980 -0.000937
v -0.009841 0.237713 0.009843
v -0.033088 0.267783 0.079883
v -0.075038 0.242877 0.181158
v -0.083951 0.151588 0.202676
v -0.028389 0.002729 0.068537
v -0.032615 0.309407 0.078741
v -0.061419 0.233568 0.167587
v -0.050284 0.266992 0.140706
v -0.069455 0.151260 0.186988
v -0.063600 0.081899 0.172854
v -0.044845 0.042803 0.127575
v -0.020262 0.022094 0.068226
v 0.000000 0.019370 -0.005693
v -0.026025 0.288343 0.082131
v 0.000001 0.254859 -0.000224
v 0.052802 0.250228 0.127475
v 0.061453 0.224258 0.148361
v 0.068613 0.150932 0.165645
v 0.063709 0.092838 0.153807
v 0.048086 0.060271 0.116089
v 0.025779 0.041504 0.062235
v 0.009843 0.237713 0.009841
v 0.033089 0.267783 0.079882
v 0.061420 0.283756 0.148281
v 0.075038 0.242877 0.181158
v 0.055258 0.025334 0.133405
v 0.028389 0.002729 0.068537
v 0.050284 0.266992 0.140706
v 0.061419 0.233568 0.167587
v 0.069455 0.151260 0.186988
v 0.063600 0.081899 0.172854
v 0.044845 0.042803 0.127575
v 0.020262 0.022094 0.068226
v 0.026026 0.288343 0.082129
v 0.000001 0.239427 -0.000275
vt 0.316776 0.343809
vt 0.316776 0.344377
vt 0.321120 0.344377
vt 0.316776 0.353272
vt 0.316776 0.370656
vt 0.328336 0.370656
vt 0.325232 0.353272
vt 0.316776 0.390650
vt 0.316776 0.419102
vt 0.328258 0.419102
vt 0.329622 0.390650
vt 0.316776 0.349081
vt 0.325232 0.349081
vt 0.316776 0.455478
vt 0.326174 0.455478
vt 0.337993 0.419102
vt 0.340513 0.390650
vt 0.332400 0.349081
vt 0.324803 0.344377
vt 0.338137 0.370656
vt 0.334142 0.455478
vt 0.332400 0.353272
vt 0.337190 0.349081
vt 0.327264 0.344377
vt 0.347790 0.390650
vt 0.344685 0.370656
vt 0.339466 0.455478
vt 0.344498 0.419102
vt 0.337190 0.353272
vt 0.341336 0.455478
vt 0.346782 0.419102
vt 0.328128 0.344377
vt 0.346985 0.370656
vt 0.338872 0.353272
vt 0.350346 0.390650
vt 0.338872 0.349081
vt 0.327264 0.344377
vt 0.344685 0.370656
vt 0.337190 0.353272
vt 0.344498 0.419102
vt 0.347790 0.390650
vt 0.337190 0.349081
vt 0.339466 0.455478
vt 0.332400 0.349081
vt 0.324803 0.344377
vt 0.340513 0.390650
vt 0.338137 0.370656
vt 0.334142 0.455478
vt 0.337993 0.419102
vt 0.332400 0.353272
vt 0.325232 0.349081
vt 0.321120 0.344377
vt 0.329622 0.390650
vt 0.328336 0.370656
vt 0.326174 0.455478
vt 0.328258 0.419102
vt 0.325232 0.353272
vt 0.312431 0.344377
vt 0.308320 0.349081
vt 0.301151 0.349081
vt 0.308748 0.344377
vt 0.305215 0.370656
vt 0.303929 0.390650
vt 0.293038 0.390650
vt 0.295414 0.370656
vt 0.305293 0.419102
vt 0.307377 0.455478
vt 0.299409 0.455478
vt 0.295558 0.419102
vt 0.308320 0.353272
vt 0.301151 0.353272
vt 0.285761 0.390650
vt 0.288866 0.370656
vt 0.294085 0.455478
vt 0.289054 0.419102
vt 0.306287 0.344377
vt 0.296361 0.353272
vt 0.296361 0.349081
vt 0.305423 0.344377
vt 0.286567 0.370656
vt 0.294679 0.353272
vt 0.286770 0.419102
vt 0.283205 0.390650
vt 0.307377 0.455478
vt 0.310692 0.410041
vt 0.316776 0.410041
vt 0.294679 0.349081
vt 0.292215 0.455478
vt 0.289054 0.419102
vt 0.285761 0.390650
vt 0.296361 0.349081
vt 0.306288 0.344377
vt 0.288866 0.370656
vt 0.294085 0.455478
vt 0.296361 0.353272
vt 0.301151 0.349081
vt 0.308748 0.344377
vt 0.293038 0.390650
vt 0.295415 0.370656
vt 0.299409 0.455478
vt 0.295558 0.419102
vt 0.301151 0.353272
vt 0.305293 0.419102
vt 0.312431 0.344377
vt 0.305215 0.370656
vt 0.308320 0.353272
vt 0.303929 0.390650
vt 0.308320 0.349081
vt 0.316776 0.382203
vt 0.309946 0.410041
vt 0.304789 0.410041
vt 0.309946 0.382203
vt 0.304157 0.410041
vt 0.300710 0.410041
vt 0.304157 0.382203
vt 0.300288 0.410041
vt 0.299078 0.410041
vt 0.300288 0.382203
vt 0.298929 0.410041
vt 0.300140 0.410041
vt 0.298929 0.382203
vt 0.300288 0.410041
vt 0.303734 0.410041
vt 0.304157 0.410041
vt 0.309314 0.410041
vt 0.323605 0.410041
vt 0.328762 0.410041
vt 0.323605 0.382203
vt 0.329395 0.410041
vt 0.332841 0.410041
vt 0.329395 0.382203
vt 0.333263 0.410041
vt 0.334473 0.410041
vt 0.333263 0.382203
vt 0.334622 0.410041
vt 0.333411 0.410041
vt 0.334622 0.382203
vt 0.333263 0.410041
vt 0.329817 0.410041
vt 0.323605 0.410041
vt 0.317521 0.410041
vt 0.818073 0.798493
vt 0.821053 0.869128
vt 0.825732 0.864539
vt 0.821688 0.794947
vt 0.829040 0.861294
vt 0.825732 0.864539
vt 0.818073 0.798493
vt 0.821053 0.869128
vt 0.817744 0.872373
vt 0.814458 0.802038
vt 0.817744 0.872373
vt 0.829040 0.861294
vt 0.829040 0.878764
vt 0.825732 0.882009
vt 0.825523 0.946119
vt 0.827638 0.944045
vt 0.829040 0.878764
vt 0.827638 0.944045
vt 0.825732 0.882009
vt 0.825523 0.946119
vt 0.821053 0.886598
vt 0.822532 0.949052
vt 0.817744 0.889842
vt 0.820418 0.951126
vt 0.817744 0.889842
vt 0.820418 0.951126
vt 0.821053 0.886598
vt 0.822532 0.949052
vt 0.824037 0.947708
vt 0.329395 0.410041
vt 0.324237 0.410041
vt 0.556724 0.843838
vt 0.555102 0.790390
vt 0.550236 0.786647
vt 0.551952 0.817347
vt 0.327253 0.415903
vt 0.325603 0.438703
vt 0.326174 0.455478
vt 0.328258 0.419102
vt 0.328445 0.389589
vt 0.329622 0.390650
vt 0.327384 0.371339
vt 0.328336 0.370656
vt 0.324672 0.354240
vt 0.325232 0.349081
vt 0.320923 0.348634
vt 0.321120 0.344377
vt 0.316318 0.346478
vt 0.322604 0.408189
vt 0.322859 0.410041
vt 0.317176 0.381025
vt 0.559407 0.859428
vt 0.560623 0.850205
vt 0.561643 0.826028
vt 0.558487 0.796899
vt 0.560807 0.809522
vt 0.322349 0.406338
vt 0.317577 0.379847
vt 0.325032 0.421928
vt 0.315861 0.349147
vt 0.320727 0.352890
vt 0.324112 0.359399
vt 0.326432 0.372022
vt 0.327268 0.388528
vt 0.326248 0.412705
vt 0.543722 0.843838
vt 0.544964 0.817346
vt 0.546699 0.790390
vt 0.307581 0.438703
vt 0.306027 0.415903
vt 0.305293 0.419102
vt 0.307377 0.455478
vt 0.304906 0.389589
vt 0.303929 0.390650
vt 0.306000 0.371339
vt 0.305215 0.370656
vt 0.308686 0.354240
vt 0.308320 0.349081
vt 0.312378 0.348634
vt 0.312431 0.344377
vt 0.309647 0.408189
vt 0.309946 0.410041
vt 0.310267 0.381025
vt 0.542161 0.859428
vt 0.543426 0.796899
vt 0.541160 0.809522
vt 0.540259 0.826028
vt 0.541137 0.850205
vt 0.310589 0.379846
vt 0.309347 0.406338
vt 0.307786 0.421928
vt 0.312324 0.352890
vt 0.309051 0.359399
vt 0.306785 0.372022
vt 0.305884 0.388528
vt 0.306762 0.412705
vt 0.550236 0.786647
vt 0.550236 0.786647
vt 0.327421 0.410020
vt 0.550236 0.786647
vt 0.333836 0.410020
vn 0.0000 -1.0000 -0.0053
vn -0.0000 -0.9818 -0.1897
vn 0.0726 -0.9818 -0.1753
vn -0.0000 -0.8718 -0.4898
vn -0.0000 -0.5110 -0.8596
vn 0.3289 -0.5110 -0.7941
vn 0.1874 -0.8718 -0.4525
vn 0.0000 0.0159 -0.9999
vn -0.0000 0.4530 -0.8915
vn 0.3412 0.4530 -0.8236
vn 0.3826 0.0159 -0.9238
vn -0.0000 0.8152 -0.5792
vn 0.2216 0.8152 -0.5351
vn 0.6304 0.4530 -0.6304
vn 0.7070 0.0159 -0.7070
vn 0.3464 -0.8718 -0.3464
vn 0.1342 -0.9818 -0.1342
vn 0.6078 -0.5110 -0.6078
vn 0.4095 0.8152 -0.4095
vn 0.4525 -0.8718 -0.1875
vn 0.1753 -0.9818 -0.0726
vn 0.9238 0.0159 -0.3826
vn 0.7941 -0.5110 -0.3289
vn 0.5351 0.8152 -0.2216
vn 0.8236 0.4530 -0.3412
vn 0.5792 0.8152 0.0000
vn 0.8915 0.4530 0.0000
vn 0.1897 -0.9818 0.0000
vn 0.8596 -0.5110 0.0000
vn 0.4898 -0.8718 0.0000
vn 0.9999 0.0159 0.0000
vn 0.1753 -0.9818 0.0726
vn 0.7941 -0.5110 0.3289
vn 0.4525 -0.8718 0.1875
vn 0.8236 0.4530 0.3412
vn 0.9238 0.0159 0.3826
vn 0.5351 0.8152 0.2216
vn 0.3464 -0.8718 0.3464
vn 0.1342 -0.9818 0.1342
vn 0.7070 0.0159 0.7070
vn 0.6078 -0.5110 0.6078
vn 0.4095 0.8152 0.4095
vn 0.6304 0.4530 0.6304
vn 0.2762 -0.8677 0.4133
vn 0.1074 -0.9811 0.1607
vn 0.5555 0.0156 0.8314
vn 0.4799 -0.5037 0.7183
vn 0.3259 0.8099 0.4878
vn 0.4972 0.4461 0.7442
vn -0.1074 -0.9811 0.1607
vn -0.2762 -0.8677 0.4133
vn -0.3464 -0.8718 0.3464
vn -0.1342 -0.9818 0.1342
vn -0.4799 -0.5037 0.7183
vn -0.5555 0.0156 0.8314
vn -0.7070 0.0159 0.7070
vn -0.6078 -0.5110 0.6078
vn -0.4972 0.4461 0.7442
vn -0.3259 0.8099 0.4878
vn -0.4095 0.8152 0.4095
vn -0.6304 0.4530 0.6304
vn -0.9238 0.0159 0.3826
vn -0.7941 -0.5110 0.3289
vn -0.5351 0.8152 0.2216
vn -0.8236 0.4530 0.3412
vn -0.1753 -0.9818 0.0726
vn -0.4525 -0.8718 0.1874
vn -0.1897 -0.9818 -0.0000
vn -0.8596 -0.5110 -0.0000
vn -0.4898 -0.8718 -0.0000
vn -0.8915 0.4530 -0.0000
vn -0.9999 0.0159 -0.0000
vn -0.2216 0.8152 -0.5351
vn -0.0054 0.9999 -0.0130
vn 0.0000 0.9999 -0.0141
vn -0.5792 0.8152 -0.0000
vn -0.8236 0.4530 -0.3412
vn -0.9238 0.0159 -0.3826
vn -0.4525 -0.8718 -0.1875
vn -0.1753 -0.9818 -0.0726
vn -0.7941 -0.5110 -0.3289
vn -0.5351 0.8152 -0.2216
vn -0.3464 -0.8718 -0.3464
vn -0.1342 -0.9818 -0.1342
vn -0.7070 0.0159 -0.7070
vn -0.6078 -0.5110 -0.6078
vn -0.4095 0.8152 -0.4095
vn -0.6304 0.4530 -0.6304
vn -0.3412 0.4530 -0.8236
vn -0.0726 -0.9818 -0.1753
vn -0.3289 -0.5110 -0.7941
vn -0.1874 -0.8718 -0.4525
vn -0.3826 0.0159 -0.9238
vn -0.0000 0.9983 0.0583
vn -0.0100 0.9999 -0.0100
vn -0.0130 0.9999 -0.0054
vn -0.0141 0.9999 -0.0000
vn -0.0130 0.9999 0.0054
vn -0.0100 0.9999 0.0100
vn -0.0080 0.9999 0.0120
vn 0.0080 0.9999 0.0120
vn 0.0100 0.9999 0.0100
vn 0.0130 0.9999 0.0054
vn 0.0141 0.9999 -0.0000
vn 0.0130 0.9999 -0.0054
vn 0.0100 0.9999 -0.0100
vn 0.0054 0.9999 -0.0130
vn -0.0350 -0.2774 -0.9601
vn -0.3558 0.2874 -0.8893
vn 0.4048 0.2141 -0.8890
vn 0.9249 -0.3803 0.0000
vn 0.9091 0.1664 0.3819
vn 0.4048 0.2141 0.8890
vn -0.0350 -0.2774 0.9601
vn -0.3558 0.2874 0.8893
vn -0.8609 0.3353 0.3826
vn -0.9844 -0.1757 0.0000
vn -0.8609 0.3353 -0.3826
vn 0.9091 0.1664 -0.3819
vn 0.2553 0.8626 -0.4368
vn 0.5100 0.8410 -0.1809
vn 0.5100 0.8410 0.1809
vn 0.2553 0.8626 0.4368
vn -0.1052 0.8932 0.4371
vn -0.3606 0.9149 0.1812
vn -0.3606 0.9149 -0.1812
vn -0.1052 0.8932 -0.4371
vn 0.0856 0.9963 0.0000
vn 0.9167 -0.1964 0.3480
vn 0.9372 0.1356 0.3214
vn 0.9389 0.0844 0.3336
vn 0.8555 -0.0865 0.5105
vn 0.9053 0.0238 0.4241
vn 0.9102 0.0470 0.4114
vn 0.7949 0.2844 0.5360
vn 0.7496 0.1607 0.6421
vn 0.9030 0.0008 0.4296
vn 0.7345 0.0057 0.6786
vn 0.8979 -0.0383 0.4385
vn 0.7608 -0.1779 0.6242
vn 0.9159 -0.0355 0.3999
vn 0.8024 -0.3079 0.5112
vn 0.9342 -0.0217 0.3562
vn 0.8859 -0.2436 0.3948
vn 0.9471 -0.0029 0.3209
vn 0.9345 -0.1457 0.3247
vn 0.9286 0.0290 0.3699
vn 0.8928 0.2564 0.3704
vn 0.8980 -0.0631 0.4354
vn 0.9468 0.1739 0.2709
vn 0.9479 -0.1687 0.2704
vn 0.9731 -0.0932 0.2107
vn 0.9819 -0.0033 0.1895
vn 0.9414 0.1736 0.2891
vn 0.9710 0.1090 0.2129
vn -0.9167 -0.1964 0.3480
vn -0.8555 -0.0865 0.5106
vn -0.9389 0.0844 0.3336
vn -0.9372 0.1356 0.3214
vn -0.9102 0.0470 0.4114
vn -0.9053 0.0238 0.4241
vn -0.7496 0.1607 0.6421
vn -0.7949 0.2844 0.5360
vn -0.9030 0.0008 0.4295
vn -0.7345 0.0057 0.6786
vn -0.8979 -0.0383 0.4385
vn -0.7608 -0.1779 0.6242
vn -0.9159 -0.0355 0.3999
vn -0.8024 -0.3079 0.5112
vn -0.9342 -0.0217 0.3562
vn -0.8859 -0.2436 0.3948
vn -0.9471 -0.0029 0.3209
vn -0.9345 -0.1457 0.3247
vn -0.9286 0.0290 0.3699
vn -0.8928 0.2564 0.3704
vn -0.8980 -0.0631 0.4354
vn -0.9468 0.1740 0.2709
vn -0.9479 -0.1687 0.2704
vn -0.9414 0.1736 0.2891
vn -0.9710 0.1090 0.2129
vn -0.9819 -0.0033 0.1895
vn -0.9731 -0.0932 0.2107
vn 0.7170 -0.0023 0.6971
vn -0.7169 -0.0023 0.6971
usemtl tiny_treats_1
s 1
f 52/1/1 4/2/2 10/3/3
f 84/4/4 3/5/5 8/6/6 9/7/7
f 83/8/8 2/9/9 6/10/10 7/11/11
f 4/2/2 84/12/4 9/13/7 10/3/3
f 3/5/5 83/8/8 7/11/11 8/6/6
f 2/9/9 1/14/12 5/15/13 6/10/10
f 7/11/11 6/10/10 12/16/14 13/17/15
f 10/3/3 9/13/7 15/18/16 16/19/17
f 8/6/6 7/11/11 13/17/15 14/20/18
f 6/10/10 5/15/13 11/21/19 12/16/14
f 52/1/1 10/3/3 16/19/17
f 9/7/7 8/6/6 14/20/18 15/22/16
f 16/19/17 15/18/16 21/23/20 22/24/21
f 14/20/18 13/17/15 19/25/22 20/26/23
f 12/16/14 11/21/19 17/27/24 18/28/25
f 52/1/1 16/19/17 22/24/21
f 15/22/16 14/20/18 20/26/23 21/29/20
f 13/17/15 12/16/14 18/28/25 19/25/22
f 18/28/25 17/27/24 23/30/26 24/31/27
f 52/1/1 22/24/21 28/32/28
f 21/29/20 20/26/23 26/33/29 27/34/30
f 19/25/22 18/28/25 24/31/27 25/35/31
f 22/24/21 21/23/20 27/36/30 28/32/28
f 20/26/23 19/25/22 25/35/31 26/33/29
f 52/1/1 28/32/28 34/37/32
f 27/34/30 26/33/29 32/38/33 33/39/34
f 25/35/31 24/31/27 30/40/35 31/41/36
f 28/32/28 27/36/30 33/42/34 34/37/32
f 26/33/29 25/35/31 31/41/36 32/38/33
f 24/31/27 23/30/26 29/43/37 30/40/35
f 34/37/32 33/42/34 39/44/38 40/45/39
f 32/38/33 31/41/36 37/46/40 38/47/41
f 30/40/35 29/43/37 35/48/42 36/49/43
f 52/1/1 34/37/32 40/45/39
f 33/39/34 32/38/33 38/47/41 39/50/38
f 31/41/36 30/40/35 36/49/43 37/46/40
f 40/45/39 39/44/38 153/51/44 154/52/45
f 38/47/41 37/46/40 41/53/46 42/54/47
f 36/49/43 35/48/42 151/55/48 152/56/49
f 52/1/1 40/45/39 154/52/45
f 39/50/38 38/47/41 42/54/47 153/57/44
f 37/46/40 36/49/43 152/56/49 41/53/46
f 132/58/50 45/59/51 50/60/52 51/61/53
f 44/62/54 131/63/55 48/64/56 49/65/57
f 130/66/58 43/67/59 46/68/60 47/69/61
f 52/1/1 132/58/50 51/61/53
f 45/70/51 44/62/54 49/65/57 50/71/52
f 131/63/55 130/66/58 47/69/61 48/64/56
f 49/65/57 48/64/56 55/72/62 56/73/63
f 47/69/61 46/68/60 53/74/64 54/75/65
f 52/1/1 51/61/53 58/76/66
f 50/71/52 49/65/57 56/73/63 57/77/67
f 48/64/56 47/69/61 54/75/65 55/72/62
f 51/61/53 50/60/52 57/78/67 58/76/66
f 52/1/1 58/76/66 64/79/68
f 57/77/67 56/73/63 62/80/69 63/81/70
f 55/72/62 54/75/65 60/82/71 61/83/72
f 77/84/73 119/85/74 120/86/75 1/14/12
f 58/76/66 57/78/67 63/87/70 64/79/68
f 56/73/63 55/72/62 61/83/72 62/80/69
f 54/75/65 53/74/64 59/88/76 60/82/71
f 61/83/72 60/82/71 66/89/77 67/90/78
f 64/79/68 63/87/70 69/91/79 70/92/80
f 62/80/69 61/83/72 67/90/78 68/93/81
f 60/82/71 59/88/76 65/94/82 66/89/77
f 52/1/1 64/79/68 70/92/80
f 63/81/70 62/80/69 68/93/81 69/95/79
f 70/92/80 69/91/79 75/96/83 76/97/84
f 68/93/81 67/90/78 73/98/85 74/99/86
f 66/89/77 65/94/82 71/100/87 72/101/88
f 52/1/1 70/92/80 76/97/84
f 69/95/79 68/93/81 74/99/86 75/102/83
f 67/90/78 66/89/77 72/101/88 73/98/85
f 72/101/88 71/100/87 77/84/73 78/103/89
f 52/1/1 76/97/84 82/104/90
f 75/102/83 74/99/86 80/105/91 81/106/92
f 73/98/85 72/101/88 78/103/89 79/107/93
f 76/97/84 75/96/83 81/108/92 82/104/90
f 74/99/86 73/98/85 79/107/93 80/105/91
f 52/1/1 82/104/90 4/2/2
f 81/106/92 80/105/91 3/5/5 84/4/4
f 79/107/93 78/103/89 2/9/9 83/8/8
f 82/104/90 81/108/92 84/12/4 4/2/2
f 80/105/91 79/107/93 83/8/8 3/5/5
f 78/103/89 77/84/73 1/14/12 2/9/9
f 120/86/75 119/85/74 106/109/94
f 119/110/74 118/111/95 106/112/94
f 118/113/95 117/114/96 106/115/94
f 117/116/96 116/117/97 106/118/94
f 116/119/97 115/120/98 106/121/94
f 115/122/98 114/123/99 106/118/94
f 114/124/99 133/125/100 106/115/94
f 113/126/101 112/127/102 106/128/94
f 112/129/102 111/130/103 106/131/94
f 111/132/103 110/133/104 106/134/94
f 110/135/104 109/136/105 106/137/94
f 109/138/105 108/139/106 106/134/94
f 107/140/107 120/141/75 106/128/94
f 85/142/108 104/143/109 90/144/110
f 86/145/111 94/146/112 96/147/113 87/148/114
f 87/148/114 96/147/113 98/149/115
f 87/148/114 98/149/115 100/150/116 88/151/117
f 88/151/117 100/150/116 102/152/118
f 88/151/117 102/152/118 104/143/109 85/142/108
f 85/142/108 90/144/110 92/153/119 86/145/111
f 86/145/111 92/153/119 94/146/112
f 92/154/119 90/155/110 89/156/120 91/157/121
f 94/158/112 92/154/119 91/157/121 93/159/122
f 96/160/113 94/158/112 93/159/122 95/161/123
f 98/162/115 96/160/113 95/161/123 97/163/124
f 100/164/116 98/162/115 97/163/124 99/165/125
f 102/166/118 100/164/116 99/165/125 101/167/126
f 104/168/109 102/166/118 101/167/126 103/169/127
f 90/155/110 104/168/109 103/169/127 89/156/120
f 91/157/121 89/156/120 105/170/128
f 89/156/120 103/169/127 105/170/128
f 103/169/127 101/167/126 105/170/128
f 101/167/126 99/165/125 105/170/128
f 99/165/125 97/163/124 105/170/128
f 97/163/124 95/161/123 105/170/128
f 95/161/123 93/159/122 105/170/128
f 93/159/122 91/157/121 105/170/128
f 108/171/106 107/172/107 106/131/94
f 71/100/87 118/111/95 119/110/74 77/84/73
f 65/94/82 117/114/96 118/113/95 71/100/87
f 59/88/76 116/117/97 117/116/96 65/94/82
f 53/74/64 115/120/98 116/119/97 59/88/76
f 46/68/60 114/123/99 115/122/98 53/74/64
f 43/67/59 133/125/100 114/124/99 46/68/60
f 35/48/42 112/127/102 113/126/101 151/55/48
f 29/43/37 111/130/103 112/129/102 35/48/42
f 23/30/26 110/133/104 111/132/103 29/43/37
f 17/27/24 109/136/105 110/135/104 23/30/26
f 11/21/19 108/139/106 109/138/105 17/27/24
f 5/15/13 107/172/107 108/171/106 11/21/19
f 1/14/12 120/141/75 107/140/107 5/15/13
f 129/173/129 126/174/130 127/175/131 128/176/132
f 134/177/133 135/178/134 43/179/135 130/180/136
f 136/181/137 134/177/133 130/180/136 131/182/138
f 137/183/139 136/181/137 131/182/138 44/184/140
f 138/185/141 137/183/139 44/184/140 45/186/142
f 139/187/143 138/185/141 45/186/142 132/188/144
f 140/189/145 139/187/143 132/188/144 52/1/146
f 135/178/134 141/190/147 133/191/148 43/179/135
f 141/190/147 142/192/149 106/109/150 133/191/148
f 121/193/151 122/194/152 123/195/153
f 129/173/129 121/193/151 125/196/154 126/174/130
f 125/196/154 121/193/151 123/195/153
f 124/197/155 125/196/154 123/195/153
f 129/198/129 128/199/132 142/192/149 141/190/147
f 121/200/151 129/198/129 141/190/147 135/178/134
f 127/201/131 126/202/130 139/187/143 140/189/145
f 126/202/130 125/203/154 138/185/141 139/187/143
f 125/203/154 124/204/155 137/183/139 138/185/141
f 124/204/155 123/205/153 136/181/137 137/183/139
f 123/205/153 122/206/152 134/177/133 136/181/137
f 122/206/152 121/200/151 135/178/134 134/177/133
f 150/207/156 149/208/157 127/175/158 148/209/159
f 155/210/160 156/211/161 152/212/162 151/213/163
f 156/211/161 157/214/164 41/215/165 152/212/162
f 157/214/164 158/216/166 42/217/167 41/215/165
f 158/216/166 159/218/168 153/219/169 42/217/167
f 159/218/168 160/220/170 154/221/171 153/219/169
f 160/220/170 140/189/172 52/1/173 154/221/171
f 161/222/174 155/210/160 151/213/163 113/223/175
f 142/224/176 161/222/174 113/223/175 106/112/177
f 143/225/178 150/207/156 148/209/159 147/226/179
f 147/226/179 146/227/180 145/228/181
f 144/229/182 143/225/178 145/228/181
f 143/225/178 147/226/179 145/228/181
f 149/230/157 150/231/156 161/222/174 142/224/176
f 150/231/156 143/232/178 155/210/160 161/222/174
f 148/233/159 127/201/158 140/189/172 160/220/170
f 147/234/179 148/233/159 160/220/170 159/218/168
f 146/235/180 147/234/179 159/218/168 158/216/166
f 145/236/181 146/235/180 158/216/166 157/214/164
f 144/237/182 145/236/181 157/214/164 156/211/161
f 143/232/178 144/237/182 156/211/161 155/210/160
f 128/238/132 127/175/131 162/239/183
f 149/230/157 142/224/176 162/240/184
f 127/175/158 149/241/157 162/239/184
f 142/192/149 128/199/132 162/242/183
