# Blender v3.4.1 OBJ File: 'Tiny_Treats_Pleasant_Picnic_ASSETS_EXPORT.blend'
# www.blender.org
mtllib cheese_B.mtl
o cheese_B
v 0.000000 -0.000000 0.000000
v 0.000000 0.113219 0.000000
v 0.167950 0.113219 -0.045002
v 0.172513 0.111361 -0.046225
v 0.172343 0.111703 -0.046179
v 0.142750 0.117000 -0.142750
v 0.125620 0.136500 -0.125620
v 0.137733 0.130788 -0.137733
v 0.122948 0.113219 0.122948
v 0.126289 0.111361 0.126288
v 0.126164 0.111703 0.126164
v 0.045981 0.136500 0.171600
v 0.052251 0.117000 0.195000
v 0.050414 0.130788 0.188146
v -0.045980 0.136500 0.171600
v -0.052250 0.117000 0.195000
v -0.050413 0.130788 0.188146
v -0.125619 0.136500 0.125620
v -0.142749 0.117000 0.142750
v -0.137732 0.130788 0.137733
v -0.171600 0.136500 0.045980
v -0.195000 0.117000 0.052250
v -0.188146 0.130788 0.050414
v -0.171599 0.136500 -0.045980
v -0.195000 0.117000 -0.052250
v -0.188146 0.130788 -0.050414
v -0.125619 0.136500 -0.125620
v -0.142749 0.117000 -0.142750
v -0.137732 0.130788 -0.137733
v -0.045980 0.136500 -0.171600
v -0.052250 0.117000 -0.195000
v -0.050413 0.130788 -0.188146
v 0.045981 0.136500 -0.171600
v 0.052251 0.117000 -0.195000
v 0.050414 0.130788 -0.188146
v 0.125620 -0.000000 -0.125620
v 0.142750 0.019500 -0.142750
v 0.137733 0.005711 -0.137733
v 0.172513 0.025138 -0.046225
v 0.167950 0.023280 -0.045002
v 0.172343 0.024796 -0.046179
v 0.126289 0.025138 0.126288
v 0.122948 0.023280 0.122948
v 0.126164 0.024796 0.126164
v 0.052251 0.019500 0.195000
v 0.045981 -0.000000 0.171600
v 0.050414 0.005711 0.188146
v -0.052250 0.019500 0.195000
v -0.045980 -0.000000 0.171600
v -0.050413 0.005711 0.188146
v -0.142749 0.019500 0.142750
v -0.125619 -0.000000 0.125620
v -0.137732 0.005711 0.137733
v -0.195000 0.019500 0.052250
v -0.171600 -0.000000 0.045980
v -0.188146 0.005711 0.050414
v -0.195000 0.019500 -0.052250
v -0.171599 -0.000000 -0.045980
v -0.188146 0.005711 -0.050414
v -0.142749 0.019500 -0.142750
v -0.125619 -0.000000 -0.125620
v -0.137732 0.005711 -0.137733
v -0.052250 0.019500 -0.195000
v -0.045980 -0.000000 -0.171600
v -0.050413 0.005711 -0.188146
v 0.052251 0.019500 -0.195000
v 0.045981 -0.000000 -0.171600
v 0.050414 0.005711 -0.188146
v -0.085476 0.136483 0.143810
v -0.089376 0.136483 0.138524
v -0.085476 0.146943 0.130394
v -0.085476 0.146943 0.125268
v -0.089376 0.144820 0.127831
v -0.089376 0.136483 0.117138
v -0.085476 0.136483 0.111853
v 0.089373 0.136483 0.138524
v 0.085473 0.136483 0.143810
v 0.089373 0.144820 0.127831
v 0.085473 0.146943 0.125268
v 0.085473 0.146943 0.130394
v 0.085473 0.136483 0.111853
v 0.089373 0.136483 0.117138
v -0.108876 0.136483 0.111853
v -0.112776 0.136483 0.106567
v -0.108876 0.146943 0.098437
v -0.108876 0.146943 0.093311
v -0.112776 0.144820 0.095874
v -0.112776 0.136483 0.085181
v -0.108876 0.136483 0.079895
v -0.147876 0.136483 0.079895
v -0.151776 0.136483 0.074609
v -0.147876 0.146943 0.066479
v -0.147876 0.146943 0.061353
v -0.151776 0.144820 0.063916
v -0.151776 0.136483 0.053223
v -0.147876 0.136483 0.047937
v -0.155676 0.136483 0.047937
v -0.159576 0.136483 0.042652
v -0.155676 0.146943 0.034522
v -0.155676 0.146943 0.029396
v -0.159576 0.144820 0.031959
v -0.159576 0.136483 0.021266
v -0.155676 0.136483 0.015980
v -0.163476 0.136483 0.015980
v -0.167376 0.136483 0.010694
v -0.163476 0.146943 0.002564
v -0.163476 0.146943 -0.002562
v -0.167376 0.144820 0.000001
v -0.167376 0.136483 -0.010692
v -0.163476 0.136483 -0.015978
v -0.147876 0.136483 -0.047935
v -0.151776 0.136483 -0.053221
v -0.147876 0.146943 -0.061351
v -0.147876 0.146943 -0.066477
v -0.151776 0.144820 -0.063914
v -0.151776 0.136483 -0.074607
v -0.147876 0.136483 -0.079893
v 0.151773 0.136483 -0.053221
v 0.147873 0.136483 -0.047935
v 0.151773 0.144820 -0.063914
v 0.147873 0.146943 -0.066477
v 0.147873 0.146943 -0.061351
v 0.147873 0.136483 -0.079893
v 0.151773 0.136483 -0.074607
v -0.108876 0.136483 -0.079893
v -0.112776 0.136483 -0.085178
v -0.108876 0.146943 -0.093308
v -0.108876 0.146943 -0.098434
v -0.112776 0.144820 -0.095871
v -0.112776 0.136483 -0.106564
v -0.108876 0.136483 -0.111850
v 0.112773 0.136483 -0.085178
v 0.108873 0.136483 -0.079893
v 0.112773 0.144820 -0.095871
v 0.108873 0.146943 -0.098434
v 0.108873 0.146943 -0.093308
v 0.108873 0.136483 -0.111850
v 0.112773 0.136483 -0.106564
v -0.085476 0.136483 -0.111850
v -0.089376 0.136483 -0.117136
v -0.085476 0.146943 -0.125266
v -0.085476 0.146943 -0.130392
v -0.089376 0.144820 -0.127829
v -0.089376 0.136483 -0.138522
v -0.085476 0.136483 -0.143808
v 0.089373 0.136483 -0.117136
v 0.085473 0.136483 -0.111850
v 0.089373 0.144820 -0.127829
v 0.085473 0.146943 -0.130392
v 0.085473 0.146943 -0.125266
v 0.085473 0.136483 -0.143808
v 0.089373 0.136483 -0.138522
v 0.195000 0.019500 -0.052250
v 0.188147 0.005711 -0.050414
v 0.171600 -0.000000 -0.045980
v 0.188147 0.130788 -0.050414
v 0.195000 0.117000 -0.052250
v 0.171600 0.136500 -0.045980
v 0.142750 0.019500 0.142750
v 0.137733 0.005711 0.137733
v 0.125620 -0.000000 0.125620
v 0.137733 0.130788 0.137733
v 0.142750 0.117000 0.142750
v 0.125620 0.136500 0.125620
v 0.000000 0.136500 0.000000
v 0.000000 0.023280 0.000000
v 0.185336 0.022319 -0.043343
v 0.181824 0.015254 -0.042402
v 0.171355 0.011640 -0.039597
v 0.181824 0.121246 -0.042402
v 0.185336 0.114180 -0.043343
v 0.171355 0.124859 -0.039597
v 0.136263 0.015254 0.127634
v 0.138834 0.022319 0.130204
v 0.128599 0.011640 0.119969
v 0.138834 0.114180 0.130204
v 0.136263 0.121246 0.127634
v 0.128599 0.124859 0.119969
v 0.005894 0.124859 0.001579
v 0.005894 0.011640 0.001579
v -0.008446 0.146943 -0.002562
v -0.003630 0.146943 0.002564
v 0.008974 0.136483 0.015980
v -0.021050 0.136483 -0.015978
v 0.021578 0.146943 0.029396
v 0.026394 0.146943 0.034522
v 0.038998 0.136483 0.047937
v 0.008974 0.136483 0.015980
v 0.051603 0.146943 0.061353
v 0.056419 0.146943 0.066479
v 0.069023 0.136483 0.079895
v 0.038998 0.136483 0.047937
v 0.081627 0.146943 0.093311
v 0.086443 0.146943 0.098437
v 0.099047 0.136483 0.111853
v 0.069023 0.136483 0.079895
v -0.000001 0.146943 0.125268
v -0.000001 0.146943 0.130394
v -0.000001 0.136483 0.143810
v -0.000001 0.136483 0.111853
v -0.157843 0.136483 -0.015978
v -0.161743 0.136483 -0.021263
v -0.157843 0.146943 -0.029393
v -0.157843 0.146943 -0.034519
v -0.161743 0.144820 -0.031956
v -0.161743 0.136483 -0.042649
v -0.157843 0.136483 -0.047935
v 0.102803 0.146943 -0.034519
v 0.087859 0.146943 -0.029393
v 0.055252 0.136483 -0.015978
v 0.135410 0.136483 -0.047935
vt 0.437500 0.876079
vt 0.449688 0.876079
vt 0.470799 0.876079
vt 0.425312 0.876079
vt 0.404201 0.876079
vt 0.392013 0.876079
vt 0.392013 0.876079
vt 0.404201 0.876079
vt 0.425312 0.876079
vt 0.449688 0.876079
vt 0.470799 0.876079
vt 0.475340 0.813815
vt 0.475340 0.839661
vt 0.489190 0.839661
vt 0.489190 0.813815
vt 0.451350 0.813815
vt 0.451350 0.839661
vt 0.475340 0.813815
vt 0.475340 0.839661
vt 0.451350 0.839661
vt 0.451350 0.813815
vt 0.423650 0.839661
vt 0.423650 0.813815
vt 0.399660 0.839661
vt 0.399660 0.813815
vt 0.385810 0.839661
vt 0.385810 0.813815
vt 0.385810 0.839661
vt 0.385810 0.813815
vt 0.399660 0.839661
vt 0.399660 0.813815
vt 0.423650 0.839661
vt 0.423650 0.813815
vt 0.437500 0.777396
vt 0.470799 0.777396
vt 0.482988 0.777396
vt 0.579466 0.964446
vt 0.579466 0.907780
vt 0.546875 0.903602
vt 0.546875 0.968624
vt 0.449688 0.777396
vt 0.470799 0.777396
vt 0.449688 0.777396
vt 0.425312 0.777396
vt 0.404201 0.777396
vt 0.392013 0.777396
vt 0.392013 0.777396
vt 0.404201 0.777396
vt 0.425312 0.777396
vt 0.475340 0.782565
vt 0.489190 0.782565
vt 0.487374 0.778910
vt 0.474010 0.778910
vt 0.489190 0.870911
vt 0.475340 0.870911
vt 0.474010 0.874566
vt 0.487374 0.874566
vt 0.482988 0.876079
vt 0.591395 0.907780
vt 0.591395 0.964446
vt 0.475340 0.782565
vt 0.451350 0.782565
vt 0.450864 0.778910
vt 0.474010 0.778910
vt 0.451350 0.870911
vt 0.475340 0.870911
vt 0.474010 0.874566
vt 0.450864 0.874566
vt 0.423650 0.782565
vt 0.424136 0.778910
vt 0.423650 0.870911
vt 0.424136 0.874566
vt 0.399660 0.782565
vt 0.400990 0.778910
vt 0.399660 0.870911
vt 0.400990 0.874566
vt 0.385810 0.782565
vt 0.387627 0.778910
vt 0.385810 0.870911
vt 0.387627 0.874566
vt 0.385810 0.782565
vt 0.387627 0.778910
vt 0.385810 0.870911
vt 0.387627 0.874566
vt 0.399660 0.782565
vt 0.400990 0.778910
vt 0.399660 0.870911
vt 0.400990 0.874566
vt 0.423650 0.782565
vt 0.424136 0.778910
vt 0.423650 0.870911
vt 0.424136 0.874566
vt 0.451350 0.782565
vt 0.450864 0.778910
vt 0.451350 0.870911
vt 0.450864 0.874566
vt 0.437499 0.876075
vt 0.437499 0.925723
vt 0.414842 0.925723
vt 0.414842 0.876075
vt 0.461191 0.876075
vt 0.461191 0.925160
vt 0.461191 0.876075
vt 0.437499 0.876075
vt 0.437499 0.925723
vt 0.460157 0.925723
vt 0.460157 0.876075
vt 0.414842 0.925723
vt 0.413809 0.925160
vt 0.460157 0.925723
vt 0.413809 0.876075
vt 0.414842 0.876075
vt 0.413809 0.876075
vt 0.460157 0.876075
vt 0.437865 0.900960
vt 0.437865 0.900960
vt 0.408639 0.925723
vt 0.408639 0.876075
vt 0.408639 0.925723
vt 0.407605 0.925160
vt 0.407605 0.876075
vt 0.408639 0.876075
vt 0.407605 0.876075
vt 0.437865 0.900960
vt 0.437865 0.900960
vt 0.398301 0.925723
vt 0.398301 0.876075
vt 0.398301 0.925723
vt 0.397268 0.925160
vt 0.397268 0.876075
vt 0.398301 0.876075
vt 0.397268 0.876075
vt 0.437865 0.900960
vt 0.437865 0.900960
vt 0.437865 0.900960
vt 0.396234 0.925723
vt 0.396234 0.876075
vt 0.396234 0.925723
vt 0.395200 0.925160
vt 0.395200 0.876075
vt 0.396234 0.876075
vt 0.395200 0.876075
vt 0.437865 0.900960
vt 0.437865 0.900960
vt 0.437865 0.900960
vt 0.394166 0.925723
vt 0.394166 0.876075
vt 0.394166 0.925723
vt 0.393132 0.925160
vt 0.393132 0.876075
vt 0.394166 0.876075
vt 0.393132 0.876075
vt 0.437865 0.900960
vt 0.437865 0.900960
vt 0.477731 0.876075
vt 0.477731 0.925160
vt 0.477731 0.876075
vt 0.476698 0.876075
vt 0.476698 0.925723
vt 0.398301 0.925723
vt 0.398301 0.876075
vt 0.398301 0.925723
vt 0.397268 0.925160
vt 0.476698 0.925723
vt 0.397268 0.876075
vt 0.398301 0.876075
vt 0.397268 0.876075
vt 0.476698 0.876075
vt 0.467394 0.876075
vt 0.467394 0.925160
vt 0.467394 0.876075
vt 0.466360 0.876075
vt 0.466360 0.925723
vt 0.408639 0.925723
vt 0.408639 0.876075
vt 0.408639 0.925723
vt 0.407605 0.925160
vt 0.466360 0.925723
vt 0.407605 0.876075
vt 0.408639 0.876075
vt 0.407605 0.876075
vt 0.466360 0.876075
vt 0.461191 0.876075
vt 0.461191 0.925160
vt 0.461191 0.876075
vt 0.460157 0.876075
vt 0.460157 0.925723
vt 0.414842 0.925723
vt 0.414842 0.876075
vt 0.414842 0.925723
vt 0.413809 0.925160
vt 0.460157 0.925723
vt 0.413809 0.876075
vt 0.414842 0.876075
vt 0.413809 0.876075
vt 0.460157 0.876075
vt 0.486210 0.807541
vt 0.485279 0.789909
vt 0.482504 0.787901
vt 0.485279 0.863566
vt 0.486210 0.845935
vt 0.482504 0.865575
vt 0.472477 0.789909
vt 0.473158 0.807541
vt 0.470445 0.787901
vt 0.473158 0.845935
vt 0.472477 0.863567
vt 0.470445 0.865575
vt 0.437500 0.867664
vt 0.437500 0.785812
vt 0.580351 0.910641
vt 0.580318 0.910283
vt 0.580318 0.961942
vt 0.580351 0.961584
vt 0.592604 0.910641
vt 0.592604 0.961585
vt 0.592559 0.961942
vt 0.592559 0.910283
vt 0.437500 0.778602
vt 0.470091 0.782780
vt 0.470445 0.772276
vt 0.437500 0.770187
vt 0.482020 0.782780
vt 0.482504 0.772276
vt 0.470091 0.839446
vt 0.437500 0.843624
vt 0.437500 0.852039
vt 0.470445 0.849950
vt 0.470976 0.785641
vt 0.470976 0.836584
vt 0.473158 0.830310
vt 0.473158 0.791916
vt 0.483229 0.836585
vt 0.483229 0.785641
vt 0.486210 0.791916
vt 0.486210 0.830310
vt 0.482020 0.839446
vt 0.482504 0.849950
vt 0.470943 0.836942
vt 0.472477 0.847942
vt 0.470943 0.785283
vt 0.472477 0.774284
vt 0.483184 0.836942
vt 0.485279 0.847941
vt 0.483184 0.785283
vt 0.485279 0.774284
vt 0.437865 0.900960
vt 0.437865 0.900960
vt 0.437865 0.900960
vt 0.437499 0.876075
vt 0.437499 0.876075
vt 0.437499 0.925723
vt 0.396234 0.925723
vt 0.396234 0.876075
vt 0.396234 0.925723
vt 0.395200 0.925160
vt 0.395200 0.876075
vt 0.396234 0.876075
vt 0.395200 0.876075
vt 0.437499 0.925723
vt 0.437499 0.876075
vt 0.437499 0.894473
vt 0.437499 0.844825
vt 0.437499 0.844825
vt 0.437499 0.894473
vn 0.0000 1.0000 0.0000
vn 0.0481 0.9826 0.1797
vn 0.0962 0.9813 0.1666
vn -0.0481 0.9826 0.1797
vn -0.1315 0.9826 0.1315
vn -0.1797 0.9826 0.0481
vn -0.1797 0.9826 -0.0481
vn -0.1315 0.9826 -0.1315
vn -0.0481 0.9826 -0.1797
vn 0.0481 0.9826 -0.1797
vn 0.1315 0.9826 -0.1315
vn 0.6887 -0.2270 -0.6887
vn 0.6887 0.2270 -0.6887
vn 0.8449 0.2196 -0.4878
vn 0.8449 -0.2196 -0.4878
vn 0.2521 -0.2270 -0.9407
vn 0.2521 0.2270 -0.9407
vn 0.4878 -0.2196 0.8449
vn 0.4878 0.2196 0.8449
vn 0.2521 0.2270 0.9407
vn 0.2521 -0.2270 0.9407
vn -0.2521 0.2270 0.9407
vn -0.2521 -0.2270 0.9407
vn -0.6887 0.2270 0.6887
vn -0.6887 -0.2270 0.6887
vn -0.9407 0.2270 0.2521
vn -0.9407 -0.2270 0.2521
vn -0.9407 0.2270 -0.2521
vn -0.9407 -0.2270 -0.2521
vn -0.6887 0.2270 -0.6887
vn -0.6887 -0.2270 -0.6887
vn -0.2521 0.2270 -0.9407
vn -0.2521 -0.2270 -0.9407
vn 0.0000 -1.0000 -0.0000
vn 0.1315 -0.9826 -0.1315
vn 0.1666 -0.9813 -0.0962
vn 0.6573 -0.2260 -0.7189
vn 0.6573 0.2260 -0.7189
vn 0.6958 0.1569 -0.7009
vn 0.6958 -0.1569 -0.7009
vn 0.0481 -0.9826 -0.1797
vn 0.0962 -0.9813 0.1666
vn 0.0481 -0.9826 0.1797
vn -0.0481 -0.9826 0.1797
vn -0.1315 -0.9826 0.1315
vn -0.1797 -0.9826 0.0481
vn -0.1797 -0.9826 -0.0481
vn -0.1315 -0.9826 -0.1315
vn -0.0481 -0.9826 -0.1797
vn 0.6033 -0.7174 -0.3483
vn 0.4838 -0.7293 -0.4838
vn 0.4838 0.7293 -0.4838
vn 0.6033 0.7174 -0.3483
vn 0.1666 0.9813 -0.0962
vn 0.2098 0.2260 0.9513
vn 0.2098 -0.2260 0.9513
vn 0.2522 -0.1569 0.9549
vn 0.2522 0.1569 0.9549
vn 0.1771 -0.7293 0.6608
vn 0.3483 -0.7174 0.6033
vn 0.3483 0.7174 0.6033
vn 0.1771 0.7293 0.6608
vn -0.1771 -0.7293 0.6608
vn -0.1771 0.7293 0.6608
vn -0.4838 -0.7293 0.4838
vn -0.4838 0.7293 0.4838
vn -0.6608 -0.7293 0.1771
vn -0.6608 0.7293 0.1771
vn -0.6608 -0.7293 -0.1771
vn -0.6608 0.7293 -0.1771
vn -0.4838 -0.7293 -0.4838
vn -0.4838 0.7293 -0.4838
vn -0.1771 -0.7293 -0.6608
vn -0.1771 0.7293 -0.6608
vn 0.1771 -0.7293 -0.6608
vn 0.1771 0.7293 -0.6608
vn 0.0000 0.7886 0.6149
vn 0.0000 0.9457 0.3251
vn -0.2994 0.8942 0.3328
vn -0.2438 0.7648 0.5963
vn 0.7721 0.5012 -0.3907
vn 0.8425 0.5387 0.0000
vn 0.7721 0.5012 0.3907
vn 0.0000 0.7886 -0.6149
vn 0.0000 0.9457 -0.3251
vn 0.2994 0.8942 -0.3328
vn 0.2438 0.7648 -0.5963
vn -0.2994 0.8942 -0.3328
vn -0.8425 0.5387 -0.0000
vn 0.2994 0.8942 0.3328
vn -0.7721 0.5012 0.3907
vn -0.2438 0.7648 -0.5963
vn -0.7721 0.5012 -0.3907
vn 0.2438 0.7648 0.5963
vn 0.0000 0.8833 0.4688
vn 0.0000 0.9829 -0.1842
vn 0.7288 0.0000 -0.6847
vn 0.3224 -0.0161 0.9465
vn 0.3242 -0.0808 0.9425
vn 0.5074 -0.3316 0.7954
vn 0.6568 -0.1069 0.7465
vn 0.2614 -0.0407 0.9644
vn 0.3033 -0.4043 0.8629
vn 0.3242 0.0808 0.9425
vn 0.3224 0.0161 0.9465
vn 0.6568 0.1069 0.7465
vn 0.5074 0.3316 0.7954
vn 0.2614 0.0407 0.9644
vn 0.3033 0.4043 0.8629
vn 0.7521 -0.0808 -0.6541
vn 0.7524 -0.0161 -0.6585
vn 0.9420 -0.1069 -0.3181
vn 0.8371 -0.3316 -0.4351
vn 0.7085 -0.0407 -0.7045
vn 0.6941 -0.4043 -0.5956
vn 0.7524 0.0161 -0.6585
vn 0.7521 0.0808 -0.6541
vn 0.8371 0.3316 -0.4351
vn 0.9420 0.1069 -0.3181
vn 0.7085 0.0407 -0.7045
vn 0.6941 0.4043 -0.5956
vn 0.2503 0.0006 0.9682
vn 0.2331 0.3649 0.9014
vn 0.7008 0.0006 -0.7133
vn 0.6526 0.3649 -0.6641
vn 0.2503 -0.0006 0.9682
vn 0.2331 -0.3649 0.9014
vn 0.7008 -0.0006 -0.7133
vn 0.6526 -0.3649 -0.6641
vn 0.4986 0.0627 -0.8645
vn 0.5533 0.2088 -0.8064
vn 0.5533 -0.2088 -0.8064
vn 0.4986 -0.0627 -0.8645
vn -0.0004 0.0627 0.9980
vn -0.0004 -0.0627 0.9980
vn 0.0760 -0.2088 0.9750
vn 0.0760 0.2088 0.9750
vn 0.0370 0.7399 0.6717
vn 0.2316 0.7144 0.6602
vn 0.0000 0.8294 -0.5586
vn 0.3633 -0.0000 0.9317
usemtl tiny_treats_1
s 1
f 165/1/1 12/2/2 164/3/3
f 165/1/1 15/4/4 12/2/2
f 165/1/1 18/5/5 15/4/4
f 165/1/1 21/6/6 18/5/5
f 165/1/1 24/7/7 21/6/6
f 165/1/1 27/8/8 24/7/7
f 165/1/1 30/9/9 27/8/8
f 165/1/1 33/10/10 30/9/9
f 165/1/1 7/11/11 33/10/10
f 37/12/12 6/13/13 157/14/14 153/15/15
f 66/16/16 34/17/17 6/13/13 37/12/12
f 159/18/18 163/19/19 13/20/20 45/21/21
f 45/21/21 13/20/20 16/22/22 48/23/23
f 48/23/23 16/22/22 19/24/24 51/25/25
f 51/25/25 19/24/24 22/26/26 54/27/27
f 54/27/27 22/26/26 25/28/28 57/29/29
f 57/29/29 25/28/28 28/30/30 60/31/31
f 60/31/31 28/30/30 31/32/32 63/33/33
f 63/33/33 31/32/32 34/17/17 66/16/16
f 1/34/34 36/35/35 155/36/36
f 9/37/37 43/38/38 166/39/39 2/40/40
f 1/34/34 67/41/41 36/35/35
f 1/34/34 161/42/42 46/43/43
f 1/34/34 46/43/43 49/44/44
f 1/34/34 49/44/44 52/45/45
f 1/34/34 52/45/45 55/46/46
f 1/34/34 55/46/46 58/47/47
f 1/34/34 58/47/47 61/48/48
f 1/34/34 61/48/48 64/49/49
f 1/34/34 64/49/49 67/41/41
f 37/50/12 153/51/15 154/52/50 38/53/51
f 38/53/51 154/52/50 155/36/36 36/35/35
f 157/54/14 6/55/13 8/56/52 156/57/53
f 156/57/53 8/56/52 7/11/11 158/58/54
f 40/59/55 3/60/56 2/40/57 166/39/58
f 159/61/18 45/62/21 47/63/59 160/64/60
f 160/64/60 47/63/59 46/43/43 161/42/42
f 13/65/20 163/66/19 162/67/61 14/68/62
f 14/68/62 162/67/61 164/3/3 12/2/2
f 45/62/21 48/69/23 50/70/63 47/63/59
f 47/63/59 50/70/63 49/44/44 46/43/43
f 16/71/22 13/65/20 14/68/62 17/72/64
f 17/72/64 14/68/62 12/2/2 15/4/4
f 48/69/23 51/73/25 53/74/65 50/70/63
f 50/70/63 53/74/65 52/45/45 49/44/44
f 19/75/24 16/71/22 17/72/64 20/76/66
f 20/76/66 17/72/64 15/4/4 18/5/5
f 51/73/25 54/77/27 56/78/67 53/74/65
f 53/74/65 56/78/67 55/46/46 52/45/45
f 22/79/26 19/75/24 20/76/66 23/80/68
f 23/80/68 20/76/66 18/5/5 21/6/6
f 54/77/27 57/81/29 59/82/69 56/78/67
f 56/78/67 59/82/69 58/47/47 55/46/46
f 25/83/28 22/79/26 23/80/68 26/84/70
f 26/84/70 23/80/68 21/6/6 24/7/7
f 57/81/29 60/85/31 62/86/71 59/82/69
f 59/82/69 62/86/71 61/48/48 58/47/47
f 28/87/30 25/83/28 26/84/70 29/88/72
f 29/88/72 26/84/70 24/7/7 27/8/8
f 60/85/31 63/89/33 65/90/73 62/86/71
f 62/86/71 65/90/73 64/49/49 61/48/48
f 31/91/32 28/87/30 29/88/72 32/92/74
f 32/92/74 29/88/72 27/8/8 30/9/9
f 63/89/33 66/93/16 68/94/75 65/90/73
f 65/90/73 68/94/75 67/41/41 64/49/49
f 34/95/17 31/91/32 32/92/74 35/96/76
f 35/96/76 32/92/74 30/9/9 33/10/10
f 66/93/16 37/50/12 38/53/51 68/94/75
f 68/94/75 38/53/51 36/35/35 67/41/41
f 6/55/13 34/95/17 35/96/76 8/56/52
f 8/56/52 35/96/76 33/10/10 7/11/11
f 165/1/1 158/58/54 7/11/11
f 199/97/77 198/98/78 71/99/79 69/100/80
f 82/101/81 78/102/82 76/103/83
f 200/104/84 197/105/85 79/106/86 81/107/87
f 71/99/79 72/108/88 73/109/89
f 78/102/82 79/106/86 80/110/90
f 69/100/80 71/99/79 73/109/89 70/111/91
f 72/108/88 75/112/92 74/113/93 73/109/89
f 80/110/90 77/114/94 76/103/83 78/102/82
f 197/105/85 72/108/88 71/99/79 198/98/78
f 78/102/82 82/101/81 81/107/87 79/106/86
f 70/111/91 73/109/89 74/113/93
f 195/115/77 194/116/95 85/117/79 83/118/80
f 85/117/79 86/119/88 87/120/89
f 83/118/80 85/117/79 87/120/89 84/121/91
f 86/119/88 89/122/92 88/123/93 87/120/89
f 84/121/91 87/120/89 88/123/93
f 191/124/77 190/125/95 92/126/79 90/127/80
f 92/126/79 93/128/88 94/129/89
f 90/127/80 92/126/79 94/129/89 91/130/91
f 93/128/88 96/131/92 95/132/93 94/129/89
f 189/133/96 93/128/88 92/126/79 190/125/95
f 91/130/91 94/129/89 95/132/93
f 187/134/77 186/135/95 99/136/79 97/137/80
f 99/136/79 100/138/88 101/139/89
f 97/137/80 99/136/79 101/139/89 98/140/91
f 100/138/88 103/141/92 102/142/93 101/139/89
f 185/143/96 100/138/88 99/136/79 186/135/95
f 98/140/91 101/139/89 102/142/93
f 183/144/77 182/145/95 106/146/79 104/147/80
f 106/146/79 107/148/88 108/149/89
f 104/147/80 106/146/79 108/149/89 105/150/91
f 107/148/88 110/151/92 109/152/93 108/149/89
f 181/153/96 107/148/88 106/146/79 182/145/95
f 105/150/91 108/149/89 109/152/93
f 196/154/97 187/134/97 189/133/97 190/125/97
f 124/155/81 120/156/82 118/157/83
f 119/158/94 122/159/90 113/160/79 111/161/80
f 113/160/79 114/162/88 115/163/89
f 120/156/82 121/164/86 122/159/90
f 111/161/80 113/160/79 115/163/89 112/165/91
f 114/162/88 117/166/92 116/167/93 115/163/89
f 122/159/90 119/158/94 118/157/83 120/156/82
f 117/166/92 114/162/88 121/164/86 123/168/87
f 120/156/82 124/155/81 123/168/87 121/164/86
f 112/165/91 115/163/89 116/167/93
f 121/164/86 114/162/88 113/160/79 122/159/90
f 138/169/81 134/170/82 132/171/83
f 133/172/94 136/173/90 127/174/79 125/175/80
f 127/174/79 128/176/88 129/177/89
f 134/170/82 135/178/86 136/173/90
f 125/175/80 127/174/79 129/177/89 126/179/91
f 128/176/88 131/180/92 130/181/93 129/177/89
f 136/173/90 133/172/94 132/171/83 134/170/82
f 131/180/92 128/176/88 135/178/86 137/182/87
f 134/170/82 138/169/81 137/182/87 135/178/86
f 126/179/91 129/177/89 130/181/93
f 135/178/86 128/176/88 127/174/79 136/173/90
f 152/183/81 148/184/82 146/185/83
f 147/186/94 150/187/90 141/188/79 139/189/80
f 141/188/79 142/190/88 143/191/89
f 148/184/82 149/192/86 150/187/90
f 139/189/80 141/188/79 143/191/89 140/193/91
f 142/190/88 145/194/92 144/195/93 143/191/89
f 150/187/90 147/186/94 146/185/83 148/184/82
f 145/194/92 142/190/88 149/192/86 151/196/87
f 148/184/82 152/183/81 151/196/87 149/192/86
f 140/193/91 143/191/89 144/195/93
f 167/197/98 168/198/99 154/52/100 153/15/101
f 168/198/99 169/199/102 155/36/103 154/52/100
f 170/200/104 171/201/105 157/14/106 156/57/107
f 172/202/108 170/200/104 156/57/107 158/58/109
f 173/203/110 174/204/111 159/18/112 160/64/113
f 175/205/114 173/203/110 160/64/113 161/42/115
f 176/206/116 177/207/117 162/67/118 163/19/119
f 177/207/117 178/208/120 164/3/121 162/67/118
f 179/209/122 172/202/108 158/58/109 165/1/123
f 171/201/105 167/197/98 153/15/101 157/14/106
f 174/204/111 176/206/116 163/19/119 159/18/112
f 178/208/120 179/209/124 165/1/125 164/3/121
f 169/199/102 180/210/126 1/34/127 155/36/103
f 180/210/128 175/205/114 161/42/115 1/34/129
f 42/211/130 44/212/131 43/38/38 9/37/37 11/213/132 10/214/133
f 39/215/134 4/216/135 5/217/136 3/60/56 40/59/55 41/218/137
f 166/219/39 43/220/38 175/221/114 180/222/128
f 40/223/55 166/219/58 180/222/126 169/224/102
f 9/225/37 2/226/40 179/227/124 178/228/120
f 42/229/130 10/230/133 176/231/116 174/232/111
f 4/233/135 39/234/134 167/235/98 171/236/105
f 2/226/57 3/237/56 172/238/108 179/227/122
f 11/239/132 9/225/37 178/228/120 177/240/117
f 10/230/133 11/239/132 177/240/117 176/231/116
f 43/220/38 44/241/131 173/242/110 175/221/114
f 44/241/131 42/229/130 174/232/111 173/242/110
f 3/237/56 5/243/136 170/244/104 172/238/108
f 5/243/136 4/233/135 171/236/105 170/244/104
f 41/245/137 40/223/55 169/224/102 168/246/99
f 39/234/134 41/245/137 168/246/99 167/235/98
f 193/247/96 86/119/88 85/117/79 194/116/95
f 195/115/97 191/124/97 193/247/97 194/116/97
f 110/151/92 107/148/88 181/153/96 184/248/84
f 103/141/92 100/138/88 185/143/96 188/249/84
f 96/131/92 93/128/88 189/133/96 192/250/84
f 89/122/92 86/119/88 193/247/96 196/154/84
f 79/106/86 197/105/85 198/98/78 80/110/90
f 75/112/92 72/108/88 197/105/85 200/104/84
f 77/114/94 80/110/90 198/98/78 199/97/77
f 186/135/97 187/134/97 183/144/97 185/143/97
f 181/153/97 182/145/97 188/249/97 184/248/97
f 149/192/86 142/190/88 141/188/79 150/187/90
f 210/251/138 209/252/139 203/253/79 201/254/80
f 203/253/79 204/255/88 205/256/89
f 201/254/80 203/253/79 205/256/89 202/257/91
f 204/255/88 207/258/92 206/259/93 205/256/89
f 208/260/140 204/255/88 203/253/79 209/252/139
f 202/257/91 205/256/89 206/259/93
f 207/258/92 204/255/88 208/260/140 211/261/84
f 209/262/139 210/263/138 211/264/141 208/265/141
