# Blender v3.4.1 OBJ File: 'Tiny_Treats_Pleasant_Picnic_ASSETS_EXPORT.blend'
# www.blender.org
mtllib cooler_handle.mtl
o cooler_handle
v 0.755879 0.517515 -0.638945
v 0.782895 0.517509 -0.611993
v 0.755778 0.490883 -0.564399
v 0.718500 0.490868 -0.611815
v 0.755879 0.603911 -0.638945
v 0.718500 0.630558 -0.611815
v 0.755774 0.630544 -0.564409
v 0.782896 0.603915 -0.611995
v -0.755873 0.517515 -0.638945
v -0.718495 0.490868 -0.611815
v -0.755772 0.490883 -0.564398
v -0.782889 0.517509 -0.611993
v -0.755873 0.603911 -0.638945
v -0.782890 0.603915 -0.611995
v -0.755768 0.630544 -0.564409
v -0.718495 0.630558 -0.611815
v -0.618154 0.517751 -0.497134
v -0.655675 0.517757 -0.459615
v -0.681232 0.491357 -0.476819
v -0.633565 0.491341 -0.522754
v 0.633571 0.491341 -0.522754
v 0.681238 0.491357 -0.476820
v 0.655681 0.517757 -0.459615
v 0.618160 0.517751 -0.497134
v 0.633571 0.630085 -0.522754
v 0.618160 0.603675 -0.497134
v 0.655676 0.603665 -0.459622
v 0.681229 0.630069 -0.476835
v -0.681224 0.630069 -0.476835
v -0.655670 0.603665 -0.459622
v -0.618154 0.603675 -0.497134
v -0.633565 0.630085 -0.522754
v 0.682318 0.630330 0.060225
v 0.656218 0.604227 0.060228
v 0.682321 0.604225 0.086334
v -0.682317 0.489668 0.060237
v -0.656212 0.515771 0.060234
v -0.682315 0.515770 0.086334
v -0.782328 0.515773 0.060233
v -0.756228 0.489670 0.060237
v -0.756225 0.515770 0.086334
v -0.756221 0.630332 0.060226
v -0.782327 0.604228 0.060229
v -0.756225 0.604225 0.086334
v -0.682312 0.630330 0.060225
v -0.682315 0.604225 0.086334
v -0.656211 0.604227 0.060229
v 0.782333 0.604228 0.060229
v 0.756228 0.630332 0.060226
v 0.756231 0.604225 0.086334
v 0.756234 0.489670 0.060237
v 0.782334 0.515773 0.060233
v 0.756231 0.515770 0.086334
v 0.682324 0.489668 0.060237
v 0.682321 0.515770 0.086334
v 0.656218 0.515771 0.060234
v 0.815053 0.559996 0.000005
v 0.815053 0.590081 0.027573
v 0.815053 0.561776 0.040772
v 0.815053 0.532428 0.030090
v 0.815053 0.519229 0.001785
v 0.815053 0.529911 -0.027563
v 0.815053 0.558216 -0.040762
v 0.815053 0.587564 -0.030080
v 0.815053 0.600763 -0.001775
v 0.780253 0.562191 0.050283
v 0.780253 0.597100 0.034004
v 0.780253 0.525996 0.037109
v 0.780253 0.509718 0.002200
v 0.780253 0.522892 -0.033995
v 0.780253 0.557801 -0.050273
v 0.780253 0.593995 -0.037099
v 0.780253 0.610273 -0.002190
v -0.815047 0.559996 0.000005
v -0.815047 0.590081 0.027573
v -0.815047 0.561776 0.040772
v -0.815047 0.532428 0.030090
v -0.815047 0.519229 0.001785
v -0.815047 0.529911 -0.027563
v -0.815047 0.558216 -0.040762
v -0.815047 0.587564 -0.030080
v -0.815047 0.600763 -0.001775
v -0.780247 0.562191 0.050283
v -0.780247 0.597100 0.034005
v -0.780247 0.525996 0.037109
v -0.780247 0.509718 0.002200
v -0.780247 0.522892 -0.033994
v -0.780247 0.557801 -0.050273
v -0.780247 0.593995 -0.037099
v -0.780247 0.610273 -0.002190
vt 0.591052 0.652457
vt 0.530301 0.652457
vt 0.530301 0.652457
vt 0.584612 0.652457
vt 0.591052 0.652457
vt 0.584612 0.652457
vt 0.530301 0.652457
vt 0.530301 0.652457
vt 0.587801 0.652457
vt 0.587801 0.652457
vt 0.594701 0.652457
vt 0.594701 0.652457
vt 0.584612 0.597543
vt 0.530301 0.597543
vt 0.530301 0.597543
vt 0.591052 0.597543
vt 0.594701 0.597543
vt 0.594701 0.597543
vt 0.587801 0.597543
vt 0.587801 0.597543
vt 0.585501 0.621550
vt 0.585501 0.628450
vt 0.585501 0.628450
vt 0.585501 0.621550
vt 0.594701 0.621550
vt 0.530301 0.621550
vt 0.530301 0.628450
vt 0.594701 0.628450
vt 0.583201 0.628450
vt 0.583201 0.621550
vt 0.530301 0.621550
vt 0.530301 0.628450
vt 0.528001 0.621550
vt 0.528001 0.628450
vt 0.528001 0.628450
vt 0.528001 0.621550
vt 0.528001 0.621550
vt 0.528001 0.628450
vt 0.528001 0.628450
vt 0.528001 0.621550
vt 0.583201 0.621550
vt 0.583201 0.628450
vt 0.530301 0.628450
vt 0.530301 0.621550
vt 0.591052 0.597543
vt 0.530301 0.597543
vt 0.530301 0.597543
vt 0.584612 0.597543
vt 0.597001 0.628450
vt 0.597001 0.628450
vt 0.597001 0.621550
vt 0.597001 0.621550
vt 0.597001 0.599843
vt 0.594701 0.599843
vt 0.597001 0.650157
vt 0.594701 0.650157
vt 0.597001 0.599843
vt 0.594701 0.599843
vt 0.597001 0.650157
vt 0.594701 0.650157
vt 0.585501 0.599843
vt 0.583201 0.599843
vt 0.583201 0.599843
vt 0.585501 0.599843
vt 0.585501 0.650157
vt 0.583201 0.650157
vt 0.583201 0.650157
vt 0.585501 0.650157
vt 0.530301 0.650157
vt 0.528001 0.650157
vt 0.530301 0.599843
vt 0.528001 0.599843
vt 0.530301 0.599843
vt 0.528001 0.599843
vt 0.530301 0.650157
vt 0.528001 0.650157
vt 0.528001 0.650157
vt 0.530301 0.650157
vt 0.530301 0.650157
vt 0.528001 0.650157
vt 0.530301 0.599843
vt 0.528001 0.599843
vt 0.528001 0.599843
vt 0.530301 0.599843
vt 0.594701 0.628450
vt 0.594701 0.621550
vt 0.530301 0.621550
vt 0.530301 0.628450
vt 0.582896 0.558392
vt 0.582896 0.558392
vt 0.589642 0.551646
vt 0.589642 0.551646
vt 0.589642 0.542104
vt 0.589642 0.542104
vt 0.582896 0.535358
vt 0.582896 0.535358
vt 0.573355 0.535358
vt 0.573355 0.535358
vt 0.566608 0.542104
vt 0.566608 0.542104
vt 0.566608 0.551646
vt 0.566608 0.551646
vt 0.573355 0.558392
vt 0.573355 0.558392
vt 0.578125 0.546875
vt 0.582896 0.558392
vt 0.589642 0.551646
vt 0.589642 0.551646
vt 0.582896 0.558392
vt 0.589642 0.542104
vt 0.589642 0.542104
vt 0.582896 0.535358
vt 0.582896 0.535358
vt 0.573355 0.535358
vt 0.573355 0.535358
vt 0.566608 0.542104
vt 0.566608 0.542104
vt 0.566608 0.551646
vt 0.566608 0.551646
vt 0.573355 0.558392
vt 0.573355 0.558392
vt 0.578125 0.546875
vn -0.3783 0.9233 -0.0659
vn -0.3396 0.8764 0.3415
vn 0.3443 0.8744 0.3419
vn 0.2456 0.9628 0.1123
vn 0.3783 0.9233 -0.0659
vn -0.2456 0.9628 0.1123
vn -0.3443 0.8744 0.3419
vn 0.3396 0.8764 0.3415
vn 0.1094 0.9610 0.2541
vn -0.1094 0.9610 0.2541
vn 0.0970 0.9233 -0.3717
vn -0.0970 0.9233 -0.3717
vn 0.2464 -0.9628 0.1109
vn 0.3448 -0.8746 0.3408
vn -0.3390 -0.8770 0.3405
vn -0.3779 -0.9235 -0.0668
vn -0.0971 -0.9233 -0.3717
vn 0.0970 -0.9233 -0.3717
vn -0.1094 -0.9610 0.2541
vn 0.1094 -0.9610 0.2541
vn -0.3249 -0.4517 0.8309
vn -0.3249 0.4517 0.8309
vn 0.3249 0.4517 0.8309
vn 0.3249 -0.4517 0.8309
vn -0.8198 -0.4445 -0.3611
vn -0.8749 -0.3434 0.3416
vn -0.8749 0.3429 0.3420
vn -0.8198 0.4447 -0.3609
vn -0.8293 0.4540 0.3258
vn -0.8297 -0.4538 0.3251
vn -0.8764 -0.3399 0.3412
vn -0.8763 0.3396 0.3417
vn 0.3416 -0.3416 0.8756
vn 0.3416 0.3416 0.8756
vn -0.3416 0.3416 0.8756
vn -0.3416 -0.3416 0.8756
vn 0.8297 -0.4538 0.3251
vn 0.8293 0.4540 0.3258
vn 0.8763 0.3396 0.3417
vn 0.8764 -0.3399 0.3412
vn 0.3779 -0.9234 -0.0668
vn 0.3390 -0.8770 0.3405
vn -0.3448 -0.8746 0.3408
vn -0.2464 -0.9628 0.1109
vn -0.3727 0.4456 -0.8140
vn 0.3727 0.4456 -0.8140
vn 0.3727 -0.4456 -0.8140
vn -0.3727 -0.4456 -0.8140
vn 0.8198 -0.4445 -0.3611
vn 0.8198 0.4447 -0.3609
vn 0.8749 0.3429 0.3420
vn 0.8749 -0.3434 0.3416
vn 0.2639 0.7111 0.6516
vn 0.2639 0.0421 0.9636
vn 0.2639 -0.6516 0.7111
vn 0.2639 -0.9636 0.0421
vn 0.2639 -0.7111 -0.6516
vn 0.2639 -0.0421 -0.9636
vn 0.2639 0.6516 -0.7111
vn 0.2639 0.9636 -0.0421
vn 1.0000 -0.0000 0.0000
vn -0.2639 0.7111 0.6516
vn -0.2639 0.0421 0.9636
vn -0.2639 -0.6516 0.7111
vn -0.2639 -0.9636 0.0421
vn -0.2639 -0.7111 -0.6516
vn -0.2639 -0.0421 -0.9636
vn -0.2639 0.6516 -0.7111
vn -0.2639 0.9636 -0.0421
vn -1.0000 -0.0000 0.0000
usemtl tiny_treats_1
s 1
f 15/1/1 42/2/2 45/3/3 29/4/4
f 7/5/5 28/6/6 33/7/7 49/8/8
f 32/9/9 25/10/10 6/11/11 16/12/12
f 19/13/13 36/14/14 40/15/15 11/16/16
f 10/17/17 4/18/18 21/19/19 20/20/20
f 24/21/21 26/22/22 31/23/23 17/24/24
f 12/25/25 39/26/26 43/27/27 14/28/28
f 27/29/29 23/30/30 56/31/31 34/32/32
f 53/33/33 50/34/34 35/35/35 55/36/36
f 38/37/33 46/38/34 44/39/35 41/40/36
f 18/41/37 30/42/38 47/43/39 37/44/40
f 3/45/41 51/46/42 54/47/43 22/48/44
f 13/49/45 5/50/46 1/51/47 9/52/48
f 1/53/47 2/54/49 3/45/41 4/18/18
f 5/55/46 6/11/11 7/5/5 8/56/50
f 9/57/48 10/17/17 11/16/16 12/58/25
f 13/59/45 14/60/28 15/1/1 16/12/12
f 17/61/24 18/62/37 19/13/13 20/20/20
f 21/19/19 22/48/44 23/63/30 24/64/21
f 25/10/10 26/65/22 27/66/29 28/6/6
f 29/4/4 30/67/38 31/68/23 32/9/9
f 33/7/7 34/69/32 35/70/35
f 36/14/14 37/71/40 38/72/33
f 39/73/26 40/15/15 41/74/36
f 42/2/2 43/75/27 44/76/35
f 45/3/3 46/77/34 47/78/39
f 48/79/51 49/8/8 50/80/34
f 51/46/42 52/81/52 53/82/33
f 54/47/43 55/83/36 56/84/31
f 13/49/45 9/52/48 12/25/25 14/28/28
f 15/1/1 29/4/4 32/9/9 16/12/12
f 8/85/50 2/86/49 1/51/47 5/50/46
f 20/20/20 21/19/19 24/64/21 17/61/24
f 25/10/10 32/9/9 31/68/23 26/65/22
f 10/17/17 20/20/20 19/13/13 11/16/16
f 11/16/16 40/15/15 39/73/26 12/58/25
f 36/14/14 19/13/13 18/62/37 37/71/40
f 56/84/31 23/63/30 22/48/44 54/47/43
f 2/54/49 52/81/52 51/46/42 3/45/41
f 48/79/51 8/56/50 7/5/5 49/8/8
f 27/66/29 34/69/32 33/7/7 28/6/6
f 47/78/39 30/67/38 29/4/4 45/3/3
f 14/60/28 43/75/27 42/2/2 15/1/1
f 4/18/18 10/17/17 9/57/48 1/53/47
f 46/38/34 38/37/33 37/44/40 47/43/39
f 34/32/32 56/31/31 55/36/36 35/35/35
f 49/8/8 33/7/7 35/70/35 50/80/34
f 40/15/15 36/14/14 38/72/33 41/74/36
f 43/27/27 39/26/26 41/40/36 44/39/35
f 45/3/3 42/2/2 44/76/35 46/77/34
f 52/87/52 48/88/51 50/34/34 53/33/33
f 54/47/43 51/46/42 53/82/33 55/83/36
f 16/12/12 6/11/11 5/55/46 13/59/45
f 26/22/22 24/21/21 23/30/30 27/29/29
f 30/42/38 18/41/37 17/24/24 31/23/23
f 28/6/6 7/5/5 6/11/11 25/10/10
f 21/19/19 4/18/18 3/45/41 22/48/44
f 8/85/50 48/88/51 52/87/52 2/86/49
f 58/89/53 67/90/53 66/91/54 59/92/54
f 59/92/54 66/91/54 68/93/55 60/94/55
f 60/94/55 68/93/55 69/95/56 61/96/56
f 61/96/56 69/95/56 70/97/57 62/98/57
f 62/98/57 70/97/57 71/99/58 63/100/58
f 63/100/58 71/99/58 72/101/59 64/102/59
f 64/102/59 72/101/59 73/103/60 65/104/60
f 65/104/60 73/103/60 67/90/53 58/89/53
f 57/105/61 58/89/61 59/92/61
f 57/105/61 59/92/61 60/94/61
f 57/105/61 60/94/61 61/96/61
f 57/105/61 61/96/61 62/98/61
f 57/105/61 62/98/61 63/100/61
f 57/105/61 63/100/61 64/102/61
f 57/105/61 64/102/61 65/104/61
f 57/105/61 65/104/61 58/89/61
f 75/106/62 76/107/63 83/108/63 84/109/62
f 76/107/63 77/110/64 85/111/64 83/108/63
f 77/110/64 78/112/65 86/113/65 85/111/64
f 78/112/65 79/114/66 87/115/66 86/113/65
f 79/114/66 80/116/67 88/117/67 87/115/66
f 80/116/67 81/118/68 89/119/68 88/117/67
f 81/118/68 82/120/69 90/121/69 89/119/68
f 82/120/69 75/106/62 84/109/62 90/121/69
f 74/122/70 76/107/70 75/106/70
f 74/122/70 77/110/70 76/107/70
f 74/122/70 78/112/70 77/110/70
f 74/122/70 79/114/70 78/112/70
f 74/122/70 80/116/70 79/114/70
f 74/122/70 81/118/70 80/116/70
f 74/122/70 82/120/70 81/118/70
f 74/122/70 75/106/70 82/120/70
