# Blender v3.4.1 OBJ File: 'Tiny_Treats_Pleasant_Picnic_ASSETS_EXPORT.blend'
# www.blender.org
mtllib jam.mtl
o jam
v -0.000002 -0.000007 0.000000
v 0.142747 0.048743 -0.142750
v 0.132295 0.014272 -0.132297
v 0.194998 0.048743 -0.052250
v 0.180719 0.014272 -0.048424
v 0.194998 0.048743 0.052250
v 0.180719 0.014272 0.048424
v 0.142747 0.048743 0.142750
v 0.132295 0.014272 0.132297
v 0.052248 0.048743 0.195000
v 0.048422 0.014272 0.180721
v -0.052253 0.048743 0.195000
v -0.048427 0.014272 0.180721
v -0.142752 0.048743 0.142750
v -0.132300 0.014272 0.132297
v -0.195002 0.048743 0.052250
v -0.180724 0.014272 0.048424
v -0.195002 0.048743 -0.052250
v -0.180724 0.014272 -0.048424
v -0.142752 0.048743 -0.142750
v -0.132300 0.014272 -0.132297
v -0.052253 0.048743 -0.195000
v -0.048427 0.014272 -0.180721
v 0.052248 0.048743 -0.195000
v 0.048422 0.014272 -0.180721
v 0.146248 -0.000007 -0.039188
v 0.107060 -0.000007 -0.107062
v 0.146248 -0.000007 0.039188
v 0.107060 -0.000007 0.107062
v 0.039185 -0.000007 0.146250
v -0.039190 -0.000007 0.146250
v -0.107065 -0.000007 0.107062
v -0.146252 -0.000007 0.039188
v -0.146252 -0.000007 -0.039188
v -0.107065 -0.000007 -0.107062
v -0.039190 -0.000007 -0.146250
v 0.039185 -0.000007 -0.146250
v 0.142747 0.343535 -0.142750
v 0.132295 0.378007 -0.132297
v 0.194998 0.343535 -0.052250
v 0.180719 0.378007 -0.048424
v 0.194998 0.343535 0.052250
v 0.180719 0.378007 0.048424
v 0.142747 0.343535 0.142750
v 0.132295 0.378007 0.132297
v 0.052248 0.343535 0.195000
v 0.048422 0.378007 0.180721
v -0.052253 0.343535 0.195000
v -0.048427 0.378007 0.180721
v -0.142752 0.343535 0.142750
v -0.132300 0.378007 0.132297
v -0.195002 0.343535 0.052250
v -0.180724 0.378007 0.048424
v -0.195002 0.343535 -0.052250
v -0.180724 0.378007 -0.048424
v -0.142752 0.343535 -0.142750
v -0.132300 0.378007 -0.132297
v -0.052253 0.343535 -0.195000
v -0.048427 0.378007 -0.180721
v 0.052248 0.343535 -0.195000
v 0.048422 0.378007 -0.180721
v 0.158574 0.392285 -0.042490
v 0.116084 0.392285 -0.116086
v 0.158574 0.392285 0.042490
v 0.116084 0.392285 0.116086
v 0.042488 0.392285 0.158576
v -0.042493 0.392285 0.158576
v -0.116089 0.392285 0.116086
v -0.158579 0.392285 0.042490
v -0.158579 0.392285 -0.042490
v -0.116088 0.392285 -0.116086
v -0.042493 0.392285 -0.158576
v 0.042488 0.392285 -0.158576
v -0.000002 0.481898 0.000000
v 0.190927 0.425503 -0.051159
v 0.139768 0.425503 -0.139770
v 0.190927 0.425503 0.051159
v 0.139768 0.425503 0.139770
v 0.051157 0.425503 0.190930
v -0.051162 0.425503 0.190930
v -0.139773 0.425503 0.139770
v -0.190932 0.425503 0.051159
v -0.190932 0.425503 -0.051160
v -0.139773 0.425503 -0.139770
v -0.051162 0.425503 -0.190930
v 0.051157 0.425503 -0.190930
v 0.175787 0.481898 -0.047103
v 0.190954 0.467933 -0.051167
v 0.139787 0.467933 -0.139790
v 0.128685 0.481898 -0.128687
v 0.175787 0.481898 0.047103
v 0.190954 0.467933 0.051167
v 0.128685 0.481898 0.128687
v 0.139787 0.467933 0.139790
v 0.047100 0.481898 0.175790
v 0.051164 0.467933 0.190957
v -0.047105 0.481898 0.175790
v -0.051169 0.467933 0.190957
v -0.128690 0.481898 0.128687
v -0.139792 0.467933 0.139790
v -0.175792 0.481898 0.047103
v -0.190959 0.467933 0.051167
v -0.175792 0.481898 -0.047103
v -0.190959 0.467933 -0.051167
v -0.128690 0.481898 -0.128687
v -0.139792 0.467933 -0.139790
v -0.047105 0.481898 -0.175790
v -0.051169 0.467933 -0.190957
v 0.047100 0.481898 -0.175790
v 0.051164 0.467933 -0.190957
v 0.179587 0.398817 0.048121
v 0.179587 0.398817 -0.048121
v 0.131466 0.398817 -0.131469
v 0.048118 0.398817 -0.179589
v 0.131466 0.398817 0.131469
v 0.048118 0.398817 0.179589
v -0.048123 0.398817 0.179589
v -0.131471 0.398817 0.131469
v -0.179592 0.398817 0.048121
v -0.179592 0.398817 -0.048121
v -0.131471 0.398817 -0.131469
v -0.048123 0.398817 -0.179589
v 0.142747 0.284271 -0.142750
v 0.142747 0.108007 -0.142750
v 0.194998 0.108007 -0.052250
v 0.194998 0.284271 -0.052250
v 0.052248 0.284271 -0.195000
v 0.052248 0.108007 -0.195000
v 0.194998 0.108007 0.052250
v 0.194998 0.284271 0.052250
v 0.142747 0.108007 0.142750
v 0.142747 0.284271 0.142750
v 0.052248 0.108007 0.195000
v 0.052248 0.284271 0.195000
v -0.052253 0.108007 0.195000
v -0.052253 0.284271 0.195000
v -0.142752 0.108007 0.142750
v -0.142752 0.284271 0.142750
v -0.195002 0.108007 0.052250
v -0.195002 0.284271 0.052250
v -0.195002 0.108007 -0.052250
v -0.195002 0.284271 -0.052250
v -0.142752 0.108007 -0.142750
v -0.142752 0.284271 -0.142750
v -0.052253 0.108007 -0.195000
v -0.052253 0.284271 -0.195000
vt 0.328787 0.375492
vt 0.337275 0.375492
vt 0.334956 0.365688
vt 0.327089 0.365688
vt 0.327089 0.334438
vt 0.334956 0.334438
vt 0.329355 0.330376
vt 0.322990 0.330376
vt 0.337275 0.375492
vt 0.334956 0.365688
vt 0.334956 0.334438
vt 0.329355 0.330376
vt 0.328787 0.375492
vt 0.327089 0.365688
vt 0.327089 0.334438
vt 0.322990 0.330376
vt 0.314086 0.375492
vt 0.313464 0.365688
vt 0.313464 0.334438
vt 0.311964 0.330376
vt 0.297110 0.375492
vt 0.297732 0.365688
vt 0.297732 0.334438
vt 0.299232 0.330376
vt 0.282409 0.375492
vt 0.284107 0.365688
vt 0.284107 0.334438
vt 0.288206 0.330376
vt 0.273921 0.375492
vt 0.276241 0.365688
vt 0.276241 0.334438
vt 0.281841 0.330376
vt 0.273921 0.375492
vt 0.276241 0.365688
vt 0.276241 0.334438
vt 0.281841 0.330376
vt 0.282409 0.375492
vt 0.284107 0.365688
vt 0.284107 0.334438
vt 0.288206 0.330376
vt 0.297110 0.375492
vt 0.297732 0.365688
vt 0.297732 0.334438
vt 0.299232 0.330376
vt 0.314086 0.375492
vt 0.313464 0.365688
vt 0.313464 0.334438
vt 0.311964 0.330376
vt 0.305598 0.330376
vt 0.594412 0.928094
vt 0.592714 0.937898
vt 0.600581 0.937898
vt 0.602900 0.928094
vt 0.590080 0.941959
vt 0.596983 0.941959
vt 0.600581 0.937898
vt 0.602900 0.928094
vt 0.596983 0.941959
vt 0.592714 0.937898
vt 0.594412 0.928094
vt 0.590080 0.941959
vt 0.579089 0.937898
vt 0.579711 0.928094
vt 0.578126 0.941959
vt 0.563357 0.937898
vt 0.562735 0.928094
vt 0.564321 0.941959
vt 0.549732 0.937898
vt 0.548034 0.928094
vt 0.552366 0.941959
vt 0.541866 0.937898
vt 0.539546 0.928094
vt 0.545463 0.941959
vt 0.541866 0.937898
vt 0.539546 0.928094
vt 0.545463 0.941959
vt 0.549732 0.937898
vt 0.548034 0.928094
vt 0.552366 0.941959
vt 0.563357 0.937898
vt 0.562735 0.928094
vt 0.564321 0.941959
vt 0.579089 0.937898
vt 0.579711 0.928094
vt 0.578126 0.941959
vt 0.337275 0.431393
vt 0.337275 0.459344
vt 0.337275 0.459344
vt 0.337275 0.431393
vt 0.297110 0.431393
vt 0.297110 0.459344
vt 0.314086 0.459344
vt 0.314086 0.431393
vt 0.282409 0.431393
vt 0.282409 0.459344
vt 0.273921 0.431393
vt 0.273921 0.459344
vt 0.273921 0.431393
vt 0.273921 0.459344
vt 0.282409 0.431393
vt 0.282409 0.459344
vt 0.297110 0.431393
vt 0.297110 0.459344
vt 0.314086 0.431393
vt 0.314086 0.459344
vt 0.328787 0.431393
vt 0.328787 0.459344
vt 0.328787 0.459344
vt 0.328787 0.431393
vt 0.328787 0.403443
vt 0.337275 0.403443
vt 0.314086 0.403443
vt 0.337275 0.403443
vt 0.328787 0.403443
vt 0.314086 0.403443
vt 0.578787 0.825318
vt 0.578787 0.853268
vt 0.564086 0.853268
vt 0.564086 0.825318
vt 0.297110 0.403443
vt 0.547110 0.853268
vt 0.547110 0.825318
vt 0.282409 0.403443
vt 0.532409 0.853268
vt 0.532409 0.825318
vt 0.273921 0.403443
vt 0.273921 0.403443
vt 0.282409 0.403443
vt 0.297110 0.403443
vt 0.865971 0.865974
vt 0.633962 0.999930
vt 0.633969 1.000000
vt 0.866023 0.866025
vt 0.633962 0.000070
vt 0.865971 0.134026
vt 0.866023 0.133975
vt 0.633969 0.000000
vt 0.134029 0.134026
vt 0.366038 0.000070
vt 0.366031 0.000000
vt 0.133977 0.133975
vt 0.000068 0.633956
vt 0.000068 0.366044
vt 0.000000 0.366026
vt 0.000000 0.633974
vt 0.366038 0.999930
vt 0.134029 0.865974
vt 0.133977 0.866025
vt 0.366031 1.000000
vt 0.999932 0.366044
vt 1.000000 0.366026
vt 0.999932 0.633956
vt 1.000000 0.633974
vt 0.844240 0.844237
vt 0.626000 0.970236
vt 0.970232 0.626000
vt 0.626000 0.029764
vt 0.844240 0.155763
vt 0.374000 0.029764
vt 0.155760 0.155763
vt 0.029768 0.374000
vt 0.029768 0.626000
vt 0.155760 0.844237
vt 0.374000 0.970236
vt 0.970232 0.374000
vt 0.500000 0.500000
vt 0.960290 0.623334
vt 0.836949 0.836953
vt 0.960290 0.376666
vt 0.836949 0.163047
vt 0.623334 0.039713
vt 0.376667 0.039713
vt 0.163051 0.163047
vt 0.039710 0.376666
vt 0.039710 0.623334
vt 0.163051 0.836953
vt 0.376667 0.960287
vt 0.623334 0.960287
vt 0.915217 0.388743
vt 0.915217 0.611257
vt 0.803957 0.196041
vt 0.611252 0.915216
vt 0.388748 0.915216
vt 0.196043 0.803959
vt 0.084783 0.611257
vt 0.084783 0.388743
vt 0.196043 0.196041
vt 0.388748 0.084784
vt 0.611252 0.084784
vt 0.803957 0.803959
vn 0.6935 -0.1949 -0.6935
vn 0.9474 -0.1949 -0.2539
vn 0.7034 -0.6854 -0.1885
vn 0.5149 -0.6854 -0.5149
vn 0.2117 -0.9757 -0.0567
vn 0.1550 -0.9757 -0.1550
vn 0.9474 -0.1949 0.2539
vn 0.7034 -0.6854 0.1885
vn 0.2117 -0.9757 0.0567
vn 0.6935 -0.1949 0.6935
vn 0.5149 -0.6854 0.5149
vn 0.1550 -0.9757 0.1550
vn 0.2539 -0.1949 0.9474
vn 0.1885 -0.6854 0.7034
vn 0.0567 -0.9757 0.2117
vn -0.2539 -0.1949 0.9474
vn -0.1885 -0.6854 0.7034
vn -0.0567 -0.9757 0.2117
vn -0.6935 -0.1949 0.6935
vn -0.5149 -0.6854 0.5149
vn -0.1550 -0.9757 0.1550
vn -0.9474 -0.1949 0.2539
vn -0.7034 -0.6854 0.1885
vn -0.2117 -0.9757 0.0567
vn -0.9474 -0.1949 -0.2539
vn -0.7034 -0.6854 -0.1885
vn -0.2117 -0.9757 -0.0567
vn -0.6935 -0.1949 -0.6935
vn -0.5149 -0.6854 -0.5149
vn -0.1550 -0.9757 -0.1550
vn -0.2539 -0.1949 -0.9474
vn -0.1885 -0.6854 -0.7034
vn -0.0567 -0.9757 -0.2117
vn 0.2539 -0.1949 -0.9474
vn 0.1885 -0.6854 -0.7034
vn 0.0567 -0.9757 -0.2117
vn -0.0000 -1.0000 0.0000
vn 0.6935 0.1949 -0.6935
vn 0.5503 0.6279 -0.5503
vn 0.7518 0.6279 -0.2014
vn 0.9474 0.1949 -0.2539
vn 0.3738 0.8488 -0.3738
vn 0.5106 0.8488 -0.1368
vn 0.7518 0.6279 0.2014
vn 0.9474 0.1949 0.2539
vn 0.5106 0.8488 0.1368
vn 0.5503 0.6279 0.5503
vn 0.6935 0.1949 0.6935
vn 0.3738 0.8488 0.3738
vn 0.2014 0.6279 0.7518
vn 0.2539 0.1949 0.9474
vn 0.1368 0.8488 0.5106
vn -0.2014 0.6279 0.7518
vn -0.2539 0.1949 0.9474
vn -0.1368 0.8488 0.5106
vn -0.5503 0.6279 0.5503
vn -0.6935 0.1949 0.6935
vn -0.3738 0.8488 0.3738
vn -0.7518 0.6279 0.2014
vn -0.9474 0.1949 0.2539
vn -0.5106 0.8488 0.1368
vn -0.7518 0.6279 -0.2014
vn -0.9474 0.1949 -0.2539
vn -0.5106 0.8488 -0.1368
vn -0.5503 0.6279 -0.5503
vn -0.6935 0.1949 -0.6935
vn -0.3738 0.8488 -0.3738
vn -0.2014 0.6279 -0.7518
vn -0.2539 0.1949 -0.9474
vn -0.1368 0.8488 -0.5106
vn 0.2014 0.6279 -0.7518
vn 0.2539 0.1949 -0.9474
vn 0.1368 0.8488 -0.5106
vn 0.9659 0.0000 -0.2588
vn 0.9659 0.0000 0.2588
vn -0.2588 0.0000 -0.9659
vn 0.2588 0.0000 -0.9659
vn -0.7071 0.0000 -0.7071
vn -0.9659 0.0000 -0.2588
vn -0.9659 0.0000 0.2588
vn -0.7071 0.0000 0.7071
vn -0.2588 0.0000 0.9659
vn 0.2588 0.0000 0.9659
vn 0.7071 0.0000 0.7071
vn 0.7071 0.0000 -0.7071
vn 0.6929 -0.1996 -0.6929
vn 0.2536 -0.1996 -0.9465
vn 0.2388 0.3859 -0.8911
vn 0.6523 0.3859 -0.6523
vn 0.2536 -0.1996 0.9465
vn 0.6929 -0.1996 0.6929
vn 0.6523 0.3859 0.6523
vn 0.2388 0.3859 0.8911
vn -0.6929 -0.1996 0.6929
vn -0.2536 -0.1996 0.9465
vn -0.2388 0.3859 0.8911
vn -0.6523 0.3859 0.6523
vn -0.9465 -0.1996 -0.2536
vn -0.9465 -0.1996 0.2536
vn -0.8911 0.3859 0.2388
vn -0.8911 0.3859 -0.2388
vn -0.2536 -0.1996 -0.9465
vn -0.6929 -0.1996 -0.6929
vn -0.6523 0.3859 -0.6523
vn -0.2388 0.3859 -0.8911
vn 0.9465 -0.1996 0.2536
vn 0.8911 0.3859 0.2388
vn 0.9465 -0.1996 -0.2536
vn 0.8911 0.3859 -0.2388
vn 0.4936 -0.7160 -0.4936
vn 0.1807 -0.7160 -0.6743
vn 0.6743 -0.7160 -0.1807
vn 0.1807 -0.7161 0.6743
vn 0.4936 -0.7160 0.4936
vn -0.1807 -0.7161 0.6743
vn -0.4936 -0.7160 0.4936
vn -0.6743 -0.7160 0.1807
vn -0.6743 -0.7160 -0.1807
vn -0.4936 -0.7160 -0.4936
vn -0.1807 -0.7160 -0.6743
vn 0.6743 -0.7160 0.1807
vn 0.0000 1.0000 0.0000
vn 0.3912 0.9143 -0.1048
vn 0.2864 0.9143 -0.2864
vn 0.3912 0.9143 0.1048
vn 0.2864 0.9143 0.2864
vn 0.1048 0.9143 0.3912
vn -0.1048 0.9143 0.3912
vn -0.2864 0.9143 0.2864
vn -0.3912 0.9143 0.1048
vn -0.3912 0.9143 -0.1048
vn -0.2864 0.9143 -0.2864
vn -0.1048 0.9143 -0.3912
vn 0.1048 0.9143 -0.3912
vn 0.2778 -0.9578 0.0744
vn 0.2778 -0.9578 -0.0744
vn 0.2034 -0.9578 0.2034
vn 0.0744 -0.9578 -0.2778
vn -0.0744 -0.9578 -0.2778
vn -0.2034 -0.9578 -0.2034
vn -0.2778 -0.9578 -0.0744
vn -0.2778 -0.9578 0.0744
vn -0.2034 -0.9578 0.2034
vn -0.0744 -0.9578 0.2778
vn 0.0744 -0.9578 0.2778
vn 0.2034 -0.9578 -0.2034
usemtl tiny_treats_1
s 1
f 2/1/1 4/2/2 5/3/3 3/4/4
f 3/5/4 5/6/3 26/7/5 27/8/6
f 4/2/2 6/9/7 7/10/8 5/3/3
f 5/6/3 7/11/8 28/12/9 26/7/5
f 6/9/7 8/13/10 9/14/11 7/10/8
f 7/11/8 9/15/11 29/16/12 28/12/9
f 8/13/10 10/17/13 11/18/14 9/14/11
f 9/15/11 11/19/14 30/20/15 29/16/12
f 10/17/13 12/21/16 13/22/17 11/18/14
f 11/19/14 13/23/17 31/24/18 30/20/15
f 12/21/16 14/25/19 15/26/20 13/22/17
f 13/23/17 15/27/20 32/28/21 31/24/18
f 14/25/19 16/29/22 17/30/23 15/26/20
f 15/27/20 17/31/23 33/32/24 32/28/21
f 16/29/22 18/33/25 19/34/26 17/30/23
f 17/31/23 19/35/26 34/36/27 33/32/24
f 18/33/25 20/37/28 21/38/29 19/34/26
f 19/35/26 21/39/29 35/40/30 34/36/27
f 20/37/28 22/41/31 23/42/32 21/38/29
f 21/39/29 23/43/32 36/44/33 35/40/30
f 22/41/31 24/45/34 25/46/35 23/42/32
f 23/43/32 25/47/35 37/48/36 36/44/33
f 24/45/34 2/1/1 3/4/4 25/46/35
f 25/47/35 3/5/4 27/8/6 37/48/36
f 1/49/37 27/8/6 26/7/5
f 1/49/37 26/7/5 28/12/9
f 1/49/37 28/12/9 29/16/12
f 1/49/37 29/16/12 30/20/15
f 1/49/37 30/20/15 31/24/18
f 1/49/37 31/24/18 32/28/21
f 1/49/37 32/28/21 33/32/24
f 1/49/37 33/32/24 34/36/27
f 1/49/37 34/36/27 35/40/30
f 1/49/37 35/40/30 36/44/33
f 1/49/37 36/44/33 37/48/36
f 1/49/37 37/48/36 27/8/6
f 38/50/38 39/51/39 41/52/40 40/53/41
f 39/51/39 63/54/42 62/55/43 41/52/40
f 40/53/41 41/52/40 43/56/44 42/57/45
f 41/52/40 62/55/43 64/58/46 43/56/44
f 42/57/45 43/56/44 45/59/47 44/60/48
f 43/56/44 64/58/46 65/61/49 45/59/47
f 44/60/48 45/59/47 47/62/50 46/63/51
f 45/59/47 65/61/49 66/64/52 47/62/50
f 46/63/51 47/62/50 49/65/53 48/66/54
f 47/62/50 66/64/52 67/67/55 49/65/53
f 48/66/54 49/65/53 51/68/56 50/69/57
f 49/65/53 67/67/55 68/70/58 51/68/56
f 50/69/57 51/68/56 53/71/59 52/72/60
f 51/68/56 68/70/58 69/73/61 53/71/59
f 52/72/60 53/71/59 55/74/62 54/75/63
f 53/71/59 69/73/61 70/76/64 55/74/62
f 54/75/63 55/74/62 57/77/65 56/78/66
f 55/74/62 70/76/64 71/79/67 57/77/65
f 56/78/66 57/77/65 59/80/68 58/81/69
f 57/77/65 71/79/67 72/82/70 59/80/68
f 58/81/69 59/80/68 61/83/71 60/84/72
f 59/80/68 72/82/70 73/85/73 61/83/71
f 60/84/72 61/83/71 39/51/39 38/50/38
f 61/83/71 73/85/73 63/54/42 39/51/39
f 126/86/74 40/87/41 42/88/45 130/89/75
f 146/90/76 58/91/69 60/92/72 127/93/77
f 144/94/78 56/95/66 58/91/69 146/90/76
f 142/96/79 54/97/63 56/95/66 144/94/78
f 140/98/80 52/99/60 54/97/63 142/96/79
f 138/100/81 50/101/57 52/99/60 140/98/80
f 136/102/82 48/103/54 50/101/57 138/100/81
f 134/104/83 46/105/51 48/103/54 136/102/82
f 132/106/84 44/107/48 46/105/51 134/104/83
f 130/89/75 42/88/45 44/107/48 132/106/84
f 127/93/77 60/92/72 38/108/38 123/109/85
f 123/109/85 38/108/38 40/87/41 126/86/74
f 2/1/1 124/110/85 125/111/74 4/2/2
f 124/110/85 123/109/85 126/86/74 125/111/74
f 24/45/34 128/112/77 124/110/85 2/1/1
f 128/112/77 127/93/77 123/109/85 124/110/85
f 6/9/7 129/113/75 131/114/84 8/13/10
f 129/113/75 130/89/75 132/106/84 131/114/84
f 8/13/10 131/114/84 133/115/83 10/17/13
f 131/116/84 132/117/84 134/118/83 133/119/83
f 10/17/13 133/115/83 135/120/82 12/21/16
f 133/119/83 134/118/83 136/121/82 135/122/82
f 12/21/16 135/120/82 137/123/81 14/25/19
f 135/122/82 136/121/82 138/124/81 137/125/81
f 14/25/19 137/123/81 139/126/80 16/29/22
f 137/123/81 138/100/81 140/98/80 139/126/80
f 16/29/22 139/126/80 141/127/79 18/33/25
f 139/126/80 140/98/80 142/96/79 141/127/79
f 18/33/25 141/127/79 143/128/78 20/37/28
f 141/127/79 142/96/79 144/94/78 143/128/78
f 20/37/28 143/128/78 145/129/76 22/41/31
f 143/128/78 144/94/78 146/90/76 145/129/76
f 22/41/31 145/129/76 128/112/77 24/45/34
f 145/129/76 146/90/76 127/93/77 128/112/77
f 4/2/2 125/111/74 129/113/75 6/9/7
f 125/111/74 126/86/74 130/89/75 129/113/75
usemtl tiny_treats_plaid_pattern_red
f 76/130/86 86/131/87 110/132/88 89/133/89
f 79/134/90 78/135/91 94/136/92 96/137/93
f 81/138/94 80/139/95 98/140/96 100/141/97
f 83/142/98 82/143/99 102/144/100 104/145/101
f 85/146/102 84/147/103 106/148/104 108/149/105
f 78/135/91 77/150/106 92/151/107 94/136/92
f 75/152/108 76/130/86 89/133/89 88/153/109
f 80/139/95 79/134/90 96/137/93 98/140/96
f 82/143/99 81/138/94 100/141/97 102/144/100
f 84/147/103 83/142/98 104/145/101 106/148/104
f 86/131/87 85/146/102 108/149/105 110/132/88
f 113/154/110 114/155/111 86/131/87 76/130/86
f 112/156/112 113/154/110 76/130/86 75/152/108
f 116/157/113 115/158/114 78/135/91 79/134/90
f 117/159/115 116/157/113 79/134/90 80/139/95
f 118/160/116 117/159/115 80/139/95 81/138/94
f 119/161/117 118/160/116 81/138/94 82/143/99
f 120/162/118 119/161/117 82/143/99 83/142/98
f 121/163/119 120/162/118 83/142/98 84/147/103
f 122/164/120 121/163/119 84/147/103 85/146/102
f 114/155/111 122/164/120 85/146/102 86/131/87
f 115/158/114 111/165/121 77/150/106 78/135/91
f 74/166/122 87/167/123 90/168/124
f 74/166/122 91/169/125 87/167/123
f 74/166/122 93/170/126 91/169/125
f 74/166/122 95/171/127 93/170/126
f 74/166/122 97/172/128 95/171/127
f 74/166/122 99/173/129 97/172/128
f 74/166/122 101/174/130 99/173/129
f 74/166/122 103/175/131 101/174/130
f 74/166/122 105/176/132 103/175/131
f 74/166/122 107/177/133 105/176/132
f 74/166/122 109/178/134 107/177/133
f 74/166/122 90/168/124 109/178/134
f 111/165/121 112/156/112 75/152/108 77/150/106
f 90/168/124 87/167/123 88/153/109 89/133/89
f 87/167/123 91/169/125 92/151/107 88/153/109
f 91/169/125 93/170/126 94/136/92 92/151/107
f 93/170/126 95/171/127 96/137/93 94/136/92
f 95/171/127 97/172/128 98/140/96 96/137/93
f 97/172/128 99/173/129 100/141/97 98/140/96
f 99/173/129 101/174/130 102/144/100 100/141/97
f 101/174/130 103/175/131 104/145/101 102/144/100
f 103/175/131 105/176/132 106/148/104 104/145/101
f 105/176/132 107/177/133 108/149/105 106/148/104
f 107/177/133 109/178/134 110/132/88 108/149/105
f 109/178/134 90/168/124 89/133/89 110/132/88
f 77/150/106 75/152/108 88/153/109 92/151/107
f 64/179/135 62/180/136 112/156/112 111/165/121
f 65/181/137 64/179/135 111/165/121 115/158/114
f 73/182/138 72/183/139 122/164/120 114/155/111
f 72/183/139 71/184/140 121/163/119 122/164/120
f 71/184/140 70/185/141 120/162/118 121/163/119
f 70/185/141 69/186/142 119/161/117 120/162/118
f 69/186/142 68/187/143 118/160/116 119/161/117
f 68/187/143 67/188/144 117/159/115 118/160/116
f 67/188/144 66/189/145 116/157/113 117/159/115
f 66/189/145 65/181/137 115/158/114 116/157/113
f 62/180/136 63/190/146 113/154/110 112/156/112
f 63/190/146 73/182/138 114/155/111 113/154/110
