# Blender v3.4.1 OBJ File: 'Tiny_Treats_Pleasant_Picnic_ASSETS_EXPORT.blend'
# www.blender.org
mtllib knife.mtl
o knife
v 0.029040 -0.016816 0.144739
v -0.029042 -0.016816 0.144739
v 0.049547 -0.017502 0.110867
v -0.049546 -0.017502 0.110867
v 0.029040 0.010152 0.145311
v -0.029042 0.010152 0.145311
v 0.049547 0.018456 0.111629
v -0.049546 0.018456 0.111629
v -0.000001 -0.021818 0.147705
v 0.000000 -0.026492 0.110677
v -0.000001 0.014140 0.148467
v 0.000000 0.027446 0.111819
v -0.041966 0.015392 -0.115097
v -0.041966 -0.016346 -0.115947
v -0.000000 -0.024280 -0.116160
v 0.041966 0.015392 -0.115097
v 0.041966 -0.016346 -0.115947
v -0.000000 0.023327 -0.114885
v -0.003029 -0.022872 -0.156342
v 0.022367 -0.022872 -0.154861
v -0.030815 -0.022872 -0.154861
v -0.003027 0.010311 -0.157963
v 0.022368 0.010311 -0.155875
v -0.030814 0.010311 -0.155875
v 0.042226 -0.018922 0.133537
v -0.042229 -0.018922 0.133537
v 0.042226 0.015497 0.134266
v -0.042229 0.015497 0.134266
v -0.029019 -0.003665 0.147037
v 0.029017 -0.003665 0.147037
v 0.056979 0.000477 0.111248
v -0.056978 0.000477 0.111248
v -0.000001 -0.004600 0.152677
v -0.000001 0.024067 0.134846
v -0.000001 -0.027623 0.133751
v 0.048261 -0.000477 -0.115522
v -0.048261 -0.000477 -0.115522
v 0.026366 -0.007457 -0.155368
v -0.029866 -0.007457 -0.155368
v 0.048173 -0.001745 0.134100
v -0.048175 -0.001745 0.134100
v 0.052847 0.024681 -0.119622
v 0.040164 0.016742 -0.159219
v -0.052847 0.024684 -0.119616
v -0.040197 0.016742 -0.159215
v -0.054174 -0.025361 -0.117540
v -0.040115 -0.033237 -0.154266
v 0.040079 -0.033239 -0.154271
v 0.054174 -0.025359 -0.117548
v -0.000017 0.025551 -0.160157
v 0.000001 0.036049 -0.118147
v 0.000001 -0.037328 -0.114619
v 0.063844 0.000037 -0.119863
v -0.063847 0.000037 -0.119854
v -0.000019 -0.042974 -0.153650
v 0.049792 -0.008208 -0.158446
v -0.049827 -0.008207 -0.158437
v 0.049623 0.024527 -0.141218
v -0.049640 0.024529 -0.141210
v -0.050495 -0.033317 -0.136267
v 0.050476 -0.033317 -0.136277
v -0.000008 0.035876 -0.140469
v -0.000009 -0.045349 -0.133434
v 0.061761 -0.004146 -0.140905
v -0.061782 -0.004145 -0.140892
v 0.053718 -0.022872 -0.233609
v 0.053718 0.010311 -0.233609
v -0.031494 -0.022872 -0.233609
v -0.031494 0.010311 -0.233609
v 0.033304 -0.022872 -0.405055
v 0.033304 0.010311 -0.405055
v -0.031494 -0.022872 -0.405055
v -0.031494 0.010311 -0.405055
v 0.022103 -0.022872 -0.193609
v 0.022103 0.010311 -0.193609
v -0.031494 0.010311 -0.193609
v -0.031494 -0.022872 -0.193609
v 0.060504 -0.005202 -0.225914
v 0.040673 -0.005202 -0.411991
v 0.030111 -0.006224 -0.187700
v -0.031494 -0.005518 -0.405055
v -0.031494 -0.006855 -0.233609
v -0.031494 -0.007085 -0.193609
v 0.058989 -0.022872 -0.365340
v 0.058988 0.010311 -0.365344
v -0.031494 -0.022872 -0.365532
v -0.031494 0.010311 -0.365534
v 0.068580 -0.005202 -0.366852
v -0.031494 -0.005783 -0.365595
v -0.030927 -0.022872 -0.425427
v -0.005971 -0.022872 -0.439318
v -0.027228 -0.022872 -0.440031
v -0.018094 -0.022872 -0.445116
v -0.005939 0.010311 -0.439290
v -0.030933 0.010311 -0.425186
v -0.018079 0.010311 -0.445070
v -0.027227 0.010311 -0.439908
v -0.030767 -0.005371 -0.435189
v -0.005437 -0.005202 -0.449960
v -0.027065 -0.005287 -0.449955
v -0.017794 -0.005225 -0.455361
v 0.067609 -0.022872 -0.322694
v 0.063678 -0.022872 -0.263218
v 0.068957 -0.022872 -0.292909
v 0.063675 0.010311 -0.263209
v 0.067609 0.010311 -0.322693
v 0.068956 0.010311 -0.292905
v -0.031494 -0.022872 -0.264770
v -0.031494 -0.022872 -0.324361
v -0.031494 -0.022872 -0.294566
v -0.031494 0.010311 -0.324361
v -0.031494 0.010311 -0.264765
v -0.031494 0.010311 -0.294563
v 0.077056 -0.005202 -0.324271
v 0.073259 -0.005202 -0.264758
v 0.078405 -0.005202 -0.294475
v -0.031494 -0.006582 -0.264776
v -0.031494 -0.006095 -0.324385
v -0.031494 -0.006338 -0.294580
vt 0.187479 0.385821
vt 0.187479 0.390186
vt 0.203200 0.386418
vt 0.198290 0.384068
vt 0.187479 0.336209
vt 0.187479 0.338761
vt 0.198290 0.340960
vt 0.203200 0.340035
vt 0.207149 0.372417
vt 0.205924 0.371909
vt 0.208691 0.379814
vt 0.210099 0.379394
vt 0.187479 0.337679
vt 0.187479 0.336706
vt 0.205924 0.340659
vt 0.207149 0.341167
vt 0.173115 0.401008
vt 0.169857 0.396240
vt 0.187486 0.391959
vt 0.187486 0.397696
vt 0.176666 0.372210
vt 0.176677 0.377992
vt 0.187479 0.377582
vt 0.187479 0.370011
vt 0.187479 0.391671
vt 0.205924 0.387719
vt 0.198282 0.377992
vt 0.198290 0.372210
vt 0.207149 0.386372
vt 0.203910 0.407450
vt 0.209386 0.407245
vt 0.205153 0.418215
vt 0.201857 0.413889
vt 0.169035 0.371909
vt 0.166267 0.379814
vt 0.169546 0.378837
vt 0.171757 0.371285
vt 0.171757 0.386418
vt 0.176666 0.384068
vt 0.169035 0.387719
vt 0.167807 0.372417
vt 0.164857 0.379394
vt 0.167807 0.341167
vt 0.169035 0.340659
vt 0.205412 0.378837
vt 0.203200 0.371285
vt 0.171757 0.340035
vt 0.167807 0.386372
vt 0.176666 0.340960
vt 0.187479 0.358610
vt 0.187479 0.364204
vt 0.210715 0.359207
vt 0.207149 0.355122
vt 0.201857 0.401008
vt 0.205117 0.396240
vt 0.167807 0.355122
vt 0.164242 0.359206
vt 0.215551 0.348370
vt 0.210099 0.348144
vt 0.187479 0.389860
vt 0.211297 0.337203
vt 0.214643 0.377782
vt 0.209386 0.375995
vt 0.205117 0.364990
vt 0.209680 0.364955
vt 0.209680 0.333705
vt 0.205117 0.333740
vt 0.187486 0.329459
vt 0.187483 0.328415
vt 0.187483 0.395378
vt 0.209305 0.390389
vt 0.210715 0.390457
vt 0.187479 0.395454
vt 0.205153 0.386965
vt 0.160324 0.377781
vt 0.165660 0.390388
vt 0.164242 0.390456
vt 0.159407 0.379620
vt 0.169857 0.333740
vt 0.165285 0.333705
vt 0.165285 0.364955
vt 0.169857 0.364990
vt 0.165586 0.375995
vt 0.187479 0.322054
vt 0.187479 0.316316
vt 0.163660 0.321579
vt 0.167807 0.325542
vt 0.164857 0.348144
vt 0.159407 0.348370
vt 0.187484 0.422088
vt 0.187484 0.416494
vt 0.173113 0.413889
vt 0.169819 0.418215
vt 0.165586 0.407245
vt 0.171060 0.407450
vt 0.163660 0.337204
vt 0.207149 0.325542
vt 0.211297 0.321578
vt 0.163660 0.368454
vt 0.169819 0.386965
vt 0.187484 0.390838
vt 0.187479 0.331941
vt 0.215551 0.379620
vt 0.211297 0.368453
vt 0.290306 0.850472
vt 0.307100 0.852500
vt 0.310865 0.841628
vt 0.293499 0.841628
vt 0.284674 0.882393
vt 0.289136 0.890454
vt 0.293499 0.889862
vt 0.290306 0.881722
vt 0.336073 0.858612
vt 0.336073 0.858612
vt 0.289464 0.858612
vt 0.293518 0.858612
vt 0.298146 0.881722
vt 0.301611 0.889862
vt 0.293518 0.889862
vt 0.289008 0.881722
vt 0.321514 0.850472
vt 0.298146 0.850472
vt 0.301611 0.841628
vt 0.321681 0.841628
vt 0.301611 0.810378
vt 0.293518 0.810378
vt 0.336073 0.810378
vt 0.336073 0.810378
vt 0.336073 0.841628
vt 0.336073 0.841628
vt 0.336073 0.850032
vt 0.336073 0.850186
vt 0.293499 0.810378
vt 0.310865 0.810378
vt 0.336073 0.810378
vt 0.336073 0.810378
vt 0.336073 0.858612
vt 0.336073 0.857986
vt 0.310865 0.857986
vt 0.293499 0.858612
vt 0.336073 0.849543
vt 0.336039 0.849360
vt 0.334145 0.855301
vt 0.336073 0.849657
vt 0.320886 0.809110
vt 0.334145 0.812166
vt 0.305729 0.849360
vt 0.307625 0.843416
vt 0.320884 0.857705
vt 0.307623 0.855301
vt 0.336073 0.858612
vt 0.336073 0.850317
vt 0.336073 0.810378
vt 0.290063 0.810378
vt 0.310865 0.889236
vt 0.307100 0.883750
vt 0.335295 0.858612
vt 0.321665 0.858612
vt 0.327984 0.858612
vt 0.332972 0.858612
vt 0.307623 0.886551
vt 0.305729 0.880610
vt 0.301611 0.858612
vt 0.321665 0.870476
vt 0.321514 0.861311
vt 0.335078 0.850389
vt 0.307625 0.812166
vt 0.336073 0.841628
vt 0.336073 0.841628
vt 0.336073 0.841628
vt 0.334145 0.843416
vt 0.289081 0.841103
vt 0.284614 0.849878
vt 0.283932 0.882417
vt 0.288371 0.890559
vt 0.293518 0.841628
vt 0.289008 0.850472
vt 0.283869 0.849856
vt 0.288309 0.841011
vt 0.336073 0.849792
vt 0.336073 0.841628
vt 0.336073 0.858612
vt 0.321681 0.810378
vt 0.335285 0.810378
vt 0.332970 0.810378
vt 0.327990 0.810378
vt 0.335285 0.841628
vt 0.334587 0.850420
vt 0.334717 0.841618
vt 0.326792 0.849714
vt 0.326904 0.840899
vt 0.334722 0.858624
vt 0.326940 0.866310
vt 0.326837 0.857558
vt 0.290065 0.858612
vt 0.288831 0.858612
vt 0.336073 0.858612
vt 0.336073 0.810378
vt 0.288830 0.810378
vt 0.336073 0.810378
vt 0.289464 0.810378
vt 0.280735 0.848482
vt 0.284662 0.840578
vt 0.336073 0.849916
vt 0.336073 0.841628
vt 0.284769 0.891047
vt 0.280943 0.883961
vn -0.0000 0.5412 0.8409
vn -0.0000 0.9243 0.3816
vn -0.5539 0.6487 0.5220
vn -0.3207 0.4510 0.8329
vn -0.0000 -0.9830 0.1833
vn -0.0000 -0.9203 0.3913
vn -0.1908 -0.9034 0.3841
vn -0.1931 -0.9766 0.0951
vn -0.9265 -0.3749 -0.0335
vn -0.9210 -0.3654 0.1353
vn -0.9891 0.0067 0.1474
vn -0.9993 -0.0066 -0.0378
vn -0.0000 -0.9999 -0.0105
vn 0.0000 -0.9998 -0.0177
vn -0.1852 -0.9826 -0.0167
vn -0.1819 -0.9833 -0.0103
vn -0.0192 -0.0883 -0.9959
vn -0.0447 -0.0877 -0.9951
vn 0.0025 -0.0949 -0.9955
vn -0.0030 -0.0961 -0.9954
vn 0.3916 -0.2143 0.8948
vn 0.3780 -0.0264 0.9254
vn 0.0000 -0.0306 0.9995
vn 0.0000 -0.2327 0.9726
vn 0.0000 0.9973 0.0740
vn -0.1848 0.9806 0.0648
vn -0.3780 -0.0264 0.9254
vn -0.3916 -0.2143 0.8948
vn -0.9193 0.3588 0.1615
vn -0.9258 0.3763 -0.0366
vn 0.1598 -0.0793 -0.9840
vn 0.1580 -0.0797 -0.9842
vn 0.1185 -0.1420 -0.9828
vn 0.0900 -0.1665 -0.9819
vn 0.9209 -0.3654 0.1354
vn 0.9890 0.0067 0.1474
vn 0.8176 -0.0194 0.5754
vn 0.7634 -0.2748 0.5845
vn 0.5539 0.6486 0.5220
vn 0.3207 0.4510 0.8329
vn 0.9193 0.3588 0.1616
vn 0.9265 -0.3749 -0.0335
vn 0.9993 -0.0066 -0.0378
vn 0.1819 -0.9833 -0.0103
vn 0.1852 -0.9826 -0.0167
vn -0.8177 -0.0194 0.5754
vn -0.7635 -0.2748 0.5844
vn 0.1848 0.9806 0.0648
vn 0.1931 -0.9766 0.0951
vn 0.9258 0.3763 -0.0366
vn 0.1908 -0.9034 0.3841
vn 0.0001 0.2990 0.9543
vn -0.1970 0.1874 0.9623
vn -0.1723 0.2111 0.9622
vn 0.0478 -0.0954 -0.9943
vn 0.0459 -0.0955 -0.9944
vn 0.1726 0.2113 0.9621
vn 0.1974 0.1876 0.9622
vn -0.2410 0.0370 0.9698
vn -0.2400 0.0352 0.9701
vn -0.1817 0.9832 -0.0186
vn -0.0000 0.9998 -0.0189
vn 0.1817 0.9832 -0.0186
vn -0.1312 -0.0148 0.9912
vn -0.1026 -0.0076 0.9947
vn -0.9466 -0.0142 -0.3220
vn -0.8377 -0.0661 -0.5422
vn -0.8004 -0.3847 -0.4598
vn -0.8814 -0.3843 -0.2746
vn -0.2340 -0.9554 0.1804
vn -0.2274 -0.9659 -0.1238
vn -0.0001 -0.9919 -0.1272
vn 0.0000 -0.9915 0.1300
vn -0.0000 0.9693 -0.2458
vn -0.6002 0.7326 -0.3210
vn -0.2158 0.9762 -0.0230
vn 0.0001 0.9997 -0.0236
vn -0.5084 0.6555 -0.5585
vn 0.9464 -0.0142 -0.3227
vn 0.6001 0.7326 -0.3213
vn 0.9067 0.3932 -0.1528
vn 0.9933 0.0535 -0.1024
vn 0.2274 -0.9659 -0.1239
vn 0.2341 -0.9554 0.1803
vn 0.2159 0.9761 -0.0232
vn 0.8812 -0.3843 -0.2754
vn 0.8000 -0.3847 -0.4604
vn 0.8373 -0.0661 -0.5428
vn 0.0001 0.0117 0.9999
vn 0.1316 -0.0151 0.9912
vn 0.1030 -0.0078 0.9947
vn 0.2405 0.0352 0.9700
vn 0.2415 0.0369 0.9697
vn 0.0012 -0.2540 -0.9672
vn -0.0016 -0.2532 -0.9674
vn -0.0494 -0.1881 -0.9809
vn -0.1022 -0.1254 -0.9868
vn -0.1130 -0.0811 -0.9903
vn -0.1137 -0.0810 -0.9902
vn 0.9322 -0.3612 -0.0252
vn 0.5081 0.6554 -0.5588
vn -0.0001 0.8810 -0.4732
vn 0.0001 -0.9282 0.3721
vn 0.2273 -0.9039 0.3623
vn -0.9934 0.0535 -0.1016
vn -0.9067 0.3933 -0.1522
vn -0.2272 -0.9039 0.3625
vn -0.9322 -0.3612 -0.0244
vn 0.7650 -0.4828 0.4263
vn 0.9484 0.0025 0.3172
vn 0.8278 -0.4570 0.3254
vn 0.7836 -0.4762 0.3991
vn 0.8415 0.5005 0.2036
vn 0.8384 0.4984 0.2205
vn 0.7624 0.5144 0.3927
vn 0.7415 0.5193 0.4248
vn 0.0000 1.0000 0.0000
vn 0.6429 0.5203 -0.5621
vn 0.6452 0.5204 -0.5594
vn 0.7831 0.5295 -0.3260
vn 0.7915 0.5301 -0.3042
vn 0.4549 -0.4769 -0.7521
vn 0.6640 -0.4717 -0.5802
vn 0.6661 -0.4718 -0.5777
vn 0.4888 -0.4743 -0.7322
vn 0.0000 -1.0000 0.0000
vn -1.0000 0.0000 0.0000
vn -0.9999 0.0010 0.0151
vn -0.9995 0.0029 0.0302
vn -0.9992 -0.0265 0.0302
vn -0.9998 -0.0133 0.0151
vn 0.9985 -0.0252 0.0488
vn 0.9336 -0.3562 0.0395
vn -0.9999 0.0014 -0.0128
vn -0.9999 0.0001 -0.0128
vn 0.8210 0.4648 0.3314
vn 0.9394 0.3386 0.0526
vn 0.4743 0.5232 -0.7080
vn 0.4374 0.5263 -0.7291
vn -0.9850 0.0068 -0.1723
vn -0.9942 0.0489 -0.0958
vn -0.9998 0.0154 0.0150
vn -0.9999 -0.0013 -0.0128
vn -0.9991 0.0309 0.0301
vn 0.8636 -0.4506 0.2262
vn 0.8666 -0.4524 0.2105
vn 0.8439 0.5263 -0.1040
vn 0.8442 0.5262 -0.1021
vn 0.8100 -0.4806 -0.3360
vn 0.8179 -0.4811 -0.3156
vn 0.8721 -0.4774 -0.1074
vn 0.8723 -0.4774 -0.1056
vn -0.9939 -0.0455 -0.1004
vn -0.7357 0.0214 -0.6770
vn -0.8269 -0.2717 -0.4924
vn -0.0284 -0.5043 -0.8630
vn -0.0494 -0.5034 -0.8627
vn -0.8284 0.2983 -0.4741
vn -0.0531 0.5533 -0.8313
vn -0.0326 0.5544 -0.8316
vn 0.8819 -0.4687 0.0503
vn 0.8817 -0.4676 0.0637
vn 0.8543 0.5160 0.0624
vn 0.8544 0.5173 0.0482
usemtl tiny_treats_1
s 1
f 11/1/1 34/2/2 28/3/3 6/4/4
f 35/5/5 9/6/6 2/7/7 26/8/8
f 14/9/9 4/10/10 32/11/11 37/12/12
f 15/13/13 10/14/14 4/15/15 14/16/16
f 20/17/17 48/18/18 55/19/19 19/20/20
f 1/21/21 30/22/22 33/23/23 9/24/24
f 34/2/2 12/25/25 8/26/26 28/3/3
f 9/24/24 33/23/23 29/27/27 2/28/28
f 32/11/11 8/26/29 13/29/30 37/12/12
f 33/23/23 11/1/1 6/4/4 29/27/27
f 39/30/31 57/31/32 45/32/33 24/33/34
f 3/34/35 31/35/36 40/36/37 25/37/38
f 25/37/38 40/36/37 30/22/22 1/21/21
f 40/36/37 27/38/39 5/39/40 30/22/22
f 31/35/36 7/40/41 27/38/39 40/36/37
f 31/35/36 3/34/35 17/41/42 36/42/43
f 17/43/44 3/44/45 10/14/14 15/13/13
f 2/28/28 29/27/27 41/45/46 26/46/47
f 26/46/47 41/45/46 32/11/11 4/10/10
f 41/45/46 28/3/3 8/26/29 32/11/11
f 29/27/27 6/4/4 28/3/3 41/45/46
f 30/22/22 5/39/40 11/1/1 33/23/23
f 5/39/40 27/38/39 34/2/2 11/1/1
f 27/38/39 7/40/48 12/25/25 34/2/2
f 10/14/14 3/44/45 25/47/49 35/5/5
f 7/40/41 31/35/36 36/42/43 16/48/50
f 25/47/49 1/49/51 9/6/6 35/5/5
f 18/50/52 51/51/52 44/52/53 13/53/54
f 21/54/55 47/55/56 57/31/32 39/30/31
f 19/20/20 55/19/19 47/55/56 21/54/55
f 16/56/57 42/57/58 51/51/52 18/50/52
f 13/53/54 44/52/53 54/58/59 37/59/60
f 13/29/61 8/26/26 12/25/25 18/60/62
f 18/60/62 12/25/25 7/40/48 16/48/63
f 4/15/15 10/14/14 35/5/5 26/8/8
f 37/59/60 54/58/59 46/61/64 14/16/65
f 65/62/66 57/63/67 47/64/68 60/65/69
f 60/66/70 47/67/71 55/68/72 63/69/73
f 62/70/74 59/71/75 44/72/76 51/73/77
f 65/62/66 59/71/75 45/74/78 57/63/67
f 64/75/79 58/76/80 42/77/81 53/78/82
f 63/69/73 55/68/72 48/79/83 61/80/84
f 58/76/80 62/70/74 51/73/77 42/77/85
f 64/75/79 61/81/86 48/82/87 56/83/88
f 15/84/89 52/85/89 49/86/90 17/87/91
f 36/88/92 53/89/93 42/57/58 16/56/57
f 24/33/34 45/32/33 50/90/94 22/91/95
f 23/92/96 43/93/97 56/94/98 38/95/99
f 17/43/91 49/96/90 53/89/93 36/88/92
f 22/91/95 50/90/94 43/93/97 23/92/96
f 38/95/99 56/94/98 48/18/18 20/17/17
f 14/97/65 46/98/64 52/85/89 15/84/89
f 53/78/82 49/99/100 61/81/86 64/75/79
f 43/100/101 50/101/102 62/70/74 58/76/80
f 52/102/103 63/69/73 61/80/84 49/96/104
f 56/83/88 43/100/101 58/76/80 64/75/79
f 54/103/105 44/72/106 59/71/75 65/62/66
f 50/101/102 45/74/78 59/71/75 62/70/74
f 46/61/107 60/66/70 63/69/73 52/102/103
f 54/103/105 65/62/66 60/65/69 46/104/108
f 78/105/109 80/106/110 74/107/111 66/108/112
f 115/109/113 105/110/114 67/111/115 78/112/116
f 87/113/117 111/114/117 106/115/117 85/116/117
f 79/117/118 71/118/119 85/119/120 88/120/121
f 99/121/122 79/122/123 70/123/124 91/124/125
f 70/125/126 84/126/126 86/127/126 72/128/126
f 86/129/127 109/130/127 118/131/127 89/132/127
f 66/133/126 74/134/126 77/135/126 68/136/126
f 69/137/117 76/138/117 75/139/117 67/140/117
f 83/141/128 39/142/129 24/143/130 76/138/131
f 82/144/127 83/141/128 76/138/131 69/137/127
f 77/135/126 19/145/126 21/146/126
f 80/106/110 38/147/132 20/148/133 74/107/111
f 75/139/117 22/149/117 23/150/117
f 89/132/127 87/113/127 73/151/134 81/152/135
f 108/153/126 103/154/126 66/133/126 68/136/126
f 67/111/115 75/155/136 80/156/110 78/112/116
f 95/157/117 94/158/117 96/159/117 97/160/117
f 75/155/136 23/161/137 38/162/132 80/156/110
f 73/151/117 87/113/117 85/116/117 71/163/117
f 94/164/138 71/118/119 79/117/118 99/165/139
f 98/166/140 81/152/135 73/151/134 95/157/141
f 76/138/117 22/149/117 75/139/117
f 24/143/117 22/149/117 76/138/117
f 74/134/126 19/145/126 77/135/126
f 20/167/126 19/145/126 74/134/126
f 68/168/127 77/169/142 83/141/128 82/144/127
f 72/170/143 86/129/127 89/132/127 81/152/135
f 77/169/142 21/171/144 39/142/129 83/141/128
f 103/172/145 115/173/146 78/105/109 66/108/112
f 114/174/147 88/120/121 85/119/120 106/175/148
f 84/176/149 88/177/150 114/178/151 102/179/152
f 117/180/127 108/181/127 68/168/127 82/144/127
f 89/132/127 118/131/127 111/114/127 87/113/127
f 112/182/127 117/180/127 82/144/127 69/137/127
f 84/176/149 70/123/124 79/122/123 88/177/150
f 91/183/126 90/184/126 92/185/126 93/186/126
f 90/187/153 98/166/140 100/188/154 92/189/155
f 92/189/155 100/188/154 101/190/156 93/191/157
f 93/191/157 101/190/156 99/121/122 91/124/125
f 98/166/140 95/157/141 97/192/158 100/188/154
f 100/188/154 97/192/158 96/193/159 101/194/160
f 101/194/160 96/193/159 94/164/138 99/165/139
f 90/187/153 72/170/143 81/152/135 98/166/140
f 73/151/117 71/163/117 94/158/117 95/157/117
f 70/125/126 72/128/126 90/184/126 91/183/126
f 105/195/117 112/182/117 69/137/117 67/140/117
f 112/182/117 105/195/117 107/196/117 113/197/117
f 113/197/117 107/196/117 106/115/117 111/114/117
f 103/154/126 108/153/126 110/198/126 104/199/126
f 104/199/126 110/198/126 109/200/126 102/201/126
f 102/179/152 114/178/151 116/202/161 104/203/162
f 104/203/162 116/202/161 115/173/146 103/172/145
f 108/181/127 117/180/127 119/204/127 110/205/127
f 110/205/127 119/204/127 118/131/127 109/130/127
f 114/174/147 106/175/148 107/206/163 116/207/164
f 116/207/164 107/206/163 105/110/114 115/109/113
f 117/180/127 112/182/127 113/197/127 119/204/127
f 119/204/127 113/197/127 111/114/127 118/131/127
f 84/126/126 102/201/126 109/200/126 86/127/126
