# Blender v3.4.1 OBJ File: 'Tiny_Treats_Pleasant_Picnic_ASSETS_EXPORT.blend'
# www.blender.org
mtllib picnic_basket_square_picnic_basket_lid_left.mtl
o picnic_basket_lid_left
v -0.491777 0.623149 0.322377
v -0.479677 0.623149 0.334477
v -0.479677 0.635249 0.322377
v -0.479677 0.623149 -0.334477
v -0.491777 0.623149 -0.322377
v -0.479677 0.635249 -0.322377
v -0.024201 0.623149 -0.334477
v -0.024201 0.635249 -0.322377
v -0.024201 0.623149 0.334477
v -0.024201 0.635249 0.322377
v -0.024201 0.586849 -0.334477
v -0.024201 0.574749 -0.322377
v -0.479677 0.586849 -0.334477
v -0.479677 0.574749 -0.322377
v -0.491777 0.586849 -0.322377
v -0.491777 0.586849 0.322377
v -0.479677 0.574749 0.322377
v -0.479677 0.586849 0.334477
v -0.024201 0.586849 0.334477
v -0.024201 0.574749 0.322377
v -0.251939 0.623149 -0.334477
v -0.327852 0.635249 -0.322377
v -0.176027 0.635249 -0.322377
v -0.251939 0.623149 0.334477
v -0.176027 0.635249 0.322377
v -0.327852 0.635249 0.322377
v -0.251939 0.574749 -0.322377
v -0.251939 0.586849 -0.334477
v -0.251939 0.574749 0.322377
v -0.251939 0.586849 0.334477
v -0.491777 0.623149 0.000000
v -0.479677 0.635249 0.161189
v -0.479677 0.635249 0.000000
v -0.479677 0.635249 -0.161189
v -0.479677 0.574749 0.000000
v -0.491777 0.586849 0.000000
v -0.024201 0.635249 0.161189
v -0.024201 0.635249 0.000000
v -0.024201 0.635249 -0.161189
v -0.024201 0.574749 0.000000
v -0.176027 0.635249 -0.161189
v -0.176027 0.635249 0.000000
v -0.176027 0.635249 0.161189
v -0.327852 0.635249 -0.161189
v -0.327852 0.635249 0.000000
v -0.327852 0.635249 0.161189
v -0.251939 0.574749 0.000000
v -0.327852 0.671549 0.000000
v -0.479677 0.671549 -0.161189
v -0.176027 0.671549 0.000000
v -0.024201 0.671549 -0.161189
v -0.327852 0.671549 0.161189
v -0.479677 0.671549 0.000000
v -0.176027 0.671549 0.161189
v -0.024201 0.671549 0.000000
v -0.176027 0.671549 -0.161189
v -0.176027 0.671549 0.000000
v -0.327852 0.671549 -0.161189
v -0.327852 0.671549 0.000000
vt 0.676217 0.882224
vt 0.651697 0.882224
vt 0.651697 0.876362
vt 0.676217 0.876362
vt 0.676217 0.843158
vt 0.676217 0.843158
vt 0.651697 0.843158
vt 0.651697 0.843158
vt 0.676217 0.884179
vt 0.651697 0.884179
vt 0.651697 0.884179
vt 0.676217 0.884179
vt 0.700737 0.882224
vt 0.725256 0.882224
vt 0.725256 0.876362
vt 0.700737 0.876362
vt 0.725256 0.884179
vt 0.725256 0.884179
vt 0.725256 0.874408
vt 0.725256 0.874408
vt 0.649743 0.882224
vt 0.651697 0.882224
vt 0.649743 0.882224
vt 0.651697 0.884179
vt 0.651697 0.845112
vt 0.649743 0.845112
vt 0.649743 0.845112
vt 0.651697 0.843158
vt 0.651697 0.845112
vt 0.676217 0.882224
vt 0.676217 0.884179
vt 0.649743 0.882224
vt 0.700737 0.882224
vt 0.725256 0.882224
vt 0.700737 0.884179
vt 0.676217 0.845112
vt 0.649743 0.876362
vt 0.649743 0.876362
vt 0.700737 0.843158
vt 0.725256 0.843158
vt 0.725256 0.845112
vt 0.700737 0.845112
vt 0.725256 0.876362
vt 0.725256 0.884179
vt 0.725256 0.874408
vt 0.651697 0.876362
vt 0.649743 0.876362
vt 0.649743 0.845112
vt 0.676217 0.843158
vt 0.676217 0.845112
vt 0.725256 0.843158
vt 0.700737 0.843158
vt 0.700737 0.845112
vt 0.725256 0.845112
vt 0.700737 0.884179
vt 0.676217 0.876362
vt 0.700737 0.884179
vt 0.676217 0.884179
vt 0.676217 0.890041
vt 0.676217 0.890041
vt 0.700737 0.876362
vt 0.676217 0.884179
vt 0.700737 0.884179
vt 0.700737 0.890041
vt 0.651697 0.884179
vt 0.651697 0.890041
vt 0.700737 0.921291
vt 0.676217 0.921291
vt 0.676217 0.921291
vt 0.700737 0.921291
vt 0.700737 0.890041
vt 0.725256 0.843158
vt 0.700737 0.843158
vt 0.651697 0.884179
vt 0.725256 0.884179
vt 0.725256 0.884179
vt 0.700737 0.884179
vt 0.700737 0.890041
vt 0.725256 0.890041
vt 0.676217 0.890041
vt 0.651697 0.921291
vt 0.676217 0.921291
vt 0.725256 0.921291
vt 0.700737 0.921291
vt 0.700737 0.921291
vt 0.725256 0.921291
vt 0.676217 0.921291
vt 0.651697 0.921291
vt 0.700737 0.890041
vt 0.651697 0.890041
vt 0.725256 0.890041
vt 0.676217 0.890041
vn 0.0000 0.3827 0.9239
vn -0.3416 0.3416 0.8756
vn -0.3416 -0.3416 0.8756
vn 0.0000 -0.3827 0.9239
vn 0.0000 -0.9239 -0.3827
vn 0.0000 -1.0000 0.0000
vn -0.3827 -0.9239 0.0000
vn -0.3416 -0.8756 -0.3416
vn 0.0000 0.9939 0.1105
vn -0.4163 0.9073 0.0588
vn -0.3416 0.8756 0.3416
vn 0.0000 0.9008 0.4342
vn 0.0000 0.3827 -0.9239
vn 0.0000 -0.3827 -0.9239
vn 1.0000 0.0000 0.0000
vn -0.8756 0.3416 0.3416
vn -0.3416 0.3416 -0.8756
vn -0.8756 0.3416 -0.3416
vn -0.3728 0.8389 -0.3966
vn -0.3416 -0.3416 -0.8756
vn -0.8756 -0.3416 -0.3416
vn -0.8756 -0.3416 0.3416
vn -0.3416 -0.8756 0.3416
vn 0.0000 0.9008 -0.4342
vn -0.9239 0.3827 0.0000
vn 0.0000 0.9239 0.3827
vn -0.9239 -0.3827 0.0000
vn 0.0000 -0.9239 0.3827
vn 0.0000 0.8759 -0.4825
vn -1.0000 0.0000 0.0000
vn 0.0000 0.9939 -0.1105
usemtl tiny_treats_1
s 1
f 24/1/1 2/2/2 18/3/3 30/4/4
f 27/5/5 47/6/6 35/7/7 14/8/8
f 46/9/9 32/10/10 3/11/11 26/12/12
f 21/13/13 7/14/13 11/15/14 28/16/14
f 37/17/15 10/18/15 20/19/15 40/20/15
f 1/21/16 2/2/2 3/11/11
f 4/22/17 5/23/18 6/24/19
f 13/25/20 14/8/8 15/26/21
f 16/27/22 17/28/23 18/29/3
f 21/30/13 4/22/17 6/24/19 22/31/24
f 31/32/25 1/21/16 3/11/11 32/10/10
f 24/33/1 9/34/1 10/18/26 25/35/12
f 27/5/5 14/8/8 13/25/20 28/36/14
f 31/32/25 36/37/27 16/38/22 1/21/16
f 29/39/28 20/40/28 19/41/4 30/42/4
f 9/34/15 19/43/15 20/19/15 10/18/15
f 11/15/15 7/14/15 8/44/15 12/45/15
f 4/22/17 13/46/20 15/47/21 5/23/18
f 18/3/3 2/2/2 1/21/16 16/38/22
f 14/8/8 35/7/7 36/48/27 15/26/21
f 17/28/23 29/49/28 30/50/4 18/29/3
f 12/51/5 27/52/5 28/53/14 11/54/14
f 2/2/2 24/1/1 26/12/12 3/11/11
f 24/33/1 25/35/12 26/12/12
f 7/14/13 21/13/13 23/55/24 8/44/29
f 21/30/13 22/31/24 23/55/24
f 4/22/17 21/30/13 28/56/14 13/46/20
f 37/17/9 43/57/9 25/35/12 10/18/26
f 45/58/30 46/9/30 52/59/30 48/60/30
f 15/47/21 36/37/27 31/32/25 5/23/18
f 9/34/1 24/33/1 30/61/4 19/43/4
f 23/55/24 22/31/24 44/62/31 41/63/31
f 25/35/15 43/57/15 54/64/15
f 33/65/25 32/10/10 53/66/30
f 50/67/31 48/68/31 52/69/9 54/70/9
f 23/55/30 41/63/30 56/71/30
f 40/72/6 47/73/6 27/52/5 12/51/5
f 35/7/7 17/28/23 16/27/22 36/48/27
f 5/23/18 31/32/25 34/74/25 6/24/19
f 31/32/25 33/65/25 34/74/25
f 31/32/25 32/10/10 33/65/25
f 8/44/15 39/75/15 40/20/15 12/45/15
f 39/75/15 38/76/15 40/20/15
f 38/76/15 37/17/15 40/20/15
f 42/77/15 41/63/15 50/78/15
f 39/75/15 8/44/15 51/79/15
f 46/9/15 45/58/15 59/80/15
f 29/39/28 47/73/6 40/72/6 20/40/28
f 22/31/24 6/24/19 49/81/31 58/82/31
f 51/83/31 56/84/31 57/85/9 55/86/9
f 32/10/10 46/9/9 59/87/9 53/88/9
f 43/57/9 37/17/9 55/86/9 57/85/9
f 58/82/31 49/81/31 53/88/9 59/87/9
f 26/12/12 25/35/12 54/70/9 52/69/9
f 41/63/30 42/77/30 57/89/30 56/71/30
f 34/74/25 33/65/25 53/66/30 49/90/30
f 6/24/19 34/74/25 49/90/30
f 42/77/30 43/57/30 57/89/30
f 37/17/15 38/76/15 55/91/15
f 44/62/15 22/31/15 58/92/15
f 38/76/15 39/75/15 51/79/15 55/91/15
f 45/58/15 44/62/15 58/92/15 59/80/15
f 8/44/29 23/55/24 56/84/31 51/83/31
f 46/9/30 26/12/30 52/59/30
f 44/62/30 45/58/30 48/60/30
f 43/57/15 42/77/15 50/78/15 54/64/15
f 41/63/31 44/62/31 48/68/31 50/67/31
f 47/6/6 29/49/28 17/28/23 35/7/7
