# Blender v3.4.1 OBJ File: 'Tiny_Treats_Pleasant_Picnic_ASSETS_EXPORT.blend'
# www.blender.org
mtllib picnic_blanket_blue.mtl
o picnic_blanket_blue
v -1.970361 -0.000000 1.975791
v -1.855766 -0.000000 -1.944889
v 1.967097 -0.000000 1.978695
v 1.879878 -0.000000 -1.949610
v -0.652360 -0.000000 1.881547
v 0.663732 -0.000000 1.881874
v 0.631548 -0.000000 -1.958378
v -0.560720 -0.000000 -1.948653
v -1.955096 -0.000000 0.661875
v -1.874586 -0.000000 -0.627178
v 1.859490 -0.000000 -0.622458
v 1.879878 -0.000000 0.677544
v 0.617374 -0.000000 0.585670
v 0.563536 -0.000000 -0.641672
v -0.652531 -0.000000 0.578147
v -0.626693 -0.000000 -0.649113
v 0.035969 -0.000000 -1.953952
v -1.196766 -0.000000 -1.944889
v 0.006637 -0.000000 1.859517
v 1.313211 -0.000000 1.931166
v 1.237773 -0.000000 -1.953522
v -1.311361 -0.000000 1.929417
v -1.915480 -0.000000 0.020410
v -1.855766 -0.000000 -1.283674
v 1.924179 -0.000000 1.325048
v -1.970361 -0.000000 1.314470
v 0.588694 -0.000000 -1.289517
v -0.587479 -0.000000 -1.288764
v 1.859490 -0.000000 -1.283674
v 1.859490 -0.000000 0.033522
v 0.642926 -0.000000 1.224356
v 0.578773 -0.000000 -0.026184
v -0.652360 -0.000000 1.220218
v -0.643639 -0.000000 -0.034930
v -1.300816 -0.000000 0.620797
v -1.231185 -0.000000 -0.634639
v 1.237773 -0.000000 0.632647
v 1.200489 -0.000000 -0.626832
v -0.016070 -0.000000 0.564106
v -0.033379 -0.000000 -0.650733
v -0.039965 -0.000000 -0.043409
v 0.004735 -0.000000 1.198741
v 1.220878 -0.000000 0.003829
v 1.276375 -0.000000 1.275741
v -1.215586 -0.000000 -1.288394
v -1.311361 -0.000000 1.268052
v 1.220878 -0.000000 -1.288394
v -1.266814 -0.000000 -0.005899
v -0.000272 -0.000000 -1.289330
v -1.970361 -0.100000 1.975791
v -1.855766 -0.100000 -1.944889
v 1.967097 -0.100000 1.978695
v -0.652360 -0.100000 1.881547
v 0.663732 -0.100000 1.881874
v 0.631548 -0.100000 -1.958378
v -0.560720 -0.100000 -1.948653
v -1.955096 -0.100000 0.661875
v -1.874586 -0.100000 -0.627178
v 1.859490 -0.100000 -0.622458
v 1.879878 -0.100000 0.677544
v 0.035969 -0.100000 -1.953952
v -1.196766 -0.100000 -1.944889
v 0.006637 -0.100000 1.859517
v -1.915480 -0.100000 0.020410
v 1.859490 -0.100000 -1.283674
v 1.859490 -0.100000 0.033522
v 1.879878 -0.100000 -1.949610
v 0.617374 -0.100000 0.585670
v 0.563536 -0.100000 -0.641672
v -0.652531 -0.100000 0.578147
v -0.626693 -0.100000 -0.649113
v 1.313211 -0.100000 1.931166
v 1.237773 -0.100000 -1.953522
v -1.311361 -0.100000 1.929417
v -1.855766 -0.100000 -1.283674
v 1.924179 -0.100000 1.325048
v -1.970361 -0.100000 1.314470
v 0.588694 -0.100000 -1.289517
v -0.587479 -0.100000 -1.288764
v 0.642926 -0.100000 1.224356
v 0.578773 -0.100000 -0.026184
v -0.652360 -0.100000 1.220218
v -0.643639 -0.100000 -0.034930
v -1.300816 -0.100000 0.620797
v -1.231185 -0.100000 -0.634639
v 1.237773 -0.100000 0.632647
v 1.200489 -0.100000 -0.626832
v -0.016070 -0.100000 0.564106
v -0.033379 -0.100000 -0.650733
v -0.039965 -0.100000 -0.043409
v 0.004735 -0.100000 1.198741
v 1.220878 -0.100000 0.003829
v 1.276375 -0.100000 1.275741
v -1.215586 -0.100000 -1.288394
v -1.311361 -0.100000 1.268052
v 1.220878 -0.100000 -1.288394
v -1.266814 -0.100000 -0.005899
v -0.000272 -0.100000 -1.289330
v 1.992955 -0.050000 2.004810
v -1.196874 -0.050000 -1.981701
v -0.560991 -0.050000 -1.985464
v -1.911236 -0.050000 -0.628872
v -1.991751 -0.050000 0.660304
v 0.035671 -0.050000 -1.990763
v 0.006626 -0.050000 1.896329
v -0.650424 -0.050000 1.918308
v 1.916521 -0.050000 0.675699
v -1.881709 -0.050000 -1.970919
v 0.661726 -0.050000 1.918631
v -1.995380 -0.050000 2.002716
v 1.896174 -0.050000 -1.283108
v 1.896178 -0.050000 -0.622458
v 1.896174 -0.050000 0.032938
v 0.631558 -0.050000 -1.995190
v -1.952096 -0.050000 0.018108
v 1.960785 -0.050000 1.322578
v -1.892451 -0.050000 -1.284203
v -2.007047 -0.050000 1.314038
v 1.310502 -0.050000 1.967877
v 1.238031 -0.050000 -1.990333
v 1.906294 -0.050000 -1.975157
v -1.308753 -0.050000 1.966136
vt 0.500000 0.500000
vt 1.000000 0.500000
vt 1.000000 1.000000
vt 0.500000 1.000000
vt 0.500000 0.500000
vt 1.000000 0.500000
vt 1.000000 1.000000
vt 0.500000 1.000000
vt 0.500000 0.500000
vt 1.000000 0.500000
vt 1.000000 1.000000
vt 0.500000 1.000000
vt 0.500000 0.500000
vt 1.000000 0.500000
vt 1.000000 1.000000
vt 0.500000 1.000000
vt 0.500000 0.500000
vt 1.000000 0.500000
vt 1.000000 1.000000
vt 0.500000 1.000000
vt 0.500000 0.500000
vt 1.000000 0.500000
vt 1.000000 1.000000
vt 0.500000 1.000000
vt 0.500000 0.500000
vt 1.000000 0.500000
vt 1.000000 1.000000
vt 0.500000 1.000000
vt 0.500000 0.500000
vt 1.000000 0.500000
vt 1.000000 1.000000
vt 0.500000 1.000000
vt 0.500000 0.500000
vt 1.000000 0.500000
vt 1.000000 1.000000
vt 0.500000 1.000000
vt 0.000000 0.500000
vt 0.000000 1.000000
vt 0.000000 0.000000
vt 0.500000 0.000000
vt 1.000000 0.000000
vt 0.000000 0.500000
vt 0.000000 1.000000
vt 0.000000 0.000000
vt 0.500000 0.000000
vt 1.000000 0.000000
vt 0.000000 0.500000
vt 0.000000 1.000000
vt 0.000000 0.000000
vt 0.500000 0.000000
vt 1.000000 0.000000
vt 0.000000 0.500000
vt 0.000000 1.000000
vt 0.000000 0.000000
vt 0.500000 0.000000
vt 1.000000 0.000000
vt 0.000000 0.500000
vt 0.000000 1.000000
vt 0.000000 0.000000
vt 0.500000 0.000000
vt 1.000000 0.000000
vt 0.000000 0.500000
vt 0.000000 1.000000
vt 0.000000 0.000000
vt 0.500000 0.000000
vt 1.000000 0.000000
vt 0.000000 0.500000
vt 0.000000 1.000000
vt 0.000000 0.000000
vt 0.500000 0.000000
vt 1.000000 0.000000
vt 0.000000 0.500000
vt 0.000000 1.000000
vt 0.000000 0.000000
vt 0.500000 0.000000
vt 1.000000 0.000000
vt 0.000000 0.500000
vt 0.000000 1.000000
vt 0.000000 0.000000
vt 0.500000 0.000000
vt 1.000000 0.000000
vt 1.000000 0.500000
vt 1.000000 0.000000
vt 1.000000 0.000000
vt 1.000000 0.500000
vt 0.500000 1.000000
vt 1.000000 1.000000
vt 1.000000 1.000000
vt 0.500000 1.000000
vt 0.000000 0.000000
vt 0.000000 0.500000
vt 0.000000 0.500000
vt 0.000000 0.000000
vt 0.000000 0.500000
vt 0.000000 1.000000
vt 0.000000 1.000000
vt 0.000000 0.500000
vt 0.000000 1.000000
vt 0.500000 1.000000
vt 0.500000 1.000000
vt 0.000000 1.000000
vt 0.500000 0.000000
vt 0.000000 0.000000
vt 0.000000 0.000000
vt 0.500000 0.000000
vt 1.000000 1.000000
vt 1.000000 1.000000
vt 0.000000 1.000000
vt 0.000000 1.000000
vt 0.500000 0.000000
vt 0.000000 0.000000
vt 0.000000 0.000000
vt 0.500000 0.000000
vt 0.000000 0.000000
vt 0.000000 0.000000
vt 1.000000 0.000000
vt 1.000000 0.000000
vt 0.500000 1.000000
vt 1.000000 1.000000
vt 1.000000 1.000000
vt 0.500000 1.000000
vt 1.000000 0.500000
vt 1.000000 0.000000
vt 1.000000 0.000000
vt 1.000000 0.500000
vt 0.500000 0.000000
vt 0.500000 0.000000
vt 1.000000 0.500000
vt 1.000000 0.000000
vt 1.000000 0.000000
vt 1.000000 0.500000
vt 0.000000 1.000000
vt 0.000000 1.000000
vt 0.000000 0.500000
vt 0.000000 1.000000
vt 0.000000 1.000000
vt 0.000000 0.500000
vt 1.000000 0.000000
vt 1.000000 0.000000
vt 1.000000 1.000000
vt 1.000000 1.000000
vt 1.000000 1.000000
vt 1.000000 1.000000
vt 0.000000 0.000000
vt 0.000000 0.000000
vt 0.500000 0.500000
vt 1.000000 0.500000
vt 0.500000 0.500000
vt 0.500000 1.000000
vt 1.000000 1.000000
vt 1.000000 0.500000
vt 0.500000 0.500000
vt 0.500000 0.500000
vt 0.500000 1.000000
vt 1.000000 1.000000
vt 1.000000 0.500000
vt 0.500000 0.500000
vt 1.000000 0.500000
vt 0.500000 0.500000
vt 0.500000 1.000000
vt 0.500000 0.500000
vt 0.500000 1.000000
vt 0.500000 0.500000
vt 0.500000 1.000000
vt 1.000000 1.000000
vt 1.000000 0.500000
vt 0.500000 0.500000
vt 0.500000 1.000000
vt 1.000000 1.000000
vt 1.000000 0.500000
vt 0.000000 0.500000
vt 0.000000 1.000000
vt 0.000000 0.000000
vt 0.500000 0.000000
vt 1.000000 0.000000
vt 0.000000 0.500000
vt 0.000000 1.000000
vt 0.000000 0.500000
vt 0.000000 1.000000
vt 0.000000 0.000000
vt 0.500000 0.000000
vt 0.000000 0.500000
vt 0.000000 1.000000
vt 0.500000 0.000000
vt 1.000000 0.000000
vt 0.000000 0.500000
vt 0.000000 0.000000
vt 0.500000 0.000000
vt 0.500000 0.000000
vt 1.000000 0.000000
vt 0.000000 0.500000
vt 0.000000 0.000000
vt 0.500000 0.000000
vt 1.000000 0.000000
vn 0.0000 1.0000 -0.0000
vn 0.0001 0.8915 -0.4529
vn -0.0037 0.8924 -0.4513
vn 0.4645 0.8855 0.0053
vn 0.3935 0.8377 -0.3786
vn 0.0053 0.8841 -0.4673
vn -0.0033 0.8926 -0.4508
vn -0.0033 0.8846 -0.4663
vn 0.4700 0.8822 -0.0292
vn 0.4471 0.8942 -0.0224
vn 0.4482 0.8939 -0.0071
vn 0.4519 0.8921 0.0000
vn 0.0236 0.8947 0.4461
vn -0.0001 0.8963 0.4434
vn -0.0245 0.8948 0.4457
vn -0.0325 0.8825 0.4691
vn 0.3835 0.8392 0.3855
vn -0.4642 0.8857 -0.0084
vn -0.3866 0.8376 -0.3860
vn -0.4475 0.8941 -0.0205
vn -0.4719 0.8817 -0.0033
vn -0.4558 0.8899 -0.0194
vn -0.3722 0.8382 0.3986
vn 0.0313 0.8834 0.4677
vn -0.4512 0.8920 -0.0282
vn 0.8290 -0.5569 -0.0515
vn 0.8522 -0.5210 -0.0479
vn 0.3835 -0.8392 0.3855
vn 0.4700 -0.8822 -0.0292
vn -0.0058 -0.5636 -0.8261
vn -0.0060 -0.5929 -0.8053
vn -0.0033 -0.8926 -0.4508
vn -0.0033 -0.8846 -0.4663
vn -0.8054 -0.5916 -0.0370
vn -0.8268 -0.5623 -0.0150
vn -0.4642 -0.8857 -0.0084
vn -0.4475 -0.8941 -0.0205
vn -0.8287 -0.5596 -0.0058
vn -0.8055 -0.5916 -0.0343
vn -0.4558 -0.8899 -0.0194
vn -0.4719 -0.8817 -0.0033
vn -0.0066 -0.5929 -0.8053
vn -0.0037 -0.8924 -0.4513
vn -0.0002 -0.5930 0.8052
vn 0.0426 -0.5929 0.8042
vn 0.0236 -0.8947 0.4461
vn -0.0001 -0.8963 0.4434
vn 0.8052 -0.5916 -0.0403
vn 0.4471 -0.8942 -0.0224
vn -0.0068 -0.5333 -0.8459
vn -0.3866 -0.8376 -0.3860
vn -0.0574 -0.5582 0.8277
vn -0.0442 -0.5929 0.8041
vn -0.0245 -0.8948 0.4457
vn -0.0325 -0.8825 0.4691
vn -0.8501 -0.5265 0.0073
vn -0.3722 -0.8382 0.3986
vn 0.0094 -0.5627 -0.8266
vn 0.0123 -0.5315 -0.8470
vn 0.3935 -0.8377 -0.3786
vn 0.0053 -0.8841 -0.4673
vn 0.8275 -0.5614 0.0095
vn 0.8063 -0.5916 0.0000
vn 0.4519 -0.8921 0.0000
vn 0.4645 -0.8855 0.0053
vn -0.0538 -0.5223 0.8511
vn 0.0554 -0.5609 0.8261
vn 0.0523 -0.5278 0.8477
vn 0.0313 -0.8834 0.4677
vn 0.8061 -0.5916 -0.0128
vn 0.4482 -0.8939 -0.0071
vn 0.0002 -0.5929 -0.8053
vn 0.0001 -0.8915 -0.4529
vn -0.8047 -0.5916 -0.0503
vn -0.4512 -0.8920 -0.0282
vn 0.8477 -0.5301 0.0190
vn -0.8467 -0.5321 -0.0067
vn 0.0000 -1.0000 0.0000
vn -0.8047 0.5916 -0.0503
vn -0.8055 0.5916 -0.0343
vn 0.0002 0.5929 -0.8053
vn -0.0066 0.5929 -0.8053
vn 0.8061 0.5916 -0.0128
vn 0.8063 0.5916 0.0000
vn -0.8467 0.5321 -0.0067
vn -0.8268 0.5623 -0.0150
vn 0.0554 0.5609 0.8261
vn 0.0426 0.5929 0.8042
vn 0.8275 0.5614 0.0095
vn 0.8477 0.5301 0.0190
vn -0.8054 0.5916 -0.0370
vn 0.0094 0.5627 -0.8266
vn 0.8052 0.5916 -0.0403
vn 0.0523 0.5278 0.8477
vn -0.0574 0.5582 0.8277
vn -0.0538 0.5223 0.8511
vn 0.0123 0.5315 -0.8470
vn -0.0002 0.5930 0.8052
vn -0.0442 0.5929 0.8041
vn -0.8287 0.5596 -0.0058
vn -0.8501 0.5265 0.0073
vn -0.0058 0.5636 -0.8261
vn -0.0068 0.5333 -0.8459
vn 0.8290 0.5569 -0.0515
vn -0.0060 0.5929 -0.8053
vn 0.8522 0.5210 -0.0479
usemtl tiny_treats_plaid_pattern_blue
s 1
f 49/1/1 27/2/1 7/3/2 17/4/3
f 48/5/1 34/6/1 16/7/1 36/8/1
f 47/9/1 29/10/4 4/11/5 21/12/6
f 46/13/1 33/14/1 15/15/1 35/16/1
f 45/17/1 28/18/1 8/19/7 18/20/8
f 44/21/1 25/22/9 12/23/10 37/24/1
f 43/25/1 30/26/11 11/27/12 38/28/1
f 42/29/1 31/30/1 13/31/1 39/32/1
f 41/33/1 32/34/1 14/35/1 40/36/1
f 34/37/1 41/33/1 40/36/1 16/38/1
f 15/39/1 39/40/1 41/33/1 34/37/1
f 39/40/1 13/41/1 32/34/1 41/33/1
f 33/42/1 42/29/1 39/32/1 15/43/1
f 5/44/13 19/45/14 42/29/1 33/42/1
f 19/45/14 6/46/15 31/30/1 42/29/1
f 32/47/1 43/25/1 38/28/1 14/48/1
f 13/49/1 37/50/1 43/25/1 32/47/1
f 37/50/1 12/51/10 30/26/11 43/25/1
f 31/52/1 44/21/1 37/24/1 13/53/1
f 6/54/15 20/55/16 44/21/1 31/52/1
f 20/55/16 3/56/17 25/22/9 44/21/1
f 24/57/18 45/17/1 18/20/8 2/58/19
f 10/59/20 36/60/1 45/17/1 24/57/18
f 36/60/1 16/61/1 28/18/1 45/17/1
f 26/62/21 46/13/1 35/16/1 9/63/22
f 1/64/23 22/65/24 46/13/1 26/62/21
f 22/65/24 5/66/13 33/14/1 46/13/1
f 27/67/1 47/9/1 21/12/6 7/68/2
f 14/69/1 38/70/1 47/9/1 27/67/1
f 38/70/1 11/71/12 29/10/4 47/9/1
f 23/72/25 48/5/1 36/8/1 10/73/20
f 9/74/22 35/75/1 48/5/1 23/72/25
f 35/75/1 15/76/1 34/6/1 48/5/1
f 28/77/1 49/1/1 17/4/3 8/78/7
f 16/79/1 40/80/1 49/1/1 28/77/1
f 40/80/1 14/81/1 27/2/1 49/1/1
f 116/82/26 99/83/27 52/84/28 76/85/29
f 100/86/30 101/87/31 56/88/32 62/89/33
f 102/90/34 117/91/35 75/92/36 58/93/37
f 118/94/38 103/95/39 57/96/40 77/97/41
f 101/98/31 104/99/42 61/100/43 56/101/32
f 105/102/44 106/103/45 53/104/46 63/105/47
f 107/106/48 116/82/26 76/85/29 60/107/49
f 108/108/50 100/86/30 62/89/33 51/109/51
f 119/110/52 109/111/53 54/112/54 72/113/55
f 110/114/56 118/94/38 77/97/41 50/115/57
f 109/116/53 105/102/44 63/105/47 54/117/54
f 120/118/58 121/119/59 67/120/60 73/121/61
f 111/122/62 112/123/63 59/124/64 65/125/65
f 99/83/66 119/110/52 72/113/55 52/84/28
f 122/126/67 110/114/68 50/115/57 74/127/69
f 113/128/70 107/129/48 60/130/49 66/131/71
f 114/132/72 120/118/58 73/121/61 55/133/73
f 115/134/74 102/135/34 58/136/37 64/137/75
f 121/119/76 111/122/62 65/125/65 67/120/60
f 106/138/45 122/126/67 74/127/69 53/139/46
f 117/91/35 108/108/77 51/109/51 75/92/36
f 112/140/63 113/128/70 66/131/71 59/141/64
f 104/99/42 114/142/72 55/143/73 61/100/43
f 103/144/39 115/134/74 64/137/75 57/145/40
f 98/146/78 61/100/43 55/143/73 78/147/78
f 97/148/78 85/149/78 71/150/78 83/151/78
f 96/152/78 73/121/61 67/120/60 65/125/65
f 95/153/78 84/154/78 70/155/78 82/156/78
f 94/157/78 62/89/33 56/88/32 79/158/78
f 93/159/78 86/160/78 60/107/49 76/85/29
f 92/161/78 87/162/78 59/141/64 66/131/71
f 91/163/78 88/164/78 68/165/78 80/166/78
f 90/167/78 89/168/78 69/169/78 81/170/78
f 83/171/78 71/172/78 89/168/78 90/167/78
f 70/173/78 83/171/78 90/167/78 88/174/78
f 88/174/78 90/167/78 81/170/78 68/175/78
f 82/176/78 70/177/78 88/164/78 91/163/78
f 53/104/46 82/176/78 91/163/78 63/105/47
f 63/105/47 91/163/78 80/166/78 54/117/54
f 81/178/78 69/179/78 87/162/78 92/161/78
f 68/180/78 81/178/78 92/161/78 86/181/78
f 86/181/78 92/161/78 66/131/71 60/130/49
f 80/182/78 68/183/78 86/160/78 93/159/78
f 54/112/54 80/182/78 93/159/78 72/113/55
f 72/113/55 93/159/78 76/85/29 52/84/28
f 75/92/36 51/109/51 62/89/33 94/157/78
f 58/93/37 75/92/36 94/157/78 85/184/78
f 85/184/78 94/157/78 79/158/78 71/185/78
f 77/97/41 57/96/40 84/154/78 95/153/78
f 50/115/57 77/97/41 95/153/78 74/127/69
f 74/127/69 95/153/78 82/156/78 53/139/46
f 78/186/78 55/133/73 73/121/61 96/152/78
f 69/187/78 78/186/78 96/152/78 87/188/78
f 87/188/78 96/152/78 65/125/65 59/124/64
f 64/137/75 58/136/37 85/149/78 97/148/78
f 57/145/40 64/137/75 97/148/78 84/189/78
f 84/189/78 97/148/78 83/151/78 70/190/78
f 79/191/78 56/101/32 61/100/43 98/146/78
f 71/192/78 79/191/78 98/146/78 89/193/78
f 89/193/78 98/146/78 78/147/78 69/194/78
f 9/74/22 23/72/25 115/134/79 103/144/80
f 17/4/3 7/3/2 114/142/81 104/99/82
f 11/27/12 30/26/11 113/128/83 112/140/84
f 24/57/18 2/58/19 108/108/85 117/91/86
f 5/66/13 22/65/24 122/126/87 106/138/88
f 4/11/5 29/10/4 111/122/89 121/119/90
f 23/72/25 10/73/20 102/135/91 115/134/79
f 7/68/2 21/12/6 120/118/92 114/132/81
f 30/26/11 12/51/10 107/129/93 113/128/83
f 22/65/24 1/64/23 110/114/94 122/126/87
f 3/56/17 20/55/16 119/110/95 99/83/96
f 29/10/4 11/71/12 112/123/84 111/122/89
f 21/12/6 4/11/5 121/119/97 120/118/92
f 6/46/15 19/45/14 105/102/98 109/116/99
f 1/64/23 26/62/21 118/94/100 110/114/101
f 20/55/16 6/54/15 109/111/99 119/110/95
f 2/58/19 18/20/8 100/86/102 108/108/103
f 12/23/10 25/22/9 116/82/104 107/106/93
f 19/45/14 5/44/13 106/103/88 105/102/98
f 8/78/7 17/4/3 104/99/82 101/98/105
f 26/62/21 9/63/22 103/95/80 118/94/100
f 10/59/20 24/57/18 117/91/86 102/90/91
f 18/20/8 8/19/7 101/87/105 100/86/102
f 25/22/9 3/56/17 99/83/106 116/82/104
