# Blender v3.4.1 OBJ File: 'Tiny_Treats_Pleasant_Picnic_ASSETS_EXPORT.blend'
# www.blender.org
mtllib pillow_large_red.mtl
o pillow_large_red
v -0.344328 0.000000 0.188736
v -0.344328 0.000000 -0.186287
v -0.466946 0.000000 0.001225
v 0.000000 0.339060 -0.179914
v 0.000000 0.339060 0.182364
v 0.000000 0.457442 0.001225
v 0.000000 0.000000 0.251225
v 0.000000 0.000000 -0.248775
v -0.403484 0.403050 0.137010
v -0.403484 0.403050 -0.134561
v -0.487745 0.489425 0.001225
v -0.436421 0.000000 0.105663
v -0.193151 0.000000 0.234438
v -0.436421 0.000000 -0.103213
v -0.193151 0.000000 -0.231989
v 0.000000 0.427390 -0.095269
v 0.000000 0.193698 -0.233344
v 0.000000 0.193698 0.235793
v 0.000000 0.427390 0.097719
v -0.410457 0.500000 0.001225
v -0.472012 0.473529 -0.076481
v -0.500000 0.411574 0.001225
v -0.472012 0.473529 0.078931
v -0.192476 0.361423 0.170676
v -0.369117 0.191178 0.176866
v -0.187088 0.469314 0.001225
v -0.478448 0.187304 0.001225
v -0.369117 0.191178 -0.174416
v -0.192476 0.361423 -0.168227
v -0.450916 0.183024 -0.098565
v -0.183127 0.441574 0.093720
v -0.450916 0.183024 0.101014
v -0.183127 0.441574 -0.091270
v -0.404084 0.480974 -0.078290
v -0.481194 0.405117 -0.080916
v -0.404084 0.480974 0.080739
v -0.481194 0.405117 0.083365
v -0.228596 0.225448 -0.210473
v -0.228596 0.225448 0.212922
v 0.000000 -0.339060 -0.179914
v 0.000000 -0.339060 0.182364
v 0.000000 -0.457442 0.001225
v -0.403484 -0.403050 0.137010
v -0.403484 -0.403050 -0.134561
v -0.487745 -0.489425 0.001225
v 0.000000 -0.427390 -0.095269
v 0.000000 -0.193698 -0.233344
v 0.000000 -0.193698 0.235793
v 0.000000 -0.427390 0.097719
v -0.410457 -0.500000 0.001225
v -0.472012 -0.473529 -0.076481
v -0.500000 -0.411574 0.001225
v -0.472012 -0.473529 0.078931
v -0.192476 -0.361423 0.170676
v -0.369117 -0.191178 0.176866
v -0.187088 -0.469314 0.001225
v -0.478448 -0.187304 0.001225
v -0.369117 -0.191178 -0.174416
v -0.192476 -0.361423 -0.168227
v -0.450916 -0.183024 -0.098565
v -0.183127 -0.441574 0.093720
v -0.450916 -0.183024 0.101014
v -0.183127 -0.441574 -0.091270
v -0.404084 -0.480974 -0.078290
v -0.481194 -0.405117 -0.080916
v -0.404084 -0.480974 0.080739
v -0.481194 -0.405117 0.083365
v -0.228596 -0.225448 -0.210473
v -0.228596 -0.225448 0.212922
v 0.344328 0.000000 0.188736
v 0.344328 0.000000 -0.186287
v 0.466946 0.000000 0.001225
v 0.403484 0.403050 0.137010
v 0.403484 0.403050 -0.134561
v 0.487745 0.489425 0.001225
v 0.436421 0.000000 0.105663
v 0.193151 0.000000 0.234438
v 0.436421 0.000000 -0.103213
v 0.193151 0.000000 -0.231989
v 0.410457 0.500000 0.001225
v 0.472012 0.473529 -0.076481
v 0.500000 0.411574 0.001225
v 0.472012 0.473529 0.078931
v 0.192476 0.361423 0.170676
v 0.369117 0.191178 0.176866
v 0.187088 0.469314 0.001225
v 0.478448 0.187304 0.001225
v 0.369117 0.191178 -0.174416
v 0.192476 0.361423 -0.168227
v 0.450916 0.183024 -0.098565
v 0.183127 0.441574 0.093720
v 0.450916 0.183024 0.101014
v 0.183127 0.441574 -0.091270
v 0.404084 0.480974 -0.078290
v 0.481194 0.405117 -0.080916
v 0.404084 0.480974 0.080739
v 0.481194 0.405117 0.083365
v 0.228596 0.225448 -0.210473
v 0.228596 0.225448 0.212922
v 0.403484 -0.403050 0.137010
v 0.403484 -0.403050 -0.134561
v 0.487745 -0.489425 0.001225
v 0.410457 -0.500000 0.001225
v 0.472012 -0.473529 -0.076481
v 0.500000 -0.411574 0.001225
v 0.472012 -0.473529 0.078931
v 0.192476 -0.361423 0.170676
v 0.369117 -0.191178 0.176866
v 0.187088 -0.469314 0.001225
v 0.478448 -0.187304 0.001225
v 0.369117 -0.191178 -0.174416
v 0.192476 -0.361423 -0.168227
v 0.450916 -0.183024 -0.098565
v 0.183127 -0.441574 0.093720
v 0.450916 -0.183024 0.101014
v 0.183127 -0.441574 -0.091270
v 0.404084 -0.480974 -0.078290
v 0.481194 -0.405117 -0.080916
v 0.404084 -0.480974 0.080739
v 0.481194 -0.405117 0.083365
v 0.228596 -0.225448 -0.210473
v 0.228596 -0.225448 0.212922
vt 0.033054 0.499999
vt 0.021552 0.687304
vt 0.049084 0.683024
vt 0.063579 0.499999
vt 0.316873 0.941574
vt 0.095916 0.980973
vt 0.096516 0.903050
vt 0.307524 0.861421
vt 0.000000 0.911574
vt 0.018806 0.905117
vt 0.130883 0.691178
vt 0.155672 0.499999
vt 0.130883 0.691178
vt 0.271404 0.725449
vt 0.096516 0.903050
vt 0.307524 0.861421
vt 0.271404 0.725449
vt 0.500000 0.957442
vt 0.312912 0.969313
vt 0.500000 0.927390
vt 0.018806 0.905117
vt 0.049084 0.683024
vt 0.089543 1.000000
vt 0.500000 0.839059
vt 0.063579 0.499999
vt 0.155672 0.499999
vt 0.500000 0.839059
vt 0.316873 0.941574
vt 0.500000 0.927390
vt 0.095916 0.980973
vt 0.027988 0.973528
vt 0.012255 0.989425
vt 0.027988 0.973528
vt 0.500000 0.499999
vt 0.306849 0.499999
vt 0.500000 0.693698
vt 0.500000 0.693698
vt 0.306849 0.499999
vt 0.500000 0.499999
vt 0.049084 0.316976
vt 0.021552 0.312696
vt 0.316873 0.058426
vt 0.307524 0.138577
vt 0.096516 0.096950
vt 0.095916 0.019025
vt 0.000000 0.088426
vt 0.018806 0.094883
vt 0.130883 0.308822
vt 0.271404 0.274551
vt 0.130883 0.308822
vt 0.096516 0.096950
vt 0.271404 0.274551
vt 0.307524 0.138577
vt 0.500000 0.042558
vt 0.500000 0.072610
vt 0.312912 0.030687
vt 0.018806 0.094883
vt 0.049084 0.316976
vt 0.089543 0.000000
vt 0.500000 0.160940
vt 0.500000 0.160940
vt 0.500000 0.072610
vt 0.316873 0.058426
vt 0.095916 0.019025
vt 0.027988 0.026472
vt 0.012255 0.010575
vt 0.027988 0.026472
vt 0.500000 0.306302
vt 0.500000 0.306302
vt 0.033054 0.499999
vt 0.063579 0.499999
vt 0.049084 0.683024
vt 0.021552 0.687304
vt 0.316873 0.941574
vt 0.307524 0.861421
vt 0.096516 0.903050
vt 0.095916 0.980973
vt 0.000000 0.911574
vt 0.018806 0.905117
vt 0.155672 0.499999
vt 0.130883 0.691178
vt 0.271404 0.725449
vt 0.130883 0.691178
vt 0.096516 0.903050
vt 0.271404 0.725449
vt 0.307524 0.861421
vt 0.312912 0.969313
vt 0.018806 0.905117
vt 0.049084 0.683024
vt 0.089543 1.000000
vt 0.063579 0.499999
vt 0.155672 0.499999
vt 0.316873 0.941574
vt 0.095916 0.980973
vt 0.027988 0.973528
vt 0.012255 0.989425
vt 0.027988 0.973528
vt 0.306849 0.499999
vt 0.306849 0.499999
vt 0.021552 0.312696
vt 0.049084 0.316976
vt 0.316873 0.058426
vt 0.095916 0.019025
vt 0.096516 0.096950
vt 0.307524 0.138577
vt 0.000000 0.088426
vt 0.018806 0.094883
vt 0.130883 0.308822
vt 0.130883 0.308822
vt 0.271404 0.274551
vt 0.096516 0.096950
vt 0.307524 0.138577
vt 0.271404 0.274551
vt 0.312912 0.030687
vt 0.018806 0.094883
vt 0.049084 0.316976
vt 0.089543 0.000000
vt 0.316873 0.058426
vt 0.095916 0.019025
vt 0.027988 0.026472
vt 0.012255 0.010575
vt 0.027988 0.026472
vn -1.0000 -0.0000 -0.0000
vn -0.9962 -0.0870 -0.0000
vn -0.8417 -0.0494 -0.5376
vn -0.8447 -0.0000 -0.5353
vn 0.0713 0.8413 0.5359
vn -0.0014 0.8470 0.5315
vn -0.3060 0.3403 0.8891
vn -0.0137 0.4997 0.8661
vn -0.9996 0.0293 0.0000
vn -0.8425 0.0425 -0.5370
vn -0.4713 0.0360 -0.8813
vn -0.4685 0.0000 -0.8835
vn -0.4713 0.0360 0.8813
vn -0.1525 0.1765 0.9724
vn -0.3060 0.3403 -0.8891
vn -0.0137 0.4997 -0.8661
vn -0.1525 0.1765 -0.9724
vn 0.0000 1.0000 0.0000
vn 0.1098 0.9940 -0.0000
vn 0.0000 0.8466 0.5322
vn -0.8425 0.0425 0.5370
vn -0.8417 -0.0494 0.5376
vn 0.0040 1.0000 -0.0000
vn 0.0000 0.5054 0.8629
vn -0.8447 -0.0000 0.5353
vn -0.4685 -0.0000 0.8835
vn 0.0000 0.5054 -0.8629
vn 0.0713 0.8413 -0.5359
vn 0.0000 0.8466 -0.5322
vn -0.0014 0.8470 -0.5315
vn -0.5815 0.6035 -0.5455
vn -0.1261 0.9920 -0.0000
vn -0.9884 0.1520 0.0000
vn -0.5815 0.6035 0.5455
vn 0.0000 0.0000 -1.0000
vn -0.1716 0.0000 -0.9852
vn -0.0000 0.1928 -0.9812
vn 0.0000 0.1928 0.9812
vn -0.1716 0.0000 0.9852
vn 0.0000 0.0000 1.0000
vn -0.8417 0.0494 -0.5376
vn -0.9962 0.0870 -0.0000
vn 0.0713 -0.8413 0.5359
vn -0.0137 -0.4997 0.8661
vn -0.3060 -0.3403 0.8891
vn -0.0014 -0.8470 0.5315
vn -0.9996 -0.0293 0.0000
vn -0.8425 -0.0425 -0.5370
vn -0.4713 -0.0360 -0.8813
vn -0.1525 -0.1765 0.9724
vn -0.4713 -0.0360 0.8813
vn -0.3060 -0.3403 -0.8891
vn -0.1525 -0.1765 -0.9724
vn -0.0137 -0.4997 -0.8661
vn 0.0000 -1.0000 0.0000
vn 0.0000 -0.8466 0.5322
vn 0.1098 -0.9940 -0.0000
vn -0.8425 -0.0425 0.5370
vn -0.8417 0.0494 0.5376
vn 0.0040 -1.0000 -0.0000
vn 0.0000 -0.5054 0.8629
vn -0.0000 -0.5054 -0.8629
vn -0.0000 -0.8466 -0.5322
vn 0.0713 -0.8413 -0.5359
vn -0.0014 -0.8470 -0.5315
vn -0.5815 -0.6035 -0.5455
vn -0.1261 -0.9920 -0.0000
vn -0.9884 -0.1520 0.0000
vn -0.5815 -0.6035 0.5455
vn 0.0000 -0.1928 -0.9812
vn 0.0000 -0.1928 0.9812
vn 1.0000 0.0000 -0.0000
vn 0.8447 0.0000 -0.5353
vn 0.8417 -0.0494 -0.5376
vn 0.9962 -0.0870 -0.0000
vn -0.0713 0.8413 0.5359
vn 0.0137 0.4997 0.8661
vn 0.3060 0.3403 0.8891
vn 0.0014 0.8470 0.5315
vn 0.9996 0.0293 0.0000
vn 0.8425 0.0425 -0.5370
vn 0.4685 -0.0000 -0.8835
vn 0.4713 0.0360 -0.8813
vn 0.1525 0.1765 0.9724
vn 0.4713 0.0360 0.8813
vn 0.3060 0.3403 -0.8891
vn 0.1525 0.1765 -0.9724
vn 0.0137 0.4997 -0.8661
vn -0.1098 0.9940 -0.0000
vn 0.8425 0.0425 0.5370
vn 0.8417 -0.0494 0.5376
vn -0.0040 1.0000 -0.0000
vn 0.8447 0.0000 0.5353
vn 0.4685 0.0000 0.8835
vn -0.0713 0.8413 -0.5359
vn 0.0014 0.8470 -0.5315
vn 0.5815 0.6035 -0.5455
vn 0.1261 0.9920 -0.0000
vn 0.9884 0.1520 0.0000
vn 0.5815 0.6035 0.5455
vn 0.1716 -0.0000 -0.9852
vn 0.1716 -0.0000 0.9852
vn 0.9962 0.0870 -0.0000
vn 0.8417 0.0494 -0.5376
vn -0.0713 -0.8413 0.5359
vn 0.0014 -0.8470 0.5315
vn 0.3060 -0.3403 0.8891
vn 0.0137 -0.4997 0.8661
vn 0.9996 -0.0293 0.0000
vn 0.8425 -0.0425 -0.5370
vn 0.4713 -0.0360 -0.8813
vn 0.4713 -0.0360 0.8813
vn 0.1525 -0.1765 0.9724
vn 0.3060 -0.3403 -0.8891
vn 0.0137 -0.4997 -0.8661
vn 0.1525 -0.1765 -0.9724
vn -0.1098 -0.9940 -0.0000
vn 0.8425 -0.0425 0.5370
vn 0.8417 0.0494 0.5376
vn -0.0040 -1.0000 -0.0000
vn -0.0713 -0.8413 -0.5359
vn 0.0014 -0.8470 -0.5315
vn 0.5815 -0.6035 -0.5455
vn 0.1261 -0.9920 -0.0000
vn 0.9884 -0.1520 0.0000
vn 0.5815 -0.6035 0.5455
usemtl tiny_treats_plaid_pattern_red
s 1
f 3/1/1 27/2/2 30/3/3 14/4/4
f 31/5/5 36/6/6 9/7/7 24/8/8
f 22/9/9 35/10/10 30/3/3 27/2/2
f 14/4/4 30/3/3 28/11/11 2/12/12
f 9/7/7 25/13/13 39/14/14
f 9/7/7 39/14/14 24/8/8
f 10/15/15 29/16/16 38/17/17
f 6/18/18 26/19/19 31/5/5 19/20/20
f 37/21/21 22/9/9 27/2/2 32/22/22
f 20/23/23 36/6/6 31/5/5 26/19/19
f 19/20/20 31/5/5 24/8/8 5/24/24
f 10/15/15 38/17/17 28/11/11
f 9/7/7 37/21/21 32/22/22 25/13/13
f 32/22/22 27/2/2 3/1/1 12/25/25
f 25/13/13 32/22/22 12/25/25 1/26/26
f 4/27/27 29/16/16 33/28/28 16/29/29
f 35/10/10 10/15/15 28/11/11 30/3/3
f 10/15/15 34/30/30 33/28/28 29/16/16
f 16/29/29 33/28/28 26/19/19 6/18/18
f 34/30/30 10/15/15 21/31/31
f 20/23/23 34/30/30 21/31/31 11/32/32
f 11/32/33 21/31/31 35/10/10 22/9/9
f 21/31/31 10/15/15 35/10/10
f 36/6/6 20/23/23 11/32/32 23/33/34
f 9/7/7 36/6/6 23/33/34
f 9/7/7 23/33/34 37/21/21
f 23/33/34 11/32/33 22/9/9 37/21/21
f 8/34/35 15/35/36 38/17/17 17/36/37
f 2/12/12 28/11/11 38/17/17 15/35/36
f 4/27/27 17/36/37 38/17/17 29/16/16
f 5/24/24 24/8/8 39/14/14 18/37/38
f 1/26/26 13/38/39 39/14/14 25/13/13
f 7/39/40 18/37/38 39/14/14 13/38/39
f 33/28/28 34/30/30 20/23/23 26/19/19
f 3/1/1 14/4/4 60/40/41 57/41/42
f 61/42/43 54/43/44 43/44/45 66/45/46
f 52/46/47 57/41/42 60/40/41 65/47/48
f 14/4/4 2/12/12 58/48/49 60/40/41
f 43/44/45 69/49/50 55/50/51
f 43/44/45 54/43/44 69/49/50
f 44/51/52 68/52/53 59/53/54
f 42/54/55 49/55/56 61/42/43 56/56/57
f 67/57/58 62/58/59 57/41/42 52/46/47
f 50/59/60 56/56/57 61/42/43 66/45/46
f 49/55/56 41/60/61 54/43/44 61/42/43
f 44/51/52 58/48/49 68/52/53
f 43/44/45 55/50/51 62/58/59 67/57/58
f 62/58/59 12/25/25 3/1/1 57/41/42
f 55/50/51 1/26/26 12/25/25 62/58/59
f 40/61/62 46/62/63 63/63/64 59/53/54
f 65/47/48 60/40/41 58/48/49 44/51/52
f 44/51/52 59/53/54 63/63/64 64/64/65
f 46/62/63 42/54/55 56/56/57 63/63/64
f 64/64/65 51/65/66 44/51/52
f 50/59/60 45/66/67 51/65/66 64/64/65
f 45/66/68 52/46/47 65/47/48 51/65/66
f 51/65/66 65/47/48 44/51/52
f 66/45/46 53/67/69 45/66/67 50/59/60
f 43/44/45 53/67/69 66/45/46
f 43/44/45 67/57/58 53/67/69
f 53/67/69 67/57/58 52/46/47 45/66/68
f 8/34/35 47/68/70 68/52/53 15/35/36
f 2/12/12 15/35/36 68/52/53 58/48/49
f 40/61/62 59/53/54 68/52/53 47/68/70
f 41/60/61 48/69/71 69/49/50 54/43/44
f 1/26/26 55/50/51 69/49/50 13/38/39
f 7/39/40 13/38/39 69/49/50 48/69/71
f 63/63/64 56/56/57 50/59/60 64/64/65
f 72/70/72 78/71/73 90/72/74 87/73/75
f 91/74/76 84/75/77 73/76/78 96/77/79
f 82/78/80 87/73/75 90/72/74 95/79/81
f 78/71/73 71/80/82 88/81/83 90/72/74
f 73/76/78 99/82/84 85/83/85
f 73/76/78 84/75/77 99/82/84
f 74/84/86 98/85/87 89/86/88
f 6/18/18 19/20/20 91/74/76 86/87/89
f 97/88/90 92/89/91 87/73/75 82/78/80
f 80/90/92 86/87/89 91/74/76 96/77/79
f 19/20/20 5/24/24 84/75/77 91/74/76
f 74/84/86 88/81/83 98/85/87
f 73/76/78 85/83/85 92/89/91 97/88/90
f 92/89/91 76/91/93 72/70/72 87/73/75
f 85/83/85 70/92/94 76/91/93 92/89/91
f 4/27/27 16/29/29 93/93/95 89/86/88
f 95/79/81 90/72/74 88/81/83 74/84/86
f 74/84/86 89/86/88 93/93/95 94/94/96
f 16/29/29 6/18/18 86/87/89 93/93/95
f 94/94/96 81/95/97 74/84/86
f 80/90/92 75/96/98 81/95/97 94/94/96
f 75/96/99 82/78/80 95/79/81 81/95/97
f 81/95/97 95/79/81 74/84/86
f 96/77/79 83/97/100 75/96/98 80/90/92
f 73/76/78 83/97/100 96/77/79
f 73/76/78 97/88/90 83/97/100
f 83/97/100 97/88/90 82/78/80 75/96/99
f 8/34/35 17/36/37 98/85/87 79/98/101
f 71/80/82 79/98/101 98/85/87 88/81/83
f 4/27/27 89/86/88 98/85/87 17/36/37
f 5/24/24 18/37/38 99/82/84 84/75/77
f 70/92/94 85/83/85 99/82/84 77/99/102
f 7/39/40 77/99/102 99/82/84 18/37/38
f 93/93/95 86/87/89 80/90/92 94/94/96
f 72/70/72 110/100/103 113/101/104 78/71/73
f 114/102/105 119/103/106 100/104/107 107/105/108
f 105/106/109 118/107/110 113/101/104 110/100/103
f 78/71/73 113/101/104 111/108/111 71/80/82
f 100/104/107 108/109/112 122/110/113
f 100/104/107 122/110/113 107/105/108
f 101/111/114 112/112/115 121/113/116
f 42/54/55 109/114/117 114/102/105 49/55/56
f 120/115/118 105/106/109 110/100/103 115/116/119
f 103/117/120 119/103/106 114/102/105 109/114/117
f 49/55/56 114/102/105 107/105/108 41/60/61
f 101/111/114 121/113/116 111/108/111
f 100/104/107 120/115/118 115/116/119 108/109/112
f 115/116/119 110/100/103 72/70/72 76/91/93
f 108/109/112 115/116/119 76/91/93 70/92/94
f 40/61/62 112/112/115 116/118/121 46/62/63
f 118/107/110 101/111/114 111/108/111 113/101/104
f 101/111/114 117/119/122 116/118/121 112/112/115
f 46/62/63 116/118/121 109/114/117 42/54/55
f 117/119/122 101/111/114 104/120/123
f 103/117/120 117/119/122 104/120/123 102/121/124
f 102/121/125 104/120/123 118/107/110 105/106/109
f 104/120/123 101/111/114 118/107/110
f 119/103/106 103/117/120 102/121/124 106/122/126
f 100/104/107 119/103/106 106/122/126
f 100/104/107 106/122/126 120/115/118
f 106/122/126 102/121/125 105/106/109 120/115/118
f 8/34/35 79/98/101 121/113/116 47/68/70
f 71/80/82 111/108/111 121/113/116 79/98/101
f 40/61/62 47/68/70 121/113/116 112/112/115
f 41/60/61 107/105/108 122/110/113 48/69/71
f 70/92/94 77/99/102 122/110/113 108/109/112
f 7/39/40 48/69/71 122/110/113 77/99/102
f 116/118/121 117/119/122 103/117/120 109/114/117
