# Blender v3.4.1 OBJ File: 'Tiny_Treats_Pleasant_Picnic_ASSETS_EXPORT.blend'
# www.blender.org
mtllib plate_A.mtl
o plate_A
v 0.059761 0.040000 -0.300438
v 0.054701 0.100000 -0.275000
v 0.170185 0.040000 -0.254699
v 0.155775 0.100000 -0.233134
v 0.254699 0.040000 -0.170185
v 0.233134 0.100000 -0.155775
v 0.300438 0.040000 -0.059761
v 0.275000 0.100000 -0.054701
v 0.300438 0.040000 0.059760
v 0.275000 0.100000 0.054701
v 0.254699 0.040000 0.170184
v 0.233134 0.100000 0.155775
v 0.170185 0.040000 0.254698
v 0.155775 0.100000 0.233134
v 0.059761 0.040000 0.300437
v 0.054701 0.100000 0.275000
v -0.059760 0.040000 0.300437
v -0.054701 0.100000 0.275000
v -0.170184 0.040000 0.254698
v -0.155775 0.100000 0.233134
v -0.254698 0.040000 0.170184
v -0.233134 0.100000 0.155775
v -0.300437 0.040000 0.059760
v -0.275000 0.100000 0.054701
v -0.300437 0.040000 -0.059761
v -0.275000 0.100000 -0.054701
v -0.254698 0.040000 -0.170185
v -0.233134 0.100000 -0.155775
v -0.170184 0.040000 -0.254699
v -0.155775 0.100000 -0.233134
v -0.059760 0.040000 -0.300438
v -0.054701 0.100000 -0.275000
v 0.070862 0.040000 -0.356250
v 0.201799 0.040000 -0.302014
v 0.302014 0.040000 -0.201800
v 0.356250 0.040000 -0.070863
v 0.356250 0.040000 0.070862
v 0.302014 0.040000 0.201799
v 0.201799 0.040000 0.302014
v 0.070862 0.040000 0.356250
v -0.070863 0.040000 0.356250
v -0.201800 0.040000 0.302014
v -0.302015 0.040000 0.201799
v -0.356250 0.040000 0.070863
v -0.356250 0.040000 -0.070863
v -0.302014 0.040000 -0.201800
v -0.201800 0.040000 -0.302014
v -0.070863 0.040000 -0.356250
v -0.000000 0.000000 0.000000
v -0.000000 0.050000 0.000000
v 0.049230 0.000000 -0.247500
v 0.140197 0.000000 -0.209820
v 0.209820 0.000000 -0.140197
v 0.247500 0.000000 -0.049230
v 0.247500 0.000000 0.049231
v 0.209820 0.000000 0.140198
v 0.140197 0.000000 0.209821
v 0.049230 0.000000 0.247500
v -0.049231 0.000000 0.247500
v -0.140198 0.000000 0.209821
v -0.209821 0.000000 0.140198
v -0.247500 0.000000 0.049231
v -0.247500 0.000000 -0.049230
v -0.209821 0.000000 -0.140197
v -0.140198 0.000000 -0.209820
v -0.049231 0.000000 -0.247500
v 0.203924 0.100000 -0.305193
v 0.212420 0.085000 -0.317910
v 0.074592 0.085000 -0.375000
v 0.071608 0.100000 -0.360000
v 0.305193 0.100000 -0.203924
v 0.317910 0.085000 -0.212420
v 0.360000 0.100000 -0.071608
v 0.375000 0.085000 -0.074592
v 0.360000 0.100000 0.071608
v 0.375000 0.085000 0.074592
v 0.305193 0.100000 0.203924
v 0.317910 0.085000 0.212420
v 0.203924 0.100000 0.305193
v 0.212420 0.085000 0.317910
v 0.071608 0.100000 0.360000
v 0.074592 0.085000 0.375000
v -0.071608 0.100000 0.360000
v -0.074592 0.085000 0.375000
v -0.203924 0.100000 0.305193
v -0.212420 0.085000 0.317910
v -0.305193 0.100000 0.203924
v -0.317910 0.085000 0.212420
v -0.360000 0.100000 0.071609
v -0.375000 0.085000 0.074592
v -0.360000 0.100000 -0.071608
v -0.375000 0.085000 -0.074592
v -0.305193 0.100000 -0.203924
v -0.317910 0.085000 -0.212421
v -0.203924 0.100000 -0.305193
v -0.212420 0.085000 -0.317910
v -0.071608 0.100000 -0.360000
v -0.074592 0.085000 -0.375000
v 0.140197 0.050000 -0.209820
v 0.049230 0.050000 -0.247500
v 0.209820 0.050000 -0.140197
v 0.247500 0.050000 -0.049230
v 0.247500 0.050000 0.049231
v 0.209820 0.050000 0.140198
v 0.140197 0.050000 0.209821
v 0.049230 0.050000 0.247500
v -0.049231 0.050000 0.247500
v -0.140198 0.050000 0.209821
v -0.209821 0.050000 0.140198
v -0.247500 0.050000 0.049231
v -0.247500 0.050000 -0.049230
v -0.209821 0.050000 -0.140197
v -0.140198 0.050000 -0.209820
v -0.049231 0.050000 -0.247500
vt 0.459285 0.655174
vt 0.460432 0.660031
vt 0.471819 0.660031
vt 0.470104 0.655174
vt 0.407812 0.911651
vt 0.407812 0.911651
vt 0.410781 0.881906
vt 0.410781 0.881906
vt 0.443952 0.880827
vt 0.431048 0.880827
vt 0.432185 0.876509
vt 0.442815 0.876509
vt 0.445150 0.655174
vt 0.445553 0.660031
vt 0.429850 0.655174
vt 0.429447 0.660031
vt 0.475959 0.655174
vt 0.477983 0.660031
vt 0.477983 0.660031
vt 0.475959 0.655174
vt 0.471819 0.660031
vt 0.470104 0.655174
vt 0.460432 0.660031
vt 0.459285 0.655174
vt 0.445553 0.660031
vt 0.445150 0.655174
vt 0.429447 0.660031
vt 0.429850 0.655174
vt 0.414568 0.660031
vt 0.415715 0.655174
vt 0.403180 0.660031
vt 0.404896 0.655174
vt 0.397017 0.660031
vt 0.399041 0.655174
vt 0.397017 0.660031
vt 0.399041 0.655174
vt 0.403180 0.660031
vt 0.404896 0.655174
vt 0.414568 0.660031
vt 0.415715 0.655174
vt 0.455872 0.880827
vt 0.443952 0.880827
vt 0.445150 0.880827
vt 0.459285 0.880827
vt 0.464996 0.880827
vt 0.470104 0.880827
vt 0.469933 0.880827
vt 0.475959 0.880827
vt 0.469933 0.880827
vt 0.475959 0.880827
vt 0.464996 0.880827
vt 0.470104 0.880827
vt 0.455872 0.880827
vt 0.459285 0.880827
vt 0.445150 0.880827
vt 0.429850 0.880827
vt 0.419128 0.880827
vt 0.415715 0.880827
vt 0.410004 0.880827
vt 0.404896 0.880827
vt 0.405066 0.880827
vt 0.399041 0.880827
vt 0.405066 0.880827
vt 0.399041 0.880827
vt 0.410004 0.880827
vt 0.404896 0.880827
vt 0.419128 0.880827
vt 0.415715 0.880827
vt 0.431048 0.880827
vt 0.429850 0.880827
vt 0.452635 0.876509
vt 0.442815 0.876509
vt 0.432185 0.876509
vt 0.422365 0.876509
vt 0.460151 0.876509
vt 0.414849 0.876509
vt 0.464219 0.876509
vt 0.410781 0.876509
vt 0.464219 0.876509
vt 0.410781 0.876509
vt 0.460151 0.876509
vt 0.414849 0.876509
vt 0.452635 0.876509
vt 0.422365 0.876509
vt 0.462668 0.911651
vt 0.467187 0.911651
vt 0.464219 0.881906
vt 0.460151 0.881906
vt 0.412332 0.911651
vt 0.414849 0.881906
vt 0.454317 0.911651
vt 0.452635 0.881906
vt 0.420683 0.911651
vt 0.422365 0.881906
vt 0.443405 0.911651
vt 0.442815 0.881906
vt 0.431595 0.911651
vt 0.432185 0.881906
vt 0.431595 0.911651
vt 0.432185 0.881906
vt 0.454317 0.911651
vt 0.443405 0.911651
vt 0.442815 0.881906
vt 0.452635 0.881906
vt 0.420683 0.911651
vt 0.422365 0.881906
vt 0.462668 0.911651
vt 0.460151 0.881906
vt 0.412332 0.911651
vt 0.414849 0.881906
vt 0.467187 0.911651
vt 0.464219 0.881906
vt 0.437500 0.876509
vt 0.445231 0.685998
vt 0.459514 0.685998
vt 0.470447 0.685998
vt 0.476364 0.685998
vt 0.476364 0.685998
vt 0.470447 0.685998
vt 0.459514 0.685998
vt 0.445231 0.685998
vt 0.429769 0.685998
vt 0.415486 0.685998
vt 0.404553 0.685998
vt 0.398636 0.685998
vt 0.398636 0.685998
vt 0.404553 0.685998
vt 0.415486 0.685998
vt 0.429769 0.685998
vt 0.448112 0.881906
vt 0.453382 0.881906
vt 0.456234 0.881906
vt 0.441226 0.881906
vt 0.433773 0.881906
vt 0.426888 0.881906
vt 0.421618 0.881906
vt 0.418766 0.881906
vt 0.454317 0.685998
vt 0.443405 0.685998
vt 0.431595 0.685998
vt 0.420683 0.685998
vt 0.412332 0.685998
vt 0.407812 0.685998
vt 0.407812 0.685998
vt 0.412332 0.685998
vt 0.420683 0.685998
vt 0.431595 0.685998
vt 0.443405 0.685998
vt 0.454317 0.685998
vt 0.462668 0.685998
vt 0.467187 0.685998
vt 0.467187 0.685998
vt 0.462668 0.685998
vn 0.5113 -0.3910 -0.7653
vn 0.7653 -0.3910 -0.5113
vn 0.8555 0.4891 0.1702
vn 0.8555 0.4891 -0.1702
vn 0.1162 -0.8034 0.5840
vn -0.1162 -0.8034 0.5840
vn 0.1796 -0.3910 -0.9027
vn -0.1796 -0.3910 -0.9027
vn 0.9027 -0.3910 -0.1796
vn 0.9027 -0.3910 0.1796
vn 0.7653 -0.3910 0.5113
vn 0.5113 -0.3910 0.7653
vn 0.1796 -0.3910 0.9027
vn -0.1796 -0.3910 0.9027
vn -0.5113 -0.3910 0.7653
vn -0.7653 -0.3910 0.5113
vn -0.9027 -0.3910 0.1796
vn -0.9027 -0.3910 -0.1796
vn -0.7653 -0.3910 -0.5113
vn -0.5113 -0.3910 -0.7653
vn -0.0000 -1.0000 0.0000
vn 0.1162 -0.8034 -0.5840
vn 0.3308 -0.8034 -0.4951
vn -0.1162 -0.8034 -0.5840
vn -0.3308 -0.8034 0.4951
vn 0.4951 -0.8034 -0.3308
vn -0.4951 -0.8034 0.3308
vn 0.5840 -0.8034 -0.1162
vn -0.5840 -0.8034 0.1162
vn 0.5840 -0.8034 0.1162
vn -0.5840 -0.8034 -0.1162
vn 0.4951 -0.8034 0.3308
vn -0.4951 -0.8034 -0.3308
vn 0.3308 -0.8034 0.4951
vn -0.3308 -0.8034 -0.4951
vn -0.7252 0.4891 -0.4846
vn -0.8555 0.4891 -0.1702
vn 0.7252 0.4891 0.4846
vn -0.4846 0.4891 -0.7252
vn 0.4846 0.4891 0.7252
vn -0.1702 0.4891 -0.8555
vn 0.1702 0.4891 0.8555
vn 0.1702 0.4891 -0.8555
vn -0.4846 0.4891 0.7252
vn -0.1702 0.4891 0.8555
vn 0.4846 0.4891 -0.7252
vn -0.7252 0.4891 0.4846
vn 0.7252 0.4891 -0.4846
vn -0.8555 0.4891 0.1702
vn 0.3890 0.7139 -0.5822
vn 0.1366 0.7139 -0.6868
vn 0.0814 0.9088 -0.4092
vn 0.2318 0.9088 -0.3469
vn 0.5822 0.7139 -0.3890
vn 0.3469 0.9088 -0.2318
vn 0.6868 0.7139 -0.1366
vn 0.4092 0.9088 -0.0814
vn 0.6868 0.7139 0.1366
vn 0.4092 0.9088 0.0814
vn 0.5822 0.7139 0.3890
vn 0.3469 0.9088 0.2318
vn 0.3890 0.7139 0.5822
vn 0.2318 0.9088 0.3469
vn 0.1366 0.7139 0.6868
vn 0.0814 0.9088 0.4092
vn -0.1366 0.7139 0.6868
vn -0.0814 0.9088 0.4092
vn -0.3890 0.7139 0.5822
vn -0.2318 0.9088 0.3469
vn -0.5822 0.7139 0.3890
vn -0.3469 0.9088 0.2318
vn -0.6868 0.7139 0.1366
vn -0.4092 0.9088 0.0814
vn -0.6868 0.7139 -0.1366
vn -0.4092 0.9088 -0.0814
vn -0.5822 0.7139 -0.3890
vn -0.3469 0.9088 -0.2318
vn -0.3890 0.7139 -0.5822
vn -0.2318 0.9088 -0.3469
vn -0.1366 0.7139 -0.6868
vn -0.0814 0.9088 -0.4092
vn -0.0000 1.0000 0.0000
usemtl tiny_treats_1
s 1
f 34/1/1 68/2/1 72/3/2 35/4/2
f 26/5/3 24/6/4 110/7/4 111/8/3
f 15/9/5 17/10/6 59/11/6 58/12/5
f 33/13/7 69/14/7 68/2/1 34/1/1
f 48/15/8 98/16/8 69/14/7 33/13/7
f 36/17/9 74/18/9 76/19/10 37/20/10
f 37/20/10 76/19/10 78/21/11 38/22/11
f 38/22/11 78/21/11 80/23/12 39/24/12
f 39/24/12 80/23/12 82/25/13 40/26/13
f 40/26/13 82/25/13 84/27/14 41/28/14
f 41/28/14 84/27/14 86/29/15 42/30/15
f 42/30/15 86/29/15 88/31/16 43/32/16
f 43/32/16 88/31/16 90/33/17 44/34/17
f 44/34/17 90/33/17 92/35/18 45/36/18
f 45/36/18 92/35/18 94/37/19 46/38/19
f 46/38/19 94/37/19 96/39/20 47/40/20
f 47/40/20 96/39/20 98/16/8 48/15/8
f 35/4/2 72/3/2 74/18/9 36/17/9
f 3/41/21 1/42/21 33/43/21 34/44/21
f 5/45/21 3/41/21 34/44/21 35/46/21
f 7/47/21 5/45/21 35/46/21 36/48/21
f 9/49/21 7/47/21 36/48/21 37/50/21
f 11/51/21 9/49/21 37/50/21 38/52/21
f 13/53/21 11/51/21 38/52/21 39/54/21
f 15/9/21 13/53/21 39/54/21 40/55/21
f 17/10/21 15/9/21 40/55/21 41/56/21
f 19/57/21 17/10/21 41/56/21 42/58/21
f 21/59/21 19/57/21 42/58/21 43/60/21
f 23/61/21 21/59/21 43/60/21 44/62/21
f 25/63/21 23/61/21 44/62/21 45/64/21
f 27/65/21 25/63/21 45/64/21 46/66/21
f 29/67/21 27/65/21 46/66/21 47/68/21
f 31/69/21 29/67/21 47/68/21 48/70/21
f 1/42/21 31/69/21 48/70/21 33/43/21
f 1/42/22 3/41/23 52/71/23 51/72/22
f 31/69/24 1/42/22 51/72/22 66/73/24
f 17/10/6 19/57/25 60/74/25 59/11/6
f 3/41/23 5/45/26 53/75/26 52/71/23
f 19/57/25 21/59/27 61/76/27 60/74/25
f 5/45/26 7/47/28 54/77/28 53/75/26
f 21/59/27 23/61/29 62/78/29 61/76/27
f 7/47/28 9/49/30 55/79/30 54/77/28
f 23/61/29 25/63/31 63/80/31 62/78/29
f 9/49/30 11/51/32 56/81/32 55/79/30
f 25/63/31 27/65/33 64/82/33 63/80/31
f 11/51/32 13/53/34 57/83/34 56/81/32
f 27/65/33 29/67/35 65/84/35 64/82/33
f 13/53/34 15/9/5 58/12/5 57/83/34
f 29/67/35 31/69/24 66/73/24 65/84/35
f 12/85/36 10/86/37 103/87/37 104/88/36
f 28/89/38 26/5/3 111/8/3 112/90/38
f 14/91/39 12/85/36 104/88/36 105/92/39
f 30/93/40 28/89/38 112/90/38 113/94/40
f 16/95/41 14/91/39 105/92/39 106/96/41
f 32/97/42 30/93/40 113/94/40 114/98/42
f 18/99/43 16/95/41 106/96/41 107/100/43
f 4/101/44 2/102/45 100/103/45 99/104/44
f 2/102/45 32/97/42 114/98/42 100/103/45
f 20/105/46 18/99/43 107/100/43 108/106/46
f 6/107/47 4/101/44 99/104/44 101/108/47
f 22/109/48 20/105/46 108/106/46 109/110/48
f 8/111/49 6/107/47 101/108/47 102/112/49
f 24/6/4 22/109/48 109/110/48 110/7/4
f 10/86/37 8/111/49 102/112/49 103/87/37
f 49/113/21 51/72/21 52/71/21
f 49/113/21 52/71/21 53/75/21
f 49/113/21 53/75/21 54/77/21
f 49/113/21 54/77/21 55/79/21
f 49/113/21 55/79/21 56/81/21
f 49/113/21 56/81/21 57/83/21
f 49/113/21 57/83/21 58/12/21
f 49/113/21 58/12/21 59/11/21
f 49/113/21 59/11/21 60/74/21
f 49/113/21 60/74/21 61/76/21
f 49/113/21 61/76/21 62/78/21
f 49/113/21 62/78/21 63/80/21
f 49/113/21 63/80/21 64/82/21
f 49/113/21 64/82/21 65/84/21
f 49/113/21 65/84/21 66/73/21
f 49/113/21 66/73/21 51/72/21
f 68/2/50 69/14/51 70/114/52 67/115/53
f 72/3/54 68/2/50 67/115/53 71/116/55
f 74/18/56 72/3/54 71/116/55 73/117/57
f 76/19/58 74/18/56 73/117/57 75/118/59
f 78/21/60 76/19/58 75/118/59 77/119/61
f 80/23/62 78/21/60 77/119/61 79/120/63
f 82/25/64 80/23/62 79/120/63 81/121/65
f 84/27/66 82/25/64 81/121/65 83/122/67
f 86/29/68 84/27/66 83/122/67 85/123/69
f 88/31/70 86/29/68 85/123/69 87/124/71
f 90/33/72 88/31/70 87/124/71 89/125/73
f 92/35/74 90/33/72 89/125/73 91/126/75
f 94/37/76 92/35/74 91/126/75 93/127/77
f 96/39/78 94/37/76 93/127/77 95/128/79
f 98/16/80 96/39/78 95/128/79 97/129/81
f 69/14/51 98/16/80 97/129/81 70/114/52
f 50/130/82 99/104/82 100/103/82
f 50/131/82 101/108/82 99/104/82
f 50/132/82 102/112/82 101/108/82
f 50/132/82 103/87/82 102/112/82
f 50/131/82 104/88/82 103/87/82
f 50/130/82 105/92/82 104/88/82
f 50/133/82 106/96/82 105/92/82
f 50/134/82 107/100/82 106/96/82
f 50/135/82 108/106/82 107/100/82
f 50/136/82 109/110/82 108/106/82
f 50/137/82 110/7/82 109/110/82
f 50/137/82 111/8/82 110/7/82
f 50/136/82 112/90/82 111/8/82
f 50/135/82 113/94/82 112/90/82
f 50/134/82 114/98/82 113/94/82
f 50/133/82 100/103/82 114/98/82
f 4/138/82 67/115/53 70/114/52 2/139/82
f 2/139/82 70/114/52 97/129/81 32/140/82
f 32/140/82 97/129/81 95/128/79 30/141/82
f 30/141/82 95/128/79 93/127/77 28/142/82
f 28/142/82 93/127/77 91/126/75 26/143/82
f 26/143/82 91/126/75 89/125/73 24/144/82
f 24/144/82 89/125/73 87/124/71 22/145/82
f 22/145/82 87/124/71 85/123/69 20/146/82
f 20/146/82 85/123/69 83/122/67 18/147/82
f 18/147/82 83/122/67 81/121/65 16/148/82
f 16/148/82 81/121/65 79/120/63 14/149/82
f 14/149/82 79/120/63 77/119/61 12/150/82
f 12/150/82 77/119/61 75/118/59 10/151/82
f 10/151/82 75/118/59 73/117/57 8/152/82
f 8/152/82 73/117/57 71/116/55 6/153/82
f 6/153/82 71/116/55 67/115/53 4/138/82
