# Blender v3.4.1 OBJ File: 'Tiny_Treats_Pleasant_Picnic_ASSETS_EXPORT.blend'
# www.blender.org
mtllib radio_handle.mtl
o radio_handle
v 0.457345 0.562450 0.045372
v 0.437357 0.542434 0.045334
v 0.457375 0.542407 0.065446
v -0.457343 0.452979 0.045395
v -0.437352 0.472995 0.045352
v -0.457368 0.473020 0.065461
v -0.533353 0.472881 0.045532
v -0.513330 0.452894 0.045506
v -0.513349 0.472867 0.065462
v -0.513618 0.559734 0.045499
v -0.533535 0.539637 0.045529
v -0.513531 0.539757 0.065462
v -0.457631 0.559953 0.045387
v -0.457550 0.539910 0.065461
v -0.437534 0.540047 0.045348
v 0.533359 0.542549 0.045511
v 0.513332 0.562536 0.045482
v 0.513355 0.542559 0.065445
v 0.513627 0.455697 0.045490
v 0.533541 0.475793 0.045514
v 0.513538 0.475670 0.065445
v 0.457641 0.455476 0.045380
v 0.457557 0.475517 0.065446
v 0.437541 0.475382 0.045338
v 0.549808 0.509212 -0.000005
v 0.551795 0.527998 0.017204
v 0.551844 0.510329 0.025443
v 0.551894 0.492009 0.018775
v 0.551916 0.483770 0.001106
v 0.551897 0.490438 -0.017214
v 0.551849 0.508107 -0.025453
v 0.551799 0.526426 -0.018785
v 0.551777 0.534666 -0.001116
v 0.529211 0.510488 0.030496
v 0.529153 0.531665 0.020621
v 0.529271 0.488531 0.022504
v 0.529297 0.478656 0.001327
v 0.529275 0.486647 -0.020630
v 0.529217 0.507824 -0.030505
v 0.529158 0.529782 -0.022514
v 0.529131 0.539657 -0.001336
v -0.549803 0.506212 0.000013
v -0.551893 0.524986 0.017221
v -0.551844 0.507317 0.025461
v -0.551794 0.488997 0.018793
v -0.551772 0.480758 0.001124
v -0.551791 0.487426 -0.017196
v -0.551839 0.505095 -0.025435
v -0.551889 0.523415 -0.018767
v -0.551911 0.531654 -0.001098
v -0.529213 0.507599 0.030513
v -0.529271 0.528777 0.020638
v -0.529153 0.485642 0.022521
v -0.529127 0.475767 0.001344
v -0.529149 0.483759 -0.020613
v -0.529207 0.504936 -0.030488
v -0.529266 0.526893 -0.022496
v -0.529293 0.536768 -0.001319
v -0.428175 0.539996 -0.245371
v -0.351058 0.540482 -0.320822
v -0.404117 0.539734 -0.298274
v -0.368790 0.560232 -0.335881
v -0.443522 0.559891 -0.263863
v -0.419785 0.559886 -0.314284
v -0.368504 0.454256 -0.335879
v -0.443243 0.453979 -0.263843
v -0.419507 0.454263 -0.314273
v -0.350878 0.474102 -0.320822
v -0.427997 0.473946 -0.245365
v -0.403945 0.474495 -0.298269
v -0.500777 0.559849 -0.331184
v -0.430998 0.560023 -0.400476
v -0.479630 0.559826 -0.380381
v -0.457376 0.539614 -0.427474
v -0.523395 0.539482 -0.361113
v -0.503654 0.539467 -0.408355
v -0.500495 0.453743 -0.331163
v -0.430712 0.454125 -0.400473
v -0.479349 0.454005 -0.380370
v -0.457199 0.474389 -0.427473
v -0.523219 0.473998 -0.361106
v -0.503478 0.474235 -0.408352
v 0.523389 0.476854 -0.361123
v 0.457366 0.476884 -0.427488
v 0.503646 0.476983 -0.408368
v 0.430990 0.456476 -0.400487
v 0.500777 0.456475 -0.331179
v 0.479628 0.456622 -0.380386
v 0.457186 0.542109 -0.427489
v 0.523208 0.542338 -0.361130
v 0.503465 0.542215 -0.408372
v 0.500479 0.562581 -0.331200
v 0.430698 0.562374 -0.400490
v 0.479331 0.562443 -0.380397
v 0.443526 0.456399 -0.263858
v 0.368785 0.456268 -0.335891
v 0.419788 0.456553 -0.314287
v 0.351051 0.476017 -0.320833
v 0.428172 0.476282 -0.245379
v 0.404116 0.476700 -0.298282
v 0.368493 0.562244 -0.335893
v 0.443228 0.562311 -0.263878
v 0.419489 0.562176 -0.314298
v 0.427989 0.542333 -0.245385
v 0.350869 0.542397 -0.320833
v 0.403932 0.541939 -0.298287
vt 0.325348 0.902457
vt 0.332511 0.902457
vt 0.280301 0.902457
vt 0.280301 0.902457
vt 0.334351 0.871550
vt 0.334351 0.878450
vt 0.334351 0.878450
vt 0.334351 0.871550
vt 0.280301 0.900157
vt 0.335733 0.900157
vt 0.332511 0.902457
vt 0.280301 0.902457
vt 0.323285 0.900157
vt 0.280301 0.900157
vt 0.280301 0.902457
vt 0.325348 0.902457
vt 0.332510 0.847543
vt 0.325347 0.847543
vt 0.280301 0.847543
vt 0.280301 0.847543
vt 0.280301 0.849843
vt 0.323285 0.849843
vt 0.325347 0.847543
vt 0.280301 0.847543
vt 0.278001 0.871550
vt 0.278001 0.878450
vt 0.278001 0.878450
vt 0.278001 0.871550
vt 0.278001 0.871550
vt 0.278001 0.878450
vt 0.278001 0.878450
vt 0.278001 0.871550
vt 0.336206 0.902457
vt 0.342876 0.902457
vt 0.342876 0.902457
vt 0.336206 0.902457
vt 0.335733 0.878450
vt 0.335733 0.871550
vt 0.280301 0.871550
vt 0.280301 0.878450
vt 0.342876 0.847543
vt 0.336206 0.847543
vt 0.336206 0.847543
vt 0.342876 0.847543
vt 0.323285 0.871550
vt 0.323285 0.878450
vt 0.280301 0.878450
vt 0.280301 0.871550
vt 0.332510 0.847543
vt 0.280301 0.847543
vt 0.345851 0.849843
vt 0.345851 0.849843
vt 0.278001 0.900157
vt 0.280301 0.849843
vt 0.278001 0.849843
vt 0.280301 0.849843
vt 0.278001 0.849843
vt 0.280301 0.900157
vt 0.278001 0.900157
vt 0.278001 0.900157
vt 0.280301 0.900157
vt 0.278001 0.900157
vt 0.280301 0.849843
vt 0.278001 0.849843
vt 0.278001 0.849843
vt 0.335733 0.900157
vt 0.335733 0.849843
vt 0.280301 0.878450
vt 0.280301 0.871550
vt 0.280301 0.871550
vt 0.280301 0.878450
vt 0.334351 0.849843
vt 0.334351 0.849843
vt 0.345851 0.878450
vt 0.345851 0.871550
vt 0.345851 0.871550
vt 0.345851 0.878450
vt 0.323285 0.849843
vt 0.335733 0.849843
vt 0.332896 0.855267
vt 0.332896 0.855267
vt 0.339642 0.848521
vt 0.339642 0.848521
vt 0.339642 0.838979
vt 0.339642 0.838979
vt 0.332896 0.832233
vt 0.332896 0.832233
vt 0.323355 0.832233
vt 0.323355 0.832233
vt 0.316608 0.838979
vt 0.316608 0.838979
vt 0.316608 0.848521
vt 0.316608 0.848521
vt 0.323355 0.855267
vt 0.323355 0.855267
vt 0.328125 0.843750
vt 0.332896 0.855267
vt 0.339642 0.848521
vt 0.339642 0.848521
vt 0.332896 0.855267
vt 0.339642 0.838979
vt 0.339642 0.838979
vt 0.332896 0.832233
vt 0.332896 0.832233
vt 0.323355 0.832233
vt 0.323355 0.832233
vt 0.316608 0.838979
vt 0.316608 0.838979
vt 0.316608 0.848521
vt 0.316608 0.848521
vt 0.323355 0.855267
vt 0.323355 0.855267
vt 0.328125 0.843750
vt 0.323285 0.900157
vt 0.345851 0.900157
vt 0.345851 0.900157
vt 0.323285 0.878450
vt 0.323285 0.871550
vt 0.335733 0.871550
vt 0.335733 0.878450
vt 0.341858 0.902457
vt 0.344304 0.901353
vt 0.334351 0.900157
vt 0.335663 0.901784
vt 0.334351 0.900157
vt 0.345851 0.878448
vt 0.345851 0.871550
vt 0.341858 0.847543
vt 0.335664 0.848215
vt 0.334351 0.849843
vt 0.334351 0.878447
vt 0.334351 0.871550
vt 0.344302 0.848645
vt 0.335664 0.848215
vt 0.341858 0.847543
vt 0.335663 0.901784
vt 0.341858 0.902457
vt 0.334351 0.878447
vt 0.334351 0.871550
vt 0.345851 0.878448
vt 0.345851 0.871550
vt 0.334351 0.900157
vt 0.334351 0.900157
vt 0.334351 0.849843
vt 0.344304 0.901354
vt 0.344302 0.848645
vn 0.3202 0.9424 0.0967
vn -0.3653 0.9297 -0.0478
vn -0.3385 0.8792 0.3353
vn 0.3455 0.8705 0.3504
vn -0.1546 -0.3666 0.9174
vn -0.1564 0.3659 0.9174
vn 0.1544 0.3667 0.9174
vn 0.1566 -0.3658 0.9174
vn 0.8743 0.3536 0.3325
vn 0.8703 0.4470 -0.2067
vn 0.3602 0.9317 -0.0478
vn 0.3337 0.8810 0.3353
vn -0.9010 0.3919 0.1861
vn -0.8766 0.3259 0.3541
vn -0.3503 0.8686 0.3504
vn -0.3253 0.9407 0.0967
vn -0.3591 -0.9320 -0.0497
vn 0.3266 -0.9404 0.0944
vn 0.3507 -0.8689 0.3493
vn -0.3333 -0.8816 0.3343
vn -0.8749 -0.3310 0.3536
vn -0.8992 -0.3966 0.1850
vn -0.3214 -0.9422 0.0944
vn -0.3459 -0.8708 0.3493
vn 0.3419 -0.3408 0.8758
vn 0.3400 0.3427 0.8758
vn -0.3433 0.3406 0.8753
vn -0.3414 -0.3424 0.8753
vn 0.3433 -0.3405 0.8753
vn 0.3414 0.3425 0.8753
vn -0.3419 0.3408 0.8758
vn -0.3400 -0.3426 0.8758
vn -0.0891 0.9366 0.3388
vn 0.0380 0.9457 -0.3228
vn -0.0432 0.9455 -0.3228
vn 0.0840 0.9371 0.3388
vn -0.8728 0.4423 -0.2066
vn -0.8700 -0.4473 -0.2074
vn -0.8743 -0.3541 0.3321
vn -0.8762 0.3489 0.3325
vn 0.0428 -0.9454 -0.3231
vn -0.0845 -0.9372 0.3385
vn 0.0896 -0.9367 0.3385
vn -0.0377 -0.9456 -0.3231
vn 0.9013 -0.3917 0.1850
vn 0.8988 0.3968 0.1861
vn 0.8748 0.3307 0.3541
vn 0.8767 -0.3262 0.3536
vn 0.3642 -0.9300 -0.0497
vn 0.3381 -0.8797 0.3343
vn -0.1866 -0.4626 -0.8667
vn 0.1891 -0.4615 -0.8667
vn 0.8762 -0.3493 0.3321
vn 0.8724 -0.4426 -0.2074
vn 0.1868 0.4628 -0.8666
vn -0.1893 0.4617 -0.8666
vn 0.2161 0.7201 0.6593
vn 0.2180 0.0432 0.9750
vn 0.2199 -0.6587 0.7195
vn 0.2207 -0.9744 0.0426
vn 0.2200 -0.7189 -0.6593
vn 0.2182 -0.0420 -0.9750
vn 0.2163 0.6599 -0.7195
vn 0.2154 0.9756 -0.0426
vn 1.0000 0.0027 -0.0000
vn 0.9970 -0.0561 -0.0539
vn 0.9968 -0.0008 -0.0797
vn 0.9967 0.0566 -0.0588
vn 0.9966 0.0824 -0.0035
vn 0.9966 0.0615 0.0539
vn 0.9968 0.0062 0.0797
vn 0.9970 -0.0512 0.0588
vn 0.9970 -0.0770 0.0035
vn -0.2200 0.7189 0.6593
vn -0.2182 0.0420 0.9750
vn -0.2163 -0.6599 0.7195
vn -0.2154 -0.9756 0.0426
vn -0.2161 -0.7201 -0.6593
vn -0.2180 -0.0432 -0.9750
vn -0.2199 0.6587 -0.7195
vn -0.2207 0.9744 -0.0426
vn -1.0000 -0.0027 0.0000
vn -0.9968 -0.0062 -0.0797
vn -0.9966 -0.0615 -0.0539
vn -0.9970 0.0512 -0.0588
vn -0.9970 0.0770 -0.0035
vn -0.9970 0.0561 0.0539
vn -0.9968 0.0008 0.0797
vn -0.9967 -0.0566 0.0588
vn -0.9966 -0.0824 0.0035
vn -0.2228 0.9514 -0.2126
vn -0.6253 0.4584 -0.6316
vn 0.1915 0.9605 0.2019
vn 0.6208 0.4497 0.6422
vn -0.6224 -0.4617 -0.6320
vn -0.2165 -0.9526 -0.2137
vn 0.1982 -0.9594 0.2005
vn 0.6240 -0.4461 0.6416
vn -0.1929 -0.9605 0.2005
vn 0.2217 -0.9514 -0.2137
vn -0.1968 0.9594 0.2019
vn 0.2176 0.9526 -0.2126
vn -0.6232 0.4463 0.6422
vn -0.6215 -0.4495 0.6416
vn 0.6227 0.4618 -0.6316
vn 0.6249 -0.4583 -0.6320
usemtl tiny_treats_1
s 1
f 63/1/1 71/2/2 10/3/3 13/4/4
f 98/5/5 105/6/6 60/7/7 68/8/8
f 16/9/9 90/10/10 92/11/11 17/12/12
f 104/13/13 2/14/14 1/15/15 102/16/16
f 77/17/17 66/18/18 4/19/19 8/20/20
f 24/21/21 99/22/22 95/23/23 22/24/24
f 21/25/25 18/26/26 3/27/27 23/28/28
f 6/29/29 14/30/30 12/31/31 9/32/32
f 101/33/33 93/34/34 72/35/35 62/36/36
f 75/37/37 81/38/38 7/39/39 11/40/40
f 86/41/41 96/42/42 65/43/43 78/44/44
f 69/45/45 59/46/46 15/47/47 5/48/48
f 95/23/23 87/49/49 19/50/50 22/24/24
f 86/41/41 78/44/44 80/51/51 84/52/52
f 1/15/15 2/14/14 3/53/27
f 4/19/19 5/54/48 6/55/29
f 7/56/39 8/20/20 9/57/32
f 10/3/3 11/58/40 12/59/31
f 13/4/4 14/60/30 15/61/47
f 16/9/9 17/12/12 18/62/26
f 19/50/50 20/63/53 21/64/25
f 22/24/24 23/65/28 24/21/21
f 75/66/37 11/58/40 10/3/3 71/2/2
f 83/67/54 20/63/53 19/50/50 87/49/49
f 14/30/30 6/29/29 5/48/48 15/47/47
f 2/68/14 24/69/21 23/28/28 3/27/27
f 17/12/12 1/15/15 3/53/27 18/62/26
f 8/20/20 4/19/19 6/55/29 9/57/32
f 11/40/40 7/39/39 9/32/32 12/31/31
f 13/4/4 10/3/3 12/59/31 14/60/30
f 20/70/53 16/71/9 18/26/26 21/25/25
f 22/24/24 19/50/50 21/64/25 23/65/28
f 65/43/43 96/42/42 98/72/5 68/73/8
f 89/74/55 84/75/52 80/76/51 74/77/56
f 4/19/19 66/18/18 69/78/45 5/54/48
f 77/17/17 8/20/20 7/56/39 81/79/38
f 26/80/57 35/81/57 34/82/58 27/83/58
f 27/83/58 34/82/58 36/84/59 28/85/59
f 28/85/59 36/84/59 37/86/60 29/87/60
f 29/87/60 37/86/60 38/88/61 30/89/61
f 30/89/61 38/88/61 39/90/62 31/91/62
f 31/91/62 39/90/62 40/92/63 32/93/63
f 32/93/63 40/92/63 41/94/64 33/95/64
f 33/95/64 41/94/64 35/81/57 26/80/57
f 25/96/65 26/80/66 27/83/67
f 25/96/65 27/83/67 28/85/68
f 25/96/65 28/85/68 29/87/69
f 25/96/65 29/87/69 30/89/70
f 25/96/65 30/89/70 31/91/71
f 25/96/65 31/91/71 32/93/72
f 25/96/65 32/93/72 33/95/73
f 25/96/65 33/95/73 26/80/66
f 43/97/74 44/98/75 51/99/75 52/100/74
f 44/98/75 45/101/76 53/102/76 51/99/75
f 45/101/76 46/103/77 54/104/77 53/102/76
f 46/103/77 47/105/78 55/106/78 54/104/77
f 47/105/78 48/107/79 56/108/79 55/106/78
f 48/107/79 49/109/80 57/110/80 56/108/79
f 49/109/80 50/111/81 58/112/81 57/110/80
f 50/111/81 43/97/74 52/100/74 58/112/81
f 42/113/82 44/98/83 43/97/84
f 42/113/82 45/101/85 44/98/83
f 42/113/82 46/103/86 45/101/85
f 42/113/82 47/105/87 46/103/86
f 42/113/82 48/107/88 47/105/87
f 42/113/82 49/109/89 48/107/88
f 42/113/82 50/111/90 49/109/89
f 42/113/82 43/97/84 50/111/90
f 15/61/47 59/114/46 63/1/1 13/4/4
f 72/35/35 93/34/34 89/115/55 74/116/56
f 104/117/13 99/118/22 24/69/21 2/68/14
f 92/11/11 102/16/16 1/15/15 17/12/12
f 16/71/9 20/70/53 83/119/54 90/120/10
f 75/66/37 71/2/2 73/121/91 76/122/92
f 76/122/92 73/121/91 72/35/35 74/116/56
f 60/123/7 62/36/36 64/124/93 61/125/94
f 61/125/94 64/124/93 63/1/1 59/114/46
f 81/38/38 75/37/37 76/126/92 82/127/95
f 82/127/95 76/126/92 74/77/56 80/76/51
f 66/18/18 77/17/17 79/128/96 67/129/97
f 67/129/97 79/128/96 78/44/44 65/43/43
f 69/78/45 66/18/18 67/129/97 70/130/98
f 70/130/98 67/129/97 65/43/43 68/73/8
f 68/8/8 60/7/7 61/131/94 70/132/98
f 70/132/98 61/131/94 59/46/46 69/45/45
f 77/17/17 81/79/38 82/133/95 79/128/96
f 79/128/96 82/133/95 80/51/51 78/44/44
f 62/36/36 72/35/35 73/121/91 64/124/93
f 64/124/93 73/121/91 71/2/2 63/1/1
f 87/49/49 95/23/23 97/134/99 88/135/100
f 88/135/100 97/134/99 96/42/42 86/41/41
f 93/34/34 101/33/33 103/136/101 94/137/102
f 94/137/102 103/136/101 102/16/16 92/11/11
f 99/118/22 104/117/13 106/138/103 100/139/104
f 100/139/104 106/138/103 105/6/6 98/5/5
f 84/75/52 89/74/55 91/140/105 85/141/106
f 85/141/106 91/140/105 90/120/10 83/119/54
f 104/13/13 102/16/16 103/136/101 106/142/103
f 106/142/103 103/136/101 101/33/33 105/143/6
f 95/23/23 99/22/22 100/144/104 97/134/99
f 97/134/99 100/144/104 98/72/5 96/42/42
f 92/11/11 90/10/10 91/145/105 94/137/102
f 94/137/102 91/145/105 89/115/55 93/34/34
f 83/67/54 87/49/49 88/135/100 85/146/106
f 85/146/106 88/135/100 86/41/41 84/52/52
f 101/33/33 62/36/36 60/123/7 105/143/6
