# Blender v3.4.1 OBJ File: 'Tiny_Treats_Pleasant_Picnic_ASSETS_EXPORT.blend'
# www.blender.org
mtllib serving_tray_square_A.mtl
o serving_tray_square_A
v -0.400000 -0.000000 0.375000
v -0.500000 -0.000000 0.275000
v -0.470711 -0.000000 0.345711
v -0.500000 -0.000000 -0.275000
v -0.400000 -0.000000 -0.375000
v -0.470711 -0.000000 -0.345711
v 0.500000 -0.000000 0.275000
v 0.400000 -0.000000 0.375000
v 0.470711 -0.000000 0.345711
v 0.400000 -0.000000 -0.375000
v 0.500000 -0.000000 -0.275000
v 0.470711 -0.000000 -0.345711
v -0.381606 0.100000 0.256606
v -0.415000 0.100000 0.258092
v -0.400000 0.090000 0.255109
v -0.383092 0.100000 0.290000
v -0.380109 0.090000 0.275000
v -0.405654 0.100000 0.280654
v -0.394174 0.090000 0.269174
v -0.381606 0.100000 -0.256606
v -0.383092 0.100000 -0.290000
v -0.380109 0.090000 -0.275000
v -0.415000 0.100000 -0.258092
v -0.400000 0.090000 -0.255109
v -0.405654 0.100000 -0.280654
v -0.394174 0.090000 -0.269174
v 0.381606 0.100000 0.256606
v 0.383092 0.100000 0.290000
v 0.380109 0.090000 0.275000
v 0.415000 0.100000 0.258092
v 0.400000 0.090000 0.255109
v 0.405654 0.100000 0.280654
v 0.394174 0.090000 0.269174
v 0.381606 0.100000 -0.256606
v 0.415000 0.100000 -0.258092
v 0.400000 0.090000 -0.255109
v 0.383092 0.100000 -0.290000
v 0.380109 0.090000 -0.275000
v 0.405654 0.100000 -0.280654
v 0.394174 0.090000 -0.269174
v -0.400000 0.080000 0.375000
v -0.396022 0.100000 0.355000
v -0.455403 0.100000 0.330403
v -0.470711 0.080000 0.345711
v -0.480000 0.100000 0.271022
v -0.500000 0.080000 0.275000
v -0.470711 0.080000 -0.345711
v -0.455403 0.100000 -0.330403
v -0.396022 0.100000 -0.355000
v -0.400000 0.080000 -0.375000
v -0.500000 0.080000 -0.275000
v -0.480000 0.100000 -0.271022
v 0.470711 0.080000 -0.345711
v 0.455403 0.100000 -0.330403
v 0.480000 0.100000 -0.271022
v 0.500000 0.080000 -0.275000
v 0.400000 0.080000 -0.375000
v 0.396022 0.100000 -0.355000
v 0.470711 0.080000 0.345711
v 0.455403 0.100000 0.330403
v 0.396022 0.100000 0.355000
v 0.400000 0.080000 0.375000
v 0.500000 0.080000 0.275000
v 0.480000 0.100000 0.271022
vt 0.645960 0.854962
vt 0.645960 0.862023
vt 0.643376 0.862023
vt 0.643376 0.854962
vt 0.724125 0.895038
vt 0.724125 0.895038
vt 0.729861 0.895038
vt 0.729861 0.895038
vt 0.651702 0.895038
vt 0.653693 0.895038
vt 0.652552 0.895038
vt 0.647311 0.895038
vt 0.650877 0.895038
vt 0.650877 0.895038
vt 0.645141 0.895038
vt 0.645141 0.895038
vt 0.721309 0.895038
vt 0.722450 0.895038
vt 0.721309 0.895038
vt 0.653693 0.895038
vt 0.652552 0.895038
vt 0.722450 0.895038
vt 0.651702 0.895038
vt 0.647311 0.895038
vt 0.645960 0.862023
vt 0.645960 0.854962
vt 0.643376 0.854962
vt 0.643376 0.862023
vt 0.729041 0.862023
vt 0.729041 0.854962
vt 0.722801 0.854962
vt 0.722801 0.862023
vt 0.723300 0.895038
vt 0.727690 0.895038
vt 0.729041 0.862023
vt 0.729041 0.854962
vt 0.731626 0.854962
vt 0.731626 0.862023
vt 0.723300 0.895038
vt 0.727690 0.895038
vt 0.729041 0.823712
vt 0.731626 0.823712
vt 0.731626 0.823712
vt 0.729041 0.823712
vt 0.721178 0.895038
vt 0.721178 0.895038
vt 0.653824 0.895038
vt 0.653824 0.895038
vt 0.722801 0.862023
vt 0.722801 0.854962
vt 0.731626 0.854962
vt 0.731626 0.862023
vt 0.652201 0.862023
vt 0.652201 0.854962
vt 0.652201 0.862023
vt 0.652201 0.854962
vt 0.652715 0.862905
vt 0.653956 0.862905
vt 0.652201 0.862905
vt 0.653956 0.862905
vt 0.652715 0.862905
vt 0.652201 0.862905
vt 0.722801 0.862905
vt 0.722287 0.862905
vt 0.721046 0.862905
vt 0.721046 0.862905
vt 0.722287 0.862905
vt 0.722801 0.862905
vt 0.645960 0.893273
vt 0.652201 0.893273
vt 0.643376 0.893273
vt 0.652201 0.893273
vt 0.645960 0.893273
vt 0.643376 0.893273
vt 0.731626 0.893273
vt 0.729041 0.893273
vt 0.722801 0.893273
vt 0.722801 0.893273
vt 0.729041 0.893273
vt 0.731626 0.893273
vt 0.643376 0.823712
vt 0.645960 0.823712
vt 0.645960 0.823712
vt 0.643376 0.823712
vt 0.652201 0.823712
vt 0.652201 0.823712
vt 0.722801 0.823712
vt 0.722801 0.823712
vn -0.7071 0.0000 0.7071
vn -0.6572 0.3689 0.6572
vn -0.9108 0.3710 0.1812
vn -0.9808 0.0000 0.1951
vn -0.2473 0.9677 0.0492
vn -0.2473 0.9677 -0.0492
vn 0.4092 0.9088 0.0814
vn 0.4092 0.9088 -0.0814
vn 0.1467 0.9783 0.1467
vn 0.0492 0.9677 0.2473
vn -0.0814 0.9088 -0.4092
vn -0.3095 0.8991 -0.3095
vn 0.2473 0.9677 -0.0492
vn 0.2473 0.9677 0.0492
vn -0.4092 0.9088 -0.0814
vn -0.4092 0.9088 0.0814
vn -0.0492 0.9677 0.2473
vn 0.0814 0.9088 -0.4092
vn -0.0492 0.9677 -0.2473
vn 0.0492 0.9677 -0.2473
vn -0.0814 0.9088 0.4092
vn 0.0814 0.9088 0.4092
vn 0.1467 0.9783 -0.1467
vn -0.3095 0.8991 0.3095
vn -0.6572 0.3689 -0.6572
vn -0.7071 0.0000 -0.7071
vn -0.9808 0.0000 -0.1951
vn -0.9108 0.3710 -0.1812
vn 0.6572 0.3689 -0.6572
vn 0.7071 0.0000 -0.7071
vn 0.1951 0.0000 -0.9808
vn 0.1812 0.3710 -0.9108
vn -0.1467 0.9783 0.1467
vn 0.3095 0.8991 -0.3095
vn 0.6572 0.3689 0.6572
vn 0.7071 0.0000 0.7071
vn 0.9808 0.0000 0.1951
vn 0.9108 0.3710 0.1812
vn -0.1467 0.9783 -0.1467
vn 0.3095 0.8991 0.3095
vn 0.0000 -1.0000 0.0000
vn 0.2132 0.9535 0.2132
vn 0.2132 0.9535 -0.2132
vn -0.2132 0.9535 -0.2132
vn -0.2132 0.9535 0.2132
vn 0.1812 0.3710 0.9108
vn 0.1951 0.0000 0.9808
vn 0.9808 0.0000 -0.1951
vn 0.9108 0.3710 -0.1812
vn -0.1812 0.3710 0.9108
vn -0.1951 0.0000 0.9808
vn -0.1812 0.3710 -0.9108
vn -0.1951 0.0000 -0.9808
vn -0.3467 0.8715 0.3467
vn -0.0827 0.8727 0.4812
vn 0.1068 0.8370 -0.5367
vn 0.3708 0.8515 -0.3708
vn -0.4812 0.8727 0.0827
vn 0.5367 0.8370 -0.1068
vn -0.0827 0.8727 -0.4812
vn -0.3467 0.8715 -0.3467
vn 0.3708 0.8515 0.3708
vn 0.1068 0.8370 0.5367
vn -0.4812 0.8727 -0.0827
vn 0.5367 0.8370 0.1068
vn 0.4812 0.8727 -0.0827
vn 0.3467 0.8715 -0.3467
vn -0.3708 0.8515 0.3708
vn -0.5367 0.8370 0.1068
vn 0.0827 0.8727 -0.4812
vn -0.1068 0.8370 0.5367
vn 0.0827 0.8727 0.4812
vn 0.3467 0.8715 0.3467
vn -0.3708 0.8515 -0.3708
vn -0.1068 0.8370 -0.5367
vn 0.4812 0.8727 0.0827
vn -0.5367 0.8370 -0.1068
usemtl tiny_treats_1
s 1
f 3/1/1 44/2/2 46/3/3 2/4/4
f 35/5/5 30/6/6 64/7/7 55/8/8
f 25/9/9 21/10/10 49/11/11 48/12/12
f 14/13/13 23/14/14 52/15/15 45/16/16
f 21/10/10 37/17/17 58/18/18 49/11/11
f 28/19/19 16/20/20 42/21/21 61/22/22
f 18/23/23 14/13/13 45/16/16 43/24/24
f 47/25/25 6/26/26 4/27/27 51/28/28
f 23/14/14 25/9/9 48/12/12 52/15/15
f 53/29/29 12/30/30 10/31/31 57/32/32
f 37/17/17 39/33/33 54/34/34 58/18/18
f 59/35/35 9/36/36 7/37/37 63/38/38
f 30/6/6 32/39/39 60/40/40 64/7/7
f 12/41/41 11/42/41 7/43/41 9/44/41
f 16/20/20 18/23/23 43/24/24 42/21/21
f 27/45/42 34/46/43 20/47/44 13/48/45
f 39/33/33 35/5/5 55/8/8 54/34/34
f 62/49/46 8/50/47 9/36/36 59/35/35
f 11/51/48 56/52/49 63/38/38 7/37/37
f 32/39/39 28/19/19 61/22/22 60/40/40
f 8/50/47 62/49/46 41/53/50 1/54/51
f 50/55/52 5/56/53 6/26/26 47/25/25
f 56/52/49 11/51/48 12/30/30 53/29/29
f 5/56/53 50/55/52 57/32/32 10/31/31
f 13/48/45 19/57/54 17/58/55
f 17/58/56 19/57/57 18/23/23 16/20/20
f 13/48/45 15/59/58 19/57/54
f 19/57/57 15/59/59 14/13/13 18/23/23
f 20/47/44 22/60/60 26/61/61
f 26/61/62 22/60/63 21/10/10 25/9/9
f 20/47/44 26/61/61 24/62/64
f 24/62/65 26/61/62 25/9/9 23/14/14
f 34/46/43 36/63/66 40/64/67
f 40/64/68 36/63/69 35/5/5 39/33/33
f 34/46/43 40/64/67 38/65/70
f 38/65/71 40/64/68 39/33/33 37/17/17
f 27/45/42 29/66/72 33/67/73
f 33/67/74 29/66/75 28/19/19 32/39/39
f 27/45/42 33/67/73 31/68/76
f 31/68/77 33/67/74 32/39/39 30/6/6
f 13/48/45 20/47/44 24/62/64 15/59/58
f 15/59/59 24/62/65 23/14/14 14/13/13
f 27/45/42 13/48/45 17/58/55 29/66/72
f 29/66/75 17/58/56 16/20/20 28/19/19
f 30/6/6 35/5/5 36/63/69 31/68/77
f 31/68/76 36/63/66 34/46/43 27/45/42
f 37/17/17 21/10/10 22/60/63 38/65/71
f 38/65/70 22/60/60 20/47/44 34/46/43
f 2/4/4 46/3/3 51/28/28 4/27/27
f 42/21/21 43/24/24 44/69/2 41/70/50
f 43/24/24 45/16/16 46/71/3 44/69/2
f 48/12/12 49/11/11 50/72/52 47/73/25
f 52/15/15 48/12/12 47/73/25 51/74/28
f 54/34/34 55/8/8 56/75/49 53/76/29
f 58/18/18 54/34/34 53/76/29 57/77/32
f 60/40/40 61/22/22 62/78/46 59/79/35
f 64/7/7 60/40/40 59/79/35 63/80/38
f 45/16/16 52/15/15 51/74/28 46/71/3
f 61/22/22 42/21/21 41/70/50 62/78/46
f 63/80/38 56/75/49 55/8/8 64/7/7
f 57/77/32 50/72/52 49/11/11 58/18/18
f 1/54/51 41/53/50 44/2/2 3/1/1
f 4/81/41 6/82/41 3/83/41 2/84/41
f 6/82/41 5/85/41 1/86/41 3/83/41
f 5/85/41 10/87/41 8/88/41 1/86/41
f 10/87/41 12/41/41 9/44/41 8/88/41
