# Blender v3.4.1 OBJ File: 'Tiny_Treats_Pleasant_Picnic_ASSETS_EXPORT.blend'
# www.blender.org
mtllib serving_tray_square_B.mtl
o serving_tray_square_B
v -0.388065 0.020000 0.315000
v -0.424789 0.020000 0.299789
v -0.388065 0.020000 -0.315000
v -0.424789 0.020000 -0.299789
v 0.388065 0.020000 0.315000
v 0.424789 0.020000 0.299789
v 0.388065 0.020000 -0.315000
v 0.424789 0.020000 -0.299789
v 0.231742 0.020000 -0.315000
v -0.231742 0.020000 -0.315000
v 0.231742 0.020000 0.315000
v -0.231742 0.020000 0.315000
v -0.440000 0.020000 0.263065
v -0.440000 0.020000 -0.263065
v 0.440000 0.020000 0.263065
v 0.440000 0.020000 -0.263065
v -0.440000 0.070000 0.080000
v -0.440000 0.090000 0.100000
v -0.440000 0.075858 0.094142
v -0.440000 0.090000 -0.100000
v -0.440000 0.070000 -0.080000
v -0.440000 0.075858 -0.094142
v -0.500000 0.090000 0.100000
v -0.500000 0.070000 0.080000
v -0.500000 0.075858 0.094142
v -0.500000 0.070000 -0.080000
v -0.500000 0.090000 -0.100000
v -0.500000 0.075858 -0.094142
v -0.500000 0.130000 0.080000
v -0.500000 0.110000 0.100000
v -0.500000 0.124142 0.094142
v -0.500000 0.110000 -0.100000
v -0.500000 0.130000 -0.080000
v -0.500000 0.124142 -0.094142
v -0.440000 0.110000 0.100000
v -0.440000 0.130000 0.080000
v -0.440000 0.124142 0.094142
v -0.440000 0.130000 -0.080000
v -0.440000 0.110000 -0.100000
v -0.440000 0.124142 -0.094142
v 0.440000 0.090000 0.100000
v 0.440000 0.070000 0.080000
v 0.440000 0.075858 0.094142
v 0.440000 0.070000 -0.080000
v 0.440000 0.090000 -0.100000
v 0.440000 0.075858 -0.094142
v 0.500000 0.090000 -0.100000
v 0.500000 0.070000 -0.080000
v 0.500000 0.075858 -0.094142
v 0.500000 0.070000 0.080000
v 0.500000 0.090000 0.100000
v 0.500000 0.075858 0.094142
v 0.500000 0.130000 -0.080000
v 0.500000 0.110000 -0.100000
v 0.500000 0.124142 -0.094142
v 0.500000 0.110000 0.100000
v 0.500000 0.130000 0.080000
v 0.500000 0.124142 0.094142
v 0.440000 0.110000 -0.100000
v 0.440000 0.130000 -0.080000
v 0.440000 0.124142 -0.094142
v 0.440000 0.130000 0.080000
v 0.440000 0.110000 0.100000
v 0.440000 0.124142 0.094142
v -0.400000 0.139891 0.375000
v -0.398012 0.150000 0.365006
v -0.463061 0.150000 0.338061
v -0.470711 0.139906 0.345711
v -0.470711 0.139906 -0.345711
v -0.463061 0.150000 -0.338061
v -0.398012 0.150000 -0.365006
v -0.400000 0.139891 -0.375000
v 0.470711 0.139906 -0.345711
v 0.463061 0.150000 -0.338061
v 0.400000 0.139891 -0.375000
v 0.398012 0.150000 -0.365006
v 0.470711 0.139906 0.345711
v 0.463061 0.150000 0.338061
v 0.398012 0.150000 0.365006
v 0.400000 0.139891 0.375000
v -0.390053 0.150000 0.324993
v -0.388065 0.139876 0.315000
v -0.424789 0.139892 0.299789
v -0.432437 0.150000 0.307437
v -0.432438 0.150000 -0.307438
v -0.424789 0.139892 -0.299789
v -0.388065 0.139876 -0.315000
v -0.390053 0.150000 -0.324993
v 0.432437 0.150000 -0.307437
v 0.424789 0.139892 -0.299789
v 0.390053 0.150000 -0.324993
v 0.388065 0.139876 -0.315000
v 0.432438 0.150000 0.307438
v 0.424789 0.139892 0.299789
v 0.388065 0.139876 0.315000
v 0.390053 0.150000 0.324993
v 0.231742 0.089884 -0.375000
v 0.231742 0.100000 -0.364991
v -0.231742 0.100000 -0.364991
v -0.231742 0.089884 -0.375000
v 0.231742 0.100000 -0.325010
v 0.231742 0.089867 -0.315000
v -0.231742 0.089867 -0.315000
v -0.231742 0.100000 -0.325010
v 0.231742 0.100000 0.364991
v 0.231742 0.089884 0.375000
v -0.231742 0.089884 0.375000
v -0.231742 0.100000 0.364991
v 0.231742 0.089867 0.315000
v 0.231742 0.100000 0.325010
v -0.231742 0.100000 0.325010
v -0.231742 0.089867 0.315000
v 0.500000 0.139913 0.275000
v 0.490005 0.150000 0.273012
v 0.490005 0.150000 -0.273012
v 0.500000 0.139913 -0.275000
v -0.500000 0.139913 -0.275000
v -0.490005 0.150000 -0.273012
v -0.490005 0.150000 0.273012
v -0.500000 0.139913 0.275000
v -0.440000 0.139900 0.263065
v -0.449994 0.150000 0.265053
v -0.449994 0.150000 -0.265053
v -0.440000 0.139900 -0.263065
v 0.449994 0.150000 0.265053
v 0.440000 0.139900 0.263065
v 0.440000 0.139900 -0.263065
v 0.449994 0.150000 -0.265053
v -0.396022 -0.000000 0.355000
v -0.400000 0.020000 0.375000
v -0.500000 0.020000 0.275000
v -0.480000 -0.000000 0.271022
v -0.470711 0.020000 0.345711
v -0.455403 -0.000000 0.330403
v -0.480000 -0.000000 -0.271022
v -0.500000 0.020000 -0.275000
v -0.400000 0.020000 -0.375000
v -0.396022 -0.000000 -0.355000
v -0.455403 -0.000000 -0.330403
v -0.470711 0.020000 -0.345711
v 0.480000 -0.000000 0.271022
v 0.500000 0.020000 0.275000
v 0.400000 0.020000 0.375000
v 0.396022 -0.000000 0.355000
v 0.455403 -0.000000 0.330403
v 0.470711 0.020000 0.345711
v 0.396022 -0.000000 -0.355000
v 0.400000 0.020000 -0.375000
v 0.500000 0.020000 -0.275000
v 0.480000 -0.000000 -0.271022
v 0.455403 -0.000000 -0.330403
v 0.470711 0.020000 -0.345711
v 0.000000 0.020000 -0.375000
v 0.000000 -0.000000 -0.355000
v 0.000000 0.020000 0.375000
v 0.000000 -0.000000 0.355000
vt 0.706960 0.891875
vt 0.721088 0.896074
vt 0.721088 0.886007
vt 0.687500 0.886007
vt 0.651831 0.917257
vt 0.651831 0.917257
vt 0.650554 0.917257
vt 0.650554 0.917257
vt 0.651189 0.928173
vt 0.649715 0.928173
vt 0.646355 0.928173
vt 0.648617 0.928173
vt 0.668041 0.886007
vt 0.706960 0.886007
vt 0.706960 0.891873
vt 0.668041 0.891873
vt 0.645516 0.890697
vt 0.645516 0.891885
vt 0.645516 0.886007
vt 0.649715 0.928173
vt 0.651189 0.928173
vt 0.648617 0.928173
vt 0.646355 0.928173
vt 0.653913 0.886007
vt 0.653913 0.896074
vt 0.668041 0.891875
vt 0.720253 0.928173
vt 0.723812 0.928173
vt 0.726384 0.928173
vt 0.720921 0.928173
vt 0.729485 0.891885
vt 0.729485 0.890697
vt 0.729485 0.886007
vt 0.725286 0.928173
vt 0.723812 0.928173
vt 0.726384 0.928173
vt 0.728646 0.928173
vt 0.721088 0.886007
vt 0.721088 0.896074
vt 0.706960 0.891875
vt 0.687500 0.886007
vt 0.645516 0.891885
vt 0.645516 0.890697
vt 0.645516 0.886007
vt 0.729485 0.890205
vt 0.729485 0.890205
vt 0.729485 0.886007
vt 0.668041 0.886007
vt 0.654915 0.886007
vt 0.654915 0.896073
vt 0.668041 0.891873
vt 0.720086 0.886007
vt 0.706960 0.886007
vt 0.706960 0.891873
vt 0.720086 0.896073
vt 0.706960 0.923974
vt 0.706960 0.923974
vt 0.724447 0.886007
vt 0.723170 0.886007
vt 0.723170 0.896074
vt 0.724447 0.896075
vt 0.724447 0.894752
vt 0.724447 0.893564
vt 0.720086 0.886007
vt 0.720086 0.896073
vt 0.654247 0.853077
vt 0.687500 0.853077
vt 0.687500 0.853077
vt 0.654247 0.853077
vt 0.645516 0.890205
vt 0.654748 0.928173
vt 0.668041 0.923974
vt 0.668041 0.923974
vt 0.654080 0.928173
vt 0.725286 0.928173
vt 0.728646 0.928173
vt 0.725741 0.853077
vt 0.725741 0.853077
vt 0.727806 0.853077
vt 0.727806 0.853077
vt 0.727026 0.896075
vt 0.727026 0.886007
vt 0.645516 0.894752
vt 0.645516 0.895243
vt 0.645516 0.896076
vt 0.654748 0.928173
vt 0.654080 0.928173
vt 0.729485 0.890697
vt 0.720253 0.928173
vt 0.720921 0.928173
vt 0.650554 0.893564
vt 0.650554 0.894752
vt 0.650554 0.896075
vt 0.651831 0.886007
vt 0.654915 0.886007
vt 0.654915 0.896073
vt 0.651831 0.896074
vt 0.651831 0.886007
vt 0.650554 0.886007
vt 0.651831 0.896074
vt 0.650554 0.886007
vt 0.650554 0.896075
vt 0.724447 0.895243
vt 0.723170 0.886007
vt 0.723170 0.896074
vt 0.724447 0.886007
vt 0.724447 0.896075
vt 0.706960 0.923974
vt 0.668041 0.923974
vt 0.668041 0.923974
vt 0.706960 0.923974
vt 0.729485 0.896076
vt 0.727026 0.896075
vt 0.727026 0.886007
vt 0.668041 0.891875
vt 0.729485 0.895243
vt 0.729485 0.895243
vt 0.729485 0.896076
vt 0.729485 0.894752
vt 0.706960 0.917257
vt 0.706960 0.917257
vt 0.668041 0.917257
vt 0.668041 0.917257
vt 0.720086 0.917257
vt 0.720086 0.917257
vt 0.647975 0.886007
vt 0.647975 0.896075
vt 0.645516 0.896076
vt 0.645516 0.895243
vt 0.645516 0.894752
vt 0.650554 0.862314
vt 0.650554 0.860635
vt 0.645516 0.860635
vt 0.645516 0.862314
vt 0.724447 0.860635
vt 0.724447 0.862314
vt 0.729485 0.862314
vt 0.729485 0.860635
vt 0.729485 0.893564
vt 0.729485 0.894752
vt 0.645516 0.893564
vt 0.650554 0.863993
vt 0.650554 0.863993
vt 0.645516 0.863993
vt 0.645516 0.863993
vt 0.724447 0.863993
vt 0.724447 0.863993
vt 0.729485 0.863993
vt 0.729485 0.863993
vt 0.724447 0.862314
vt 0.724447 0.860635
vt 0.729485 0.860635
vt 0.729485 0.862314
vt 0.650554 0.860635
vt 0.650554 0.862314
vt 0.645516 0.862314
vt 0.645516 0.860635
vt 0.650554 0.890205
vt 0.650554 0.890205
vt 0.729485 0.891885
vt 0.650554 0.895243
vt 0.650554 0.894752
vt 0.650554 0.895243
vt 0.724447 0.894752
vt 0.724447 0.895243
vt 0.724447 0.890205
vt 0.724447 0.890205
vt 0.650554 0.890697
vt 0.650554 0.891885
vt 0.650554 0.891885
vt 0.650554 0.890697
vt 0.645516 0.893564
vt 0.645516 0.890205
vt 0.647975 0.886007
vt 0.647975 0.896075
vt 0.650554 0.893564
vt 0.645516 0.858955
vt 0.650554 0.858955
vt 0.650554 0.859447
vt 0.645516 0.859447
vt 0.645516 0.863502
vt 0.650554 0.863502
vt 0.645516 0.863502
vt 0.650554 0.863502
vt 0.650554 0.858955
vt 0.645516 0.858955
vt 0.645516 0.859447
vt 0.650554 0.859447
vt 0.724447 0.891885
vt 0.724447 0.890697
vt 0.724447 0.890697
vt 0.724447 0.891885
vt 0.729485 0.893564
vt 0.724447 0.893564
vt 0.729485 0.858955
vt 0.724447 0.858955
vt 0.724447 0.859447
vt 0.729485 0.859447
vt 0.729485 0.863502
vt 0.724447 0.863502
vt 0.729485 0.863502
vt 0.724447 0.863502
vt 0.724447 0.858955
vt 0.729485 0.858955
vt 0.729485 0.859447
vt 0.724447 0.859447
vt 0.647975 0.927325
vt 0.653913 0.927324
vt 0.645516 0.927326
vt 0.653913 0.927324
vt 0.647975 0.927325
vt 0.645516 0.927326
vt 0.729485 0.927326
vt 0.727026 0.927325
vt 0.721088 0.927324
vt 0.721088 0.927324
vt 0.727026 0.927325
vt 0.729485 0.927326
vt 0.668041 0.923125
vt 0.668041 0.923125
vt 0.654915 0.927323
vt 0.651831 0.927324
vt 0.650554 0.927325
vt 0.651831 0.927324
vt 0.654915 0.927323
vt 0.650554 0.927325
vt 0.723170 0.927324
vt 0.724447 0.927325
vt 0.720086 0.927323
vt 0.723170 0.927324
vt 0.720086 0.927323
vt 0.724447 0.927325
vt 0.668041 0.923123
vt 0.668041 0.923123
vt 0.706960 0.923125
vt 0.706960 0.923123
vt 0.706960 0.923125
vt 0.706960 0.923123
vt 0.653913 0.896074
vt 0.653913 0.886007
vt 0.649260 0.853077
vt 0.653913 0.854757
vt 0.647975 0.854757
vt 0.647195 0.853077
vt 0.645516 0.854757
vt 0.649260 0.853077
vt 0.647975 0.854757
vt 0.653913 0.854757
vt 0.647195 0.853077
vt 0.645516 0.854757
vt 0.727026 0.854757
vt 0.729485 0.854757
vt 0.720754 0.853077
vt 0.721088 0.854757
vt 0.720754 0.853077
vt 0.727026 0.854757
vt 0.721088 0.854757
vt 0.729485 0.854757
vt 0.687500 0.854757
vt 0.687500 0.854757
vt 0.654915 0.917257
vt 0.654915 0.917257
vt 0.723170 0.917257
vt 0.723170 0.917257
vt 0.724447 0.917257
vt 0.724447 0.917257
vn -0.0471 0.3455 -0.9372
vn 0.1238 0.3986 -0.9087
vn 0.1812 -0.3710 -0.9108
vn 0.0000 -0.3827 -0.9239
vn 0.0000 1.0000 0.0000
vn 0.2000 0.9592 -0.2000
vn 0.3321 0.9409 -0.0660
vn -0.4115 0.9077 0.0819
vn -0.3113 0.8978 0.3114
vn -0.0000 0.0000 1.0000
vn -0.0510 0.3485 0.9359
vn 0.0510 0.3485 0.9359
vn -1.0000 0.0000 0.0000
vn -0.9108 -0.3710 -0.1812
vn 0.3321 0.9409 0.0660
vn 0.2000 0.9592 0.2000
vn -0.3113 0.8978 -0.3114
vn -0.4115 0.9077 -0.0819
vn -0.1812 -0.3710 -0.9108
vn -0.1238 0.3986 -0.9087
vn 0.0471 0.3455 -0.9372
vn -0.2066 0.9305 0.3023
vn -0.2000 0.9592 0.2000
vn 0.3113 0.8978 -0.3114
vn -0.0456 0.9102 -0.4116
vn 1.0000 0.0000 0.0000
vn 0.9108 -0.3710 -0.1812
vn -0.3321 0.9409 -0.0660
vn -0.2000 0.9592 -0.2000
vn 0.3113 0.8978 0.3114
vn 0.4115 0.9077 0.0819
vn 0.1812 -0.3710 0.9108
vn 0.1238 0.3986 0.9087
vn -0.0471 0.3455 0.9372
vn 0.0000 -0.3827 0.9239
vn -0.9108 -0.3710 0.1812
vn 0.9108 -0.3710 0.1812
vn -0.0000 0.0000 -1.0000
vn 0.1951 0.0000 -0.9808
vn 0.2516 0.4282 -0.8680
vn 0.0510 0.3485 -0.9359
vn -0.1951 0.0000 -0.9808
vn -0.0510 0.3485 -0.9359
vn -0.2516 0.4282 -0.8680
vn -0.1443 0.9114 0.3854
vn -0.1381 0.9035 -0.4058
vn -0.9808 0.0000 -0.1951
vn -0.7071 0.0000 -0.7071
vn -0.6354 0.4388 -0.6354
vn -0.8977 0.4028 -0.1786
vn -0.1951 0.0000 0.9808
vn -0.2516 0.4282 0.8680
vn -0.0814 -0.9088 -0.4092
vn 0.0000 -0.9239 -0.3827
vn 0.0000 -0.9239 0.3827
vn -0.0814 -0.9088 0.4092
vn 0.2066 0.9305 0.3023
vn 0.1443 0.9114 0.3854
vn 0.1381 0.9035 -0.4058
vn 0.0456 0.9102 -0.4116
vn -0.3321 0.9409 0.0660
vn 0.4115 0.9077 -0.0819
vn 0.3095 -0.8991 0.3095
vn 0.3095 -0.8991 -0.3095
vn 0.4092 -0.9088 -0.0814
vn 0.4092 -0.9088 0.0814
vn 0.6578 0.3669 -0.6578
vn 0.6572 -0.3689 -0.6572
vn -0.9116 0.3690 -0.1813
vn 0.2066 0.9305 -0.3023
vn 0.0456 0.9102 0.4116
vn -0.2066 0.9305 -0.3023
vn -0.0456 0.9102 0.4116
vn 0.8977 0.4028 -0.1786
vn 0.7071 0.0000 0.7071
vn 0.1951 0.0000 0.9808
vn 0.2516 0.4282 0.8680
vn 0.6354 0.4388 0.6354
vn 0.7071 0.0000 -0.7071
vn 0.9808 0.0000 -0.1951
vn 0.6354 0.4388 -0.6354
vn 0.9808 0.0000 0.1951
vn 0.8977 0.4028 0.1786
vn -0.7071 0.0000 0.7071
vn -0.6354 0.4388 0.6354
vn -0.9808 0.0000 0.1951
vn -0.8977 0.4028 0.1786
vn -0.1443 0.9114 -0.3854
vn 0.1443 0.9114 -0.3854
vn 0.1381 0.9035 0.4058
vn -0.1381 0.9035 0.4058
vn 0.9116 0.3690 0.1813
vn 0.6578 0.3669 0.6578
vn 0.6572 -0.3689 0.6572
vn 0.0471 0.3455 0.9372
vn 0.9116 0.3690 -0.1813
vn -0.6572 -0.3689 0.6572
vn -0.6578 0.3669 0.6578
vn -0.9116 0.3690 0.1813
vn 0.0000 -0.1951 -0.9808
vn 0.0000 0.1951 -0.9808
vn 0.0000 -0.9808 0.1951
vn 0.0000 -0.9808 -0.1951
vn 0.0000 -0.1951 0.9808
vn 0.0000 0.1951 0.9808
vn -0.6572 -0.3689 -0.6572
vn -0.6578 0.3669 -0.6578
vn 0.0000 0.9808 0.1951
vn 0.0000 0.7071 0.7071
vn 0.0000 -0.7071 0.7071
vn 0.0000 -0.7071 -0.7071
vn 0.0000 0.9808 -0.1951
vn 0.0000 0.7071 -0.7071
vn -0.1238 0.3986 0.9087
vn -0.1812 -0.3710 0.9108
vn -0.3095 -0.8991 0.3095
vn -0.4092 -0.9088 0.0814
vn -0.3095 -0.8991 -0.3095
vn -0.4092 -0.9088 -0.0814
vn 0.0814 -0.9088 -0.4092
vn 0.0814 -0.9088 0.4092
usemtl tiny_treats_1
s 1
f 97/1/1 75/2/2 148/3/3 153/4/4
f 2/5/5 4/6/5 14/7/5 13/8/5
f 84/9/6 122/10/7 119/11/8 67/12/9
f 10/13/10 9/14/10 102/15/11 103/16/12
f 28/17/13 27/18/13 136/19/14
f 123/20/15 85/21/16 70/22/17 118/23/18
f 137/24/19 72/25/20 100/26/21 153/4/4
f 91/27/22 89/28/23 74/29/24 76/30/25
f 47/31/26 49/32/26 149/33/27
f 125/34/28 93/35/29 78/36/30 114/37/31
f 143/38/32 80/39/33 106/40/34 155/41/35
f 23/42/13 25/43/13 131/44/36
f 149/33/27 48/45/26 50/46/26 142/47/37
f 12/48/38 1/49/39 82/50/40 112/51/41
f 5/52/42 11/53/38 109/54/43 95/55/44
f 101/56/45 91/27/22 76/30/25 98/57/46
f 15/58/47 6/59/48 94/60/49 126/61/50
f 64/62/13 63/63/13 126/61/50
f 9/14/10 7/64/51 92/65/52 102/15/11
f 11/53/38 12/48/38 112/51/41 109/54/43
f 138/66/53 154/67/54 156/68/55 129/69/56
f 25/43/13 24/70/13 131/44/36
f 88/71/57 104/72/58 99/73/59 71/74/60
f 85/21/16 88/71/57 71/74/60 70/22/17
f 49/32/26 48/45/26 149/33/27
f 89/28/23 128/75/61 115/76/62 74/29/24
f 145/77/63 151/78/64 150/79/65 141/80/66
f 148/3/3 75/2/2 73/81/67 152/82/68
f 34/83/13 33/84/13 117/85/69
f 81/86/70 84/9/6 67/12/9 66/87/71
f 50/46/26 52/88/26 142/47/37
f 93/35/29 96/89/72 79/90/73 78/36/30
f 35/91/26 37/92/26 121/93/74
f 4/94/75 3/95/76 87/96/77 86/97/78
f 2/98/79 13/99/80 121/93/74 83/100/81
f 14/101/82 4/94/75 86/97/78 124/102/83
f 62/103/13 64/62/13 126/61/50
f 3/95/76 10/13/10 103/16/12 87/96/77
f 6/59/48 5/52/42 95/55/44 94/60/49
f 7/64/51 8/104/84 90/105/85 92/65/52
f 8/104/84 16/106/86 127/107/87 90/105/85
f 110/108/88 111/109/89 108/110/90 105/111/91
f 142/47/37 113/112/92 77/113/93 146/114/94
f 155/41/35 106/40/34 107/115/95
f 96/89/72 110/108/88 105/111/91 79/90/73
f 104/72/58 101/56/45 98/57/46 99/73/59
f 113/112/92 57/116/26 53/117/26 116/118/96
f 1/49/39 2/98/79 83/100/81 82/50/40
f 53/117/26 55/119/26 116/118/96
f 11/120/5 9/121/5 10/122/5 12/123/5
f 5/124/5 7/125/5 9/121/5 11/120/5
f 133/126/97 68/127/98 120/128/99 131/44/36
f 29/129/13 31/130/13 120/128/99
f 35/131/100 18/132/101 23/133/101 30/134/100
f 41/135/101 63/136/100 56/137/100 51/138/101
f 56/139/26 58/140/26 113/112/92
f 58/140/26 57/116/26 113/112/92
f 32/141/13 34/83/13 117/85/69
f 38/142/102 36/143/103 29/144/103 33/145/102
f 62/146/103 60/147/102 53/148/102 57/149/103
f 122/10/7 123/20/15 118/23/18 119/11/8
f 59/150/104 45/151/105 47/152/105 54/153/104
f 20/154/105 39/155/104 32/156/104 27/157/105
f 14/101/82 21/158/26 17/159/26 13/99/80
f 52/88/26 51/160/26 142/47/37
f 38/161/26 40/162/26 124/102/83
f 37/92/26 36/163/26 121/93/74
f 61/164/13 60/165/13 127/107/87
f 15/58/47 42/166/13 44/167/13 16/106/86
f 17/159/26 19/168/26 13/99/80
f 19/168/26 18/169/26 13/99/80
f 20/170/26 22/171/26 14/101/82
f 22/171/26 21/158/26 14/101/82
f 120/128/99 30/172/13 23/42/13 131/44/36
f 131/44/36 24/70/13 26/173/13 136/19/14
f 140/174/106 69/175/107 72/25/20 137/24/19
f 136/19/14 27/18/13 32/141/13 117/85/69
f 31/130/13 30/172/13 120/128/99
f 121/93/74 36/163/26 38/161/26 124/102/83
f 26/173/13 28/17/13 136/19/14
f 136/19/14 117/85/69 69/175/107 140/174/106
f 13/99/80 18/169/26 35/91/26 121/93/74
f 124/102/83 39/176/26 20/170/26 14/101/82
f 40/162/26 39/176/26 124/102/83
f 127/107/87 60/165/13 62/103/13 126/61/50
f 26/177/108 21/178/108 22/179/109 28/180/109
f 28/180/109 22/179/109 20/154/105 27/157/105
f 38/142/102 33/145/102 34/181/110 40/182/110
f 40/182/110 34/181/110 32/156/104 39/155/104
f 35/131/100 30/134/100 31/183/111 37/184/111
f 37/184/111 31/183/111 29/144/103 36/143/103
f 17/185/112 24/186/112 25/187/113 19/188/113
f 19/188/113 25/187/113 23/133/101 18/132/101
f 17/185/112 21/178/108 26/177/108 24/186/112
f 111/109/89 81/86/70 66/87/71 108/110/90
f 41/189/13 43/190/13 15/58/47
f 43/190/13 42/166/13 15/58/47
f 44/167/13 46/191/13 16/106/86
f 46/191/13 45/192/13 16/106/86
f 116/118/96 54/193/26 47/31/26 149/33/27
f 152/82/68 73/81/67 116/118/96 149/33/27
f 146/114/94 77/113/93 80/39/33 143/38/32
f 142/47/37 51/160/26 56/139/26 113/112/92
f 117/85/69 33/84/13 29/129/13 120/128/99
f 153/4/4 100/26/21 97/1/1
f 128/75/61 125/34/28 114/37/31 115/76/62
f 55/119/26 54/193/26 116/118/96
f 59/194/13 61/164/13 127/107/87
f 16/106/86 45/192/13 59/194/13 127/107/87
f 126/61/50 63/63/13 41/189/13 15/58/47
f 50/195/112 42/196/112 43/197/113 52/198/113
f 52/198/113 43/197/113 41/135/101 51/138/101
f 62/146/103 57/149/103 58/199/111 64/200/111
f 64/200/111 58/199/111 56/137/100 63/136/100
f 59/150/104 54/153/104 55/201/110 61/202/110
f 61/202/110 55/201/110 53/148/102 60/147/102
f 44/203/108 48/204/108 49/205/109 46/206/109
f 46/206/109 49/205/109 47/152/105 45/151/105
f 44/203/108 42/196/112 50/195/112 48/204/108
f 66/87/71 67/12/9 68/207/98 65/208/114
f 67/12/9 119/11/8 120/209/99 68/207/98
f 70/22/17 71/74/60 72/210/20 69/211/107
f 118/23/18 70/22/17 69/211/107 117/212/69
f 74/29/24 115/76/62 116/213/96 73/214/67
f 76/30/25 74/29/24 73/214/67 75/215/2
f 78/36/30 79/90/73 80/216/33 77/217/93
f 114/37/31 78/36/30 77/217/93 113/218/92
f 119/11/8 118/23/18 117/212/69 120/209/99
f 108/110/90 66/87/71 65/208/114 107/219/95
f 113/218/92 116/213/96 115/76/62 114/37/31
f 100/220/21 72/210/20 71/74/60 99/73/59
f 82/221/40 83/222/81 84/9/6 81/86/70
f 83/222/81 121/223/74 122/10/7 84/9/6
f 86/224/78 87/225/77 88/71/57 85/21/16
f 124/226/83 86/224/78 85/21/16 123/20/15
f 90/227/85 127/228/87 128/75/61 89/28/23
f 92/229/52 90/227/85 89/28/23 91/27/22
f 94/230/49 95/231/44 96/89/72 93/35/29
f 126/232/50 94/230/49 93/35/29 125/34/28
f 121/223/74 124/226/83 123/20/15 122/10/7
f 112/233/41 82/221/40 81/86/70 111/109/89
f 125/34/28 128/75/61 127/228/87 126/232/50
f 104/72/58 88/71/57 87/225/77 103/234/12
f 75/215/2 97/235/1 98/57/46 76/30/25
f 97/235/1 100/220/21 99/73/59 98/57/46
f 91/27/22 101/56/45 102/236/11 92/229/52
f 101/56/45 104/72/58 103/234/12 102/236/11
f 79/90/73 105/111/91 106/237/34 80/216/33
f 105/111/91 108/110/90 107/219/95 106/237/34
f 95/231/44 109/238/43 110/108/88 96/89/72
f 109/238/43 112/233/41 111/109/89 110/108/88
f 107/115/95 65/239/114 130/240/115 155/41/35
f 134/241/116 129/69/56 130/242/115 133/243/97
f 132/244/117 134/241/116 133/243/97 131/245/36
f 138/66/53 139/246/118 140/247/106 137/248/19
f 139/246/118 135/249/119 136/250/14 140/247/106
f 150/79/65 151/78/64 152/251/68 149/252/27
f 151/78/64 147/253/120 148/254/3 152/251/68
f 144/255/121 145/77/63 146/256/94 143/257/32
f 145/77/63 141/80/66 142/258/37 146/256/94
f 131/245/36 136/250/14 135/249/119 132/244/117
f 149/252/27 142/258/37 141/80/66 150/79/65
f 137/248/19 153/259/4 154/67/54 138/66/53
f 143/257/32 155/260/35 156/68/55 144/255/121
f 153/259/4 148/254/3 147/253/120 154/67/54
f 155/260/35 130/242/115 129/69/56 156/68/55
f 130/240/115 65/239/114 68/127/98 133/126/97
f 135/249/119 139/246/118 134/241/116 132/244/117
f 139/246/118 138/66/53 129/69/56 134/241/116
f 156/68/55 154/67/54 147/253/120 144/255/121
f 144/255/121 147/253/120 151/78/64 145/77/63
f 1/261/5 3/262/5 4/6/5 2/5/5
f 12/123/5 10/122/5 3/262/5 1/261/5
f 8/263/5 7/125/5 5/124/5 6/264/5
f 16/265/5 8/263/5 6/264/5 15/266/5
