# Blender v3.4.1 OBJ File: 'Tiny_Treats_Pleasant_Picnic_ASSETS_EXPORT.blend'
# www.blender.org
mtllib serving_tray_round.mtl
o serving_tray_round
v -0.000000 -0.000000 0.000000
v 0.082549 0.100000 -0.415000
v -0.000000 0.100000 -0.000000
v 0.079565 0.090000 -0.400000
v 0.235079 0.100000 -0.351820
v 0.226582 0.090000 -0.339104
v 0.351820 0.100000 -0.235079
v 0.339104 0.090000 -0.226582
v 0.415000 0.100000 -0.082549
v 0.400000 0.090000 -0.079565
v 0.415000 0.100000 0.082549
v 0.400000 0.090000 0.079565
v 0.351820 0.100000 0.235079
v 0.339104 0.090000 0.226582
v 0.235079 0.100000 0.351820
v 0.226582 0.090000 0.339104
v 0.082549 0.100000 0.415000
v 0.079565 0.090000 0.400000
v -0.082549 0.100000 0.415000
v -0.079565 0.090000 0.400000
v -0.235079 0.100000 0.351820
v -0.226582 0.090000 0.339104
v -0.351820 0.100000 0.235079
v -0.339104 0.090000 0.226582
v -0.415000 0.100000 0.082549
v -0.400000 0.090000 0.079565
v -0.415000 0.100000 -0.082549
v -0.400000 0.090000 -0.079565
v -0.351820 0.100000 -0.235079
v -0.339104 0.090000 -0.226582
v -0.235079 0.100000 -0.351820
v -0.226582 0.090000 -0.339104
v -0.082549 0.100000 -0.415000
v -0.079565 0.090000 -0.400000
v 0.076581 0.100000 -0.385000
v 0.218085 0.100000 -0.326387
v 0.326387 0.100000 -0.218085
v 0.385000 0.100000 -0.076581
v 0.385000 0.100000 0.076581
v 0.326387 0.100000 0.218085
v 0.218085 0.100000 0.326387
v 0.076581 0.100000 0.385000
v -0.076581 0.100000 0.385000
v -0.218085 0.100000 0.326387
v -0.326387 0.100000 0.218085
v -0.385000 0.100000 0.076581
v -0.385000 0.100000 -0.076581
v -0.326387 0.100000 -0.218085
v -0.218085 0.100000 -0.326387
v -0.076581 0.100000 -0.385000
v 0.099456 -0.000000 -0.500000
v 0.283227 -0.000000 -0.423880
v 0.423880 -0.000000 -0.283227
v 0.500000 -0.000000 -0.099456
v 0.500000 -0.000000 0.099456
v 0.423880 -0.000000 0.283227
v 0.283227 -0.000000 0.423880
v 0.099456 -0.000000 0.500000
v -0.099456 -0.000000 0.500000
v -0.283227 -0.000000 0.423880
v -0.423880 -0.000000 0.283227
v -0.500000 -0.000000 0.099456
v -0.500000 -0.000000 -0.099456
v -0.423879 -0.000000 -0.283227
v -0.283227 -0.000000 -0.423880
v -0.099456 -0.000000 -0.500000
v 0.271898 0.100000 -0.406924
v 0.283227 0.080000 -0.423880
v 0.099456 0.080000 -0.500000
v 0.095478 0.100000 -0.480000
v 0.406924 0.100000 -0.271898
v 0.423880 0.080000 -0.283227
v 0.480000 0.100000 -0.095478
v 0.500000 0.080000 -0.099456
v 0.480000 0.100000 0.095478
v 0.500000 0.080000 0.099456
v 0.406924 0.100000 0.271898
v 0.423880 0.080000 0.283227
v 0.271898 0.100000 0.406924
v 0.283227 0.080000 0.423880
v 0.095478 0.100000 0.480000
v 0.099456 0.080000 0.500000
v -0.095478 0.100000 0.480000
v -0.099456 0.080000 0.500000
v -0.271898 0.100000 0.406924
v -0.283227 0.080000 0.423880
v -0.406924 0.100000 0.271898
v -0.423880 0.080000 0.283227
v -0.480000 0.100000 0.095478
v -0.500000 0.080000 0.099456
v -0.480000 0.100000 -0.095478
v -0.500000 0.080000 -0.099456
v -0.406924 0.100000 -0.271898
v -0.423879 0.080000 -0.283227
v -0.271898 0.100000 -0.406924
v -0.283227 0.080000 -0.423880
v -0.095478 0.100000 -0.480000
v -0.099456 0.080000 -0.500000
vt 0.716755 0.854211
vt 0.716755 0.862474
vt 0.731283 0.862474
vt 0.731283 0.854211
vt 0.711782 0.895789
vt 0.723840 0.895789
vt 0.729531 0.895789
vt 0.715585 0.895789
vt 0.730366 0.895789
vt 0.737079 0.895789
vt 0.730366 0.895789
vt 0.737079 0.895789
vt 0.723840 0.895789
vt 0.729531 0.895789
vt 0.711782 0.895789
vt 0.715585 0.895789
vt 0.696027 0.895789
vt 0.697363 0.895789
vt 0.678975 0.895789
vt 0.677639 0.895789
vt 0.663220 0.895789
vt 0.659417 0.895789
vt 0.651162 0.895789
vt 0.645470 0.895789
vt 0.644636 0.895789
vt 0.637923 0.895789
vt 0.644636 0.895789
vt 0.637923 0.895789
vt 0.651162 0.895789
vt 0.645470 0.895789
vt 0.663220 0.895789
vt 0.659417 0.895789
vt 0.739145 0.862474
vt 0.739145 0.854211
vt 0.678975 0.895789
vt 0.677639 0.895789
vt 0.696027 0.895789
vt 0.697363 0.895789
vt 0.739145 0.862474
vt 0.739145 0.854211
vt 0.731283 0.862474
vt 0.731283 0.854211
vt 0.716755 0.862474
vt 0.716755 0.854211
vt 0.697774 0.862474
vt 0.697774 0.854211
vt 0.677228 0.862474
vt 0.677228 0.854211
vt 0.658247 0.862474
vt 0.658247 0.854211
vt 0.643719 0.862474
vt 0.643719 0.854211
vt 0.635857 0.862474
vt 0.635857 0.854211
vt 0.635857 0.862474
vt 0.635857 0.854211
vt 0.643719 0.862474
vt 0.643719 0.854211
vt 0.658247 0.862474
vt 0.658247 0.854211
vt 0.677228 0.862474
vt 0.677228 0.854211
vt 0.697774 0.862474
vt 0.697774 0.854211
vt 0.695719 0.863506
vt 0.710904 0.863506
vt 0.695411 0.895789
vt 0.710026 0.895789
vt 0.722527 0.863506
vt 0.721213 0.895789
vt 0.728816 0.863506
vt 0.727267 0.895789
vt 0.728816 0.863506
vt 0.727267 0.895789
vt 0.722527 0.863506
vt 0.721213 0.895789
vt 0.710904 0.863507
vt 0.710026 0.895789
vt 0.695719 0.863507
vt 0.695411 0.895789
vt 0.679283 0.863507
vt 0.679591 0.895789
vt 0.664098 0.863507
vt 0.664975 0.895789
vt 0.652475 0.863506
vt 0.653789 0.895789
vt 0.646186 0.863506
vt 0.647735 0.895789
vt 0.646186 0.863506
vt 0.647735 0.895789
vt 0.652475 0.863506
vt 0.653789 0.895789
vt 0.664098 0.863506
vt 0.664975 0.895789
vt 0.679283 0.863506
vt 0.679591 0.895789
vt 0.687501 0.895789
vt 0.687501 0.822961
vt 0.697774 0.822961
vt 0.716755 0.822961
vt 0.731283 0.822961
vt 0.739145 0.822961
vt 0.739145 0.822961
vt 0.731283 0.822961
vt 0.716755 0.822961
vt 0.697774 0.822961
vt 0.677228 0.822961
vt 0.658247 0.822961
vt 0.643719 0.822961
vt 0.635857 0.822961
vt 0.635857 0.822961
vt 0.643719 0.822961
vt 0.658247 0.822961
vt 0.677228 0.822961
vt 0.716755 0.893724
vt 0.697774 0.893724
vt 0.731283 0.893724
vt 0.739145 0.893724
vt 0.739145 0.893724
vt 0.731283 0.893724
vt 0.716755 0.893724
vt 0.697774 0.893724
vt 0.677228 0.893724
vt 0.658247 0.893724
vt 0.643719 0.893724
vt 0.635857 0.893724
vt 0.635857 0.893724
vt 0.643719 0.893724
vt 0.658247 0.893724
vt 0.677228 0.893724
vn 0.5556 0.0000 -0.8315
vn 0.5159 0.3710 -0.7721
vn 0.7721 0.3710 -0.5159
vn 0.8315 0.0000 -0.5556
vn -0.1401 0.9677 0.2096
vn -0.2096 0.9677 0.1401
vn 0.3469 0.9088 -0.2318
vn 0.2318 0.9088 -0.3469
vn -0.2473 0.9677 0.0492
vn 0.4092 0.9088 -0.0814
vn -0.2473 0.9677 -0.0492
vn 0.4092 0.9088 0.0814
vn -0.2096 0.9677 -0.1401
vn 0.3469 0.9088 0.2318
vn -0.1401 0.9677 -0.2096
vn 0.2318 0.9088 0.3469
vn -0.0492 0.9677 -0.2473
vn 0.0814 0.9088 0.4092
vn 0.0492 0.9677 -0.2473
vn -0.0814 0.9088 0.4092
vn 0.1401 0.9677 -0.2096
vn -0.2318 0.9088 0.3469
vn 0.2096 0.9677 -0.1401
vn -0.3469 0.9088 0.2318
vn 0.2473 0.9677 -0.0492
vn -0.4092 0.9088 0.0814
vn 0.2473 0.9677 0.0492
vn -0.4092 0.9088 -0.0814
vn 0.2096 0.9677 0.1401
vn -0.3469 0.9088 -0.2318
vn 0.1401 0.9677 0.2096
vn -0.2318 0.9088 -0.3469
vn 0.9108 0.3710 -0.1812
vn 0.9808 0.0000 -0.1951
vn 0.0492 0.9677 0.2473
vn -0.0814 0.9088 -0.4092
vn -0.0492 0.9677 0.2473
vn 0.0814 0.9088 -0.4092
vn 0.9108 0.3710 0.1812
vn 0.9808 0.0000 0.1951
vn 0.7721 0.3710 0.5159
vn 0.8315 0.0000 0.5556
vn 0.5159 0.3710 0.7721
vn 0.5556 0.0000 0.8315
vn 0.1812 0.3710 0.9108
vn 0.1951 0.0000 0.9808
vn -0.1812 0.3710 0.9108
vn -0.1951 0.0000 0.9808
vn -0.5159 0.3710 0.7721
vn -0.5556 0.0000 0.8315
vn -0.7721 0.3710 0.5159
vn -0.8315 0.0000 0.5556
vn -0.9108 0.3710 0.1812
vn -0.9808 0.0000 0.1951
vn -0.9108 0.3710 -0.1812
vn -0.9808 0.0000 -0.1951
vn -0.7721 0.3710 -0.5159
vn -0.8315 0.0000 -0.5556
vn -0.5159 0.3710 -0.7721
vn -0.5556 0.0000 -0.8315
vn -0.1812 0.3710 -0.9108
vn -0.1951 0.0000 -0.9808
vn 0.1812 0.3710 -0.9108
vn 0.1951 0.0000 -0.9808
vn -0.1068 0.8370 0.5367
vn -0.3040 0.8370 0.4550
vn 0.3040 0.8370 -0.4550
vn 0.1068 0.8370 -0.5367
vn 0.0620 0.9482 -0.3115
vn 0.1764 0.9482 -0.2641
vn -0.4550 0.8370 0.3040
vn 0.4550 0.8370 -0.3040
vn 0.2641 0.9482 -0.1764
vn -0.5367 0.8370 0.1068
vn 0.5367 0.8370 -0.1068
vn 0.3115 0.9482 -0.0620
vn -0.5367 0.8370 -0.1068
vn 0.5367 0.8370 0.1068
vn 0.3115 0.9482 0.0620
vn -0.4550 0.8370 -0.3040
vn 0.4550 0.8370 0.3040
vn 0.2641 0.9482 0.1764
vn -0.3040 0.8370 -0.4550
vn 0.3040 0.8370 0.4550
vn 0.1764 0.9482 0.2641
vn -0.1068 0.8370 -0.5367
vn 0.1068 0.8370 0.5367
vn 0.0620 0.9482 0.3115
vn -0.0620 0.9482 0.3115
vn -0.1764 0.9482 0.2641
vn -0.2641 0.9482 0.1764
vn -0.3115 0.9482 0.0620
vn -0.3115 0.9482 -0.0620
vn -0.2641 0.9482 -0.1764
vn -0.1764 0.9482 -0.2641
vn -0.0620 0.9482 -0.3115
vn 0.0000 1.0000 0.0000
vn 0.0000 -1.0000 -0.0000
usemtl tiny_treats_1
s 1
f 52/1/1 68/2/2 72/3/3 53/4/4
f 5/5/5 7/6/6 71/7/7 67/8/8
f 7/6/6 9/9/9 73/10/10 71/7/7
f 9/9/9 11/11/11 75/12/12 73/10/10
f 11/11/11 13/13/13 77/14/14 75/12/12
f 13/13/13 15/15/15 79/16/16 77/14/14
f 15/15/15 17/17/17 81/18/18 79/16/16
f 17/17/17 19/19/19 83/20/20 81/18/18
f 19/19/19 21/21/21 85/22/22 83/20/20
f 21/21/21 23/23/23 87/24/24 85/22/22
f 23/23/23 25/25/25 89/26/26 87/24/24
f 25/25/25 27/27/27 91/28/28 89/26/26
f 27/27/27 29/29/29 93/30/30 91/28/28
f 29/29/29 31/31/31 95/32/32 93/30/30
f 53/4/4 72/3/3 74/33/33 54/34/34
f 31/31/31 33/35/35 97/36/36 95/32/32
f 33/35/35 2/37/37 70/38/38 97/36/36
f 54/34/34 74/33/33 76/39/39 55/40/40
f 55/40/40 76/39/39 78/41/41 56/42/42
f 56/42/42 78/41/41 80/43/43 57/44/44
f 57/44/44 80/43/43 82/45/45 58/46/46
f 58/46/46 82/45/45 84/47/47 59/48/48
f 59/48/48 84/47/47 86/49/49 60/50/50
f 60/50/50 86/49/49 88/51/51 61/52/52
f 61/52/52 88/51/51 90/53/53 62/54/54
f 62/54/54 90/53/53 92/55/55 63/56/56
f 63/56/56 92/55/55 94/57/57 64/58/58
f 64/58/58 94/57/57 96/59/59 65/60/60
f 65/60/60 96/59/59 98/61/61 66/62/62
f 66/62/62 98/61/61 69/63/63 51/64/64
f 5/5/5 2/37/37 4/65/65 6/66/66
f 6/66/67 4/65/68 35/67/69 36/68/70
f 7/6/6 5/5/5 6/66/66 8/69/71
f 8/69/72 6/66/67 36/68/70 37/70/73
f 9/9/9 7/6/6 8/69/71 10/71/74
f 10/71/75 8/69/72 37/70/73 38/72/76
f 11/11/11 9/9/9 10/71/74 12/73/77
f 12/73/78 10/71/75 38/72/76 39/74/79
f 13/13/13 11/11/11 12/73/77 14/75/80
f 14/75/81 12/73/78 39/74/79 40/76/82
f 15/15/15 13/13/13 14/75/80 16/77/83
f 16/77/84 14/75/81 40/76/82 41/78/85
f 17/17/17 15/15/15 16/77/83 18/79/86
f 18/79/87 16/77/84 41/78/85 42/80/88
f 19/19/19 17/17/17 18/79/86 20/81/68
f 20/81/65 18/79/87 42/80/88 43/82/89
f 21/21/21 19/19/19 20/81/68 22/83/67
f 22/83/66 20/81/65 43/82/89 44/84/90
f 23/23/23 21/21/21 22/83/67 24/85/72
f 24/85/71 22/83/66 44/84/90 45/86/91
f 25/25/25 23/23/23 24/85/72 26/87/75
f 26/87/74 24/85/71 45/86/91 46/88/92
f 27/27/27 25/25/25 26/87/75 28/89/78
f 28/89/77 26/87/74 46/88/92 47/90/93
f 29/29/29 27/27/27 28/89/78 30/91/81
f 30/91/80 28/89/77 47/90/93 48/92/94
f 31/31/31 29/29/29 30/91/81 32/93/84
f 32/93/83 30/91/80 48/92/94 49/94/95
f 33/35/35 31/31/31 32/93/84 34/95/87
f 34/95/86 32/93/83 49/94/95 50/96/96
f 2/37/37 33/35/35 34/95/87 4/65/65
f 4/65/68 34/95/86 50/96/96 35/67/69
f 51/64/64 69/63/63 68/2/2 52/1/1
f 3/97/97 36/68/70 35/67/69
f 3/97/97 37/70/73 36/68/70
f 3/97/97 38/72/76 37/70/73
f 3/97/97 39/74/79 38/72/76
f 3/97/97 40/76/82 39/74/79
f 3/97/97 41/78/85 40/76/82
f 3/97/97 42/80/88 41/78/85
f 3/97/97 43/82/89 42/80/88
f 3/97/97 44/84/90 43/82/89
f 3/97/97 45/86/91 44/84/90
f 3/97/97 46/88/92 45/86/91
f 3/97/97 47/90/93 46/88/92
f 3/97/97 48/92/94 47/90/93
f 3/97/97 49/94/95 48/92/94
f 3/97/97 50/96/96 49/94/95
f 3/97/97 35/67/69 50/96/96
f 1/98/98 51/99/98 52/100/98
f 1/98/98 52/100/98 53/101/98
f 1/98/98 53/101/98 54/102/98
f 1/98/98 54/102/98 55/103/98
f 1/98/98 55/103/98 56/104/98
f 1/98/98 56/104/98 57/105/98
f 1/98/98 57/105/98 58/106/98
f 1/98/98 58/106/98 59/107/98
f 1/98/98 59/107/98 60/108/98
f 1/98/98 60/108/98 61/109/98
f 1/98/98 61/109/98 62/110/98
f 1/98/98 62/110/98 63/111/98
f 1/98/98 63/111/98 64/112/98
f 1/98/98 64/112/98 65/113/98
f 1/98/98 65/113/98 66/114/98
f 1/98/98 66/114/98 51/99/98
f 68/115/2 69/116/63 70/38/38 67/8/8
f 72/117/3 68/115/2 67/8/8 71/7/7
f 74/118/33 72/117/3 71/7/7 73/10/10
f 76/119/39 74/118/33 73/10/10 75/12/12
f 78/120/41 76/119/39 75/12/12 77/14/14
f 80/121/43 78/120/41 77/14/14 79/16/16
f 82/122/45 80/121/43 79/16/16 81/18/18
f 84/123/47 82/122/45 81/18/18 83/20/20
f 86/124/49 84/123/47 83/20/20 85/22/22
f 88/125/51 86/124/49 85/22/22 87/24/24
f 90/126/53 88/125/51 87/24/24 89/26/26
f 92/127/55 90/126/53 89/26/26 91/28/28
f 94/128/57 92/127/55 91/28/28 93/30/30
f 96/129/59 94/128/57 93/30/30 95/32/32
f 98/130/61 96/129/59 95/32/32 97/36/36
f 69/116/63 98/130/61 97/36/36 70/38/38
f 2/37/37 5/5/5 67/8/8 70/38/38
