# Blender v3.4.1 OBJ File: 'Tiny_Treats_Pleasant_Picnic_ASSETS_EXPORT.blend'
# www.blender.org
mtllib spoon.mtl
o spoon
v -0.029040 -0.016816 0.144739
v 0.029042 -0.016816 0.144739
v -0.049547 -0.017502 0.110867
v 0.049546 -0.017502 0.110867
v -0.029040 0.010152 0.145311
v 0.029042 0.010152 0.145311
v -0.049547 0.018456 0.111629
v 0.049546 0.018456 0.111629
v 0.000001 -0.021818 0.147705
v -0.000000 -0.026492 0.110677
v 0.000001 0.014140 0.148467
v -0.000000 0.027446 0.111819
v 0.041966 0.015392 -0.115097
v 0.041966 -0.016346 -0.115947
v 0.000000 -0.024280 -0.116160
v -0.041966 0.015392 -0.115097
v -0.041966 -0.016346 -0.115947
v 0.000000 0.023327 -0.114885
v 0.000018 -0.029926 -0.155233
v -0.032671 -0.022394 -0.153752
v 0.032704 -0.022394 -0.153752
v 0.000016 0.012829 -0.156853
v -0.032672 0.006903 -0.154765
v 0.032703 0.006903 -0.154765
v -0.042226 -0.018922 0.133537
v 0.042229 -0.018922 0.133537
v -0.042226 0.015497 0.134266
v 0.042229 0.015497 0.134266
v 0.029019 -0.003665 0.147037
v -0.029017 -0.003665 0.147037
v -0.056979 0.000477 0.111248
v 0.056978 0.000477 0.111248
v 0.000001 -0.004600 0.152677
v 0.000001 0.024067 0.134846
v 0.000001 -0.027623 0.133751
v -0.048261 -0.000477 -0.115522
v 0.048261 -0.000477 -0.115522
v -0.037341 -0.007742 -0.154259
v 0.037373 -0.007742 -0.154259
v -0.048173 -0.001745 0.134100
v 0.048175 -0.001745 0.134100
v -0.052847 0.024681 -0.119622
v -0.040164 0.016742 -0.159219
v 0.052847 0.024684 -0.119616
v 0.040197 0.016742 -0.159215
v 0.054174 -0.025361 -0.117540
v 0.040115 -0.033237 -0.154266
v -0.040079 -0.033239 -0.154271
v -0.054174 -0.025359 -0.117548
v 0.000017 0.025551 -0.160157
v -0.000001 0.036049 -0.118147
v -0.000001 -0.037328 -0.114619
v -0.063844 0.000037 -0.119863
v 0.063847 0.000037 -0.119854
v 0.000019 -0.042974 -0.153650
v -0.049792 -0.008208 -0.158446
v 0.049827 -0.008207 -0.158437
v -0.049623 0.024527 -0.141218
v 0.049640 0.024529 -0.141210
v 0.050495 -0.033317 -0.136267
v -0.050476 -0.033317 -0.136277
v 0.000008 0.035876 -0.140469
v 0.000009 -0.045349 -0.133434
v -0.061761 -0.004146 -0.140905
v 0.061782 -0.004145 -0.140892
v -0.071369 -0.035173 -0.376606
v 0.071369 -0.035173 -0.376606
v -0.071794 -0.060056 -0.225078
v 0.071794 -0.060056 -0.225078
v -0.037591 -0.043748 -0.192292
v 0.037591 -0.043748 -0.192292
v -0.034034 -0.020490 -0.419718
v 0.034034 -0.020490 -0.419718
v -0.070846 0.001137 -0.374143
v 0.070846 0.001137 -0.374143
v -0.071381 -0.026707 -0.224525
v 0.071381 -0.026707 -0.224525
v -0.036977 -0.017417 -0.194297
v 0.036977 -0.017417 -0.194297
v -0.033968 0.007805 -0.417936
v 0.033968 0.007805 -0.417936
v 0.000000 -0.045167 -0.375973
v -0.000000 -0.069092 -0.226117
v -0.000000 -0.049896 -0.193329
v -0.000000 -0.024513 -0.423470
v -0.000000 -0.007353 -0.372180
v 0.000000 -0.035613 -0.226580
v 0.000000 -0.015912 -0.195573
v -0.000000 0.010779 -0.420994
v 0.093246 -0.052445 -0.292648
v -0.093246 -0.052445 -0.292648
v 0.092278 -0.011934 -0.290215
v -0.092278 -0.011934 -0.290215
v -0.000000 -0.025638 -0.289870
v 0.000000 -0.063595 -0.293112
v 0.087177 -0.043755 -0.336159
v -0.040372 -0.043952 -0.376138
v -0.087308 -0.059004 -0.254413
v -0.040690 -0.067990 -0.225932
v -0.021149 -0.049143 -0.193160
v -0.018584 -0.023781 -0.422870
v -0.050308 -0.027794 -0.405555
v 0.050308 -0.027794 -0.405555
v 0.086358 -0.005008 -0.333676
v -0.039356 -0.001856 -0.372352
v -0.086329 -0.020631 -0.252473
v -0.039766 -0.030034 -0.226431
v -0.020500 -0.015252 -0.195440
v -0.018396 0.010968 -0.420567
v -0.050097 0.007137 -0.403197
v 0.050097 0.007137 -0.403197
v -0.044274 -0.030391 -0.191464
v -0.034067 -0.005650 -0.422079
v 0.034067 -0.005650 -0.422079
v -0.083520 -0.041419 -0.223917
v -0.083080 -0.014821 -0.376194
v 0.083080 -0.014821 -0.376194
v 0.083520 -0.041419 -0.223917
v 0.044274 -0.030391 -0.191464
v 0.040372 -0.043952 -0.376138
v 0.040690 -0.067990 -0.225932
v 0.021149 -0.049143 -0.193160
v 0.018584 -0.023781 -0.422870
v 0.039356 -0.001856 -0.372352
v 0.039766 -0.030034 -0.226431
v 0.020500 -0.015252 -0.195440
v 0.018396 0.010968 -0.420567
v -0.000000 -0.004221 -0.429277
v -0.000000 0.005827 -0.400956
v -0.000000 -0.017609 -0.332684
v 0.000000 -0.037109 -0.405355
v -0.000000 -0.069511 -0.255432
v 0.087308 -0.059004 -0.254413
v -0.087177 -0.043755 -0.336159
v 0.086329 -0.020631 -0.252473
v -0.086358 -0.005008 -0.333676
v 0.000000 -0.033093 -0.252908
v 0.000000 -0.054444 -0.336075
v -0.052787 -0.062260 -0.293066
v -0.051647 -0.017850 -0.289915
v -0.108556 -0.029041 -0.291406
v 0.108556 -0.029041 -0.291406
v 0.051647 -0.017850 -0.289915
v 0.052787 -0.062260 -0.293066
v 0.049351 -0.053160 -0.336113
v 0.028373 -0.035960 -0.405409
v 0.048238 -0.010387 -0.332754
v 0.027661 0.008615 -0.401225
v -0.015351 -0.004314 -0.428380
v -0.058028 -0.009223 -0.405551
v 0.058028 -0.009223 -0.405551
v 0.101535 -0.021456 -0.335392
v -0.101546 -0.036991 -0.252941
v 0.015351 -0.004314 -0.428380
v -0.027661 0.008615 -0.401225
v -0.048238 -0.010387 -0.332754
v -0.028373 -0.035960 -0.405409
v -0.049351 -0.053160 -0.336113
v -0.049407 -0.068261 -0.255297
v -0.048270 -0.025873 -0.252915
v -0.101535 -0.021456 -0.335392
v 0.101546 -0.036991 -0.252941
v 0.048270 -0.025873 -0.252915
v 0.049407 -0.068261 -0.255297
vt 0.187479 0.385821
vt 0.198290 0.384068
vt 0.203200 0.386418
vt 0.187479 0.390186
vt 0.187479 0.336209
vt 0.203200 0.340035
vt 0.198290 0.340960
vt 0.187479 0.338761
vt 0.207149 0.372417
vt 0.210099 0.379394
vt 0.208691 0.379814
vt 0.205924 0.371909
vt 0.173115 0.401008
vt 0.187486 0.397696
vt 0.187486 0.391959
vt 0.169857 0.396240
vt 0.176666 0.372210
vt 0.187479 0.370011
vt 0.187479 0.377582
vt 0.176677 0.377992
vt 0.205924 0.387719
vt 0.187479 0.391671
vt 0.198290 0.372210
vt 0.198282 0.377992
vt 0.187479 0.337679
vt 0.207149 0.341167
vt 0.205924 0.340659
vt 0.187479 0.336706
vt 0.203910 0.407450
vt 0.201857 0.413889
vt 0.205153 0.418215
vt 0.209386 0.407245
vt 0.169035 0.371909
vt 0.171757 0.371285
vt 0.169546 0.378837
vt 0.166267 0.379814
vt 0.176666 0.384068
vt 0.171757 0.386418
vt 0.169035 0.387719
vt 0.207149 0.386372
vt 0.164857 0.379394
vt 0.167807 0.372417
vt 0.203200 0.371285
vt 0.205412 0.378837
vt 0.171757 0.340035
vt 0.169035 0.340659
vt 0.167807 0.341167
vt 0.176666 0.340960
vt 0.187479 0.358610
vt 0.207149 0.355122
vt 0.210715 0.359207
vt 0.187479 0.364204
vt 0.201857 0.401008
vt 0.205117 0.396240
vt 0.167807 0.355122
vt 0.164242 0.359206
vt 0.210099 0.348144
vt 0.215551 0.348370
vt 0.167807 0.386372
vt 0.187479 0.389860
vt 0.211297 0.337203
vt 0.214643 0.377782
vt 0.209680 0.364955
vt 0.205117 0.364990
vt 0.209386 0.375995
vt 0.209680 0.333705
vt 0.187483 0.328415
vt 0.187486 0.329459
vt 0.205117 0.333740
vt 0.187483 0.395378
vt 0.187479 0.395454
vt 0.210715 0.390457
vt 0.209305 0.390389
vt 0.205153 0.386965
vt 0.160324 0.377781
vt 0.159407 0.379620
vt 0.164242 0.390456
vt 0.165660 0.390388
vt 0.165285 0.333705
vt 0.169857 0.333740
vt 0.165586 0.375995
vt 0.169857 0.364990
vt 0.165285 0.364955
vt 0.187479 0.322054
vt 0.167807 0.325542
vt 0.163660 0.321579
vt 0.187479 0.316316
vt 0.164857 0.348144
vt 0.159407 0.348370
vt 0.187484 0.416494
vt 0.187484 0.422088
vt 0.173113 0.413889
vt 0.171060 0.407450
vt 0.165586 0.407245
vt 0.169819 0.418215
vt 0.163660 0.337204
vt 0.207149 0.325542
vt 0.211297 0.321578
vt 0.163660 0.368454
vt 0.169819 0.386965
vt 0.187484 0.390838
vt 0.187479 0.331941
vt 0.215551 0.379620
vt 0.211297 0.368453
vt 0.313743 0.817437
vt 0.313743 0.820316
vt 0.329152 0.820705
vt 0.330238 0.817848
vt 0.313743 0.823236
vt 0.326298 0.823588
vt 0.335578 0.826048
vt 0.340540 0.823424
vt 0.342432 0.820722
vt 0.320304 0.821810
vt 0.326426 0.815998
vt 0.335800 0.818254
vt 0.325154 0.823252
vt 0.325154 0.860750
vt 0.335800 0.857966
vt 0.326426 0.856756
vt 0.320304 0.861546
vt 0.313748 0.826802
vt 0.324068 0.829180
vt 0.324068 0.869680
vt 0.313747 0.871550
vt 0.313743 0.825699
vt 0.322501 0.826012
vt 0.313743 0.829260
vt 0.319414 0.829440
vt 0.323994 0.830314
vt 0.328999 0.828233
vt 0.313743 0.858143
vt 0.330238 0.860616
vt 0.329152 0.862975
vt 0.313743 0.860685
vt 0.342432 0.862547
vt 0.340540 0.864721
vt 0.335578 0.866695
vt 0.326298 0.865689
vt 0.313743 0.863961
vt 0.291685 0.849504
vt 0.302331 0.854502
vt 0.300620 0.857756
vt 0.288375 0.854428
vt 0.313743 0.854998
vt 0.313743 0.861363
vt 0.303429 0.860430
vt 0.301953 0.865056
vt 0.322501 0.868971
vt 0.313743 0.868124
vt 0.328999 0.868655
vt 0.323994 0.869008
vt 0.319414 0.869842
vt 0.313743 0.869744
vt 0.303427 0.869680
vt 0.302331 0.860750
vt 0.324068 0.860430
vt 0.325154 0.854502
vt 0.326865 0.857756
vt 0.325542 0.865056
vt 0.313743 0.860510
vt 0.308071 0.860690
vt 0.309089 0.866034
vt 0.313743 0.866053
vt 0.303491 0.861564
vt 0.303555 0.865642
vt 0.303491 0.869008
vt 0.308071 0.869842
vt 0.291685 0.857966
vt 0.335800 0.849504
vt 0.339110 0.854428
vt 0.298486 0.859483
vt 0.296341 0.864485
vt 0.291908 0.857298
vt 0.288632 0.862690
vt 0.291908 0.866695
vt 0.298486 0.868655
vt 0.335578 0.857298
vt 0.328999 0.859483
vt 0.331144 0.864485
vt 0.338854 0.862690
vt 0.323994 0.861564
vt 0.323930 0.865642
vt 0.342432 0.851972
vt 0.340540 0.854674
vt 0.344561 0.860591
vt 0.346735 0.858221
vt 0.307181 0.861546
vt 0.285054 0.851972
vt 0.286916 0.849916
vt 0.282892 0.855774
vt 0.280751 0.858221
vt 0.286916 0.859846
vt 0.285054 0.862547
vt 0.301059 0.856756
vt 0.319414 0.860690
vt 0.318396 0.866034
vt 0.301187 0.865689
vt 0.304984 0.868971
vt 0.302331 0.823252
vt 0.307181 0.821810
vt 0.303429 0.829180
vt 0.291685 0.818254
vt 0.301059 0.815998
vt 0.297247 0.860616
vt 0.298333 0.862975
vt 0.286945 0.864721
vt 0.291908 0.826048
vt 0.298486 0.828233
vt 0.304984 0.826012
vt 0.301187 0.823588
vt 0.303491 0.830314
vt 0.308071 0.829440
vt 0.313743 0.821604
vt 0.313743 0.815676
vt 0.285054 0.820722
vt 0.286945 0.823424
vt 0.298333 0.820705
vt 0.297247 0.817848
vt 0.286916 0.818666
vt 0.298317 0.815972
vt 0.313743 0.815588
vt 0.298317 0.858074
vt 0.313743 0.855780
vt 0.286945 0.854674
vt 0.282925 0.860591
vt 0.340569 0.849916
vt 0.344593 0.855774
vt 0.340569 0.859846
vt 0.329168 0.858074
vt 0.329168 0.815972
vt 0.340569 0.818666
vn 0.0000 0.5412 0.8409
vn 0.3207 0.4510 0.8329
vn 0.5539 0.6487 0.5220
vn 0.0000 0.9243 0.3816
vn 0.0000 -0.9830 0.1833
vn 0.1931 -0.9766 0.0951
vn 0.1908 -0.9034 0.3841
vn 0.0000 -0.9203 0.3913
vn 0.9265 -0.3749 -0.0335
vn 0.9993 -0.0066 -0.0378
vn 0.9891 0.0067 0.1474
vn 0.9210 -0.3654 0.1353
vn 0.1221 -0.0318 -0.9920
vn 0.0001 -0.0381 -0.9993
vn 0.0991 -0.0328 -0.9945
vn -0.3916 -0.2143 0.8948
vn -0.0000 -0.2327 0.9726
vn 0.0000 -0.0306 0.9995
vn -0.3780 -0.0264 0.9254
vn 0.1848 0.9806 0.0648
vn -0.0000 0.9973 0.0740
vn 0.3916 -0.2143 0.8948
vn 0.3780 -0.0264 0.9254
vn 0.0000 -0.9999 -0.0105
vn 0.1819 -0.9833 -0.0103
vn 0.1852 -0.9826 -0.0167
vn -0.0000 -0.9998 -0.0177
vn -0.2894 -0.0891 -0.9530
vn -0.1875 -0.2341 -0.9540
vn -0.1723 -0.2424 -0.9548
vn -0.2887 -0.0881 -0.9534
vn -0.9209 -0.3654 0.1354
vn -0.7634 -0.2748 0.5845
vn -0.8176 -0.0194 0.5754
vn -0.9890 0.0067 0.1474
vn -0.3207 0.4510 0.8329
vn -0.5539 0.6486 0.5220
vn -0.9193 0.3588 0.1616
vn 0.9258 0.3763 -0.0366
vn 0.9193 0.3588 0.1615
vn -0.9993 -0.0066 -0.0378
vn -0.9265 -0.3749 -0.0335
vn 0.7635 -0.2748 0.5844
vn 0.8177 -0.0194 0.5754
vn -0.1848 0.9806 0.0648
vn -0.1931 -0.9766 0.0951
vn -0.1852 -0.9826 -0.0167
vn -0.1819 -0.9833 -0.0103
vn -0.1908 -0.9034 0.3841
vn -0.0001 0.2990 0.9543
vn 0.1723 0.2111 0.9622
vn 0.1970 0.1874 0.9623
vn -0.1217 -0.0319 -0.9921
vn -0.0988 -0.0330 -0.9946
vn -0.1726 0.2113 0.9621
vn -0.1974 0.1876 0.9622
vn 0.2400 0.0352 0.9701
vn 0.2410 0.0370 0.9698
vn -0.9258 0.3763 -0.0366
vn 0.1817 0.9832 -0.0186
vn 0.0000 0.9998 -0.0189
vn 0.1026 -0.0076 0.9947
vn 0.1312 -0.0148 0.9912
vn 0.9466 -0.0142 -0.3220
vn 0.8814 -0.3843 -0.2746
vn 0.8004 -0.3847 -0.4598
vn 0.8377 -0.0661 -0.5422
vn 0.2340 -0.9554 0.1804
vn -0.0000 -0.9915 0.1300
vn 0.0001 -0.9919 -0.1272
vn 0.2274 -0.9659 -0.1238
vn 0.0000 0.9693 -0.2458
vn -0.0001 0.9997 -0.0236
vn 0.2158 0.9762 -0.0230
vn 0.6002 0.7326 -0.3210
vn 0.5084 0.6555 -0.5585
vn -0.9464 -0.0142 -0.3227
vn -0.9933 0.0535 -0.1024
vn -0.9067 0.3932 -0.1528
vn -0.6001 0.7326 -0.3213
vn -0.2341 -0.9554 0.1803
vn -0.2274 -0.9659 -0.1239
vn -0.2159 0.9761 -0.0232
vn -0.8373 -0.0661 -0.5428
vn -0.8000 -0.3847 -0.4604
vn -0.8812 -0.3843 -0.2754
vn -0.0001 0.0117 0.9999
vn -0.1030 -0.0078 0.9947
vn -0.1316 -0.0151 0.9912
vn -0.2405 0.0352 0.9700
vn -0.2415 0.0369 0.9697
vn 0.0001 -0.3177 -0.9482
vn 0.0000 -0.3177 -0.9482
vn 0.1879 -0.2342 -0.9538
vn 0.2901 -0.0891 -0.9528
vn 0.2893 -0.0880 -0.9532
vn 0.1726 -0.2425 -0.9547
vn -0.9322 -0.3612 -0.0252
vn -0.5081 0.6554 -0.5588
vn 0.0001 0.8810 -0.4732
vn -0.0001 -0.9282 0.3721
vn -0.2273 -0.9039 0.3623
vn 0.9934 0.0535 -0.1016
vn 0.9067 0.3933 -0.1522
vn 0.2272 -0.9039 0.3625
vn 0.9322 -0.3612 -0.0244
vn -0.0000 -0.9834 -0.1817
vn 0.0000 -0.9759 -0.2183
vn 0.1376 -0.9618 -0.2369
vn 0.1363 -0.9744 -0.1789
vn 0.0000 -0.9685 -0.2490
vn 0.1527 -0.9421 -0.2985
vn 0.5506 -0.6939 -0.4639
vn 0.5757 -0.7583 -0.3058
vn 0.5969 -0.7906 -0.1366
vn 0.1113 -0.8474 0.5192
vn 0.1295 -0.9430 0.3064
vn 0.4804 -0.7433 0.4656
vn 0.4290 -0.6666 0.6097
vn 0.0670 0.9032 -0.4240
vn -0.0909 0.9957 -0.0150
vn -0.0877 0.9843 -0.1534
vn 0.0222 0.8631 -0.5046
vn 0.0001 -0.8627 0.5057
vn 0.6338 -0.6234 0.4579
vn 0.1722 0.8424 -0.5105
vn 0.0000 0.8419 -0.5396
vn 0.0000 -0.9034 -0.4289
vn 0.1575 -0.8651 -0.4763
vn 0.0000 -0.5782 -0.8159
vn 0.1522 -0.5401 -0.8277
vn 0.3842 -0.4114 -0.8265
vn 0.4906 -0.5852 -0.6457
vn 0.0000 0.9816 0.1912
vn -0.1414 0.9718 0.1888
vn -0.1319 0.9704 0.2025
vn -0.0000 0.9768 0.2143
vn -0.1375 0.9725 0.1882
vn -0.1248 0.9734 0.1919
vn -0.0726 0.9692 0.2353
vn -0.0879 0.9566 0.2778
vn -0.0000 0.9471 0.3211
vn -0.4804 -0.7433 0.4656
vn -0.4289 -0.6665 0.6098
vn -0.7468 -0.3706 0.5522
vn -0.6888 -0.4606 0.5598
vn 0.0000 0.9784 -0.2065
vn 0.0000 0.8342 -0.5515
vn -0.6334 -0.6234 0.4584
vn -0.8692 -0.3563 0.3430
vn -0.0093 0.9764 0.2157
vn -0.0000 0.9533 0.3020
vn 0.0290 0.9793 0.2005
vn 0.1212 0.9926 -0.0024
vn -0.0051 0.9909 0.1344
vn -0.0000 0.9804 0.1969
vn -0.7932 0.5010 0.3461
vn -0.9173 0.3852 -0.1014
vn -0.8691 0.4661 0.1653
vn 0.7470 -0.3707 0.5519
vn 0.8694 -0.3563 0.3423
vn -0.1522 -0.5401 -0.8277
vn -0.1495 0.0987 -0.9838
vn 0.0000 0.1058 -0.9944
vn -0.3842 -0.4114 -0.8265
vn -0.4426 0.0790 -0.8932
vn -0.4494 0.3386 -0.8267
vn -0.1684 0.4039 -0.8992
vn -0.0000 0.4667 -0.8844
vn -0.6486 0.5586 0.5170
vn -0.6428 0.5418 0.5416
vn 0.6888 -0.4606 0.5598
vn -0.4906 -0.5852 -0.6457
vn -0.7152 0.0912 -0.6929
vn -0.5506 -0.6939 -0.4639
vn -0.7500 -0.4135 -0.5162
vn -0.7375 0.6016 -0.3069
vn -0.7347 0.5728 -0.3635
vn -0.6616 0.4063 -0.6302
vn 0.7152 0.0912 -0.6929
vn 0.7500 -0.4135 -0.5162
vn 0.4426 0.0790 -0.8932
vn 0.4494 0.3386 -0.8267
vn 0.6616 0.4063 -0.6302
vn 0.7375 0.6016 -0.3069
vn 0.7347 0.5728 -0.3635
vn 0.8067 -0.4986 -0.3171
vn 0.8360 -0.5390 -0.1025
vn 0.7362 0.6715 -0.0838
vn 0.7370 0.6662 -0.1138
vn 0.7250 0.6738 0.1425
vn 0.7261 0.6754 0.1291
vn 0.9172 0.3851 -0.1021
vn 0.7933 0.5010 0.3458
vn 0.8692 0.4662 0.1649
vn -0.0222 0.8631 -0.5045
vn -0.5969 -0.7906 -0.1366
vn -0.5841 -0.8037 0.1136
vn -0.8201 -0.5417 0.1843
vn -0.8360 -0.5390 -0.1025
vn -0.6896 0.6247 0.3665
vn -0.6857 0.6192 0.3826
vn -0.7250 0.6738 0.1425
vn -0.7261 0.6754 0.1291
vn 0.6486 0.5586 0.5170
vn 0.6428 0.5418 0.5416
vn 0.0877 0.9843 -0.1534
vn 0.1495 0.0987 -0.9838
vn 0.1684 0.4039 -0.8992
vn 0.0726 0.9692 0.2353
vn 0.0879 0.9566 0.2778
vn 0.0093 0.9764 0.2157
vn -0.0290 0.9793 0.2005
vn 0.0051 0.9909 0.1344
vn -0.1212 0.9926 -0.0024
vn -0.1113 -0.8474 0.5192
vn -0.0670 0.9032 -0.4240
vn -0.1722 0.8425 -0.5104
vn -0.1295 -0.9430 0.3064
vn 0.0909 0.9957 -0.0150
vn 0.1375 0.9725 0.1882
vn 0.1414 0.9718 0.1888
vn 0.1319 0.9704 0.2025
vn 0.1248 0.9734 0.1919
vn -0.1575 -0.8651 -0.4763
vn -0.1527 -0.9421 -0.2985
vn -0.0000 -0.8739 0.4861
vn -0.0000 -0.9633 0.2684
vn -0.5757 -0.7583 -0.3058
vn -0.1376 -0.9618 -0.2369
vn -0.1363 -0.9744 -0.1789
vn -0.1392 -0.9893 -0.0440
vn -0.0000 -0.9976 -0.0700
vn 0.1374 0.9777 0.1589
vn 0.1332 0.9758 0.1736
vn -0.0000 0.9887 0.1500
vn -0.8067 -0.4986 -0.3171
vn -0.7362 0.6715 -0.0838
vn -0.7370 0.6662 -0.1138
vn 0.5841 -0.8037 0.1136
vn 0.8201 -0.5417 0.1843
vn 0.6896 0.6247 0.3665
vn 0.6857 0.6192 0.3826
vn -0.1374 0.9777 0.1589
vn -0.1332 0.9758 0.1736
vn 0.1392 -0.9893 -0.0440
vn -0.1817 0.9832 -0.0186
usemtl tiny_treats_1
s 1
f 11/1/1 6/2/2 28/3/3 34/4/4
f 35/5/5 26/6/6 2/7/7 9/8/8
f 14/9/9 37/10/10 32/11/11 4/12/12
f 20/13/13 19/14/14 55/15/14 48/16/15
f 1/17/16 9/18/17 33/19/18 30/20/19
f 34/4/4 28/3/3 8/21/20 12/22/21
f 9/18/17 2/23/22 29/24/23 33/19/18
f 15/25/24 14/26/25 4/27/26 10/28/27
f 33/19/18 29/24/23 6/2/2 11/1/1
f 39/29/28 24/30/29 45/31/30 57/32/31
f 3/33/32 25/34/33 40/35/34 31/36/35
f 25/34/33 1/17/16 30/20/19 40/35/34
f 40/35/34 30/20/19 5/37/36 27/38/37
f 31/36/35 40/35/34 27/38/37 7/39/38
f 32/11/11 37/10/10 13/40/39 8/21/40
f 31/36/35 36/41/41 17/42/42 3/33/32
f 2/23/22 26/43/43 41/44/44 29/24/23
f 26/43/43 4/12/12 32/11/11 41/44/44
f 41/44/44 32/11/11 8/21/40 28/3/3
f 29/24/23 41/44/44 28/3/3 6/2/2
f 30/20/19 33/19/18 11/1/1 5/37/36
f 5/37/36 11/1/1 34/4/4 27/38/37
f 27/38/37 34/4/4 12/22/21 7/39/45
f 10/28/27 35/5/5 25/45/46 3/46/47
f 17/47/48 15/25/24 10/28/27 3/46/47
f 25/45/46 35/5/5 9/8/8 1/48/49
f 18/49/50 13/50/51 44/51/52 51/52/50
f 21/53/53 39/29/28 57/32/31 47/54/54
f 19/14/14 21/53/53 47/54/54 55/15/14
f 16/55/55 18/49/50 51/52/50 42/56/56
f 13/50/51 37/57/57 54/58/58 44/51/52
f 7/39/38 16/59/59 36/41/41 31/36/35
f 13/40/60 18/60/61 12/22/21 8/21/20
f 4/27/26 26/6/6 35/5/5 10/28/27
f 37/57/57 14/26/62 46/61/63 54/58/58
f 65/62/64 60/63/65 47/64/66 57/65/67
f 60/66/68 63/67/69 55/68/70 47/69/71
f 62/70/72 51/71/73 44/72/74 59/73/75
f 65/62/64 57/65/67 45/74/76 59/73/75
f 64/75/77 53/76/78 42/77/79 58/78/80
f 63/67/69 61/79/81 48/80/82 55/68/70
f 58/78/80 42/77/83 51/71/73 62/70/72
f 64/75/77 56/81/84 48/82/85 61/83/86
f 15/84/87 17/85/88 49/86/89 52/87/87
f 36/88/90 16/55/55 42/56/56 53/89/91
f 24/30/29 22/90/92 50/91/93 45/31/30
f 23/92/94 38/93/95 56/94/96 43/95/97
f 17/47/88 36/88/90 53/89/91 49/96/89
f 22/90/92 23/92/94 43/95/97 50/91/93
f 38/93/95 20/13/13 48/16/15 56/94/96
f 14/97/62 15/84/87 52/87/87 46/98/63
f 53/76/78 64/75/77 61/83/86 49/99/98
f 43/100/99 58/78/80 62/70/72 50/101/100
f 52/102/101 49/96/102 61/79/81 63/67/69
f 56/81/84 64/75/77 58/78/80 43/100/99
f 54/103/103 65/62/64 59/73/75 44/72/104
f 50/101/100 62/70/72 59/73/75 45/74/76
f 46/61/105 52/102/101 63/67/69 60/66/68
f 54/103/103 46/104/106 60/63/65 65/62/64
f 95/105/107 138/106/108 145/107/109 144/108/110
f 138/106/108 82/109/111 120/110/112 145/107/109
f 145/107/109 120/110/112 67/111/113 96/112/114
f 144/108/110 145/107/109 96/112/114 90/113/115
f 122/114/116 121/115/117 69/116/118 71/117/119
f 79/118/120 77/119/121 125/120/122 126/121/123
f 19/122/124 122/114/116 71/117/119 21/123/125
f 24/124/126 79/118/120 126/121/123 22/125/127
f 82/109/111 131/126/128 146/127/129 120/110/112
f 131/126/128 85/128/130 123/129/131 146/127/129
f 146/127/129 123/129/131 73/130/132 103/131/133
f 120/110/112 146/127/129 103/131/133 67/111/113
f 94/132/134 143/133/135 147/134/136 130/135/137
f 143/133/135 92/136/138 104/137/139 147/134/136
f 147/134/136 104/137/139 75/138/140 124/139/141
f 130/135/137 147/134/136 124/139/141 86/140/142
f 68/141/143 70/142/144 112/143/145 115/144/146
f 126/121/123 125/120/122 87/145/147 88/146/148
f 70/142/144 20/147/149 38/148/150 112/143/145
f 22/125/127 126/121/123 88/146/148
f 86/140/142 124/139/141 148/149/151 129/150/152
f 124/139/141 75/138/140 111/151/153 148/149/151
f 148/149/151 111/151/153 81/152/154 127/153/155
f 129/150/152 148/149/151 127/153/155 89/154/156
f 112/143/157 38/148/158 23/155/158 78/156/159
f 21/157/125 71/158/119 119/159/160 39/160/161
f 85/161/130 101/162/162 149/163/163 128/164/164
f 101/162/162 72/165/165 113/166/166 149/163/163
f 149/163/163 113/166/166 80/167/167 109/168/168
f 128/164/164 149/163/163 109/168/168 89/154/169
f 115/144/170 112/143/157 78/156/159 76/169/171
f 71/158/119 69/170/118 118/171/172 119/159/160
f 72/165/165 102/172/173 150/173/174 113/166/166
f 102/172/173 66/174/175 116/175/176 150/173/174
f 150/173/174 116/175/177 74/176/178 110/177/179
f 113/166/166 150/173/174 110/177/179 80/167/167
f 67/178/113 103/179/133 151/180/180 117/181/181
f 103/179/133 73/182/132 114/183/182 151/180/180
f 151/180/180 114/183/182 81/152/183 111/151/184
f 117/181/185 151/180/180 111/151/184 75/138/186
f 90/184/115 96/185/114 152/186/187 142/187/188
f 96/185/114 67/178/113 117/181/181 152/186/187
f 152/186/189 117/181/185 75/138/186 104/137/190
f 142/187/191 152/186/189 104/137/190 92/136/192
f 39/160/193 119/159/194 79/118/195 24/124/193
f 22/125/127 88/146/148 108/188/196
f 91/189/197 98/190/198 153/191/199 141/192/200
f 98/190/198 68/141/143 115/144/146 153/191/199
f 153/191/201 115/144/170 76/169/171 106/193/202
f 141/192/203 153/191/201 106/193/202 93/194/204
f 119/159/194 118/171/205 77/119/206 79/118/195
f 88/146/148 87/145/147 107/195/207 108/188/196
f 73/182/132 123/196/131 154/197/208 114/183/182
f 123/196/131 85/161/130 128/164/164 154/197/208
f 154/197/208 128/164/164 89/154/169 127/153/209
f 114/183/182 154/197/208 127/153/209 81/152/183
f 74/176/210 105/198/211 155/199/212 110/177/213
f 105/198/211 86/140/142 129/150/152 155/199/212
f 155/199/212 129/150/152 89/154/156 109/168/214
f 110/177/213 155/199/212 109/168/214 80/167/215
f 70/200/144 100/201/216 19/122/124 20/202/149
f 22/125/127 108/188/196 78/156/217 23/155/218
f 68/203/143 99/204/219 100/201/216 70/200/144
f 108/188/196 107/195/207 76/169/220 78/156/217
f 93/194/221 140/205/222 156/206/223 136/207/224
f 140/205/222 94/132/134 130/135/137 156/206/223
f 156/206/223 130/135/137 86/140/142 105/198/211
f 136/207/224 156/206/223 105/198/211 74/176/210
f 66/208/175 102/209/173 157/210/225 97/211/226
f 102/209/173 72/212/165 101/213/162 157/210/225
f 157/210/225 101/213/162 85/128/130 131/126/128
f 97/211/226 157/210/225 131/126/128 82/109/111
f 19/122/124 100/201/216 84/214/227
f 83/215/228 121/115/117 122/114/116 84/214/227
f 100/201/216 99/204/219 83/215/228 84/214/227
f 91/216/197 134/217/229 158/218/230 139/219/231
f 134/217/229 66/208/175 97/211/226 158/218/230
f 158/218/230 97/211/226 82/109/111 138/106/108
f 139/219/231 158/218/230 138/106/108 95/105/107
f 68/203/143 98/220/198 159/221/232 99/204/219
f 98/220/198 91/216/197 139/219/231 159/221/232
f 159/221/232 139/219/231 95/105/107 132/222/233
f 99/204/219 159/221/232 132/222/233 83/215/228
f 76/169/220 107/195/207 160/223/234 106/193/235
f 107/195/207 87/145/147 137/224/236 160/223/234
f 160/223/234 137/224/236 94/132/134 140/205/222
f 106/193/235 160/223/234 140/205/222 93/194/221
f 66/174/175 134/225/229 161/226/237 116/175/176
f 134/225/229 91/189/197 141/192/200 161/226/237
f 161/226/238 141/192/203 93/194/204 136/207/239
f 116/175/177 161/226/238 136/207/239 74/176/178
f 69/170/118 133/227/240 162/228/241 118/171/172
f 133/227/240 90/184/115 142/187/188 162/228/241
f 162/228/242 142/187/191 92/136/192 135/229/243
f 118/171/205 162/228/242 135/229/243 77/119/206
f 87/145/147 125/120/122 163/230/244 137/224/236
f 125/120/122 77/119/121 135/229/245 163/230/244
f 163/230/244 135/229/245 92/136/138 143/133/135
f 137/224/236 163/230/244 143/133/135 94/132/134
f 83/215/228 132/222/233 164/231/246 121/115/117
f 132/222/233 95/105/107 144/108/110 164/231/246
f 164/231/246 144/108/110 90/113/115 133/232/240
f 121/115/117 164/231/246 133/232/240 69/116/118
f 84/214/227 122/114/116 19/122/124
f 18/60/61 16/59/247 7/39/45 12/22/21
