# Blender v3.4.1 OBJ File: 'Tiny_Treats_Pleasant_Picnic_ASSETS_EXPORT.blend'
# www.blender.org
mtllib thermos_lid.mtl
o thermos_lid
v 0.098583 0.466695 -0.102396
v 0.034261 0.466695 -0.139282
v -0.040261 0.466695 -0.138849
v -0.105016 0.466695 -0.101212
v -0.142652 0.466695 -0.036457
v -0.143085 0.466695 0.038065
v -0.106199 0.466695 0.102387
v -0.041878 0.466695 0.139273
v 0.032645 0.466695 0.138839
v 0.097399 0.466695 0.101203
v 0.135036 0.466695 0.036448
v 0.135469 0.466695 -0.038074
v 0.052262 0.466695 -0.205135
v 0.146996 0.466695 -0.150809
v -0.057497 0.466695 -0.204497
v -0.152869 0.466695 -0.149065
v -0.208301 0.466695 -0.053693
v -0.208939 0.466695 0.056065
v -0.154612 0.466695 0.150799
v -0.059878 0.466695 0.205126
v 0.049880 0.466695 0.204488
v 0.145253 0.466695 0.149056
v 0.200684 0.466695 0.053684
v 0.201322 0.466695 -0.056074
v -0.003808 0.662917 -0.000005
v -0.003808 0.699568 -0.000005
v 0.125280 0.662917 -0.129093
v 0.044188 0.662917 -0.175596
v -0.049765 0.662917 -0.175050
v -0.131404 0.662917 -0.127600
v -0.178853 0.662917 -0.045962
v -0.179400 0.662917 0.047991
v -0.132896 0.662917 0.129083
v -0.051804 0.662917 0.175587
v 0.042149 0.662917 0.175041
v 0.123788 0.662917 0.127591
v 0.171237 0.662917 0.045953
v 0.171783 0.662917 -0.048000
v 0.122790 0.449568 -0.126602
v 0.043262 0.449568 -0.172209
v -0.048879 0.449568 -0.171673
v -0.128942 0.449568 -0.125139
v -0.175476 0.449568 -0.045075
v -0.176012 0.449568 0.047065
v -0.130406 0.449568 0.126593
v -0.050878 0.449568 0.172199
v 0.041262 0.449568 0.171664
v 0.121326 0.449568 0.125130
v 0.167860 0.449568 0.045066
v 0.168396 0.449568 -0.047074
v -0.181780 0.494381 0.000000
v -0.181780 0.506034 0.022695
v -0.181780 0.529890 0.022695
v -0.181780 0.538648 0.000000
v -0.181780 0.529890 -0.022695
v -0.181780 0.506034 -0.022695
v -0.181780 0.649776 0.000000
v -0.181780 0.638123 0.022695
v -0.181780 0.614267 0.022695
v -0.181780 0.605509 0.000000
v -0.181780 0.614267 -0.022695
v -0.181780 0.638123 -0.022695
v -0.333864 0.598871 0.000000
v -0.333864 0.545287 0.000000
v -0.321502 0.545226 0.022417
v -0.321502 0.598931 0.022417
v -0.292945 0.538367 0.023127
v -0.292945 0.605790 0.023127
v -0.282672 0.542948 0.000000
v -0.282672 0.601209 0.000000
v -0.292945 0.538367 -0.023127
v -0.292945 0.605790 -0.023127
v -0.321502 0.545226 -0.022417
v -0.321502 0.598931 -0.022417
v -0.309347 0.497548 0.000000
v -0.268556 0.485683 0.000000
v -0.268632 0.496959 0.022527
v -0.303035 0.508555 0.022406
v -0.268441 0.522659 0.023010
v -0.268046 0.534447 0.000000
v -0.268441 0.522659 -0.023010
v -0.268632 0.496959 -0.022527
v -0.303035 0.508555 -0.022406
v -0.268556 0.658474 0.000000
v -0.309347 0.646609 0.000000
v -0.303035 0.635602 0.022406
v -0.268632 0.647199 0.022527
v -0.268441 0.621499 0.023010
v -0.268046 0.609710 0.000000
v -0.268441 0.621499 -0.023010
v -0.268632 0.647199 -0.022527
v -0.303034 0.635602 -0.022406
v 0.034250 0.699568 -0.139239
v 0.098552 0.699568 -0.102364
v -0.040250 0.699568 -0.138806
v -0.104985 0.699568 -0.101181
v -0.142609 0.699568 -0.036446
v -0.143043 0.699568 0.038053
v -0.106168 0.699568 0.102355
v -0.041866 0.699568 0.139230
v 0.032633 0.699568 0.138797
v 0.097368 0.699568 0.101172
v 0.134993 0.699568 0.036437
v 0.135426 0.699568 -0.038062
v 0.028779 0.662917 -0.119226
v 0.083839 0.662917 -0.087651
v -0.035012 0.662917 -0.118855
v -0.090442 0.662917 -0.086638
v -0.122658 0.662917 -0.031208
v -0.123029 0.662917 0.032583
v -0.091455 0.662917 0.087642
v -0.036396 0.662917 0.119217
v 0.027395 0.662917 0.118846
v 0.082825 0.662917 0.086629
v 0.115042 0.662917 0.031199
v 0.115413 0.662917 -0.032592
v -0.341296 0.572079 0.000000
v -0.328933 0.572079 0.022417
v -0.300376 0.572079 0.023127
v -0.290103 0.572079 0.000000
v -0.300376 0.572079 -0.023127
v -0.328933 0.572079 -0.022417
v 0.141449 0.595225 -0.145261
v 0.148220 0.531751 -0.152033
v 0.052717 0.531751 -0.206800
v 0.050199 0.595226 -0.197589
v 0.202987 0.531751 -0.056529
v 0.193777 0.595226 -0.054012
v -0.057932 0.531751 -0.206157
v -0.055522 0.595226 -0.196975
v -0.147385 0.595227 -0.143582
v -0.154079 0.531751 -0.150275
v -0.200778 0.595226 -0.051718
v -0.209960 0.531751 -0.054129
v -0.201393 0.595226 0.054003
v -0.210603 0.531751 0.056520
v -0.149065 0.595225 0.145252
v -0.155836 0.531751 0.152023
v -0.057815 0.595226 0.197580
v -0.060333 0.531751 0.206791
v 0.047905 0.595226 0.196965
v 0.050316 0.531751 0.206147
v 0.139769 0.595227 0.143573
v 0.146462 0.531751 0.150266
v 0.193162 0.595226 0.051709
v 0.202344 0.531751 0.054119
v -0.225168 0.480926 0.000000
v -0.225206 0.492390 0.022611
v -0.225206 0.492390 -0.022611
v -0.225111 0.517168 0.022852
v -0.224913 0.527441 0.000000
v -0.225111 0.517168 -0.022852
v -0.225206 0.651767 -0.022611
v -0.225168 0.663231 0.000000
v -0.225206 0.651767 0.022611
v -0.225111 0.626989 0.022852
v -0.224913 0.616716 0.000000
v -0.225111 0.626989 -0.022852
vt 0.441626 0.655509
vt 0.441626 0.651054
vt 0.438232 0.651054
vt 0.438232 0.655509
vt 0.436990 0.655509
vt 0.436990 0.651054
vt 0.438232 0.651054
vt 0.438232 0.655509
vt 0.441626 0.651054
vt 0.441626 0.655509
vt 0.446262 0.651054
vt 0.446262 0.655509
vt 0.450898 0.651054
vt 0.450898 0.655509
vt 0.454292 0.651054
vt 0.454292 0.655509
vt 0.455534 0.651054
vt 0.455534 0.655509
vt 0.454292 0.651054
vt 0.454292 0.655509
vt 0.450898 0.651054
vt 0.450898 0.655509
vt 0.443114 0.673778
vt 0.446262 0.673778
vt 0.446262 0.686759
vt 0.443114 0.686759
vt 0.454292 0.646854
vt 0.454292 0.642528
vt 0.450898 0.642528
vt 0.450898 0.646854
vt 0.446262 0.651054
vt 0.446262 0.655509
vt 0.446262 0.610537
vt 0.442370 0.610537
vt 0.441626 0.611278
vt 0.446262 0.611278
vt 0.439521 0.610537
vt 0.438232 0.611278
vt 0.438478 0.610537
vt 0.436990 0.611278
vt 0.439521 0.610537
vt 0.438232 0.611278
vt 0.442370 0.610537
vt 0.441626 0.611278
vt 0.446262 0.610537
vt 0.446262 0.611278
vt 0.450154 0.610537
vt 0.450898 0.611278
vt 0.453003 0.610537
vt 0.454292 0.611278
vt 0.454046 0.610537
vt 0.455534 0.611278
vt 0.453003 0.610537
vt 0.454292 0.611278
vt 0.450154 0.610537
vt 0.450898 0.611278
vt 0.451714 0.673778
vt 0.449410 0.673778
vt 0.449410 0.686759
vt 0.451714 0.686759
vt 0.443114 0.673778
vt 0.440810 0.673778
vt 0.440810 0.686759
vt 0.443114 0.686759
vt 0.449410 0.673778
vt 0.449410 0.686759
vt 0.440810 0.673778
vt 0.440810 0.686759
vt 0.452557 0.673778
vt 0.452557 0.686759
vt 0.446262 0.673778
vt 0.446262 0.686759
vt 0.439966 0.673778
vt 0.439966 0.686759
vt 0.451714 0.673778
vt 0.451714 0.686759
vt 0.446262 0.671134
vt 0.441626 0.671134
vt 0.442586 0.672989
vt 0.446262 0.672989
vt 0.438232 0.671134
vt 0.439895 0.672989
vt 0.436990 0.671134
vt 0.438910 0.672989
vt 0.438232 0.671134
vt 0.439895 0.672989
vt 0.441626 0.671134
vt 0.442586 0.672989
vt 0.446262 0.671134
vt 0.446262 0.672989
vt 0.450898 0.671134
vt 0.449938 0.672989
vt 0.454292 0.671134
vt 0.452629 0.672989
vt 0.455534 0.671134
vt 0.453614 0.672989
vt 0.454292 0.671134
vt 0.452629 0.672989
vt 0.450898 0.671134
vt 0.449938 0.672989
vt 0.449410 0.626903
vt 0.446262 0.626903
vt 0.446262 0.626162
vt 0.450154 0.626162
vt 0.451714 0.626903
vt 0.453003 0.626162
vt 0.452557 0.626903
vt 0.454046 0.626162
vt 0.451714 0.626903
vt 0.453003 0.626162
vt 0.449410 0.626903
vt 0.450154 0.626162
vt 0.446262 0.626903
vt 0.446262 0.626162
vt 0.443114 0.626903
vt 0.442370 0.626162
vt 0.440810 0.626903
vt 0.439521 0.626162
vt 0.439966 0.626903
vt 0.438478 0.626162
vt 0.440810 0.626903
vt 0.439521 0.626162
vt 0.443114 0.626903
vt 0.442370 0.626162
vt 0.430646 0.638811
vt 0.432244 0.629277
vt 0.432656 0.629540
vt 0.431452 0.638810
vt 0.436302 0.619733
vt 0.434936 0.619575
vt 0.434910 0.620332
vt 0.436289 0.620392
vt 0.436289 0.651642
vt 0.434910 0.651582
vt 0.434898 0.653231
vt 0.436283 0.653232
vt 0.432244 0.668596
vt 0.430646 0.660029
vt 0.431452 0.660031
vt 0.432656 0.668223
vt 0.432656 0.668223
vt 0.431452 0.660031
vt 0.436289 0.620392
vt 0.434910 0.620332
vt 0.433313 0.650574
vt 0.431452 0.652997
vt 0.432656 0.659984
vt 0.436285 0.685218
vt 0.434903 0.685205
vt 0.434898 0.684481
vt 0.436283 0.684482
vt 0.436283 0.613317
vt 0.437668 0.613316
vt 0.437668 0.612569
vt 0.436285 0.612582
vt 0.436289 0.677408
vt 0.437668 0.677347
vt 0.437668 0.677909
vt 0.436302 0.678067
vt 0.437668 0.677347
vt 0.436289 0.677408
vt 0.436289 0.646158
vt 0.437668 0.646097
vt 0.437668 0.644566
vt 0.436283 0.644567
vt 0.436283 0.684482
vt 0.434898 0.684481
vt 0.436283 0.653232
vt 0.434898 0.653231
vt 0.434910 0.651582
vt 0.436289 0.651642
vt 0.436283 0.644567
vt 0.437668 0.644566
vt 0.437668 0.646097
vt 0.436289 0.646158
vt 0.433313 0.647226
vt 0.432656 0.635363
vt 0.431452 0.644283
vt 0.431452 0.644283
vt 0.432656 0.635363
vt 0.433313 0.647226
vt 0.431452 0.638810
vt 0.432656 0.629540
vt 0.430532 0.648639
vt 0.431338 0.648640
vt 0.431452 0.652997
vt 0.430646 0.652995
vt 0.432829 0.648832
vt 0.433313 0.650574
vt 0.433233 0.664525
vt 0.433902 0.664525
vt 0.433983 0.665905
vt 0.433313 0.666199
vt 0.433233 0.664525
vt 0.433313 0.666199
vt 0.432829 0.648832
vt 0.431338 0.648640
vt 0.430646 0.644284
vt 0.432656 0.659984
vt 0.434903 0.612595
vt 0.434898 0.613318
vt 0.432656 0.623717
vt 0.432244 0.623454
vt 0.434898 0.644568
vt 0.434910 0.646218
vt 0.434910 0.677468
vt 0.434936 0.678224
vt 0.433983 0.678770
vt 0.433313 0.678476
vt 0.434910 0.677468
vt 0.433313 0.678476
vt 0.434910 0.646218
vt 0.434898 0.644568
vt 0.432244 0.676835
vt 0.432656 0.676463
vt 0.433313 0.619324
vt 0.433983 0.619030
vt 0.433313 0.619324
vt 0.432656 0.676463
vt 0.432656 0.623717
vt 0.434898 0.613318
vt 0.437668 0.613316
vt 0.436283 0.613317
vt 0.446262 0.688614
vt 0.446262 0.688614
vt 0.442586 0.688614
vt 0.439895 0.688614
vt 0.438910 0.688614
vt 0.439895 0.688614
vt 0.442586 0.688614
vt 0.446262 0.688614
vt 0.449938 0.688614
vt 0.452629 0.688614
vt 0.453614 0.688614
vt 0.452629 0.688614
vt 0.449938 0.688614
vt 0.446262 0.655509
vt 0.443114 0.655509
vt 0.446262 0.655509
vt 0.440810 0.655509
vt 0.439966 0.655509
vt 0.440810 0.655509
vt 0.443114 0.655509
vt 0.446262 0.655509
vt 0.449410 0.655509
vt 0.451714 0.655509
vt 0.452557 0.655509
vt 0.451714 0.655509
vt 0.449410 0.655509
vt 0.433983 0.663145
vt 0.433313 0.662851
vt 0.433313 0.662851
vt 0.446262 0.642528
vt 0.446262 0.646854
vt 0.441626 0.646854
vt 0.441626 0.642528
vt 0.438232 0.642528
vt 0.438232 0.646854
vt 0.455534 0.646854
vt 0.455534 0.642528
vt 0.454292 0.646854
vt 0.454292 0.642528
vt 0.450898 0.646854
vt 0.450898 0.642528
vt 0.446262 0.646854
vt 0.446262 0.642528
vt 0.441626 0.646854
vt 0.441626 0.642528
vt 0.438232 0.646854
vt 0.438232 0.642528
vt 0.436990 0.646854
vt 0.436990 0.642528
vt 0.437668 0.653233
vt 0.437668 0.651702
vt 0.437668 0.684483
vt 0.437668 0.685231
vt 0.437668 0.684483
vt 0.437668 0.620452
vt 0.437668 0.619890
vt 0.437668 0.651702
vt 0.437668 0.653233
vt 0.437668 0.620452
vn 0.2181 0.5161 -0.8283
vn 0.2478 0.2316 -0.9407
vn -0.2559 0.2304 -0.9389
vn -0.2255 0.5144 -0.8274
vn -0.6068 0.5135 -0.6068
vn -0.6882 0.2298 -0.6882
vn -0.9389 0.2304 -0.2559
vn -0.8274 0.5144 -0.2255
vn -0.9407 0.2316 0.2478
vn -0.8283 0.5161 0.2181
vn -0.6878 0.2322 0.6878
vn -0.6053 0.5169 0.6053
vn -0.2478 0.2316 0.9407
vn -0.2181 0.5161 0.8283
vn 0.2559 0.2304 0.9389
vn 0.2255 0.5144 0.8274
vn 0.6882 0.2298 0.6882
vn 0.6068 0.5135 0.6068
vn 0.9389 0.2304 0.2559
vn 0.8274 0.5144 0.2255
vn 0.9407 0.2316 -0.2478
vn 0.8283 0.5161 -0.2181
vn -0.2533 -0.1054 0.9616
vn -0.7031 -0.1057 0.7031
vn -0.2530 -0.1054 0.9617
vn 0.9631 0.0602 0.2624
vn 0.9644 -0.0264 0.2630
vn 0.9667 -0.0265 -0.2545
vn 0.9652 0.0605 -0.2543
vn 0.6878 0.2322 -0.6878
vn 0.6053 0.5169 -0.6053
vn 0.3164 -0.8943 -0.3164
vn 0.1134 -0.8938 -0.4339
vn 0.1147 -0.8938 -0.4336
vn -0.1193 -0.8927 -0.4345
vn -0.1180 -0.8927 -0.4348
vn -0.3193 -0.8922 -0.3193
vn -0.4345 -0.8927 -0.1193
vn -0.4348 -0.8927 -0.1180
vn -0.4339 -0.8938 0.1134
vn -0.4336 -0.8938 0.1147
vn -0.3164 -0.8943 0.3164
vn -0.1134 -0.8938 0.4339
vn -0.1147 -0.8938 0.4336
vn 0.1193 -0.8927 0.4345
vn 0.1180 -0.8927 0.4348
vn 0.3193 -0.8922 0.3193
vn 0.4345 -0.8927 0.1193
vn 0.4348 -0.8927 0.1180
vn 0.4339 -0.8938 -0.1134
vn 0.4336 -0.8938 -0.1147
vn -0.2614 -0.1048 -0.9595
vn 0.2533 -0.1054 -0.9616
vn 0.2530 -0.1054 -0.9617
vn -0.2617 -0.1048 -0.9594
vn 0.9616 -0.1054 -0.2533
vn 0.9595 -0.1048 0.2614
vn 0.9594 -0.1048 0.2617
vn 0.9617 -0.1054 -0.2530
vn -0.9616 -0.1054 0.2533
vn -0.9617 -0.1054 0.2530
vn 0.2614 -0.1048 0.9595
vn 0.2617 -0.1048 0.9594
vn -0.7032 -0.1045 -0.7032
vn 0.7031 -0.1057 -0.7031
vn 0.7032 -0.1045 0.7032
vn -0.9595 -0.1048 -0.2614
vn -0.9594 -0.1048 -0.2617
vn 0.1083 0.9039 -0.4137
vn 0.3021 0.9041 -0.3021
vn -0.1133 0.9035 -0.4134
vn -0.3034 0.9033 -0.3034
vn -0.4134 0.9035 -0.1133
vn -0.4137 0.9039 0.1083
vn -0.3021 0.9041 0.3021
vn -0.1083 0.9039 0.4137
vn 0.1133 0.9035 0.4134
vn 0.3034 0.9033 0.3034
vn 0.4134 0.9035 0.1133
vn 0.4137 0.9039 -0.1083
vn -0.8332 -0.3135 0.4556
vn -0.5533 -0.6835 0.4762
vn -0.5838 -0.6585 0.4749
vn -0.8277 -0.3331 0.4516
vn -0.0687 -0.9976 -0.0000
vn 0.3609 -0.9326 0.0000
vn 0.2965 -0.8578 -0.4198
vn -0.0541 -0.9103 -0.4103
vn 0.0008 0.0094 -1.0000
vn -0.0059 0.0177 -0.9998
vn -0.0045 0.0167 -0.9999
vn 0.0007 0.0100 -0.9999
vn -0.5533 0.6835 0.4762
vn -0.8332 0.3135 0.4556
vn -0.8277 0.3331 0.4516
vn -0.5838 0.6585 0.4749
vn -0.5838 0.6585 -0.4749
vn -0.8277 0.3331 -0.4516
vn -0.8332 0.3135 -0.4556
vn -0.5533 0.6835 -0.4762
vn -0.0541 -0.9103 0.4103
vn 0.2965 -0.8578 0.4198
vn -0.0211 0.0140 -0.9997
vn -0.0264 0.0087 -0.9996
vn -0.0157 0.0181 -0.9997
vn 0.0821 0.8890 0.4506
vn -0.1764 0.8733 0.4541
vn -0.1864 0.8709 0.4547
vn 0.0922 0.8881 0.4503
vn 0.0922 -0.8881 -0.4503
vn 0.2675 -0.8582 -0.4381
vn 0.0821 -0.8890 -0.4506
vn -0.0541 0.9103 0.4103
vn -0.2469 0.8945 0.3727
vn -0.2660 0.9640 0.0000
vn -0.0687 0.9976 0.0000
vn -0.2469 0.8945 -0.3727
vn -0.0541 0.9103 -0.4103
vn 0.0008 -0.0094 -1.0000
vn 0.0024 -0.0050 -1.0000
vn 0.0007 -0.0100 -0.9999
vn 0.0922 0.8881 -0.4503
vn -0.1864 0.8709 -0.4547
vn -0.1764 0.8733 -0.4541
vn 0.0821 0.8890 -0.4506
vn 0.0007 0.0100 0.9999
vn -0.0045 0.0167 0.9999
vn -0.0059 0.0177 0.9998
vn 0.0008 0.0094 1.0000
vn 0.0007 -0.0100 0.9999
vn 0.0024 -0.0050 1.0000
vn 0.0008 -0.0094 1.0000
vn -0.0211 -0.0140 -0.9997
vn -0.0157 -0.0181 -0.9997
vn -0.0264 -0.0087 -0.9996
vn -0.0264 -0.0087 0.9996
vn -0.0157 -0.0181 0.9997
vn -0.0211 -0.0140 0.9997
vn -0.8277 -0.3331 -0.4516
vn -0.5838 -0.6585 -0.4749
vn -0.5533 -0.6835 -0.4762
vn -0.8332 -0.3135 -0.4556
vn -0.8758 0.0000 0.4827
vn -0.0256 0.0000 0.9997
vn -0.0211 0.0140 0.9997
vn -0.0264 0.0087 0.9996
vn 0.9058 -0.0000 0.4236
vn 1.0000 -0.0000 0.0000
vn 0.7971 -0.6038 -0.0000
vn 0.7436 -0.5121 0.4298
vn 0.9058 -0.0000 -0.4236
vn 0.7436 -0.5121 -0.4298
vn -0.0256 0.0000 -0.9997
vn -0.8758 0.0000 -0.4827
vn -0.0157 0.0181 0.9997
vn -0.1764 -0.8733 0.4541
vn -0.1864 -0.8709 0.4547
vn -0.0045 -0.0167 0.9999
vn -0.0059 -0.0177 0.9998
vn 0.2965 0.8578 0.4198
vn 0.3609 0.9326 0.0000
vn 0.7971 0.6038 0.0000
vn 0.7436 0.5121 0.4298
vn 0.2965 0.8578 -0.4198
vn 0.7436 0.5121 -0.4298
vn -0.0059 -0.0177 -0.9998
vn -0.0045 -0.0167 -0.9999
vn -0.1864 -0.8709 -0.4547
vn -0.1764 -0.8733 -0.4541
vn 0.0821 -0.8890 0.4506
vn 0.2675 -0.8582 0.4381
vn 0.0922 -0.8881 0.4503
vn 0.0000 1.0000 0.0000
vn -0.0000 -1.0000 0.0000
vn 0.7069 -0.0266 -0.7069
vn 0.7058 0.0606 -0.7058
vn 0.2543 0.0605 -0.9652
vn 0.2545 -0.0265 -0.9667
vn -0.2630 -0.0264 -0.9644
vn -0.2624 0.0602 -0.9631
vn 0.7058 0.0600 0.7058
vn 0.7069 -0.0263 0.7069
vn 0.2624 0.0602 0.9631
vn 0.2630 -0.0264 0.9644
vn -0.2543 0.0605 0.9652
vn -0.2545 -0.0265 0.9667
vn -0.7058 0.0606 0.7058
vn -0.7069 -0.0266 0.7069
vn -0.9652 0.0605 0.2543
vn -0.9667 -0.0265 0.2545
vn -0.9631 0.0602 -0.2624
vn -0.9644 -0.0264 -0.2630
vn -0.7058 0.0600 -0.7058
vn -0.7069 -0.0263 -0.7069
vn 0.0024 0.0050 1.0000
vn 0.2675 0.8582 -0.4381
vn 0.2675 0.8582 0.4381
vn -0.2469 -0.8945 0.3727
vn -0.2660 -0.9640 -0.0000
vn 0.0024 0.0050 -1.0000
vn -0.2469 -0.8945 -0.3727
usemtl tiny_treats_1
s 1
f 28/1/1 126/2/2 130/3/3 29/4/4
f 30/5/5 131/6/6 133/7/7 31/8/8
f 31/8/8 133/7/7 135/9/9 32/10/10
f 32/10/10 135/9/9 137/11/11 33/12/12
f 33/12/12 137/11/11 139/13/13 34/14/14
f 34/14/14 139/13/13 141/15/15 35/16/16
f 35/16/16 141/15/15 143/17/17 36/18/18
f 36/18/18 143/17/17 145/19/19 37/20/20
f 37/20/20 145/19/19 128/21/21 38/22/22
f 2/23/23 1/24/24 106/25/24 105/26/25
f 146/27/26 23/28/27 24/29/28 127/30/29
f 38/22/22 128/21/21 123/31/30 27/32/31
f 39/33/32 40/34/33 13/35/34 14/36/32
f 40/34/33 41/37/35 15/38/36 13/35/34
f 41/37/35 42/39/37 16/40/37 15/38/36
f 42/39/37 43/41/38 17/42/39 16/40/37
f 43/41/38 44/43/40 18/44/41 17/42/39
f 44/43/40 45/45/42 19/46/42 18/44/41
f 45/45/42 46/47/43 20/48/44 19/46/42
f 46/47/43 47/49/45 21/50/46 20/48/44
f 47/49/45 48/51/47 22/52/47 21/50/46
f 48/51/47 49/53/48 23/54/49 22/52/47
f 49/53/48 50/55/50 24/56/51 23/54/49
f 50/55/50 39/33/32 14/36/32 24/56/51
f 9/57/52 8/58/53 112/59/54 113/60/55
f 6/61/56 5/62/57 109/63/58 110/64/59
f 1/24/24 12/65/60 116/66/61 106/25/24
f 3/67/62 2/23/23 105/26/25 107/68/63
f 10/69/64 9/57/52 113/60/55 114/70/64
f 7/71/65 6/61/56 110/64/59 111/72/65
f 4/73/66 3/67/62 107/68/63 108/74/66
f 11/75/67 10/69/64 114/70/64 115/76/68
f 8/58/53 7/71/65 111/72/65 112/59/54
f 5/62/57 4/73/66 108/74/66 109/63/58
f 12/65/60 11/75/67 115/76/68 116/66/61
f 27/77/31 28/78/1 93/79/69 94/80/70
f 28/78/1 29/81/4 95/82/71 93/79/69
f 29/81/4 30/83/5 96/84/72 95/82/71
f 30/83/5 31/85/8 97/86/73 96/84/72
f 31/85/8 32/87/10 98/88/74 97/86/73
f 32/87/10 33/89/12 99/90/75 98/88/74
f 33/89/12 34/91/14 100/92/76 99/90/75
f 34/91/14 35/93/16 101/94/77 100/92/76
f 35/93/16 36/95/18 102/96/78 101/94/77
f 36/95/18 37/97/20 103/98/79 102/96/78
f 37/97/20 38/99/22 104/100/80 103/98/79
f 38/99/22 27/77/31 94/80/70 104/100/80
f 12/101/40 1/102/42 39/103/42 50/104/41
f 11/105/38 12/101/40 50/104/41 49/106/39
f 10/107/37 11/105/38 49/106/39 48/108/37
f 9/109/35 10/107/37 48/108/37 47/110/36
f 8/111/33 9/109/35 47/110/36 46/112/34
f 7/113/32 8/111/33 46/112/34 45/114/32
f 6/115/50 7/113/32 45/114/32 44/116/51
f 5/117/48 6/115/50 44/116/51 43/118/49
f 4/119/47 5/117/48 43/118/49 42/120/47
f 3/121/45 4/119/47 42/120/47 41/122/46
f 2/123/43 3/121/45 41/122/46 40/124/44
f 1/102/42 2/123/43 40/124/44 39/103/42
f 64/125/81 75/126/82 78/127/83 65/128/84
f 157/129/85 89/130/86 90/131/87 158/132/88
f 158/133/89 90/134/90 91/135/91 153/136/92
f 85/137/93 63/138/94 66/139/95 86/140/96
f 92/141/97 74/142/98 63/138/99 85/137/100
f 156/143/101 88/144/102 89/130/86 157/129/85
f 72/145/103 74/146/104 92/147/105
f 154/148/106 84/149/107 87/150/108 155/151/109
f 149/152/110 56/153/111 51/154/111 147/155/112
f 150/156/113 53/157/114 54/158/115 151/159/116
f 151/159/116 54/158/115 55/160/117 152/161/118
f 152/162/119 55/163/120 56/164/120 149/165/121
f 153/166/122 91/167/123 84/149/124 154/148/125
f 155/168/126 87/169/127 88/170/128 156/171/129
f 148/172/130 52/173/131 53/174/131 150/175/132
f 71/176/133 83/177/134 73/178/135
f 65/179/136 78/180/137 67/181/138
f 73/182/139 83/183/140 75/126/141 64/125/142
f 117/184/143 118/185/143 66/186/95 63/187/94
f 118/185/144 119/188/144 68/189/145 66/186/146
f 119/190/147 120/191/148 70/192/149 68/193/150
f 120/191/148 121/194/151 72/195/152 70/192/149
f 121/196/153 122/197/153 74/146/104 72/145/103
f 117/184/154 122/197/154 73/178/139 64/198/142
f 86/199/155 66/186/146 68/189/145
f 76/200/156 77/201/157 78/202/83 75/203/82
f 77/204/158 79/205/159 67/181/138 78/180/137
f 79/206/160 80/207/161 69/208/162 67/209/163
f 80/207/161 81/210/164 71/211/165 69/208/162
f 81/212/166 82/213/167 83/177/134 71/176/133
f 85/214/93 86/215/96 87/150/108 84/149/107
f 86/199/155 68/189/145 88/170/128 87/169/127
f 68/216/150 70/217/149 89/130/86 88/144/102
f 70/217/149 72/218/152 90/131/87 89/130/86
f 84/149/124 91/167/123 92/219/97 85/214/100
f 75/203/141 83/220/140 82/221/168 76/200/169
f 72/145/103 92/147/105 91/135/91 90/134/90
f 147/155/170 51/154/171 52/222/171 148/223/172
f 26/224/173 94/225/70 93/226/69
f 26/224/173 93/226/69 95/227/71
f 26/224/173 95/227/71 96/228/72
f 26/224/173 96/228/72 97/229/73
f 26/224/173 97/229/73 98/230/74
f 26/224/173 98/230/74 99/231/75
f 26/224/173 99/231/75 100/232/76
f 26/224/173 100/232/76 101/233/77
f 26/224/173 101/233/77 102/234/78
f 26/224/173 102/234/78 103/235/79
f 26/224/173 103/235/79 104/236/80
f 26/224/173 104/236/80 94/225/70
f 25/237/174 105/238/174 106/239/174
f 25/237/174 107/240/174 105/238/174
f 25/237/174 108/241/174 107/240/174
f 25/237/174 109/242/174 108/241/174
f 25/237/174 110/243/174 109/242/174
f 25/237/174 111/244/174 110/243/174
f 25/237/174 112/245/174 111/244/174
f 25/237/174 113/246/174 112/245/174
f 25/237/174 114/247/174 113/246/174
f 25/237/174 115/248/174 114/247/174
f 25/237/174 116/249/174 115/248/174
f 25/237/174 106/239/174 116/249/174
f 63/187/99 74/146/98 122/197/154 117/184/154
f 71/176/133 73/178/135 122/197/153 121/196/153
f 69/250/162 71/251/165 121/194/151 120/191/148
f 67/252/163 69/250/162 120/191/148 119/190/147
f 65/179/136 67/181/138 119/188/144 118/185/144
f 64/198/81 65/179/84 118/185/143 117/184/143
f 127/30/29 24/29/28 14/253/175 124/254/176
f 125/255/177 13/256/178 15/257/179 129/258/180
f 29/4/4 130/3/3 131/6/6 30/5/5
f 144/259/181 22/260/182 23/28/27 146/27/26
f 142/261/183 21/262/184 22/260/182 144/259/181
f 140/263/185 20/264/186 21/262/184 142/261/183
f 138/265/187 19/266/188 20/264/186 140/263/185
f 136/267/189 18/268/190 19/266/188 138/265/187
f 134/269/191 17/270/192 18/268/190 136/267/189
f 132/271/193 16/272/194 17/270/192 134/269/191
f 129/258/180 15/257/179 16/272/194 132/271/193
f 27/32/31 123/31/30 126/2/2 28/1/1
f 124/254/176 125/255/177 126/2/2 123/31/30
f 125/255/177 129/258/180 130/3/3 126/2/2
f 146/27/26 127/30/29 128/21/21 145/19/19
f 144/259/181 146/27/26 145/19/19 143/17/17
f 142/261/183 144/259/181 143/17/17 141/15/15
f 140/263/185 142/261/183 141/15/15 139/13/13
f 138/265/187 140/263/185 139/13/13 137/11/11
f 136/267/189 138/265/187 137/11/11 135/9/9
f 134/269/191 136/267/189 135/9/9 133/7/7
f 132/271/193 134/269/191 133/7/7 131/6/6
f 129/258/180 132/271/193 131/6/6 130/3/3
f 127/30/29 124/254/176 123/31/30 128/21/21
f 124/254/176 14/253/175 13/256/178 125/255/177
f 76/200/156 147/155/170 148/223/172 77/201/157
f 77/204/158 148/172/130 150/175/132 79/205/159
f 81/212/166 152/162/119 149/165/121 82/213/167
f 80/207/161 151/159/116 152/161/118 81/210/164
f 79/206/160 150/156/113 151/159/116 80/207/161
f 82/221/168 149/152/110 147/155/112 76/200/169
f 58/273/195 155/168/126 156/171/129 59/274/195
f 62/275/196 153/166/122 154/148/125 57/276/196
f 57/276/197 154/148/106 155/151/109 58/277/197
f 59/278/198 156/143/101 157/129/85 60/279/199
f 61/280/200 158/133/89 153/136/92 62/281/200
f 60/279/199 157/129/85 158/132/88 61/282/201
