# Blender v3.4.1 OBJ File: 'Tiny_Treats_Pleasant_Picnic_ASSETS_EXPORT.blend'
# www.blender.org
mtllib thermos.mtl
o thermos
v 0.200000 0.429999 -0.053590
v 0.146410 0.429999 -0.146410
v 0.200000 0.429999 0.053590
v 0.146410 0.429999 0.146410
v 0.053590 0.429999 0.200000
v -0.053590 0.429999 0.200000
v -0.146410 0.429999 0.146410
v -0.200000 0.429999 0.053590
v -0.200000 0.429999 -0.053590
v -0.146410 0.429999 -0.146410
v -0.053590 0.429999 -0.200000
v 0.053590 0.429999 -0.200000
v -0.000000 -0.000001 -0.000000
v 0.146410 0.049999 -0.146410
v 0.200000 0.049999 -0.053590
v 0.200000 0.049999 0.053590
v 0.146410 0.049999 0.146410
v 0.053590 0.049999 0.200000
v -0.053590 0.049999 0.200000
v -0.146410 0.049999 0.146410
v -0.200000 0.049999 0.053590
v -0.200000 0.049999 -0.053590
v -0.146410 0.049999 -0.146410
v -0.053590 0.049999 -0.200000
v 0.053590 0.049999 -0.200000
v -0.000000 0.099999 -0.000000
v 0.083941 0.099999 -0.022492
v 0.061449 0.099999 -0.061449
v 0.083941 0.099999 0.022492
v 0.061449 0.099999 0.061449
v 0.022492 0.099999 0.083941
v -0.022492 0.099999 0.083941
v -0.061449 0.099999 0.061449
v -0.083941 0.099999 0.022492
v -0.083941 0.099999 -0.022492
v -0.061449 0.099999 -0.061449
v -0.022492 0.099999 -0.083941
v 0.022492 0.099999 -0.083941
v 0.113547 0.483869 -0.113547
v 0.109808 0.497979 -0.109808
v 0.105891 0.487815 -0.105891
v 0.150000 0.497979 -0.040192
v 0.155109 0.483869 -0.041561
v 0.144650 0.487815 -0.038759
v 0.150000 0.497979 0.040192
v 0.155109 0.483869 0.041561
v 0.144650 0.487815 0.038759
v 0.109808 0.497979 0.109808
v 0.113547 0.483869 0.113547
v 0.105891 0.487815 0.105891
v 0.040192 0.497979 0.150000
v 0.041561 0.483869 0.155109
v 0.038759 0.487815 0.144650
v -0.040192 0.497979 0.150000
v -0.041561 0.483869 0.155109
v -0.038759 0.487815 0.144650
v -0.109808 0.497979 0.109808
v -0.113547 0.483869 0.113547
v -0.105891 0.487815 0.105891
v -0.150000 0.497979 0.040192
v -0.155109 0.483869 0.041561
v -0.144650 0.487815 0.038759
v -0.150000 0.497979 -0.040192
v -0.155109 0.483869 -0.041561
v -0.144650 0.487815 -0.038759
v -0.109808 0.497979 -0.109808
v -0.113547 0.483869 -0.113547
v -0.105891 0.487815 -0.105891
v -0.040192 0.497979 -0.150000
v -0.041561 0.483869 -0.155109
v -0.038759 0.487815 -0.144650
v 0.040192 0.497979 -0.150000
v 0.041561 0.483869 -0.155109
v 0.038759 0.487815 -0.144650
v 0.102114 0.533989 0.102114
v 0.037376 0.533989 0.139490
v -0.102114 0.533989 0.102114
v -0.037376 0.533989 0.139490
v -0.139490 0.533989 0.037376
v -0.139490 0.533989 -0.037376
v -0.102114 0.533989 -0.102114
v 0.037376 0.533989 -0.139490
v -0.037376 0.533989 -0.139490
v 0.139490 0.533989 0.037376
v 0.139490 0.533989 -0.037376
v 0.102114 0.533989 -0.102114
v 0.150000 0.545297 -0.040192
v 0.150000 0.522681 -0.040192
v 0.109808 0.522681 -0.109808
v 0.109808 0.545297 -0.109808
v 0.040192 0.545297 -0.150000
v 0.040192 0.522681 -0.150000
v 0.150000 0.545297 0.040192
v 0.150000 0.522681 0.040192
v 0.109808 0.522681 0.109808
v 0.109808 0.545297 0.109808
v 0.040192 0.522681 0.150000
v 0.040192 0.545297 0.150000
v -0.040192 0.522681 0.150000
v -0.040192 0.545297 0.150000
v -0.109808 0.545297 0.109808
v -0.109808 0.522681 0.109808
v -0.150000 0.522681 0.040192
v -0.150000 0.545297 0.040192
v -0.150000 0.522681 -0.040192
v -0.150000 0.545297 -0.040192
v -0.109808 0.522681 -0.109808
v -0.109808 0.545297 -0.109808
v -0.040192 0.522681 -0.150000
v -0.040192 0.545297 -0.150000
v 0.150000 -0.000001 -0.040192
v 0.109808 -0.000001 -0.109808
v 0.150000 -0.000001 0.040192
v 0.109808 -0.000001 0.109808
v 0.040192 -0.000001 0.150000
v -0.040192 -0.000001 0.150000
v -0.109808 -0.000001 0.109808
v -0.150000 -0.000001 0.040192
v -0.150000 -0.000001 -0.040192
v -0.109808 -0.000001 -0.109808
v -0.040192 -0.000001 -0.150000
v 0.040192 -0.000001 -0.150000
v 0.083941 0.584460 -0.022492
v 0.099481 0.599999 -0.026656
v 0.072825 0.599999 -0.072825
v 0.061449 0.584460 -0.061449
v 0.083941 0.584460 0.022492
v 0.099481 0.599999 0.026656
v 0.061449 0.584460 0.061449
v 0.072825 0.599999 0.072825
v 0.022492 0.584460 0.083941
v 0.026656 0.599999 0.099481
v -0.022492 0.584460 0.083941
v -0.026656 0.599999 0.099481
v -0.061449 0.584460 0.061449
v -0.072825 0.599999 0.072825
v -0.083941 0.584460 0.022492
v -0.099480 0.599999 0.026656
v -0.083941 0.584460 -0.022492
v -0.099480 0.599999 -0.026656
v -0.061449 0.584460 -0.061449
v -0.072825 0.599999 -0.072825
v -0.022492 0.584460 -0.083941
v -0.026656 0.599999 -0.099481
v 0.022492 0.584460 -0.083941
v 0.026656 0.599999 -0.099481
v 0.134460 0.599999 -0.036029
v 0.150000 0.584460 -0.040192
v 0.109808 0.584460 -0.109808
v 0.098432 0.599999 -0.098432
v 0.134460 0.599999 0.036029
v 0.150000 0.584460 0.040192
v 0.098432 0.599999 0.098432
v 0.109808 0.584460 0.109808
v 0.036029 0.599999 0.134460
v 0.040192 0.584460 0.150000
v -0.036028 0.599999 0.134460
v -0.040192 0.584460 0.150000
v -0.098432 0.599999 0.098432
v -0.109808 0.584460 0.109808
v -0.134460 0.599999 0.036029
v -0.150000 0.584460 0.040192
v -0.134460 0.599999 -0.036029
v -0.150000 0.584460 -0.040192
v -0.098432 0.599999 -0.098432
v -0.109808 0.584460 -0.109808
v -0.036028 0.599999 -0.134460
v -0.040192 0.584460 -0.150000
v 0.036029 0.599999 -0.134460
v 0.040192 0.584460 -0.150000
v 0.137462 0.466064 -0.137462
v 0.187776 0.466064 -0.050314
v 0.050314 0.466064 -0.187776
v 0.187776 0.466064 0.050315
v 0.137462 0.466064 0.137462
v 0.050314 0.466064 0.187776
v -0.050314 0.466064 0.187776
v -0.137462 0.466064 0.137462
v -0.187776 0.466064 0.050314
v -0.187776 0.466064 -0.050315
v -0.137462 0.466064 -0.137462
v -0.050315 0.466064 -0.187776
vt 0.437889 0.602771
vt 0.437889 0.664200
vt 0.448648 0.664200
vt 0.448648 0.602771
vt 0.454859 0.602771
vt 0.454859 0.664200
vt 0.448648 0.664200
vt 0.448648 0.602771
vt 0.437889 0.664200
vt 0.437889 0.602771
vt 0.425467 0.664200
vt 0.425467 0.602771
vt 0.414708 0.664200
vt 0.414708 0.602771
vt 0.408497 0.664200
vt 0.408497 0.602771
vt 0.408497 0.664200
vt 0.408497 0.602771
vt 0.414708 0.664200
vt 0.414708 0.602771
vt 0.425467 0.664200
vt 0.425467 0.602771
vt 0.289292 0.922079
vt 0.289292 0.922079
vt 0.289292 0.924942
vt 0.289292 0.924942
vt 0.454859 0.602771
vt 0.454859 0.664200
vt 0.319405 0.922079
vt 0.311336 0.922079
vt 0.311336 0.924942
vt 0.319405 0.924942
vt 0.311336 0.922079
vt 0.319405 0.922079
vt 0.319405 0.924942
vt 0.311336 0.924942
vt 0.302020 0.922079
vt 0.302020 0.924942
vt 0.293951 0.922079
vt 0.293951 0.924942
vt 0.300846 0.918380
vt 0.290745 0.918380
vt 0.289708 0.914200
vt 0.300467 0.914200
vt 0.293951 0.922079
vt 0.293951 0.924942
vt 0.302020 0.922079
vt 0.302020 0.924942
vt 0.293951 0.927563
vt 0.289292 0.927563
vt 0.290511 0.895003
vt 0.294843 0.895003
vt 0.324064 0.927563
vt 0.324064 0.927563
vt 0.324064 0.932103
vt 0.324064 0.932103
vt 0.296949 0.900853
vt 0.299556 0.900853
vt 0.299556 0.827316
vt 0.296949 0.827316
vt 0.328442 0.918380
vt 0.322611 0.918380
vt 0.323648 0.914200
vt 0.329859 0.914200
vt 0.290745 0.918380
vt 0.300846 0.918380
vt 0.300467 0.914200
vt 0.289708 0.914200
vt 0.284914 0.918380
vt 0.283497 0.914200
vt 0.312510 0.918380
vt 0.312889 0.914200
vt 0.312510 0.918380
vt 0.312889 0.914200
vt 0.322611 0.918380
vt 0.328442 0.918380
vt 0.329859 0.914200
vt 0.323648 0.914200
vt 0.284914 0.918380
vt 0.283497 0.914200
vt 0.448648 0.571521
vt 0.454859 0.571521
vt 0.449064 0.565725
vt 0.444405 0.565725
vt 0.454859 0.571521
vt 0.449064 0.565725
vt 0.448648 0.571521
vt 0.444405 0.565725
vt 0.437889 0.571521
vt 0.436336 0.565725
vt 0.425467 0.571521
vt 0.427020 0.565725
vt 0.414708 0.571521
vt 0.418951 0.565725
vt 0.408497 0.571521
vt 0.414292 0.565725
vt 0.408497 0.571521
vt 0.414292 0.565725
vt 0.414708 0.571521
vt 0.418951 0.565725
vt 0.425467 0.571521
vt 0.427020 0.565725
vt 0.437889 0.571521
vt 0.436336 0.565725
vt 0.309767 0.965154
vt 0.315119 0.965154
vt 0.318087 0.965154
vt 0.310854 0.965154
vt 0.316407 0.900853
vt 0.316407 0.900853
vt 0.316407 0.827316
vt 0.316407 0.827316
vt 0.309285 0.900853
vt 0.313800 0.900853
vt 0.313800 0.827316
vt 0.309285 0.827316
vt 0.304071 0.900853
vt 0.304071 0.827316
vt 0.303589 0.965154
vt 0.298237 0.965154
vt 0.295269 0.965154
vt 0.302502 0.965154
vt 0.296949 0.900853
vt 0.296949 0.827316
vt 0.299556 0.900853
vt 0.299556 0.827316
vt 0.304071 0.900853
vt 0.304071 0.827316
vt 0.309285 0.900853
vt 0.309285 0.827316
vt 0.319405 0.927563
vt 0.319405 0.932103
vt 0.318208 0.965154
vt 0.315119 0.965154
vt 0.318087 0.965154
vt 0.322263 0.965154
vt 0.298237 0.965154
vt 0.303589 0.965154
vt 0.302502 0.965154
vt 0.295269 0.965154
vt 0.295148 0.965154
vt 0.291094 0.965154
vt 0.309767 0.965154
vt 0.310854 0.965154
vt 0.318208 0.965154
vt 0.322263 0.965154
vt 0.295148 0.965154
vt 0.291094 0.965154
vt 0.306678 0.827316
vt 0.313800 0.827316
vt 0.324656 0.920444
vt 0.319839 0.920444
vt 0.318951 0.889651
vt 0.323443 0.889651
vt 0.324064 0.922079
vt 0.324656 0.920444
vt 0.323443 0.889651
vt 0.324064 0.922079
vt 0.319839 0.920444
vt 0.318951 0.889651
vt 0.311495 0.920444
vt 0.311170 0.889651
vt 0.301861 0.920444
vt 0.302186 0.889651
vt 0.293517 0.920444
vt 0.294405 0.889651
vt 0.288700 0.920444
vt 0.289912 0.889651
vt 0.288700 0.920444
vt 0.289912 0.889651
vt 0.293517 0.920444
vt 0.294405 0.889651
vt 0.301861 0.920444
vt 0.302186 0.889651
vt 0.311495 0.920444
vt 0.311170 0.889651
vt 0.319405 0.927563
vt 0.319405 0.932103
vt 0.311336 0.927563
vt 0.311336 0.932103
vt 0.324064 0.924942
vt 0.324064 0.924942
vt 0.302020 0.927563
vt 0.302020 0.932103
vt 0.293951 0.927563
vt 0.293951 0.932103
vt 0.289292 0.927563
vt 0.289292 0.932103
vt 0.293951 0.932103
vt 0.289292 0.932103
vt 0.302020 0.927563
vt 0.302020 0.932103
vt 0.311336 0.927563
vt 0.311336 0.932103
vt 0.318513 0.895003
vt 0.322845 0.895003
vt 0.322845 0.895003
vt 0.302346 0.895003
vt 0.311010 0.895003
vt 0.294843 0.895003
vt 0.290511 0.895003
vt 0.302346 0.895003
vt 0.311010 0.895003
vt 0.318513 0.895003
vt 0.431678 0.565725
vt 0.313800 0.900853
vt 0.324064 0.947728
vt 0.319405 0.947728
vt 0.318087 0.949529
vt 0.322263 0.949529
vt 0.324064 0.947728
vt 0.322263 0.949529
vt 0.319405 0.947728
vt 0.318087 0.949529
vt 0.311336 0.947728
vt 0.310854 0.949529
vt 0.302020 0.947728
vt 0.302502 0.949529
vt 0.293951 0.947728
vt 0.295269 0.949529
vt 0.289292 0.947728
vt 0.291094 0.949529
vt 0.289292 0.947728
vt 0.291094 0.949529
vt 0.293951 0.947728
vt 0.295269 0.949529
vt 0.302020 0.947728
vt 0.302502 0.949529
vt 0.311336 0.947728
vt 0.310854 0.949529
vt 0.313800 0.963353
vt 0.316407 0.963353
vt 0.316407 0.963353
vt 0.313800 0.963353
vt 0.309285 0.963353
vt 0.304071 0.963353
vt 0.299556 0.963353
vt 0.296949 0.963353
vt 0.296949 0.963353
vt 0.299556 0.963353
vt 0.304071 0.963353
vt 0.309285 0.963353
vn 0.2405 -0.3692 -0.8977
vn 0.2553 0.1635 -0.9529
vn 0.6976 0.1635 -0.6976
vn 0.6571 -0.3692 -0.6571
vn 0.8977 -0.3692 0.2405
vn 0.9529 0.1635 0.2553
vn 0.6976 0.1635 0.6976
vn 0.6571 -0.3692 0.6571
vn 0.2553 0.1635 0.9529
vn 0.2405 -0.3692 0.8977
vn -0.2553 0.1635 0.9529
vn -0.2405 -0.3692 0.8977
vn -0.6976 0.1635 0.6976
vn -0.6571 -0.3692 0.6571
vn -0.9529 0.1635 0.2553
vn -0.8977 -0.3692 0.2405
vn -0.9529 0.1635 -0.2553
vn -0.8977 -0.3692 -0.2405
vn -0.6976 0.1635 -0.6976
vn -0.6571 -0.3692 -0.6571
vn -0.2553 0.1635 -0.9529
vn -0.2405 -0.3692 -0.8977
vn -0.9383 -0.2377 -0.2514
vn -0.9383 -0.2377 0.2514
vn -0.9034 0.3540 0.2421
vn -0.9034 0.3540 -0.2421
vn 0.8977 -0.3692 -0.2405
vn 0.9529 0.1635 -0.2553
vn 0.6868 -0.2377 -0.6868
vn 0.2514 -0.2377 -0.9383
vn 0.2421 0.3540 -0.9034
vn 0.6613 0.3540 -0.6613
vn 0.2514 -0.2377 0.9383
vn 0.6868 -0.2377 0.6868
vn 0.6613 0.3540 0.6613
vn 0.2421 0.3540 0.9034
vn -0.2514 -0.2377 0.9383
vn -0.2421 0.3540 0.9034
vn -0.6868 -0.2377 0.6868
vn -0.6613 0.3540 0.6613
vn -0.2021 0.6248 0.7542
vn -0.5521 0.6248 0.5521
vn -0.6868 -0.2377 -0.6868
vn -0.6613 0.3540 -0.6613
vn -0.2514 -0.2377 -0.9383
vn -0.2421 0.3540 -0.9034
vn -0.6613 -0.3540 0.6613
vn -0.9034 -0.3540 0.2421
vn -0.6960 -0.6934 0.1865
vn -0.5095 -0.6934 0.5095
vn 0.9034 -0.3540 0.2421
vn 0.9034 -0.3540 -0.2421
vn 0.8977 0.3692 -0.2405
vn 0.8977 0.3692 0.2405
vn 0.8784 0.4159 -0.2354
vn 0.6430 0.4159 -0.6430
vn 0.7071 -0.0000 -0.7071
vn 0.9659 -0.0000 -0.2588
vn 0.7542 0.6248 0.2021
vn 0.5521 0.6248 0.5521
vn -0.5521 0.6248 -0.5521
vn -0.2021 0.6248 -0.7542
vn -0.7542 0.6248 0.2021
vn 0.2021 0.6248 0.7542
vn 0.2021 0.6248 -0.7542
vn 0.5521 0.6248 -0.5521
vn 0.7542 0.6248 -0.2021
vn -0.7542 0.6248 -0.2021
vn 0.4112 -0.9049 -0.1102
vn 0.3010 -0.9049 -0.3010
vn 0.4112 -0.9049 0.1102
vn 0.3010 -0.9049 0.3010
vn 0.1102 -0.9049 0.4112
vn -0.1102 -0.9049 0.4112
vn -0.3010 -0.9049 0.3010
vn -0.4112 -0.9049 0.1102
vn -0.4112 -0.9049 -0.1102
vn -0.3010 -0.9049 -0.3010
vn -0.1102 -0.9049 -0.4112
vn 0.1102 -0.9049 -0.4112
vn -0.0825 0.9479 0.3078
vn -0.2253 0.9479 0.2253
vn 0.3010 0.9049 -0.3010
vn 0.1102 0.9049 -0.4112
vn -0.8784 0.4159 -0.2354
vn -0.8784 0.4159 0.2354
vn -0.9659 0.0000 0.2588
vn -0.9659 0.0000 -0.2588
vn -0.2354 0.4159 -0.8784
vn -0.6430 0.4159 -0.6430
vn -0.7071 0.0000 -0.7071
vn -0.2588 0.0000 -0.9659
vn 0.2354 0.4159 -0.8784
vn 0.2588 -0.0000 -0.9659
vn 0.0825 0.9479 -0.3078
vn 0.2253 0.9479 -0.2253
vn -0.3010 0.9049 0.3010
vn -0.1102 0.9049 0.4112
vn 0.8784 0.4159 0.2354
vn 0.9659 -0.0000 0.2588
vn 0.6430 0.4159 0.6430
vn 0.7071 -0.0000 0.7071
vn 0.2354 0.4159 0.8784
vn 0.2588 -0.0000 0.9659
vn -0.2354 0.4159 0.8784
vn -0.2588 0.0000 0.9659
vn 0.6613 -0.3540 -0.6613
vn 0.6571 0.3692 -0.6571
vn -0.3078 0.9479 -0.0825
vn -0.2253 0.9479 -0.2253
vn 0.3010 0.9049 0.3010
vn 0.4112 0.9049 0.1102
vn 0.2253 0.9479 0.2253
vn 0.0825 0.9479 0.3078
vn -0.1102 0.9049 -0.4112
vn -0.3010 0.9049 -0.3010
vn 0.3078 0.9479 -0.0825
vn -0.4112 0.9049 0.1102
vn -0.0825 0.9479 -0.3078
vn 0.1102 0.9049 0.4112
vn -0.3078 0.9479 0.0825
vn 0.4112 0.9049 -0.1102
vn 0.3078 0.9479 0.0825
vn -0.4112 0.9049 -0.1102
vn 0.0000 1.0000 -0.0000
vn 0.4002 0.9101 -0.1072
vn 0.2930 0.9101 -0.2930
vn 0.2421 0.9396 -0.2421
vn 0.3307 0.9396 -0.0886
vn 0.8482 -0.4785 -0.2273
vn 0.6209 -0.4785 -0.6209
vn 0.9383 -0.2377 -0.2514
vn 0.4002 0.9101 0.1072
vn 0.3307 0.9396 0.0886
vn 0.8482 -0.4785 0.2273
vn 0.9383 -0.2377 0.2514
vn 0.2930 0.9101 0.2930
vn 0.2421 0.9396 0.2421
vn 0.6209 -0.4785 0.6209
vn 0.1072 0.9101 0.4002
vn 0.0886 0.9396 0.3307
vn 0.2273 -0.4785 0.8482
vn -0.1072 0.9101 0.4002
vn -0.0886 0.9396 0.3307
vn -0.2273 -0.4785 0.8482
vn -0.2930 0.9101 0.2930
vn -0.2421 0.9396 0.2421
vn -0.6209 -0.4785 0.6209
vn -0.4002 0.9101 0.1072
vn -0.3307 0.9396 0.0886
vn -0.8482 -0.4785 0.2273
vn -0.4002 0.9101 -0.1072
vn -0.3307 0.9396 -0.0886
vn -0.8482 -0.4785 -0.2273
vn -0.2930 0.9101 -0.2930
vn -0.2421 0.9396 -0.2421
vn -0.6209 -0.4785 -0.6209
vn -0.1072 0.9101 -0.4002
vn -0.0886 0.9396 -0.3307
vn -0.2273 -0.4785 -0.8482
vn 0.1072 0.9101 -0.4002
vn 0.0886 0.9396 -0.3307
vn 0.2273 -0.4785 -0.8482
vn 0.6613 -0.3540 0.6613
vn 0.6571 0.3692 0.6571
vn 0.2421 -0.3540 -0.9034
vn 0.2405 0.3692 -0.8977
vn 0.9034 0.3540 -0.2421
vn 0.9034 0.3540 0.2421
vn -0.2421 -0.3540 -0.9034
vn -0.2405 0.3692 -0.8977
vn -0.6613 -0.3540 -0.6613
vn -0.6571 0.3692 -0.6571
vn -0.9034 -0.3540 -0.2421
vn -0.8977 0.3692 -0.2405
vn -0.6571 0.3692 0.6571
vn -0.8977 0.3692 0.2405
vn -0.2421 -0.3540 0.9034
vn -0.2405 0.3692 0.8977
vn 0.2421 -0.3540 0.9034
vn 0.2405 0.3692 0.8977
vn 0.5095 0.6934 -0.5095
vn 0.6960 0.6934 -0.1865
vn 0.6960 0.6934 0.1865
vn -0.1865 0.6934 -0.6960
vn 0.1865 0.6934 -0.6960
vn -0.5095 0.6934 -0.5095
vn -0.6960 0.6934 -0.1865
vn -0.6960 0.6934 0.1865
vn -0.1865 0.6934 0.6960
vn -0.5095 0.6934 0.5095
vn 0.1865 0.6934 0.6960
vn 0.5095 0.6934 0.5095
vn 0.5095 -0.6934 -0.5095
vn 0.1865 -0.6934 -0.6960
vn 0.5095 -0.6934 0.5095
vn 0.6960 -0.6934 0.1865
vn 0.1865 -0.6934 0.6960
vn -0.1865 -0.6934 0.6960
vn -0.6960 -0.6934 -0.1865
vn -0.5095 -0.6934 -0.5095
vn -0.1865 -0.6934 -0.6960
vn 0.6960 -0.6934 -0.1865
vn 0.0000 -1.0000 -0.0000
vn -0.6430 0.4159 0.6430
vn -0.7071 0.0000 0.7071
usemtl tiny_treats_1
s 1
f 25/1/1 12/2/2 2/3/3 14/4/4
f 16/5/5 3/6/6 4/7/7 17/8/8
f 17/8/8 4/7/7 5/9/9 18/10/10
f 18/10/10 5/9/9 6/11/11 19/12/12
f 19/12/12 6/11/11 7/13/13 20/14/14
f 20/14/14 7/13/13 8/15/15 21/16/16
f 21/16/16 8/15/15 9/17/17 22/18/18
f 22/18/18 9/17/17 10/19/19 23/20/20
f 23/20/20 10/19/19 11/21/21 24/22/22
f 24/22/22 11/21/21 12/2/2 25/1/1
f 63/23/23 60/24/24 103/25/25 105/26/26
f 15/27/27 1/28/28 3/6/6 16/5/5
f 14/4/4 2/3/3 1/28/28 15/27/27
f 40/29/29 72/30/30 92/31/31 89/32/32
f 51/33/33 48/34/34 95/35/35 97/36/36
f 54/37/37 51/33/33 97/36/36 99/38/38
f 57/39/39 54/37/37 99/38/38 102/40/40
f 177/41/41 178/42/42 7/43/13 6/44/11
f 60/24/24 57/39/39 102/40/40 103/25/25
f 66/45/43 63/23/23 105/26/26 107/46/44
f 69/47/45 66/45/43 107/46/44 109/48/46
f 101/49/47 104/50/48 79/51/49 77/52/50
f 72/30/30 69/47/45 109/48/46 92/31/31
f 93/53/51 87/54/52 148/55/53 152/56/54
f 137/57/55 135/58/56 33/59/57 34/60/58
f 174/61/59 175/62/60 4/63/7 3/64/6
f 181/65/61 182/66/62 11/67/21 10/68/19
f 178/42/42 179/69/63 8/70/15 7/43/13
f 175/62/60 176/71/64 5/72/9 4/63/7
f 182/66/62 173/73/65 12/74/2 11/67/21
f 171/75/66 172/76/67 1/77/28 2/78/3
f 179/69/63 180/79/68 9/80/17 8/70/15
f 176/71/64 177/41/41 6/44/11 5/72/9
f 173/73/65 171/75/66 2/78/3 12/74/2
f 172/76/67 174/61/59 3/64/6 1/77/28
f 180/79/68 181/65/61 10/68/19 9/80/17
f 14/81/4 15/82/27 111/83/69 112/84/70
f 15/82/27 16/85/5 113/86/71 111/83/69
f 16/85/5 17/87/8 114/88/72 113/86/71
f 17/87/8 18/89/10 115/90/73 114/88/72
f 18/89/10 19/91/12 116/92/74 115/90/73
f 19/91/12 20/93/14 117/94/75 116/92/74
f 20/93/14 21/95/16 118/96/76 117/94/75
f 21/95/16 22/97/18 119/98/77 118/96/76
f 22/97/18 23/99/20 120/100/78 119/98/77
f 23/99/20 24/101/22 121/102/79 120/100/78
f 24/101/22 25/103/1 122/104/80 121/102/79
f 25/103/1 14/81/4 112/84/70 122/104/80
f 146/105/81 125/106/82 150/107/83 169/108/84
f 127/109/85 123/110/86 27/111/87 29/112/88
f 131/113/89 129/114/90 30/115/91 31/116/92
f 133/117/93 131/113/89 31/116/92 32/118/94
f 134/119/95 136/120/96 159/121/97 157/122/98
f 135/58/56 133/117/93 32/118/94 33/59/57
f 139/123/99 137/57/55 34/60/58 35/124/100
f 141/125/101 139/123/99 35/124/100 36/126/102
f 143/127/103 141/125/101 36/126/102 37/128/104
f 145/129/105 143/127/103 37/128/104 38/130/106
f 87/54/52 90/131/107 149/132/108 148/55/53
f 128/133/109 130/134/110 153/135/111 151/136/112
f 142/137/113 144/138/114 167/139/115 165/140/116
f 136/120/96 138/141/117 161/142/118 159/121/97
f 130/134/110 132/143/119 155/144/120 153/135/111
f 144/138/114 146/105/81 169/108/84 167/139/115
f 124/145/121 128/133/109 151/136/112 147/146/122
f 138/141/117 140/147/123 163/148/124 161/142/118
f 132/143/119 134/119/95 157/122/98 155/144/120
f 129/114/90 127/109/85 29/112/88 30/115/91
f 125/106/82 124/145/121 147/146/122 150/107/83
f 140/147/123 142/137/113 165/140/116 163/148/124
f 26/149/125 27/111/125 28/150/125
f 26/149/125 29/112/125 27/111/125
f 26/149/125 30/115/125 29/112/125
f 26/149/125 31/116/125 30/115/125
f 26/149/125 32/118/125 31/116/125
f 26/149/125 33/59/125 32/118/125
f 26/149/125 34/60/125 33/59/125
f 26/149/125 35/124/125 34/60/125
f 26/149/125 36/126/125 35/124/125
f 26/149/125 37/128/125 36/126/125
f 26/149/125 38/130/125 37/128/125
f 26/149/125 28/150/125 38/130/125
f 43/151/126 39/152/127 41/153/128 44/154/129
f 44/154/130 41/153/131 40/29/29 42/155/132
f 46/156/133 43/151/126 44/154/129 47/157/134
f 47/157/135 44/154/130 42/155/132 45/158/136
f 49/159/137 46/156/133 47/157/134 50/160/138
f 50/160/139 47/157/135 45/158/136 48/34/34
f 52/161/140 49/159/137 50/160/138 53/162/141
f 53/162/142 50/160/139 48/34/34 51/33/33
f 55/163/143 52/161/140 53/162/141 56/164/144
f 56/164/145 53/162/142 51/33/33 54/37/37
f 58/165/146 55/163/143 56/164/144 59/166/147
f 59/166/148 56/164/145 54/37/37 57/39/39
f 61/167/149 58/165/146 59/166/147 62/168/150
f 62/168/151 59/166/148 57/39/39 60/24/24
f 64/169/152 61/167/149 62/168/150 65/170/153
f 65/170/154 62/168/151 60/24/24 63/23/23
f 67/171/155 64/169/152 65/170/153 68/172/156
f 68/172/157 65/170/154 63/23/23 66/45/43
f 70/173/158 67/171/155 68/172/156 71/174/159
f 71/174/160 68/172/157 66/45/43 69/47/45
f 73/175/161 70/173/158 71/174/159 74/176/162
f 74/176/163 71/174/160 69/47/45 72/30/30
f 39/152/127 73/175/161 74/176/162 41/153/128
f 41/153/131 74/176/163 72/30/30 40/29/29
f 96/177/164 93/53/51 152/56/54 154/178/165
f 90/131/107 91/179/166 170/180/167 149/132/108
f 42/155/132 40/29/29 89/32/32 88/181/168
f 48/34/34 45/158/136 94/182/169 95/35/35
f 91/179/166 110/183/170 168/184/171 170/180/167
f 110/183/170 108/185/172 166/186/173 168/184/171
f 108/185/172 106/187/174 164/188/175 166/186/173
f 104/50/48 101/49/47 160/189/176 162/190/177
f 101/49/47 100/191/178 158/192/179 160/189/176
f 100/191/178 98/193/180 156/194/181 158/192/179
f 98/193/180 96/177/164 154/178/165 156/194/181
f 106/187/174 104/50/48 162/190/177 164/188/175
f 86/195/182 85/196/183 88/181/168 89/32/32
f 85/196/183 84/197/184 94/182/169 88/181/168
f 83/198/185 82/199/186 92/31/31 109/48/46
f 81/200/187 83/198/185 109/48/46 107/46/44
f 80/201/188 81/200/187 107/46/44 105/26/26
f 79/51/189 80/201/188 105/26/26 103/25/25
f 78/202/190 77/52/191 102/40/40 99/38/38
f 76/203/192 78/202/190 99/38/38 97/36/36
f 75/204/193 76/203/192 97/36/36 95/35/35
f 84/197/184 75/204/193 95/35/35 94/182/169
f 82/199/186 86/195/182 89/32/32 92/31/31
f 77/52/191 79/51/189 103/25/25 102/40/40
f 45/158/136 42/155/132 88/181/168 94/182/169
f 91/179/166 90/131/107 86/195/194 82/199/195
f 93/53/51 96/177/164 75/204/196 84/197/197
f 96/177/164 98/193/180 76/203/198 75/204/196
f 98/193/180 100/191/178 78/202/199 76/203/198
f 100/191/178 101/49/47 77/52/50 78/202/199
f 104/50/48 106/187/174 80/201/200 79/51/49
f 106/187/174 108/185/172 81/200/201 80/201/200
f 108/185/172 110/183/170 83/198/202 81/200/201
f 110/183/170 91/179/166 82/199/195 83/198/202
f 87/54/52 93/53/51 84/197/197 85/196/203
f 90/131/107 87/54/52 85/196/203 86/195/194
f 13/205/204 112/84/70 111/83/69
f 13/205/204 111/83/69 113/86/71
f 13/205/204 113/86/71 114/88/72
f 13/205/204 114/88/72 115/90/73
f 13/205/204 115/90/73 116/92/74
f 13/205/204 116/92/74 117/94/75
f 13/205/204 117/94/75 118/96/76
f 13/205/204 118/96/76 119/98/77
f 13/205/204 119/98/77 120/100/78
f 13/205/204 120/100/78 121/102/79
f 13/205/204 121/102/79 122/104/80
f 13/205/204 122/104/80 112/84/70
f 126/206/205 145/129/105 38/130/106 28/150/206
f 148/207/53 149/208/108 150/209/83 147/210/122
f 152/211/54 148/207/53 147/210/122 151/212/112
f 154/213/165 152/211/54 151/212/112 153/214/111
f 156/215/181 154/213/165 153/214/111 155/216/120
f 158/217/179 156/215/181 155/216/120 157/218/98
f 160/219/176 158/217/179 157/218/98 159/220/97
f 162/221/177 160/219/176 159/220/97 161/222/118
f 164/223/175 162/221/177 161/222/118 163/224/124
f 166/225/173 164/223/175 163/224/124 165/226/116
f 168/227/171 166/225/173 165/226/116 167/228/115
f 170/229/167 168/227/171 167/228/115 169/230/84
f 149/208/108 170/229/167 169/230/84 150/209/83
f 124/145/121 125/106/82 126/231/205 123/232/86
f 128/133/109 124/145/121 123/232/86 127/233/85
f 130/134/110 128/133/109 127/233/85 129/234/90
f 132/143/119 130/134/110 129/234/90 131/235/89
f 134/119/95 132/143/119 131/235/89 133/236/93
f 136/120/96 134/119/95 133/236/93 135/237/56
f 138/141/117 136/120/96 135/237/56 137/238/55
f 140/147/123 138/141/117 137/238/55 139/239/99
f 142/137/113 140/147/123 139/239/99 141/240/101
f 144/138/114 142/137/113 141/240/101 143/241/103
f 146/105/81 144/138/114 143/241/103 145/242/105
f 125/106/82 146/105/81 145/242/105 126/231/205
f 123/110/86 126/206/205 28/150/206 27/111/87
f 64/169/152 67/171/155 181/65/61 180/79/68
f 43/151/126 46/156/133 174/61/59 172/76/67
f 73/175/161 39/152/127 171/75/66 173/73/65
f 52/161/140 55/163/143 177/41/41 176/71/64
f 61/167/149 64/169/152 180/79/68 179/69/63
f 39/152/127 43/151/126 172/76/67 171/75/66
f 70/173/158 73/175/161 173/73/65 182/66/62
f 49/159/137 52/161/140 176/71/64 175/62/60
f 58/165/146 61/167/149 179/69/63 178/42/42
f 67/171/155 70/173/158 182/66/62 181/65/61
f 46/156/133 49/159/137 175/62/60 174/61/59
f 55/163/143 58/165/146 178/42/42 177/41/41
