# Blender v3.4.1 OBJ File: 'Tiny_Treats_Pleasant_Picnic_ASSETS_EXPORT.blend'
# www.blender.org
mtllib wine_glass.mtl
o wine_glass
v -0.000002 0.432542 -0.137829
v 0.068912 0.432542 -0.119363
v 0.119361 0.432542 -0.068915
v 0.137827 0.432542 0.000000
v 0.119361 0.432542 0.068915
v 0.068912 0.432542 0.119363
v -0.000002 0.432542 0.137829
v -0.068917 0.432542 0.119363
v -0.119366 0.432542 0.068915
v -0.137831 0.432542 -0.000000
v -0.119366 0.432542 -0.068915
v -0.068917 0.432542 -0.119363
v 0.099193 0.432542 -0.171811
v -0.000002 0.432542 -0.198390
v 0.171809 0.432542 -0.099195
v 0.198388 0.432542 0.000000
v 0.171809 0.432542 0.099195
v 0.099193 0.432542 0.171811
v -0.000002 0.432542 0.198390
v -0.099197 0.432542 0.171811
v -0.171813 0.432542 0.099195
v -0.198392 0.432542 -0.000000
v -0.171813 0.432542 -0.099195
v -0.099197 0.432542 -0.171811
v -0.000002 0.261281 0.000000
v 0.049132 0.203108 -0.085102
v -0.000002 0.261281 -0.169822
v 0.084909 0.261281 -0.147070
v 0.147068 0.261281 -0.084911
v 0.169820 0.261281 0.000000
v 0.147068 0.261281 0.084911
v 0.084909 0.261281 0.147070
v -0.000002 0.261281 0.169822
v -0.084913 0.261281 0.147070
v -0.147072 0.261281 0.084911
v -0.169824 0.261281 -0.000000
v -0.147072 0.261281 -0.084911
v -0.084913 0.261281 -0.147070
v 0.022886 0.055000 -0.039644
v -0.022891 0.055000 -0.039644
v -0.039646 0.055000 -0.022889
v -0.045779 0.055000 -0.000000
v -0.039646 0.055000 0.022889
v -0.022891 0.055000 0.039644
v -0.000002 0.055000 0.045777
v 0.022886 0.055000 0.039644
v 0.039642 0.055000 0.022889
v 0.045775 0.055000 0.000000
v 0.039642 0.055000 -0.022889
v -0.000002 0.055000 -0.045777
v -0.000002 0.185653 -0.045777
v 0.039642 0.185653 -0.022889
v 0.045775 0.185653 0.000000
v 0.039642 0.185653 0.022889
v 0.022886 0.185653 0.039644
v 0.067327 0.229292 -0.116618
v -0.000002 0.229292 -0.134659
v 0.116616 0.229292 -0.067330
v 0.134657 0.229292 0.000000
v 0.116616 0.229292 0.067330
v 0.067327 0.229292 0.116618
v -0.000002 0.229292 0.134659
v -0.067332 0.229292 0.116618
v -0.116620 0.229292 0.067330
v -0.134661 0.229292 -0.000000
v -0.116620 0.229292 -0.067330
v -0.067332 0.229292 -0.116618
v 0.058989 0.261281 -0.102175
v -0.000002 0.261281 -0.117982
v 0.102173 0.261281 -0.058991
v 0.117979 0.261281 0.000000
v 0.102173 0.261281 0.058991
v 0.058989 0.261281 0.102175
v -0.000002 0.261281 0.117982
v -0.058993 0.261281 0.102175
v -0.102177 0.261281 0.058991
v -0.117984 0.261281 -0.000000
v -0.102177 0.261281 -0.058991
v -0.058993 0.261281 -0.102175
v -0.000002 0.185653 0.045777
v -0.022891 0.185653 0.039644
v -0.039646 0.185653 0.022889
v -0.045779 0.185653 -0.000000
v -0.039646 0.185653 -0.022889
v -0.022891 0.185653 -0.039644
v -0.000002 0.320362 -0.191092
v -0.000002 0.375762 -0.200000
v 0.099998 0.375762 -0.173205
v 0.095544 0.320362 -0.165491
v -0.100002 0.375762 -0.173205
v -0.095548 0.320362 -0.165491
v 0.173203 0.375762 -0.100000
v 0.165488 0.320361 -0.095546
v 0.191090 0.320361 0.000000
v 0.199998 0.375762 0.000000
v 0.165488 0.320361 0.095546
v 0.173203 0.375762 0.100000
v 0.095544 0.320362 0.165491
v 0.099998 0.375762 0.173205
v -0.000002 0.320362 0.191092
v -0.000002 0.375762 0.200000
v -0.095548 0.320362 0.165491
v -0.100002 0.375762 0.173205
v -0.165493 0.320361 0.095546
v -0.173207 0.375762 0.100000
v -0.191094 0.320361 -0.000000
v -0.200002 0.375762 -0.000000
v -0.165493 0.320361 -0.095546
v -0.173207 0.375762 -0.100000
v 0.022886 0.185653 -0.039644
v -0.049136 0.203108 -0.085102
v -0.085104 0.203108 -0.049134
v -0.098270 0.203108 -0.000000
v -0.085104 0.203108 0.049134
v -0.049136 0.203108 0.085102
v -0.000002 0.203108 0.098268
v 0.049132 0.203108 0.085102
v 0.085100 0.203108 0.049134
v 0.098266 0.203108 0.000000
v 0.085100 0.203108 -0.049134
v -0.000002 0.203108 -0.098268
v -0.000002 -0.000002 0.000000
v 0.058316 0.055000 -0.101010
v 0.065999 0.040000 -0.114317
v -0.058321 0.055000 -0.101010
v -0.066003 0.040000 -0.114317
v -0.114319 0.040000 -0.066001
v -0.101008 0.055000 -0.058316
v -0.116630 0.055000 -0.000000
v -0.132004 0.040000 -0.000000
v -0.101008 0.055000 0.058316
v -0.114319 0.040000 0.066001
v -0.066003 0.040000 0.114317
v -0.058321 0.055000 0.101010
v -0.000002 0.040000 0.132002
v -0.000002 0.055000 0.116640
v 0.065999 0.040000 0.114317
v 0.058316 0.055000 0.101010
v 0.101003 0.055000 0.058316
v 0.114315 0.040000 0.066001
v 0.116626 0.055000 0.000000
v 0.132000 0.040000 0.000000
v 0.114315 0.040000 -0.066001
v 0.101003 0.055000 -0.058316
v -0.000002 0.040000 -0.132002
v -0.000002 0.055000 -0.116640
v -0.000002 0.449998 -0.168110
v 0.084053 0.449998 -0.145587
v 0.145585 0.449998 -0.084055
v 0.168107 0.449998 0.000000
v 0.145585 0.449998 0.084055
v 0.084053 0.449998 0.145587
v -0.000002 0.449998 0.168110
v -0.084057 0.449998 0.145587
v -0.145589 0.449998 0.084055
v -0.168112 0.449998 -0.000000
v -0.145589 0.449998 -0.084055
v -0.084057 0.449998 -0.145587
v -0.114319 -0.000002 0.066001
v -0.066003 -0.000002 0.114317
v -0.132004 -0.000002 -0.000000
v -0.066003 -0.000002 -0.114317
v -0.114319 -0.000002 -0.066001
v -0.000002 -0.000002 0.132002
v 0.132000 -0.000002 0.000000
v 0.114315 -0.000002 -0.066001
v 0.065999 -0.000002 -0.114317
v -0.000002 -0.000002 -0.132002
v 0.114315 -0.000002 0.066001
v 0.065999 -0.000002 0.114317
vt 0.444270 0.701526
vt 0.445118 0.711923
vt 0.450695 0.711923
vt 0.449226 0.701526
vt 0.451040 0.701526
vt 0.452736 0.711923
vt 0.450695 0.711923
vt 0.449226 0.701526
vt 0.445118 0.711923
vt 0.444270 0.701526
vt 0.437500 0.711923
vt 0.437500 0.701526
vt 0.429882 0.711923
vt 0.430730 0.701526
vt 0.424305 0.711923
vt 0.425774 0.701526
vt 0.422264 0.711923
vt 0.423960 0.701526
vt 0.424305 0.711923
vt 0.425774 0.701526
vt 0.429882 0.711923
vt 0.430730 0.701526
vt 0.442995 0.662686
vt 0.437500 0.662686
vt 0.437500 0.632546
vt 0.442204 0.632546
vt 0.423690 0.721673
vt 0.423801 0.731666
vt 0.429591 0.731666
vt 0.429527 0.721673
vt 0.437500 0.711923
vt 0.437500 0.701526
vt 0.437500 0.734739
vt 0.444202 0.734739
vt 0.445409 0.731666
vt 0.437500 0.731666
vt 0.449108 0.734739
vt 0.451199 0.731666
vt 0.450904 0.734739
vt 0.453318 0.731666
vt 0.449108 0.734739
vt 0.451199 0.731666
vt 0.444202 0.734739
vt 0.445409 0.731666
vt 0.437500 0.734739
vt 0.437500 0.731666
vt 0.430798 0.734739
vt 0.429591 0.731666
vt 0.425892 0.734739
vt 0.423801 0.731666
vt 0.424097 0.734739
vt 0.421682 0.731666
vt 0.425892 0.734739
vt 0.430798 0.734739
vt 0.427983 0.662686
vt 0.432005 0.662686
vt 0.432797 0.632546
vt 0.429354 0.632546
vt 0.442995 0.662686
vt 0.447017 0.662686
vt 0.445646 0.632546
vt 0.442204 0.632546
vt 0.432005 0.662686
vt 0.432797 0.632546
vt 0.447017 0.662686
vt 0.445646 0.632546
vt 0.426511 0.662686
vt 0.428093 0.632546
vt 0.437500 0.662686
vt 0.437500 0.632546
vt 0.448490 0.662686
vt 0.446907 0.632546
vt 0.427983 0.662686
vt 0.429354 0.632546
vt 0.442868 0.664646
vt 0.437500 0.664646
vt 0.446798 0.664646
vt 0.448237 0.664646
vt 0.446798 0.664646
vt 0.442868 0.664646
vt 0.437500 0.664646
vt 0.432132 0.664646
vt 0.428202 0.664646
vt 0.426763 0.664646
vt 0.428202 0.664646
vt 0.432132 0.664646
vt 0.445335 0.660037
vt 0.444286 0.660037
vt 0.440661 0.656965
vt 0.441150 0.656965
vt 0.430715 0.660037
vt 0.433582 0.660037
vt 0.435675 0.656965
vt 0.434339 0.656965
vt 0.437500 0.660037
vt 0.433582 0.660037
vt 0.435675 0.656965
vt 0.437500 0.656965
vt 0.439325 0.656965
vt 0.440661 0.656965
vt 0.440661 0.656421
vt 0.439325 0.656421
vt 0.441418 0.660037
vt 0.439325 0.656965
vt 0.444286 0.660037
vt 0.429665 0.660037
vt 0.433850 0.656965
vt 0.437500 0.656965
vt 0.437500 0.656421
vt 0.435675 0.656421
vt 0.434339 0.656421
vt 0.433850 0.656421
vt 0.434339 0.656965
vt 0.434339 0.656421
vt 0.430715 0.660037
vt 0.435675 0.656421
vt 0.441418 0.660037
vt 0.441150 0.656421
vt 0.437500 0.656421
vt 0.437500 0.660037
vt 0.437500 0.632546
vt 0.440661 0.656421
vt 0.437500 0.721673
vt 0.445473 0.721673
vt 0.451310 0.721673
vt 0.421554 0.721673
vt 0.423690 0.721673
vt 0.429527 0.721673
vt 0.437500 0.721673
vt 0.445473 0.721673
vt 0.451310 0.721673
vt 0.453446 0.721673
vt 0.439325 0.656421
vt 0.437500 0.653782
vt 0.432238 0.653782
vt 0.432238 0.646741
vt 0.437500 0.646741
vt 0.448025 0.653782
vt 0.446615 0.653782
vt 0.446615 0.646741
vt 0.448025 0.646741
vt 0.442762 0.653782
vt 0.442762 0.646741
vt 0.428385 0.653782
vt 0.432238 0.653782
vt 0.432238 0.646741
vt 0.428385 0.646741
vt 0.446615 0.653782
vt 0.446615 0.646741
vt 0.426976 0.653782
vt 0.426976 0.646741
vt 0.428385 0.653782
vt 0.428385 0.646741
vt 0.442762 0.653782
vt 0.442762 0.646741
vt 0.437500 0.653782
vt 0.437500 0.646741
vt 0.440661 0.687671
vt 0.441150 0.687671
vt 0.446799 0.687671
vt 0.445553 0.687671
vt 0.439325 0.687671
vt 0.442150 0.687671
vt 0.434339 0.687671
vt 0.433850 0.687671
vt 0.428201 0.687671
vt 0.429447 0.687671
vt 0.435675 0.687671
vt 0.437500 0.687671
vt 0.437500 0.687671
vt 0.432850 0.687671
vt 0.434339 0.687671
vt 0.429447 0.687671
vt 0.439325 0.687671
vt 0.437500 0.687671
vt 0.437500 0.687671
vt 0.442150 0.687671
vt 0.440661 0.687671
vt 0.445553 0.687671
vt 0.435675 0.687671
vt 0.432850 0.687671
vt 0.428385 0.700657
vt 0.432238 0.700657
vt 0.432850 0.703296
vt 0.429447 0.703296
vt 0.426976 0.700657
vt 0.428201 0.703296
vt 0.432238 0.700657
vt 0.428385 0.700657
vt 0.429447 0.703296
vt 0.432850 0.703296
vt 0.437500 0.700657
vt 0.437500 0.703296
vt 0.448025 0.700657
vt 0.446615 0.700657
vt 0.445553 0.703296
vt 0.446799 0.703296
vt 0.442762 0.700657
vt 0.437500 0.700657
vt 0.437500 0.703296
vt 0.442150 0.703296
vt 0.446615 0.700657
vt 0.445553 0.703296
vt 0.442762 0.700657
vt 0.442150 0.703296
vt 0.432005 0.731666
vt 0.437500 0.731666
vt 0.427983 0.731666
vt 0.426511 0.731666
vt 0.427983 0.731666
vt 0.432005 0.731666
vt 0.437500 0.731666
vt 0.442995 0.731666
vt 0.447017 0.731666
vt 0.448490 0.731666
vt 0.447017 0.731666
vt 0.442995 0.731666
vt 0.434198 0.609011
vt 0.432238 0.609011
vt 0.428385 0.609011
vt 0.431780 0.609011
vt 0.426976 0.609011
vt 0.428385 0.609011
vt 0.432238 0.609011
vt 0.437500 0.609011
vt 0.437500 0.609011
vt 0.443220 0.609011
vt 0.446615 0.609011
vt 0.448025 0.609011
vt 0.437500 0.609011
vt 0.442762 0.609011
vt 0.444105 0.609011
vt 0.446615 0.609011
vt 0.430895 0.609011
vt 0.440802 0.609011
vt 0.442762 0.609011
vn 0.4215 -0.5379 -0.7300
vn 0.4846 -0.2462 -0.8394
vn 0.8394 -0.2462 -0.4846
vn 0.7300 -0.5379 -0.4215
vn 0.8430 -0.5379 0.0000
vn 0.9692 -0.2462 0.0000
vn 0.8394 -0.2462 0.4846
vn 0.7300 -0.5379 0.4215
vn 0.4846 -0.2462 0.8394
vn 0.4215 -0.5379 0.7300
vn -0.0000 -0.2462 0.9692
vn -0.0000 -0.5379 0.8430
vn -0.4846 -0.2462 0.8394
vn -0.4215 -0.5379 0.7300
vn -0.8394 -0.2462 0.4846
vn -0.7300 -0.5379 0.4215
vn -0.9692 -0.2462 -0.0000
vn -0.8430 -0.5379 0.0000
vn -0.8394 -0.2462 -0.4846
vn -0.7300 -0.5379 -0.4215
vn -0.4846 -0.2462 -0.8394
vn -0.4215 -0.5379 -0.7300
vn -0.4967 0.1151 0.8603
vn 0.0000 0.1151 0.9934
vn -0.8642 -0.0645 -0.4990
vn -0.8657 0.0283 -0.4998
vn -0.4998 0.0283 -0.8657
vn -0.4990 -0.0645 -0.8642
vn 0.0000 -0.2462 -0.9692
vn -0.0000 -0.5379 -0.8430
vn -0.0000 0.8664 -0.4994
vn 0.2497 0.8664 -0.4325
vn 0.4325 0.8664 -0.2497
vn 0.4994 0.8664 0.0000
vn 0.4325 0.8664 0.2497
vn 0.2497 0.8664 0.4325
vn -0.0000 0.8664 0.4994
vn -0.2497 0.8664 0.4325
vn -0.4325 0.8664 0.2497
vn -0.4994 0.8664 0.0000
vn -0.4325 0.8664 -0.2497
vn -0.2497 0.8664 -0.4325
vn 0.8603 0.1151 -0.4967
vn 0.4967 0.1151 -0.8603
vn -0.4967 0.1151 -0.8603
vn -0.8603 0.1151 -0.4967
vn 0.4967 0.1151 0.8603
vn -0.8603 0.1151 0.4967
vn 0.9934 0.1151 0.0000
vn 0.0000 0.1151 -0.9934
vn -0.9934 0.1151 0.0000
vn 0.8603 0.1151 0.4967
vn 0.3176 -0.7724 -0.5501
vn 0.0000 -0.7724 -0.6352
vn 0.5501 -0.7724 -0.3176
vn 0.6352 -0.7724 0.0000
vn 0.5501 -0.7724 0.3176
vn 0.3176 -0.7724 0.5501
vn -0.0000 -0.7724 0.6352
vn -0.3176 -0.7724 0.5501
vn -0.5501 -0.7724 0.3176
vn -0.6352 -0.7724 0.0000
vn -0.5501 -0.7724 -0.3176
vn -0.3176 -0.7724 -0.5501
vn 0.4744 -0.8803 0.0000
vn 0.4109 -0.8803 0.2372
vn 0.2733 -0.9489 0.1578
vn 0.3156 -0.9489 0.0000
vn -0.4109 -0.8803 -0.2372
vn -0.2372 -0.8803 -0.4109
vn -0.1578 -0.9489 -0.2733
vn -0.2733 -0.9489 -0.1578
vn -0.0000 -0.8803 0.4744
vn -0.2372 -0.8803 0.4109
vn -0.1578 -0.9489 0.2733
vn -0.0000 -0.9489 0.3156
vn 0.5000 0.0000 -0.8660
vn 0.8660 0.0000 -0.5000
vn 0.2372 -0.8803 0.4109
vn 0.1578 -0.9489 0.2733
vn 0.4109 -0.8803 -0.2372
vn 0.2733 -0.9489 -0.1578
vn -0.4744 -0.8803 -0.0000
vn -0.3156 -0.9489 0.0000
vn -0.5000 0.0000 -0.8660
vn -0.0000 0.0000 -1.0000
vn -0.8660 0.0000 -0.5000
vn -1.0000 0.0000 -0.0000
vn -0.8660 0.0000 0.5000
vn -0.4109 -0.8803 0.2372
vn -0.2733 -0.9489 0.1578
vn -0.5000 0.0000 0.8660
vn 0.2372 -0.8803 -0.4109
vn 0.1578 -0.9489 -0.2733
vn 1.0000 0.0000 0.0000
vn -0.0000 0.0000 1.0000
vn 0.0000 -0.8803 -0.4744
vn 0.0000 1.0000 -0.0000
vn 0.8660 0.0000 0.5000
vn 0.0000 0.0283 -0.9996
vn 0.0000 -0.0645 -0.9979
vn 0.4990 -0.0645 -0.8642
vn 0.4998 0.0283 -0.8657
vn 0.8657 0.0283 -0.4998
vn 0.8642 -0.0645 -0.4990
vn -0.9979 -0.0645 0.0000
vn -0.9996 0.0283 0.0000
vn -0.8642 -0.0645 0.4990
vn -0.8657 0.0283 0.4998
vn -0.4990 -0.0645 0.8642
vn -0.4998 0.0283 0.8657
vn 0.0000 -0.0645 0.9979
vn 0.0000 0.0283 0.9996
vn 0.4990 -0.0645 0.8642
vn 0.4998 0.0283 0.8657
vn 0.8642 -0.0645 0.4990
vn 0.8657 0.0283 0.4998
vn 0.9979 -0.0645 0.0000
vn 0.9996 0.0283 0.0000
vn 0.5000 0.0000 0.8660
vn -0.0000 -0.9489 -0.3156
vn -0.0000 0.3670 0.9302
vn -0.4651 0.3670 0.8056
vn 0.9302 0.3671 0.0000
vn 0.8056 0.3671 0.4651
vn 0.4651 0.3670 0.8056
vn -0.8056 0.3671 -0.4651
vn -0.4651 0.3670 -0.8056
vn 0.8056 0.3671 -0.4651
vn -0.9302 0.3671 -0.0000
vn -0.8056 0.3671 0.4651
vn 0.4651 0.3670 -0.8056
vn 0.0000 0.3670 -0.9302
vn 0.4283 0.9037 0.0000
vn 0.3709 0.9036 -0.2141
vn 0.2142 0.9036 -0.3710
vn -0.4283 0.9037 0.0000
vn -0.3709 0.9036 0.2141
vn -0.0000 0.9036 -0.4284
vn -0.2142 0.9036 -0.3710
vn -0.3709 0.9036 -0.2141
vn -0.0000 0.9036 0.4284
vn 0.2142 0.9036 0.3710
vn 0.3709 0.9036 0.2141
vn -0.2142 0.9036 0.3710
vn 0.0000 -1.0000 -0.0000
usemtl tiny_treats_1
s 1
f 28/1/1 89/2/2 93/3/3 29/4/4
f 30/5/5 94/6/6 96/7/7 31/8/8
f 31/8/8 96/7/7 98/9/9 32/10/10
f 32/10/10 98/9/9 100/11/11 33/12/12
f 33/12/12 100/11/11 102/13/13 34/14/14
f 34/14/14 102/13/13 104/15/15 35/16/16
f 35/16/16 104/15/15 106/17/17 36/18/18
f 36/18/18 106/17/17 108/19/19 37/20/20
f 37/20/20 108/19/19 91/21/21 38/22/22
f 2/23/23 1/24/24 69/25/24 68/26/23
f 109/27/25 23/28/26 24/29/27 90/30/28
f 38/22/22 91/21/21 86/31/29 27/32/30
f 147/33/31 148/34/32 13/35/32 14/36/31
f 148/34/32 149/37/33 15/38/33 13/35/32
f 149/37/33 150/39/34 16/40/34 15/38/33
f 150/39/34 151/41/35 17/42/35 16/40/34
f 151/41/35 152/43/36 18/44/36 17/42/35
f 152/43/36 153/45/37 19/46/37 18/44/36
f 153/45/37 154/47/38 20/48/38 19/46/37
f 154/47/38 155/49/39 21/50/39 20/48/38
f 155/49/39 156/51/40 22/52/40 21/50/39
f 156/51/40 157/53/41 23/28/41 22/52/40
f 157/53/41 158/54/42 24/29/42 23/28/41
f 9/55/43 8/56/44 75/57/44 76/58/43
f 6/59/45 5/60/46 72/61/46 73/62/45
f 1/24/24 12/63/47 79/64/47 69/25/24
f 3/65/48 2/23/23 68/26/23 70/66/48
f 10/67/49 9/55/43 76/58/43 77/68/49
f 7/69/50 6/59/45 73/62/45 74/70/50
f 4/71/51 3/65/48 70/66/48 71/72/51
f 11/73/52 10/67/49 77/68/49 78/74/52
f 8/56/44 7/69/50 74/70/50 75/57/44
f 5/60/46 4/71/51 71/72/51 72/61/46
f 12/63/47 11/73/52 78/74/52 79/64/47
f 27/32/30 28/1/1 56/75/53 57/76/54
f 28/1/1 29/4/4 58/77/55 56/75/53
f 29/4/4 30/5/5 59/78/56 58/77/55
f 30/5/5 31/8/8 60/79/57 59/78/56
f 31/8/8 32/10/10 61/80/58 60/79/57
f 32/10/10 33/12/12 62/81/59 61/80/58
f 33/12/12 34/14/14 63/82/60 62/81/59
f 34/14/14 35/16/16 64/83/61 63/82/60
f 35/16/16 36/18/18 65/84/62 64/83/61
f 36/18/18 37/20/20 66/85/63 65/84/62
f 37/20/20 38/22/22 67/86/64 66/85/63
f 38/22/22 27/32/30 57/76/54 67/86/64
f 119/87/65 118/88/66 54/89/67 53/90/68
f 112/91/69 111/92/70 85/93/71 84/94/72
f 116/95/73 115/96/74 81/97/75 80/98/76
f 110/99/77 52/100/78 49/101/78 39/102/77
f 117/103/79 116/95/73 80/98/76 55/104/80
f 120/105/81 119/87/65 53/90/68 52/100/82
f 113/106/83 112/91/69 84/94/72 83/107/84
f 85/93/85 51/108/86 50/109/86 40/110/85
f 84/94/87 85/93/85 40/110/85 41/111/87
f 51/108/86 110/99/77 39/102/77 50/109/86
f 83/107/88 84/94/87 41/111/87 42/112/88
f 82/113/89 83/107/88 42/112/88 43/114/89
f 114/115/90 113/106/83 83/107/84 82/113/91
f 81/97/92 82/113/89 43/114/89 44/116/92
f 26/117/93 120/105/81 52/100/82 110/99/94
f 52/100/78 53/90/95 48/118/95 49/101/78
f 80/98/96 81/97/92 44/116/92 45/119/96
f 59/78/56 60/79/57 118/88/66 119/87/65
f 60/79/57 61/80/58 117/103/79 118/88/66
f 61/80/58 62/81/59 116/95/73 117/103/79
f 67/86/64 57/76/54 121/120/97 111/92/70
f 62/81/59 63/82/60 115/96/74 116/95/73
f 63/82/60 64/83/61 114/115/90 115/96/74
f 64/83/61 65/84/62 113/106/83 114/115/90
f 57/76/54 56/75/53 26/117/93 121/120/97
f 65/84/62 66/85/63 112/91/69 113/106/83
f 56/75/53 58/77/55 120/105/81 26/117/93
f 66/85/63 67/86/64 111/92/70 112/91/69
f 58/77/55 59/78/56 119/87/65 120/105/81
f 25/121/98 68/26/98 69/25/98
f 25/121/98 70/66/98 68/26/98
f 25/121/98 71/72/98 70/66/98
f 25/121/98 72/61/98 71/72/98
f 25/121/98 73/62/98 72/61/98
f 25/121/98 74/70/98 73/62/98
f 25/121/98 75/57/98 74/70/98
f 25/121/98 76/58/98 75/57/98
f 25/121/98 77/68/98 76/58/98
f 25/121/98 78/74/98 77/68/98
f 25/121/98 79/64/98 78/74/98
f 25/121/98 69/25/98 79/64/98
f 53/90/95 54/89/99 47/122/99 48/118/95
f 90/30/28 24/29/27 14/36/100 87/123/101
f 88/124/102 13/35/103 15/38/104 92/125/105
f 29/4/4 93/3/3 94/6/6 30/5/5
f 107/126/106 22/52/107 23/28/26 109/27/25
f 105/127/108 21/50/109 22/52/107 107/126/106
f 103/128/110 20/48/111 21/50/109 105/127/108
f 101/129/112 19/46/113 20/48/111 103/128/110
f 99/130/114 18/44/115 19/46/113 101/129/112
f 97/131/116 17/42/117 18/44/115 99/130/114
f 95/132/118 16/40/119 17/42/117 97/131/116
f 92/125/105 15/38/104 16/40/119 95/132/118
f 27/32/30 86/31/29 89/2/2 28/1/1
f 87/123/101 88/124/102 89/2/2 86/31/29
f 88/124/102 92/125/105 93/3/3 89/2/2
f 109/27/25 90/30/28 91/21/21 108/19/19
f 107/126/106 109/27/25 108/19/19 106/17/17
f 105/127/108 107/126/106 106/17/17 104/15/15
f 103/128/110 105/127/108 104/15/15 102/13/13
f 101/129/112 103/128/110 102/13/13 100/11/11
f 99/130/114 101/129/112 100/11/11 98/9/9
f 97/131/116 99/130/114 98/9/9 96/7/7
f 95/132/118 97/131/116 96/7/7 94/6/6
f 92/125/105 95/132/118 94/6/6 93/3/3
f 90/30/28 87/123/101 86/31/29 91/21/21
f 87/123/101 14/36/100 13/35/103 88/124/102
f 55/104/120 80/98/96 45/119/96 46/133/120
f 121/120/97 26/117/93 110/99/94 51/108/121
f 111/92/70 121/120/97 51/108/121 85/93/71
f 118/88/66 117/103/79 55/104/80 54/89/67
f 115/96/74 114/115/90 82/113/91 81/97/75
f 54/89/99 55/104/120 46/133/120 47/122/99
f 158/54/42 147/33/31 14/36/31 24/29/42
f 135/134/122 133/135/123 160/136/92 164/137/96
f 142/138/124 140/139/125 169/140/99 165/141/95
f 137/142/126 135/134/122 164/137/96 170/143/120
f 127/144/127 126/145/128 162/146/85 163/147/87
f 143/148/129 142/138/124 165/141/95 166/149/78
f 130/150/130 127/144/127 163/147/87 161/151/88
f 133/135/123 132/152/131 159/153/89 160/136/92
f 140/139/125 137/142/126 170/143/120 169/140/99
f 124/154/132 143/148/129 166/149/78 167/155/77
f 126/145/128 145/156/133 168/157/86 162/146/85
f 132/152/131 130/150/130 161/151/88 159/153/89
f 49/158/98 48/159/98 141/160/134 144/161/135
f 39/162/98 49/158/98 144/161/135 123/163/136
f 43/164/98 42/165/98 129/166/137 131/167/138
f 40/168/98 50/169/98 146/170/139 125/171/140
f 50/169/98 39/162/98 123/163/136 146/170/139
f 41/172/98 40/168/98 125/171/140 128/173/141
f 46/174/98 45/175/98 136/176/142 138/177/143
f 48/159/98 47/178/98 139/179/144 141/160/134
f 45/175/98 44/180/98 134/181/145 136/176/142
f 47/178/98 46/174/98 138/177/143 139/179/144
f 44/180/98 43/164/98 131/167/138 134/181/145
f 42/165/98 41/172/98 128/173/141 129/166/137
f 132/182/131 133/183/123 134/184/145 131/185/138
f 130/186/130 132/182/131 131/185/138 129/187/137
f 126/188/128 127/189/127 128/190/141 125/191/140
f 133/183/123 135/192/122 136/193/142 134/184/145
f 142/194/124 143/195/129 144/196/135 141/197/134
f 124/198/132 145/199/133 146/200/139 123/201/136
f 140/202/125 142/194/124 141/197/134 139/203/144
f 127/189/127 130/186/130 129/187/137 128/190/141
f 145/199/133 126/188/128 125/191/140 146/200/139
f 135/192/122 137/204/126 138/205/143 136/193/142
f 137/204/126 140/202/125 139/203/144 138/205/143
f 143/195/129 124/198/132 123/201/136 144/196/135
f 145/156/133 124/154/132 167/155/77 168/157/86
f 12/206/36 1/207/37 147/33/37 158/54/36
f 11/208/35 12/206/36 158/54/36 157/53/35
f 10/209/34 11/208/35 157/53/35 156/51/34
f 9/210/33 10/209/34 156/51/34 155/49/33
f 8/211/32 9/210/33 155/49/33 154/47/32
f 7/212/31 8/211/32 154/47/32 153/45/31
f 6/213/42 7/212/31 153/45/31 152/43/42
f 5/214/41 6/213/42 152/43/42 151/41/41
f 4/215/40 5/214/41 151/41/41 150/39/40
f 3/216/39 4/215/40 150/39/40 149/37/39
f 2/217/38 3/216/39 149/37/39 148/34/38
f 1/207/37 2/217/38 148/34/38 147/33/37
f 122/218/146 160/219/146 159/220/146
f 122/221/146 159/220/146 161/222/146
f 122/221/146 163/223/146 162/224/146
f 122/225/146 164/226/146 160/219/146
f 122/227/146 166/228/146 165/229/146
f 122/225/146 168/230/146 167/231/146
f 122/232/146 165/229/146 169/233/146
f 122/234/146 161/222/146 163/223/146
f 122/218/146 162/224/146 168/230/146
f 122/235/146 170/236/146 164/226/146
f 122/227/146 169/233/146 170/236/146
f 122/235/146 167/231/146 166/228/146
