# Blender v3.4.1 OBJ File: 'Tiny_Treats_Pleasant_Picnic_ASSETS_EXPORT.blend'
# www.blender.org
mtllib wine_bottle_cork.mtl
o wine_bottle_cork
v -0.000000 0.825500 -0.000000
v 0.029723 0.903500 -0.071758
v 0.071757 0.903500 -0.029723
v 0.071757 0.903500 0.029723
v 0.029723 0.903500 0.071757
v -0.029723 0.903500 0.071757
v -0.071757 0.903500 0.029723
v -0.071757 0.903500 -0.029723
v -0.029723 0.903500 -0.071758
v 0.000000 0.942500 -0.000000
v 0.030094 0.935410 -0.072653
v 0.072653 0.935410 -0.030094
v 0.072653 0.935410 0.030093
v 0.030094 0.935410 0.072652
v -0.030094 0.935410 0.072652
v -0.072653 0.935410 0.030093
v -0.072653 0.935410 -0.030094
v -0.030094 0.935410 -0.072653
v 0.021058 0.835250 -0.050840
v 0.050840 0.835250 -0.021059
v 0.050840 0.835250 0.021058
v 0.021058 0.835250 0.050839
v -0.021058 0.835250 0.050839
v -0.050840 0.835250 0.021058
v -0.050840 0.835250 -0.021059
v -0.021058 0.835250 -0.050840
v 0.019825 0.952250 -0.047861
v 0.047861 0.952250 -0.019825
v 0.047861 0.952250 0.019824
v 0.019825 0.952250 0.047861
v -0.019825 0.952250 0.047861
v -0.047861 0.952250 0.019824
v -0.047861 0.952250 -0.019825
v -0.019825 0.952250 -0.047861
vt 0.917827 0.884675
vt 0.917580 0.905797
vt 0.957420 0.905797
vt 0.957172 0.884675
vt 0.984997 0.884675
vt 0.985590 0.905797
vt 0.957420 0.905797
vt 0.957172 0.884675
vt 0.917580 0.905797
vt 0.917827 0.884675
vt 0.889410 0.905797
vt 0.890003 0.884675
vt 0.889410 0.905797
vt 0.890003 0.884675
vt 0.985590 0.905797
vt 0.984997 0.884675
vt 0.923561 0.839499
vt 0.951439 0.839499
vt 0.903849 0.839499
vt 0.903849 0.839499
vt 0.923561 0.839499
vt 0.951439 0.839499
vt 0.971151 0.839499
vt 0.971151 0.839499
vt 0.985590 0.937047
vt 0.957420 0.937047
vt 0.950623 0.948193
vt 0.969179 0.948193
vt 0.985590 0.937047
vt 0.969179 0.948193
vt 0.957420 0.937047
vt 0.950623 0.948193
vt 0.917580 0.937047
vt 0.924377 0.948193
vt 0.889410 0.937047
vt 0.905821 0.948193
vt 0.889410 0.937047
vt 0.905821 0.948193
vt 0.917580 0.937047
vt 0.924377 0.948193
vt 0.937500 0.801795
vt 0.951439 0.808249
vt 0.971151 0.808249
vt 0.971151 0.808249
vt 0.951439 0.808249
vt 0.923561 0.808249
vt 0.903849 0.808249
vt 0.903849 0.808249
vt 0.923561 0.808249
vt 0.937500 0.863615
vn -0.3772 -0.1687 -0.9106
vn -0.3461 0.4265 -0.8357
vn 0.3461 0.4265 -0.8357
vn 0.3772 -0.1687 -0.9106
vn 0.9106 -0.1687 0.3772
vn 0.8357 0.4265 0.3461
vn 0.3461 0.4265 0.8357
vn 0.3772 -0.1687 0.9106
vn -0.3461 0.4265 0.8357
vn -0.3772 -0.1687 0.9106
vn -0.8357 0.4265 0.3461
vn -0.9106 -0.1687 0.3772
vn -0.8357 0.4265 -0.3461
vn -0.9106 -0.1687 -0.3772
vn 0.8357 0.4265 -0.3461
vn 0.9106 -0.1687 -0.3772
vn -0.3632 -0.3149 -0.8769
vn 0.3632 -0.3149 -0.8769
vn -0.8769 -0.3149 -0.3632
vn -0.8769 -0.3149 0.3632
vn -0.3632 -0.3149 0.8769
vn 0.3632 -0.3149 0.8769
vn 0.8769 -0.3149 0.3632
vn 0.8769 -0.3149 -0.3632
vn 0.1035 0.9627 -0.2499
vn 0.2499 0.9627 -0.1035
vn 0.2499 0.9627 0.1035
vn 0.1035 0.9627 0.2499
vn -0.1035 0.9627 0.2499
vn -0.2499 0.9627 0.1035
vn -0.2499 0.9627 -0.1035
vn -0.1035 0.9627 -0.2499
vn 0.0000 -1.0000 0.0000
vn 0.0668 -0.9847 -0.1612
vn 0.1612 -0.9847 -0.0668
vn 0.1612 -0.9847 0.0668
vn 0.0668 -0.9847 0.1612
vn -0.0668 -0.9847 0.1612
vn -0.1612 -0.9847 0.0668
vn -0.1612 -0.9847 -0.0668
vn -0.0668 -0.9847 -0.1612
vn 0.0000 1.0000 -0.0000
usemtl tiny_treats_1
s 1
f 9/1/1 18/2/2 11/3/3 2/4/4
f 4/5/5 13/6/6 14/7/7 5/8/8
f 5/8/8 14/7/7 15/9/9 6/10/10
f 6/10/10 15/9/9 16/11/11 7/12/12
f 7/12/12 16/11/11 17/13/13 8/14/14
f 8/14/14 17/13/13 18/2/2 9/1/1
f 2/4/4 11/3/3 12/15/15 3/16/16
f 3/16/16 12/15/15 13/6/6 4/5/5
f 26/17/17 9/1/1 2/4/4 19/18/18
f 25/19/19 8/14/14 9/1/1 26/17/17
f 24/20/20 7/12/12 8/14/14 25/19/19
f 23/21/21 6/10/10 7/12/12 24/20/20
f 22/22/22 5/8/8 6/10/10 23/21/21
f 21/23/23 4/5/5 5/8/8 22/22/22
f 20/24/24 3/16/16 4/5/5 21/23/23
f 19/18/18 2/4/4 3/16/16 20/24/24
f 12/25/15 11/26/3 27/27/25 28/28/26
f 13/29/6 12/25/15 28/28/26 29/30/27
f 14/31/7 13/29/6 29/30/27 30/32/28
f 15/33/9 14/31/7 30/32/28 31/34/29
f 16/35/11 15/33/9 31/34/29 32/36/30
f 17/37/13 16/35/11 32/36/30 33/38/31
f 18/39/2 17/37/13 33/38/31 34/40/32
f 11/26/3 18/39/2 34/40/32 27/27/25
f 1/41/33 19/42/34 20/43/35
f 1/41/33 20/43/35 21/44/36
f 1/41/33 21/44/36 22/45/37
f 1/41/33 22/45/37 23/46/38
f 1/41/33 23/46/38 24/47/39
f 1/41/33 24/47/39 25/48/40
f 1/41/33 25/48/40 26/49/41
f 1/41/33 26/49/41 19/42/34
f 10/50/42 28/28/26 27/27/25
f 10/50/42 29/30/27 28/28/26
f 10/50/42 30/32/28 29/30/27
f 10/50/42 31/34/29 30/32/28
f 10/50/42 32/36/30 31/34/29
f 10/50/42 33/38/31 32/36/30
f 10/50/42 34/40/32 33/38/31
f 10/50/42 27/27/25 34/40/32
