# Blender v3.4.1 OBJ File: 'Tiny_Treats_Bakery_Interior_1.1_ASSETS_EXPORT.blend'
# www.blender.org
mtllib bread.mtl
o bread
v -0.078159 0.019322 0.161418
v -0.093634 0.158154 0.178246
v -0.078198 0.018926 -0.161431
v -0.093699 0.157879 -0.178254
v 0.077699 0.019322 0.161399
v 0.093153 0.158151 0.178241
v 0.077659 0.018927 -0.161411
v 0.092978 0.157890 -0.178295
v -0.115793 0.079069 0.207221
v -0.115799 0.079012 -0.207221
v 0.115346 0.079014 -0.207214
v 0.115352 0.079070 0.207214
v -0.000206 0.081954 -0.264614
v -0.000206 0.081954 0.264616
v -0.000213 0.173304 0.219327
v -0.000185 0.019474 0.187539
v -0.119456 0.176333 0.000000
v -0.114677 0.172305 0.109314
v 0.133770 0.032487 -0.107572
v 0.139257 0.033457 -0.053974
v 0.139505 0.033733 0.000000
v -0.000217 0.173270 -0.219326
v -0.000196 0.019368 -0.187541
v 0.139311 0.033917 0.053961
v 0.133873 0.033456 0.107540
v -0.066383 0.080944 -0.253900
v -0.044491 0.018766 -0.178438
v 0.054463 0.168849 -0.203216
v 0.044083 0.018943 0.178428
v -0.054914 0.168925 0.203218
v -0.083275 0.013433 0.141663
v 0.082821 0.012763 -0.141685
v 0.065971 0.080944 0.253902
v 0.054496 0.168931 0.203232
v -0.044473 0.018945 0.178434
v -0.066383 0.080944 0.253902
v 0.140131 0.077340 0.165086
v 0.065971 0.080944 -0.253900
v -0.140607 0.076727 -0.165106
v -0.109513 0.124287 0.198118
v -0.109523 0.124187 -0.198119
v 0.109043 0.124185 -0.198111
v 0.109053 0.124284 0.198110
v -0.000206 0.043663 -0.241846
v -0.000206 0.043663 0.241848
v 0.060704 0.198380 -0.119074
v 0.063204 0.201662 -0.059849
v -0.101368 0.040168 -0.186072
v 0.100861 0.040174 -0.186064
v 0.100876 0.040324 0.186060
v -0.101352 0.040319 0.186069
v 0.044064 0.018765 -0.178433
v -0.054949 0.168859 -0.203238
v 0.067748 0.204642 0.000343
v 0.063912 0.199424 0.057531
v 0.063851 0.199343 0.119251
v 0.048123 0.000784 -0.101351
v 0.048227 0.000441 -0.050867
v 0.049677 0.001176 -0.000019
v -0.000206 0.127894 0.256370
v -0.000196 0.005452 0.147244
v -0.000316 0.201189 0.173518
v -0.000206 0.127893 -0.256368
v -0.101662 0.168604 0.153584
v 0.082888 0.013433 0.141662
v -0.140546 0.077341 0.165085
v -0.000260 0.004807 -0.147265
v -0.000373 0.200641 -0.173536
v -0.083342 0.012762 -0.141685
v 0.099690 0.167976 -0.153607
v 0.140069 0.076727 -0.165106
v 0.062496 0.127413 -0.242947
v -0.062908 0.127414 0.242949
v 0.057181 0.042240 -0.227980
v -0.121372 0.035203 -0.151666
v 0.062500 0.127413 0.242949
v -0.057593 0.042239 0.227982
v 0.120926 0.035837 0.151645
v 0.057181 0.042239 0.227982
v -0.057593 0.042239 -0.227980
v -0.062912 0.127414 -0.242947
v 0.055871 0.194373 0.162476
v -0.121309 0.035837 0.151645
v 0.043285 0.006335 0.144107
v -0.043674 0.006335 0.144107
v -0.131757 0.125990 0.159976
v -0.056298 0.194005 0.164354
v 0.131353 0.125991 0.159977
v 0.131292 0.125369 -0.159997
v -0.056612 0.193740 -0.162502
v -0.043739 0.005681 -0.144129
v 0.043220 0.005681 -0.144129
v 0.120862 0.035202 -0.151666
v 0.054713 0.193397 -0.164376
v -0.131819 0.125369 -0.159997
v 0.048283 0.000968 0.050852
v 0.044951 0.001753 0.101318
v -0.145039 0.126854 -0.115192
v -0.150659 0.127898 -0.057693
v -0.152080 0.130688 0.000000
v -0.150621 0.128301 0.057681
v -0.144935 0.127823 0.115159
v -0.000375 0.206532 0.059836
v -0.000433 0.205830 -0.059862
v -0.000180 0.000623 0.103850
v -0.000110 0.000104 0.052091
v -0.000001 -0.000000 -0.000000
v -0.000162 -0.000401 -0.052103
v -0.000262 -0.000346 -0.103883
v 0.153982 0.076795 0.119843
v 0.159587 0.077606 0.059932
v 0.162775 0.078222 0.000000
v 0.159547 0.077240 -0.059943
v 0.153879 0.075826 -0.119875
v 0.114323 0.172305 0.109314
v 0.119353 0.176333 0.000000
v 0.110241 0.171336 -0.109346
v -0.087945 0.010016 0.100187
v -0.095379 0.009350 0.050393
v -0.096976 0.009699 -0.000035
v -0.095433 0.008814 -0.050411
v -0.094351 0.009047 -0.100219
v -0.114817 0.171336 -0.109346
v 0.087612 0.010016 0.100187
v 0.095143 0.009347 0.050394
v 0.096996 0.009699 -0.000035
v 0.095089 0.008810 -0.050412
v 0.093857 0.009047 -0.100219
v -0.154139 0.076795 0.119843
v -0.159904 0.077607 0.059931
v -0.162634 0.078222 0.000000
v -0.159936 0.077243 -0.059941
v -0.154242 0.075826 -0.119875
v -0.048639 0.000784 -0.101351
v -0.048554 0.000447 -0.050863
v -0.049674 0.001174 0.000019
v -0.048508 0.000964 0.050854
v -0.045306 0.001753 0.101318
v -0.064545 0.198958 -0.057508
v -0.067991 0.204302 0.000067
v -0.064147 0.199096 0.061233
v -0.064578 0.199350 0.119042
v 0.144676 0.126854 -0.115192
v 0.150261 0.127909 -0.057695
v 0.152220 0.130688 0.000000
v 0.150302 0.128312 0.057682
v 0.144780 0.127823 0.115159
v -0.134131 0.032487 -0.107573
v -0.139664 0.033470 -0.053971
v -0.139363 0.033733 0.000000
v -0.139628 0.033929 0.053960
v -0.134028 0.033456 0.107540
v -0.109414 0.174987 0.058311
v -0.094421 0.168434 -0.154543
v 0.093866 0.169038 0.154521
v -0.000355 0.204507 0.156792
v -0.000417 0.208570 0.097896
v -0.000409 0.185120 0.127895
v -0.000293 0.204352 0.026111
v -0.000322 0.204120 -0.026118
v -0.000255 0.181309 -0.000039
v -0.000468 0.207601 -0.097929
v -0.000412 0.203776 -0.156817
v -0.000464 0.184151 -0.127928
v 0.109661 0.175159 0.053612
v 0.105717 0.174426 -0.058311
v -0.110219 0.174709 -0.053632
v -0.064675 0.198373 -0.119352
v -0.057274 0.173101 -0.148165
v 0.058697 0.176175 -0.088670
v -0.065606 0.178113 -0.029169
v 0.065118 0.178180 0.029182
v -0.060951 0.175109 0.089119
v 0.056537 0.173819 0.148139
vt 0.687473 0.885552
vt 0.687473 0.818327
vt 0.702366 0.818213
vt 0.703190 0.885313
vt 0.687473 0.829032
vt 0.700393 0.827920
vt 0.708885 0.825055
vt 0.713205 0.817388
vt 0.714807 0.884884
vt 0.705250 0.968609
vt 0.704913 0.968860
vt 0.712498 0.963813
vt 0.713730 0.963686
vt 0.716653 0.884610
vt 0.718323 0.884614
vt 0.713730 0.963885
vt 0.712498 0.963909
vt 0.718323 0.884614
vt 0.713730 0.963885
vt 0.699750 0.864351
vt 0.699611 0.864139
vt 0.708899 0.827066
vt 0.708130 0.858769
vt 0.687473 0.885552
vt 0.687473 0.818327
vt 0.672580 0.818214
vt 0.671756 0.885313
vt 0.687473 0.829032
vt 0.674553 0.827920
vt 0.666033 0.825055
vt 0.661741 0.817388
vt 0.660139 0.884884
vt 0.675199 0.864351
vt 0.687477 0.834999
vt 0.687483 0.866126
vt 0.675353 0.864138
vt 0.678180 0.970213
vt 0.669762 0.968609
vt 0.670133 0.968860
vt 0.678568 0.970639
vt 0.696476 0.970760
vt 0.705121 0.968958
vt 0.696473 0.970639
vt 0.696831 0.970213
vt 0.696473 0.970639
vt 0.687520 0.970883
vt 0.687504 0.970426
vt 0.701107 0.962976
vt 0.687473 0.962638
vt 0.711074 0.963245
vt 0.704931 0.967741
vt 0.697752 0.968190
vt 0.687483 0.968193
vt 0.705121 0.968958
vt 0.704913 0.968860
vt 0.712498 0.963813
vt 0.660303 0.817488
vt 0.658417 0.884625
vt 0.656676 0.884614
vt 0.658756 0.817562
vt 0.696476 0.970760
vt 0.696417 0.970795
vt 0.687522 0.971046
vt 0.687519 0.971010
vt 0.675186 0.832525
vt 0.687473 0.834286
vt 0.687473 0.865823
vt 0.675353 0.864140
vt 0.656676 0.884645
vt 0.661279 0.963686
vt 0.662573 0.963813
vt 0.660139 0.884884
vt 0.663874 0.963245
vt 0.670041 0.967741
vt 0.669762 0.968609
vt 0.687473 0.866126
vt 0.687473 0.834999
vt 0.675208 0.864342
vt 0.714807 0.884884
vt 0.713205 0.817388
vt 0.702366 0.818213
vt 0.703190 0.885313
vt 0.708915 0.825055
vt 0.700393 0.827919
vt 0.704886 0.968989
vt 0.678568 0.970639
vt 0.678180 0.970213
vt 0.673838 0.962976
vt 0.687473 0.962638
vt 0.663874 0.963245
vt 0.670041 0.967741
vt 0.677216 0.968190
vt 0.687483 0.968193
vt 0.658756 0.817356
vt 0.718323 0.884645
vt 0.711074 0.963245
vt 0.704931 0.967741
vt 0.716247 0.817356
vt 0.716653 0.884625
vt 0.714768 0.817488
vt 0.701107 0.962976
vt 0.697752 0.968190
vt 0.678562 0.970760
vt 0.705250 0.968609
vt 0.673838 0.962976
vt 0.677216 0.968190
vt 0.671756 0.885313
vt 0.687477 0.865822
vt 0.687473 0.834286
vt 0.675190 0.863793
vt 0.687519 0.971010
vt 0.678562 0.970760
vt 0.678630 0.970795
vt 0.687473 0.866316
vt 0.661741 0.817388
vt 0.672580 0.818214
vt 0.666033 0.825055
vt 0.674553 0.827919
vt 0.669914 0.968958
vt 0.670133 0.968860
vt 0.687520 0.970883
vt 0.699757 0.863793
vt 0.707981 0.858219
vt 0.716653 0.884625
vt 0.658417 0.884610
vt 0.660303 0.817587
vt 0.656676 0.884645
vt 0.661279 0.963686
vt 0.718323 0.884645
vt 0.713731 0.963686
vt 0.656676 0.884614
vt 0.658756 0.817562
vt 0.696831 0.970213
vt 0.687504 0.970426
vt 0.658417 0.884625
vt 0.660303 0.817488
vt 0.666854 0.858794
vt 0.666128 0.827066
vt 0.670163 0.968989
vt 0.669914 0.968958
vt 0.716247 0.817562
vt 0.665477 0.826831
vt 0.658756 0.817356
vt 0.675354 0.864413
vt 0.666851 0.858769
vt 0.666137 0.827245
vt 0.714768 0.817587
vt 0.716247 0.817562
vt 0.714768 0.817488
vt 0.662573 0.963813
vt 0.709200 0.826831
vt 0.716247 0.817356
vt 0.699571 0.832525
vt 0.699036 0.864140
vt 0.666128 0.827066
vt 0.667003 0.858219
vt 0.699353 0.864342
vt 0.699610 0.864413
vt 0.708163 0.827066
vt 0.707548 0.858794
vt 0.708890 0.827245
vt 0.661279 0.963885
vt 0.662573 0.963909
vt 0.661279 0.963885
vt 0.687473 0.866316
vt 0.687477 0.912697
vt 0.675190 0.910668
vt 0.675291 0.859076
vt 0.687482 0.861076
vt 0.675353 0.911013
vt 0.687483 0.913001
vt 0.699353 0.911217
vt 0.699082 0.859338
vt 0.699036 0.911015
vt 0.675199 0.911226
vt 0.675303 0.859482
vt 0.675354 0.911288
vt 0.687473 0.913191
vt 0.687473 0.861415
vt 0.687473 0.913191
vt 0.699750 0.911226
vt 0.699656 0.859482
vt 0.699610 0.911288
vt 0.687473 0.913001
vt 0.675208 0.911217
vt 0.675314 0.859338
vt 0.687473 0.861076
vt 0.675353 0.911015
vt 0.687473 0.912698
vt 0.699757 0.910668
vt 0.699666 0.859076
vt 0.699611 0.911014
vn 0.0000 -0.1726 -0.9850
vn 0.0001 0.4445 -0.8958
vn 0.4247 0.4389 -0.7918
vn 0.4388 -0.1679 -0.8828
vn -0.0004 0.7613 -0.6483
vn 0.3693 0.7281 -0.5775
vn 0.5948 0.6480 -0.4758
vn 0.7179 0.4099 -0.5626
vn 0.7613 -0.1609 -0.6282
vn 0.3130 -0.9223 0.2265
vn 0.3214 -0.9430 0.0866
vn 0.7045 -0.6952 0.1426
vn 0.6425 -0.6979 0.3164
vn 0.9915 -0.1300 0.0001
vn 0.9890 -0.1319 0.0669
vn 0.7255 -0.6867 0.0455
vn 0.7254 -0.6883 0.0027
vn 0.9891 -0.1311 -0.0666
vn 0.7321 -0.6804 -0.0332
vn 0.3202 0.9128 -0.2535
vn 0.2002 0.9230 0.3286
vn 0.6550 0.7416 0.1447
vn 0.5876 0.8082 0.0382
vn -0.0000 -0.1726 0.9850
vn -0.0000 0.4443 0.8959
vn -0.4241 0.4383 0.7925
vn -0.4386 -0.1681 0.8828
vn 0.0011 0.7584 0.6518
vn -0.3671 0.7229 0.5853
vn -0.5919 0.6391 0.4912
vn -0.7160 0.4060 0.5679
vn -0.7615 -0.1622 0.6276
vn -0.3204 0.9146 0.2468
vn -0.0340 0.9991 0.0234
vn 0.1455 0.9310 -0.3348
vn -0.2004 0.9225 -0.3298
vn -0.1112 -0.9689 0.2210
vn -0.3134 -0.9224 0.2257
vn -0.3218 -0.9429 0.0861
vn -0.1049 -0.9924 0.0651
vn 0.1019 -0.9947 0.0120
vn 0.3366 -0.9413 0.0257
vn 0.1048 -0.9923 0.0652
vn 0.1077 -0.9660 -0.2352
vn 0.1046 -0.9923 -0.0657
vn -0.0000 -0.9980 -0.0626
vn -0.0000 -0.9711 -0.2387
vn 0.2956 -0.7347 -0.6106
vn 0.0000 -0.7378 -0.6751
vn 0.5249 -0.7033 -0.4794
vn 0.2872 -0.8857 -0.3647
vn 0.1457 -0.9148 -0.3768
vn 0.0000 -0.9239 -0.3827
vn 0.3380 -0.9411 -0.0059
vn 0.3439 -0.9348 -0.0886
vn 0.7134 -0.6857 -0.1443
vn -0.8932 0.4105 -0.1837
vn -0.9695 -0.1413 -0.2002
vn -0.9894 -0.1309 -0.0626
vn -0.9097 0.4098 -0.0680
vn 0.0982 -0.9952 0.0022
vn 0.1003 -0.9949 0.0051
vn 0.0000 -1.0000 0.0050
vn -0.0000 -1.0000 0.0033
vn -0.3394 0.8756 0.3437
vn -0.0001 0.9279 0.3728
vn 0.1095 0.9763 -0.1864
vn -0.1243 0.9735 -0.1918
vn -0.8986 -0.1529 -0.4113
vn -0.6438 -0.6905 -0.3297
vn -0.7137 -0.6856 -0.1435
vn -0.7607 -0.1609 -0.6288
vn -0.5247 -0.7032 -0.4798
vn -0.2871 -0.8857 -0.3648
vn -0.3092 -0.9178 -0.2490
vn -0.1545 0.9334 0.3238
vn 0.0144 0.9996 -0.0251
vn -0.3396 0.8918 0.2989
vn 0.7613 -0.1623 0.6277
vn 0.7192 0.4163 0.5563
vn 0.4243 0.4383 0.7924
vn 0.4388 -0.1681 0.8827
vn 0.6061 0.6549 0.4515
vn 0.3727 0.7282 0.5751
vn 0.3415 -0.9399 0.0045
vn -0.1048 -0.9923 -0.0655
vn -0.1077 -0.9660 -0.2352
vn -0.2957 -0.7357 0.6093
vn -0.0000 -0.7384 0.6743
vn -0.5270 -0.7050 0.4746
vn -0.2888 -0.8889 0.3557
vn -0.1455 -0.9177 0.3698
vn 0.0000 -0.9264 0.3765
vn -0.8329 0.4103 -0.3714
vn 0.8985 -0.1524 0.4117
vn 0.5267 -0.7051 0.4748
vn 0.2887 -0.8887 0.3561
vn 0.8304 0.4110 0.3762
vn 0.9695 -0.1396 0.2016
vn 0.8922 0.4125 0.1840
vn 0.2959 -0.7357 0.6092
vn 0.1457 -0.9176 0.3698
vn -0.0983 -0.9952 0.0027
vn 0.3089 -0.9179 -0.2492
vn -0.2952 -0.7346 -0.6108
vn -0.1453 -0.9148 -0.3769
vn -0.4385 -0.1679 -0.8829
vn -0.1087 0.9761 0.1883
vn 0.0010 0.9318 -0.3630
vn -0.3842 0.9179 0.0998
vn 0.0000 -1.0000 0.0065
vn -0.1020 -0.9947 0.0117
vn -0.1001 -0.9950 0.0051
vn -0.1698 0.9263 0.3364
vn -0.7203 0.4171 -0.5542
vn -0.4243 0.4386 -0.7922
vn -0.6080 0.6562 -0.4469
vn -0.3726 0.7307 -0.5721
vn -0.3384 -0.9410 -0.0042
vn -0.3444 -0.9347 -0.0881
vn 0.0000 -0.9980 0.0630
vn 0.3846 0.9182 -0.0949
vn 0.5596 0.7621 0.3257
vn 0.9692 -0.1413 -0.2017
vn -0.9915 -0.1301 0.0008
vn -0.9063 0.4226 -0.0007
vn -0.8997 -0.1523 0.4091
vn -0.6437 -0.6977 0.3144
vn 0.8981 -0.1530 -0.4124
vn 0.6431 -0.6908 -0.3306
vn -0.9892 -0.1318 0.0646
vn -0.9092 0.4111 0.0657
vn 0.1112 -0.9689 0.2211
vn -0.0000 -0.9735 0.2286
vn -0.9697 -0.1397 0.2003
vn -0.8994 0.4028 0.1701
vn -0.5928 0.8010 0.0837
vn -0.6644 0.7385 0.1149
vn -0.3412 -0.9400 0.0048
vn -0.3370 -0.9412 0.0246
vn 0.9091 0.4110 0.0679
vn -0.6282 0.7020 0.3354
vn -0.8392 0.3922 0.3767
vn -0.1077 0.9550 -0.2763
vn -0.5897 0.8066 -0.0418
vn -0.6531 0.7573 -0.0018
vn 0.9037 0.4281 -0.0077
vn 0.9005 0.4275 -0.0794
vn 0.8913 0.4215 -0.1671
vn -0.7045 -0.6953 0.1420
vn 0.6249 0.7166 -0.3097
vn 0.8379 0.4048 -0.3662
vn 0.3425 0.8816 -0.3249
vn 0.1215 0.9731 0.1958
vn -0.6571 0.7395 -0.1458
vn -0.5617 0.7633 -0.3193
vn 0.3397 0.8927 -0.2962
vn 0.1108 0.9537 0.2795
vn 0.6466 0.7551 -0.1079
vn 0.5930 0.7980 -0.1075
vn 0.6571 0.7538 -0.0091
vn -0.7330 -0.6796 -0.0297
vn -0.7249 -0.6889 0.0032
vn -0.7262 -0.6861 0.0434
vn 0.1591 0.9288 -0.3348
vn -0.2458 0.6370 0.7306
vn -0.2713 0.7591 0.5917
vn 0.2285 0.7461 -0.6254
vn 0.0502 0.7632 -0.6443
vn 0.4433 0.6599 -0.6066
vn -0.3020 0.7811 0.5465
vn -0.3365 0.7486 0.5713
vn 0.2714 0.7270 -0.6308
vn -0.2811 0.7328 0.6197
vn 0.2778 0.7337 -0.6201
vn 0.3355 0.7454 -0.5760
vn -0.2793 0.7208 0.6344
vn -0.4367 0.6747 0.5951
vn -0.2334 0.7476 0.6218
vn 0.2646 0.7548 -0.6002
vn 0.3174 0.7620 -0.5645
vn 0.2469 0.6387 -0.7287
vn -0.0488 0.7612 0.6467
usemtl tiny_treats_1
s 1
f 13/1/1 63/2/2 72/3/3 38/4/4
f 63/2/2 22/5/5 28/6/6 72/3/3
f 72/3/3 28/6/6 8/7/7 42/8/8
f 38/4/4 72/3/3 42/8/8 11/9/9
f 65/10/10 124/11/11 25/12/12 78/13/13
f 112/14/14 111/15/15 24/16/16 21/17/17
f 113/18/18 112/14/14 21/17/17 20/19/19
f 55/20/20 56/21/21 115/22/22 165/23/23
f 14/24/24 60/25/25 73/26/26 36/27/27
f 60/25/25 15/28/28 30/29/29 73/26/26
f 73/26/26 30/29/29 2/30/30 40/31/31
f 36/27/27 73/26/26 40/31/31 9/32/32
f 139/33/33 104/34/34 162/35/35 168/36/36
f 85/37/37 31/38/38 118/39/39 138/40/40
f 96/41/41 125/42/42 124/11/11 97/43/43
f 92/44/44 57/45/45 109/46/46 67/47/47
f 13/1/1 38/4/4 74/48/48 44/49/49
f 38/4/4 11/9/9 49/50/50 74/48/48
f 74/48/48 49/50/50 7/51/51 52/52/52
f 44/49/49 74/48/48 52/52/52 23/53/53
f 127/54/54 128/55/55 19/56/56 20/19/19
f 98/57/57 133/58/58 132/59/59 99/60/60
f 58/61/61 59/62/62 107/63/63 108/64/64
f 87/65/65 62/66/66 156/67/67 142/68/68
f 133/58/58 39/69/69 75/70/70 148/71/71
f 39/69/69 10/72/72 48/73/73 75/70/70
f 75/70/70 48/73/73 3/74/74 69/75/75
f 157/76/76 103/77/77 141/78/78
f 12/79/79 43/80/80 76/81/81 33/82/82
f 43/80/80 6/83/83 34/84/84 76/81/81
f 76/81/81 34/84/84 15/28/28 60/25/25
f 33/82/82 76/81/81 60/25/25 14/24/24
f 125/42/42 126/85/85 21/17/17 24/16/16
f 124/11/11 125/42/42 24/16/16 25/12/12
f 57/45/45 58/61/61 108/64/64 109/46/46
f 67/47/47 109/46/46 134/86/86 91/87/87
f 14/24/24 36/27/27 77/88/88 45/89/89
f 36/27/27 9/32/32 51/90/90 77/88/88
f 77/88/88 51/90/90 1/91/91 35/92/92
f 45/89/89 77/88/88 35/92/92 16/93/93
f 95/94/94 39/69/69 133/58/58 98/57/57
f 37/95/95 12/79/79 50/96/96 78/13/13
f 78/13/13 50/96/96 5/97/97 65/10/10
f 88/98/98 37/95/95 110/99/99 147/100/100
f 5/97/97 50/96/96 79/101/101 29/102/102
f 50/96/96 12/79/79 33/82/82 79/101/101
f 79/101/101 33/82/82 14/24/24 45/89/89
f 29/102/102 79/101/101 45/89/89 16/93/93
f 57/45/45 128/55/55 127/54/54 58/61/61
f 109/46/46 108/64/64 135/103/103 134/86/86
f 126/85/85 127/54/54 20/19/19 21/17/17
f 92/44/44 32/104/104 128/55/55 57/45/45
f 3/74/74 48/73/73 80/105/105 27/106/106
f 48/73/73 10/72/72 26/107/107 80/105/105
f 80/105/105 26/107/107 13/1/1 44/49/49
f 27/106/106 80/105/105 44/49/49 23/53/53
f 163/108/108 68/109/109 90/110/110
f 107/63/63 106/111/111 137/112/112 136/113/113
f 59/62/62 126/85/85 125/42/42 96/41/41
f 108/64/64 107/63/63 136/113/113 135/103/103
f 160/114/114 104/34/34 139/33/33
f 59/62/62 96/41/41 106/111/111 107/63/63
f 10/72/72 41/115/115 81/116/116 26/107/107
f 41/115/115 4/117/117 53/118/118 81/116/116
f 81/116/116 53/118/118 22/5/5 63/2/2
f 26/107/107 81/116/116 63/2/2 13/1/1
f 135/103/103 121/119/119 122/120/120 134/86/86
f 96/41/41 97/43/43 105/121/121 106/111/111
f 15/28/28 34/84/84 82/122/122 62/66/66
f 115/22/22 155/123/123 88/98/98 147/100/100
f 114/124/124 113/18/18 20/19/19 19/56/56
f 99/60/60 132/59/59 131/125/125 100/126/126
f 9/32/32 66/127/127 83/128/128 51/90/90
f 71/129/129 114/124/124 19/56/56 93/130/130
f 100/126/126 131/125/125 130/131/131 101/132/132
f 51/90/90 83/128/128 31/38/38 1/91/91
f 5/97/97 29/102/102 84/133/133 65/10/10
f 29/102/102 16/93/93 61/134/134 84/133/133
f 101/132/132 130/131/131 129/135/135 102/136/136
f 142/68/68 153/137/137 18/138/138
f 136/113/113 120/139/139 121/119/119 135/103/103
f 137/112/112 119/140/140 120/139/139 136/113/113
f 16/93/93 35/92/92 85/37/37 61/134/134
f 35/92/92 1/91/91 31/38/38 85/37/37
f 147/100/100 110/99/99 111/15/15 146/141/141
f 2/30/30 64/142/142 86/143/143 40/31/31
f 140/144/144 167/145/145 17/146/146
f 146/141/141 111/15/15 112/14/14 145/147/147
f 40/31/31 86/143/143 66/127/127 9/32/32
f 2/30/30 30/29/29 87/65/65 64/142/142
f 30/29/29 15/28/28 62/66/66 87/65/65
f 144/148/148 113/18/18 114/124/124 143/149/149
f 145/147/147 112/14/14 113/18/18 144/148/148
f 34/84/84 6/83/83 155/123/123 82/122/122
f 43/80/80 12/79/79 37/95/95 88/98/98
f 118/39/39 31/38/38 83/128/128 152/150/150
f 6/83/83 43/80/80 88/98/98 155/123/123
f 8/7/7 70/151/151 89/152/152 42/8/8
f 56/21/21 155/123/123 115/22/22
f 94/153/153 68/109/109 163/108/108 46/154/154
f 42/8/8 89/152/152 71/129/129 11/9/9
f 22/5/5 53/118/118 90/110/110 68/109/109
f 95/94/94 98/57/57 123/155/155 154/156/156
f 105/121/121 61/134/134 85/37/37 138/40/40
f 134/86/86 122/120/120 69/75/75 91/87/87
f 3/74/74 27/106/106 91/87/87 69/75/75
f 27/106/106 23/53/53 67/47/47 91/87/87
f 97/43/43 124/11/11 65/10/10 84/133/133
f 97/43/43 84/133/133 61/134/134 105/121/121
f 23/53/53 52/52/52 92/44/44 67/47/47
f 52/52/52 7/51/51 32/104/104 92/44/44
f 128/55/55 32/104/104 93/130/130 19/56/56
f 55/20/20 103/77/77 157/76/76 56/21/21
f 11/9/9 71/129/129 93/130/130 49/50/50
f 110/99/99 37/95/95 78/13/13 25/12/12
f 143/149/149 114/124/124 71/129/129 89/152/152
f 49/50/50 93/130/130 32/104/104 7/51/51
f 138/40/40 118/39/39 119/140/140 137/112/112
f 8/7/7 28/6/6 94/153/153 70/151/151
f 28/6/6 22/5/5 68/109/109 94/153/153
f 102/136/136 129/135/135 66/127/127 86/143/143
f 102/136/136 86/143/143 64/142/142 18/138/138
f 53/118/118 4/117/117 154/156/156 90/110/110
f 41/115/115 10/72/72 39/69/69 95/94/94
f 168/36/36 154/156/156 123/155/155
f 58/61/61 127/54/54 126/85/85 59/62/62
f 4/117/117 41/115/115 95/94/94 154/156/156
f 111/15/15 110/99/99 25/12/12 24/16/16
f 106/111/111 105/121/121 138/40/40 137/112/112
f 156/67/67 62/66/66 82/122/122
f 47/157/157 104/34/34 160/114/114 54/158/158
f 70/151/151 117/159/159 143/149/149 89/152/152
f 98/57/57 99/60/60 167/145/145 123/155/155
f 46/154/154 166/160/160 117/159/159
f 47/157/157 54/158/158 116/161/161 166/160/160
f 54/158/158 165/23/23 116/161/161
f 87/65/65 142/68/68 18/138/138 64/142/142
f 100/126/126 101/132/132 153/137/137 17/146/146
f 99/60/60 100/126/126 17/146/146 167/145/145
f 69/75/75 122/120/120 148/71/71 75/70/70
f 122/120/120 121/119/119 149/162/162 148/71/71
f 121/119/119 120/139/139 150/163/163 149/162/162
f 120/139/139 119/140/140 151/164/164 150/163/163
f 119/140/140 118/39/39 152/150/150 151/164/164
f 94/153/153 46/154/154 117/159/159 70/151/151
f 166/160/160 116/161/161 145/147/147 144/148/148
f 165/23/23 115/22/22 147/100/100 146/141/141
f 66/127/127 129/135/135 152/150/150 83/128/128
f 129/135/135 130/131/131 151/164/164 152/150/150
f 130/131/131 131/125/125 150/163/163 151/164/164
f 131/125/125 132/59/59 149/162/162 150/163/163
f 132/59/59 133/58/58 148/71/71 149/162/162
f 117/159/159 166/160/160 144/148/148 143/149/149
f 162/35/35 104/34/34 47/157/157
f 139/33/33 168/36/36 123/155/155 167/145/145
f 116/161/161 165/23/23 146/141/141 145/147/147
f 159/165/165 103/77/77 55/20/20
f 101/132/132 102/136/136 18/138/138 153/137/137
f 141/78/78 103/77/77 159/165/165 140/144/144
f 163/166/108 90/167/110 169/168/166 164/169/167
f 164/169/168 169/168/169 168/170/36 162/171/35
f 90/167/110 154/156/156 169/168/166
f 169/168/169 154/156/156 168/170/36
f 47/172/157 166/160/160 170/173/170
f 170/173/171 166/160/160 46/174/154
f 162/171/35 47/172/157 170/173/170 164/169/168
f 164/169/167 170/173/171 46/174/154 163/166/108
f 139/175/33 167/145/145 171/176/172
f 171/176/173 167/145/145 140/177/144
f 160/178/114 139/175/33 171/176/172 161/179/174
f 161/179/175 171/176/173 140/177/144 159/180/165
f 55/181/20 165/23/23 172/182/176
f 172/182/177 165/23/23 54/183/158
f 159/180/165 55/181/20 172/182/176 161/179/175
f 161/179/174 172/182/177 54/183/158 160/178/114
f 157/184/76 141/185/78 173/186/178 158/187/179
f 158/187/180 173/186/181 142/188/68 156/189/67
f 141/185/78 153/137/137 173/186/178
f 173/186/181 153/137/137 142/188/68
f 156/189/67 82/190/122 174/191/182 158/187/180
f 158/187/179 174/191/183 56/192/21 157/184/76
f 82/190/122 155/123/123 174/191/182
f 174/191/183 155/123/123 56/192/21
f 141/78/78 140/144/144 17/146/146 153/137/137
