# Blender v3.4.1 OBJ File: 'Tiny_Treats_Bakery_Interior_1.1_ASSETS_EXPORT.blend'
# www.blender.org
mtllib cash_register_handle_001.mtl
o cash_register_handle.001
v 0.457698 0.709582 0.116169
v 0.505460 0.729172 0.065411
v 0.505460 0.689993 0.065411
v 0.409935 0.729172 0.065411
v 0.437918 0.756866 0.065418
v 0.477478 0.756866 0.065418
v 0.409935 0.689993 0.065411
v 0.437918 0.662300 0.065417
v 0.477478 0.662300 0.065418
v 0.484394 0.698648 0.112310
v 0.503130 0.690969 0.091460
v 0.503130 0.728196 0.091460
v 0.484394 0.720517 0.112310
v 0.412265 0.728196 0.091460
v 0.431001 0.720517 0.112310
v 0.446640 0.735981 0.112310
v 0.438880 0.754516 0.091462
v 0.476515 0.754516 0.091462
v 0.468756 0.735981 0.112310
v 0.438880 0.664649 0.091462
v 0.446640 0.683184 0.112310
v 0.476515 0.664649 0.091462
v 0.468756 0.683184 0.112310
v 0.431001 0.698648 0.112310
v 0.412265 0.690969 0.091460
v 0.476313 0.717210 0.029979
v 0.476313 0.701961 0.029979
v 0.439083 0.717210 0.029979
v 0.449988 0.727992 0.029979
v 0.465408 0.727992 0.029979
v 0.439083 0.701961 0.029979
v 0.449988 0.691179 0.029979
v 0.465408 0.691179 0.029979
v 0.465408 0.691179 -0.135418
v 0.449988 0.691179 -0.135418
v 0.439083 0.701961 -0.135418
v 0.465408 0.727992 -0.135418
v 0.449988 0.727992 -0.135418
v 0.439083 0.717210 -0.135418
v 0.476313 0.701961 -0.135418
v 0.476313 0.717210 -0.135418
v 0.441936 0.671915 0.044554
v 0.419638 0.693978 0.044550
v 0.495758 0.725189 0.044550
v 0.495758 0.693978 0.044550
v 0.473460 0.747252 0.044554
v 0.419638 0.725189 0.044550
v 0.473460 0.671915 0.044554
v 0.441936 0.747252 0.044554
vt 0.812499 0.527138
vt 0.815041 0.521068
vt 0.818636 0.524624
vt 0.806362 0.524624
vt 0.809957 0.521068
vt 0.809957 0.533206
vt 0.806362 0.529651
vt 0.818636 0.529651
vt 0.815041 0.533206
vt 0.801898 0.531480
vt 0.802940 0.531053
vt 0.802940 0.523222
vt 0.801898 0.522796
vt 0.816890 0.516655
vt 0.816459 0.517686
vt 0.822059 0.523222
vt 0.823101 0.522796
vt 0.808108 0.537621
vt 0.808539 0.536591
vt 0.822059 0.531053
vt 0.823101 0.531480
vt 0.816459 0.536591
vt 0.816890 0.537621
vt 0.808539 0.517686
vt 0.808108 0.516655
vt 0.808895 0.518535
vt 0.803799 0.523575
vt 0.804659 0.523927
vt 0.809251 0.519384
vt 0.821199 0.530701
vt 0.821199 0.523575
vt 0.820340 0.523927
vt 0.820340 0.530350
vt 0.816103 0.535741
vt 0.815747 0.534891
vt 0.803799 0.530701
vt 0.804659 0.530350
vt 0.816103 0.518535
vt 0.815747 0.519384
vt 0.808895 0.535741
vt 0.809251 0.534891
vt 0.303578 0.858998
vt 0.290172 0.858998
vt 0.290172 0.858998
vt 0.303578 0.858998
vt 0.313058 0.868376
vt 0.313058 0.868376
vt 0.280692 0.868376
vt 0.280692 0.881631
vt 0.280692 0.881631
vt 0.280692 0.868376
vt 0.303578 0.891006
vt 0.313058 0.881631
vt 0.313058 0.881631
vt 0.303578 0.891006
vt 0.290172 0.891006
vt 0.290172 0.891006
vn 0.0000 -0.0000 1.0000
vn 0.1940 -0.4736 0.8591
vn 0.4708 -0.1972 0.8599
vn -0.4708 -0.1972 0.8599
vn -0.1940 -0.4736 0.8591
vn -0.1940 0.4736 0.8591
vn -0.4708 0.1972 0.8599
vn 0.4708 0.1972 0.8599
vn 0.1940 0.4736 0.8591
vn -0.8491 0.3540 0.3921
vn -0.9091 0.3792 -0.1723
vn -0.9091 -0.3792 -0.1723
vn -0.8491 -0.3540 0.3921
vn 0.3502 -0.8511 0.3911
vn 0.3748 -0.9112 -0.1711
vn 0.9091 -0.3792 -0.1723
vn 0.8491 -0.3540 0.3921
vn -0.3502 0.8511 0.3911
vn -0.3748 0.9112 -0.1711
vn 0.9091 0.3792 -0.1723
vn 0.8491 0.3540 0.3921
vn 0.3748 0.9112 -0.1711
vn 0.3502 0.8511 0.3911
vn -0.3748 -0.9112 -0.1711
vn -0.3502 -0.8511 0.3911
vn -0.2966 -0.7219 -0.6252
vn -0.7188 -0.3002 -0.6271
vn -0.5253 -0.2204 -0.8219
vn -0.2167 -0.5298 -0.8200
vn 0.7188 0.3002 -0.6270
vn 0.7188 -0.3002 -0.6271
vn 0.5254 -0.2204 -0.8219
vn 0.5254 0.2204 -0.8218
vn 0.2966 0.7220 -0.6251
vn 0.2167 0.5299 -0.8199
vn -0.7188 0.3002 -0.6271
vn -0.5254 0.2204 -0.8218
vn 0.2966 -0.7219 -0.6252
vn 0.2167 -0.5298 -0.8200
vn -0.2966 0.7220 -0.6251
vn -0.2167 0.5299 -0.8199
vn 0.3801 -0.9250 0.0000
vn -0.3801 -0.9250 0.0000
vn 0.7031 -0.7111 0.0000
vn -1.0000 0.0000 0.0000
vn 0.3801 0.9250 0.0000
vn 0.7031 0.7111 0.0000
vn 1.0000 0.0000 0.0000
vn -0.7031 -0.7111 0.0000
vn -0.3801 0.9250 0.0000
vn -0.7031 0.7111 0.0000
usemtl tiny_treats_1
s 1
f 1/1/1 23/2/2 10/3/3
f 1/1/1 24/4/4 21/5/5
f 1/1/1 16/6/6 15/7/7
f 1/1/1 10/3/3 13/8/8
f 1/1/1 15/7/7 24/4/4
f 1/1/1 13/8/8 19/9/9
f 1/1/1 19/9/9 16/6/6
f 1/1/1 21/5/5 23/2/2
f 14/10/10 4/11/11 7/12/12 25/13/13
f 22/14/14 9/15/15 3/16/16 11/17/17
f 17/18/18 5/19/19 4/11/11 14/10/10
f 2/20/20 12/21/21 11/17/17 3/16/16
f 2/20/20 6/22/22 18/23/23 12/21/21
f 6/22/22 5/19/19 17/18/18 18/23/23
f 7/12/12 8/24/24 20/25/25 25/13/13
f 8/24/24 9/15/15 22/14/14 20/25/25
f 25/13/13 20/25/25 21/5/5 24/4/4
f 20/25/25 22/14/14 23/2/2 21/5/5
f 11/17/17 12/21/21 13/8/8 10/3/3
f 12/21/21 18/23/23 19/9/9 13/8/8
f 17/18/18 14/10/10 15/7/7 16/6/6
f 18/23/23 17/18/18 16/6/6 19/9/9
f 14/10/10 25/13/13 24/4/4 15/7/7
f 22/14/14 11/17/17 10/3/3 23/2/2
f 42/26/26 43/27/27 31/28/28 32/29/29
f 44/30/30 45/31/31 27/32/32 26/33/33
f 46/34/34 44/30/30 26/33/33 30/35/35
f 43/27/27 47/36/36 28/37/37 31/28/28
f 45/31/31 48/38/38 33/39/39 27/32/32
f 48/38/38 42/26/26 32/29/29 33/39/39
f 47/36/36 49/40/40 29/41/41 28/37/37
f 49/40/40 46/34/34 30/35/35 29/41/41
f 33/42/42 32/43/43 35/44/43 34/45/42
f 27/46/44 33/42/42 34/45/42 40/47/44
f 31/48/45 28/49/45 39/50/45 36/51/45
f 30/52/46 26/53/47 41/54/47 37/55/46
f 26/53/48 27/46/48 40/47/48 41/54/48
f 32/43/43 31/48/49 36/51/49 35/44/43
f 29/56/50 30/52/46 37/55/46 38/57/50
f 28/49/51 29/56/50 38/57/50 39/50/51
f 5/19/19 6/22/22 46/34/34 49/40/40
f 4/11/11 5/19/19 49/40/40 47/36/36
f 9/15/15 8/24/24 42/26/26 48/38/38
f 3/16/16 9/15/15 48/38/38 45/31/31
f 7/12/12 4/11/11 47/36/36 43/27/27
f 6/22/22 2/20/20 44/30/30 46/34/34
f 2/20/20 3/16/16 45/31/31 44/30/30
f 8/24/24 7/12/12 43/27/27 42/26/26
