# Blender v3.4.1 OBJ File: 'Tiny_Treats_Bakery_Interior_1.1_ASSETS_EXPORT.blend'
# www.blender.org
mtllib coffee_machine_handle.mtl
o coffee_machine_handle
v -0.000001 0.720000 0.436189
v 0.042779 0.737554 0.233750
v 0.042779 0.702447 0.233750
v -0.042781 0.737554 0.233750
v -0.017713 0.762358 0.233759
v 0.017711 0.762358 0.233759
v -0.042781 0.702447 0.233750
v -0.017713 0.677643 0.233759
v 0.017711 0.677643 0.233759
v -0.018785 0.675159 0.266657
v -0.020489 0.671092 0.374737
v -0.020694 0.670600 0.321798
v 0.045347 0.701426 0.266657
v 0.049460 0.699742 0.374737
v 0.049957 0.699538 0.321798
v -0.045349 0.701426 0.266657
v -0.049462 0.699742 0.374737
v -0.049959 0.699538 0.321798
v -0.049462 0.740259 0.374737
v -0.045349 0.738574 0.266657
v -0.049959 0.740462 0.321798
v 0.045347 0.738574 0.266657
v 0.049460 0.740259 0.374737
v 0.049957 0.740462 0.321798
v -0.020489 0.768909 0.374737
v -0.018785 0.764841 0.266657
v -0.020694 0.769400 0.321798
v 0.018783 0.764841 0.266657
v 0.020486 0.768909 0.374737
v 0.020692 0.769400 0.321798
v 0.020486 0.671092 0.374737
v 0.018783 0.675159 0.266657
v 0.020692 0.670600 0.321798
v 0.024015 0.710164 0.434024
v 0.041612 0.702956 0.415702
v 0.041612 0.737045 0.415702
v 0.024015 0.729837 0.434024
v -0.041615 0.737045 0.415702
v -0.024017 0.729837 0.434024
v -0.009949 0.743748 0.434024
v -0.017238 0.761149 0.415702
v 0.017236 0.761149 0.415702
v 0.009947 0.743748 0.434024
v -0.017238 0.678852 0.415702
v -0.009949 0.696253 0.434024
v 0.017236 0.678852 0.415702
v 0.009947 0.696253 0.434024
v -0.024017 0.710164 0.434024
v -0.041615 0.702956 0.415702
v 0.032794 0.733433 0.218845
v 0.032794 0.706568 0.218845
v -0.032796 0.733433 0.218845
v -0.013585 0.752429 0.218845
v 0.013583 0.752429 0.218845
v -0.032796 0.706568 0.218845
v -0.013585 0.687572 0.218845
v 0.013583 0.687572 0.218845
v 0.031013 0.732703 0.149262
v 0.031013 0.707298 0.149262
v -0.031015 0.732703 0.149262
v -0.012847 0.750668 0.149262
v 0.012846 0.750668 0.149262
v -0.031015 0.707298 0.149262
v -0.012847 0.689333 0.149262
v 0.012846 0.689333 0.149262
vt 0.187499 0.902138
vt 0.190041 0.896068
vt 0.193636 0.899624
vt 0.183539 0.892686
vt 0.182853 0.891046
vt 0.176283 0.897544
vt 0.177940 0.898222
vt 0.183539 0.911591
vt 0.182853 0.913228
vt 0.192145 0.913228
vt 0.191459 0.911591
vt 0.176283 0.906732
vt 0.177940 0.906053
vt 0.198715 0.906732
vt 0.197059 0.906053
vt 0.198715 0.897544
vt 0.197059 0.898222
vt 0.182359 0.889866
vt 0.183108 0.891655
vt 0.176898 0.897796
vt 0.175089 0.897055
vt 0.176898 0.906480
vt 0.175089 0.907221
vt 0.183108 0.912621
vt 0.182359 0.914409
vt 0.199909 0.897055
vt 0.198101 0.897796
vt 0.191890 0.891655
vt 0.192640 0.889866
vt 0.181362 0.899624
vt 0.184957 0.896068
vt 0.184957 0.908206
vt 0.181362 0.904651
vt 0.192640 0.914409
vt 0.191890 0.912621
vt 0.198101 0.906480
vt 0.199909 0.907221
vt 0.193636 0.904651
vt 0.192145 0.891046
vt 0.191459 0.892686
vt 0.190041 0.908206
vt 0.175023 0.907248
vt 0.175023 0.897028
vt 0.192667 0.889801
vt 0.199976 0.897028
vt 0.182331 0.914475
vt 0.199976 0.907248
vt 0.192667 0.914475
vt 0.182331 0.889801
vt 0.179659 0.898927
vt 0.184252 0.894384
vt 0.195340 0.898927
vt 0.195340 0.905350
vt 0.190747 0.909891
vt 0.179659 0.905350
vt 0.190747 0.894384
vt 0.184252 0.909891
vt 0.315747 0.894266
vt 0.320340 0.889725
vt 0.320340 0.889725
vt 0.315747 0.894266
vt 0.304659 0.883302
vt 0.304659 0.889725
vt 0.304659 0.889725
vt 0.304659 0.883302
vt 0.320340 0.883302
vt 0.315747 0.878759
vt 0.315747 0.878759
vt 0.320340 0.883302
vt 0.309251 0.878759
vt 0.309251 0.878759
vt 0.309251 0.894266
vt 0.309251 0.894266
vn 0.0000 0.0000 1.0000
vn 0.1813 -0.4429 0.8780
vn 0.4401 -0.1845 0.8788
vn -0.3593 -0.8742 -0.3266
vn -0.3788 -0.9215 -0.0857
vn -0.7009 -0.7088 -0.0798
vn -0.8717 -0.3639 -0.3282
vn -0.3593 0.8742 -0.3266
vn -0.3788 0.9215 -0.0857
vn 0.3788 0.9215 -0.0857
vn 0.3593 0.8742 -0.3266
vn -0.9967 -0.0000 -0.0806
vn -0.8717 0.3639 -0.3282
vn 0.7009 0.7088 -0.0798
vn 0.8717 0.3639 -0.3282
vn 0.9967 0.0000 -0.0806
vn 0.8717 -0.3639 -0.3282
vn -0.7009 0.7088 -0.0798
vn -0.3782 -0.9199 0.1037
vn -0.3390 -0.8247 0.4527
vn -0.8220 -0.3431 0.4546
vn -0.9178 -0.3830 0.1045
vn -0.8220 0.3431 0.4546
vn -0.9178 0.3830 0.1045
vn -0.3390 0.8247 0.4527
vn -0.3782 0.9199 0.1037
vn 0.9178 -0.3830 0.1045
vn 0.8220 -0.3431 0.4546
vn 0.3390 -0.8247 0.4527
vn 0.3782 -0.9199 0.1037
vn -0.4401 -0.1845 0.8788
vn -0.1813 -0.4429 0.8780
vn -0.1813 0.4429 0.8780
vn -0.4401 0.1845 0.8788
vn 0.3782 0.9199 0.1037
vn 0.3390 0.8247 0.4527
vn 0.8220 0.3431 0.4546
vn 0.9178 0.3830 0.1045
vn 0.4401 0.1845 0.8788
vn 0.7009 -0.7088 -0.0798
vn 0.3788 -0.9215 -0.0857
vn 0.3593 -0.8742 -0.3266
vn 0.1813 0.4429 0.8780
vn -0.9993 -0.0000 -0.0366
vn 0.3799 -0.9242 -0.0392
vn 0.7027 -0.7106 -0.0363
vn -0.3799 0.9242 -0.0392
vn -0.7027 0.7106 -0.0363
vn 0.9993 0.0000 -0.0366
vn 0.7027 0.7106 -0.0363
vn 0.3799 0.9242 -0.0392
vn -0.7027 -0.7106 -0.0363
vn -0.3799 -0.9242 -0.0392
vn -0.8657 -0.3617 -0.3461
vn -0.3566 -0.8685 -0.3442
vn 0.8657 -0.3617 -0.3461
vn 0.8657 0.3617 -0.3461
vn 0.3566 0.8685 -0.3442
vn -0.8657 0.3617 -0.3461
vn 0.3566 -0.8685 -0.3442
vn -0.3566 0.8685 -0.3442
vn 0.7029 0.7108 -0.0254
vn 0.3799 0.9246 -0.0274
vn -0.9997 -0.0000 -0.0256
vn 0.3799 -0.9246 -0.0274
vn 0.7029 -0.7108 -0.0254
vn -0.3799 -0.9246 -0.0274
vn -0.3799 0.9246 -0.0274
vn -0.7029 0.7108 -0.0254
vn -0.7029 -0.7108 -0.0254
vn 0.9997 0.0000 -0.0256
usemtl tiny_treats_1
s 1
f 1/1/1 47/2/2 34/3/3
f 8/4/4 10/5/5 16/6/6 7/7/7
f 5/8/8 26/9/9 28/10/10 6/11/11
f 7/7/7 16/6/12 20/12/12 4/13/13
f 6/11/11 28/10/10 22/14/14 2/15/15
f 2/15/15 22/14/16 13/16/16 3/17/17
f 4/13/13 20/12/18 26/9/9 5/8/8
f 11/18/19 44/19/20 49/20/21 17/21/22
f 17/21/22 49/20/21 38/22/23 19/23/24
f 19/23/24 38/22/23 41/24/25 25/25/26
f 14/26/27 35/27/28 46/28/29 31/29/30
f 1/1/1 48/30/31 45/31/32
f 31/29/30 46/28/29 44/19/20 11/18/19
f 1/1/1 40/32/33 39/33/34
f 29/34/35 42/35/36 36/36/37 23/37/38
f 25/25/26 41/24/25 42/35/36 29/34/35
f 1/1/1 34/3/3 37/38/39
f 1/1/1 39/33/34 48/30/31
f 3/17/17 13/16/40 32/39/41 9/40/42
f 1/1/1 37/38/39 43/41/43
f 1/1/1 43/41/43 40/32/33
f 1/1/1 45/31/32 47/2/2
f 17/21/22 19/23/24 21/42/44 18/43/44
f 18/43/44 21/42/44 20/12/12 16/6/12
f 14/26/27 31/29/30 33/44/45 15/45/46
f 15/45/46 33/44/45 32/39/41 13/16/40
f 19/23/24 25/25/26 27/46/47 21/42/48
f 21/42/48 27/46/47 26/9/9 20/12/18
f 23/37/38 14/26/27 15/45/49 24/47/49
f 24/47/49 15/45/49 13/16/16 22/14/16
f 29/34/35 23/37/38 24/47/50 30/48/51
f 30/48/51 24/47/50 22/14/14 28/10/10
f 25/25/26 29/34/35 30/48/51 27/46/47
f 27/46/47 30/48/51 28/10/10 26/9/9
f 11/18/19 17/21/22 18/43/52 12/49/53
f 12/49/53 18/43/52 16/6/6 10/5/5
f 31/29/30 11/18/19 12/49/53 33/44/45
f 33/44/45 12/49/53 10/5/5 32/39/41
f 9/40/42 32/39/41 10/5/5 8/4/4
f 49/20/21 44/19/20 45/31/32 48/30/31
f 44/19/20 46/28/29 47/2/2 45/31/32
f 35/27/28 36/36/37 37/38/39 34/3/3
f 36/36/37 42/35/36 43/41/43 37/38/39
f 41/24/25 38/22/23 39/33/34 40/32/33
f 42/35/36 41/24/25 40/32/33 43/41/43
f 38/22/23 49/20/21 48/30/31 39/33/34
f 46/28/29 35/27/28 34/3/3 47/2/2
f 23/37/38 36/36/37 35/27/28 14/26/27
f 8/4/4 7/7/7 55/50/54 56/51/55
f 2/15/15 3/17/17 51/52/56 50/53/57
f 6/11/11 2/15/15 50/53/57 54/54/58
f 7/7/7 4/13/13 52/55/59 55/50/54
f 3/17/17 9/40/42 57/56/60 51/52/56
f 9/40/42 8/4/4 56/51/55 57/56/60
f 4/13/13 5/8/8 53/57/61 52/55/59
f 5/8/8 6/11/11 54/54/58 53/57/61
f 54/58/58 50/59/57 58/60/62 62/61/63
f 55/62/54 52/63/59 60/64/64 63/65/64
f 51/66/56 57/67/60 65/68/65 59/69/66
f 57/67/60 56/70/55 64/71/67 65/68/65
f 52/63/59 53/72/61 61/73/68 60/64/69
f 53/72/61 54/58/58 62/61/63 61/73/68
f 56/70/55 55/62/54 63/65/70 64/71/67
f 50/59/57 51/66/56 59/69/71 58/60/71
