# Blender v3.4.1 OBJ File: 'Tiny_Treats_Bakery_Interior_1.1_ASSETS_EXPORT.blend'
# www.blender.org
mtllib coffee_cup_takeaway.mtl
o coffee_cup_takeaway
v 0.090665 0.400000 -0.090665
v 0.123851 0.400000 -0.033186
v 0.123851 0.400000 0.033186
v 0.090665 0.400000 0.090665
v 0.033186 0.400000 0.123851
v -0.033186 0.400000 0.123851
v -0.090665 0.400000 0.090665
v -0.123851 0.400000 0.033186
v -0.123851 0.400000 -0.033186
v -0.090665 0.400000 -0.090665
v -0.033186 0.400000 -0.123851
v 0.033186 0.400000 -0.123851
v 0.099159 0.050000 -0.099159
v 0.135454 0.050000 -0.036295
v 0.135454 0.050000 0.036295
v 0.099159 0.050000 0.099159
v 0.036295 0.050000 0.135454
v -0.036295 0.050000 0.135454
v -0.099159 0.050000 0.099159
v -0.135454 0.050000 0.036295
v -0.135454 0.050000 -0.036295
v -0.099159 0.050000 -0.099159
v -0.036295 0.050000 -0.135454
v 0.036295 0.050000 -0.135454
v -0.000000 0.000000 -0.000000
v 0.098397 0.014993 -0.098397
v 0.134412 0.014993 -0.036016
v 0.134412 0.014993 0.036016
v 0.098397 0.014993 0.098397
v 0.036016 0.014993 0.134412
v -0.036016 0.014993 0.134412
v -0.098397 0.014993 0.098397
v -0.134412 0.014993 0.036016
v -0.134412 0.014993 -0.036016
v -0.098397 0.014993 -0.098397
v -0.036016 0.014993 -0.134412
v 0.036016 0.014993 -0.134412
v 0.119081 0.000000 -0.031908
v 0.087173 0.000000 -0.087173
v 0.119081 -0.000000 0.031908
v 0.087173 -0.000000 0.087173
v 0.031908 -0.000000 0.119081
v -0.031908 -0.000000 0.119081
v -0.087173 -0.000000 0.087173
v -0.119081 -0.000000 0.031908
v -0.119081 0.000000 -0.031908
v -0.087173 0.000000 -0.087173
v -0.031908 0.000000 -0.119081
v 0.031908 0.000000 -0.119081
v -0.000000 0.040000 0.000000
v -0.039526 0.340000 -0.147511
v -0.107986 0.340000 -0.107986
v -0.147511 0.340000 -0.039525
v -0.147511 0.340000 0.039526
v -0.107986 0.340000 0.107986
v -0.039526 0.340000 0.147511
v 0.039526 0.340000 0.147511
v 0.107986 0.340000 0.107986
v 0.147511 0.340000 0.039526
v 0.147511 0.340000 -0.039525
v 0.107986 0.340000 -0.107986
v 0.105112 0.040000 -0.028165
v 0.076948 0.040000 -0.076948
v 0.105112 0.040000 0.028165
v 0.076948 0.040000 0.076948
v 0.028165 0.040000 0.105112
v -0.028165 0.040000 0.105112
v -0.076948 0.040000 0.076948
v -0.105112 0.040000 0.028165
v -0.105112 0.040000 -0.028165
v -0.076948 0.040000 -0.076948
v -0.028165 0.040000 -0.105112
v 0.028165 0.040000 -0.105112
v 0.039526 0.340000 -0.147511
v 0.165718 0.400000 -0.044404
v 0.121314 0.400000 -0.121314
v 0.120222 0.350000 -0.120222
v 0.165718 0.400000 0.044404
v 0.121314 0.400000 0.121314
v 0.044404 0.400000 0.165718
v -0.044404 0.400000 0.165718
v -0.121314 0.400000 0.121314
v -0.165718 0.400000 0.044404
v -0.165718 0.400000 -0.044404
v -0.121314 0.400000 -0.121314
v -0.044404 0.400000 -0.165718
v 0.044404 0.400000 -0.165718
v 0.164227 0.350000 -0.044004
v 0.164227 0.350000 0.044004
v 0.120222 0.350000 0.120222
v 0.044004 0.350000 0.164227
v -0.044004 0.350000 0.164227
v -0.120222 0.350000 0.120222
v -0.164227 0.350000 0.044004
v -0.164227 0.350000 -0.044004
v -0.120222 0.350000 -0.120222
v -0.044004 0.350000 -0.164227
v 0.044004 0.350000 -0.164227
v 0.125136 0.374809 -0.125136
v 0.045803 0.374809 -0.170938
v -0.045803 0.374809 -0.170938
v -0.125136 0.374809 -0.125136
v -0.170938 0.374809 -0.045803
v -0.170938 0.374809 0.045803
v -0.125136 0.374809 0.125136
v -0.045803 0.374809 0.170938
v 0.045803 0.374809 0.170938
v 0.125136 0.374809 0.125136
v 0.170938 0.374809 0.045803
v 0.170938 0.374809 -0.045803
v 0.105990 0.410000 0.105990
v -0.038795 0.410000 -0.144785
v 0.144785 0.410000 -0.038795
v 0.144785 0.410000 0.038795
v -0.105990 0.410000 -0.105990
v -0.144785 0.410000 0.038795
v -0.144785 0.410000 -0.038795
v 0.038795 0.410000 -0.144785
v 0.038795 0.410000 0.144785
v 0.105990 0.410000 -0.105990
v -0.038795 0.410000 0.144785
v -0.105990 0.410000 0.105990
vt 0.458332 0.875956
vt 0.452748 0.875956
vt 0.452748 0.875956
vt 0.458332 0.875956
vt 0.416660 0.875956
vt 0.422244 0.875956
vt 0.422244 0.875956
vt 0.416660 0.875956
vt 0.431914 0.875956
vt 0.431914 0.875956
vt 0.443078 0.875956
vt 0.443078 0.875956
vt 0.443078 0.875956
vt 0.443078 0.875956
vt 0.442584 0.871965
vt 0.442619 0.783122
vt 0.451503 0.783122
vt 0.451393 0.871965
vt 0.456479 0.871965
vt 0.456631 0.783122
vt 0.456631 0.783122
vt 0.456479 0.871965
vt 0.432408 0.871965
vt 0.432373 0.783122
vt 0.423599 0.871965
vt 0.423490 0.783122
vt 0.418514 0.871965
vt 0.418361 0.783122
vt 0.418514 0.871965
vt 0.418361 0.783122
vt 0.423599 0.871965
vt 0.423490 0.783122
vt 0.432408 0.871965
vt 0.432373 0.783122
vt 0.442584 0.871965
vt 0.442619 0.783122
vt 0.451393 0.871965
vt 0.451503 0.783122
vt 0.451393 0.840715
vt 0.456479 0.840715
vt 0.454316 0.807363
vt 0.449811 0.807363
vt 0.456479 0.840715
vt 0.454316 0.807363
vt 0.451393 0.840715
vt 0.449811 0.807363
vt 0.442584 0.840715
vt 0.442003 0.807363
vt 0.432408 0.840715
vt 0.432989 0.807363
vt 0.423599 0.840715
vt 0.425181 0.807363
vt 0.418514 0.840715
vt 0.420676 0.807363
vt 0.418514 0.840715
vt 0.420676 0.807363
vt 0.423599 0.840715
vt 0.425181 0.807363
vt 0.432408 0.840715
vt 0.432989 0.807363
vt 0.442584 0.840715
vt 0.442003 0.807363
vt 0.454990 0.886271
vt 0.454990 0.886271
vt 0.454990 0.886271
vt 0.454990 0.886271
vt 0.437498 0.807363
vt 0.456755 0.886271
vt 0.458521 0.886271
vt 0.458521 0.886271
vt 0.456755 0.886271
vt 0.451594 0.886271
vt 0.452886 0.886271
vt 0.442656 0.886271
vt 0.443129 0.886271
vt 0.432336 0.886271
vt 0.431863 0.886271
vt 0.423398 0.886271
vt 0.422106 0.886271
vt 0.418237 0.886271
vt 0.416471 0.886271
vt 0.418237 0.886271
vt 0.416471 0.886271
vt 0.423398 0.886271
vt 0.422106 0.886271
vt 0.432336 0.886271
vt 0.431863 0.886271
vt 0.442656 0.886271
vt 0.443129 0.886271
vt 0.451594 0.886271
vt 0.452886 0.886271
vt 0.699905 0.846314
vt 0.701008 0.906514
vt 0.697387 0.906514
vt 0.696579 0.846314
vt 0.424690 0.886271
vt 0.420003 0.886271
vt 0.420003 0.886271
vt 0.424690 0.886271
vt 0.424691 0.886271
vt 0.432809 0.886271
vt 0.432809 0.886271
vt 0.424691 0.886271
vt 0.450302 0.886271
vt 0.450302 0.886271
vt 0.432809 0.886271
vt 0.432809 0.886271
vt 0.420003 0.886271
vt 0.420003 0.886271
vt 0.442183 0.886271
vt 0.442183 0.886271
vt 0.442183 0.886271
vt 0.442183 0.886271
vt 0.450302 0.886271
vt 0.450302 0.886271
vt 0.448973 0.886271
vt 0.445898 0.886271
vt 0.440571 0.886271
vt 0.434421 0.886271
vt 0.429095 0.886271
vt 0.426019 0.886271
vt 0.696579 0.877564
vt 0.697387 0.937764
vt 0.691116 0.875264
vt 0.690818 0.815064
vt 0.690818 0.846314
vt 0.691116 0.906514
vt 0.683876 0.906514
vt 0.684174 0.846314
vt 0.684174 0.877564
vt 0.683876 0.937764
vt 0.677606 0.875264
vt 0.678413 0.815064
vt 0.678413 0.846314
vt 0.677606 0.906514
vt 0.673985 0.906514
vt 0.675088 0.846314
vt 0.675088 0.877564
vt 0.673985 0.937764
vt 0.673985 0.875264
vt 0.675088 0.815064
vt 0.675088 0.846314
vt 0.673985 0.906514
vt 0.677606 0.906514
vt 0.678413 0.846314
vt 0.678413 0.877564
vt 0.677606 0.937764
vt 0.683876 0.875264
vt 0.684174 0.815064
vt 0.684174 0.846314
vt 0.683876 0.906514
vt 0.691116 0.906514
vt 0.690818 0.846314
vt 0.690818 0.877564
vt 0.691116 0.937764
vt 0.697387 0.875264
vt 0.696579 0.815064
vt 0.699905 0.877564
vt 0.701007 0.937764
vt 0.701008 0.875264
vt 0.699905 0.815064
vt 0.696579 0.846314
vt 0.697387 0.906514
vt 0.701007 0.906514
vt 0.699905 0.846314
vt 0.452817 0.881113
vt 0.458426 0.881113
vt 0.458426 0.881113
vt 0.452817 0.881113
vt 0.443103 0.881113
vt 0.431889 0.881113
vt 0.422175 0.881113
vt 0.416566 0.881113
vt 0.416566 0.881113
vt 0.422175 0.881113
vt 0.431889 0.881113
vt 0.443103 0.881113
vt 0.416660 0.875956
vt 0.416660 0.875956
vt 0.458332 0.875956
vt 0.458332 0.875956
vt 0.422244 0.875956
vt 0.422244 0.875956
vt 0.452748 0.875956
vt 0.452748 0.875956
vt 0.431914 0.875956
vt 0.431914 0.875956
vn 0.4833 -0.8658 -0.1295
vn 0.3538 -0.8658 -0.3538
vn -0.4833 -0.8658 0.1295
vn -0.3538 -0.8658 0.3538
vn -0.1295 -0.8658 0.4833
vn 0.1295 -0.8658 -0.4833
vn 0.1295 -0.8658 0.4833
vn 0.2385 -0.3881 -0.8902
vn 0.2586 -0.0369 -0.9653
vn 0.7066 -0.0369 -0.7066
vn 0.6517 -0.3881 -0.6517
vn 0.8902 -0.3881 -0.2385
vn 0.9653 -0.0369 -0.2586
vn 0.9653 -0.0369 0.2586
vn 0.8902 -0.3881 0.2385
vn -0.2385 -0.3881 -0.8902
vn -0.2586 -0.0369 -0.9653
vn -0.6517 -0.3881 -0.6517
vn -0.7066 -0.0369 -0.7066
vn -0.8902 -0.3881 -0.2385
vn -0.9653 -0.0369 -0.2586
vn -0.8902 -0.3881 0.2385
vn -0.9653 -0.0369 0.2586
vn -0.6517 -0.3881 0.6517
vn -0.7066 -0.0369 0.7066
vn -0.2385 -0.3881 0.8902
vn -0.2586 -0.0369 0.9653
vn 0.2385 -0.3881 0.8902
vn 0.2586 -0.0369 0.9653
vn 0.6517 -0.3881 0.6517
vn 0.7066 -0.0369 0.7066
vn 0.4058 -0.9075 -0.1087
vn 0.2971 -0.9075 -0.2971
vn 0.4058 -0.9075 0.1087
vn 0.2971 -0.9075 0.2971
vn 0.1087 -0.9075 0.4058
vn -0.1087 -0.9075 0.4058
vn -0.2971 -0.9075 0.2971
vn -0.4058 -0.9075 0.1087
vn -0.4058 -0.9075 -0.1087
vn -0.2971 -0.9075 -0.2971
vn -0.1087 -0.9075 -0.4058
vn 0.1087 -0.9075 -0.4058
vn -0.9645 0.0538 -0.2584
vn -0.9645 0.0538 0.2584
vn 0.0000 -1.0000 -0.0000
vn 0.0671 0.9976 0.0180
vn 0.7792 0.5910 0.2088
vn 0.7792 0.5910 -0.2088
vn 0.0671 0.9976 -0.0180
vn 0.0492 0.9976 0.0492
vn 0.5704 0.5910 0.5704
vn 0.0180 0.9976 0.0671
vn 0.2088 0.5910 0.7792
vn -0.0180 0.9976 0.0671
vn -0.2088 0.5910 0.7792
vn -0.0492 0.9976 0.0492
vn -0.5704 0.5910 0.5704
vn -0.0671 0.9976 0.0180
vn -0.7792 0.5910 0.2088
vn -0.0671 0.9976 -0.0180
vn -0.7792 0.5910 -0.2088
vn -0.0492 0.9976 -0.0492
vn -0.5704 0.5910 -0.5704
vn -0.0180 0.9976 -0.0671
vn -0.2088 0.5910 -0.7792
vn 0.0180 0.9976 -0.0671
vn 0.2088 0.5910 -0.7792
vn 0.0492 0.9976 -0.0492
vn 0.5704 0.5910 -0.5704
vn 0.9650 -0.0430 0.2586
vn 0.7065 -0.0430 0.7065
vn 0.7061 0.0538 0.7061
vn 0.9645 0.0538 0.2584
vn 0.7061 0.0538 -0.7061
vn 0.2584 0.0538 -0.9645
vn -0.7061 0.0538 -0.7061
vn 0.2584 0.0538 0.9645
vn 0.9645 0.0538 -0.2584
vn -0.2584 0.0538 -0.9645
vn -0.2584 0.0538 0.9645
vn -0.7061 0.0538 0.7061
vn -0.0000 1.0000 0.0000
vn 0.2586 -0.0430 0.9650
vn -0.2586 -0.0430 0.9650
vn -0.7065 -0.0430 0.7065
vn -0.9650 -0.0430 0.2586
vn -0.9650 -0.0430 -0.2586
vn -0.7065 -0.0430 -0.7065
vn -0.2586 -0.0430 -0.9650
vn 0.2586 -0.0430 -0.9650
vn 0.7065 -0.0430 -0.7065
vn 0.9650 -0.0430 -0.2586
vn 0.7068 -0.0297 -0.7068
vn 0.9655 -0.0297 -0.2587
vn 0.9655 -0.0297 0.2587
vn 0.7068 -0.0297 0.7068
vn 0.2587 -0.0297 0.9655
vn -0.2587 -0.0297 0.9655
vn -0.7068 -0.0297 0.7068
vn -0.9655 -0.0297 0.2587
vn -0.9655 -0.0297 -0.2587
vn -0.7068 -0.0297 -0.7068
vn -0.2587 -0.0297 -0.9655
vn 0.2587 -0.0297 -0.9655
vn -0.4833 -0.8658 -0.1295
vn 0.4833 -0.8658 0.1295
vn -0.3538 -0.8658 -0.3538
vn 0.3538 -0.8658 0.3538
vn -0.1295 -0.8658 -0.4833
vn 0.2492 -0.2697 -0.9301
vn 0.6809 -0.2697 -0.6809
vn -0.2492 -0.2697 -0.9301
vn -0.6809 -0.2697 -0.6809
vn -0.9301 -0.2697 -0.2492
vn -0.9301 -0.2697 0.2492
vn -0.6809 -0.2697 0.6809
vn -0.2492 -0.2697 0.9301
vn 0.2492 -0.2697 0.9301
vn 0.6809 -0.2697 0.6809
vn 0.9301 -0.2697 0.2492
vn 0.9301 -0.2697 -0.2492
vn -0.4047 0.9080 0.1084
vn -0.2963 0.9080 0.2963
vn -0.1084 0.9080 0.4047
vn 0.1084 0.9080 0.4047
vn 0.2963 0.9080 0.2963
vn 0.4047 0.9080 0.1084
vn 0.4047 0.9080 -0.1084
vn 0.2963 0.9080 -0.2963
vn 0.1084 0.9080 -0.4047
vn -0.1084 0.9080 -0.4047
vn -0.2963 0.9080 -0.2963
vn -0.4047 0.9080 -0.1084
usemtl tiny_treats_1
s 1
f 60/1/1 61/2/2 77/3/2 88/4/1
f 54/5/3 55/6/4 93/7/4 94/8/3
f 55/6/4 56/9/5 92/10/5 93/7/4
f 61/2/2 74/11/6 98/12/6 77/3/2
f 56/9/5 57/13/7 91/14/7 92/10/5
f 37/15/8 24/16/9 13/17/10 26/18/11
f 27/19/12 14/20/13 15/21/14 28/22/15
f 36/23/16 23/24/17 24/16/9 37/15/8
f 35/25/18 22/26/19 23/24/17 36/23/16
f 34/27/20 21/28/21 22/26/19 35/25/18
f 33/29/22 20/30/23 21/28/21 34/27/20
f 32/31/24 19/32/25 20/30/23 33/29/22
f 31/33/26 18/34/27 19/32/25 32/31/24
f 30/35/28 17/36/29 18/34/27 31/33/26
f 29/37/30 16/38/31 17/36/29 30/35/28
f 28/22/15 15/21/14 16/38/31 29/37/30
f 26/39/11 27/40/12 38/41/32 39/42/33
f 27/40/12 28/43/15 40/44/34 38/41/32
f 28/43/15 29/45/30 41/46/35 40/44/34
f 29/45/30 30/47/28 42/48/36 41/46/35
f 30/47/28 31/49/26 43/50/37 42/48/36
f 31/49/26 32/51/24 44/52/38 43/50/37
f 32/51/24 33/53/22 45/54/39 44/52/38
f 33/53/22 34/55/20 46/56/40 45/54/39
f 34/55/20 35/57/18 47/58/41 46/56/40
f 35/57/18 36/59/16 48/60/42 47/58/41
f 36/59/16 37/61/8 49/62/43 48/60/42
f 37/61/8 26/39/11 39/42/33 49/62/43
f 26/18/11 13/17/10 14/20/13 27/19/12
f 3/63/44 2/64/45 62/65/45 64/66/44
f 25/67/46 39/42/33 38/41/32
f 25/67/46 38/41/32 40/44/34
f 25/67/46 40/44/34 41/46/35
f 25/67/46 41/46/35 42/48/36
f 25/67/46 42/48/36 43/50/37
f 25/67/46 43/50/37 44/52/38
f 25/67/46 44/52/38 45/54/39
f 25/67/46 45/54/39 46/56/40
f 25/67/46 46/56/40 47/58/41
f 25/67/46 47/58/41 48/60/42
f 25/67/46 48/60/42 49/62/43
f 25/67/46 49/62/43 39/42/33
f 114/68/47 78/69/48 75/70/49 113/71/50
f 111/72/51 79/73/52 78/69/48 114/68/47
f 119/74/53 80/75/54 79/73/52 111/72/51
f 121/76/55 81/77/56 80/75/54 119/74/53
f 122/78/57 82/79/58 81/77/56 121/76/55
f 116/80/59 83/81/60 82/79/58 122/78/57
f 117/82/61 84/83/62 83/81/60 116/80/59
f 115/84/63 85/85/64 84/83/62 117/82/61
f 112/86/65 86/87/66 85/85/64 115/84/63
f 118/88/67 87/89/68 86/87/66 112/86/65
f 120/90/69 76/91/70 87/89/68 118/88/67
f 15/92/14 59/93/71 58/94/72 16/95/31
f 10/96/73 9/97/74 70/98/74 71/99/73
f 7/100/75 6/101/76 67/102/76 68/103/75
f 4/104/77 3/63/44 64/66/44 65/105/77
f 11/106/78 10/96/73 71/99/73 72/107/78
f 8/108/79 7/100/75 68/103/75 69/109/79
f 5/110/80 4/104/77 65/105/77 66/111/80
f 12/112/81 11/106/78 72/107/78 73/113/81
f 2/64/45 1/114/82 63/115/82 62/65/45
f 9/97/74 8/108/79 69/109/79 70/98/74
f 6/101/76 5/110/80 66/111/80 67/102/76
f 1/114/82 12/112/81 73/113/81 63/115/82
f 50/116/83 62/65/83 63/115/83
f 50/116/83 64/66/83 62/65/83
f 50/117/83 65/105/83 64/66/83
f 50/118/83 66/111/83 65/105/83
f 50/119/83 67/102/83 66/111/83
f 50/120/83 68/103/83 67/102/83
f 50/121/83 69/109/83 68/103/83
f 50/121/83 70/98/83 69/109/83
f 50/120/83 71/99/83 70/98/83
f 50/119/83 72/107/83 71/99/83
f 50/118/83 73/113/83 72/107/83
f 50/117/83 63/115/83 73/113/83
f 16/122/31 58/123/72 57/124/84 17/125/29
f 17/126/29 57/127/84 56/128/85 18/129/27
f 18/130/27 56/131/85 55/132/86 19/133/25
f 19/134/25 55/135/86 54/136/87 20/137/23
f 20/138/23 54/139/87 53/140/88 21/141/21
f 21/142/21 53/143/88 52/144/89 22/145/19
f 22/146/19 52/147/89 51/148/90 23/149/17
f 23/150/17 51/151/90 74/152/91 24/153/9
f 24/154/9 74/155/91 61/156/92 13/157/10
f 14/158/13 60/159/93 59/160/71 15/161/14
f 13/162/10 61/163/92 60/164/93 14/165/13
f 99/166/94 76/91/70 75/70/49 110/167/95
f 110/167/95 75/70/49 78/69/48 109/168/96
f 109/168/96 78/69/48 79/73/52 108/169/97
f 108/169/97 79/73/52 80/75/54 107/170/98
f 107/170/98 80/75/54 81/77/56 106/171/99
f 106/171/99 81/77/56 82/79/58 105/172/100
f 105/172/100 82/79/58 83/81/60 104/173/101
f 104/173/101 83/81/60 84/83/62 103/174/102
f 103/174/102 84/83/62 85/85/64 102/175/103
f 102/175/103 85/85/64 86/87/66 101/176/104
f 101/176/104 86/87/66 87/89/68 100/177/105
f 100/177/105 87/89/68 76/91/70 99/166/94
f 53/178/106 54/5/3 94/8/3 95/179/106
f 59/180/107 60/1/1 88/4/1 89/181/107
f 52/182/108 53/178/106 95/179/106 96/183/108
f 58/184/109 59/180/107 89/181/107 90/185/109
f 51/186/110 52/182/108 96/183/108 97/187/110
f 57/13/7 58/184/109 90/185/109 91/14/7
f 74/11/6 51/186/110 97/187/110 98/12/6
f 113/71/50 75/70/49 76/91/70 120/90/69
f 98/12/111 100/177/105 99/166/94 77/3/112
f 97/187/113 101/176/104 100/177/105 98/12/111
f 96/183/114 102/175/103 101/176/104 97/187/113
f 95/179/115 103/174/102 102/175/103 96/183/114
f 94/8/116 104/173/101 103/174/102 95/179/115
f 93/7/117 105/172/100 104/173/101 94/8/116
f 92/10/118 106/171/99 105/172/100 93/7/117
f 91/14/119 107/170/98 106/171/99 92/10/118
f 90/185/120 108/169/97 107/170/98 91/14/119
f 89/181/121 109/168/96 108/169/97 90/185/120
f 88/4/122 110/167/95 109/168/96 89/181/121
f 77/3/112 99/166/94 110/167/95 88/4/122
f 2/64/123 113/71/50 120/90/69 1/114/124
f 1/114/124 120/90/69 118/88/67 12/112/125
f 12/112/125 118/88/67 112/86/65 11/106/126
f 11/106/126 112/86/65 115/84/63 10/96/127
f 10/96/127 115/84/63 117/82/61 9/97/128
f 9/97/128 117/82/61 116/80/59 8/108/129
f 8/108/129 116/80/59 122/78/57 7/100/130
f 7/100/130 122/78/57 121/76/55 6/101/131
f 6/101/131 121/76/55 119/74/53 5/110/132
f 5/110/132 119/74/53 111/72/51 4/104/133
f 4/104/133 111/72/51 114/68/47 3/63/134
f 3/63/134 114/68/47 113/71/50 2/64/123
