# Blender v3.4.1 OBJ File: 'Tiny_Treats_Bakery_Interior_1.1_ASSETS_EXPORT.blend'
# www.blender.org
mtllib countertop_straight_A_short.mtl
o countertop_straight_A_short
v -0.450000 -0.000000 0.500000
v -0.330000 0.170000 0.550000
v -0.500000 0.050000 0.500000
v -0.450000 0.750000 0.550000
v -0.500000 0.750000 0.500000
v -0.450000 0.000000 -0.700000
v -0.500000 0.050000 -0.700000
v -0.370000 0.130000 -0.750000
v -0.450000 0.750000 -0.750000
v -0.500000 0.750000 -0.700000
v 0.450000 -0.000000 0.500000
v 0.500000 0.050000 0.500000
v 0.330000 0.170000 0.550000
v 0.450000 0.750000 0.550000
v 0.500000 0.750000 0.500000
v 0.450000 0.000000 -0.700000
v 0.370000 0.130000 -0.750000
v 0.500000 0.050000 -0.700000
v 0.500000 0.750000 -0.700000
v 0.450000 0.750000 -0.750000
v -0.450000 0.050000 0.550000
v 0.450000 0.050000 0.550000
v -0.330000 0.630000 0.550000
v 0.330000 0.630000 0.550000
v -0.280000 0.580000 0.450000
v 0.280000 0.580000 0.450000
v -0.280000 0.220000 0.450000
v 0.280000 0.220000 0.450000
v -0.450000 0.050000 -0.750000
v -0.370000 0.670000 -0.750000
v 0.450000 0.050000 -0.750000
v 0.370000 0.670000 0.250000
v 0.370000 0.670000 -0.750000
v -0.370000 0.670000 0.250000
v -0.370000 0.130000 0.250000
v 0.370000 0.130000 0.250000
v -0.370002 0.450002 0.250000
v 0.369998 0.450002 0.250000
v -0.370002 0.350002 0.250000
v 0.369998 0.350002 0.250000
v 0.369998 0.430002 -0.750000
v 0.369998 0.450002 -0.730000
v -0.370002 0.450002 -0.730000
v -0.370002 0.430002 -0.750000
v -0.370002 0.370002 -0.750000
v -0.370002 0.350002 -0.730000
v 0.369998 0.350002 -0.730000
v 0.369998 0.370002 -0.750000
v -0.500000 0.750000 0.700000
v -0.500000 0.800000 0.750000
v -0.500000 0.950000 0.750000
v -0.500000 1.000000 0.700000
v 0.500000 0.800000 0.750000
v 0.500000 0.750000 0.700000
v 0.500000 1.000000 0.700000
v 0.500000 0.950000 0.750000
v -0.500000 0.750000 -0.750000
v -0.500000 1.000000 -0.750000
v 0.500000 0.750000 -0.750000
v 0.500000 1.000000 -0.750000
vt 0.470936 0.830994
vt 0.470936 0.849390
vt 0.468936 0.847390
vt 0.468936 0.832994
vt 0.477734 0.841820
vt 0.477734 0.869813
vt 0.477734 0.869813
vt 0.477734 0.841820
vt 0.402952 0.866614
vt 0.472535 0.866614
vt 0.472535 0.866614
vt 0.402952 0.866614
vt 0.399754 0.808571
vt 0.399754 0.810570
vt 0.397754 0.810570
vt 0.399754 0.808571
vt 0.397754 0.810570
vt 0.399754 0.810570
vt 0.475735 0.808571
vt 0.477734 0.810570
vt 0.475735 0.810570
vt 0.475735 0.808571
vt 0.475735 0.810570
vt 0.477734 0.810570
vt 0.397754 0.841820
vt 0.397754 0.869813
vt 0.397754 0.869813
vt 0.397754 0.841820
vt 0.399754 0.841820
vt 0.399754 0.869813
vt 0.399754 0.869813
vt 0.399754 0.841820
vt 0.475735 0.841820
vt 0.475735 0.869813
vt 0.475735 0.869813
vt 0.475735 0.841820
vt 0.404552 0.846619
vt 0.404552 0.865015
vt 0.470936 0.865015
vt 0.470936 0.846619
vt 0.468936 0.817369
vt 0.468936 0.831765
vt 0.406552 0.831765
vt 0.406552 0.817369
vt 0.404552 0.849390
vt 0.406552 0.847390
vt 0.404552 0.830994
vt 0.406552 0.832994
vt 0.402952 0.845020
vt 0.472535 0.845020
vt 0.402952 0.845020
vt 0.472535 0.845020
vt 0.472535 0.829395
vt 0.402952 0.829395
vt 0.402952 0.829395
vt 0.472535 0.829395
vt 0.435744 0.822568
vt 0.435744 0.822568
vt 0.402952 0.822568
vt 0.402952 0.822568
vt 0.435744 0.889066
vt 0.402952 0.889066
vt 0.402952 0.889066
vt 0.435744 0.889066
vt 0.402952 0.904691
vt 0.435744 0.904691
vt 0.435744 0.903892
vt 0.402952 0.903892
vt 0.402952 0.807742
vt 0.435744 0.807742
vt 0.435744 0.806943
vt 0.402952 0.806943
vt 0.435744 0.857017
vt 0.435744 0.854617
vt 0.402952 0.854617
vt 0.402952 0.857017
vt 0.726485 0.882766
vt 0.726485 0.894462
vt 0.648514 0.894462
vt 0.648514 0.882766
vt 0.648514 0.847618
vt 0.648514 0.847618
vt 0.726485 0.847618
vt 0.726485 0.847618
vt 0.648514 0.878868
vt 0.648514 0.898360
vt 0.726485 0.878868
vt 0.726485 0.898360
vt 0.648514 0.863243
vt 0.726485 0.863243
vt 0.726485 0.867141
vt 0.648514 0.867141
vt 0.726485 0.945235
vt 0.648514 0.945235
vt 0.648514 0.941337
vt 0.726485 0.941337
vt 0.648514 0.898360
vt 0.648514 0.878868
vt 0.726485 0.878868
vt 0.726485 0.898360
vt 0.648514 0.863243
vt 0.648514 0.945235
vt 0.726485 0.945235
vt 0.726485 0.863243
vt 0.726485 0.929610
vt 0.726485 0.929610
vt 0.648514 0.929610
vt 0.648514 0.929610
vn -0.8944 -0.0000 0.4472
vn 0.8756 -0.3416 -0.3416
vn 1.0000 -0.0000 0.0000
vn 0.8756 -0.3416 0.3416
vn 0.0000 -1.0000 -0.0000
vn -0.3416 -0.8756 0.3416
vn -0.3416 -0.3416 0.8756
vn -0.8756 -0.3416 0.3416
vn -0.3416 -0.8756 -0.3416
vn -0.8756 -0.3416 -0.3416
vn -0.3416 -0.3416 -0.8756
vn 0.3416 -0.8756 0.3416
vn 0.3416 -0.3416 0.8756
vn 0.3416 -0.8756 -0.3416
vn 0.3416 -0.3416 -0.8756
vn -1.0000 0.0000 0.0000
vn -0.3827 -0.0000 0.9239
vn -0.7071 -0.0000 0.7071
vn -0.3827 0.0000 -0.9239
vn -0.7071 0.0000 -0.7071
vn 0.7071 0.0000 -0.7071
vn 0.3827 0.0000 -0.9239
vn 0.3827 -0.0000 0.9239
vn 0.7071 -0.0000 0.7071
vn 0.0000 -0.0000 1.0000
vn 0.0000 -0.8944 0.4472
vn 0.0000 0.8944 0.4472
vn 0.8944 -0.0000 0.4472
vn 0.0000 0.0000 -1.0000
vn 0.0000 1.0000 0.0000
vn 0.0000 0.7071 -0.7071
vn 0.0000 0.3827 -0.9239
vn 0.0000 -0.3827 -0.9239
vn 0.0000 -0.7071 -0.7071
vn 0.0000 -0.7071 0.7071
vn 0.0000 0.7071 0.7071
usemtl tiny_treats_1
s 1
f 13/1/1 24/2/1 26/3/1 28/4/1
f 18/5/2 19/6/3 15/7/3 12/8/4
f 30/9/5 33/10/5 32/11/5 34/12/5
f 1/13/6 21/14/7 3/15/8
f 6/16/9 7/17/10 29/18/11
f 11/19/12 12/20/4 22/21/13
f 16/22/14 31/23/15 18/24/2
f 3/25/8 5/26/16 10/27/16 7/28/10
f 21/29/7 4/30/17 5/26/18 3/25/8
f 9/31/19 29/32/11 7/28/10 10/27/20
f 16/22/14 6/16/9 29/18/11 31/23/15
f 19/6/21 18/5/2 31/33/15 20/34/22
f 6/16/9 1/13/6 3/15/8 7/17/10
f 14/35/23 22/36/13 12/8/4 15/7/24
f 1/13/6 11/19/12 22/21/13 21/14/7
f 11/19/12 16/22/14 18/24/2 12/20/4
f 6/16/9 16/22/14 11/19/12 1/13/6
f 2/37/25 23/38/25 4/30/17 21/29/7
f 24/39/25 13/40/25 22/36/13 14/35/23
f 13/40/25 2/37/25 21/29/7 22/36/13
f 23/38/25 24/39/25 14/35/23 4/30/17
f 28/41/25 26/42/25 25/43/25 27/44/25
f 24/2/26 23/45/26 25/46/26 26/3/26
f 2/47/27 13/1/27 28/4/27 27/48/27
f 23/45/28 2/47/28 27/48/28 25/46/28
f 30/9/29 8/49/29 29/32/11 9/31/19
f 8/49/29 17/50/29 31/33/15 29/32/11
f 33/10/29 30/9/29 9/31/19 20/34/22
f 17/50/29 33/10/29 20/34/22 31/33/15
f 35/51/29 34/12/29 32/11/29 36/52/29
f 33/10/16 17/50/16 36/52/16 32/11/16
f 17/53/30 8/54/30 35/55/30 36/56/30
f 8/49/3 30/9/3 34/12/3 35/51/3
f 47/57/5 40/58/5 39/59/5 46/60/5
f 42/61/30 43/62/30 37/63/30 38/64/30
f 43/65/31 42/66/31 41/67/32 44/68/32
f 45/69/33 48/70/33 47/71/34 46/72/34
f 41/73/32 48/74/33 45/75/33 44/76/32
f 53/77/25 56/78/25 51/79/25 50/80/25
f 49/81/5 57/82/5 59/83/5 54/84/5
f 49/85/16 50/80/16 51/79/16 52/86/16
f 54/87/3 55/88/3 56/78/3 53/77/3
f 49/89/35 54/90/35 53/91/35 50/92/35
f 55/93/36 52/94/36 51/95/36 56/96/36
f 52/86/16 58/97/16 57/98/16 49/85/16
f 54/87/3 59/99/3 60/100/3 55/88/3
f 57/101/29 58/102/29 60/103/29 59/104/29
f 55/105/30 60/106/30 58/107/30 52/108/30
