# Blender v3.4.1 OBJ File: 'Tiny_Treats_Bakery_Interior_1.1_ASSETS_EXPORT.blend'
# www.blender.org
mtllib countertop_straight_B_short.mtl
o countertop_straight_B_short
v 0.450000 0.000000 -0.700000
v 0.500000 0.050000 -0.700000
v 0.450000 0.750000 -0.750182
v 0.500000 0.750000 -0.700000
v 0.450000 -0.000000 0.500000
v 0.500000 0.050000 0.500000
v 0.370000 0.130000 0.539818
v 0.450000 0.750000 0.539818
v 0.500000 0.750000 0.500000
v -0.450000 0.000000 -0.700000
v -0.500000 0.050000 -0.700000
v -0.450000 0.750000 -0.750182
v -0.500000 0.750000 -0.700000
v -0.450000 -0.000000 0.500000
v -0.370000 0.130000 0.539818
v -0.500000 0.050000 0.500000
v -0.500000 0.750000 0.500000
v -0.450000 0.750000 0.539818
v 0.450000 0.050000 -0.750182
v -0.450000 0.050000 -0.750182
v 0.450000 0.050000 0.539818
v 0.370000 0.670000 0.539818
v -0.450000 0.050000 0.539818
v -0.370000 0.670000 -0.450182
v -0.370000 0.670000 0.539818
v 0.370000 0.670000 -0.450182
v 0.370000 0.130000 -0.450182
v -0.370000 0.130000 -0.450182
v 0.369998 0.450002 -0.450182
v -0.370002 0.450002 -0.450182
v -0.370002 0.350002 -0.450182
v 0.369998 0.350002 -0.450182
v -0.370002 0.430002 0.539818
v -0.370002 0.450002 0.519818
v 0.369998 0.450002 0.519818
v 0.369998 0.430002 0.539818
v -0.370002 0.350002 0.519818
v -0.370002 0.370002 0.539818
v 0.369998 0.370002 0.539818
v 0.369998 0.350002 0.519818
v -0.500000 0.750000 -0.750182
v -0.500000 1.000000 -0.750182
v 0.500000 0.750000 -0.750182
v 0.500000 1.000000 -0.750182
v -0.500000 0.750000 0.699818
v -0.500000 0.800000 0.749818
v -0.500000 0.950000 0.749818
v -0.500000 1.000000 0.699818
v 0.500000 0.800000 0.749818
v 0.500000 0.750000 0.699818
v 0.500000 1.000000 0.699818
v 0.500000 0.950000 0.749818
vt 0.397996 0.841100
vt 0.397996 0.868753
vt 0.397996 0.868753
vt 0.397996 0.841100
vt 0.471870 0.865593
vt 0.403132 0.865593
vt 0.403132 0.865593
vt 0.471870 0.865593
vt 0.475030 0.807875
vt 0.475030 0.809850
vt 0.477006 0.809850
vt 0.475030 0.807875
vt 0.477006 0.809850
vt 0.475030 0.809850
vt 0.399972 0.807875
vt 0.397996 0.809850
vt 0.399972 0.809850
vt 0.399972 0.807875
vt 0.399972 0.809850
vt 0.397996 0.809850
vt 0.477006 0.841100
vt 0.477006 0.868753
vt 0.477006 0.868753
vt 0.477006 0.841100
vt 0.475030 0.841100
vt 0.475030 0.868753
vt 0.475030 0.868753
vt 0.475030 0.841100
vt 0.399972 0.841100
vt 0.399972 0.868753
vt 0.399972 0.868753
vt 0.399972 0.841100
vt 0.471870 0.844260
vt 0.403132 0.844260
vt 0.471870 0.844260
vt 0.403132 0.844260
vt 0.403132 0.828635
vt 0.471870 0.828635
vt 0.471870 0.828635
vt 0.403132 0.828635
vt 0.435525 0.821701
vt 0.435525 0.821701
vt 0.403132 0.821701
vt 0.403132 0.821701
vt 0.435525 0.888152
vt 0.403132 0.888152
vt 0.403132 0.888152
vt 0.435525 0.888152
vt 0.403132 0.902987
vt 0.435525 0.902987
vt 0.435525 0.903777
vt 0.403132 0.903777
vt 0.403132 0.806076
vt 0.435525 0.806076
vt 0.435525 0.806866
vt 0.403132 0.806866
vt 0.403132 0.856112
vt 0.403132 0.853741
vt 0.435525 0.853741
vt 0.435525 0.856112
vt 0.726485 0.882766
vt 0.726485 0.894462
vt 0.648514 0.894462
vt 0.648514 0.882766
vt 0.648514 0.878868
vt 0.648514 0.898360
vt 0.726485 0.898360
vt 0.726485 0.878868
vt 0.726485 0.929610
vt 0.648514 0.929610
vt 0.648514 0.929610
vt 0.726485 0.929610
vt 0.648514 0.878868
vt 0.648514 0.898360
vt 0.726485 0.878868
vt 0.726485 0.898360
vt 0.648514 0.863243
vt 0.726485 0.863243
vt 0.726485 0.867141
vt 0.648514 0.867141
vt 0.726485 0.945235
vt 0.648514 0.945235
vt 0.648514 0.941337
vt 0.726485 0.941337
vt 0.648514 0.847618
vt 0.726485 0.847618
vt 0.726485 0.847618
vt 0.648514 0.847618
vn -0.8591 -0.3352 0.3868
vn -1.0000 0.0000 0.0000
vn -0.9242 0.0000 -0.3818
vn -0.8758 -0.3417 -0.3409
vn 0.0000 -1.0000 -0.0000
vn 0.3417 -0.8758 -0.3408
vn 0.4614 -0.4614 -0.7577
vn 0.8758 -0.3417 -0.3408
vn 0.3352 -0.8591 0.3868
vn 0.8591 -0.3352 0.3868
vn 0.3009 -0.3009 0.9049
vn -0.3417 -0.8758 -0.3408
vn -0.4614 -0.4614 -0.7577
vn -0.3352 -0.8591 0.3868
vn -0.3009 -0.3009 0.9049
vn 0.9242 0.0000 -0.3818
vn 1.0000 -0.0000 0.0000
vn 0.7084 0.0000 -0.7058
vn 0.3300 -0.0000 0.9440
vn 0.6230 -0.0000 0.7823
vn -0.6230 -0.0000 0.7823
vn -0.3300 -0.0000 0.9440
vn -0.7084 0.0000 -0.7058
vn -0.0000 0.0000 -1.0000
vn -0.0000 -0.0000 1.0000
vn 0.0000 1.0000 0.0000
vn -0.0000 0.3827 0.9239
vn -0.0000 0.7071 0.7071
vn 0.0000 -0.7071 0.7071
vn 0.0000 -0.3827 0.9239
usemtl tiny_treats_1
s 1
f 16/1/1 17/2/2 13/3/3 11/4/4
f 22/5/5 25/6/5 24/7/5 26/8/5
f 1/9/6 19/10/7 2/11/8
f 5/12/9 6/13/10 21/14/11
f 10/15/12 11/16/4 20/17/13
f 14/18/14 23/19/15 16/20/1
f 2/21/8 4/22/16 9/23/17 6/24/10
f 19/25/7 3/26/18 4/22/16 2/21/8
f 8/27/19 21/28/11 6/24/10 9/23/20
f 14/18/14 5/12/9 21/14/11 23/19/15
f 17/2/21 16/1/1 23/29/15 18/30/22
f 5/12/9 1/9/6 2/11/8 6/13/10
f 12/31/23 20/32/13 11/4/4 13/3/3
f 1/9/6 10/15/12 20/17/13 19/10/7
f 10/15/12 14/18/14 16/20/1 11/16/4
f 5/12/9 14/18/14 10/15/12 1/9/6
f 20/32/24 12/31/24 3/26/24 19/25/24
f 22/5/25 7/33/25 21/28/11 8/27/19
f 7/33/25 15/34/25 23/29/15 21/28/11
f 25/6/25 22/5/25 8/27/19 18/30/22
f 15/34/25 25/6/25 18/30/22 23/29/15
f 27/35/25 26/8/25 24/7/25 28/36/25
f 25/6/17 15/34/17 28/36/17 24/7/17
f 15/37/26 7/38/26 27/39/26 28/40/26
f 7/33/2 22/5/2 26/8/2 27/35/2
f 32/41/5 40/42/5 37/43/5 31/44/5
f 29/45/26 30/46/26 34/47/26 35/48/26
f 33/49/27 36/50/27 35/51/28 34/52/28
f 37/53/29 40/54/29 39/55/30 38/56/30
f 33/57/27 38/58/30 39/59/30 36/60/27
f 49/61/25 52/62/25 47/63/25 46/64/25
f 41/65/24 42/66/24 44/67/24 43/68/24
f 44/69/26 42/70/26 48/71/26 51/72/26
f 45/73/2 46/64/2 47/63/2 48/74/2
f 50/75/17 51/76/17 52/62/17 49/61/17
f 45/77/29 50/78/29 49/79/29 46/80/29
f 51/81/28 48/82/28 47/83/28 52/84/28
f 41/85/5 43/86/5 50/87/5 45/88/5
f 43/68/17 44/67/17 51/76/17 50/75/17
f 41/65/2 45/73/2 48/74/2 42/66/2
