# Blender v3.4.1 OBJ File: 'Tiny_Treats_Bakery_Interior_1.1_ASSETS_EXPORT.blend'
# www.blender.org
mtllib countertop_closet_B_large.mtl
o countertop_closet_B_large
v -0.950000 1.000000 0.300000
v -1.000000 1.000000 0.250000
v -1.000000 2.200000 0.250000
v -0.950000 2.200000 0.300000
v -1.000000 1.000000 -0.750000
v -1.000000 2.200000 -0.750000
v -0.800000 1.000000 0.250000
v -0.850000 1.000000 0.300000
v -0.850000 2.200000 0.300000
v -0.800000 2.200000 0.250000
v -0.800000 1.000000 -0.750000
v -0.800000 2.200000 -0.750000
v 0.950000 1.000000 0.300000
v 1.000000 1.000000 0.250000
v 1.000000 2.200000 0.250000
v 0.950000 2.200000 0.300000
v 1.000000 1.000000 -0.750000
v 1.000000 2.200000 -0.750000
v 0.800000 1.000000 0.250000
v 0.850000 1.000000 0.300000
v 0.850000 2.200000 0.300000
v 0.800000 2.200000 0.250000
v 0.800000 1.000000 -0.750000
v 0.800000 2.200000 -0.750000
v -1.050000 2.200000 0.350000
v -1.050000 2.250000 0.400000
v -1.100000 2.250000 0.350000
v -1.050000 2.450000 0.400000
v -1.050000 2.500000 0.350000
v -1.100000 2.450000 0.350000
v -1.050000 2.200000 -0.750000
v -1.100000 2.250000 -0.750000
v -1.050000 2.500000 -0.750000
v -1.100000 2.450000 -0.750000
v 1.050000 2.200000 0.350000
v 1.100000 2.250000 0.350000
v 1.050000 2.250000 0.400000
v 1.050000 2.500000 0.350000
v 1.050000 2.450000 0.400000
v 1.100000 2.450000 0.350000
v 1.050000 2.200000 -0.750000
v 1.100000 2.250000 -0.750000
v 1.050000 2.500000 -0.750000
v 1.100000 2.450000 -0.750000
v -0.800000 1.500000 0.200000
v -0.800000 1.550000 0.250000
v -0.800000 1.650000 0.250000
v -0.800000 1.700000 0.200000
v -0.800000 1.500000 -0.750000
v -0.800000 1.700000 -0.750000
v 0.800000 1.500000 0.200000
v 0.800000 1.550000 0.250000
v 0.800000 1.700000 0.200000
v 0.800000 1.650000 0.250000
v 0.800000 1.500000 -0.750000
v 0.800000 1.700000 -0.750000
vt 0.673868 0.899027
vt 0.673868 0.931813
vt 0.681154 0.931813
vt 0.681154 0.899027
vt 0.679332 0.899027
vt 0.679332 0.931813
vt 0.675689 0.931813
vt 0.675689 0.899027
vt 0.673868 0.931813
vt 0.673868 0.899027
vt 0.681154 0.931813
vt 0.681154 0.899027
vt 0.739441 0.899027
vt 0.737619 0.899027
vt 0.733976 0.899027
vt 0.732155 0.899027
vt 0.739441 0.931813
vt 0.739441 0.899027
vt 0.732155 0.899027
vt 0.732155 0.931813
vt 0.737619 0.931813
vt 0.733976 0.931813
vt 0.739441 0.931813
vt 0.732155 0.931813
vt 0.715054 0.950692
vt 0.715054 0.955940
vt 0.659946 0.955940
vt 0.659946 0.950692
vt 0.716366 0.950692
vt 0.716366 0.955940
vt 0.716366 0.955940
vt 0.716366 0.950692
vt 0.715054 0.972877
vt 0.659946 0.972877
vt 0.659946 0.972877
vt 0.715054 0.972877
vt 0.658634 0.950692
vt 0.658634 0.955940
vt 0.658634 0.955940
vt 0.658634 0.950692
vt 0.659946 0.933755
vt 0.659946 0.935067
vt 0.658634 0.935067
vt 0.659946 0.971565
vt 0.658634 0.971565
vt 0.715054 0.933755
vt 0.716366 0.935067
vt 0.715054 0.935067
vt 0.715054 0.971565
vt 0.716366 0.971565
vt 0.659946 0.933755
vt 0.658634 0.935067
vt 0.658634 0.971565
vt 0.659946 0.949380
vt 0.659946 0.957252
vt 0.715054 0.949380
vt 0.715054 0.957252
vt 0.715054 0.933755
vt 0.716366 0.935067
vt 0.716366 0.971565
vt 0.715555 0.915420
vt 0.715555 0.919063
vt 0.664554 0.919063
vt 0.664554 0.915420
vt 0.715555 0.936509
vt 0.664554 0.936509
vt 0.664554 0.936509
vt 0.715555 0.936509
vt 0.715555 0.913599
vt 0.664554 0.913599
vt 0.664554 0.920884
vt 0.715555 0.920884
vt 0.664554 0.897974
vt 0.715555 0.897974
vt 0.715555 0.899795
vt 0.664554 0.899795
vt 0.664554 0.934688
vt 0.715555 0.934688
vt 0.664554 0.897974
vt 0.715555 0.897974
vn 0.0000 0.0000 -1.0000
vn 0.3827 -0.0000 0.9239
vn -0.3827 -0.0000 0.9239
vn -0.9239 -0.0000 0.3827
vn 1.0000 0.0000 0.0000
vn 0.9239 -0.0000 0.3827
vn 0.0000 -1.0000 0.0000
vn -1.0000 0.0000 0.0000
vn 0.0000 -0.0000 1.0000
vn 0.8756 0.3416 0.3416
vn 0.8756 -0.3416 0.3416
vn 0.3827 0.9239 0.0000
vn -0.3827 0.9239 0.0000
vn -0.3416 0.8756 0.3416
vn 0.3416 0.8756 0.3416
vn -0.8756 -0.3416 0.3416
vn -0.8756 0.3416 0.3416
vn -0.3416 -0.8756 0.3416
vn -0.4606 -0.4606 0.7588
vn -0.4606 0.4606 0.7588
vn 0.3416 -0.8756 0.3416
vn 0.4606 -0.4606 0.7588
vn 0.4606 0.4606 0.7588
vn -0.3827 -0.9239 0.0000
vn -0.7071 -0.7071 0.0000
vn -0.7071 0.7071 0.0000
vn 0.3827 -0.9239 0.0000
vn 0.7071 -0.7071 0.0000
vn 0.7071 0.7071 0.0000
vn 0.0000 1.0000 0.0000
vn 0.0000 0.9239 0.3827
vn 0.0000 -0.9239 0.3827
vn 0.0000 -0.7071 0.7071
vn 0.0000 0.7071 0.7071
usemtl tiny_treats_1
s 1
f 5/1/1 6/2/1 12/3/1 11/4/1
f 8/5/2 9/6/2 4/7/3 1/8/3
f 1/8/3 4/7/3 3/9/4 2/10/4
f 12/3/5 10/11/6 7/12/6 11/4/5
f 14/13/7 13/14/7 20/15/7 19/16/7
f 8/5/2 7/12/6 10/11/6 9/6/2
f 2/10/4 3/9/4 6/2/8 5/1/8
f 18/17/1 17/18/1 23/19/1 24/20/1
f 20/15/3 13/14/2 16/21/2 21/22/3
f 13/14/2 14/13/6 15/23/6 16/21/2
f 5/1/7 11/4/7 7/12/7 2/10/7
f 24/20/8 23/19/8 19/16/4 22/24/4
f 14/13/7 19/16/7 23/19/7 17/18/7
f 20/15/3 21/22/3 22/24/4 19/16/4
f 14/13/6 17/18/5 18/17/5 15/23/6
f 37/25/9 39/26/9 28/27/9 26/28/9
f 42/29/5 44/30/5 40/31/10 36/32/11
f 43/33/12 33/34/13 29/35/14 38/36/15
f 27/37/16 30/38/17 34/39/8 32/40/8
f 25/41/18 26/42/19 27/43/16
f 28/44/20 29/35/14 30/45/17
f 35/46/21 36/47/11 37/48/22
f 38/36/15 39/49/23 40/50/10
f 31/51/24 25/41/18 27/43/16 32/52/25
f 26/28/19 28/27/20 30/38/17 27/37/16
f 29/35/14 33/34/13 34/53/26 30/45/17
f 31/54/1 32/40/1 34/39/1 33/55/1
f 41/56/1 31/54/1 33/55/1 43/57/1
f 42/29/1 41/56/1 43/57/1 44/30/1
f 35/46/21 41/58/27 42/59/28 36/47/11
f 43/33/12 38/36/15 40/50/10 44/60/29
f 39/26/23 37/25/22 36/32/11 40/31/10
f 25/41/18 35/46/21 37/48/22 26/42/19
f 38/36/15 29/35/14 28/44/20 39/49/23
f 31/51/24 41/58/27 35/46/21 25/41/18
f 52/61/9 54/62/9 47/63/9 46/64/9
f 56/65/30 50/66/30 48/67/31 53/68/31
f 55/69/1 49/70/1 50/71/1 56/72/1
f 45/73/32 51/74/32 52/75/33 46/76/33
f 53/68/31 48/67/31 47/77/34 54/78/34
f 49/79/7 55/80/7 51/74/32 45/73/32
f 2/10/7 7/12/7 8/5/7 1/8/7
