# Blender v3.4.1 OBJ File: 'Tiny_Treats_Bakery_Interior_1.1_ASSETS_EXPORT.blend'
# www.blender.org
mtllib cream_puff.mtl
o cream_puff
v -0.075006 0.112097 -0.114516
v 0.027939 0.112096 -0.134021
v 0.114524 0.112095 -0.075019
v 0.134028 0.112094 0.027925
v 0.075028 0.112093 0.114509
v -0.027915 0.112093 0.134015
v -0.114501 0.112095 0.075016
v -0.134008 0.112096 -0.027930
v -0.152093 0.141681 -0.039198
v -0.135255 0.141681 0.079844
v -0.039174 0.141681 0.152113
v 0.079867 0.141681 0.135275
v 0.152136 0.141681 0.039194
v 0.135298 0.141681 -0.079846
v 0.039218 0.141681 -0.152115
v -0.079823 0.141681 -0.135278
v -0.041665 0.009288 0.073205
v -0.110743 0.079750 0.084825
v -0.094421 0.030111 0.073416
v -0.133014 0.098864 0.031589
v -0.132088 0.056284 0.036190
v -0.138287 0.079751 -0.018326
v -0.118672 0.030111 -0.014905
v -0.081100 0.009304 0.022268
v -0.116391 0.098864 -0.071722
v -0.118992 0.056283 -0.067811
v -0.073205 0.009288 -0.041664
v -0.084824 0.079751 -0.110745
v -0.073416 0.030111 -0.094420
v -0.022269 0.009304 -0.081099
v -0.031585 0.098864 -0.133020
v -0.036190 0.056284 -0.132089
v -0.067811 0.056283 0.118992
v -0.071716 0.098863 0.116394
v 0.022267 0.009304 0.081099
v -0.014906 0.030111 0.118671
v -0.018325 0.079750 0.138288
v -0.000001 0.000349 0.000000
v 0.036190 0.056283 0.132089
v 0.031595 0.098862 0.133017
v 0.073415 0.030110 0.094421
v 0.084826 0.079750 0.110744
v 0.073204 0.009288 0.041664
v 0.118992 0.056283 0.067811
v 0.116399 0.098863 0.071719
v 0.081098 0.009304 -0.022268
v 0.118671 0.030110 0.014905
v 0.138289 0.079750 0.018326
v 0.132088 0.056284 -0.036190
v 0.133023 0.098863 -0.031591
v 0.094420 0.030111 -0.073415
v 0.110745 0.079750 -0.084825
v 0.041664 0.009288 -0.073205
v 0.067811 0.056283 -0.118992
v 0.071726 0.098864 -0.116396
v 0.014905 0.030111 -0.118671
v 0.018327 0.079751 -0.138289
v -0.147428 0.124084 -0.037480
v -0.037456 0.124081 0.147444
v 0.147466 0.124082 0.037473
v 0.037497 0.124084 -0.147450
v -0.130741 0.124083 0.077759
v 0.077781 0.124081 0.130757
v 0.130781 0.124083 -0.077763
v -0.077741 0.124085 -0.130765
v -0.062511 0.169900 -0.096961
v 0.024362 0.169900 -0.112772
v 0.096968 0.169900 -0.062523
v 0.112778 0.169902 0.024347
v 0.062533 0.169902 0.096953
v -0.024337 0.169902 0.112766
v -0.096946 0.169901 0.062520
v -0.112759 0.169900 -0.024352
v -0.038686 0.281063 0.067973
v -0.101953 0.194570 0.078704
v -0.088061 0.243057 0.068485
v -0.122581 0.178298 0.029758
v -0.122139 0.214175 0.033537
v -0.127744 0.194570 -0.016437
v -0.110685 0.243058 -0.013913
v -0.075139 0.281190 0.020632
v -0.107721 0.178299 -0.065640
v -0.110072 0.214178 -0.062648
v -0.067973 0.281062 -0.038687
v -0.078702 0.194570 -0.101955
v -0.068483 0.243057 -0.088062
v -0.020631 0.281191 -0.075140
v -0.029754 0.178300 -0.122589
v -0.033536 0.214175 -0.122141
v -0.062646 0.214177 0.110073
v -0.065633 0.178298 0.107722
v 0.020633 0.281191 0.075140
v -0.013911 0.243057 0.110686
v -0.016435 0.194570 0.127745
v 0.000001 0.295276 0.000000
v 0.033539 0.214175 0.122141
v 0.029764 0.178299 0.122584
v 0.068486 0.243056 0.088062
v 0.078706 0.194570 0.101954
v 0.067974 0.281062 0.038687
v 0.110075 0.214177 0.062648
v 0.107727 0.178298 0.065637
v 0.075141 0.281190 -0.020632
v 0.110687 0.243056 0.013913
v 0.127746 0.194570 0.016437
v 0.122142 0.214174 -0.033537
v 0.122590 0.178299 -0.029759
v 0.088063 0.243057 -0.068484
v 0.101956 0.194569 -0.078704
v 0.038688 0.281063 -0.067973
v 0.062649 0.214177 -0.110073
v 0.065644 0.178299 -0.107726
v 0.013914 0.243057 -0.110686
v 0.016439 0.194570 -0.127745
v -0.143668 0.158156 -0.036524
v -0.036500 0.158157 0.143681
v 0.143703 0.158157 0.036517
v 0.036541 0.158156 -0.143690
v -0.127405 0.158157 0.075775
v 0.075796 0.158158 0.127420
v 0.127444 0.158156 -0.075780
v -0.075758 0.158155 -0.127430
vt 0.525974 0.866790
vt 0.521429 0.866790
vt 0.521022 0.862619
vt 0.525612 0.862619
vt 0.672412 0.808853
vt 0.686864 0.877201
vt 0.676098 0.892690
vt 0.584054 0.866790
vt 0.551914 0.866790
vt 0.551809 0.862619
vt 0.584268 0.862619
vt 0.599019 0.866790
vt 0.603564 0.866790
vt 0.603971 0.862619
vt 0.599381 0.862619
vt 0.540939 0.866790
vt 0.573079 0.866790
vt 0.573184 0.862619
vt 0.540725 0.862619
vt 0.675287 0.905194
vt 0.658047 0.917854
vt 0.658916 0.821358
vt 0.670326 0.931477
vt 0.660791 0.941249
vt 0.646937 0.847641
vt 0.658916 0.905195
vt 0.646937 0.931477
vt 0.646111 0.834018
vt 0.646111 0.917854
vt 0.658916 0.821358
vt 0.703402 0.847641
vt 0.686864 0.834018
vt 0.670326 0.931477
vt 0.649993 0.941249
vt 0.646937 0.847641
vt 0.676098 0.808853
vt 0.672412 0.892690
vt 0.658916 0.905195
vt 0.646937 0.931477
vt 0.658047 0.834018
vt 0.686864 0.808853
vt 0.676098 0.892690
vt 0.658047 0.917854
vt 0.675287 0.821357
vt 0.660791 0.941249
vt 0.670326 0.847641
vt 0.675287 0.905194
vt 0.686864 0.917854
vt 0.698440 0.821357
vt 0.676098 0.808853
vt 0.686864 0.892690
vt 0.686864 0.917854
vt 0.658047 0.834018
vt 0.703402 0.931477
vt 0.686864 0.941249
vt 0.670326 0.847641
vt 0.698440 0.905194
vt 0.675287 0.821357
vt 0.715680 0.917854
vt 0.686864 0.834018
vt 0.660791 0.857412
vt 0.686864 0.808853
vt 0.697629 0.892690
vt 0.726789 0.931477
vt 0.712935 0.941249
vt 0.703402 0.847641
vt 0.714813 0.905194
vt 0.698440 0.821357
vt 0.697629 0.808853
vt 0.701315 0.892689
vt 0.727618 0.917854
vt 0.715680 0.834018
vt 0.726789 0.931477
vt 0.723736 0.941249
vt 0.726789 0.847641
vt 0.714813 0.905194
vt 0.714813 0.821357
vt 0.715680 0.917854
vt 0.727618 0.834018
vt 0.701315 0.808853
vt 0.697629 0.892690
vt 0.703402 0.931477
vt 0.712935 0.941249
vt 0.726789 0.847641
vt 0.698440 0.905194
vt 0.714813 0.821357
vt 0.697629 0.808853
vt 0.686864 0.892689
vt 0.715680 0.834018
vt 0.723736 0.857412
vt 0.649993 0.857412
vt 0.660791 0.857412
vt 0.712935 0.857412
vt 0.686864 0.941249
vt 0.686864 0.857412
vt 0.712935 0.857412
vt 0.686864 0.857412
vt 0.712935 0.941249
vt 0.686864 0.941249
vt 0.712935 0.941249
vt 0.723736 0.941249
vt 0.686864 0.941249
vt 0.649993 0.941249
vt 0.660791 0.941249
vt 0.660791 0.941249
vt 0.660791 0.857412
vt 0.686864 0.857412
vt 0.712935 0.857412
vt 0.723736 0.857412
vt 0.712935 0.857412
vt 0.686864 0.857412
vt 0.660791 0.857412
vt 0.649993 0.857412
vt 0.572974 0.870961
vt 0.598657 0.870961
vt 0.603158 0.870961
vt 0.583840 0.870961
vt 0.552018 0.870961
vt 0.526337 0.870961
vt 0.521836 0.870961
vt 0.541153 0.870961
vt 0.525974 0.866790
vt 0.525612 0.862619
vt 0.521022 0.862619
vt 0.521429 0.866790
vt 0.672412 0.808853
vt 0.676098 0.892690
vt 0.686864 0.877201
vt 0.584054 0.866790
vt 0.584268 0.862619
vt 0.551809 0.862619
vt 0.551914 0.866790
vt 0.599019 0.866790
vt 0.599381 0.862619
vt 0.603971 0.862619
vt 0.603564 0.866790
vt 0.540939 0.866790
vt 0.540725 0.862619
vt 0.573184 0.862619
vt 0.573079 0.866790
vt 0.675287 0.905194
vt 0.658916 0.821358
vt 0.658047 0.917854
vt 0.670326 0.931477
vt 0.646937 0.847641
vt 0.660791 0.941249
vt 0.658916 0.905195
vt 0.646111 0.834018
vt 0.646937 0.931477
vt 0.658916 0.821358
vt 0.646111 0.917854
vt 0.703402 0.847641
vt 0.670326 0.931477
vt 0.686864 0.834018
vt 0.646937 0.847641
vt 0.649993 0.941249
vt 0.676098 0.808853
vt 0.672412 0.892690
vt 0.658916 0.905195
vt 0.658047 0.834018
vt 0.646937 0.931477
vt 0.686864 0.808853
vt 0.676098 0.892690
vt 0.675287 0.821357
vt 0.658047 0.917854
vt 0.670326 0.847641
vt 0.660791 0.941249
vt 0.675287 0.905194
vt 0.698440 0.821357
vt 0.686864 0.917854
vt 0.676098 0.808853
vt 0.686864 0.892690
vt 0.686864 0.917854
vt 0.658047 0.834018
vt 0.703402 0.931477
vt 0.670326 0.847641
vt 0.686864 0.941249
vt 0.698440 0.905194
vt 0.675287 0.821357
vt 0.715680 0.917854
vt 0.686864 0.834018
vt 0.660791 0.857412
vt 0.697629 0.892690
vt 0.686864 0.808853
vt 0.726789 0.931477
vt 0.703402 0.847641
vt 0.712935 0.941249
vt 0.714813 0.905194
vt 0.698440 0.821357
vt 0.697629 0.808853
vt 0.701315 0.892689
vt 0.727618 0.917854
vt 0.715680 0.834018
vt 0.726789 0.931477
vt 0.726789 0.847641
vt 0.723736 0.941249
vt 0.714813 0.905194
vt 0.714813 0.821357
vt 0.715680 0.917854
vt 0.727618 0.834018
vt 0.697629 0.892690
vt 0.701315 0.808853
vt 0.703402 0.931477
vt 0.726789 0.847641
vt 0.712935 0.941249
vt 0.698440 0.905194
vt 0.714813 0.821357
vt 0.697629 0.808853
vt 0.686864 0.892689
vt 0.715680 0.834018
vt 0.723736 0.857412
vt 0.649993 0.857412
vt 0.660791 0.857412
vt 0.712935 0.857412
vt 0.686864 0.941249
vt 0.686864 0.857412
vt 0.712935 0.857412
vt 0.686864 0.857412
vt 0.712935 0.941249
vt 0.686864 0.941249
vt 0.712935 0.941249
vt 0.723736 0.941249
vt 0.686864 0.941249
vt 0.649993 0.941249
vt 0.660791 0.941249
vt 0.660791 0.941249
vt 0.660791 0.857412
vt 0.686864 0.857412
vt 0.712935 0.857412
vt 0.723736 0.857412
vt 0.712935 0.857412
vt 0.686864 0.857412
vt 0.660791 0.857412
vt 0.649993 0.857412
vn -0.7419 -0.5227 0.4199
vn -0.8216 -0.5227 -0.2277
vn -0.6117 -0.7851 -0.0973
vn -0.5014 -0.7851 0.3636
vn -0.3563 -0.9293 0.0978
vn -0.0000 -1.0000 0.0000
vn -0.1831 -0.9290 0.3217
vn 0.4199 -0.5230 0.7417
vn -0.2276 -0.5229 0.8215
vn -0.0974 -0.7852 0.6115
vn 0.3634 -0.7854 0.5011
vn 0.7417 -0.5230 -0.4199
vn 0.8214 -0.5230 0.2276
vn 0.6112 -0.7854 0.0973
vn 0.5010 -0.7854 -0.3635
vn -0.4199 -0.5228 -0.7419
vn 0.2276 -0.5229 -0.8215
vn 0.0972 -0.7853 -0.6114
vn -0.3637 -0.7852 -0.5012
vn -0.0950 -0.6455 0.7579
vn -0.4825 -0.2373 0.8432
vn -0.6033 -0.6454 0.4685
vn -0.1365 0.0473 0.9895
vn -0.5242 0.1317 0.8414
vn -0.7962 0.0473 0.6032
vn -0.9373 -0.2375 0.2550
vn -0.7579 -0.6454 -0.0950
vn 0.1365 0.0472 -0.9895
vn -0.2550 -0.2375 -0.9373
vn -0.6032 0.0473 -0.7962
vn -0.9656 0.1318 0.2243
vn -0.9895 0.0473 -0.1365
vn -0.3217 -0.9290 -0.1831
vn -0.8432 -0.2373 -0.4825
vn -0.0978 -0.9293 -0.3563
vn -0.4685 -0.6454 -0.6033
vn -0.8414 0.1317 -0.5242
vn 0.0950 -0.6455 -0.7579
vn 0.0978 -0.9293 0.3563
vn 0.2550 -0.2375 0.9373
vn 0.6032 0.0472 0.7962
vn 0.2243 0.1316 0.9656
vn 0.4685 -0.6455 0.6032
vn 0.8431 -0.2373 0.4825
vn 0.3217 -0.9290 0.1831
vn 0.9895 0.0472 0.1365
vn 0.8414 0.1314 0.5242
vn 0.7579 -0.6455 0.0950
vn 0.3563 -0.9293 -0.0978
vn 0.9373 -0.2375 -0.2550
vn 0.7962 0.0472 -0.6032
vn 0.9656 0.1313 -0.2243
vn 0.6032 -0.6455 -0.4685
vn 0.4825 -0.2373 -0.8431
vn 0.1831 -0.9290 -0.3217
vn 0.5242 0.1314 -0.8414
vn -0.2243 0.1316 -0.9656
vn 0.5143 -0.4366 0.7382
vn -0.1584 -0.4364 0.8857
vn 0.7381 -0.4367 -0.5142
vn 0.8855 -0.4368 0.1583
vn 0.1584 -0.4366 -0.8856
vn -0.8858 -0.4362 -0.1584
vn -0.5143 -0.4363 -0.7383
vn -0.7383 -0.4362 0.5144
vn 0.2537 0.1000 -0.9621
vn 0.8597 0.1000 -0.5009
vn 0.9621 0.1000 0.2537
vn 0.5009 0.1000 0.8597
vn -0.2537 0.1000 0.9621
vn -0.8597 0.1000 0.5009
vn -0.9621 0.1000 -0.2537
vn -0.5009 0.1000 -0.8597
vn -0.6008 0.7159 0.3557
vn -0.2806 0.9417 0.1857
vn -0.3297 0.9417 -0.0671
vn -0.6764 0.7159 -0.1733
vn -0.5250 0.8388 0.1442
vn -0.2704 0.8373 0.4752
vn -0.0000 1.0000 0.0000
vn 0.3557 0.7160 0.6007
vn 0.1857 0.9417 0.2805
vn -0.0671 0.9417 0.3297
vn -0.1732 0.7160 0.6763
vn 0.6007 0.7160 -0.3557
vn 0.2805 0.9417 -0.1857
vn 0.3296 0.9417 0.0671
vn 0.6762 0.7160 0.1732
vn -0.3558 0.7159 -0.6008
vn -0.1857 0.9417 -0.2806
vn 0.0670 0.9417 -0.3297
vn 0.1732 0.7159 -0.6763
vn -0.1073 0.5024 0.8579
vn -0.6828 0.5024 0.5304
vn -0.4884 0.1684 0.8562
vn -0.1334 -0.0505 0.9898
vn -0.7942 -0.0505 0.6056
vn -0.4815 -0.3692 0.7949
vn -0.9508 0.1686 0.2601
vn -0.8579 0.5024 -0.1073
vn 0.1334 -0.0504 -0.9898
vn -0.6056 -0.0504 -0.7942
vn -0.2601 0.1686 -0.9508
vn -0.9898 -0.0505 -0.1334
vn -0.9025 -0.3692 0.2216
vn -0.4752 0.8373 -0.2704
vn -0.8562 0.1684 -0.4884
vn -0.1442 0.8388 -0.5250
vn -0.5304 0.5024 -0.6828
vn -0.7950 -0.3690 -0.4815
vn 0.1073 0.5024 -0.8579
vn 0.1442 0.8388 0.5250
vn 0.2601 0.1686 0.9508
vn 0.6056 -0.0504 0.7942
vn 0.2216 -0.3691 0.9026
vn 0.5304 0.5024 0.6828
vn 0.8562 0.1684 0.4884
vn 0.4752 0.8373 0.2704
vn 0.9898 -0.0504 0.1334
vn 0.7950 -0.3690 0.4815
vn 0.8579 0.5024 0.1073
vn 0.5250 0.8388 -0.1442
vn 0.9508 0.1686 -0.2601
vn 0.7942 -0.0504 -0.6056
vn 0.9027 -0.3689 -0.2216
vn 0.6828 0.5024 -0.5304
vn 0.4884 0.1684 -0.8562
vn 0.2704 0.8373 -0.4752
vn 0.4816 -0.3688 -0.7950
vn -0.2216 -0.3689 -0.9026
vn 0.5350 -0.3840 0.7525
vn -0.1537 -0.3845 0.9102
vn 0.7526 -0.3837 -0.5351
vn 0.9106 -0.3837 0.1538
vn 0.1538 -0.3840 -0.9104
vn -0.9101 -0.3847 -0.1537
vn -0.5349 -0.3845 -0.7524
vn -0.7522 -0.3848 0.5349
usemtl tiny_treats_1
s 1
f 62/1/1 58/2/2 8/3/3 7/4/4
f 24/5/5 38/6/6 17/7/7
f 63/8/8 59/9/9 6/10/10 5/11/11
f 64/12/12 60/13/13 4/14/14 3/15/15
f 65/16/16 61/17/17 2/18/18 1/19/19
f 58/2/2 65/16/16 1/19/19 8/3/3
f 59/9/9 62/1/1 7/4/4 6/10/10
f 60/13/13 63/8/8 5/11/11 4/14/14
f 61/17/17 64/12/12 3/15/15 2/18/18
f 36/20/20 33/21/21 19/22/22
f 37/23/23 34/24/24 18/25/25
f 19/26/22 24/5/5 17/7/7
f 33/21/21 18/27/25 21/28/26
f 19/26/22 21/29/26 23/30/27
f 57/31/28 32/32/29 28/33/30
f 18/27/25 20/34/31 22/35/32
f 27/36/33 38/6/6 24/37/5
f 27/36/33 24/37/5 23/38/27
f 21/29/26 22/39/32 26/40/34
f 30/41/35 38/6/6 27/42/33
f 23/38/27 26/43/34 29/44/36
f 22/39/32 25/45/37 28/46/30
f 29/47/36 30/41/35 27/42/33
f 29/47/36 32/48/29 56/49/38
f 26/43/34 28/33/30 32/32/29
f 17/50/7 35/51/39 36/20/20
f 17/50/7 38/6/6 35/51/39
f 39/52/40 37/23/23 33/53/21
f 42/54/41 40/55/42 37/56/23
f 41/57/43 39/52/40 36/58/20
f 44/59/44 42/54/41 39/60/40
f 37/56/23 40/55/42 34/61/24
f 41/57/43 35/62/39 43/63/45
f 48/64/46 45/65/47 42/66/41
f 47/67/48 44/59/44 41/68/43
f 35/62/39 38/6/6 43/63/45
f 43/69/45 38/6/6 46/70/49
f 49/71/50 48/64/46 44/72/44
f 43/69/45 46/70/49 47/67/48
f 52/73/51 50/74/52 48/75/46
f 51/76/53 49/71/50 47/77/48
f 54/78/54 52/73/51 49/79/50
f 51/76/53 46/80/49 53/81/55
f 57/82/28 55/83/56 52/84/51
f 56/85/38 54/78/54 51/86/53
f 46/80/49 38/6/6 53/81/55
f 53/87/55 38/6/6 30/88/35
f 32/48/29 57/82/28 54/89/54
f 53/87/55 30/88/35 56/85/38
f 50/90/52 52/84/51 55/83/56
f 20/91/31 18/25/25 34/24/24
f 25/92/37 22/35/32 20/34/31
f 55/93/56 57/31/28 31/94/57
f 31/95/57 28/46/30 25/45/37
f 45/96/47 48/75/46 50/74/52
f 42/66/41 45/65/47 40/97/42
f 41/68/43 44/59/44 39/60/40
f 36/58/20 39/52/40 33/53/21
f 19/22/22 33/21/21 21/28/26
f 23/30/27 21/29/26 26/40/34
f 29/44/36 26/43/34 32/32/29
f 56/49/38 32/48/29 54/89/54
f 51/86/53 54/78/54 49/79/50
f 47/77/48 49/71/50 44/72/44
f 43/69/45 47/67/48 41/68/43
f 35/62/39 41/57/43 36/58/20
f 17/50/7 36/20/20 19/22/22
f 24/5/5 19/26/22 23/30/27
f 27/36/33 23/38/27 29/44/36
f 30/41/35 29/47/36 56/49/38
f 53/87/55 56/85/38 51/86/53
f 46/80/49 51/76/53 47/77/48
f 44/72/44 48/64/46 42/66/41
f 39/60/40 42/54/41 37/56/23
f 33/53/21 37/23/23 18/25/25
f 21/28/26 18/27/25 22/35/32
f 26/40/34 22/39/32 28/46/30
f 31/94/57 57/31/28 28/33/30
f 54/89/54 57/82/28 52/84/51
f 49/79/50 52/73/51 48/75/46
f 40/97/42 45/65/47 5/98/58
f 34/61/24 40/55/42 6/99/59
f 50/90/52 55/83/56 3/100/60
f 45/96/47 50/74/52 4/101/61
f 55/93/56 31/94/57 2/102/62
f 25/92/37 20/34/31 8/103/63
f 31/95/57 25/45/37 1/104/64
f 20/91/31 34/24/24 7/105/65
f 7/106/65 34/61/24 6/99/59
f 6/107/59 40/97/42 5/98/58
f 5/108/58 45/96/47 4/101/61
f 4/109/61 50/90/52 3/100/60
f 3/110/60 55/93/56 2/102/62
f 2/111/62 31/95/57 1/104/64
f 1/112/64 25/92/37 8/103/63
f 8/113/63 20/91/31 7/105/65
f 15/114/66 14/115/67 64/12/12 61/17/17
f 13/116/68 12/117/69 63/8/8 60/13/13
f 11/118/70 10/119/71 62/1/1 59/9/9
f 9/120/72 16/121/73 65/16/16 58/2/2
f 16/121/73 15/114/66 61/17/17 65/16/16
f 14/115/67 13/116/68 60/13/13 64/12/12
f 12/117/69 11/118/70 59/9/9 63/8/8
f 10/119/71 9/120/72 58/2/2 62/1/1
f 119/122/74 72/123/75 73/124/76 115/125/77
f 81/126/78 74/127/79 95/128/80
f 120/129/81 70/130/82 71/131/83 116/132/84
f 121/133/85 68/134/86 69/135/87 117/136/88
f 122/137/89 66/138/90 67/139/91 118/140/92
f 115/125/77 73/124/76 66/138/90 122/137/89
f 116/132/84 71/131/83 72/123/75 119/122/74
f 117/136/88 69/135/87 70/130/82 120/129/81
f 118/140/92 67/139/91 68/134/86 121/133/85
f 93/141/93 76/142/94 90/143/95
f 94/144/96 75/145/97 91/146/98
f 76/147/94 74/127/79 81/126/78
f 90/143/95 78/148/99 75/149/97
f 76/147/94 80/150/100 78/151/99
f 114/152/101 85/153/102 89/154/103
f 75/149/97 79/155/104 77/156/105
f 84/157/106 81/158/78 95/128/80
f 84/157/106 80/159/100 81/158/78
f 78/151/99 83/160/107 79/161/104
f 87/162/108 84/163/106 95/128/80
f 80/159/100 86/164/109 83/165/107
f 79/161/104 85/166/102 82/167/110
f 86/168/109 84/163/106 87/162/108
f 86/168/109 113/169/111 89/170/103
f 83/165/107 89/154/103 85/153/102
f 74/171/79 93/141/93 92/172/112
f 74/171/79 92/172/112 95/128/80
f 96/173/113 90/174/95 94/144/96
f 99/175/114 94/176/96 97/177/115
f 98/178/116 93/179/93 96/173/113
f 101/180/117 96/181/113 99/175/114
f 94/176/96 91/182/98 97/177/115
f 98/178/116 100/183/118 92/184/112
f 105/185/119 99/186/114 102/187/120
f 104/188/121 98/189/116 101/180/117
f 92/184/112 100/183/118 95/128/80
f 100/190/118 103/191/122 95/128/80
f 106/192/123 101/193/117 105/185/119
f 100/190/118 104/188/121 103/191/122
f 109/194/124 105/195/119 107/196/125
f 108/197/126 104/198/121 106/192/123
f 111/199/127 106/200/123 109/194/124
f 108/197/126 110/201/128 103/202/122
f 114/203/101 109/204/124 112/205/129
f 113/206/111 108/207/126 111/199/127
f 103/202/122 110/201/128 95/128/80
f 110/208/128 87/209/108 95/128/80
f 89/170/103 111/210/127 114/203/101
f 110/208/128 113/206/111 87/209/108
f 107/211/125 112/205/129 109/204/124
f 77/212/105 91/146/98 75/145/97
f 82/213/110 77/156/105 79/155/104
f 112/214/129 88/215/130 114/152/101
f 88/216/130 82/167/110 85/166/102
f 102/217/120 107/196/125 105/195/119
f 99/186/114 97/218/115 102/187/120
f 98/189/116 96/181/113 101/180/117
f 93/179/93 90/174/95 96/173/113
f 76/142/94 78/148/99 90/143/95
f 80/150/100 83/160/107 78/151/99
f 86/164/109 89/154/103 83/165/107
f 113/169/111 111/210/127 89/170/103
f 108/207/126 106/200/123 111/199/127
f 104/198/121 101/193/117 106/192/123
f 100/190/118 98/189/116 104/188/121
f 92/184/112 93/179/93 98/178/116
f 74/171/79 76/142/94 93/141/93
f 81/126/78 80/150/100 76/147/94
f 84/157/106 86/164/109 80/159/100
f 87/162/108 113/169/111 86/168/109
f 110/208/128 108/207/126 113/206/111
f 103/202/122 104/198/121 108/197/126
f 101/193/117 99/186/114 105/185/119
f 96/181/113 94/176/96 99/175/114
f 90/174/95 75/145/97 94/144/96
f 78/148/99 79/155/104 75/149/97
f 83/160/107 85/166/102 79/161/104
f 88/215/130 85/153/102 114/152/101
f 111/210/127 109/204/124 114/203/101
f 106/200/123 105/195/119 109/194/124
f 97/218/115 70/219/131 102/187/120
f 91/182/98 71/220/132 97/177/115
f 107/211/125 68/221/133 112/205/129
f 102/217/120 69/222/134 107/196/125
f 112/214/129 67/223/135 88/215/130
f 82/213/110 73/224/136 77/156/105
f 88/216/130 66/225/137 82/167/110
f 77/212/105 72/226/138 91/146/98
f 72/227/138 71/220/132 91/182/98
f 71/228/132 70/219/131 97/218/115
f 70/229/131 69/222/134 102/217/120
f 69/230/134 68/221/133 107/211/125
f 68/231/133 67/223/135 112/214/129
f 67/232/135 66/225/137 88/216/130
f 66/233/137 73/224/136 82/213/110
f 73/234/136 72/226/138 77/212/105
f 15/114/66 118/140/92 121/133/85 14/115/67
f 13/116/68 117/136/88 120/129/81 12/117/69
f 11/118/70 116/132/84 119/122/74 10/119/71
f 9/120/72 115/125/77 122/137/89 16/121/73
f 16/121/73 122/137/89 118/140/92 15/114/66
f 14/115/67 121/133/85 117/136/88 13/116/68
f 12/117/69 120/129/81 116/132/84 11/118/70
f 10/119/71 119/122/74 115/125/77 9/120/72
