# Blender v3.4.1 OBJ File: 'Tiny_Treats_Bakery_Interior_1.1_ASSETS_EXPORT.blend'
# www.blender.org
mtllib dough_roller.mtl
o dough_roller
v 0.321762 -0.030649 -0.043772
v 0.321762 -0.048429 -0.022583
v 0.321762 -0.053232 0.004657
v 0.321762 -0.043772 0.030649
v 0.321762 -0.022583 0.048429
v 0.321762 0.004657 0.053232
v 0.321762 0.030649 0.043771
v 0.321762 0.048429 0.022582
v 0.321762 0.053232 -0.004658
v 0.321762 0.043772 -0.030650
v 0.321762 0.022583 -0.048429
v 0.321762 -0.004657 -0.053232
v 0.500002 0.000000 -0.000001
v 0.476480 -0.054898 -0.025600
v 0.476480 -0.034744 -0.049620
v 0.476480 -0.060343 0.005279
v 0.476480 -0.049619 0.034743
v 0.476480 -0.025600 0.054898
v 0.476480 0.005279 0.060343
v 0.476480 0.034744 0.049619
v 0.476480 0.054898 0.025599
v 0.476480 0.060343 -0.005280
v 0.476480 0.049619 -0.034744
v 0.476480 0.025600 -0.054899
v 0.476480 -0.005279 -0.060344
v 0.387189 -0.060123 -0.028036
v 0.387189 -0.038050 -0.054342
v 0.387189 -0.066086 0.005781
v 0.387189 -0.005782 -0.066087
v 0.387189 -0.054341 0.038050
v 0.387189 -0.028036 0.060123
v 0.387189 0.005782 0.066086
v 0.387189 0.038050 0.054341
v 0.387189 0.060123 0.028035
v 0.387189 0.066086 -0.005782
v 0.387189 0.054341 -0.038051
v 0.387189 0.028036 -0.060124
v 0.428097 -0.039938 -0.057038
v 0.428097 -0.006069 -0.069365
v 0.428097 -0.063106 -0.029427
v 0.428097 -0.069364 0.006068
v 0.428097 -0.057037 0.039937
v 0.428097 -0.029427 0.063105
v 0.428097 0.006069 0.069364
v 0.428097 0.039938 0.057037
v 0.428097 0.063106 0.029426
v 0.428097 0.069365 -0.006069
v 0.428097 0.057037 -0.039938
v 0.428097 0.029427 -0.063106
v 0.500002 -0.023162 -0.033080
v 0.500002 -0.036599 -0.017067
v 0.500002 -0.040229 0.003519
v 0.500002 -0.033079 0.023162
v 0.500002 -0.017066 0.036598
v 0.500002 0.003520 0.040228
v 0.500002 0.023162 0.033079
v 0.500002 0.036599 0.017066
v 0.500002 0.040229 -0.003520
v 0.500002 0.033079 -0.023163
v 0.500002 0.017066 -0.036599
v 0.500002 -0.003520 -0.040229
v 0.321762 -0.101647 -0.047399
v 0.301661 -0.117285 -0.054691
v 0.301661 -0.074226 -0.106006
v 0.321762 -0.064329 -0.091872
v 0.321762 -0.111728 0.009775
v 0.301661 -0.128917 0.011278
v 0.321762 -0.091872 0.064329
v 0.301661 -0.106006 0.074226
v 0.321762 -0.047399 0.101647
v 0.301661 -0.054691 0.117284
v 0.321762 0.009775 0.111728
v 0.301661 0.011279 0.128917
v 0.321762 0.064329 0.091872
v 0.301661 0.074226 0.106006
v 0.321762 0.101647 0.047398
v 0.301661 0.117285 0.054690
v 0.321762 0.111728 -0.009775
v 0.301661 0.128917 -0.011279
v 0.321762 0.091872 -0.064330
v 0.301661 0.106006 -0.074227
v 0.321762 0.047399 -0.101647
v 0.301661 0.054691 -0.117285
v 0.321762 -0.009775 -0.111729
v 0.301661 -0.011279 -0.128917
v -0.321758 -0.030649 -0.043772
v -0.321758 -0.048429 -0.022583
v -0.321758 -0.053232 0.004657
v -0.321758 -0.043772 0.030649
v -0.321758 -0.022583 0.048429
v -0.321758 0.004657 0.053232
v -0.321758 0.030649 0.043771
v -0.321758 0.048429 0.022582
v -0.321758 0.053232 -0.004658
v -0.321758 0.043772 -0.030650
v -0.321758 0.022583 -0.048429
v -0.321758 -0.004657 -0.053232
v -0.499998 0.000000 -0.000001
v -0.476477 -0.054898 -0.025600
v -0.476477 -0.034744 -0.049620
v -0.476477 -0.060343 0.005279
v -0.476477 -0.049619 0.034743
v -0.476477 -0.025600 0.054898
v -0.476477 0.005279 0.060343
v -0.476477 0.034744 0.049619
v -0.476477 0.054898 0.025599
v -0.476477 0.060343 -0.005280
v -0.476477 0.049619 -0.034744
v -0.476476 0.025600 -0.054899
v -0.476476 -0.005279 -0.060344
v -0.387185 -0.060123 -0.028036
v -0.387185 -0.038050 -0.054342
v -0.387185 -0.066086 0.005781
v -0.387185 -0.005782 -0.066087
v -0.387185 -0.054341 0.038050
v -0.387185 -0.028036 0.060123
v -0.387185 0.005782 0.066086
v -0.387185 0.038050 0.054341
v -0.387185 0.060123 0.028035
v -0.387185 0.066086 -0.005782
v -0.387185 0.054341 -0.038051
v -0.387185 0.028036 -0.060124
v -0.428093 -0.039938 -0.057038
v -0.428093 -0.006069 -0.069365
v -0.428093 -0.063106 -0.029427
v -0.428093 -0.069364 0.006068
v -0.428093 -0.057037 0.039937
v -0.428093 -0.029427 0.063105
v -0.428093 0.006069 0.069364
v -0.428093 0.039938 0.057037
v -0.428093 0.063106 0.029426
v -0.428093 0.069365 -0.006069
v -0.428093 0.057037 -0.039938
v -0.428093 0.029427 -0.063106
v -0.499998 -0.023162 -0.033080
v -0.499998 -0.036599 -0.017067
v -0.499998 -0.040229 0.003519
v -0.499998 -0.033079 0.023162
v -0.499998 -0.017066 0.036598
v -0.499998 0.003520 0.040228
v -0.499998 0.023162 0.033079
v -0.499998 0.036599 0.017066
v -0.499998 0.040229 -0.003520
v -0.499998 0.033079 -0.023163
v -0.499998 0.017066 -0.036599
v -0.499998 -0.003520 -0.040229
v -0.321758 -0.101647 -0.047399
v -0.301657 -0.117285 -0.054691
v -0.301657 -0.074226 -0.106006
v -0.321758 -0.064329 -0.091872
v -0.321758 -0.111728 0.009775
v -0.301657 -0.128917 0.011278
v -0.321758 -0.091872 0.064329
v -0.301657 -0.106006 0.074226
v -0.321758 -0.047399 0.101647
v -0.301657 -0.054691 0.117284
v -0.321758 0.009775 0.111728
v -0.301657 0.011279 0.128917
v -0.321758 0.064329 0.091872
v -0.301657 0.074226 0.106006
v -0.321758 0.101647 0.047398
v -0.301657 0.117285 0.054690
v -0.321758 0.111728 -0.009775
v -0.301657 0.128917 -0.011279
v -0.321758 0.091872 -0.064330
v -0.301657 0.106006 -0.074227
v -0.321758 0.047399 -0.101647
v -0.301657 0.054691 -0.117285
v -0.321758 -0.009775 -0.111729
v -0.301657 -0.011279 -0.128917
vt 0.720083 0.854890
vt 0.720083 0.854890
vt 0.720083 0.849962
vt 0.720083 0.849962
vt 0.720083 0.856092
vt 0.720083 0.858173
vt 0.720083 0.856853
vt 0.720083 0.852484
vt 0.720083 0.860577
vt 0.720083 0.861897
vt 0.720083 0.862658
vt 0.720083 0.866266
vt 0.720083 0.863860
vt 0.720083 0.868788
vt 0.720083 0.863860
vt 0.720083 0.868788
vt 0.720083 0.862658
vt 0.720083 0.866266
vt 0.720083 0.860577
vt 0.720083 0.861897
vt 0.720083 0.858173
vt 0.720083 0.856853
vt 0.729184 0.833969
vt 0.729184 0.833969
vt 0.732670 0.833209
vt 0.732670 0.833209
vt 0.720083 0.856092
vt 0.720083 0.852484
vt 0.718634 0.817264
vt 0.656365 0.817264
vt 0.656365 0.820174
vt 0.718634 0.820174
vt 0.718634 0.825215
vt 0.656365 0.825215
vt 0.656365 0.831035
vt 0.718634 0.831035
vt 0.718634 0.817264
vt 0.656365 0.817264
vt 0.718634 0.820174
vt 0.656365 0.820174
vt 0.718634 0.825215
vt 0.656365 0.825215
vt 0.718634 0.831035
vt 0.656365 0.831035
vt 0.718634 0.836076
vt 0.656365 0.836076
vt 0.718634 0.838986
vt 0.656365 0.838986
vt 0.718634 0.838986
vt 0.656365 0.838986
vt 0.718634 0.836076
vt 0.656365 0.836076
vt 0.729184 0.822281
vt 0.729184 0.822281
vt 0.732670 0.823041
vt 0.732670 0.823041
vt 0.729184 0.829691
vt 0.729184 0.826559
vt 0.732670 0.826763
vt 0.732670 0.829487
vt 0.729184 0.832403
vt 0.732670 0.831847
vt 0.729184 0.832403
vt 0.732670 0.831847
vt 0.729184 0.823847
vt 0.732670 0.824403
vt 0.729184 0.823847
vt 0.729184 0.826559
vt 0.732670 0.826763
vt 0.732670 0.824403
vt 0.729184 0.829691
vt 0.732670 0.829487
vt 0.734365 0.824736
vt 0.734365 0.824736
vt 0.734365 0.825644
vt 0.734365 0.827217
vt 0.734365 0.829033
vt 0.734365 0.830606
vt 0.734365 0.831514
vt 0.734365 0.831514
vt 0.734365 0.830606
vt 0.734365 0.829033
vt 0.734365 0.827217
vt 0.734365 0.825644
vt 0.720083 0.823640
vt 0.720083 0.824842
vt 0.726237 0.824049
vt 0.726237 0.822557
vt 0.720083 0.826923
vt 0.720083 0.829327
vt 0.726237 0.829617
vt 0.726237 0.826633
vt 0.720083 0.826923
vt 0.720083 0.824842
vt 0.726237 0.824049
vt 0.726237 0.826633
vt 0.720083 0.832610
vt 0.720083 0.831408
vt 0.726237 0.832201
vt 0.726237 0.833693
vt 0.720083 0.831408
vt 0.726237 0.832201
vt 0.720083 0.823640
vt 0.726237 0.822557
vt 0.720083 0.829327
vt 0.726237 0.829617
vt 0.720083 0.832610
vt 0.726237 0.833693
vt 0.734365 0.828125
vt 0.718634 0.864139
vt 0.718634 0.867049
vt 0.720083 0.868109
vt 0.720083 0.865587
vt 0.718634 0.864139
vt 0.720083 0.865587
vt 0.718634 0.867049
vt 0.720083 0.868109
vt 0.718634 0.872090
vt 0.720083 0.872478
vt 0.718634 0.877910
vt 0.720083 0.877522
vt 0.718634 0.882951
vt 0.720083 0.881891
vt 0.718634 0.885861
vt 0.720083 0.884413
vt 0.718634 0.885861
vt 0.720083 0.884413
vt 0.718634 0.882951
vt 0.720083 0.881891
vt 0.718634 0.877910
vt 0.720083 0.877522
vt 0.718634 0.872090
vt 0.720083 0.872478
vt 0.654916 0.854890
vt 0.654916 0.849962
vt 0.654916 0.849962
vt 0.654916 0.854890
vt 0.654916 0.856092
vt 0.654916 0.852484
vt 0.654916 0.856853
vt 0.654916 0.858173
vt 0.654916 0.861897
vt 0.654916 0.860577
vt 0.654916 0.866266
vt 0.654916 0.862658
vt 0.654916 0.868788
vt 0.654916 0.863860
vt 0.654916 0.868788
vt 0.654916 0.863860
vt 0.654916 0.866266
vt 0.654916 0.862658
vt 0.654916 0.861897
vt 0.654916 0.860577
vt 0.654916 0.856853
vt 0.654916 0.858173
vt 0.645815 0.833969
vt 0.642329 0.833209
vt 0.642329 0.833209
vt 0.645815 0.833969
vt 0.654916 0.852484
vt 0.654916 0.856092
vt 0.645815 0.822281
vt 0.642329 0.823041
vt 0.642329 0.823041
vt 0.645815 0.822281
vt 0.645815 0.829691
vt 0.642329 0.829487
vt 0.642329 0.826763
vt 0.645815 0.826559
vt 0.645815 0.832403
vt 0.642329 0.831847
vt 0.645815 0.832403
vt 0.642329 0.831847
vt 0.645815 0.823847
vt 0.642329 0.824403
vt 0.645815 0.823847
vt 0.642329 0.824403
vt 0.642329 0.826763
vt 0.645815 0.826559
vt 0.645815 0.829691
vt 0.642329 0.829487
vt 0.640635 0.824736
vt 0.640635 0.824736
vt 0.640635 0.825644
vt 0.640635 0.827217
vt 0.640635 0.829033
vt 0.640635 0.830606
vt 0.640635 0.831514
vt 0.640635 0.831514
vt 0.640635 0.830606
vt 0.640635 0.829033
vt 0.640635 0.827217
vt 0.640635 0.825644
vt 0.654916 0.823640
vt 0.648762 0.822557
vt 0.648762 0.824049
vt 0.654916 0.824842
vt 0.654916 0.826923
vt 0.648762 0.826633
vt 0.648762 0.829617
vt 0.654916 0.829327
vt 0.654916 0.826923
vt 0.648762 0.826633
vt 0.648762 0.824049
vt 0.654916 0.824842
vt 0.654916 0.832610
vt 0.648762 0.833693
vt 0.648762 0.832201
vt 0.654916 0.831408
vt 0.648762 0.832201
vt 0.654916 0.831408
vt 0.648762 0.822557
vt 0.654916 0.823640
vt 0.648762 0.829617
vt 0.654916 0.829327
vt 0.648762 0.833693
vt 0.654916 0.832610
vt 0.640635 0.828125
vt 0.656365 0.864139
vt 0.654916 0.865587
vt 0.654916 0.868109
vt 0.656365 0.867049
vt 0.656365 0.864139
vt 0.654916 0.865587
vt 0.656365 0.867049
vt 0.654916 0.868109
vt 0.656365 0.872090
vt 0.654916 0.872478
vt 0.656365 0.877910
vt 0.654916 0.877522
vt 0.656365 0.882951
vt 0.654916 0.881891
vt 0.656365 0.885861
vt 0.654916 0.884413
vt 0.656365 0.885861
vt 0.654916 0.884413
vt 0.656365 0.882951
vt 0.654916 0.881891
vt 0.656365 0.877910
vt 0.654916 0.877522
vt 0.656365 0.872090
vt 0.654916 0.872478
vn 1.0000 0.0000 -0.0000
vn 0.0512 0.9949 -0.0870
vn 0.0512 0.9051 0.4221
vn 0.4166 0.8239 0.3842
vn 0.4166 0.9056 -0.0792
vn 0.3299 -0.8556 -0.3990
vn -0.3299 -0.8556 -0.3990
vn -0.3299 -0.5415 -0.7733
vn 0.3299 -0.5415 -0.7733
vn 0.3299 -0.0823 -0.9404
vn -0.3299 -0.0823 -0.9404
vn -0.3299 0.3990 -0.8556
vn 0.3299 0.3990 -0.8556
vn 0.3299 -0.9404 0.0823
vn -0.3299 -0.9404 0.0823
vn 0.3299 -0.7733 0.5415
vn -0.3299 -0.7733 0.5415
vn 0.3299 -0.3990 0.8556
vn -0.3299 -0.3990 0.8556
vn 0.3299 0.0823 0.9404
vn -0.3299 0.0823 0.9404
vn 0.3299 0.5415 0.7733
vn -0.3299 0.5415 0.7733
vn 0.3299 0.8556 0.3990
vn -0.3299 0.8556 0.3990
vn 0.3299 0.9404 -0.0823
vn -0.3299 0.9404 -0.0823
vn 0.3299 0.7733 -0.5415
vn -0.3299 0.7733 -0.5415
vn 0.0512 -0.9949 0.0870
vn 0.0512 -0.9051 -0.4221
vn 0.4166 -0.8239 -0.3842
vn 0.4166 -0.9056 0.0792
vn 0.0512 0.0870 0.9949
vn 0.0512 -0.4221 0.9051
vn 0.4166 -0.3842 0.8239
vn 0.4166 0.0792 0.9056
vn 0.0512 0.8181 -0.5728
vn 0.4166 0.7447 -0.5214
vn 0.0512 0.5728 0.8181
vn 0.4166 0.5214 0.7447
vn 0.0512 -0.8181 0.5728
vn 0.4166 -0.7447 0.5214
vn 0.0512 -0.5728 -0.8181
vn 0.0512 -0.0870 -0.9949
vn 0.4166 -0.0792 -0.9056
vn 0.4166 -0.5214 -0.7447
vn 0.0512 0.4221 -0.9051
vn 0.4166 0.3842 -0.8239
vn 0.6513 -0.6877 -0.3207
vn 0.6513 -0.7559 0.0661
vn 0.6513 -0.6216 0.4352
vn 0.6513 -0.3207 0.6877
vn 0.6513 0.0661 0.7559
vn 0.6513 0.4352 0.6216
vn 0.6513 0.6877 0.3207
vn 0.6513 0.7559 -0.0661
vn 0.6513 0.6216 -0.4352
vn 0.6513 0.3207 -0.6877
vn 0.6513 -0.0661 -0.7559
vn 0.6513 -0.4352 -0.6216
vn -0.1935 -0.8892 -0.4146
vn -0.1935 -0.5627 -0.8037
vn -0.1358 -0.5683 -0.8116
vn -0.1358 -0.8979 -0.4187
vn -0.1935 -0.0855 -0.9774
vn -0.1935 0.4146 -0.8892
vn -0.1358 0.4187 -0.8979
vn -0.1358 -0.0863 -0.9870
vn -0.1935 -0.4146 0.8892
vn -0.1935 -0.8037 0.5627
vn -0.1358 -0.8116 0.5683
vn -0.1358 -0.4187 0.8979
vn -0.1935 0.8892 0.4146
vn -0.1935 0.5627 0.8037
vn -0.1358 0.5683 0.8116
vn -0.1358 0.8979 0.4187
vn -0.1935 0.8037 -0.5627
vn -0.1358 0.8116 -0.5683
vn -0.1935 -0.9774 0.0855
vn -0.1358 -0.9870 0.0863
vn -0.1935 0.0855 0.9774
vn -0.1358 0.0863 0.9870
vn -0.1935 0.9774 -0.0855
vn -0.1358 0.9870 -0.0863
vn -1.0000 0.0000 -0.0000
vn -0.0512 0.9949 -0.0870
vn -0.4166 0.9056 -0.0792
vn -0.4166 0.8239 0.3842
vn -0.0512 0.9051 0.4221
vn -0.0512 -0.9949 0.0870
vn -0.4166 -0.9056 0.0792
vn -0.4166 -0.8239 -0.3842
vn -0.0512 -0.9051 -0.4221
vn -0.0512 0.0870 0.9949
vn -0.4166 0.0792 0.9056
vn -0.4166 -0.3842 0.8239
vn -0.0512 -0.4221 0.9051
vn -0.0512 0.8181 -0.5728
vn -0.4166 0.7447 -0.5214
vn -0.0512 0.5728 0.8181
vn -0.4166 0.5214 0.7447
vn -0.0512 -0.8181 0.5728
vn -0.4166 -0.7447 0.5214
vn -0.0512 -0.5728 -0.8181
vn -0.4166 -0.5214 -0.7447
vn -0.4166 -0.0792 -0.9056
vn -0.0512 -0.0870 -0.9949
vn -0.0512 0.4221 -0.9051
vn -0.4166 0.3842 -0.8239
vn -0.6513 -0.7559 0.0661
vn -0.6514 -0.6877 -0.3207
vn -0.6513 -0.6216 0.4352
vn -0.6513 -0.3207 0.6877
vn -0.6514 0.0661 0.7559
vn -0.6513 0.4352 0.6216
vn -0.6513 0.6877 0.3207
vn -0.6513 0.7559 -0.0661
vn -0.6513 0.6216 -0.4352
vn -0.6513 0.3207 -0.6877
vn -0.6513 -0.0661 -0.7559
vn -0.6514 -0.4352 -0.6216
vn 0.1935 -0.8892 -0.4146
vn 0.1358 -0.8979 -0.4187
vn 0.1358 -0.5683 -0.8116
vn 0.1935 -0.5627 -0.8037
vn 0.1935 -0.0855 -0.9774
vn 0.1358 -0.0863 -0.9870
vn 0.1358 0.4187 -0.8979
vn 0.1935 0.4146 -0.8892
vn 0.1935 -0.4146 0.8892
vn 0.1358 -0.4187 0.8979
vn 0.1358 -0.8116 0.5683
vn 0.1935 -0.8037 0.5627
vn 0.1935 0.8892 0.4146
vn 0.1358 0.8979 0.4187
vn 0.1358 0.5683 0.8116
vn 0.1935 0.5627 0.8037
vn 0.1358 0.8116 -0.5683
vn 0.1935 0.8037 -0.5627
vn 0.1358 -0.9870 0.0863
vn 0.1935 -0.9774 0.0855
vn 0.1358 0.0863 0.9870
vn 0.1935 0.0855 0.9774
vn 0.1358 0.9870 -0.0863
vn 0.1935 0.9774 -0.0855
vn -0.6513 -0.6877 -0.3207
vn -0.6513 -0.4352 -0.6216
vn -0.6513 0.0661 0.7559
usemtl tiny_treats_1
s 1
f 2/1/1 3/2/1 66/3/1 62/4/1
f 4/5/1 5/6/1 70/7/1 68/8/1
f 5/6/1 6/9/1 72/10/1 70/7/1
f 6/9/1 7/11/1 74/12/1 72/10/1
f 7/11/1 8/13/1 76/14/1 74/12/1
f 8/13/1 9/15/1 78/16/1 76/14/1
f 9/15/1 10/17/1 80/18/1 78/16/1
f 10/17/1 11/19/1 82/20/1 80/18/1
f 11/19/1 12/21/1 84/22/1 82/20/1
f 47/23/2 46/24/3 21/25/4 22/26/5
f 12/21/1 1/27/1 65/28/1 84/22/1
f 63/29/6 148/30/7 149/31/8 64/32/9
f 85/33/10 170/34/11 168/35/12 83/36/13
f 67/37/14 152/38/15 148/30/7 63/29/6
f 69/39/16 154/40/17 152/38/15 67/37/14
f 71/41/18 156/42/19 154/40/17 69/39/16
f 73/43/20 158/44/21 156/42/19 71/41/18
f 75/45/22 160/46/23 158/44/21 73/43/20
f 77/47/24 162/48/25 160/46/23 75/45/22
f 79/49/26 164/50/27 162/48/25 77/47/24
f 81/51/28 166/52/29 164/50/27 79/49/26
f 83/36/13 168/35/12 166/52/29 81/51/28
f 3/2/1 4/5/1 68/8/1 66/3/1
f 41/53/30 40/54/31 14/55/32 16/56/33
f 44/57/34 43/58/35 18/59/36 19/60/37
f 48/61/38 47/23/2 22/26/5 23/62/39
f 45/63/40 44/57/34 19/60/37 20/64/41
f 42/65/42 41/53/30 16/56/33 17/66/43
f 38/67/44 39/68/45 25/69/46 15/70/47
f 49/71/48 48/61/38 23/62/39 24/72/49
f 46/24/3 45/63/40 20/64/41 21/25/4
f 43/58/35 42/65/42 17/66/43 18/59/36
f 39/68/45 49/71/48 24/72/49 25/69/46
f 14/55/32 51/73/50 52/74/51 16/56/33
f 16/56/33 52/74/51 53/75/52 17/66/43
f 17/66/43 53/75/52 54/76/53 18/59/36
f 18/59/36 54/76/53 55/77/54 19/60/37
f 19/60/37 55/77/54 56/78/55 20/64/41
f 20/64/41 56/78/55 57/79/56 21/25/4
f 21/25/4 57/79/56 58/80/57 22/26/5
f 22/26/5 58/80/57 59/81/58 23/62/39
f 23/62/39 59/81/58 60/82/59 24/72/49
f 24/72/49 60/82/59 61/83/60 25/69/46
f 25/69/46 61/83/60 50/84/61 15/70/47
f 40/54/31 38/67/44 15/70/47 14/55/32
f 2/85/62 1/86/63 27/87/64 26/88/65
f 12/89/66 11/90/67 37/91/68 29/92/69
f 5/93/70 4/94/71 30/95/72 31/96/73
f 8/97/74 7/98/75 33/99/76 34/100/77
f 11/90/67 10/101/78 36/102/79 37/91/68
f 1/86/63 12/89/66 29/92/69 27/87/64
f 4/94/71 3/103/80 28/104/81 30/95/72
f 7/98/75 6/105/82 32/106/83 33/99/76
f 10/101/78 9/107/84 35/108/85 36/102/79
f 6/105/82 5/93/70 31/96/73 32/106/83
f 3/103/80 2/85/62 26/88/65 28/104/81
f 9/107/84 8/97/74 34/100/77 35/108/85
f 26/88/65 27/87/64 38/67/44 40/54/31
f 29/92/69 37/91/68 49/71/48 39/68/45
f 31/96/73 30/95/72 42/65/42 43/58/35
f 34/100/77 33/99/76 45/63/40 46/24/3
f 37/91/68 36/102/79 48/61/38 49/71/48
f 27/87/64 29/92/69 39/68/45 38/67/44
f 30/95/72 28/104/81 41/53/30 42/65/42
f 33/99/76 32/106/83 44/57/34 45/63/40
f 36/102/79 35/108/85 47/23/2 48/61/38
f 32/106/83 31/96/73 43/58/35 44/57/34
f 28/104/81 26/88/65 40/54/31 41/53/30
f 35/108/85 34/100/77 46/24/3 47/23/2
f 15/70/47 50/84/61 51/73/50 14/55/32
f 13/109/1 51/73/1 50/84/1
f 13/109/1 52/74/1 51/73/1
f 13/109/1 53/75/1 52/74/1
f 13/109/1 54/76/1 53/75/1
f 13/109/1 55/77/1 54/76/1
f 13/109/1 56/78/1 55/77/1
f 13/109/1 57/79/1 56/78/1
f 13/109/1 58/80/1 57/79/1
f 13/109/1 59/81/1 58/80/1
f 13/109/1 60/82/1 59/81/1
f 13/109/1 61/83/1 60/82/1
f 13/109/1 50/84/1 61/83/1
f 63/110/6 64/111/9 65/112/61 62/113/50
f 67/114/14 63/110/6 62/113/50 66/115/51
f 69/116/16 67/114/14 66/115/51 68/117/52
f 71/118/18 69/116/16 68/117/52 70/119/53
f 73/120/20 71/118/18 70/119/53 72/121/54
f 75/122/22 73/120/20 72/121/54 74/123/55
f 77/124/24 75/122/22 74/123/55 76/125/56
f 79/126/26 77/124/24 76/125/56 78/127/57
f 81/128/28 79/126/26 78/127/57 80/129/58
f 83/130/13 81/128/28 80/129/58 82/131/59
f 85/132/10 83/130/13 82/131/59 84/133/60
f 64/111/9 85/132/10 84/133/60 65/112/61
f 1/27/1 2/1/1 62/4/1 65/28/1
f 87/134/86 147/135/86 151/136/86 88/137/86
f 89/138/86 153/139/86 155/140/86 90/141/86
f 90/141/86 155/140/86 157/142/86 91/143/86
f 91/143/86 157/142/86 159/144/86 92/145/86
f 92/145/86 159/144/86 161/146/86 93/147/86
f 93/147/86 161/146/86 163/148/86 94/149/86
f 94/149/86 163/148/86 165/150/86 95/151/86
f 95/151/86 165/150/86 167/152/86 96/153/86
f 96/153/86 167/152/86 169/154/86 97/155/86
f 132/156/87 107/157/88 106/158/89 131/159/90
f 97/155/86 169/154/86 150/160/86 86/161/86
f 88/137/86 151/136/86 153/139/86 89/138/86
f 126/162/91 101/163/92 99/164/93 125/165/94
f 129/166/95 104/167/96 103/168/97 128/169/98
f 133/170/99 108/171/100 107/157/88 132/156/87
f 130/172/101 105/173/102 104/167/96 129/166/95
f 127/174/103 102/175/104 101/163/92 126/162/91
f 123/176/105 100/177/106 110/178/107 124/179/108
f 134/180/109 109/181/110 108/171/100 133/170/99
f 131/159/90 106/158/89 105/173/102 130/172/101
f 128/169/98 103/168/97 102/175/104 127/174/103
f 124/179/108 110/178/107 109/181/110 134/180/109
f 99/164/93 101/163/92 137/182/111 136/183/112
f 101/163/92 102/175/104 138/184/113 137/182/111
f 102/175/104 103/168/97 139/185/114 138/184/113
f 103/168/97 104/167/96 140/186/115 139/185/114
f 104/167/96 105/173/102 141/187/116 140/186/115
f 105/173/102 106/158/89 142/188/117 141/187/116
f 106/158/89 107/157/88 143/189/118 142/188/117
f 107/157/88 108/171/100 144/190/119 143/189/118
f 108/171/100 109/181/110 145/191/120 144/190/119
f 109/181/110 110/178/107 146/192/121 145/191/120
f 110/178/107 100/177/106 135/193/122 146/192/121
f 125/165/94 99/164/93 100/177/106 123/176/105
f 87/194/123 111/195/124 112/196/125 86/197/126
f 97/198/127 114/199/128 122/200/129 96/201/130
f 90/202/131 116/203/132 115/204/133 89/205/134
f 93/206/135 119/207/136 118/208/137 92/209/138
f 96/201/130 122/200/129 121/210/139 95/211/140
f 86/197/126 112/196/125 114/199/128 97/198/127
f 89/205/134 115/204/133 113/212/141 88/213/142
f 92/209/138 118/208/137 117/214/143 91/215/144
f 95/211/140 121/210/139 120/216/145 94/217/146
f 91/215/144 117/214/143 116/203/132 90/202/131
f 88/213/142 113/212/141 111/195/124 87/194/123
f 94/217/146 120/216/145 119/207/136 93/206/135
f 111/195/124 125/165/94 123/176/105 112/196/125
f 114/199/128 124/179/108 134/180/109 122/200/129
f 116/203/132 128/169/98 127/174/103 115/204/133
f 119/207/136 131/159/90 130/172/101 118/208/137
f 122/200/129 134/180/109 133/170/99 121/210/139
f 112/196/125 123/176/105 124/179/108 114/199/128
f 115/204/133 127/174/103 126/162/91 113/212/141
f 118/208/137 130/172/101 129/166/95 117/214/143
f 121/210/139 133/170/99 132/156/87 120/216/145
f 117/214/143 129/166/95 128/169/98 116/203/132
f 113/212/141 126/162/91 125/165/94 111/195/124
f 120/216/145 132/156/87 131/159/90 119/207/136
f 100/177/106 99/164/93 136/183/112 135/193/122
f 98/218/86 135/193/86 136/183/86
f 98/218/86 136/183/86 137/182/86
f 98/218/86 137/182/86 138/184/86
f 98/218/86 138/184/86 139/185/86
f 98/218/86 139/185/86 140/186/86
f 98/218/86 140/186/86 141/187/86
f 98/218/86 141/187/86 142/188/86
f 98/218/86 142/188/86 143/189/86
f 98/218/86 143/189/86 144/190/86
f 98/218/86 144/190/86 145/191/86
f 98/218/86 145/191/86 146/192/86
f 98/218/86 146/192/86 135/193/86
f 148/219/7 147/220/147 150/221/148 149/222/8
f 152/223/15 151/224/111 147/220/147 148/219/7
f 154/225/17 153/226/113 151/224/111 152/223/15
f 156/227/19 155/228/114 153/226/113 154/225/17
f 158/229/21 157/230/149 155/228/114 156/227/19
f 160/231/23 159/232/116 157/230/149 158/229/21
f 162/233/25 161/234/117 159/232/116 160/231/23
f 164/235/27 163/236/118 161/234/117 162/233/25
f 166/237/29 165/238/119 163/236/118 164/235/27
f 168/239/12 167/240/120 165/238/119 166/237/29
f 170/241/11 169/242/121 167/240/120 168/239/12
f 149/222/8 150/221/148 169/242/121 170/241/11
f 86/161/86 150/160/86 147/135/86 87/134/86
f 64/32/9 149/31/8 170/34/11 85/33/10
