# Blender v3.4.1 OBJ File: 'Tiny_Treats_Bakery_Interior_1.1_ASSETS_EXPORT.blend'
# www.blender.org
mtllib egg_A.mtl
o egg_A
v 0.000000 -0.000000 0.000001
v 0.089603 0.144864 -0.089602
v 0.059613 0.031457 -0.059613
v 0.082659 0.079141 -0.082659
v 0.122400 0.144864 -0.032796
v 0.081433 0.031457 -0.021819
v 0.112915 0.079141 -0.030255
v 0.122400 0.144864 0.032797
v 0.081433 0.031457 0.021821
v 0.112915 0.079141 0.030256
v 0.089603 0.144864 0.089603
v 0.059613 0.031457 0.059614
v 0.082659 0.079141 0.082660
v 0.032797 0.144864 0.122400
v 0.021820 0.031457 0.081434
v 0.030256 0.079141 0.112915
v -0.032797 0.144864 0.122400
v -0.021820 0.031457 0.081434
v -0.030255 0.079141 0.112915
v -0.089603 0.144864 0.089603
v -0.059613 0.031457 0.059614
v -0.082659 0.079141 0.082660
v -0.122400 0.144864 0.032797
v -0.081433 0.031457 0.021821
v -0.112915 0.079141 0.030256
v -0.122400 0.144864 -0.032796
v -0.081433 0.031457 -0.021819
v -0.112915 0.079141 -0.030255
v -0.089603 0.144864 -0.089602
v -0.059613 0.031457 -0.059613
v -0.082659 0.079141 -0.082659
v -0.032797 0.144864 -0.122399
v -0.021820 0.031457 -0.081433
v -0.030255 0.079141 -0.112914
v 0.032797 0.144864 -0.122399
v 0.021820 0.031457 -0.081433
v 0.030255 0.079141 -0.112914
v 0.000000 0.307657 0.000001
v 0.078949 0.209823 -0.078949
v 0.055821 0.263246 -0.055820
v 0.076253 0.263246 -0.020431
v 0.107847 0.209823 -0.028897
v 0.076253 0.263246 0.020432
v 0.107847 0.209823 0.028898
v 0.055821 0.263246 0.055821
v 0.078949 0.209823 0.078950
v 0.020432 0.263246 0.076253
v 0.028898 0.209823 0.107847
v -0.020432 0.263246 0.076253
v -0.028897 0.209823 0.107847
v -0.055821 0.263246 0.055821
v -0.078949 0.209823 0.078950
v -0.076253 0.263246 0.020432
v -0.107847 0.209823 0.028898
v -0.076253 0.263246 -0.020431
v -0.107847 0.209823 -0.028897
v -0.055821 0.263246 -0.055820
v -0.078949 0.209823 -0.078949
v -0.020432 0.263246 -0.076252
v -0.028897 0.209823 -0.107846
v 0.020432 0.263246 -0.076252
v 0.028897 0.209823 -0.107846
v 0.028913 0.299237 -0.028912
v 0.039496 0.299237 -0.010582
v 0.039496 0.299237 0.010584
v 0.028913 0.299237 0.028914
v 0.010583 0.299237 0.039497
v -0.010583 0.299237 0.039497
v -0.028913 0.299237 0.028914
v -0.039496 0.299237 0.010584
v -0.039496 0.299237 -0.010582
v -0.028913 0.299237 -0.028912
v -0.010583 0.299237 -0.039495
v 0.010583 0.299237 -0.039495
v 0.040908 0.005764 -0.010961
v 0.029947 0.005764 -0.029946
v 0.040908 0.005764 0.010962
v 0.029947 0.005764 0.029947
v 0.010961 0.005764 0.040909
v -0.010961 0.005764 0.040909
v -0.029947 0.005764 0.029947
v -0.040908 0.005764 0.010962
v -0.040908 0.005764 -0.010961
v -0.029947 0.005764 -0.029946
v -0.010961 0.005764 -0.040907
v 0.010961 0.005764 -0.040907
vt 0.594113 0.903664
vt 0.585642 0.903664
vt 0.588765 0.884623
vt 0.598379 0.884623
vt 0.570971 0.903664
vt 0.554029 0.903664
vt 0.552886 0.884623
vt 0.572114 0.884623
vt 0.539358 0.903664
vt 0.536235 0.884623
vt 0.530887 0.903664
vt 0.526621 0.884623
vt 0.530887 0.903664
vt 0.526621 0.884623
vt 0.539358 0.903664
vt 0.536235 0.884623
vt 0.554029 0.903664
vt 0.552886 0.884623
vt 0.570971 0.903664
vt 0.572114 0.884623
vt 0.585642 0.903664
vt 0.588765 0.884623
vt 0.598379 0.884623
vt 0.595599 0.865358
vt 0.586730 0.865358
vt 0.586370 0.820130
vt 0.579974 0.820130
vt 0.574491 0.812599
vt 0.571278 0.812599
vt 0.595599 0.865358
vt 0.586370 0.820130
vt 0.574491 0.812599
vt 0.586730 0.865358
vt 0.579974 0.820130
vt 0.571278 0.812599
vt 0.571369 0.865358
vt 0.568896 0.820130
vt 0.565713 0.812599
vt 0.553631 0.865358
vt 0.556104 0.820130
vt 0.559287 0.812599
vt 0.538270 0.865358
vt 0.545026 0.820130
vt 0.553722 0.812599
vt 0.529401 0.865358
vt 0.538629 0.820130
vt 0.550509 0.812599
vt 0.529401 0.865358
vt 0.538629 0.820130
vt 0.550509 0.812599
vt 0.538270 0.865358
vt 0.545026 0.820130
vt 0.553722 0.812599
vt 0.553631 0.865358
vt 0.556104 0.820130
vt 0.559287 0.812599
vt 0.571369 0.865358
vt 0.568896 0.820130
vt 0.565713 0.812599
vt 0.594113 0.903664
vt 0.578863 0.919324
vt 0.584852 0.919324
vt 0.570975 0.961124
vt 0.574077 0.961124
vt 0.584852 0.919324
vt 0.574077 0.961124
vt 0.578863 0.919324
vt 0.570975 0.961124
vt 0.568489 0.919324
vt 0.565602 0.961124
vt 0.556511 0.919324
vt 0.559398 0.961124
vt 0.546137 0.919324
vt 0.554025 0.961124
vt 0.540148 0.919324
vt 0.550923 0.961124
vt 0.540148 0.919324
vt 0.550923 0.961124
vt 0.546137 0.919324
vt 0.554025 0.961124
vt 0.556511 0.919324
vt 0.559398 0.961124
vt 0.568489 0.919324
vt 0.565602 0.961124
vt 0.562500 0.963592
vt 0.562500 0.810909
vn 0.8974 0.3700 0.2405
vn 0.6569 0.3700 0.6569
vn 0.7066 0.0386 0.7066
vn 0.9652 0.0386 0.2586
vn 0.2405 0.3700 0.8974
vn -0.2405 0.3700 0.8974
vn -0.2586 0.0386 0.9652
vn 0.2586 0.0386 0.9652
vn -0.6569 0.3700 0.6569
vn -0.7066 0.0386 0.7066
vn -0.8974 0.3700 0.2405
vn -0.9652 0.0386 0.2586
vn -0.8974 0.3700 -0.2405
vn -0.9652 0.0386 -0.2586
vn -0.6569 0.3700 -0.6569
vn -0.7066 0.0386 -0.7066
vn -0.2405 0.3700 -0.8974
vn -0.2586 0.0386 -0.9652
vn 0.2405 0.3700 -0.8974
vn 0.2586 0.0386 -0.9652
vn 0.6569 0.3700 -0.6569
vn 0.7066 0.0386 -0.7066
vn 0.9652 0.0386 -0.2586
vn 0.9036 -0.3533 -0.2421
vn 0.6615 -0.3533 -0.6615
vn 0.6825 -0.7077 -0.1829
vn 0.4996 -0.7077 -0.4996
vn 0.3529 -0.9309 -0.0946
vn 0.2584 -0.9309 -0.2584
vn 0.9036 -0.3533 0.2421
vn 0.6825 -0.7077 0.1829
vn 0.3529 -0.9309 0.0946
vn 0.6615 -0.3533 0.6615
vn 0.4996 -0.7077 0.4996
vn 0.2584 -0.9309 0.2584
vn 0.2421 -0.3533 0.9036
vn 0.1829 -0.7077 0.6825
vn 0.0946 -0.9309 0.3529
vn -0.2421 -0.3533 0.9036
vn -0.1829 -0.7077 0.6825
vn -0.0946 -0.9309 0.3529
vn -0.6615 -0.3533 0.6615
vn -0.4996 -0.7077 0.4996
vn -0.2584 -0.9309 0.2584
vn -0.9036 -0.3533 0.2421
vn -0.6825 -0.7077 0.1829
vn -0.3529 -0.9309 0.0946
vn -0.9036 -0.3533 -0.2421
vn -0.6825 -0.7077 -0.1829
vn -0.3529 -0.9309 -0.0946
vn -0.6615 -0.3533 -0.6615
vn -0.4996 -0.7077 -0.4996
vn -0.2584 -0.9309 -0.2584
vn -0.2421 -0.3533 -0.9036
vn -0.1829 -0.7077 -0.6825
vn -0.0946 -0.9309 -0.3529
vn 0.2421 -0.3533 -0.9036
vn 0.1829 -0.7077 -0.6825
vn 0.0946 -0.9309 -0.3529
vn 0.8974 0.3700 -0.2405
vn 0.5551 0.6194 -0.5551
vn 0.7583 0.6194 -0.2032
vn 0.3510 0.8681 -0.3510
vn 0.4794 0.8681 -0.1285
vn 0.7583 0.6194 0.2032
vn 0.4794 0.8681 0.1285
vn 0.5551 0.6194 0.5551
vn 0.3510 0.8681 0.3510
vn 0.2032 0.6194 0.7583
vn 0.1285 0.8681 0.4794
vn -0.2032 0.6194 0.7583
vn -0.1285 0.8681 0.4795
vn -0.5551 0.6194 0.5551
vn -0.3510 0.8681 0.3510
vn -0.7583 0.6194 0.2032
vn -0.4794 0.8681 0.1285
vn -0.7583 0.6194 -0.2032
vn -0.4794 0.8681 -0.1285
vn -0.5551 0.6194 -0.5551
vn -0.3510 0.8681 -0.3510
vn -0.2032 0.6194 -0.7583
vn -0.1285 0.8681 -0.4794
vn 0.2032 0.6194 -0.7583
vn 0.1285 0.8681 -0.4794
vn -0.0000 1.0000 0.0000
vn -0.0000 -1.0000 -0.0000
usemtl tiny_treats_1
s 1
f 44/1/1 46/2/2 11/3/3 8/4/4
f 48/5/5 50/6/6 17/7/7 14/8/8
f 50/6/6 52/9/9 20/10/10 17/7/7
f 52/9/9 54/11/11 23/12/12 20/10/10
f 54/11/11 56/13/13 26/14/14 23/12/12
f 56/13/13 58/15/15 29/16/16 26/14/14
f 58/15/15 60/17/17 32/18/18 29/16/16
f 60/17/17 62/19/19 35/20/20 32/18/18
f 62/19/19 39/21/21 2/22/22 35/20/20
f 46/2/2 48/5/5 14/8/8 11/3/3
f 2/22/22 5/23/23 7/24/24 4/25/25
f 4/25/25 7/24/24 6/26/26 3/27/27
f 3/27/27 6/26/26 75/28/28 76/29/29
f 5/23/23 8/4/4 10/30/30 7/24/24
f 7/24/24 10/30/30 9/31/31 6/26/26
f 6/26/26 9/31/31 77/32/32 75/28/28
f 8/4/4 11/3/3 13/33/33 10/30/30
f 10/30/30 13/33/33 12/34/34 9/31/31
f 9/31/31 12/34/34 78/35/35 77/32/32
f 11/3/3 14/8/8 16/36/36 13/33/33
f 13/33/33 16/36/36 15/37/37 12/34/34
f 12/34/34 15/37/37 79/38/38 78/35/35
f 14/8/8 17/7/7 19/39/39 16/36/36
f 16/36/36 19/39/39 18/40/40 15/37/37
f 15/37/37 18/40/40 80/41/41 79/38/38
f 17/7/7 20/10/10 22/42/42 19/39/39
f 19/39/39 22/42/42 21/43/43 18/40/40
f 18/40/40 21/43/43 81/44/44 80/41/41
f 20/10/10 23/12/12 25/45/45 22/42/42
f 22/42/42 25/45/45 24/46/46 21/43/43
f 21/43/43 24/46/46 82/47/47 81/44/44
f 23/12/12 26/14/14 28/48/48 25/45/45
f 25/45/45 28/48/48 27/49/49 24/46/46
f 24/46/46 27/49/49 83/50/50 82/47/47
f 26/14/14 29/16/16 31/51/51 28/48/48
f 28/48/48 31/51/51 30/52/52 27/49/49
f 27/49/49 30/52/52 84/53/53 83/50/50
f 29/16/16 32/18/18 34/54/54 31/51/51
f 31/51/51 34/54/54 33/55/55 30/52/52
f 30/52/52 33/55/55 85/56/56 84/53/53
f 32/18/18 35/20/20 37/57/57 34/54/54
f 34/54/54 37/57/57 36/58/58 33/55/55
f 33/55/55 36/58/58 86/59/59 85/56/56
f 35/20/20 2/22/22 4/25/25 37/57/57
f 37/57/57 4/25/25 3/27/27 36/58/58
f 36/58/58 3/27/27 76/29/29 86/59/59
f 42/60/60 44/1/1 8/4/4 5/23/23
f 42/60/60 39/21/21 40/61/61 41/62/62
f 41/62/62 40/61/61 63/63/63 64/64/64
f 44/1/1 42/60/60 41/62/62 43/65/65
f 43/65/65 41/62/62 64/64/64 65/66/66
f 46/2/2 44/1/1 43/65/65 45/67/67
f 45/67/67 43/65/65 65/66/66 66/68/68
f 48/5/5 46/2/2 45/67/67 47/69/69
f 47/69/69 45/67/67 66/68/68 67/70/70
f 50/6/6 48/5/5 47/69/69 49/71/71
f 49/71/71 47/69/69 67/70/70 68/72/72
f 52/9/9 50/6/6 49/71/71 51/73/73
f 51/73/73 49/71/71 68/72/72 69/74/74
f 54/11/11 52/9/9 51/73/73 53/75/75
f 53/75/75 51/73/73 69/74/74 70/76/76
f 56/13/13 54/11/11 53/75/75 55/77/77
f 55/77/77 53/75/75 70/76/76 71/78/78
f 58/15/15 56/13/13 55/77/77 57/79/79
f 57/79/79 55/77/77 71/78/78 72/80/80
f 60/17/17 58/15/15 57/79/79 59/81/81
f 59/81/81 57/79/79 72/80/80 73/82/82
f 62/19/19 60/17/17 59/81/81 61/83/83
f 61/83/83 59/81/81 73/82/82 74/84/84
f 39/21/21 62/19/19 61/83/83 40/61/61
f 40/61/61 61/83/83 74/84/84 63/63/63
f 38/85/85 64/64/64 63/63/63
f 38/85/85 65/66/66 64/64/64
f 38/85/85 66/68/68 65/66/66
f 38/85/85 67/70/70 66/68/68
f 38/85/85 68/72/72 67/70/70
f 38/85/85 69/74/74 68/72/72
f 38/85/85 70/76/76 69/74/74
f 38/85/85 71/78/78 70/76/76
f 38/85/85 72/80/80 71/78/78
f 38/85/85 73/82/82 72/80/80
f 38/85/85 74/84/84 73/82/82
f 38/85/85 63/63/63 74/84/84
f 1/86/86 76/29/29 75/28/28
f 1/86/86 75/28/28 77/32/32
f 1/86/86 77/32/32 78/35/35
f 1/86/86 78/35/35 79/38/38
f 1/86/86 79/38/38 80/41/41
f 1/86/86 80/41/41 81/44/44
f 1/86/86 81/44/44 82/47/47
f 1/86/86 82/47/47 83/50/50
f 1/86/86 83/50/50 84/53/53
f 1/86/86 84/53/53 85/56/56
f 1/86/86 85/56/56 86/59/59
f 1/86/86 86/59/59 76/29/29
f 2/22/22 39/21/21 42/60/60 5/23/23
