# Blender v3.4.1 OBJ File: 'Tiny_Treats_Bakery_Interior_1.1_ASSETS_EXPORT.blend'
# www.blender.org
mtllib floor_connection.mtl
o floor_connection
v -1.000000 -0.500000 1.000000
v -1.000000 -0.050000 1.000000
v -1.000000 -0.500000 -1.000000
v -1.000000 -0.050000 -1.000000
v 1.000000 -0.500000 1.000000
v 1.000000 -0.050000 1.000000
v 1.000000 -0.500000 -1.000000
v 1.000000 -0.050000 -1.000000
v -0.333333 -0.050000 -0.000000
v 0.383334 0.000000 0.000000
v 1.000000 -0.050000 -0.000000
v 0.950000 0.000000 0.000000
v -0.283333 0.000000 0.000000
v 0.333333 -0.050000 -0.000000
v 0.283334 0.000000 0.000000
v -1.000000 -0.050000 -0.000000
v -0.950000 0.000000 0.000000
v -0.383333 0.000000 0.000000
v -0.333333 -0.050000 -0.283333
v -0.383333 0.000000 -0.283333
v -1.000000 -0.050000 -0.283333
v -0.950000 0.000000 -0.283333
v -0.950000 -0.050000 -0.333333
v 0.333333 -0.050000 -0.283333
v 0.283334 -0.050000 -0.333333
v 0.283334 0.000000 -0.283333
v -0.283333 0.000000 -0.283333
v 1.000000 -0.050000 -0.283333
v 0.950000 0.000000 -0.283333
v 0.383334 0.000000 -0.283333
v 0.383334 -0.050000 -0.333333
v -0.383333 -0.050000 -0.333333
v -0.383333 0.000000 -0.383333
v -0.950000 0.000000 -0.383333
v -1.000000 -0.050000 -0.383333
v -0.333333 -0.050000 -0.950000
v -0.383333 -0.050000 -1.000000
v -0.383333 0.000000 -0.950000
v -1.000000 -0.050000 -0.950000
v -0.950000 0.000000 -0.950000
v -0.950000 -0.050000 -1.000000
v 0.283334 0.000000 -0.383333
v -0.283333 -0.050000 -0.333333
v -0.283333 0.000000 -0.383333
v -0.333333 -0.050000 -0.383333
v 0.283334 -0.050000 -1.000000
v 0.283334 0.000000 -0.950000
v -0.283333 0.000000 -0.950000
v -0.283333 -0.050000 -1.000000
v 0.950000 -0.050000 -0.333333
v 1.000000 -0.050000 -0.383333
v 0.950000 0.000000 -0.383333
v 0.383334 0.000000 -0.383333
v 0.333333 -0.050000 -0.383333
v 1.000000 -0.050000 -0.950000
v 0.950000 -0.050000 -1.000000
v 0.950000 0.000000 -0.950000
v 0.333333 -0.050000 -0.950000
v 0.383334 0.000000 -0.950000
v 0.383334 -0.050000 -1.000000
v -1.000000 -0.500000 -0.000000
v -1.000000 -0.050000 -0.000000
v 1.000000 -0.500000 -0.000000
v 1.000000 -0.050000 -0.000000
v 0.050000 -0.050000 0.666660
v 0.050000 -0.000000 0.611105
v -0.000000 -0.050000 0.611105
v 0.050000 -0.000000 0.388885
v 0.050000 -0.050000 0.333330
v 1.000000 -0.000000 0.388885
v 1.000000 -0.050000 0.333330
v 1.000000 -0.000000 0.611105
v 1.000000 -0.050000 0.666660
v -0.050000 -0.000000 0.611105
v -0.050000 -0.050000 0.666660
v -0.050000 -0.000000 0.388885
v -0.000000 -0.050000 0.388885
v -0.050000 -0.050000 0.333330
v -1.000000 -0.000000 0.388885
v -1.000000 -0.050000 0.333330
v -1.000000 -0.000000 0.611105
v -1.000000 -0.050000 0.666660
v -0.950000 -0.050000 0.333330
v -0.950000 -0.000000 0.277775
v -1.000000 -0.050000 0.277775
v -0.950000 -0.000000 -0.000000
v -1.000000 -0.050000 -0.000000
v 0.950000 -0.000000 0.277775
v 0.950000 -0.050000 0.333330
v 1.000000 -0.050000 0.277775
v 0.950000 -0.000000 -0.000000
v 1.000000 -0.050000 -0.000000
v -0.350000 -0.050000 0.999990
v -0.350000 -0.000000 0.944435
v -0.400000 -0.050000 0.944435
v -0.350000 -0.000000 0.722215
v -0.350000 -0.050000 0.666660
v 1.000000 -0.000000 0.722215
v 1.000000 -0.050000 0.666660
v 1.000000 -0.000000 0.944435
v 1.000000 -0.050000 0.999990
v -0.450000 -0.000000 0.944435
v -0.450000 -0.050000 0.999990
v -0.450000 -0.000000 0.722215
v -0.400000 -0.050000 0.722215
v -0.450000 -0.050000 0.666660
v -1.000000 -0.000000 0.722215
v -1.000000 -0.050000 0.666660
v -1.000000 -0.000000 0.944435
v -1.000000 -0.050000 0.999990
vt 0.854825 0.883465
vt 0.770175 0.883465
vt 0.770175 0.864419
vt 0.854825 0.864419
vt 0.521352 0.869331
vt 0.603647 0.869331
vt 0.603647 0.842782
vt 0.521352 0.842782
vt 0.854825 0.833169
vt 0.854825 0.833169
vt 0.770175 0.833169
vt 0.770175 0.833169
vt 0.770175 0.914715
vt 0.770175 0.914715
vt 0.854825 0.914715
vt 0.854825 0.914715
vt 0.854825 0.883465
vt 0.854825 0.864419
vt 0.521352 0.869331
vt 0.521352 0.842782
vt 0.546726 0.907218
vt 0.523409 0.907218
vt 0.523409 0.907218
vt 0.546726 0.907218
vt 0.546726 0.922843
vt 0.546726 0.922843
vt 0.548784 0.919524
vt 0.548784 0.919524
vt 0.574158 0.907218
vt 0.550841 0.907218
vt 0.550841 0.907218
vt 0.574158 0.907218
vt 0.574158 0.922843
vt 0.574158 0.922843
vt 0.576215 0.919524
vt 0.576215 0.919524
vt 0.601590 0.907218
vt 0.578273 0.907218
vt 0.578273 0.907218
vt 0.601590 0.907218
vt 0.546726 0.919524
vt 0.521352 0.919524
vt 0.523409 0.922843
vt 0.523409 0.919524
vt 0.601590 0.922843
vt 0.601590 0.922843
vt 0.603647 0.919524
vt 0.603647 0.919524
vt 0.574158 0.919524
vt 0.550841 0.922843
vt 0.550841 0.919524
vt 0.523409 0.922843
vt 0.521352 0.919524
vt 0.578273 0.922843
vt 0.601590 0.919524
vt 0.578273 0.922843
vt 0.578273 0.919524
vt 0.550841 0.922843
vt 0.546726 0.907218
vt 0.523409 0.907218
vt 0.523409 0.907218
vt 0.546726 0.907218
vt 0.548784 0.919524
vt 0.546726 0.922843
vt 0.523409 0.922843
vt 0.521352 0.919524
vt 0.548784 0.919524
vt 0.546726 0.919524
vt 0.546726 0.922843
vt 0.521352 0.919524
vt 0.523409 0.922843
vt 0.523409 0.919524
vt 0.574158 0.907218
vt 0.550841 0.907218
vt 0.550841 0.907218
vt 0.574158 0.907218
vt 0.576215 0.919524
vt 0.574158 0.922843
vt 0.550841 0.922843
vt 0.576215 0.919524
vt 0.574158 0.919524
vt 0.574158 0.922843
vt 0.550841 0.922843
vt 0.550841 0.919524
vt 0.601590 0.907218
vt 0.578273 0.907218
vt 0.578273 0.907218
vt 0.601590 0.907218
vt 0.603647 0.919524
vt 0.601590 0.922843
vt 0.578273 0.922843
vt 0.603647 0.919524
vt 0.601590 0.919524
vt 0.601590 0.922843
vt 0.578273 0.922843
vt 0.578273 0.919524
vt 0.770175 0.883465
vt 0.770175 0.864419
vt 0.603647 0.869331
vt 0.603647 0.842782
vt 0.854825 0.932456
vt 0.814617 0.932456
vt 0.814617 0.932456
vt 0.854825 0.932456
vt 0.814617 0.914715
vt 0.814617 0.916831
vt 0.812500 0.914715
vt 0.814617 0.916831
vt 0.814617 0.914715
vt 0.812500 0.914715
vt 0.854825 0.916831
vt 0.854825 0.914715
vt 0.854825 0.916831
vt 0.854825 0.914715
vt 0.810384 0.916831
vt 0.810384 0.914715
vt 0.810384 0.916831
vt 0.810384 0.914715
vt 0.770175 0.916831
vt 0.770175 0.914715
vt 0.770175 0.916831
vt 0.770175 0.914715
vt 0.810384 0.932456
vt 0.770175 0.932456
vt 0.770175 0.932456
vt 0.810384 0.932456
vt 0.772292 0.914715
vt 0.772292 0.916831
vt 0.770175 0.914715
vt 0.852709 0.916831
vt 0.852709 0.914715
vt 0.854825 0.914715
vt 0.772292 0.916831
vt 0.770175 0.914715
vt 0.852709 0.916831
vt 0.854825 0.914715
vt 0.854825 0.932456
vt 0.797687 0.932456
vt 0.797687 0.932456
vt 0.854825 0.932456
vt 0.797687 0.914715
vt 0.797687 0.916831
vt 0.795570 0.914715
vt 0.797687 0.916831
vt 0.797687 0.914715
vt 0.795570 0.914715
vt 0.854825 0.916831
vt 0.854825 0.914715
vt 0.854825 0.916831
vt 0.854825 0.914715
vt 0.793454 0.916831
vt 0.793454 0.914715
vt 0.793454 0.916831
vt 0.793454 0.914715
vt 0.770175 0.916831
vt 0.770175 0.914715
vt 0.770175 0.916831
vt 0.770175 0.914715
vt 0.793454 0.932456
vt 0.770175 0.932456
vt 0.770175 0.932456
vt 0.793454 0.932456
vt 0.852709 0.932456
vt 0.772292 0.932456
vt 0.772292 0.932456
vt 0.852709 0.932456
vn 0.0000 -0.0000 1.0000
vn 0.0000 0.0000 -1.0000
vn 0.0000 -1.0000 -0.0000
vn 0.0000 1.0000 0.0000
vn 1.0000 0.0000 0.0000
vn -1.0000 0.0000 0.0000
vn 0.3416 0.8756 -0.3416
vn -0.3416 0.8756 -0.3416
vn -0.3827 0.9239 0.0000
vn 0.3827 0.9239 0.0000
vn 0.7071 0.7071 0.0000
vn 0.6861 0.6861 -0.2418
vn 0.2418 0.6861 -0.6861
vn -0.6861 0.6861 -0.2418
vn -0.2418 0.6861 -0.6861
vn -0.7071 0.7071 0.0000
vn -0.3416 0.8756 0.3416
vn 0.3416 0.8756 0.3416
vn 0.2418 0.6861 0.6861
vn 0.6861 0.6861 0.2418
vn -0.2418 0.6861 0.6861
vn -0.6861 0.6861 0.2418
vn 0.0000 0.9336 -0.3583
vn -0.3445 0.8825 -0.3201
vn -0.3445 0.8825 0.3201
vn 0.0000 0.9336 0.3583
vn -0.2415 0.7213 0.6492
vn -0.6886 0.6886 0.2273
vn -0.2415 0.7213 -0.6492
vn -0.6886 0.6886 -0.2273
vn 0.0000 0.7433 0.6690
vn 0.0000 0.7433 -0.6690
vn 0.3445 0.8825 0.3201
vn 0.2415 0.7213 0.6492
vn 0.6886 0.6886 0.2273
vn 0.3445 0.8825 -0.3201
vn 0.6886 0.6886 -0.2273
vn 0.2415 0.7213 -0.6492
usemtl tiny_treats_1
s 1
f 6/1/1 2/2/1 1/3/1 5/4/1
f 4/5/2 8/6/2 7/7/2 3/8/2
f 63/9/3 5/10/3 1/11/3 61/12/3
f 62/13/4 2/14/4 6/15/4 64/16/4
f 64/17/5 6/1/5 5/4/5 63/18/5
f 62/19/6 4/5/6 3/8/6 61/20/6
f 20/21/7 22/22/8 17/23/9 18/24/10
f 20/25/7 18/26/10 9/27/11 19/28/12
f 26/29/7 27/30/8 13/31/9 15/32/10
f 26/33/7 15/34/10 14/35/11 24/36/12
f 29/37/7 30/38/8 10/39/9 12/40/10
f 19/28/12 32/41/13 20/25/7
f 21/42/14 22/43/8 23/44/15
f 29/45/7 12/46/10 11/47/11 28/48/12
f 22/43/8 20/25/7 32/41/13 23/44/15
f 24/36/12 25/49/13 26/33/7
f 19/28/14 27/50/8 43/51/15
f 17/52/9 22/43/8 21/42/14 16/53/16
f 27/50/8 26/33/7 25/49/13 43/51/15
f 10/54/1 14/35/1 11/47/1 12/46/1
f 28/48/12 50/55/13 29/45/7
f 24/36/14 30/56/8 31/57/15
f 13/58/1 9/27/1 14/35/1 15/34/1
f 17/52/1 16/53/1 9/27/1 18/26/1
f 13/58/9 27/50/8 19/28/14 9/27/16
f 30/56/8 29/45/7 50/55/13 31/57/15
f 38/59/7 40/60/8 34/61/17 33/62/18
f 32/41/19 45/63/20 33/64/18
f 23/44/21 34/65/17 35/66/22
f 36/67/12 37/68/13 38/69/7
f 39/70/14 40/71/8 41/72/15
f 33/64/18 34/65/17 23/44/21 32/41/19
f 38/69/7 33/64/18 45/63/20 36/67/12
f 34/65/17 40/71/8 39/70/14 35/66/22
f 40/71/8 38/69/7 37/68/13 41/72/15
f 47/73/7 48/74/8 44/75/17 42/76/18
f 25/49/19 54/77/20 42/78/18
f 43/51/21 44/79/17 45/63/22
f 58/80/12 46/81/13 47/82/7
f 36/67/14 48/83/8 49/84/15
f 42/78/18 44/79/17 43/51/21 25/49/19
f 47/82/7 42/78/18 54/77/20 58/80/12
f 44/79/17 48/83/8 36/67/14 45/63/22
f 48/83/8 47/82/7 46/81/13 49/84/15
f 57/85/7 59/86/8 53/87/17 52/88/18
f 50/55/19 51/89/20 52/90/18
f 31/57/21 53/91/17 54/77/22
f 55/92/12 56/93/13 57/94/7
f 58/80/14 59/95/8 60/96/15
f 52/90/18 53/91/17 31/57/21 50/55/19
f 57/94/7 52/90/18 51/89/20 55/92/12
f 53/91/17 59/95/8 58/80/14 54/77/22
f 59/95/8 57/94/7 56/93/13 60/96/15
f 2/2/6 62/97/6 61/98/6 1/3/6
f 8/6/5 64/99/5 63/100/5 7/7/5
f 4/5/4 62/19/4 64/99/4 8/6/4
f 7/7/3 63/100/3 61/20/3 3/8/3
f 70/101/23 68/102/24 66/103/25 72/104/26
f 65/105/27 66/106/25 67/107/28
f 68/108/24 69/109/29 77/110/30
f 66/106/25 68/108/24 77/110/30 67/107/28
f 72/111/26 66/106/25 65/105/27 73/112/31
f 68/108/24 70/113/23 71/114/32 69/109/29
f 74/115/33 75/116/34 67/107/35
f 76/117/36 77/110/37 78/118/38
f 79/119/23 76/117/36 78/118/38 80/120/32
f 76/117/36 74/115/33 67/107/35 77/110/37
f 74/115/33 81/121/26 82/122/31 75/116/34
f 76/123/36 79/124/23 81/125/26 74/126/33
f 73/112/5 71/114/5 70/113/5 72/111/5
f 82/122/6 81/121/6 79/119/6 80/120/6
f 10/54/9 30/56/8 24/36/14 14/35/16
f 83/127/27 84/128/25 85/129/28
f 88/130/33 89/131/34 90/132/35
f 84/128/25 86/133/9 87/134/16 85/129/28
f 91/135/10 88/130/33 90/132/35 92/136/11
f 88/130/33 84/128/25 83/127/27 89/131/34
f 98/137/23 96/138/24 94/139/25 100/140/26
f 93/141/27 94/142/25 95/143/28
f 96/144/24 97/145/29 105/146/30
f 94/142/25 96/144/24 105/146/30 95/143/28
f 100/147/26 94/142/25 93/141/27 101/148/31
f 96/144/24 98/149/23 99/150/32 97/145/29
f 102/151/33 103/152/34 95/143/35
f 104/153/36 105/146/37 106/154/38
f 107/155/23 104/153/36 106/154/38 108/156/32
f 104/153/36 102/151/33 95/143/35 105/146/37
f 102/151/33 109/157/26 110/158/31 103/152/34
f 104/159/36 107/160/23 109/161/26 102/162/33
f 101/148/5 99/150/5 98/149/5 100/147/5
f 110/158/6 109/157/6 107/155/6 108/156/6
f 87/134/2 86/133/2 91/135/2 92/136/2
f 91/163/10 86/164/9 84/165/25 88/166/33
