# Blender v3.4.1 OBJ File: 'Tiny_Treats_Bakery_Interior_1.1_ASSETS_EXPORT.blend'
# www.blender.org
mtllib floor_wood.mtl
o floor_wood
v -1.000000 -0.500000 1.000000
v -1.000000 -0.050000 1.000000
v -1.000000 -0.500000 -1.000000
v -1.000000 -0.050000 -1.000000
v 1.000000 -0.500000 1.000000
v 1.000000 -0.050000 1.000000
v 1.000000 -0.500000 -1.000000
v 1.000000 -0.050000 -1.000000
v 0.050000 -0.050000 -0.333340
v 0.050000 0.000000 -0.388895
v 0.000000 -0.050000 -0.388895
v 0.050000 0.000000 -0.611115
v 0.050000 -0.050000 -0.666670
v 1.000000 0.000000 -0.611115
v 1.000000 -0.050000 -0.666670
v 1.000000 0.000000 -0.388895
v 1.000000 -0.050000 -0.333340
v -0.050000 0.000000 -0.388895
v -0.050000 -0.050000 -0.333340
v -0.050000 0.000000 -0.611115
v 0.000000 -0.050000 -0.611115
v -0.050000 -0.050000 -0.666670
v -1.000000 0.000000 -0.611115
v -1.000000 -0.050000 -0.666670
v -1.000000 0.000000 -0.388895
v -1.000000 -0.050000 -0.333340
v -0.950000 -0.050000 -0.666670
v -0.950000 0.000000 -0.722225
v -1.000000 -0.050000 -0.722225
v -0.950000 0.000000 -0.944445
v -0.950000 -0.050000 -1.000000
v -1.000000 -0.050000 -0.944445
v 0.950000 0.000000 -0.722225
v 0.950000 -0.050000 -0.666670
v 1.000000 -0.050000 -0.722225
v 0.950000 0.000000 -0.944445
v 1.000000 -0.050000 -0.944445
v 0.950000 -0.050000 -1.000000
v -0.350000 -0.050000 -0.000010
v -0.350000 -0.000000 -0.055565
v -0.400000 -0.050000 -0.055565
v -0.350000 0.000000 -0.277785
v -0.350000 -0.050000 -0.333340
v 1.000000 0.000000 -0.277785
v 1.000000 -0.050000 -0.333340
v 1.000000 -0.000000 -0.055565
v 1.000000 -0.050000 -0.000010
v -0.450000 -0.000000 -0.055565
v -0.450000 -0.050000 -0.000010
v -0.450000 0.000000 -0.277785
v -0.400000 -0.050000 -0.277785
v -0.450000 -0.050000 -0.333340
v -1.000000 0.000000 -0.277785
v -1.000000 -0.050000 -0.333340
v -1.000000 -0.000000 -0.055565
v -1.000000 -0.050000 -0.000010
v 0.050000 -0.050000 0.666650
v 0.050000 -0.000000 0.611095
v 0.000000 -0.050000 0.611095
v 0.050000 -0.000000 0.388875
v 0.050000 -0.050000 0.333320
v 1.000000 -0.000000 0.388875
v 1.000000 -0.050000 0.333320
v 1.000000 -0.000000 0.611095
v 1.000000 -0.050000 0.666650
v -0.050000 -0.000000 0.611095
v -0.050000 -0.050000 0.666650
v -0.050000 -0.000000 0.388875
v 0.000000 -0.050000 0.388875
v -0.050000 -0.050000 0.333320
v -1.000000 -0.000000 0.388875
v -1.000000 -0.050000 0.333320
v -1.000000 -0.000000 0.611095
v -1.000000 -0.050000 0.666650
v -0.950000 -0.050000 0.333320
v -0.950000 -0.000000 0.277765
v -1.000000 -0.050000 0.277765
v -0.950000 -0.000000 0.055545
v -0.950000 -0.050000 -0.000010
v -1.000000 -0.050000 0.055545
v 0.950000 -0.000000 0.277765
v 0.950000 -0.050000 0.333320
v 1.000000 -0.050000 0.277765
v 0.950000 -0.000000 0.055545
v 1.000000 -0.050000 0.055545
v 0.950000 -0.050000 -0.000010
v -0.350000 -0.050000 0.999980
v -0.350000 -0.000000 0.944425
v -0.400000 -0.050000 0.944425
v -0.350000 -0.000000 0.722205
v -0.350000 -0.050000 0.666650
v 1.000000 -0.000000 0.722205
v 1.000000 -0.050000 0.666650
v 1.000000 -0.000000 0.944425
v 1.000000 -0.050000 0.999980
v -0.450000 -0.000000 0.944425
v -0.450000 -0.050000 0.999980
v -0.450000 -0.000000 0.722205
v -0.400000 -0.050000 0.722205
v -0.450000 -0.050000 0.666650
v -1.000000 -0.000000 0.722205
v -1.000000 -0.050000 0.666650
v -1.000000 -0.000000 0.944425
v -1.000000 -0.050000 0.999980
vt 0.770175 0.869458
vt 0.770175 0.883286
vt 0.770175 0.883286
vt 0.770175 0.869458
vt 0.854825 0.883286
vt 0.854825 0.869458
vt 0.854825 0.883286
vt 0.854825 0.869458
vt 0.770175 0.846770
vt 0.854825 0.846770
vt 0.854825 0.846770
vt 0.770175 0.846770
vt 0.854825 0.905974
vt 0.770175 0.905974
vt 0.770175 0.905974
vt 0.854825 0.905974
vt 0.854825 0.918855
vt 0.814617 0.918855
vt 0.814617 0.918855
vt 0.854825 0.918855
vt 0.814617 0.905974
vt 0.814617 0.907511
vt 0.812500 0.905974
vt 0.814617 0.907511
vt 0.814617 0.905974
vt 0.812500 0.905974
vt 0.854825 0.907511
vt 0.854825 0.905974
vt 0.854825 0.907511
vt 0.854825 0.905974
vt 0.810384 0.907511
vt 0.810384 0.905974
vt 0.810384 0.907511
vt 0.810384 0.905974
vt 0.770175 0.907511
vt 0.770175 0.905974
vt 0.770175 0.907511
vt 0.770175 0.905974
vt 0.810384 0.918855
vt 0.770175 0.918855
vt 0.770175 0.918855
vt 0.810384 0.918855
vt 0.852709 0.918855
vt 0.772292 0.918855
vt 0.772292 0.918855
vt 0.852709 0.918855
vt 0.772292 0.905974
vt 0.772292 0.907511
vt 0.770175 0.905974
vt 0.772292 0.907511
vt 0.772292 0.905974
vt 0.770175 0.905974
vt 0.852709 0.907511
vt 0.852709 0.905974
vt 0.854825 0.905974
vt 0.852709 0.907511
vt 0.854825 0.905974
vt 0.852709 0.905974
vt 0.854825 0.918855
vt 0.797687 0.918855
vt 0.797687 0.918855
vt 0.854825 0.918855
vt 0.797687 0.905974
vt 0.797687 0.907511
vt 0.795570 0.905974
vt 0.797687 0.907511
vt 0.797687 0.905974
vt 0.795570 0.905974
vt 0.854825 0.907511
vt 0.854825 0.905974
vt 0.854825 0.907511
vt 0.854825 0.905974
vt 0.793454 0.907511
vt 0.793454 0.905974
vt 0.793454 0.907511
vt 0.793454 0.905974
vt 0.770175 0.907511
vt 0.770175 0.905974
vt 0.770175 0.907511
vt 0.770175 0.905974
vt 0.793454 0.918855
vt 0.770175 0.918855
vt 0.770175 0.918855
vt 0.793454 0.918855
vt 0.854825 0.918855
vt 0.814617 0.918855
vt 0.814617 0.918855
vt 0.854825 0.918855
vt 0.814617 0.905974
vt 0.814617 0.907511
vt 0.812500 0.905974
vt 0.814617 0.907511
vt 0.814617 0.905974
vt 0.812500 0.905974
vt 0.854825 0.907511
vt 0.854825 0.905974
vt 0.854825 0.907511
vt 0.854825 0.905974
vt 0.810384 0.907511
vt 0.810384 0.905974
vt 0.810384 0.907511
vt 0.810384 0.905974
vt 0.770175 0.907511
vt 0.770175 0.905974
vt 0.770175 0.907511
vt 0.770175 0.905974
vt 0.810384 0.918855
vt 0.770175 0.918855
vt 0.770175 0.918855
vt 0.810384 0.918855
vt 0.852709 0.918855
vt 0.772292 0.918855
vt 0.772292 0.918855
vt 0.852709 0.918855
vt 0.772292 0.905974
vt 0.772292 0.907511
vt 0.770175 0.905974
vt 0.772292 0.907511
vt 0.772292 0.905974
vt 0.770175 0.905974
vt 0.852709 0.907511
vt 0.852709 0.905974
vt 0.854825 0.905974
vt 0.852709 0.907511
vt 0.854825 0.905974
vt 0.852709 0.905974
vt 0.854825 0.918855
vt 0.797687 0.918855
vt 0.797687 0.918855
vt 0.854825 0.918855
vt 0.797687 0.905974
vt 0.797687 0.907511
vt 0.795570 0.905974
vt 0.797687 0.907511
vt 0.797687 0.905974
vt 0.795570 0.905974
vt 0.854825 0.907511
vt 0.854825 0.905974
vt 0.854825 0.907511
vt 0.854825 0.905974
vt 0.793454 0.907511
vt 0.793454 0.905974
vt 0.793454 0.907511
vt 0.793454 0.905974
vt 0.770175 0.907511
vt 0.770175 0.905974
vt 0.770175 0.907511
vt 0.770175 0.905974
vt 0.793454 0.918855
vt 0.770175 0.918855
vt 0.770175 0.918855
vt 0.793454 0.918855
vn -1.0000 0.0000 0.0000
vn 0.0000 0.0000 -1.0000
vn 1.0000 0.0000 0.0000
vn 0.0000 -0.0000 1.0000
vn 0.0000 -1.0000 -0.0000
vn 0.0000 1.0000 0.0000
vn 0.0000 0.9336 -0.3583
vn -0.3445 0.8825 -0.3201
vn -0.3445 0.8825 0.3201
vn 0.0000 0.9336 0.3583
vn -0.2415 0.7213 0.6492
vn -0.6886 0.6886 0.2273
vn -0.2415 0.7213 -0.6492
vn -0.6886 0.6886 -0.2273
vn 0.0000 0.7433 0.6690
vn 0.0000 0.7433 -0.6690
vn 0.3445 0.8825 0.3201
vn 0.2415 0.7213 0.6492
vn 0.6886 0.6886 0.2273
vn 0.3445 0.8825 -0.3201
vn 0.6886 0.6886 -0.2273
vn 0.2415 0.7213 -0.6492
usemtl tiny_treats_1
s 1
f 1/1/1 2/2/1 4/3/1 3/4/1
f 3/4/2 4/3/2 8/5/2 7/6/2
f 7/6/3 8/5/3 6/7/3 5/8/3
f 5/8/4 6/7/4 2/2/4 1/1/4
f 3/9/5 7/10/5 5/11/5 1/12/5
f 8/13/6 4/14/6 2/15/6 6/16/6
f 14/17/7 12/18/8 10/19/9 16/20/10
f 9/21/11 10/22/9 11/23/12
f 12/24/8 13/25/13 21/26/14
f 10/22/9 12/24/8 21/26/14 11/23/12
f 16/27/10 10/22/9 9/21/11 17/28/15
f 12/24/8 14/29/7 15/30/16 13/25/13
f 18/31/17 19/32/18 11/23/19
f 20/33/20 21/26/21 22/34/22
f 23/35/7 20/33/20 22/34/22 24/36/16
f 20/33/20 18/31/17 11/23/19 21/26/21
f 18/31/17 25/37/10 26/38/15 19/32/18
f 20/39/20 23/40/7 25/41/10 18/42/17
f 17/28/3 15/30/3 14/29/3 16/27/3
f 26/38/1 25/37/1 23/35/1 24/36/1
f 36/43/20 30/44/8 28/45/9 33/46/17
f 27/47/11 28/48/9 29/49/12
f 30/50/8 31/51/13 32/52/14
f 33/53/17 34/54/18 35/55/19
f 36/56/20 37/57/21 38/58/22
f 28/48/9 30/50/8 32/52/14 29/49/12
f 30/50/8 36/56/20 38/58/22 31/51/13
f 36/56/20 33/53/17 35/55/19 37/57/21
f 33/53/17 28/48/9 27/47/11 34/54/18
f 44/59/7 42/60/8 40/61/9 46/62/10
f 39/63/11 40/64/9 41/65/12
f 42/66/8 43/67/13 51/68/14
f 40/64/9 42/66/8 51/68/14 41/65/12
f 46/69/10 40/64/9 39/63/11 47/70/15
f 42/66/8 44/71/7 45/72/16 43/67/13
f 48/73/17 49/74/18 41/65/19
f 50/75/20 51/68/21 52/76/22
f 53/77/7 50/75/20 52/76/22 54/78/16
f 50/75/20 48/73/17 41/65/19 51/68/21
f 48/73/17 55/79/10 56/80/15 49/74/18
f 50/81/20 53/82/7 55/83/10 48/84/17
f 47/70/3 45/72/3 44/71/3 46/69/3
f 56/80/1 55/79/1 53/77/1 54/78/1
f 62/85/7 60/86/8 58/87/9 64/88/10
f 57/89/11 58/90/9 59/91/12
f 60/92/8 61/93/13 69/94/14
f 58/90/9 60/92/8 69/94/14 59/91/12
f 64/95/10 58/90/9 57/89/11 65/96/15
f 60/92/8 62/97/7 63/98/16 61/93/13
f 66/99/17 67/100/18 59/91/19
f 68/101/20 69/94/21 70/102/22
f 71/103/7 68/101/20 70/102/22 72/104/16
f 68/101/20 66/99/17 59/91/19 69/94/21
f 66/99/17 73/105/10 74/106/15 67/100/18
f 68/107/20 71/108/7 73/109/10 66/110/17
f 65/96/3 63/98/3 62/97/3 64/95/3
f 74/106/1 73/105/1 71/103/1 72/104/1
f 84/111/20 78/112/8 76/113/9 81/114/17
f 75/115/11 76/116/9 77/117/12
f 78/118/8 79/119/13 80/120/14
f 81/121/17 82/122/18 83/123/19
f 84/124/20 85/125/21 86/126/22
f 76/116/9 78/118/8 80/120/14 77/117/12
f 78/118/8 84/124/20 86/126/22 79/119/13
f 84/124/20 81/121/17 83/123/19 85/125/21
f 81/121/17 76/116/9 75/115/11 82/122/18
f 92/127/7 90/128/8 88/129/9 94/130/10
f 87/131/11 88/132/9 89/133/12
f 90/134/8 91/135/13 99/136/14
f 88/132/9 90/134/8 99/136/14 89/133/12
f 94/137/10 88/132/9 87/131/11 95/138/15
f 90/134/8 92/139/7 93/140/16 91/135/13
f 96/141/17 97/142/18 89/133/19
f 98/143/20 99/136/21 100/144/22
f 101/145/7 98/143/20 100/144/22 102/146/16
f 98/143/20 96/141/17 89/133/19 99/136/21
f 96/141/17 103/147/10 104/148/15 97/142/18
f 98/149/20 101/150/7 103/151/10 96/152/17
f 95/138/3 93/140/3 92/139/3 94/137/3
f 104/148/1 103/147/1 101/145/1 102/146/1
