# Blender v3.4.1 OBJ File: 'Tiny_Treats_Bakery_Interior_1.1_ASSETS_EXPORT.blend'
# www.blender.org
mtllib macaron_pink.mtl
o macaron_pink
v -0.000000 0.200001 0.000000
v -0.000000 0.095070 -0.121173
v 0.059295 0.095070 -0.104939
v 0.102703 0.095070 -0.060586
v 0.118591 0.095070 0.000000
v 0.102703 0.095070 0.060586
v 0.059295 0.095070 0.104939
v -0.000000 0.095070 0.121173
v -0.059296 0.095070 0.104939
v -0.102703 0.095070 0.060586
v -0.118591 0.095070 0.000000
v -0.102703 0.095070 -0.060586
v -0.059296 0.095070 -0.104938
v 0.000000 0.192752 -0.077197
v 0.038598 0.192752 -0.066854
v 0.066854 0.192752 -0.038598
v 0.077197 0.192752 -0.000000
v 0.066854 0.192752 0.038598
v 0.038598 0.192752 0.066854
v -0.000000 0.192752 0.077197
v -0.038598 0.192752 0.066854
v -0.066854 0.192752 0.038598
v -0.077197 0.192752 -0.000000
v -0.066854 0.192752 -0.038598
v -0.038598 0.192752 -0.066854
v 0.056901 0.170591 -0.098555
v 0.098555 0.170591 -0.056901
v 0.113802 0.170591 -0.000000
v 0.098555 0.170591 0.056901
v 0.056901 0.170591 0.098555
v -0.000000 0.170591 0.113802
v -0.056901 0.170591 0.098555
v -0.098555 0.170591 0.056901
v -0.113802 0.170591 -0.000000
v -0.098555 0.170591 -0.056901
v -0.056901 0.170591 -0.098555
v 0.000000 0.170591 -0.113802
v 0.062500 0.149155 -0.108253
v 0.108253 0.149155 -0.062500
v 0.125000 0.149155 -0.000000
v 0.108253 0.149155 0.062500
v 0.062500 0.149155 0.108253
v -0.000000 0.149155 0.125000
v -0.062500 0.149155 0.108253
v -0.108253 0.149155 0.062500
v -0.125000 0.149155 -0.000000
v -0.108253 0.149155 -0.062500
v -0.062500 0.149155 -0.108253
v 0.000000 0.149155 -0.125000
v 0.053876 0.116774 -0.093316
v 0.093316 0.116774 -0.053876
v 0.107752 0.116774 0.000000
v 0.093316 0.116774 0.053876
v 0.053876 0.116774 0.093316
v -0.000000 0.116774 0.107752
v -0.053876 0.116774 0.093316
v -0.093316 0.116774 0.053876
v -0.107752 0.116774 0.000000
v -0.093316 0.116774 -0.053876
v -0.053876 0.116774 -0.093316
v 0.000000 0.116774 -0.107752
v 0.000000 0.133280 -0.124758
v 0.062379 0.133280 -0.108043
v 0.108043 0.133280 -0.062379
v 0.124758 0.133280 -0.000000
v 0.108043 0.133280 0.062379
v 0.062379 0.133280 0.108043
v -0.000000 0.133280 0.124758
v -0.062379 0.133280 0.108043
v -0.108043 0.133280 0.062379
v -0.124758 0.133280 -0.000000
v -0.108043 0.133280 -0.062379
v -0.062379 0.133280 -0.108043
v 0.058617 0.123143 -0.101528
v 0.101528 0.123143 -0.058617
v 0.117235 0.123143 0.000000
v 0.101528 0.123143 0.058617
v 0.058617 0.123143 0.101528
v -0.000000 0.123143 0.117235
v -0.058617 0.123143 0.101528
v -0.101528 0.123143 0.058617
v -0.117235 0.123143 0.000000
v -0.101528 0.123143 -0.058617
v -0.058617 0.123143 -0.101528
v 0.000000 0.123143 -0.117235
v 0.058784 0.105922 -0.103014
v 0.101818 0.105922 -0.059475
v 0.117569 0.105922 0.000000
v 0.101818 0.105922 0.059476
v 0.058784 0.105922 0.103015
v -0.000000 0.105922 0.118951
v -0.058785 0.105922 0.103015
v -0.101818 0.105922 0.059476
v -0.117569 0.105922 0.000000
v -0.101818 0.105922 -0.059475
v -0.058785 0.105922 -0.103014
v -0.000000 0.105922 -0.118951
v -0.000000 0.000001 0.000000
v -0.000000 0.006124 -0.082385
v 0.041192 0.006124 -0.071347
v 0.071347 0.006124 -0.041192
v 0.082384 0.006124 -0.000000
v 0.071347 0.006124 0.041192
v 0.041192 0.006124 0.071347
v -0.000000 0.006124 0.082384
v -0.041193 0.006124 0.071347
v -0.071347 0.006124 0.041192
v -0.082385 0.006124 -0.000000
v -0.071347 0.006124 -0.041192
v -0.041193 0.006124 -0.071347
v 0.056901 0.019549 -0.098555
v 0.098555 0.019549 -0.056901
v 0.113802 0.019549 -0.000000
v 0.098555 0.019549 0.056901
v 0.056901 0.019549 0.098555
v -0.000000 0.019549 0.113802
v -0.056901 0.019549 0.098555
v -0.098555 0.019549 0.056901
v -0.113802 0.019549 -0.000000
v -0.098555 0.019549 -0.056901
v -0.056901 0.019549 -0.098555
v 0.000000 0.019549 -0.113802
v 0.062500 0.040985 -0.108253
v 0.108253 0.040985 -0.062500
v 0.125000 0.040985 -0.000000
v 0.108253 0.040985 0.062500
v 0.062500 0.040985 0.108253
v -0.000000 0.040985 0.125000
v -0.062500 0.040985 0.108253
v -0.108253 0.040985 0.062500
v -0.125000 0.040985 -0.000000
v -0.108253 0.040985 -0.062500
v -0.062500 0.040985 -0.108253
v 0.000000 0.040985 -0.125000
v 0.053876 0.073366 -0.093316
v 0.093316 0.073366 -0.053876
v 0.107752 0.073366 0.000000
v 0.093316 0.073366 0.053876
v 0.053876 0.073366 0.093316
v -0.000000 0.073366 0.107752
v -0.053876 0.073366 0.093316
v -0.093316 0.073366 0.053876
v -0.107752 0.073366 0.000000
v -0.093316 0.073366 -0.053876
v -0.053876 0.073366 -0.093316
v 0.000000 0.073366 -0.107752
v 0.000000 0.056860 -0.124758
v 0.062379 0.056860 -0.108043
v 0.108043 0.056860 -0.062379
v 0.124758 0.056860 -0.000000
v 0.108043 0.056860 0.062379
v 0.062379 0.056860 0.108043
v -0.000000 0.056860 0.124758
v -0.062379 0.056860 0.108043
v -0.108043 0.056860 0.062379
v -0.124758 0.056860 -0.000000
v -0.108043 0.056860 -0.062379
v -0.062379 0.056860 -0.108043
v 0.058617 0.066997 -0.101528
v 0.101528 0.066997 -0.058617
v 0.117235 0.066997 0.000000
v 0.101528 0.066997 0.058617
v 0.058617 0.066997 0.101528
v -0.000000 0.066997 0.117235
v -0.058617 0.066997 0.101528
v -0.101528 0.066997 0.058617
v -0.117235 0.066997 -0.000000
v -0.101528 0.066997 -0.058617
v -0.058617 0.066997 -0.101528
v 0.000000 0.066997 -0.117235
v 0.058784 0.084218 -0.103014
v 0.101818 0.084218 -0.059475
v 0.117569 0.084218 0.000000
v 0.101818 0.084218 0.059476
v 0.058784 0.084218 0.103015
v -0.000000 0.084218 0.118951
v -0.058785 0.084218 0.103015
v -0.101818 0.084218 0.059476
v -0.117569 0.084218 0.000000
v -0.101818 0.084218 -0.059475
v -0.058785 0.084218 -0.103014
v -0.000000 0.084218 -0.118951
vt 0.435465 0.486249
vt 0.435465 0.488593
vt 0.442323 0.486249
vt 0.447344 0.486249
vt 0.449182 0.486249
vt 0.447344 0.486249
vt 0.442323 0.486249
vt 0.435465 0.486249
vt 0.428607 0.486249
vt 0.423585 0.486249
vt 0.421748 0.486249
vt 0.423585 0.486249
vt 0.428607 0.486249
vt 0.425355 0.462449
vt 0.435465 0.462449
vt 0.417952 0.462449
vt 0.415244 0.462449
vt 0.417952 0.462449
vt 0.425355 0.462449
vt 0.435465 0.462449
vt 0.445576 0.462449
vt 0.452978 0.462449
vt 0.455686 0.462449
vt 0.452978 0.462449
vt 0.445576 0.462449
vt 0.435465 0.458562
vt 0.446570 0.458562
vt 0.454701 0.458562
vt 0.457676 0.458562
vt 0.454701 0.458562
vt 0.446570 0.458562
vt 0.435465 0.458562
vt 0.424359 0.458562
vt 0.416230 0.458562
vt 0.413254 0.458562
vt 0.416230 0.458562
vt 0.424359 0.458562
vt 0.424382 0.455684
vt 0.435465 0.455684
vt 0.416267 0.455684
vt 0.413297 0.455684
vt 0.416267 0.455684
vt 0.424382 0.455684
vt 0.435465 0.455684
vt 0.446549 0.455684
vt 0.454664 0.455684
vt 0.457633 0.455684
vt 0.454664 0.455684
vt 0.446549 0.455684
vt 0.560464 0.904172
vt 0.560464 0.907282
vt 0.575588 0.907282
vt 0.576966 0.904172
vt 0.586661 0.907282
vt 0.589046 0.904172
vt 0.590712 0.907282
vt 0.593469 0.904172
vt 0.586661 0.907282
vt 0.589046 0.904172
vt 0.575588 0.907282
vt 0.576966 0.904172
vt 0.560464 0.907282
vt 0.560464 0.904172
vt 0.545342 0.907282
vt 0.543963 0.904172
vt 0.534270 0.907282
vt 0.531885 0.904172
vt 0.530219 0.907282
vt 0.527462 0.904172
vt 0.534270 0.907282
vt 0.531885 0.904172
vt 0.545342 0.907282
vt 0.543963 0.904172
vt 0.435465 0.434065
vt 0.435465 0.435903
vt 0.446549 0.435903
vt 0.445881 0.434065
vt 0.454664 0.435903
vt 0.453506 0.434065
vt 0.457633 0.435903
vt 0.456297 0.434065
vt 0.454664 0.435903
vt 0.453506 0.434065
vt 0.446549 0.435903
vt 0.445881 0.434065
vt 0.435465 0.435903
vt 0.435465 0.434065
vt 0.424382 0.435903
vt 0.425050 0.434065
vt 0.416267 0.435903
vt 0.417425 0.434065
vt 0.413297 0.435903
vt 0.414634 0.434065
vt 0.416267 0.435903
vt 0.417425 0.434065
vt 0.424382 0.435903
vt 0.425050 0.434065
vt 0.425893 0.432910
vt 0.435465 0.432910
vt 0.418884 0.432910
vt 0.416319 0.432910
vt 0.418884 0.432910
vt 0.425893 0.432910
vt 0.435465 0.432910
vt 0.445038 0.432910
vt 0.452047 0.432910
vt 0.454611 0.432910
vt 0.452047 0.432910
vt 0.445038 0.432910
vt 0.543820 0.869814
vt 0.543963 0.872922
vt 0.560464 0.872922
vt 0.560464 0.869814
vt 0.531635 0.869814
vt 0.531885 0.872922
vt 0.527175 0.869814
vt 0.527462 0.872922
vt 0.531635 0.869814
vt 0.531885 0.872922
vt 0.543820 0.869814
vt 0.543963 0.872922
vt 0.560464 0.869814
vt 0.560464 0.872922
vt 0.577109 0.869814
vt 0.576966 0.872922
vt 0.589294 0.869814
vt 0.589046 0.872922
vt 0.593754 0.869814
vt 0.593469 0.872922
vt 0.589294 0.869814
vt 0.589046 0.872922
vt 0.577109 0.869814
vt 0.576966 0.872922
vt 0.435465 0.412847
vt 0.442784 0.412847
vt 0.435465 0.411736
vt 0.448143 0.412847
vt 0.450104 0.412847
vt 0.448143 0.412847
vt 0.442784 0.412847
vt 0.435465 0.412847
vt 0.428145 0.412847
vt 0.422787 0.412847
vt 0.420826 0.412847
vt 0.422787 0.412847
vt 0.428145 0.412847
vt 0.425355 0.435062
vt 0.435465 0.435062
vt 0.417952 0.435062
vt 0.415244 0.435062
vt 0.417952 0.435062
vt 0.425355 0.435062
vt 0.435465 0.435062
vt 0.445576 0.435062
vt 0.452978 0.435062
vt 0.455686 0.435062
vt 0.452978 0.435062
vt 0.445576 0.435062
vt 0.435465 0.438949
vt 0.446570 0.438949
vt 0.454701 0.438949
vt 0.457676 0.438949
vt 0.454701 0.438949
vt 0.446570 0.438949
vt 0.435465 0.438949
vt 0.424359 0.438949
vt 0.416230 0.438949
vt 0.413254 0.438949
vt 0.416230 0.438949
vt 0.424359 0.438949
vt 0.424382 0.441827
vt 0.435465 0.441827
vt 0.416267 0.441827
vt 0.413297 0.441827
vt 0.416267 0.441827
vt 0.424382 0.441827
vt 0.435465 0.441827
vt 0.446549 0.441827
vt 0.454664 0.441827
vt 0.457633 0.441827
vt 0.454664 0.441827
vt 0.446549 0.441827
vt 0.560464 0.835456
vt 0.576966 0.835456
vt 0.575588 0.832347
vt 0.560464 0.832347
vt 0.589046 0.835456
vt 0.586661 0.832347
vt 0.593469 0.835456
vt 0.590712 0.832347
vt 0.589046 0.835456
vt 0.586661 0.832347
vt 0.576966 0.835456
vt 0.575588 0.832347
vt 0.560464 0.835456
vt 0.560464 0.832347
vt 0.543963 0.835456
vt 0.545342 0.832347
vt 0.531885 0.835456
vt 0.534270 0.832347
vt 0.527462 0.835456
vt 0.530219 0.832347
vt 0.531885 0.835456
vt 0.534270 0.832347
vt 0.543963 0.835456
vt 0.545342 0.832347
vt 0.435465 0.463447
vt 0.445881 0.463447
vt 0.446549 0.461608
vt 0.435465 0.461608
vt 0.453506 0.463447
vt 0.454664 0.461608
vt 0.456297 0.463447
vt 0.457633 0.461608
vt 0.453506 0.463447
vt 0.454664 0.461608
vt 0.445881 0.463447
vt 0.446549 0.461608
vt 0.435465 0.463447
vt 0.435465 0.461608
vt 0.425050 0.463447
vt 0.424382 0.461608
vt 0.417425 0.463447
vt 0.416267 0.461608
vt 0.414634 0.463447
vt 0.413297 0.461608
vt 0.417425 0.463447
vt 0.416267 0.461608
vt 0.425050 0.463447
vt 0.424382 0.461608
vt 0.425893 0.464601
vt 0.435465 0.464601
vt 0.418884 0.464601
vt 0.416319 0.464601
vt 0.418884 0.464601
vt 0.425893 0.464601
vt 0.435465 0.464601
vt 0.445038 0.464601
vt 0.452047 0.464601
vt 0.454611 0.464601
vt 0.452047 0.464601
vt 0.445038 0.464601
vt 0.560464 0.866706
vt 0.543963 0.866706
vt 0.531885 0.866706
vt 0.527462 0.866706
vt 0.531885 0.866706
vt 0.543963 0.866706
vt 0.560464 0.866706
vt 0.576966 0.866706
vt 0.589046 0.866706
vt 0.593469 0.866706
vt 0.589046 0.866706
vt 0.576966 0.866706
vn -0.0000 0.9381 -0.3464
vn 0.0000 1.0000 0.0000
vn 0.1732 0.9381 -0.3000
vn 0.3000 0.9381 -0.1732
vn 0.3464 0.9381 0.0000
vn 0.3000 0.9381 0.1732
vn 0.1732 0.9381 0.3000
vn -0.0000 0.9381 0.3464
vn -0.1732 0.9381 0.3000
vn -0.3000 0.9381 0.1732
vn -0.3464 0.9381 0.0000
vn -0.3000 0.9381 -0.1732
vn -0.1732 0.9381 -0.3000
vn -0.3743 0.6630 -0.6483
vn -0.0000 0.6630 -0.7486
vn -0.6483 0.6630 -0.3743
vn -0.7486 0.6630 -0.0000
vn -0.6483 0.6630 0.3743
vn -0.3743 0.6630 0.6483
vn -0.0000 0.6630 0.7486
vn 0.3743 0.6630 0.6483
vn 0.6483 0.6630 0.3743
vn 0.7486 0.6630 -0.0000
vn 0.6483 0.6630 -0.3743
vn 0.3743 0.6630 -0.6483
vn 0.0000 0.2223 -0.9750
vn 0.4875 0.2223 -0.8443
vn 0.8443 0.2223 -0.4875
vn 0.9750 0.2224 0.0000
vn 0.8443 0.2224 0.4875
vn 0.4875 0.2224 0.8443
vn -0.0000 0.2224 0.9750
vn -0.4875 0.2224 0.8443
vn -0.8443 0.2224 0.4875
vn -0.9750 0.2224 0.0000
vn -0.8443 0.2224 -0.4875
vn -0.4875 0.2223 -0.8443
vn -0.4759 -0.3067 -0.8243
vn 0.0000 -0.3067 -0.9518
vn -0.8243 -0.3067 -0.4759
vn -0.9518 -0.3067 -0.0000
vn -0.8243 -0.3067 0.4759
vn -0.4759 -0.3067 0.8243
vn -0.0000 -0.3067 0.9518
vn 0.4759 -0.3067 0.8243
vn 0.8243 -0.3067 0.4759
vn 0.9518 -0.3067 -0.0000
vn 0.8243 -0.3067 -0.4759
vn 0.4759 -0.3067 -0.8243
vn 0.0000 0.4562 -0.8899
vn 0.0000 0.7154 -0.6987
vn 0.3616 0.7053 -0.6097
vn 0.4555 0.4399 -0.7739
vn 0.6355 0.6847 -0.3569
vn 0.7947 0.4070 -0.4504
vn 0.7386 0.6742 0.0000
vn 0.9207 0.3904 0.0000
vn 0.6355 0.6847 0.3569
vn 0.7947 0.4070 0.4504
vn 0.3616 0.7053 0.6097
vn 0.4555 0.4399 0.7739
vn 0.0000 0.7154 0.6987
vn 0.0000 0.4562 0.8899
vn -0.3616 0.7053 0.6097
vn -0.4555 0.4399 0.7739
vn -0.6355 0.6847 0.3569
vn -0.7947 0.4070 0.4504
vn -0.7386 0.6742 0.0000
vn -0.9207 0.3904 0.0000
vn -0.6355 0.6847 -0.3569
vn -0.7947 0.4070 -0.4504
vn -0.3616 0.7053 -0.6097
vn -0.4555 0.4399 -0.7739
vn 0.0000 -0.7097 -0.7045
vn 0.3522 -0.7097 -0.6101
vn 0.6101 -0.7097 -0.3522
vn 0.7045 -0.7097 0.0000
vn 0.6101 -0.7097 0.3522
vn 0.3522 -0.7097 0.6101
vn -0.0000 -0.7097 0.7045
vn -0.3522 -0.7097 0.6101
vn -0.6101 -0.7097 0.3522
vn -0.7045 -0.7097 0.0000
vn -0.6101 -0.7097 -0.3522
vn -0.3522 -0.7097 -0.6101
vn -0.2788 -0.8301 -0.4829
vn 0.0000 -0.8301 -0.5576
vn -0.4829 -0.8301 -0.2788
vn -0.5576 -0.8301 0.0000
vn -0.4829 -0.8301 0.2788
vn -0.2788 -0.8301 0.4829
vn -0.0000 -0.8301 0.5576
vn 0.2788 -0.8301 0.4829
vn 0.4829 -0.8301 0.2788
vn 0.5576 -0.8301 0.0000
vn 0.4829 -0.8301 -0.2788
vn 0.2788 -0.8301 -0.4829
vn -0.4991 0.0000 -0.8665
vn -0.0000 0.0000 -1.0000
vn -0.8655 0.0000 -0.5010
vn -1.0000 0.0000 -0.0000
vn -0.8655 0.0000 0.5010
vn -0.4991 0.0000 0.8665
vn -0.0000 0.0000 1.0000
vn 0.4991 0.0000 0.8665
vn 0.8655 0.0000 0.5010
vn 1.0000 0.0000 -0.0000
vn 0.8655 0.0000 -0.5010
vn 0.4991 0.0000 -0.8665
vn -0.0000 -0.9650 -0.2622
vn 0.1311 -0.9650 -0.2271
vn -0.0000 -1.0000 -0.0000
vn 0.2271 -0.9650 -0.1311
vn 0.2622 -0.9650 -0.0000
vn 0.2271 -0.9650 0.1311
vn 0.1311 -0.9650 0.2271
vn -0.0000 -0.9650 0.2622
vn -0.1311 -0.9650 0.2271
vn -0.2271 -0.9650 0.1311
vn -0.2622 -0.9650 -0.0000
vn -0.2271 -0.9650 -0.1311
vn -0.1311 -0.9650 -0.2271
vn -0.3535 -0.7072 -0.6123
vn 0.0000 -0.7072 -0.7070
vn -0.6123 -0.7072 -0.3535
vn -0.7070 -0.7072 -0.0000
vn -0.6123 -0.7072 0.3535
vn -0.3535 -0.7072 0.6123
vn 0.0000 -0.7072 0.7070
vn 0.3535 -0.7072 0.6123
vn 0.6123 -0.7072 0.3535
vn 0.7070 -0.7072 -0.0000
vn 0.6123 -0.7072 -0.3535
vn 0.3535 -0.7072 -0.6123
vn 0.0000 -0.2223 -0.9750
vn 0.4875 -0.2223 -0.8443
vn 0.8443 -0.2223 -0.4875
vn 0.9750 -0.2224 0.0000
vn 0.8443 -0.2224 0.4875
vn 0.4875 -0.2224 0.8443
vn -0.0000 -0.2224 0.9750
vn -0.4875 -0.2224 0.8443
vn -0.8443 -0.2224 0.4875
vn -0.9750 -0.2224 0.0000
vn -0.8443 -0.2223 -0.4875
vn -0.4875 -0.2223 -0.8443
vn -0.4759 0.3067 -0.8243
vn 0.0000 0.3067 -0.9518
vn -0.8243 0.3067 -0.4759
vn -0.9518 0.3067 -0.0000
vn -0.8243 0.3067 0.4759
vn -0.4759 0.3067 0.8243
vn -0.0000 0.3067 0.9518
vn 0.4759 0.3067 0.8243
vn 0.8243 0.3067 0.4759
vn 0.9518 0.3067 -0.0000
vn 0.8243 0.3067 -0.4759
vn 0.4759 0.3067 -0.8243
vn 0.0000 -0.4562 -0.8899
vn 0.4555 -0.4399 -0.7739
vn 0.3616 -0.7053 -0.6097
vn 0.0000 -0.7154 -0.6987
vn 0.7947 -0.4070 -0.4504
vn 0.6355 -0.6847 -0.3569
vn 0.9207 -0.3904 0.0000
vn 0.7386 -0.6742 -0.0000
vn 0.7947 -0.4070 0.4504
vn 0.6355 -0.6847 0.3569
vn 0.4555 -0.4399 0.7739
vn 0.3616 -0.7053 0.6097
vn 0.0000 -0.4562 0.8899
vn 0.0000 -0.7154 0.6987
vn -0.4555 -0.4399 0.7739
vn -0.3616 -0.7053 0.6097
vn -0.7947 -0.4070 0.4504
vn -0.6355 -0.6847 0.3569
vn -0.9207 -0.3904 0.0000
vn -0.7386 -0.6742 0.0000
vn -0.7947 -0.4070 -0.4504
vn -0.6355 -0.6847 -0.3569
vn -0.4555 -0.4399 -0.7739
vn -0.3616 -0.7053 -0.6097
vn 0.0000 0.7097 -0.7045
vn 0.3522 0.7097 -0.6101
vn 0.6101 0.7097 -0.3522
vn 0.7045 0.7097 0.0000
vn 0.6101 0.7097 0.3522
vn 0.3522 0.7097 0.6101
vn -0.0000 0.7097 0.7045
vn -0.3522 0.7097 0.6101
vn -0.6101 0.7097 0.3522
vn -0.7045 0.7097 0.0000
vn -0.6101 0.7097 -0.3522
vn -0.3522 0.7097 -0.6101
vn -0.2788 0.8301 -0.4829
vn 0.0000 0.8301 -0.5576
vn -0.4829 0.8301 -0.2788
vn -0.5576 0.8301 0.0000
vn -0.4829 0.8301 0.2788
vn -0.2788 0.8301 0.4829
vn -0.0000 0.8301 0.5576
vn 0.2788 0.8301 0.4829
vn 0.4829 0.8301 0.2788
vn 0.5576 0.8301 0.0000
vn 0.4829 0.8301 -0.2788
vn 0.2788 0.8301 -0.4829
usemtl tiny_treats_1
s 1
f 14/1/1 1/2/2 15/3/3
f 15/3/3 1/2/2 16/4/4
f 16/4/4 1/2/2 17/5/5
f 17/5/5 1/2/2 18/6/6
f 18/6/6 1/2/2 19/7/7
f 19/7/7 1/2/2 20/8/8
f 20/8/8 1/2/2 21/9/9
f 21/9/9 1/2/2 22/10/10
f 22/10/10 1/2/2 23/11/11
f 23/11/11 1/2/2 24/12/12
f 24/12/12 1/2/2 25/13/13
f 25/13/13 1/2/2 14/1/1
f 36/14/14 25/13/13 14/1/1 37/15/15
f 35/16/16 24/12/12 25/13/13 36/14/14
f 34/17/17 23/11/11 24/12/12 35/16/16
f 33/18/18 22/10/10 23/11/11 34/17/17
f 32/19/19 21/9/9 22/10/10 33/18/18
f 31/20/20 20/8/8 21/9/9 32/19/19
f 30/21/21 19/7/7 20/8/8 31/20/20
f 29/22/22 18/6/6 19/7/7 30/21/21
f 28/23/23 17/5/5 18/6/6 29/22/22
f 27/24/24 16/4/4 17/5/5 28/23/23
f 26/25/25 15/3/3 16/4/4 27/24/24
f 37/15/15 14/1/1 15/3/3 26/25/25
f 49/26/26 37/15/15 26/25/25 38/27/27
f 38/27/27 26/25/25 27/24/24 39/28/28
f 39/28/28 27/24/24 28/23/23 40/29/29
f 40/29/29 28/23/23 29/22/22 41/30/30
f 41/30/30 29/22/22 30/21/21 42/31/31
f 42/31/31 30/21/21 31/20/20 43/32/32
f 43/32/32 31/20/20 32/19/19 44/33/33
f 44/33/33 32/19/19 33/18/18 45/34/34
f 45/34/34 33/18/18 34/17/17 46/35/35
f 46/35/35 34/17/17 35/16/16 47/36/36
f 47/36/36 35/16/16 36/14/14 48/37/37
f 48/37/37 36/14/14 37/15/15 49/26/26
f 73/38/38 48/37/37 49/26/26 62/39/39
f 72/40/40 47/36/36 48/37/37 73/38/38
f 71/41/41 46/35/35 47/36/36 72/40/40
f 70/42/42 45/34/34 46/35/35 71/41/41
f 69/43/43 44/33/33 45/34/34 70/42/42
f 68/44/44 43/32/32 44/33/33 69/43/43
f 67/45/45 42/31/31 43/32/32 68/44/44
f 66/46/46 41/30/30 42/31/31 67/45/45
f 65/47/47 40/29/29 41/30/30 66/46/46
f 64/48/48 39/28/28 40/29/29 65/47/47
f 63/49/49 38/27/27 39/28/28 64/48/48
f 62/39/39 49/26/26 38/27/27 63/49/49
f 97/50/50 61/51/51 50/52/52 86/53/53
f 86/53/53 50/52/52 51/54/54 87/55/55
f 87/55/55 51/54/54 52/56/56 88/57/57
f 88/57/57 52/56/56 53/58/58 89/59/59
f 89/59/59 53/58/58 54/60/60 90/61/61
f 90/61/61 54/60/60 55/62/62 91/63/63
f 91/63/63 55/62/62 56/64/64 92/65/65
f 92/65/65 56/64/64 57/66/66 93/67/67
f 93/67/67 57/66/66 58/68/68 94/69/69
f 94/69/69 58/68/68 59/70/70 95/71/71
f 95/71/71 59/70/70 60/72/72 96/73/73
f 85/74/74 62/75/39 63/76/49 74/77/75
f 74/77/75 63/76/49 64/78/48 75/79/76
f 75/79/76 64/78/48 65/80/47 76/81/77
f 76/81/77 65/80/47 66/82/46 77/83/78
f 77/83/78 66/82/46 67/84/45 78/85/79
f 78/85/79 67/84/45 68/86/44 79/87/80
f 79/87/80 68/86/44 69/88/43 80/89/81
f 80/89/81 69/88/43 70/90/42 81/91/82
f 81/91/82 70/90/42 71/92/41 82/93/83
f 82/93/83 71/92/41 72/94/40 83/95/84
f 83/95/84 72/94/40 73/96/38 84/97/85
f 84/97/85 73/96/38 62/75/39 85/74/74
f 60/98/86 84/97/85 85/74/74 61/99/87
f 59/100/88 83/95/84 84/97/85 60/98/86
f 58/101/89 82/93/83 83/95/84 59/100/88
f 57/102/90 81/91/82 82/93/83 58/101/89
f 56/103/91 80/89/81 81/91/82 57/102/90
f 55/104/92 79/87/80 80/89/81 56/103/91
f 54/105/93 78/85/79 79/87/80 55/104/92
f 53/106/94 77/83/78 78/85/79 54/105/93
f 52/107/95 76/81/77 77/83/78 53/106/94
f 51/108/96 75/79/76 76/81/77 52/107/95
f 50/109/97 74/77/75 75/79/76 51/108/96
f 61/99/87 85/74/74 74/77/75 50/109/97
f 13/110/98 96/111/73 97/112/50 2/113/99
f 12/114/100 95/115/71 96/111/73 13/110/98
f 11/116/101 94/117/69 95/115/71 12/114/100
f 10/118/102 93/119/67 94/117/69 11/116/101
f 9/120/103 92/121/65 93/119/67 10/118/102
f 8/122/104 91/123/63 92/121/65 9/120/103
f 7/124/105 90/125/61 91/123/63 8/122/104
f 6/126/106 89/127/59 90/125/61 7/124/105
f 5/128/107 88/129/57 89/127/59 6/126/106
f 4/130/108 87/131/55 88/129/57 5/128/107
f 3/132/109 86/133/53 87/131/55 4/130/108
f 2/113/99 97/112/50 86/133/53 3/132/109
f 96/73/73 60/72/72 61/51/51 97/50/50
f 99/134/110 100/135/111 98/136/112
f 100/135/111 101/137/113 98/136/112
f 101/137/113 102/138/114 98/136/112
f 102/138/114 103/139/115 98/136/112
f 103/139/115 104/140/116 98/136/112
f 104/140/116 105/141/117 98/136/112
f 105/141/117 106/142/118 98/136/112
f 106/142/118 107/143/119 98/136/112
f 107/143/119 108/144/120 98/136/112
f 108/144/120 109/145/121 98/136/112
f 109/145/121 110/146/122 98/136/112
f 110/146/122 99/134/110 98/136/112
f 121/147/123 122/148/124 99/134/110 110/146/122
f 120/149/125 121/147/123 110/146/122 109/145/121
f 119/150/126 120/149/125 109/145/121 108/144/120
f 118/151/127 119/150/126 108/144/120 107/143/119
f 117/152/128 118/151/127 107/143/119 106/142/118
f 116/153/129 117/152/128 106/142/118 105/141/117
f 115/154/130 116/153/129 105/141/117 104/140/116
f 114/155/131 115/154/130 104/140/116 103/139/115
f 113/156/132 114/155/131 103/139/115 102/138/114
f 112/157/133 113/156/132 102/138/114 101/137/113
f 111/158/134 112/157/133 101/137/113 100/135/111
f 122/148/124 111/158/134 100/135/111 99/134/110
f 134/159/135 123/160/136 111/158/134 122/148/124
f 123/160/136 124/161/137 112/157/133 111/158/134
f 124/161/137 125/162/138 113/156/132 112/157/133
f 125/162/138 126/163/139 114/155/131 113/156/132
f 126/163/139 127/164/140 115/154/130 114/155/131
f 127/164/140 128/165/141 116/153/129 115/154/130
f 128/165/141 129/166/142 117/152/128 116/153/129
f 129/166/142 130/167/143 118/151/127 117/152/128
f 130/167/143 131/168/144 119/150/126 118/151/127
f 131/168/144 132/169/145 120/149/125 119/150/126
f 132/169/145 133/170/146 121/147/123 120/149/125
f 133/170/146 134/159/135 122/148/124 121/147/123
f 158/171/147 147/172/148 134/159/135 133/170/146
f 157/173/149 158/171/147 133/170/146 132/169/145
f 156/174/150 157/173/149 132/169/145 131/168/144
f 155/175/151 156/174/150 131/168/144 130/167/143
f 154/176/152 155/175/151 130/167/143 129/166/142
f 153/177/153 154/176/152 129/166/142 128/165/141
f 152/178/154 153/177/153 128/165/141 127/164/140
f 151/179/155 152/178/154 127/164/140 126/163/139
f 150/180/156 151/179/155 126/163/139 125/162/138
f 149/181/157 150/180/156 125/162/138 124/161/137
f 148/182/158 149/181/157 124/161/137 123/160/136
f 147/172/148 148/182/158 123/160/136 134/159/135
f 182/183/159 171/184/160 135/185/161 146/186/162
f 171/184/160 172/187/163 136/188/164 135/185/161
f 172/187/163 173/189/165 137/190/166 136/188/164
f 173/189/165 174/191/167 138/192/168 137/190/166
f 174/191/167 175/193/169 139/194/170 138/192/168
f 175/193/169 176/195/171 140/196/172 139/194/170
f 176/195/171 177/197/173 141/198/174 140/196/172
f 177/197/173 178/199/175 142/200/176 141/198/174
f 178/199/175 179/201/177 143/202/178 142/200/176
f 179/201/177 180/203/179 144/204/180 143/202/178
f 180/203/179 181/205/181 145/206/182 144/204/180
f 170/207/183 159/208/184 148/209/158 147/210/148
f 159/208/184 160/211/185 149/212/157 148/209/158
f 160/211/185 161/213/186 150/214/156 149/212/157
f 161/213/186 162/215/187 151/216/155 150/214/156
f 162/215/187 163/217/188 152/218/154 151/216/155
f 163/217/188 164/219/189 153/220/153 152/218/154
f 164/219/189 165/221/190 154/222/152 153/220/153
f 165/221/190 166/223/191 155/224/151 154/222/152
f 166/223/191 167/225/192 156/226/150 155/224/151
f 167/225/192 168/227/193 157/228/149 156/226/150
f 168/227/193 169/229/194 158/230/147 157/228/149
f 169/229/194 170/207/183 147/210/148 158/230/147
f 145/231/195 146/232/196 170/207/183 169/229/194
f 144/233/197 145/231/195 169/229/194 168/227/193
f 143/234/198 144/233/197 168/227/193 167/225/192
f 142/235/199 143/234/198 167/225/192 166/223/191
f 141/236/200 142/235/199 166/223/191 165/221/190
f 140/237/201 141/236/200 165/221/190 164/219/189
f 139/238/202 140/237/201 164/219/189 163/217/188
f 138/239/203 139/238/202 163/217/188 162/215/187
f 137/240/204 138/239/203 162/215/187 161/213/186
f 136/241/205 137/240/204 161/213/186 160/211/185
f 135/242/206 136/241/205 160/211/185 159/208/184
f 146/232/196 135/242/206 159/208/184 170/207/183
f 13/110/98 2/113/99 182/243/159 181/244/181
f 12/114/100 13/110/98 181/244/181 180/245/179
f 11/116/101 12/114/100 180/245/179 179/246/177
f 10/118/102 11/116/101 179/246/177 178/247/175
f 9/120/103 10/118/102 178/247/175 177/248/173
f 8/122/104 9/120/103 177/248/173 176/249/171
f 7/124/105 8/122/104 176/249/171 175/250/169
f 6/126/106 7/124/105 175/250/169 174/251/167
f 5/128/107 6/126/106 174/251/167 173/252/165
f 4/130/108 5/128/107 173/252/165 172/253/163
f 3/132/109 4/130/108 172/253/163 171/254/160
f 2/113/99 3/132/109 171/254/160 182/243/159
f 181/205/181 182/183/159 146/186/162 145/206/182
