# Blender v3.4.1 OBJ File: 'Tiny_Treats_Bakery_Interior_1.1_ASSETS_EXPORT.blend'
# www.blender.org
mtllib mug_A_blue.mtl
o mug_A_blue
v 0.000000 0.335252 -0.127307
v 0.063239 0.335252 -0.110251
v 0.109532 0.335252 -0.063653
v 0.126477 0.335252 0.000000
v 0.109532 0.335252 0.063653
v 0.063239 0.335252 0.110251
v -0.000000 0.335252 0.127307
v -0.063239 0.335252 0.110251
v -0.109532 0.335252 0.063653
v -0.126477 0.335252 0.000000
v -0.109532 0.335252 -0.063653
v -0.063239 0.335252 -0.110251
v 0.093139 0.335252 -0.162380
v 0.000000 0.335252 -0.187500
v 0.161322 0.335252 -0.093750
v 0.186278 0.335252 0.000000
v 0.161322 0.335252 0.093750
v 0.093139 0.335252 0.162380
v -0.000000 0.335252 0.187500
v -0.093139 0.335252 0.162380
v -0.161322 0.335252 0.093750
v -0.186278 0.335252 0.000000
v -0.161322 0.335252 -0.093750
v -0.093139 0.335252 -0.162380
v 0.000000 0.036870 0.000000
v -0.000000 0.000000 -0.000000
v 0.000000 0.036870 -0.187500
v 0.093139 0.036870 -0.162380
v 0.161322 0.036870 -0.093750
v 0.186278 0.036870 0.000000
v 0.161322 0.036870 0.093750
v 0.093139 0.036870 0.162380
v -0.000000 0.036870 0.187500
v -0.093139 0.036870 0.162380
v -0.161322 0.036870 0.093750
v -0.186278 0.036870 0.000000
v -0.161322 0.036870 -0.093750
v -0.093139 0.036870 -0.162380
v 0.000000 0.350000 -0.157403
v 0.078189 0.350000 -0.136315
v 0.135427 0.350000 -0.078702
v 0.156378 0.350000 0.000000
v 0.135427 0.350000 0.078702
v 0.078189 0.350000 0.136315
v -0.000000 0.350000 0.157403
v -0.078189 0.350000 0.136315
v -0.135427 0.350000 0.078702
v -0.156378 0.350000 0.000000
v -0.135427 0.350000 -0.078702
v -0.078189 0.350000 -0.136315
v 0.162208 0.303312 0.032981
v 0.162153 0.269762 0.033122
v 0.162037 0.254606 0.000000
v 0.162153 0.269762 -0.033122
v 0.162208 0.303312 -0.032981
v 0.162208 0.053186 0.032981
v 0.162153 0.086735 0.033122
v 0.162037 0.101891 0.000000
v 0.162153 0.086735 -0.033122
v 0.162208 0.053186 -0.032981
v 0.262599 0.302090 0.034551
v 0.260380 0.264369 0.035002
v 0.257750 0.248355 0.000000
v 0.260380 0.264369 -0.035002
v 0.262599 0.302090 -0.034551
v 0.262599 0.054408 0.034551
v 0.260380 0.092129 0.035002
v 0.257750 0.108142 0.000000
v 0.260380 0.092129 -0.035002
v 0.262599 0.054408 -0.034551
v 0.073854 0.000000 -0.128758
v 0.000000 0.000000 -0.148677
v 0.127919 0.000000 -0.074339
v 0.147708 -0.000000 0.000000
v 0.127919 -0.000000 0.074339
v 0.073854 -0.000000 0.128758
v -0.000000 -0.000000 0.148677
v -0.073854 -0.000000 0.128758
v -0.127919 -0.000000 0.074339
v -0.147708 0.000000 -0.000000
v -0.127919 0.000000 -0.074339
v -0.073854 0.000000 -0.128758
v 0.063239 0.036870 -0.110251
v 0.000000 0.036870 -0.127307
v 0.109532 0.036870 -0.063653
v 0.126477 0.036870 0.000000
v 0.109532 0.036870 0.063653
v 0.063239 0.036870 0.110251
v -0.000000 0.036870 0.127307
v -0.063239 0.036870 0.110251
v -0.109532 0.036870 0.063653
v -0.126477 0.036870 0.000000
v -0.109532 0.036870 -0.063653
v -0.063239 0.036870 -0.110251
v 0.000000 0.090015 -0.207425
v 0.000000 0.282107 -0.207425
v 0.000000 0.186061 -0.215760
v 0.103037 0.282109 -0.179635
v 0.103037 0.090013 -0.179635
v 0.107177 0.186061 -0.186853
v -0.103037 0.282109 -0.179635
v -0.103037 0.090013 -0.179635
v -0.107177 0.186061 -0.186853
v 0.178464 0.282111 -0.103712
v 0.178464 0.090011 -0.103712
v 0.185635 0.186061 -0.107879
v 0.206072 0.090010 0.000000
v 0.206072 0.282112 0.000000
v 0.214353 0.186061 0.000000
v 0.178464 0.090011 0.103712
v 0.178464 0.282111 0.103712
v 0.185635 0.186061 0.107879
v 0.103037 0.090013 0.179635
v 0.103037 0.282109 0.179635
v 0.107177 0.186061 0.186853
v -0.000000 0.090015 0.207425
v -0.000000 0.282107 0.207425
v -0.000000 0.186061 0.215760
v -0.103037 0.090013 0.179635
v -0.103037 0.282109 0.179635
v -0.107177 0.186061 0.186853
v -0.178464 0.090011 0.103712
v -0.178464 0.282111 0.103712
v -0.185635 0.186061 0.107879
v -0.206072 0.090010 0.000000
v -0.206072 0.282112 0.000000
v -0.214353 0.186061 0.000000
v -0.178464 0.090011 -0.103712
v -0.178464 0.282111 -0.103712
v -0.185635 0.186061 -0.107879
v 0.317453 0.218575 0.035173
v 0.293880 0.249869 0.035120
v 0.293880 0.106628 0.035120
v 0.317453 0.137922 0.035173
v 0.282681 0.237465 0.000000
v 0.303798 0.207541 0.000000
v 0.303797 0.148957 0.000000
v 0.282681 0.119032 0.000000
v 0.293880 0.249869 -0.035120
v 0.317453 0.218575 -0.035172
v 0.317453 0.137922 -0.035172
v 0.293880 0.106628 -0.035120
v 0.308069 0.288681 0.034451
v 0.338951 0.256221 0.034411
v 0.338951 0.256221 -0.034411
v 0.308069 0.288681 -0.034451
v 0.338951 0.100277 0.034411
v 0.308069 0.067817 0.034451
v 0.308069 0.067817 -0.034451
v 0.338951 0.100277 -0.034411
v 0.361657 0.154146 0.034407
v 0.361657 0.202352 0.034407
v 0.325303 0.161291 0.035186
v 0.325302 0.195207 0.035186
v 0.308021 0.162245 0.000000
v 0.308021 0.194252 0.000000
v 0.325303 0.161291 -0.035186
v 0.325303 0.195207 -0.035186
v 0.361657 0.154146 -0.034407
v 0.361657 0.202352 -0.034407
v 0.162198 0.311134 0.017495
v 0.162198 0.311134 -0.017495
v 0.162198 0.045363 -0.017495
v 0.162198 0.045363 0.017495
v 0.263259 0.310705 0.017503
v 0.263259 0.310705 -0.017503
v 0.263259 0.045792 -0.017503
v 0.263259 0.045792 0.017503
v 0.344470 0.264619 0.016905
v 0.344470 0.264619 -0.016905
v 0.311780 0.297277 -0.017251
v 0.311780 0.297277 0.017251
v 0.311780 0.059220 0.017251
v 0.311780 0.059220 -0.017251
v 0.344470 0.091879 -0.016905
v 0.344470 0.091879 0.016905
v 0.370796 0.203545 -0.016792
v 0.370796 0.203545 0.016793
v 0.370796 0.152952 0.016793
v 0.370796 0.152952 -0.016792
vt 0.444440 0.628016
vt 0.444440 0.630328
vt 0.447834 0.630328
vt 0.447834 0.628016
vt 0.449076 0.628016
vt 0.449076 0.630328
vt 0.447834 0.630328
vt 0.447834 0.628016
vt 0.444440 0.630328
vt 0.444440 0.628016
vt 0.439804 0.630328
vt 0.439804 0.628016
vt 0.435168 0.630328
vt 0.435168 0.628016
vt 0.431775 0.630328
vt 0.431775 0.628016
vt 0.430532 0.630328
vt 0.430532 0.628016
vt 0.431775 0.630328
vt 0.431775 0.628016
vt 0.435168 0.630328
vt 0.435168 0.628016
vt 0.442952 0.609747
vt 0.439804 0.609747
vt 0.439804 0.596766
vt 0.442952 0.596766
vt 0.431775 0.638685
vt 0.431775 0.640997
vt 0.435168 0.640997
vt 0.435168 0.638685
vt 0.439804 0.630328
vt 0.439804 0.628016
vt 0.439804 0.672989
vt 0.443696 0.672989
vt 0.444440 0.672247
vt 0.439804 0.672247
vt 0.446545 0.672989
vt 0.447834 0.672247
vt 0.447588 0.672989
vt 0.449076 0.672247
vt 0.446545 0.672989
vt 0.447834 0.672247
vt 0.443696 0.672989
vt 0.444440 0.672247
vt 0.439804 0.672989
vt 0.439804 0.672247
vt 0.435912 0.672989
vt 0.435168 0.672247
vt 0.433063 0.672989
vt 0.431775 0.672247
vt 0.432021 0.672989
vt 0.430532 0.672247
vt 0.433063 0.672989
vt 0.431775 0.672247
vt 0.435912 0.672989
vt 0.435168 0.672247
vt 0.434352 0.609747
vt 0.436657 0.609747
vt 0.436657 0.596766
vt 0.434352 0.596766
vt 0.442952 0.609747
vt 0.445256 0.609747
vt 0.445256 0.596766
vt 0.442952 0.596766
vt 0.436657 0.609747
vt 0.436657 0.596766
vt 0.445256 0.609747
vt 0.445256 0.596766
vt 0.433509 0.609747
vt 0.433509 0.596766
vt 0.439804 0.609747
vt 0.439804 0.596766
vt 0.446100 0.609747
vt 0.446100 0.596766
vt 0.434352 0.609747
vt 0.434352 0.596766
vt 0.439804 0.612391
vt 0.444440 0.612391
vt 0.443480 0.610537
vt 0.439804 0.610537
vt 0.447834 0.612391
vt 0.446172 0.610537
vt 0.449076 0.612391
vt 0.447157 0.610537
vt 0.447834 0.612391
vt 0.446172 0.610537
vt 0.444440 0.612391
vt 0.443480 0.610537
vt 0.439804 0.612391
vt 0.439804 0.610537
vt 0.435168 0.612391
vt 0.436128 0.610537
vt 0.431775 0.612391
vt 0.433437 0.610537
vt 0.430532 0.612391
vt 0.432452 0.610537
vt 0.431775 0.612391
vt 0.433437 0.610537
vt 0.435168 0.612391
vt 0.436128 0.610537
vt 0.436657 0.656622
vt 0.439804 0.656622
vt 0.439804 0.657364
vt 0.435912 0.657364
vt 0.434352 0.656622
vt 0.433063 0.657364
vt 0.433509 0.656622
vt 0.432021 0.657364
vt 0.434352 0.656622
vt 0.433063 0.657364
vt 0.436657 0.656622
vt 0.435912 0.657364
vt 0.439804 0.656622
vt 0.439804 0.657364
vt 0.442952 0.656622
vt 0.443696 0.657364
vt 0.445256 0.656622
vt 0.446545 0.657364
vt 0.446100 0.656622
vt 0.447588 0.657364
vt 0.445256 0.656622
vt 0.446545 0.657364
vt 0.442952 0.656622
vt 0.443696 0.657364
vt 0.448398 0.663635
vt 0.451130 0.663950
vt 0.451156 0.663193
vt 0.448398 0.663073
vt 0.448398 0.631823
vt 0.451156 0.631943
vt 0.451168 0.630294
vt 0.448398 0.630292
vt 0.452130 0.618419
vt 0.452804 0.618387
vt 0.452791 0.618123
vt 0.452127 0.618368
vt 0.452796 0.663513
vt 0.452597 0.663582
vt 0.451168 0.670207
vt 0.451166 0.670564
vt 0.448398 0.663073
vt 0.451156 0.663193
vt 0.453667 0.619112
vt 0.453889 0.618654
vt 0.453603 0.615128
vt 0.453411 0.615302
vt 0.451166 0.670564
vt 0.451168 0.670207
vt 0.452597 0.663582
vt 0.452796 0.663513
vt 0.448398 0.670560
vt 0.448398 0.670209
vt 0.451156 0.606058
vt 0.448398 0.606178
vt 0.448398 0.605616
vt 0.451130 0.605301
vt 0.448398 0.606178
vt 0.451156 0.606058
vt 0.451156 0.637308
vt 0.448398 0.637428
vt 0.448398 0.638959
vt 0.451168 0.638957
vt 0.448398 0.598691
vt 0.451166 0.598687
vt 0.451168 0.599044
vt 0.448398 0.599042
vt 0.448398 0.630292
vt 0.451168 0.630294
vt 0.451156 0.631943
vt 0.448398 0.631823
vt 0.451168 0.638957
vt 0.448398 0.638959
vt 0.448398 0.637428
vt 0.451156 0.637308
vt 0.452008 0.632481
vt 0.452597 0.625992
vt 0.453667 0.645579
vt 0.454472 0.637462
vt 0.453060 0.635282
vt 0.452983 0.635535
vt 0.452008 0.663731
vt 0.451317 0.664057
vt 0.452008 0.663731
vt 0.454472 0.638592
vt 0.454872 0.638322
vt 0.454872 0.631354
vt 0.454472 0.631086
vt 0.451317 0.605195
vt 0.452008 0.605520
vt 0.452791 0.619878
vt 0.452127 0.619633
vt 0.452130 0.619582
vt 0.452804 0.619614
vt 0.452791 0.619878
vt 0.452804 0.619614
vt 0.453060 0.634055
vt 0.454472 0.632685
vt 0.453667 0.625749
vt 0.452983 0.633780
vt 0.453667 0.625749
vt 0.454472 0.632685
vt 0.453060 0.634055
vt 0.452983 0.633780
vt 0.452983 0.635535
vt 0.453060 0.635282
vt 0.454472 0.637462
vt 0.453667 0.645580
vt 0.452597 0.625992
vt 0.452008 0.632481
vt 0.452597 0.644822
vt 0.452008 0.636770
vt 0.451166 0.598687
vt 0.451168 0.599044
vt 0.452597 0.604152
vt 0.452796 0.604122
vt 0.452796 0.604122
vt 0.452597 0.604152
vt 0.448398 0.599042
vt 0.448398 0.598691
vt 0.439804 0.594912
vt 0.439804 0.594912
vt 0.443480 0.594912
vt 0.446172 0.594912
vt 0.447157 0.594912
vt 0.446172 0.594912
vt 0.443480 0.594912
vt 0.439804 0.594912
vt 0.436128 0.594912
vt 0.433437 0.594912
vt 0.432452 0.594912
vt 0.433437 0.594912
vt 0.436128 0.594912
vt 0.439804 0.628016
vt 0.442952 0.628016
vt 0.439804 0.628016
vt 0.445256 0.628016
vt 0.446100 0.628016
vt 0.445256 0.628016
vt 0.442952 0.628016
vt 0.439804 0.628016
vt 0.436657 0.628016
vt 0.434352 0.628016
vt 0.433509 0.628016
vt 0.434352 0.628016
vt 0.436657 0.628016
vt 0.452008 0.605520
vt 0.452008 0.636770
vt 0.452597 0.644822
vt 0.439804 0.640997
vt 0.439804 0.638685
vt 0.444440 0.638685
vt 0.444440 0.640997
vt 0.447834 0.640997
vt 0.447834 0.638685
vt 0.430532 0.638685
vt 0.430532 0.640997
vt 0.431775 0.638685
vt 0.431775 0.640997
vt 0.435168 0.638685
vt 0.435168 0.640997
vt 0.439804 0.638685
vt 0.439804 0.640997
vt 0.444440 0.638685
vt 0.444440 0.640997
vt 0.447834 0.638685
vt 0.447834 0.640997
vt 0.449076 0.638685
vt 0.449076 0.640997
vt 0.444416 0.634506
vt 0.439804 0.634506
vt 0.447790 0.634506
vt 0.435192 0.634506
vt 0.431819 0.634506
vt 0.430586 0.634506
vt 0.431819 0.634506
vt 0.435192 0.634506
vt 0.439804 0.634507
vt 0.444416 0.634506
vt 0.447790 0.634506
vt 0.449023 0.634507
vt 0.453667 0.650269
vt 0.453889 0.650674
vt 0.453603 0.654109
vt 0.453411 0.653986
vt 0.452084 0.604756
vt 0.452719 0.605035
vt 0.452719 0.664216
vt 0.452084 0.664495
vt 0.452719 0.605035
vt 0.452719 0.664216
vt 0.453889 0.650674
vt 0.453667 0.650269
vt 0.453411 0.653986
vt 0.453603 0.654109
vt 0.454872 0.631354
vt 0.454472 0.631086
vt 0.453667 0.619112
vt 0.453889 0.618654
vt 0.453411 0.615302
vt 0.453603 0.615128
vt 0.452804 0.618387
vt 0.452791 0.618123
vt 0.454872 0.638322
vt 0.454472 0.638592
vt 0.448398 0.670560
vt 0.448398 0.670209
vn 0.4242 -0.5351 -0.7306
vn 0.4902 -0.2158 -0.8445
vn 0.8469 -0.2152 -0.4863
vn 0.7332 -0.5341 -0.4209
vn 0.8457 -0.5336 0.0000
vn 0.9766 -0.2149 0.0000
vn 0.8469 -0.2152 0.4863
vn 0.7332 -0.5341 0.4209
vn 0.4902 -0.2158 0.8445
vn 0.4242 -0.5351 0.7306
vn -0.0000 -0.2161 0.9764
vn -0.0000 -0.5356 0.8445
vn -0.4902 -0.2158 0.8445
vn -0.4242 -0.5351 0.7306
vn -0.8469 -0.2152 0.4863
vn -0.7332 -0.5341 0.4209
vn -0.9766 -0.2149 -0.0000
vn -0.8457 -0.5336 -0.0000
vn -0.8469 -0.2152 -0.4863
vn -0.7332 -0.5341 -0.4209
vn -0.4902 -0.2158 -0.8445
vn -0.4242 -0.5351 -0.7306
vn -0.5021 -0.0000 0.8648
vn 0.0000 -0.0000 1.0000
vn -0.8469 0.2152 -0.4863
vn -0.6651 0.6418 -0.3818
vn -0.3848 0.6425 -0.6626
vn -0.4902 0.2158 -0.8445
vn 0.0000 -0.2161 -0.9764
vn 0.0000 -0.5356 -0.8445
vn 0.0000 0.8980 -0.4400
vn 0.2216 0.8977 -0.3808
vn 0.3848 0.6425 -0.6626
vn 0.0000 0.6429 -0.7660
vn 0.3833 0.8971 -0.2196
vn 0.6651 0.6418 -0.3818
vn 0.4424 0.8968 0.0000
vn 0.7671 0.6415 0.0000
vn 0.3833 0.8971 0.2196
vn 0.6651 0.6418 0.3818
vn 0.2216 0.8977 0.3808
vn 0.3848 0.6425 0.6626
vn -0.0000 0.8980 0.4400
vn -0.0000 0.6429 0.7660
vn -0.2216 0.8977 0.3808
vn -0.3848 0.6425 0.6626
vn -0.3833 0.8971 0.2196
vn -0.6651 0.6418 0.3818
vn -0.4424 0.8968 0.0000
vn -0.7671 0.6415 0.0000
vn -0.3833 0.8971 -0.2196
vn -0.2216 0.8977 -0.3808
vn 0.8672 0.0000 -0.4979
vn 0.5021 0.0000 -0.8648
vn -0.5021 0.0000 -0.8648
vn -0.8672 0.0000 -0.4979
vn 0.5021 -0.0000 0.8648
vn -0.8672 -0.0000 0.4979
vn 1.0000 0.0000 0.0000
vn 0.0000 0.0000 -1.0000
vn -1.0000 -0.0000 0.0000
vn 0.8672 -0.0000 0.4979
vn 0.2122 -0.9066 -0.3648
vn 0.0000 -0.9067 -0.4218
vn 0.3666 -0.9063 -0.2101
vn 0.4228 -0.9062 -0.0000
vn 0.3666 -0.9063 0.2101
vn 0.2122 -0.9066 0.3648
vn -0.0000 -0.9067 0.4218
vn -0.2122 -0.9066 0.3648
vn -0.3666 -0.9063 0.2101
vn -0.4228 -0.9062 -0.0000
vn -0.3666 -0.9063 -0.2101
vn -0.2122 -0.9066 -0.3648
vn 0.2210 0.8977 0.3812
vn 0.3830 0.8971 0.2202
vn 0.3830 0.8971 -0.2202
vn 0.2210 0.8977 -0.3812
vn -0.2210 0.8977 -0.3812
vn -0.3830 0.8971 -0.2202
vn -0.3830 0.8971 0.2202
vn -0.2210 0.8977 0.3812
vn -0.0644 0.9979 0.0000
vn -0.2389 0.9710 0.0000
vn -0.2120 0.8828 -0.4192
vn -0.0585 0.9069 -0.4173
vn -0.0171 -0.0088 -0.9998
vn -0.0052 -0.0115 -0.9999
vn -0.0069 -0.0111 -0.9999
vn -0.8871 0.1467 -0.4377
vn -0.8882 0.1384 -0.4382
vn -0.7977 0.4180 -0.4347
vn -0.8053 0.4036 -0.4342
vn 0.4894 0.8392 -0.2374
vn 0.4586 0.7494 -0.4776
vn 0.1284 0.8790 -0.4591
vn 0.1339 0.9634 -0.2321
vn -0.0585 0.9069 0.4173
vn -0.2120 0.8828 0.4192
vn 0.7509 -0.4742 -0.4596
vn 0.8016 -0.5511 -0.2317
vn 0.4894 -0.8392 -0.2374
vn 0.4586 -0.7494 -0.4776
vn 0.1339 0.9634 0.2321
vn 0.1284 0.8790 0.4591
vn 0.4586 0.7494 0.4776
vn 0.4894 0.8392 0.2374
vn 0.0041 0.9728 0.2316
vn 0.0038 0.8925 0.4510
vn -0.2120 -0.8828 0.4192
vn -0.0585 -0.9069 0.4173
vn -0.0644 -0.9979 0.0000
vn -0.2389 -0.9710 0.0000
vn -0.0585 -0.9069 -0.4173
vn -0.2120 -0.8828 -0.4192
vn -0.0052 0.0115 -0.9999
vn -0.0171 0.0088 -0.9998
vn -0.0069 0.0111 -0.9999
vn 0.0041 -0.9728 0.2316
vn 0.1339 -0.9634 0.2321
vn 0.1284 -0.8790 0.4591
vn 0.0038 -0.8925 0.4510
vn -0.0171 -0.0088 0.9998
vn -0.0069 -0.0111 0.9999
vn -0.0052 -0.0115 0.9999
vn -0.0069 0.0111 0.9999
vn -0.0171 0.0088 0.9998
vn -0.0052 0.0115 0.9999
vn 0.0101 -0.0128 -0.9999
vn 0.0086 -0.0130 -0.9999
vn 0.0161 0.0108 -0.9998
vn 0.0209 0.0041 -0.9998
vn 0.0209 0.0040 -0.9998
vn 0.0182 0.0095 -0.9998
vn -0.5659 0.7003 0.4352
vn -0.6215 0.7834 0.0000
vn -0.5659 0.7003 -0.4352
vn 0.8702 0.1822 -0.4578
vn 0.9539 0.1943 -0.2289
vn 0.9539 -0.1943 -0.2289
vn 0.8702 -0.1822 -0.4578
vn -0.6215 -0.7834 -0.0000
vn -0.5659 -0.7003 0.4352
vn -0.7977 -0.4180 0.4347
vn -0.8053 -0.4036 0.4342
vn -0.8871 -0.1467 0.4377
vn -0.8882 -0.1384 0.4382
vn -0.8053 -0.4036 -0.4342
vn -0.7977 -0.4180 -0.4347
vn -0.8882 -0.1384 -0.4382
vn -0.8871 -0.1467 -0.4377
vn 0.0209 -0.0040 -0.9998
vn 0.0209 -0.0041 -0.9998
vn 0.0161 -0.0108 -0.9998
vn 0.0182 -0.0095 -0.9998
vn 0.0161 -0.0108 0.9998
vn 0.0209 -0.0041 0.9998
vn 0.0209 -0.0040 0.9998
vn 0.0182 -0.0095 0.9998
vn 0.0182 0.0095 0.9998
vn 0.0209 0.0040 0.9998
vn 0.0209 0.0041 0.9998
vn 0.0161 0.0108 0.9998
vn 0.0086 -0.0130 0.9999
vn 0.0101 -0.0128 0.9999
vn 0.0086 0.0130 -0.9999
vn 0.0101 0.0128 -0.9999
vn 0.1339 -0.9634 -0.2321
vn 0.1284 -0.8790 -0.4591
vn 0.4894 -0.8392 0.2374
vn 0.4586 -0.7494 0.4776
vn 0.0038 -0.8925 -0.4510
vn 0.0041 -0.9728 -0.2316
vn 0.0000 -1.0000 -0.0000
vn -0.0000 1.0000 0.0000
vn -0.5659 -0.7003 -0.4352
vn 0.0101 0.0128 0.9999
vn 0.0086 0.0130 0.9999
vn 0.0000 0.2161 -0.9764
vn 0.4902 0.2158 -0.8445
vn 0.8469 0.2152 -0.4863
vn -0.9766 0.2149 -0.0000
vn -0.8469 0.2152 0.4863
vn -0.4902 0.2158 0.8445
vn -0.0000 0.2161 0.9764
vn 0.4902 0.2158 0.8445
vn 0.8469 0.2152 0.4863
vn 0.9766 0.2149 0.0000
vn 0.7509 0.4742 0.4596
vn 0.8016 0.5511 0.2317
vn -0.7977 0.4180 0.4347
vn -0.8053 0.4036 0.4342
vn 0.8016 0.5511 -0.2317
vn 0.7509 0.4742 -0.4596
vn 0.9539 -0.1943 0.2289
vn 0.8702 -0.1822 0.4578
vn 0.7509 -0.4742 0.4596
vn 0.8016 -0.5511 0.2317
vn -0.8882 0.1384 0.4382
vn -0.8871 0.1467 0.4377
vn 0.9539 0.1943 0.2289
vn 0.8702 0.1822 0.4578
vn 0.0041 0.9728 -0.2316
vn 0.0038 0.8925 -0.4510
usemtl tiny_treats_1
s 1
f 28/1/1 99/2/2 105/3/3 29/4/4
f 30/5/5 107/6/6 110/7/7 31/8/8
f 31/8/8 110/7/7 113/9/9 32/10/10
f 32/10/10 113/9/9 116/11/11 33/12/12
f 33/12/12 116/11/11 119/13/13 34/14/14
f 34/14/14 119/13/13 122/15/15 35/16/16
f 35/16/16 122/15/15 125/17/17 36/18/18
f 36/18/18 125/17/17 128/19/19 37/20/20
f 37/20/20 128/19/19 102/21/21 38/22/22
f 2/23/23 1/24/24 84/25/24 83/26/23
f 129/27/25 23/28/26 24/29/27 101/30/28
f 38/22/22 102/21/21 95/31/29 27/32/30
f 39/33/31 40/34/32 13/35/33 14/36/34
f 40/34/32 41/37/35 15/38/36 13/35/33
f 41/37/35 42/39/37 16/40/38 15/38/36
f 42/39/37 43/41/39 17/42/40 16/40/38
f 43/41/39 44/43/41 18/44/42 17/42/40
f 44/43/41 45/45/43 19/46/44 18/44/42
f 45/45/43 46/47/45 20/48/46 19/46/44
f 46/47/45 47/49/47 21/50/48 20/48/46
f 47/49/47 48/51/49 22/52/50 21/50/48
f 48/51/49 49/53/51 23/54/26 22/52/50
f 49/53/51 50/55/52 24/56/27 23/54/26
f 50/55/52 39/33/31 14/36/34 24/56/27
f 9/57/53 8/58/54 90/59/54 91/60/53
f 6/61/55 5/62/56 87/63/56 88/64/55
f 1/24/24 12/65/57 94/66/57 84/25/24
f 3/67/58 2/23/23 83/26/23 85/68/58
f 10/69/59 9/57/53 91/60/53 92/70/59
f 7/71/60 6/61/55 88/64/55 89/72/60
f 4/73/61 3/67/58 85/68/58 86/74/61
f 11/75/62 10/69/59 92/70/59 93/76/62
f 8/58/54 7/71/60 89/72/60 90/59/54
f 5/62/56 4/73/61 86/74/61 87/63/56
f 12/65/57 11/75/62 93/76/62 94/66/57
f 27/77/30 28/78/1 71/79/63 72/80/64
f 28/78/1 29/81/4 73/82/65 71/79/63
f 29/81/4 30/83/5 74/84/66 73/82/65
f 30/83/5 31/85/8 75/86/67 74/84/66
f 31/85/8 32/87/10 76/88/68 75/86/67
f 32/87/10 33/89/12 77/90/69 76/88/68
f 33/89/12 34/91/14 78/92/70 77/90/69
f 34/91/14 35/93/16 79/94/71 78/92/70
f 35/93/16 36/95/18 80/96/72 79/94/71
f 36/95/18 37/97/20 81/98/73 80/96/72
f 37/97/20 38/99/22 82/100/74 81/98/73
f 38/99/22 27/77/30 72/80/64 82/100/74
f 12/101/41 1/102/43 39/103/43 50/104/75
f 11/105/39 12/101/41 50/104/75 49/106/76
f 10/107/37 11/105/39 49/106/76 48/108/37
f 9/109/35 10/107/37 48/108/37 47/110/77
f 8/111/32 9/109/35 47/110/77 46/112/78
f 7/113/31 8/111/32 46/112/78 45/114/31
f 6/115/52 7/113/31 45/114/31 44/116/79
f 5/117/51 6/115/52 44/116/79 43/118/80
f 4/119/49 5/117/51 43/118/80 42/120/49
f 3/121/47 4/119/49 42/120/49 41/122/81
f 2/123/45 3/121/47 41/122/81 40/124/82
f 1/102/43 2/123/45 40/124/82 39/103/43
f 58/125/83 68/126/84 69/127/85 59/128/86
f 59/129/87 69/130/88 70/131/89 60/132/87
f 155/133/90 157/134/91 141/135/92 137/136/93
f 171/137/94 146/138/95 65/139/96 166/140/97
f 57/141/98 67/142/99 68/126/84 58/125/83
f 150/143/100 175/144/101 174/145/102 149/146/103
f 165/147/104 61/148/105 143/149/106 172/150/107
f 165/147/104 161/151/108 51/152/109 61/148/105
f 62/153/110 52/154/111 53/155/112 63/156/113
f 63/156/113 53/155/112 54/157/114 64/158/115
f 64/159/116 54/160/117 55/161/117 65/162/118
f 164/163/119 168/164/120 66/165/121 56/166/122
f 56/167/123 66/168/124 67/169/125 57/170/123
f 61/171/126 51/172/127 52/173/127 62/174/128
f 142/175/129 149/176/130 70/131/89 69/130/88
f 145/177/131 160/178/132 158/179/133 140/180/134
f 133/181/135 138/182/136 68/126/84 67/142/99
f 138/182/136 142/183/137 69/127/85 68/126/84
f 160/184/138 177/185/139 180/186/140 159/187/141
f 62/153/110 63/156/113 135/188/142 132/189/143
f 131/190/144 136/191/145 156/192/146 154/193/147
f 136/191/148 140/194/149 158/195/150 156/192/151
f 157/196/152 159/197/153 150/198/154 141/199/155
f 147/200/156 151/201/157 153/202/158 134/203/159
f 131/204/160 154/205/161 152/206/162 144/207/163
f 148/208/164 133/209/165 67/169/125 66/168/124
f 64/159/116 65/162/118 146/210/166 139/211/167
f 167/212/168 70/213/169 149/214/103 174/215/102
f 159/187/141 180/186/140 175/144/101 150/143/100
f 173/216/170 148/217/171 66/165/121 168/164/120
f 60/218/172 70/213/169 167/212/168 163/219/173
f 26/220/174 72/221/64 71/222/63
f 26/220/174 71/222/63 73/223/65
f 26/220/174 73/223/65 74/224/66
f 26/220/174 74/224/66 75/225/67
f 26/220/174 75/225/67 76/226/68
f 26/220/174 76/226/68 77/227/69
f 26/220/174 77/227/69 78/228/70
f 26/220/174 78/228/70 79/229/71
f 26/220/174 79/229/71 80/230/72
f 26/220/174 80/230/72 81/231/73
f 26/220/174 81/231/73 82/232/74
f 26/220/174 82/232/74 72/221/64
f 25/233/175 83/234/175 84/235/175
f 25/233/175 85/236/175 83/234/175
f 25/233/175 86/237/175 85/236/175
f 25/233/175 87/238/175 86/237/175
f 25/233/175 88/239/175 87/238/175
f 25/233/175 89/240/175 88/239/175
f 25/233/175 90/241/175 89/240/175
f 25/233/175 91/242/175 90/241/175
f 25/233/175 92/243/175 91/242/175
f 25/233/175 93/244/175 92/243/175
f 25/233/175 94/245/175 93/244/175
f 25/233/175 84/235/175 94/245/175
f 63/156/113 64/158/115 139/246/176 135/188/142
f 61/171/126 62/174/128 132/247/177 143/248/178
f 101/30/28 24/29/27 14/249/34 96/250/179
f 98/251/180 13/252/33 15/253/36 104/254/181
f 29/4/4 105/3/3 107/6/6 30/5/5
f 126/255/182 22/256/50 23/28/26 129/27/25
f 123/257/183 21/258/48 22/256/50 126/255/182
f 120/259/184 20/260/46 21/258/48 123/257/183
f 117/261/185 19/262/44 20/260/46 120/259/184
f 114/263/186 18/264/42 19/262/44 117/261/185
f 111/265/187 17/266/40 18/264/42 114/263/186
f 108/267/188 16/268/38 17/266/40 111/265/187
f 104/254/181 15/253/36 16/268/38 108/267/188
f 27/32/30 95/31/29 99/2/2 28/1/1
f 96/250/179 98/251/180 100/269/54 97/270/60
f 97/270/60 100/269/54 99/2/2 95/31/29
f 98/251/180 104/254/181 106/271/53 100/269/54
f 100/269/54 106/271/53 105/3/3 99/2/2
f 129/27/25 101/30/28 103/272/55 130/273/56
f 130/273/56 103/272/55 102/21/21 128/19/19
f 126/255/182 129/27/25 130/273/56 127/274/61
f 127/274/61 130/273/56 128/19/19 125/17/17
f 123/257/183 126/255/182 127/274/61 124/275/58
f 124/275/58 127/274/61 125/17/17 122/15/15
f 120/259/184 123/257/183 124/275/58 121/276/23
f 121/276/23 124/275/58 122/15/15 119/13/13
f 117/261/185 120/259/184 121/276/23 118/277/24
f 118/277/24 121/276/23 119/13/13 116/11/11
f 114/263/186 117/261/185 118/277/24 115/278/57
f 115/278/57 118/277/24 116/11/11 113/9/9
f 111/265/187 114/263/186 115/278/57 112/279/62
f 112/279/62 115/278/57 113/9/9 110/7/7
f 108/267/188 111/265/187 112/279/62 109/280/59
f 109/280/59 112/279/62 110/7/7 107/6/6
f 104/254/181 108/267/188 109/280/59 106/271/53
f 106/271/53 109/280/59 107/6/6 105/3/3
f 101/30/28 96/250/179 97/270/60 103/272/55
f 103/272/55 97/270/60 95/31/29 102/21/21
f 96/250/179 14/249/34 13/252/33 98/251/180
f 144/281/189 169/282/190 172/283/107 143/284/106
f 132/189/143 135/188/142 136/285/145 131/286/144
f 138/182/136 133/181/135 134/287/191 137/288/192
f 135/188/142 139/246/176 140/289/149 136/285/148
f 142/183/137 138/182/136 137/288/93 141/290/92
f 170/291/193 145/292/194 146/293/95 171/294/94
f 179/295/195 151/296/196 147/297/197 176/298/198
f 176/298/198 147/297/197 148/299/171 173/300/170
f 177/185/139 160/184/138 145/292/194 170/291/193
f 131/204/160 144/207/163 143/248/178 132/247/177
f 147/200/156 134/203/159 133/209/165 148/208/164
f 145/177/131 140/180/134 139/211/167 146/210/166
f 141/199/155 150/198/154 149/176/130 142/175/129
f 153/301/199 155/133/200 137/136/192 134/302/191
f 151/296/196 179/295/195 178/303/201 152/304/202
f 159/197/153 157/196/152 158/179/133 160/178/132
f 157/134/91 155/133/90 156/192/151 158/195/150
f 155/133/200 153/301/199 154/193/147 156/192/146
f 153/202/158 151/201/157 152/206/162 154/205/161
f 144/281/189 152/304/202 178/303/201 169/282/190
f 166/140/97 162/305/203 161/151/108 165/147/104
f 168/164/120 164/163/119 163/219/173 167/212/168
f 170/291/193 171/294/94 172/283/107 169/282/190
f 174/145/102 175/144/101 176/298/198 173/300/170
f 165/147/104 172/150/107 171/137/94 166/140/97
f 173/216/170 168/164/120 167/212/168 174/215/102
f 178/303/201 179/295/195 180/186/140 177/185/139
f 169/282/190 178/303/201 177/185/139 170/291/193
f 175/144/101 180/186/140 179/295/195 176/298/198
f 65/139/96 55/306/204 162/305/203 166/140/97
