# Blender v3.4.1 OBJ File: 'Tiny_Treats_Bakery_Interior_1.1_ASSETS_EXPORT.blend'
# www.blender.org
mtllib serving_tray.mtl
o serving_tray
v -0.400000 -0.000000 0.375000
v -0.500000 -0.000000 0.275000
v -0.470711 -0.000000 0.345711
v -0.500000 0.000000 -0.275000
v -0.400000 0.000000 -0.375000
v -0.470711 0.000000 -0.345711
v 0.500000 -0.000000 0.275000
v 0.400000 -0.000000 0.375000
v 0.470711 -0.000000 0.345711
v 0.400000 0.000000 -0.375000
v 0.500000 0.000000 -0.275000
v 0.470711 0.000000 -0.345711
v -0.381606 0.100000 0.256606
v -0.415000 0.100000 0.258092
v -0.400000 0.090000 0.255109
v -0.383092 0.100000 0.290000
v -0.380109 0.090000 0.275000
v -0.405654 0.100000 0.280654
v -0.394174 0.090000 0.269174
v -0.381606 0.100000 -0.256606
v -0.383092 0.100000 -0.290000
v -0.380109 0.090000 -0.275000
v -0.415000 0.100000 -0.258092
v -0.400000 0.090000 -0.255109
v -0.405654 0.100000 -0.280654
v -0.394174 0.090000 -0.269174
v 0.381606 0.100000 0.256606
v 0.383092 0.100000 0.290000
v 0.380109 0.090000 0.275000
v 0.415000 0.100000 0.258092
v 0.400000 0.090000 0.255109
v 0.405654 0.100000 0.280654
v 0.394174 0.090000 0.269174
v 0.381606 0.100000 -0.256606
v 0.415000 0.100000 -0.258092
v 0.400000 0.090000 -0.255109
v 0.383092 0.100000 -0.290000
v 0.380109 0.090000 -0.275000
v 0.405654 0.100000 -0.280654
v 0.394174 0.090000 -0.269174
v -0.400000 0.080000 0.375000
v -0.396022 0.100000 0.355000
v -0.455403 0.100000 0.330403
v -0.470711 0.080000 0.345711
v -0.480000 0.100000 0.271022
v -0.500000 0.080000 0.275000
v -0.470711 0.080000 -0.345711
v -0.455403 0.100000 -0.330403
v -0.396022 0.100000 -0.355000
v -0.400000 0.080000 -0.375000
v -0.500000 0.080000 -0.275000
v -0.480000 0.100000 -0.271022
v 0.470711 0.080000 -0.345711
v 0.455403 0.100000 -0.330403
v 0.480000 0.100000 -0.271022
v 0.500000 0.080000 -0.275000
v 0.400000 0.080000 -0.375000
v 0.396022 0.100000 -0.355000
v 0.470711 0.080000 0.345711
v 0.455403 0.100000 0.330403
v 0.396022 0.100000 0.355000
v 0.400000 0.080000 0.375000
v 0.500000 0.080000 0.275000
v 0.480000 0.100000 0.271022
v -0.154758 0.095455 0.337644
v -0.004205 0.095455 0.299486
v 0.146347 0.095455 0.261327
v 0.296899 0.095455 0.223169
v 0.154758 0.095455 -0.337644
v 0.004205 0.095455 -0.299486
v -0.146347 0.095455 -0.261327
v -0.296899 0.095455 -0.223169
v -0.154758 0.117539 0.337644
v -0.004205 0.117539 0.299486
v 0.146347 0.117539 0.261327
v 0.296899 0.117539 0.223169
v 0.154758 0.117539 -0.337644
v 0.004205 0.117539 -0.299486
v -0.146347 0.117539 -0.261327
v -0.296899 0.117539 -0.223169
v -0.419024 0.095455 -0.072848
v -0.390595 0.095455 0.039315
v -0.362167 0.095455 0.151478
v -0.333739 0.095455 0.263640
v 0.419024 0.095455 0.072848
v 0.390595 0.095455 -0.039315
v 0.362167 0.095455 -0.151477
v 0.333739 0.095455 -0.263640
v -0.419024 0.117539 -0.072848
v -0.390595 0.117539 0.039315
v -0.362167 0.117539 0.151478
v -0.333739 0.117539 0.263640
v 0.419024 0.117539 0.072848
v 0.390595 0.117539 -0.039315
v 0.362167 0.117539 -0.151477
v 0.333739 0.117539 -0.263640
v -0.183186 0.117539 0.225482
v -0.211615 0.117539 0.113319
v -0.240043 0.117539 0.001156
v -0.268471 0.117539 -0.111006
v -0.032634 0.117539 0.187323
v -0.061062 0.117539 0.075161
v -0.089490 0.117539 -0.037002
v -0.117919 0.117539 -0.149165
v 0.117919 0.117539 0.149165
v 0.089490 0.117539 0.037002
v 0.061062 0.117539 -0.075161
v 0.032634 0.117539 -0.187323
v 0.268471 0.117539 0.111006
v 0.240043 0.117539 -0.001156
v 0.211615 0.117539 -0.113319
v 0.183186 0.117539 -0.225482
v -0.230034 0.095455 0.356723
v -0.319525 0.095455 0.319721
v -0.287426 0.095455 0.353789
v 0.433238 0.095455 0.128929
v 0.372176 0.095455 0.204089
v 0.421241 0.095455 0.174173
v -0.433238 0.095455 -0.128929
v -0.372176 0.095455 -0.204089
v -0.421241 0.095455 -0.174173
v 0.230034 0.095455 -0.356723
v 0.319525 0.095455 -0.319721
v 0.287426 0.095455 -0.353789
v -0.372176 0.117539 -0.204089
v -0.433238 0.117539 -0.128929
v -0.421241 0.117539 -0.174173
v -0.319525 0.117539 0.319721
v -0.230034 0.117539 0.356723
v -0.287426 0.117539 0.353789
v 0.372176 0.117539 0.204089
v 0.433238 0.117539 0.128929
v 0.421241 0.117539 0.174173
v 0.319525 0.117539 -0.319721
v 0.230034 0.117539 -0.356723
v 0.287426 0.117539 -0.353789
v -0.154319 0.111754 0.339375
v -0.003767 0.111754 0.301217
v 0.146786 0.111754 0.263058
v 0.297338 0.111754 0.224900
v 0.154319 0.111754 -0.339375
v 0.003767 0.111754 -0.301217
v -0.146786 0.111754 -0.263058
v -0.297338 0.111754 -0.224900
v -0.421347 0.111754 -0.072259
v -0.392919 0.111754 0.039904
v -0.364491 0.111754 0.152066
v -0.336062 0.111754 0.264229
v 0.421347 0.111754 0.072259
v 0.392919 0.111754 -0.039904
v 0.364491 0.111754 -0.152066
v 0.336062 0.111754 -0.264229
v -0.435602 0.111754 -0.128689
v -0.423194 0.111754 -0.174980
v -0.373059 0.111754 -0.205672
v 0.321718 0.111754 -0.320637
v 0.288758 0.111754 -0.355429
v 0.230057 0.111754 -0.358536
v 0.435602 0.111754 0.128689
v 0.423194 0.111754 0.174980
v 0.373059 0.111754 0.205672
v -0.321718 0.111754 0.320637
v -0.288758 0.111754 0.355429
v -0.230057 0.111754 0.358536
vt 0.770960 0.854962
vt 0.770960 0.862023
vt 0.768376 0.862023
vt 0.768376 0.854962
vt 0.849125 0.895038
vt 0.849125 0.895038
vt 0.854861 0.895038
vt 0.854861 0.895038
vt 0.776702 0.895038
vt 0.778693 0.895038
vt 0.777552 0.895038
vt 0.772311 0.895038
vt 0.775877 0.895038
vt 0.775877 0.895038
vt 0.770141 0.895038
vt 0.770141 0.895038
vt 0.846309 0.895038
vt 0.847450 0.895038
vt 0.846309 0.895038
vt 0.778693 0.895038
vt 0.777552 0.895038
vt 0.847450 0.895038
vt 0.776702 0.895038
vt 0.772311 0.895038
vt 0.770960 0.862023
vt 0.770960 0.854962
vt 0.768376 0.854962
vt 0.768376 0.862023
vt 0.854041 0.862023
vt 0.854041 0.854962
vt 0.847801 0.854962
vt 0.847801 0.862023
vt 0.848300 0.895038
vt 0.852690 0.895038
vt 0.854041 0.862023
vt 0.854041 0.854962
vt 0.856626 0.854962
vt 0.856626 0.862023
vt 0.848300 0.895038
vt 0.852690 0.895038
vt 0.854041 0.823712
vt 0.856626 0.823712
vt 0.856626 0.823712
vt 0.854041 0.823712
vt 0.846178 0.895038
vt 0.846178 0.895038
vt 0.778824 0.895038
vt 0.778824 0.895038
vt 0.847801 0.862023
vt 0.847801 0.854962
vt 0.856626 0.854962
vt 0.856626 0.862023
vt 0.777201 0.862023
vt 0.777201 0.854962
vt 0.777201 0.862023
vt 0.777201 0.854962
vt 0.777715 0.862905
vt 0.778956 0.862905
vt 0.777201 0.862905
vt 0.778956 0.862905
vt 0.777715 0.862905
vt 0.777201 0.862905
vt 0.847801 0.862905
vt 0.847287 0.862905
vt 0.846046 0.862905
vt 0.846046 0.862905
vt 0.847287 0.862905
vt 0.847801 0.862905
vt 0.770960 0.893273
vt 0.777201 0.893273
vt 0.768376 0.893273
vt 0.777201 0.893273
vt 0.770960 0.893273
vt 0.768376 0.893273
vt 0.856626 0.893273
vt 0.854041 0.893273
vt 0.847801 0.893273
vt 0.847801 0.893273
vt 0.854041 0.893273
vt 0.856626 0.893273
vt 0.768376 0.823712
vt 0.770960 0.823712
vt 0.770960 0.823712
vt 0.768376 0.823712
vt 0.777201 0.823712
vt 0.777201 0.823712
vt 0.847801 0.823712
vt 0.847801 0.823712
vt 0.530210 0.628417
vt 0.530210 0.628417
vt 0.519446 0.628417
vt 0.508683 0.627340
vt 0.508683 0.627340
vt 0.508683 0.628417
vt 0.508683 0.628417
vt 0.616317 0.627340
vt 0.616317 0.627340
vt 0.616317 0.628417
vt 0.616317 0.628417
vt 0.605554 0.627340
vt 0.594790 0.627340
vt 0.594790 0.628417
vt 0.605554 0.628417
vt 0.519446 0.627340
vt 0.530210 0.627340
vt 0.530210 0.628417
vt 0.519446 0.628417
vt 0.405210 0.877340
vt 0.426737 0.877340
vt 0.426737 0.878417
vt 0.405210 0.878417
vt 0.551737 0.627340
vt 0.573263 0.627340
vt 0.573263 0.628417
vt 0.551737 0.628417
vt 0.448263 0.877340
vt 0.469790 0.877340
vt 0.469790 0.878417
vt 0.448263 0.878417
vt 0.469790 0.877340
vt 0.448263 0.877340
vt 0.448263 0.878417
vt 0.469790 0.878417
vt 0.573263 0.627340
vt 0.551737 0.627340
vt 0.551737 0.628417
vt 0.573263 0.628417
vt 0.426737 0.877340
vt 0.405210 0.877340
vt 0.405210 0.878417
vt 0.426737 0.878417
vt 0.530210 0.628417
vt 0.405210 0.878417
vt 0.426737 0.878417
vt 0.551737 0.628417
vt 0.573263 0.628417
vt 0.448263 0.878417
vt 0.469790 0.878417
vt 0.530210 0.627340
vt 0.519446 0.627340
vt 0.508683 0.627340
vt 0.508683 0.627340
vt 0.508683 0.628417
vt 0.508683 0.628417
vt 0.469790 0.878417
vt 0.448263 0.878417
vt 0.573263 0.628417
vt 0.594790 0.628417
vt 0.594790 0.628417
vt 0.573263 0.628417
vt 0.448263 0.878417
vt 0.469790 0.878417
vt 0.469790 0.878417
vt 0.448263 0.878417
vt 0.573263 0.628417
vt 0.594790 0.628417
vt 0.594790 0.628417
vt 0.551737 0.628417
vt 0.426737 0.878417
vt 0.426737 0.878417
vt 0.551737 0.628417
vt 0.551737 0.628417
vt 0.426737 0.878417
vt 0.405210 0.878417
vt 0.530210 0.628417
vt 0.405210 0.878417
vt 0.405210 0.878417
vt 0.530210 0.628417
vt 0.383683 0.878417
vt 0.383683 0.878417
vt 0.508683 0.628417
vt 0.508683 0.628417
vt 0.383683 0.878417
vt 0.383683 0.878417
vt 0.616317 0.627340
vt 0.616317 0.627340
vt 0.616317 0.628417
vt 0.616317 0.628417
vt 0.383683 0.877340
vt 0.383683 0.877340
vt 0.508683 0.627340
vt 0.508683 0.627340
vt 0.383683 0.877340
vt 0.383683 0.877340
vt 0.491317 0.877340
vt 0.491317 0.877340
vt 0.491317 0.878417
vt 0.491317 0.878417
vt 0.616317 0.627340
vt 0.616317 0.627340
vt 0.616317 0.628417
vt 0.616317 0.628417
vt 0.491317 0.877340
vt 0.491317 0.877340
vt 0.491317 0.878417
vt 0.491317 0.878417
vt 0.594790 0.627340
vt 0.605554 0.627340
vt 0.605554 0.628417
vt 0.594790 0.628417
vt 0.511835 0.628417
vt 0.511835 0.627340
vt 0.616317 0.626264
vt 0.613165 0.626264
vt 0.613165 0.627340
vt 0.605554 0.626264
vt 0.613165 0.628417
vt 0.613165 0.627340
vt 0.508683 0.626264
vt 0.511835 0.626264
vt 0.511835 0.627340
vt 0.519446 0.626264
vt 0.511835 0.628417
vt 0.613165 0.628417
vt 0.613165 0.626264
vt 0.605554 0.626264
vt 0.616317 0.626264
vt 0.511835 0.626264
vt 0.519446 0.626264
vt 0.508683 0.626264
vt 0.594790 0.626264
vt 0.491317 0.876264
vt 0.491317 0.876264
vt 0.616317 0.626264
vt 0.616317 0.626264
vt 0.491317 0.876264
vt 0.491317 0.876264
vt 0.383683 0.876264
vt 0.383683 0.876264
vt 0.508683 0.626264
vt 0.508683 0.626264
vt 0.383683 0.876264
vt 0.383683 0.876264
vt 0.616317 0.626264
vt 0.508683 0.626264
vt 0.530210 0.626264
vt 0.426737 0.876264
vt 0.405210 0.876264
vt 0.573263 0.626264
vt 0.551737 0.626264
vt 0.469790 0.876264
vt 0.448263 0.876264
vt 0.448263 0.876264
vt 0.469790 0.876264
vt 0.551737 0.626264
vt 0.573263 0.626264
vt 0.405210 0.876264
vt 0.426737 0.876264
vt 0.530210 0.626264
vt 0.594790 0.626264
vt 0.616317 0.626264
vt 0.508683 0.626264
vn -0.7071 0.0000 0.7071
vn -0.6572 0.3689 0.6572
vn -0.9108 0.3710 0.1812
vn -0.9808 0.0000 0.1951
vn -0.2473 0.9677 0.0492
vn -0.2473 0.9677 -0.0492
vn 0.4092 0.9088 0.0814
vn 0.4092 0.9088 -0.0814
vn 0.1467 0.9783 0.1467
vn 0.0492 0.9677 0.2473
vn -0.0814 0.9088 -0.4092
vn -0.3095 0.8991 -0.3095
vn 0.2473 0.9677 -0.0492
vn 0.2473 0.9677 0.0492
vn -0.4092 0.9088 -0.0814
vn -0.4092 0.9088 0.0814
vn -0.0492 0.9677 0.2473
vn 0.0814 0.9088 -0.4092
vn -0.0492 0.9677 -0.2473
vn 0.0492 0.9677 -0.2473
vn -0.0814 0.9088 0.4092
vn 0.0814 0.9088 0.4092
vn 0.1467 0.9783 -0.1467
vn -0.3095 0.8991 0.3095
vn -0.6572 0.3689 -0.6572
vn -0.7071 0.0000 -0.7071
vn -0.9808 0.0000 -0.1951
vn -0.9108 0.3710 -0.1812
vn 0.6572 0.3689 -0.6572
vn 0.7071 0.0000 -0.7071
vn 0.1951 0.0000 -0.9808
vn 0.1812 0.3710 -0.9108
vn -0.1467 0.9783 0.1467
vn 0.3095 0.8991 -0.3095
vn 0.6572 0.3689 0.6572
vn 0.7071 0.0000 0.7071
vn 0.9808 0.0000 0.1951
vn 0.9108 0.3710 0.1812
vn -0.1467 0.9783 -0.1467
vn 0.3095 0.8991 0.3095
vn -0.0000 -1.0000 -0.0000
vn 0.2132 0.9535 0.2132
vn 0.2132 0.9535 -0.2132
vn -0.2132 0.9535 -0.2132
vn -0.2132 0.9535 0.2132
vn 0.1812 0.3710 0.9108
vn 0.1951 0.0000 0.9808
vn 0.9808 0.0000 -0.1951
vn 0.9108 0.3710 -0.1812
vn -0.1812 0.3710 0.9108
vn -0.1951 0.0000 0.9808
vn -0.1812 0.3710 -0.9108
vn -0.1951 0.0000 -0.9808
vn -0.3467 0.8715 0.3467
vn -0.0827 0.8727 0.4812
vn 0.1068 0.8370 -0.5367
vn 0.3708 0.8515 -0.3708
vn -0.4812 0.8727 0.0827
vn 0.5367 0.8370 -0.1068
vn -0.0827 0.8727 -0.4812
vn -0.3467 0.8715 -0.3467
vn 0.3708 0.8515 0.3708
vn 0.1068 0.8370 0.5367
vn -0.4812 0.8727 -0.0827
vn 0.5367 0.8370 0.1068
vn 0.4812 0.8727 -0.0827
vn 0.3467 0.8715 -0.3467
vn -0.3708 0.8515 0.3708
vn -0.5367 0.8370 0.1068
vn 0.0827 0.8727 -0.4812
vn -0.1068 0.8370 0.5367
vn 0.0827 0.8727 0.4812
vn 0.3467 0.8715 0.3467
vn -0.3708 0.8515 -0.3708
vn -0.1068 0.8370 -0.5367
vn 0.4812 0.8727 0.0827
vn -0.5367 0.8370 -0.1068
vn -0.0000 1.0000 0.0000
vn -0.9932 0.1160 -0.0026
vn -0.9621 0.1226 0.2436
vn -0.8962 0.3812 0.2270
vn -0.9270 0.3747 -0.0131
vn 0.9932 0.1160 0.0026
vn 0.9621 0.1226 -0.2436
vn 0.8962 0.3812 -0.2270
vn 0.9270 0.3747 0.0131
vn -0.0953 0.0931 -0.9911
vn -0.2445 0.0946 -0.9650
vn -0.2348 0.2937 -0.9266
vn -0.0964 0.2947 -0.9507
vn 0.0953 0.0931 0.9911
vn 0.2445 0.0946 0.9650
vn 0.2348 0.2937 0.9266
vn 0.0964 0.2947 0.9507
vn 0.2446 0.0950 0.9650
vn 0.2348 0.2949 0.9262
vn 0.2447 0.0946 0.9650
vn 0.2350 0.2937 0.9266
vn -0.2446 0.0950 -0.9650
vn -0.2348 0.2949 -0.9262
vn -0.2447 0.0946 -0.9650
vn -0.2350 0.2937 -0.9266
vn -0.3883 0.0931 -0.9168
vn -0.3681 0.2947 -0.8819
vn -0.9620 0.1226 0.2440
vn -0.8721 0.1160 0.4754
vn -0.8089 0.3747 0.4531
vn -0.8961 0.3812 0.2273
vn 0.9620 0.1226 -0.2440
vn 0.8721 0.1160 -0.4754
vn 0.8089 0.3747 -0.4531
vn 0.8961 0.3812 -0.2273
vn -0.9620 0.1231 0.2438
vn -0.8955 0.3828 0.2270
vn 0.9620 0.1231 -0.2438
vn 0.8955 0.3828 -0.2270
vn 0.3883 0.0931 0.9168
vn 0.3681 0.2947 0.8819
vn -0.7402 0.3409 -0.5796
vn -0.8040 0.1053 -0.5853
vn 0.8661 -0.1422 -0.4793
vn 0.4089 -0.1282 -0.9035
vn 0.4282 0.1053 -0.8975
vn -0.0984 -0.1088 -0.9892
vn 0.7402 0.3409 0.5796
vn 0.8040 0.1053 0.5853
vn -0.8661 -0.1422 0.4793
vn -0.4089 -0.1282 0.9035
vn -0.4282 0.1053 0.8975
vn 0.0984 -0.1088 0.9892
vn -0.3747 0.3409 0.8622
vn 0.7899 -0.1282 0.5997
vn 0.3846 -0.1088 0.9166
vn 0.9898 -0.1422 0.0089
vn 0.3747 0.3409 -0.8622
vn -0.7899 -0.1282 -0.5997
vn -0.3846 -0.1088 -0.9166
vn -0.9898 -0.1422 -0.0089
vn 0.2443 -0.1084 0.9636
vn 0.9590 -0.1455 -0.2431
vn 0.9591 -0.1448 -0.2433
vn 0.9592 -0.1448 -0.2429
vn -0.9590 -0.1455 0.2431
vn -0.9591 -0.1448 0.2433
vn -0.9592 -0.1448 0.2429
vn -0.2443 -0.1084 -0.9636
vn -0.2442 -0.1089 -0.9636
vn -0.2441 -0.1084 -0.9637
vn 0.2442 -0.1089 0.9636
vn 0.2441 -0.1084 0.9637
usemtl tiny_treats_1
s 1
f 3/1/1 44/2/2 46/3/3 2/4/4
f 35/5/5 30/6/6 64/7/7 55/8/8
f 25/9/9 21/10/10 49/11/11 48/12/12
f 14/13/13 23/14/14 52/15/15 45/16/16
f 21/10/10 37/17/17 58/18/18 49/11/11
f 28/19/19 16/20/20 42/21/21 61/22/22
f 18/23/23 14/13/13 45/16/16 43/24/24
f 47/25/25 6/26/26 4/27/27 51/28/28
f 23/14/14 25/9/9 48/12/12 52/15/15
f 53/29/29 12/30/30 10/31/31 57/32/32
f 37/17/17 39/33/33 54/34/34 58/18/18
f 59/35/35 9/36/36 7/37/37 63/38/38
f 30/6/6 32/39/39 60/40/40 64/7/7
f 12/41/41 11/42/41 7/43/41 9/44/41
f 16/20/20 18/23/23 43/24/24 42/21/21
f 27/45/42 34/46/43 20/47/44 13/48/45
f 39/33/33 35/5/5 55/8/8 54/34/34
f 62/49/46 8/50/47 9/36/36 59/35/35
f 11/51/48 56/52/49 63/38/38 7/37/37
f 32/39/39 28/19/19 61/22/22 60/40/40
f 8/50/47 62/49/46 41/53/50 1/54/51
f 50/55/52 5/56/53 6/26/26 47/25/25
f 56/52/49 11/51/48 12/30/30 53/29/29
f 5/56/53 50/55/52 57/32/32 10/31/31
f 13/48/45 19/57/54 17/58/55
f 17/58/56 19/57/57 18/23/23 16/20/20
f 13/48/45 15/59/58 19/57/54
f 19/57/57 15/59/59 14/13/13 18/23/23
f 20/47/44 22/60/60 26/61/61
f 26/61/62 22/60/63 21/10/10 25/9/9
f 20/47/44 26/61/61 24/62/64
f 24/62/65 26/61/62 25/9/9 23/14/14
f 34/46/43 36/63/66 40/64/67
f 40/64/68 36/63/69 35/5/5 39/33/33
f 34/46/43 40/64/67 38/65/70
f 38/65/71 40/64/68 39/33/33 37/17/17
f 27/45/42 29/66/72 33/67/73
f 33/67/74 29/66/75 28/19/19 32/39/39
f 27/45/42 33/67/73 31/68/76
f 31/68/77 33/67/74 32/39/39 30/6/6
f 13/48/45 20/47/44 24/62/64 15/59/58
f 15/59/59 24/62/65 23/14/14 14/13/13
f 27/45/42 13/48/45 17/58/55 29/66/72
f 29/66/75 17/58/56 16/20/20 28/19/19
f 30/6/6 35/5/5 36/63/69 31/68/77
f 31/68/76 36/63/66 34/46/43 27/45/42
f 37/17/17 21/10/10 22/60/63 38/65/71
f 38/65/70 22/60/60 20/47/44 34/46/43
f 2/4/4 46/3/3 51/28/28 4/27/27
f 42/21/21 43/24/24 44/69/2 41/70/50
f 43/24/24 45/16/16 46/71/3 44/69/2
f 48/12/12 49/11/11 50/72/52 47/73/25
f 52/15/15 48/12/12 47/73/25 51/74/28
f 54/34/34 55/8/8 56/75/49 53/76/29
f 58/18/18 54/34/34 53/76/29 57/77/32
f 60/40/40 61/22/22 62/78/46 59/79/35
f 64/7/7 60/40/40 59/79/35 63/80/38
f 45/16/16 52/15/15 51/74/28 46/71/3
f 61/22/22 42/21/21 41/70/50 62/78/46
f 63/80/38 56/75/49 55/8/8 64/7/7
f 57/77/32 50/72/52 49/11/11 58/18/18
f 1/54/51 41/53/50 44/2/2 3/1/1
f 4/81/41 6/82/41 3/83/41 2/84/41
f 6/82/41 5/85/41 1/86/41 3/83/41
f 5/85/41 10/87/41 8/88/41 1/86/41
f 10/87/41 12/41/41 9/44/41 8/88/41
f 100/89/78 80/90/78 125/91/78
f 153/92/79 145/93/80 89/94/81 126/95/82
f 159/96/83 149/97/84 93/98/85 132/99/86
f 158/100/87 141/101/88 77/102/89 135/103/90
f 164/104/91 137/105/92 73/106/93 129/107/94
f 137/108/92 138/109/95 74/110/96 73/111/93
f 138/112/95 139/113/95 75/114/96 74/115/96
f 139/116/95 140/117/97 76/118/98 75/119/96
f 141/120/88 142/121/99 78/122/100 77/123/89
f 142/124/99 143/125/99 79/126/100 78/127/100
f 143/128/99 144/129/101 80/130/102 79/131/100
f 97/132/78 129/107/78 73/106/78
f 100/133/78 104/134/78 79/131/78 80/130/78
f 104/135/78 108/136/78 78/127/78 79/126/78
f 108/137/78 112/138/78 77/123/78 78/122/78
f 144/139/101 155/140/103 125/91/104 80/90/102
f 148/141/105 162/142/106 128/143/107 92/144/108
f 75/119/78 76/118/78 109/145/78 105/146/78
f 105/147/78 109/148/78 110/149/78 106/150/78
f 106/151/78 110/152/78 111/153/78 107/154/78
f 107/155/78 111/156/78 112/157/78 108/136/78
f 74/115/78 75/114/78 105/147/78 101/158/78
f 101/159/78 105/146/78 106/151/78 102/160/78
f 102/161/78 106/150/78 107/155/78 103/162/78
f 103/163/78 107/154/78 108/137/78 104/134/78
f 73/111/78 74/110/78 101/159/78 97/164/78
f 97/132/78 101/158/78 102/161/78 98/165/78
f 98/166/78 102/160/78 103/163/78 99/167/78
f 99/168/78 103/162/78 104/135/78 100/89/78
f 132/99/78 93/98/78 109/148/78
f 92/169/78 97/164/78 98/166/78 91/170/78
f 91/171/78 98/165/78 99/168/78 90/172/78
f 90/173/78 99/167/78 100/133/78 89/174/78
f 152/175/109 156/176/110 134/177/111 96/178/112
f 145/179/80 146/180/113 90/173/114 89/174/81
f 146/181/113 147/182/113 91/171/114 90/172/114
f 147/183/113 148/184/105 92/169/108 91/170/114
f 149/185/84 150/186/115 94/187/116 93/188/85
f 150/189/115 151/190/115 95/191/116 94/192/116
f 151/193/115 152/194/109 96/195/112 95/196/116
f 112/157/78 96/178/78 134/177/78
f 109/145/78 93/188/78 94/187/78 110/152/78
f 110/149/78 94/192/78 95/191/78 111/156/78
f 111/153/78 95/196/78 96/195/78 112/138/78
f 140/197/97 161/198/117 131/199/118 76/200/98
f 153/92/79 126/95/82 127/201/119 154/202/120
f 154/202/120 127/201/119 125/91/104 155/140/103
f 156/176/110 123/203/121 124/204/122 157/205/123
f 157/205/123 124/204/122 122/206/124 158/100/87
f 159/96/83 132/99/86 133/207/125 160/208/126
f 160/208/126 133/207/125 131/199/118 161/198/117
f 162/142/106 114/209/127 115/210/128 163/211/129
f 163/211/129 115/210/128 113/212/130 164/104/91
f 92/144/78 128/143/78 97/132/78
f 130/213/78 129/107/78 97/132/78
f 100/89/78 125/91/78 127/201/78
f 89/94/78 100/89/78 126/95/78
f 112/157/78 134/177/78 136/214/78
f 112/157/78 136/214/78 135/103/78
f 77/102/78 112/157/78 135/103/78
f 76/200/78 131/199/78 109/148/78
f 131/199/78 133/207/78 109/148/78
f 133/207/78 132/99/78 109/148/78
f 128/143/78 130/213/78 97/132/78
f 126/95/78 100/89/78 127/201/78
f 130/213/131 163/211/129 164/104/91 129/107/94
f 128/143/107 162/142/106 163/211/129 130/213/131
f 118/215/132 160/208/126 161/198/117 117/216/133
f 116/217/134 159/96/83 160/208/126 118/215/132
f 136/214/135 157/205/123 158/100/87 135/103/90
f 134/177/111 156/176/110 157/205/123 136/214/135
f 121/218/136 154/202/120 155/140/103 120/219/137
f 119/220/138 153/92/79 154/202/120 121/218/136
f 68/221/139 117/216/133 161/198/117 140/197/97
f 87/222/140 88/223/141 152/194/109 151/193/115
f 86/224/140 87/225/140 151/190/115 150/189/115
f 85/226/142 86/227/140 150/186/115 149/185/84
f 83/228/143 84/229/144 148/184/105 147/183/113
f 82/230/143 83/231/143 147/182/113 146/181/113
f 81/232/145 82/233/143 146/180/113 145/179/80
f 88/234/141 123/203/121 156/176/110 152/175/109
f 84/235/144 114/209/127 162/142/106 148/141/105
f 72/236/146 120/219/137 155/140/103 144/139/101
f 71/237/147 72/238/146 144/129/101 143/128/99
f 70/239/147 71/240/147 143/125/99 142/124/99
f 69/241/148 70/242/147 142/121/99 141/120/88
f 67/243/149 68/244/139 140/117/97 139/116/95
f 66/245/149 67/246/149 139/113/95 138/112/95
f 65/247/150 66/248/149 138/109/95 137/108/92
f 113/212/130 65/249/150 137/105/92 164/104/91
f 122/206/124 69/250/148 141/101/88 158/100/87
f 116/217/134 85/251/142 149/97/84 159/96/83
f 119/220/138 81/252/145 145/93/80 153/92/79
