# Blender v3.4.1 OBJ File: 'Tiny_Treats_Bakery_Interior_1.1_ASSETS_EXPORT.blend'
# www.blender.org
mtllib wall_modular_panelled_bakery_half_corner_outer_B.mtl
o wall_modular_panelled_bakery_half_corner_outer_B
v 0.250000 -0.000000 0.250001
v 1.000000 -0.000000 0.249999
v 1.000000 4.000000 0.250000
v 1.000000 1.300000 0.249999
v 0.250000 1.300000 0.250001
v 0.250001 -0.000000 1.000000
v 0.250001 4.000000 1.000001
v 0.249999 4.000000 0.250001
v 0.250001 1.300000 1.000001
v 0.999999 -0.000000 -0.000000
v 0.999999 4.000000 0.000000
v 0.999999 1.300000 0.000000
v 0.000000 -0.000000 1.000000
v -0.000000 4.000000 0.000000
v 0.000000 4.000000 1.000001
v 0.000000 -0.000000 0.000000
v 0.000000 1.300000 1.000001
vt 0.597527 0.870328
vt 0.597527 0.947359
vt 0.597527 0.947359
vt 0.597527 0.870328
vt 0.597527 0.962984
vt 0.541180 0.962984
vt 0.547599 0.962984
vt 0.597527 0.962984
vt 0.547599 0.870328
vt 0.547599 0.833239
vt 0.597527 0.833239
vt 0.547599 0.947359
vt 0.597527 0.833239
vt 0.541180 0.962984
vt 0.547599 0.962984
vt 0.547599 0.870328
vt 0.547599 0.833239
vt 0.547599 0.947359
vt 0.541180 0.817614
vt 0.541180 0.817614
vt 0.547599 0.817614
vt 0.547599 0.817614
vt 0.597527 0.817614
vt 0.597527 0.817614
vt 0.541180 0.947359
vt 0.541180 0.870328
vt 0.541180 0.833239
vn 1.0000 -0.0000 -0.0000
vn 0.0000 1.0000 0.0000
vn 0.0000 -0.0000 1.0000
vn 0.0000 -1.0000 -0.0000
usemtl tiny_treats_1
s 1
f 12/1/1 11/2/1 3/3/1 4/4/1
f 11/5/2 14/6/2 8/7/2 3/8/2
f 5/9/3 1/10/3 2/11/3 4/4/3
f 8/12/3 5/9/3 4/4/3 3/3/3
f 10/13/1 12/1/1 4/4/1 2/11/1
f 14/6/2 15/14/2 7/15/2 8/7/2
f 9/16/1 6/17/1 1/10/1 5/9/1
f 7/18/1 9/16/1 5/9/1 8/12/1
f 13/19/4 16/20/4 1/21/4 6/22/4
f 2/23/4 1/21/4 16/20/4 10/24/4
f 7/18/3 15/25/3 17/26/3 9/16/3
f 9/16/3 17/26/3 13/27/3 6/17/3
