# Blender v3.4.1 OBJ File: 'Tiny_Treats_Bakery_Interior_1.1_ASSETS_EXPORT.blend'
# www.blender.org
mtllib wall_panelled_bakery_window_full_left.mtl
o wall_panelled_bakery_window_full_left
v 1.000000 -0.000000 0.200001
v 1.000000 4.000000 0.200000
v -1.000000 0.000000 0.200000
v -1.000000 4.000000 0.200000
v 1.000000 3.500000 0.200000
v -0.750000 3.500000 0.200000
v 1.000000 0.500000 0.200000
v -0.750000 0.500000 0.200000
v -0.750000 1.300000 0.200000
v -1.000000 1.300000 0.200000
v -1.000000 4.000000 0.250000
v 1.000000 4.000000 0.250000
v 1.000000 3.500000 0.250000
v -0.750000 3.500000 0.250000
v -0.750000 1.300000 0.250000
v -1.000000 1.300000 0.250000
v -0.750000 1.300000 0.200000
v -1.000001 1.300000 0.200001
v -0.750000 1.000000 0.200000
v -1.000001 1.000000 0.200001
v -1.000001 1.000000 0.280001
v -1.000001 1.020000 0.300001
v -1.000001 1.280000 0.300001
v -1.000001 1.300000 0.280001
v -0.750000 1.300000 0.280000
v -0.750000 1.280000 0.300000
v -0.750000 1.020000 0.300000
v -0.750000 1.000000 0.280000
v 0.999999 0.200000 0.200000
v -1.000001 0.200000 0.200001
v 0.999999 -0.000000 0.200000
v -1.000001 -0.000000 0.200001
v -1.000001 -0.000000 0.280001
v -1.000001 0.020000 0.300001
v -1.000001 0.180000 0.300001
v -1.000001 0.200000 0.280001
v 0.999999 0.200000 0.280000
v 0.999999 0.180000 0.300000
v 0.999999 0.020000 0.300000
v 0.999999 -0.000000 0.280000
v -0.750000 1.000000 0.200000
v -0.750000 0.200000 0.200000
v -0.803333 1.000000 0.250000
v -0.950000 1.000000 0.250000
v -1.000000 1.000000 0.200000
v -0.950000 0.200000 0.250000
v -0.803333 0.200000 0.250000
v -1.000000 0.200000 0.200000
v 0.750000 0.500000 0.200000
v 0.750000 0.200000 0.200000
v 1.000000 0.500000 0.200000
v 1.000000 0.200000 0.200000
v 0.956666 0.200000 0.250000
v 0.800000 0.200000 0.250000
v 0.800000 0.500000 0.250000
v 0.956666 0.500000 0.250000
v -0.663333 0.500000 0.250000
v -0.750000 0.500000 0.200000
v -0.663333 0.200000 0.250000
v -0.476667 0.200000 0.250000
v -0.426667 0.500000 0.200000
v -0.750000 0.200000 0.200000
v -0.476667 0.500000 0.250000
v -0.426667 0.200000 0.200000
v -0.190000 0.200000 0.250000
v -0.376667 0.200000 0.250000
v -0.376667 0.500000 0.250000
v -0.190000 0.500000 0.250000
v -0.140000 0.200000 0.200000
v 0.146667 0.500000 0.200000
v 0.096666 0.200000 0.250000
v -0.090000 0.200000 0.250000
v -0.140000 0.500000 0.200000
v -0.090000 0.500000 0.250000
v 0.096666 0.500000 0.250000
v 0.146667 0.200000 0.200000
v 0.383333 0.200000 0.250000
v 0.196667 0.200000 0.250000
v 0.196667 0.500000 0.250000
v 0.383333 0.500000 0.250000
v 0.433333 0.200000 0.200000
v 0.750000 0.500000 0.200000
v 0.700000 0.200000 0.250000
v 0.483333 0.200000 0.250000
v 0.433333 0.500000 0.200000
v 0.483333 0.500000 0.250000
v 0.700000 0.500000 0.250000
v 0.750000 0.200000 0.200000
v 1.000000 0.500000 0.000000
v -0.750000 3.500000 0.000000
v 1.000000 0.000000 -0.250000
v 1.000000 4.000000 -0.250000
v -1.000000 4.000000 -0.250000
v -1.000000 0.000000 -0.250000
v -0.750000 3.500000 -0.250000
v -0.750000 0.500000 -0.250000
v -0.750000 1.300000 -0.250000
v -1.000000 1.300000 -0.250000
v -0.750000 0.500000 0.000000
v -0.750000 1.300000 0.000000
v 1.000000 3.500000 -0.250000
v 1.000000 0.500000 -0.250000
v 1.000000 3.500000 0.000000
v -0.800000 0.375000 0.450000
v -0.800000 0.425000 0.500000
v -0.850000 0.425000 0.450000
v -0.800000 0.675000 0.500000
v -0.800000 0.725000 0.450000
v -0.850000 0.675000 0.450000
v -0.800000 0.375000 -0.450000
v -0.850000 0.425000 -0.450000
v -0.800000 0.425000 -0.500000
v -0.800000 0.725000 -0.450000
v -0.800000 0.675000 -0.500000
v -0.850000 0.675000 -0.450000
v 1.000000 0.375000 0.450000
v 1.000000 0.425000 0.500000
v 1.000000 0.725000 0.450000
v 1.000000 0.675000 0.500000
v 1.000000 0.375000 -0.450000
v 1.000000 0.425000 -0.500000
v 1.000000 0.725000 -0.450000
v 1.000000 0.675000 -0.500000
v 1.000000 3.625000 0.450000
v 1.000000 3.325000 0.500000
v 1.000000 3.275000 0.450000
v -0.850000 3.575000 -0.450000
v -0.800000 3.575000 -0.500000
v -0.800000 3.625000 -0.450000
v -0.800000 3.325000 -0.500000
v -0.850000 3.325000 -0.450000
v -0.800000 3.275000 -0.450000
v -0.850000 3.575000 0.450000
v -0.800000 3.625000 0.450000
v -0.800000 3.575000 0.500000
v -0.850000 3.325000 0.450000
v -0.800000 3.325000 0.500000
v -0.800000 3.275000 0.450000
v 1.000000 0.760319 -0.100000
v 1.000000 0.790320 -0.070000
v 1.000000 0.620319 -0.100000
v 1.000000 0.590320 -0.070000
v 1.000000 0.760319 0.100000
v 1.000000 0.790320 0.070000
v 1.000000 0.620319 0.100000
v 1.000000 0.590320 0.070000
v -0.620000 0.760319 -0.100000
v -0.620000 0.790320 -0.070000
v -0.620000 0.620319 -0.100000
v -0.620000 0.590320 -0.070000
v -0.620000 0.790320 0.070000
v -0.620000 0.760319 0.100000
v -0.620000 0.620319 0.100000
v -0.620000 0.590320 0.070000
v -0.700000 0.590320 0.000000
v 1.000000 0.590320 0.000000
v -0.700000 3.290320 0.000000
v 1.000000 3.290320 0.000000
v -0.700000 3.290320 -0.050000
v -0.700000 0.590320 -0.050000
v 1.000000 0.590320 -0.050000
v 1.000000 3.290320 -0.050000
v -0.750000 0.399999 0.150000
v 1.000000 3.275000 0.150000
v -0.750000 3.275000 0.150000
v -0.540000 0.399999 0.150000
v 1.000000 3.200000 0.150000
v -0.540000 3.200000 0.150000
v -0.750000 0.399999 -0.150000
v 1.000000 3.275000 -0.150000
v -0.750000 3.275000 -0.150000
v -0.540000 0.399999 -0.150000
v 1.000000 3.200000 -0.150000
v -0.540000 3.200000 -0.150000
v 1.000000 3.575000 0.500000
v 1.000000 3.275000 -0.450000
v 1.000000 3.325000 -0.500000
v 1.000000 3.625000 -0.450000
v 1.000000 3.575000 -0.500000
v 1.000000 0.000000 0.000000
v -1.000000 0.000000 0.000000
v -1.000000 4.000000 0.000000
v 1.000000 4.000000 0.000000
v -1.000000 1.300000 0.000000
vt 0.797908 0.867260
vt 0.825557 0.867260
vt 0.821963 0.881071
vt 0.801503 0.881071
vt 0.568997 0.962984
vt 0.511937 0.962984
vt 0.511937 0.962984
vt 0.568997 0.962984
vt 0.561579 0.930241
vt 0.561579 0.930241
vt 0.519355 0.930241
vt 0.519355 0.930241
vt 0.821963 0.881071
vt 0.801503 0.881071
vt 0.797908 0.894882
vt 0.801503 0.894882
vt 0.561579 0.930241
vt 0.519355 0.930241
vt 0.568997 0.947359
vt 0.511937 0.947359
vt 0.511937 0.870328
vt 0.519355 0.870328
vt 0.511937 0.947359
vt 0.511937 0.870328
vt 0.519355 0.870328
vt 0.792395 0.859544
vt 0.831071 0.859544
vt 0.831071 0.859544
vt 0.792395 0.859544
vt 0.831071 0.891181
vt 0.831071 0.896204
vt 0.792395 0.896204
vt 0.792395 0.891181
vt 0.831071 0.927840
vt 0.792395 0.927840
vt 0.792395 0.927454
vt 0.831071 0.927454
vt 0.831071 0.859931
vt 0.792395 0.859931
vt 0.831071 0.927840
vt 0.792395 0.927840
vt 0.831071 0.896590
vt 0.831071 0.890794
vt 0.831071 0.896590
vt 0.831071 0.890794
vt 0.792395 0.890794
vt 0.792395 0.896590
vt 0.792395 0.890794
vt 0.792395 0.896590
vt 0.792395 0.859544
vt 0.831071 0.859544
vt 0.831071 0.859544
vt 0.792395 0.859544
vt 0.831071 0.891181
vt 0.831071 0.896204
vt 0.792395 0.896204
vt 0.792395 0.891181
vt 0.831071 0.927840
vt 0.792395 0.927840
vt 0.792395 0.927454
vt 0.831071 0.927454
vt 0.831071 0.859931
vt 0.792395 0.859931
vt 0.831071 0.927840
vt 0.792395 0.927840
vt 0.831071 0.896590
vt 0.831071 0.890794
vt 0.831071 0.896590
vt 0.831071 0.890794
vt 0.792395 0.890794
vt 0.792395 0.896590
vt 0.792395 0.890794
vt 0.792395 0.896590
vt 0.804320 0.867611
vt 0.804320 0.890988
vt 0.793362 0.890988
vt 0.793362 0.867611
vt 0.793362 0.898861
vt 0.793362 0.922238
vt 0.792395 0.922238
vt 0.792395 0.898861
vt 0.804320 0.859738
vt 0.804320 0.836361
vt 0.805287 0.836361
vt 0.805287 0.859738
vt 0.804320 0.867611
vt 0.804320 0.890988
vt 0.793362 0.890988
vt 0.793362 0.867611
vt 0.793362 0.898861
vt 0.793362 0.922238
vt 0.792395 0.922238
vt 0.792395 0.898861
vt 0.804320 0.859738
vt 0.804320 0.836361
vt 0.805287 0.836361
vt 0.805287 0.859738
vt 0.519355 0.870328
vt 0.801503 0.894882
vt 0.804320 0.867611
vt 0.804320 0.890988
vt 0.793362 0.890988
vt 0.793362 0.867611
vt 0.793362 0.898861
vt 0.793362 0.922238
vt 0.792395 0.922238
vt 0.792395 0.898861
vt 0.804320 0.859738
vt 0.804320 0.836361
vt 0.805287 0.836361
vt 0.805287 0.859738
vt 0.804320 0.867611
vt 0.804320 0.890988
vt 0.793362 0.890988
vt 0.793362 0.867611
vt 0.793362 0.898861
vt 0.793362 0.922238
vt 0.792395 0.922238
vt 0.792395 0.898861
vt 0.804320 0.859738
vt 0.804320 0.836361
vt 0.805287 0.836361
vt 0.805287 0.859738
vt 0.804320 0.867611
vt 0.804320 0.890988
vt 0.793362 0.890988
vt 0.793362 0.867611
vt 0.793362 0.898861
vt 0.793362 0.922238
vt 0.792395 0.922238
vt 0.792395 0.898861
vt 0.804320 0.859738
vt 0.804320 0.836361
vt 0.805287 0.836361
vt 0.805287 0.859738
vt 0.804320 0.867611
vt 0.804320 0.890988
vt 0.793362 0.890988
vt 0.793362 0.867611
vt 0.793362 0.898861
vt 0.793362 0.922238
vt 0.792395 0.922238
vt 0.792395 0.898861
vt 0.804320 0.859738
vt 0.804320 0.836361
vt 0.805287 0.836361
vt 0.805287 0.859738
vt 0.804320 0.867611
vt 0.804320 0.890988
vt 0.793362 0.890988
vt 0.793362 0.867611
vt 0.793362 0.898861
vt 0.793362 0.922238
vt 0.792395 0.922238
vt 0.792395 0.898861
vt 0.804320 0.859738
vt 0.804320 0.836361
vt 0.805287 0.836361
vt 0.805287 0.859738
vt 0.511937 0.870328
vt 0.511937 0.870328
vt 0.511937 0.833239
vt 0.511937 0.833239
vt 0.568997 0.962984
vt 0.511937 0.962984
vt 0.793187 0.817614
vt 0.818997 0.817614
vt 0.818997 0.817614
vt 0.793187 0.817614
vt 0.568997 0.947359
vt 0.561579 0.930241
vt 0.519355 0.930241
vt 0.511937 0.947359
vt 0.519355 0.856063
vt 0.519355 0.856063
vt 0.519355 0.870328
vt 0.568997 0.833239
vt 0.561579 0.856063
vt 0.561579 0.856063
vt 0.511937 0.947359
vt 0.466537 0.883087
vt 0.466537 0.892853
vt 0.408463 0.892853
vt 0.408463 0.883087
vt 0.466537 0.916130
vt 0.408463 0.916130
vt 0.408463 0.916130
vt 0.466537 0.916130
vt 0.406389 0.883087
vt 0.406389 0.892853
vt 0.406389 0.892853
vt 0.406389 0.883087
vt 0.408463 0.883087
vt 0.408463 0.892853
vt 0.466537 0.892853
vt 0.466537 0.883087
vt 0.408463 0.869821
vt 0.408463 0.873076
vt 0.406389 0.873076
vt 0.408463 0.922885
vt 0.408463 0.926140
vt 0.406389 0.922885
vt 0.408463 0.869821
vt 0.406389 0.873076
vt 0.408463 0.873076
vt 0.408463 0.926140
vt 0.408463 0.922885
vt 0.406389 0.922885
vt 0.408463 0.893097
vt 0.408463 0.902864
vt 0.406389 0.902864
vt 0.406389 0.893097
vt 0.408463 0.902864
vt 0.408463 0.893097
vt 0.406389 0.893097
vt 0.406389 0.902864
vt 0.466537 0.869821
vt 0.466537 0.873076
vt 0.466537 0.926140
vt 0.466537 0.922885
vt 0.466537 0.869821
vt 0.466537 0.873076
vt 0.466537 0.926140
vt 0.466537 0.922885
vt 0.408463 0.859810
vt 0.466537 0.859810
vt 0.466537 0.859810
vt 0.408463 0.859810
vt 0.408463 0.869821
vt 0.408463 0.873076
vt 0.406389 0.873076
vt 0.406389 0.883087
vt 0.406389 0.892853
vt 0.406389 0.892853
vt 0.406389 0.883087
vt 0.466537 0.916130
vt 0.408463 0.916130
vt 0.408463 0.916130
vt 0.466537 0.916130
vt 0.466537 0.883087
vt 0.466537 0.892853
vt 0.408463 0.892853
vt 0.408463 0.883087
vt 0.408463 0.869821
vt 0.406389 0.873076
vt 0.408463 0.873076
vt 0.408463 0.883087
vt 0.408463 0.892853
vt 0.466537 0.892853
vt 0.466537 0.883087
vt 0.408463 0.922885
vt 0.408463 0.926140
vt 0.406389 0.922885
vt 0.390036 0.936033
vt 0.484964 0.936033
vt 0.484964 0.932270
vt 0.390036 0.932270
vt 0.484964 0.936033
vt 0.390036 0.936033
vt 0.390036 0.932270
vt 0.484964 0.932270
vt 0.390036 0.848449
vt 0.484964 0.848449
vt 0.484964 0.852211
vt 0.390036 0.852211
vt 0.484964 0.920408
vt 0.390036 0.920408
vt 0.390036 0.920408
vt 0.484964 0.920408
vt 0.390036 0.832823
vt 0.484964 0.832823
vt 0.484964 0.832824
vt 0.390036 0.832824
vt 0.484964 0.848448
vt 0.390036 0.848448
vt 0.390036 0.852211
vt 0.484964 0.852211
vt 0.484964 0.867836
vt 0.484964 0.885395
vt 0.390036 0.885395
vt 0.390036 0.867836
vt 0.390036 0.867836
vt 0.390036 0.885395
vt 0.484964 0.885395
vt 0.484964 0.867836
vt 0.411345 0.937821
vt 0.411345 0.885562
vt 0.416576 0.890788
vt 0.416576 0.932595
vt 0.458424 0.932595
vt 0.463655 0.937821
vt 0.411345 0.937821
vt 0.416576 0.932595
vt 0.416576 0.890788
vt 0.411345 0.885562
vt 0.463655 0.937821
vt 0.458424 0.932595
vt 0.416576 0.901345
vt 0.416576 0.901345
vt 0.416576 0.859538
vt 0.416576 0.859538
vt 0.458424 0.901345
vt 0.458424 0.901345
vt 0.408463 0.926140
vt 0.408463 0.922885
vt 0.406389 0.922885
vt 0.408463 0.893097
vt 0.408463 0.902864
vt 0.406389 0.902864
vt 0.406389 0.893097
vt 0.408463 0.902864
vt 0.408463 0.893097
vt 0.406389 0.893097
vt 0.406389 0.902864
vt 0.466537 0.869821
vt 0.466537 0.873076
vt 0.466537 0.926140
vt 0.466537 0.922885
vt 0.466537 0.869821
vt 0.466537 0.873076
vt 0.466537 0.926140
vt 0.466537 0.922885
vt 0.408463 0.859810
vt 0.466537 0.859810
vt 0.466537 0.859810
vt 0.408463 0.859810
vt 0.568997 0.962984
vt 0.511937 0.962984
vt 0.793187 0.870328
vt 0.793187 0.870328
vt 0.793187 0.833239
vt 0.793187 0.833239
vt 0.511937 0.817614
vt 0.568997 0.817614
vt 0.506497 0.817614
vt 0.511937 0.817614
vt 0.509463 0.865446
vt 0.755040 0.005040
vt 0.994960 0.005040
vt 0.994960 0.244960
vt 0.755040 0.244960
vt 0.755040 0.005040
vt 0.755040 0.244960
vt 0.994960 0.244960
vt 0.994960 0.005040
vn -0.0000 0.0000 1.0000
vn 0.0000 1.0000 -0.0000
vn 0.0000 -1.0000 0.0000
vn 1.0000 -0.0000 0.0000
vn -1.0000 -0.0000 0.0000
vn 0.0000 -0.9239 0.3827
vn 0.0000 0.9239 0.3827
vn 0.0000 0.7071 0.7071
vn 0.0000 -0.7071 0.7071
vn 0.3677 0.0000 0.9299
vn -0.7071 0.0000 0.7071
vn 0.6839 0.0000 0.7295
vn 0.7557 0.0000 0.6549
vn 0.3827 0.0000 0.9239
vn -0.2587 0.0000 0.9660
vn -0.4997 0.0000 0.8662
vn 0.7071 0.0000 0.7071
vn 0.0000 0.0000 -1.0000
vn 0.0000 -0.3827 0.9239
vn 0.0000 0.3827 0.9239
vn -0.3416 0.3416 0.8756
vn -0.3416 -0.3416 0.8756
vn 0.0000 0.9239 -0.3827
vn -0.3416 0.8756 -0.3416
vn -0.3416 0.8756 0.3416
vn -0.3416 -0.3416 -0.8756
vn -0.3416 0.3416 -0.8756
vn 0.0000 0.3827 -0.9239
vn 0.0000 -0.3827 -0.9239
vn -0.3416 -0.8756 0.3416
vn -0.7588 -0.4606 0.4606
vn -0.7588 0.4606 0.4606
vn -0.3416 -0.8756 -0.3416
vn -0.7588 -0.4606 -0.4606
vn -0.7588 0.4606 -0.4606
vn 0.0000 -0.7071 -0.7071
vn -0.4606 -0.7588 0.4606
vn -0.8756 -0.3416 0.3416
vn -0.8756 -0.3416 -0.3416
vn -0.4606 -0.7588 -0.4606
vn 0.0000 0.7071 -0.7071
usemtl tiny_treats_1
s 1
f 3/1/1 1/2/1 7/3/1 8/4/1
f 2/5/2 4/6/2 11/7/2 12/8/2
f 103/9/3 5/10/3 6/11/3 90/12/3
f 89/13/2 99/14/2 8/4/2 7/3/2
f 10/15/1 3/1/1 8/4/1 9/16/1
f 6/11/3 5/10/3 13/17/3 14/18/3
f 12/19/4 13/17/4 5/10/4 2/5/4
f 11/20/1 14/18/1 13/17/1 12/19/1
f 11/20/1 16/21/1 15/22/1 14/18/1
f 4/23/5 10/24/5 16/21/5 11/20/5
f 9/25/4 6/11/4 14/18/4 15/22/4
f 20/26/3 19/27/3 28/28/6 21/29/6
f 27/30/1 26/31/1 23/32/1 22/33/1
f 25/34/7 24/35/7 23/36/8 26/37/8
f 27/38/9 22/39/9 21/29/6 28/28/6
f 17/40/2 18/41/2 24/35/7 25/34/7
f 25/42/4 26/31/4 27/30/4 28/43/4
f 17/44/4 25/42/4 28/43/4 19/45/4
f 21/46/5 22/33/5 23/32/5 24/47/5
f 20/48/5 21/46/5 24/47/5 18/49/5
f 32/50/3 31/51/3 40/52/6 33/53/6
f 39/54/1 38/55/1 35/56/1 34/57/1
f 37/58/7 36/59/7 35/60/8 38/61/8
f 39/62/9 34/63/9 33/53/6 40/52/6
f 29/64/2 30/65/2 36/59/7 37/58/7
f 37/66/4 38/55/4 39/54/4 40/67/4
f 29/68/4 37/66/4 40/67/4 31/69/4
f 33/70/5 34/57/5 35/56/5 36/71/5
f 32/72/5 33/70/5 36/71/5 30/73/5
f 47/74/10 43/75/10 44/76/1 46/77/1
f 46/78/11 44/79/11 45/80/11 48/81/11
f 43/82/10 47/83/10 42/84/12 41/85/12
f 53/86/1 56/87/1 55/88/1 54/89/1
f 54/90/11 55/91/11 49/92/11 50/93/11
f 56/94/13 53/95/13 52/96/13 51/97/13
f 6/11/4 9/25/4 100/98/4 90/12/4
f 9/16/4 8/4/4 99/14/4 100/99/4
f 60/100/14 63/101/14 57/102/15 59/103/15
f 59/104/15 57/105/15 58/106/16 62/107/16
f 63/108/14 60/109/14 64/110/17 61/111/17
f 65/112/14 68/113/14 67/114/1 66/115/1
f 66/116/11 67/117/11 61/118/11 64/119/11
f 68/120/14 65/121/14 69/122/17 73/123/17
f 71/124/14 75/125/14 74/126/1 72/127/1
f 72/128/11 74/129/11 73/130/11 69/131/11
f 75/132/14 71/133/14 76/134/17 70/135/17
f 77/136/14 80/137/14 79/138/1 78/139/1
f 78/140/11 79/141/11 70/142/11 76/143/11
f 80/144/14 77/145/14 81/146/17 85/147/17
f 83/148/14 87/149/14 86/150/1 84/151/1
f 84/152/11 86/153/11 85/154/11 81/155/11
f 87/156/14 83/157/14 88/158/17 82/159/17
f 63/101/2 61/111/2 58/106/2 57/102/2
f 68/120/2 73/123/2 61/118/2 67/117/2
f 73/130/2 74/126/2 75/132/2 70/135/2
f 80/144/2 85/147/2 70/142/2 79/141/2
f 85/154/2 86/150/2 87/156/2 82/159/2
f 184/160/5 98/161/5 94/162/5 181/163/5
f 183/164/2 182/165/2 4/6/2 2/5/2
f 181/166/3 180/167/3 1/168/3 3/169/3
f 92/170/18 101/171/18 95/172/18 93/173/18
f 100/98/4 99/174/4 96/175/4 97/176/4
f 98/161/18 93/173/18 95/172/18 97/176/18
f 91/177/18 94/162/18 96/175/18 102/178/18
f 94/162/18 98/161/18 97/176/18 96/175/18
f 90/12/4 100/98/4 97/176/4 95/172/4
f 102/178/2 96/175/2 99/174/2 89/179/2
f 101/171/3 103/9/3 90/12/3 95/172/3
f 182/180/5 93/173/5 98/161/5 184/160/5
f 117/181/19 119/182/20 107/183/21 105/184/22
f 122/185/23 113/186/24 108/187/25 118/188/7
f 106/189/5 109/190/5 115/191/5 111/192/5
f 112/193/26 114/194/27 123/195/28 121/196/29
f 104/197/30 105/198/22 106/199/31
f 107/200/21 108/201/25 109/202/32
f 110/203/33 111/204/34 112/205/26
f 113/206/24 114/207/27 115/208/35
f 110/203/33 104/197/30 106/199/31 111/204/34
f 105/209/22 107/210/21 109/211/32 106/212/31
f 108/201/25 113/206/24 115/208/35 109/202/32
f 114/213/27 112/214/26 111/215/34 115/216/35
f 120/217/36 110/203/33 112/205/26 121/218/29
f 113/206/24 122/219/23 123/220/28 114/207/27
f 104/197/30 116/221/9 117/222/19 105/198/22
f 118/223/7 108/201/25 107/200/21 119/224/20
f 110/225/33 120/226/3 116/227/3 104/228/30
f 138/229/37 137/230/22 136/231/38
f 136/232/38 133/233/5 127/234/5 131/235/39
f 178/236/23 129/237/24 134/238/25 124/239/7
f 125/240/19 175/241/1 135/242/21 137/243/22
f 132/244/40 131/245/39 130/246/26
f 130/247/26 128/248/27 179/249/18 177/250/29
f 135/251/21 134/252/25 133/253/32
f 148/254/41 140/255/41 139/256/28 147/257/28
f 144/258/8 151/259/8 152/260/20 143/261/20
f 154/262/9 146/263/9 145/264/19 153/265/19
f 140/266/2 148/267/2 151/268/2 144/269/2
f 150/270/3 142/271/3 146/272/3 154/273/3
f 142/274/36 150/275/36 149/276/29 141/277/29
f 145/278/19 143/279/20 152/280/20 153/281/19
f 149/282/29 147/283/28 139/284/28 141/285/29
f 141/285/4 139/256/4 143/279/4 145/278/4
f 165/286/1 163/287/1 166/288/1 168/289/1
f 165/286/1 168/289/1 167/290/1 164/291/1
f 144/258/4 143/261/4 139/256/4 140/255/4
f 171/292/18 174/293/18 172/294/18 169/295/18
f 171/292/18 170/296/18 173/297/18 174/293/18
f 174/298/4 168/299/4 166/300/4 172/301/4
f 164/291/4 167/302/4 173/297/4 170/296/4
f 173/303/3 167/302/3 168/299/3 174/298/3
f 129/304/24 128/305/27 127/306/35
f 132/244/40 138/229/37 136/231/38 131/245/39
f 137/307/22 135/308/21 133/309/32 136/310/38
f 134/252/25 129/304/24 127/306/35 133/253/32
f 128/311/27 130/312/26 131/313/39 127/314/35
f 176/315/36 132/244/40 130/246/26 177/316/29
f 129/304/24 178/317/23 179/318/41 128/305/27
f 138/229/37 126/319/9 125/320/19 137/230/22
f 124/321/7 134/252/25 135/251/21 175/322/8
f 132/323/3 176/324/3 126/325/3 138/326/3
f 103/9/4 183/164/4 2/5/4 5/10/4
f 101/171/4 92/327/4 183/164/4 103/9/4
f 92/327/2 93/328/2 182/165/2 183/164/2
f 4/23/5 182/180/5 184/160/5 10/24/5
f 10/329/5 184/330/5 181/331/5 3/332/5
f 94/333/3 91/334/3 180/335/3 181/336/3
f 124/239/4 175/322/4 179/318/4 178/236/4
f 177/250/4 179/318/4 175/241/4 125/240/4
f 125/240/4 126/325/4 176/315/4 177/250/4
f 118/188/4 119/224/4 123/220/4 122/185/4
f 121/196/4 123/220/4 119/182/4 117/181/4
f 117/181/4 116/227/4 120/217/4 121/196/4
f 146/263/4 142/274/4 141/285/4 145/264/4
f 1/168/4 180/167/4 89/13/4 7/3/4
f 91/334/4 102/178/4 89/337/4 180/335/4
usemtl tiny_treats_1_GLASS
f 155/338/1 156/339/1 158/340/1 157/341/1
f 160/342/18 159/343/18 162/344/18 161/345/18
