# Blender v3.4.1 OBJ File: 'Tiny_Treats_Bakery_Interior_1.1_ASSETS_EXPORT.blend'
# www.blender.org
mtllib wall_sign_large.mtl
o wall_sign_large
v -0.900000 -0.400000 0.199999
v -0.900000 0.400000 0.199999
v 0.900000 -0.400000 0.199999
v 0.900000 0.400000 0.199999
v -0.662951 -0.362142 0.099999
v -0.662951 0.362142 0.099999
v 0.662951 0.362142 0.099999
v 0.662951 -0.362142 0.099999
v -0.950000 -0.500000 -0.000001
v -1.000000 -0.450000 -0.000001
v -0.985355 -0.485355 -0.000001
v -1.000000 0.450000 -0.000001
v -0.950000 0.500000 -0.000001
v -0.985355 0.485355 -0.000001
v 1.000000 -0.450000 -0.000001
v 0.950000 -0.500000 -0.000001
v 0.985355 -0.485355 -0.000001
v 0.950000 0.500000 -0.000001
v 1.000000 0.450000 -0.000001
v 0.985355 0.485355 -0.000001
v -0.950000 -0.500000 0.149999
v -0.950000 -0.450000 0.199999
v -1.000000 -0.450000 0.149999
v -0.950000 -0.485355 0.185354
v -0.978868 -0.478868 0.178866
v -0.985355 -0.450000 0.185354
v -0.985355 -0.485355 0.149999
v -0.950000 0.450000 0.199999
v -0.950000 0.500000 0.149999
v -1.000000 0.450000 0.149999
v -0.950000 0.485355 0.185354
v -0.978868 0.478868 0.178867
v -0.985355 0.485355 0.149999
v -0.985355 0.450000 0.185354
v 0.950000 0.500000 0.149999
v 0.950000 0.450000 0.199999
v 1.000000 0.450000 0.149999
v 0.950000 0.485355 0.185354
v 0.978868 0.478867 0.178867
v 0.985355 0.450000 0.185354
v 0.985355 0.485355 0.149999
v 0.950000 -0.500000 0.149999
v 1.000000 -0.450000 0.149999
v 0.950000 -0.450000 0.199999
v 0.985355 -0.485355 0.149999
v 0.978868 -0.478868 0.178866
v 0.985355 -0.450000 0.185354
v 0.950000 -0.485355 0.185354
v -0.900000 -0.400000 0.099999
v -0.900000 0.400000 0.099999
v 0.900000 0.400000 0.099999
v 0.900000 -0.400000 0.099999
vt 0.985352 0.898571
vt 0.889648 0.898571
vt 0.891365 0.899282
vt 0.983635 0.899282
vt 0.891365 0.899282
vt 0.983635 0.899282
vt 0.893793 0.839950
vt 0.893793 0.878800
vt 0.891365 0.881229
vt 0.891365 0.837521
vt 0.893793 0.847550
vt 0.893793 0.808700
vt 0.893793 0.808700
vt 0.893793 0.847550
vt 0.888937 0.837521
vt 0.888937 0.881229
vt 0.888937 0.881229
vt 0.888937 0.837521
vt 0.986063 0.837521
vt 0.986063 0.881229
vt 0.986063 0.881229
vt 0.986063 0.837521
vt 0.981207 0.839950
vt 0.983635 0.837521
vt 0.981207 0.878800
vt 0.983635 0.881229
vt 0.981207 0.847550
vt 0.981207 0.847550
vt 0.981207 0.808700
vt 0.981207 0.808700
vt 0.891365 0.819468
vt 0.891365 0.820179
vt 0.889963 0.820495
vt 0.889648 0.820179
vt 0.891365 0.821896
vt 0.889648 0.821896
vt 0.888937 0.821896
vt 0.891365 0.896854
vt 0.891365 0.898571
vt 0.889963 0.898256
vt 0.889648 0.896854
vt 0.889648 0.898571
vt 0.888937 0.896854
vt 0.983635 0.898571
vt 0.985037 0.898256
vt 0.985352 0.898571
vt 0.983635 0.896854
vt 0.985352 0.896854
vt 0.986063 0.896854
vt 0.983635 0.819468
vt 0.985352 0.820179
vt 0.985037 0.820495
vt 0.983635 0.820179
vt 0.986063 0.821896
vt 0.985352 0.821896
vt 0.983635 0.821896
vt 0.891365 0.819468
vt 0.889648 0.820179
vt 0.888937 0.821896
vt 0.889648 0.881229
vt 0.889648 0.837521
vt 0.888937 0.896854
vt 0.983635 0.819468
vt 0.985352 0.820179
vt 0.986063 0.821896
vt 0.986063 0.896854
vt 0.985352 0.837521
vt 0.985352 0.881229
vt 0.979669 0.237977
vt 0.979669 0.762021
vt 0.020327 0.762021
vt 0.020327 0.237977
vt 0.961939 0.237977
vt 0.961939 0.762021
vt 0.959503 0.789415
vt 0.959503 0.210585
vt 0.975561 0.762021
vt 0.975561 0.237977
vt 0.977997 0.210585
vt 0.977997 0.789415
vn 0.0000 0.0000 -1.0000
vn 0.1951 0.9808 0.0000
vn -0.1951 0.9808 0.0000
vn -0.1794 0.9673 0.1794
vn 0.1794 0.9673 0.1794
vn -0.0000 -0.0000 1.0000
vn -0.1794 0.1794 0.9673
vn -0.1794 -0.1794 0.9673
vn 1.0000 -0.0000 0.0000
vn -0.9673 -0.1794 0.1794
vn -0.9673 0.1794 0.1794
vn -0.9808 0.1951 0.0000
vn -0.9808 -0.1951 -0.0000
vn 0.9808 -0.1951 -0.0000
vn 0.9808 0.1951 0.0000
vn 0.9673 0.1794 0.1794
vn 0.9673 -0.1794 0.1794
vn 0.1794 -0.1794 0.9673
vn 0.1794 0.1794 0.9673
vn 0.0000 -1.0000 -0.0000
vn -1.0000 -0.0000 0.0000
vn 0.0000 1.0000 0.0000
vn -0.1794 -0.9673 0.1794
vn -0.1585 -0.9194 0.3600
vn -0.3251 -0.8881 0.3251
vn -0.3600 -0.9194 0.1585
vn -0.3600 -0.1585 0.9194
vn -0.3251 -0.3251 0.8881
vn -0.1585 -0.3600 0.9194
vn -0.9194 -0.3600 0.1585
vn -0.8881 -0.3251 0.3251
vn -0.9194 -0.1585 0.3600
vn -0.1585 0.3600 0.9194
vn -0.3250 0.3250 0.8881
vn -0.3600 0.1585 0.9194
vn -0.3600 0.9194 0.1585
vn -0.3250 0.8881 0.3250
vn -0.1585 0.9194 0.3600
vn -0.9194 0.1585 0.3600
vn -0.8881 0.3250 0.3250
vn -0.9194 0.3600 0.1585
vn 0.1585 0.9194 0.3600
vn 0.3251 0.8881 0.3251
vn 0.3600 0.9194 0.1585
vn 0.3600 0.1585 0.9194
vn 0.3251 0.3251 0.8881
vn 0.1585 0.3600 0.9194
vn 0.9194 0.3600 0.1585
vn 0.8881 0.3251 0.3251
vn 0.9194 0.1585 0.3600
vn 0.1794 -0.9673 0.1794
vn 0.3600 -0.9194 0.1585
vn 0.3251 -0.8881 0.3251
vn 0.1585 -0.9194 0.3600
vn 0.9194 -0.1585 0.3600
vn 0.8881 -0.3251 0.3251
vn 0.9194 -0.3600 0.1585
vn 0.1585 -0.3600 0.9194
vn 0.3251 -0.3251 0.8881
vn 0.3600 -0.1585 0.9194
vn -0.1951 -0.9808 0.0000
vn -0.3827 -0.9239 0.0000
vn -0.9239 -0.3827 -0.0000
vn -0.3827 0.9239 0.0000
vn -0.9239 0.3827 0.0000
vn 0.1951 -0.9808 0.0000
vn 0.3827 -0.9239 0.0000
vn 0.9239 -0.3827 -0.0000
vn 0.3827 0.9239 0.0000
vn 0.9239 0.3827 0.0000
usemtl tiny_treats_1
s 1
f 20/1/1 14/2/1 13/3/1 18/4/1
f 18/4/2 13/3/3 29/5/4 35/6/5
f 1/7/6 2/8/6 28/9/7 22/10/8
f 2/11/9 1/12/9 49/13/9 50/14/9
f 23/15/10 30/16/11 12/17/12 10/18/13
f 15/19/14 19/20/15 37/21/16 43/22/17
f 3/23/6 1/7/6 22/10/8 44/24/18
f 2/8/6 4/25/6 36/26/19 28/9/7
f 4/25/6 3/23/6 44/24/18 36/26/19
f 4/27/20 2/11/20 50/14/20 51/28/20
f 3/29/21 4/27/21 51/28/21 52/30/21
f 1/12/22 3/29/22 52/30/22 49/13/22
f 21/31/23 24/32/24 25/33/25 27/34/26
f 22/35/8 26/36/27 25/33/28 24/32/29
f 23/37/10 27/34/30 25/33/31 26/36/32
f 28/38/7 31/39/33 32/40/34 34/41/35
f 29/5/4 33/42/36 32/40/37 31/39/38
f 30/43/11 34/41/39 32/40/40 33/42/41
f 35/6/5 38/44/42 39/45/43 41/46/44
f 36/47/19 40/48/45 39/45/46 38/44/47
f 37/49/16 41/46/48 39/45/49 40/48/50
f 42/50/51 45/51/52 46/52/53 48/53/54
f 43/54/17 47/55/55 46/52/56 45/51/57
f 44/56/18 48/53/58 46/52/59 47/55/60
f 9/57/61 21/31/23 27/34/26 11/58/62
f 11/58/63 27/34/30 23/37/10 10/59/13
f 22/10/8 28/9/7 34/60/35 26/61/27
f 26/61/32 34/60/39 30/16/11 23/15/10
f 29/5/4 13/3/3 14/2/64 33/42/36
f 33/42/41 14/2/65 12/62/12 30/43/11
f 42/50/51 16/63/66 17/64/67 45/51/52
f 45/51/57 17/64/68 15/65/14 43/54/17
f 18/4/2 35/6/5 41/46/44 20/1/69
f 20/1/70 41/46/48 37/49/16 19/66/15
f 36/26/19 44/24/18 47/67/60 40/68/45
f 40/68/50 47/67/55 43/22/17 37/21/16
f 21/31/23 42/50/51 48/53/54 24/32/24
f 24/32/29 48/53/58 44/56/18 22/35/8
f 35/6/5 29/5/4 31/39/38 38/44/42
f 38/44/47 31/39/33 28/38/7 36/47/19
f 9/57/61 16/63/66 42/50/51 21/31/23
f 19/66/1 12/62/1 14/2/1 20/1/1
f 15/19/1 10/18/1 12/17/1 19/20/1
f 11/58/1 10/59/1 15/65/1 17/64/1
f 9/57/1 11/58/1 17/64/1 16/63/1
usemtl tiny_treats_bakery_sign_large
f 8/69/6 7/70/6 6/71/6 5/72/6
f 5/73/6 6/74/6 50/75/6 49/76/6
f 7/77/6 8/78/6 52/79/6 51/80/6
f 8/78/6 5/73/6 49/76/6 52/79/6
f 6/74/6 7/77/6 51/80/6 50/75/6
