# Blender v3.4.1 OBJ File: 'Tiny_Treats_Bakery_Interior_1.1_ASSETS_EXPORT.blend'
# www.blender.org
mtllib wall_modular_panelled_bakery_window_full_right_B.mtl
o wall_modular_panelled_bakery_window_full_right_B
v -1.000000 0.500000 0.000000
v 0.750000 3.500000 0.000000
v -1.000000 0.000000 -0.250000
v -1.000000 4.000000 -0.250000
v 1.000000 4.000000 -0.250000
v 1.000000 0.000000 -0.250000
v 0.750000 3.500000 -0.250000
v 0.750000 0.500000 -0.250000
v 0.750000 1.300000 -0.250000
v 1.000000 1.300000 -0.250000
v 0.750000 0.500000 0.000000
v 0.750000 1.300000 0.000000
v -1.000000 3.500000 -0.250000
v -1.000000 0.500000 -0.250000
v -1.000000 3.500000 0.000000
v -1.000000 0.000000 0.000000
v 1.000000 0.000000 0.000000
v 1.000000 4.000000 0.000000
v -1.000000 4.000000 0.000000
v 1.000000 1.300000 0.000000
vt 0.511937 0.870328
vt 0.511937 0.833239
vt 0.511937 0.833239
vt 0.511937 0.870328
vt 0.568997 0.947359
vt 0.511937 0.947359
vt 0.519355 0.930241
vt 0.561579 0.930241
vt 0.519355 0.870328
vt 0.519355 0.870328
vt 0.519355 0.856063
vt 0.519355 0.856063
vt 0.568997 0.833239
vt 0.561579 0.856063
vt 0.519355 0.930241
vt 0.561579 0.856063
vt 0.561579 0.930241
vt 0.511937 0.947359
vt 0.568997 0.962984
vt 0.568997 0.962984
vt 0.511937 0.962984
vt 0.511937 0.962984
vt 0.511937 0.817614
vt 0.511937 0.817614
vt 0.506497 0.817614
vt 0.568997 0.817614
vt 0.509463 0.865446
vn 1.0000 0.0000 0.0000
vn -0.0000 0.0000 -1.0000
vn -1.0000 0.0000 0.0000
vn 0.0000 1.0000 0.0000
vn 0.0000 -1.0000 0.0000
usemtl tiny_treats_1
s 1
f 20/1/1 17/2/1 6/3/1 10/4/1
f 4/5/2 5/6/2 7/7/2 13/8/2
f 12/9/3 9/10/3 8/11/3 11/12/3
f 10/4/2 9/10/2 7/7/2 5/6/2
f 3/13/2 14/14/2 8/11/2 6/3/2
f 6/3/2 8/11/2 9/10/2 10/4/2
f 2/15/3 7/7/3 9/10/3 12/9/3
f 14/14/4 1/16/4 11/12/4 8/11/4
f 13/8/5 7/7/5 2/15/5 15/17/5
f 18/18/1 20/1/1 10/4/1 5/6/1
f 13/8/3 15/17/3 19/19/3 4/20/3
f 4/20/4 19/19/4 18/21/4 5/22/4
f 6/23/5 17/24/5 16/25/5 3/26/5
f 3/26/3 16/25/3 1/27/3 14/14/3
