# Blender v3.4.1 OBJ File: 'Tiny_Treats_Bakery_Interior_1.1_ASSETS_EXPORT.blend'
# www.blender.org
mtllib wall_panelled_bakery_corner_outer.mtl
o wall_panelled_bakery_corner_outer
v 0.250000 -0.000000 0.250001
v 2.000000 -0.000000 0.249999
v 2.000000 4.000000 0.250000
v 1.999999 -0.000000 -0.200000
v 1.999999 4.000000 -0.200000
v 1.999999 1.300000 -0.200000
v -0.200000 1.000000 -0.199999
v 1.999999 1.000000 -0.200000
v 1.999999 1.000000 -0.280000
v 1.999999 1.020000 -0.300000
v 1.999999 1.280000 -0.300000
v 1.999999 1.300000 -0.280000
v -0.300000 1.020000 -0.299999
v 1.999999 0.200000 -0.200000
v -0.200001 -0.000000 -0.199999
v 1.999999 -0.000000 -0.200000
v 1.999999 -0.000000 -0.280000
v 1.999999 0.020000 -0.300000
v 1.999999 0.180000 -0.300000
v 1.999999 0.200000 -0.280000
v -0.300001 0.020000 -0.299999
v 2.000000 1.300000 0.249999
v 0.250000 1.300000 0.250001
v 1.999999 1.300000 -0.200000
v 1.999999 4.000000 -0.250000
v -0.250000 4.000000 -0.249999
v 1.999999 1.300000 -0.250000
v -0.250000 1.300000 -0.249999
v 0.250001 -0.000000 2.000000
v 0.250001 4.000000 2.000001
v 0.249999 4.000000 0.250001
v -0.200001 -0.000000 -0.199999
v -0.200001 4.000000 -0.199999
v -0.200000 -0.000000 2.000000
v -0.200000 4.000000 2.000001
v -0.200000 1.300000 2.000001
v -0.200001 1.300000 -0.199999
v -0.200000 1.000000 2.000000
v -0.280001 1.000000 -0.279999
v -0.300001 1.280000 -0.299999
v -0.280001 1.300000 -0.279999
v -0.279999 1.300000 2.000001
v -0.300000 1.280000 2.000001
v -0.300000 1.020000 2.000001
v -0.279999 1.000000 2.000000
v -0.200000 0.200000 2.000000
v -0.200001 0.200000 -0.199999
v -0.200000 -0.000000 2.000000
v -0.280001 -0.000000 -0.279999
v -0.300001 0.180000 -0.299999
v -0.280001 0.200000 -0.279999
v -0.279999 0.200000 2.000000
v -0.300000 0.180000 2.000000
v -0.300000 0.020000 2.000000
v -0.279999 -0.000000 2.000000
v -0.200000 1.300000 2.000001
v 0.250001 1.300000 2.000001
v -0.200001 1.300000 -0.199999
v -0.250000 4.000000 2.000001
v -0.250000 1.300000 2.000001
v 2.000000 0.200000 -0.200001
v 1.763333 0.200000 -0.250000
v 1.950000 0.200000 -0.250001
v 2.000000 1.000000 -0.200000
v 1.950000 1.000000 -0.250000
v 1.763333 1.000000 -0.250000
v 1.713333 0.200000 -0.200000
v 1.426667 1.000000 -0.200000
v 1.476667 0.200000 -0.250000
v 1.663333 0.200000 -0.250000
v 1.713333 1.000000 -0.200000
v 1.663333 1.000000 -0.250000
v 1.476667 1.000000 -0.250000
v 1.426667 0.200000 -0.200000
v 1.190000 0.200000 -0.250000
v 1.376667 0.200000 -0.250000
v 1.376667 1.000000 -0.250000
v 1.190000 1.000000 -0.250000
v 1.140000 0.200000 -0.200000
v 0.853333 1.000000 -0.200000
v 0.903333 0.200000 -0.250000
v 1.090000 0.200000 -0.250000
v 1.140000 1.000000 -0.200000
v 1.090000 1.000000 -0.250000
v 0.903333 1.000000 -0.250000
v 0.853333 0.200000 -0.200000
v 0.616667 0.200000 -0.250000
v 0.803333 0.200000 -0.250000
v 0.803333 1.000000 -0.250000
v 0.616667 1.000000 -0.250000
v 0.566667 0.200000 -0.200000
v 0.280000 1.000000 -0.200000
v 0.330000 0.200000 -0.250000
v 0.516667 0.200000 -0.250000
v 0.566667 1.000000 -0.200000
v 0.516667 1.000000 -0.250000
v 0.330000 1.000000 -0.250000
v 0.280000 0.200000 -0.200000
v -0.000000 1.000000 -0.200000
v -0.000000 0.200000 -0.200000
v 0.043334 0.200000 -0.250000
v 0.230000 0.200000 -0.250000
v 0.230000 1.000000 -0.250000
v 0.043334 1.000000 -0.250000
v 0.000000 1.000000 -0.200000
v 0.000000 0.200000 -0.200000
v -0.241667 1.000000 -0.243333
v -0.241667 0.200000 -0.243333
v -0.050000 0.200000 -0.250000
v -0.050000 1.000000 -0.250000
v -0.200001 0.200000 0.000000
v -0.250000 0.200000 0.236667
v -0.250001 0.200000 0.050000
v -0.200001 1.000000 0.000000
v -0.250001 1.000000 0.050000
v -0.250000 1.000000 0.236667
v -0.200001 0.200000 0.286667
v -0.200000 1.000000 0.573334
v -0.250000 0.200000 0.523333
v -0.250001 0.200000 0.336667
v -0.200001 1.000000 0.286667
v -0.250001 1.000000 0.336667
v -0.250000 1.000000 0.523333
v -0.200000 0.200000 0.573333
v -0.250000 0.200000 0.810000
v -0.250000 0.200000 0.623333
v -0.250000 1.000000 0.623334
v -0.250000 1.000000 0.810000
v -0.200000 0.200000 0.860000
v -0.200000 1.000000 1.146667
v -0.250000 0.200000 1.096667
v -0.250000 0.200000 0.910000
v -0.200000 1.000000 0.860000
v -0.250000 1.000000 0.910000
v -0.250000 1.000000 1.096667
v -0.200000 0.200000 1.146667
v -0.250000 0.200000 1.383333
v -0.250000 0.200000 1.196667
v -0.250000 1.000000 1.196667
v -0.250000 1.000000 1.383333
v -0.200000 0.200000 1.433333
v -0.200000 1.000000 1.720000
v -0.250000 0.200000 1.670000
v -0.250000 0.200000 1.483333
v -0.200000 1.000000 1.433334
v -0.250000 1.000000 1.483334
v -0.250000 1.000000 1.670000
v -0.200000 0.200000 1.720000
v -0.200000 1.000000 2.000000
v -0.200000 0.200000 2.000000
v -0.250000 0.200000 1.956667
v -0.250000 0.200000 1.770000
v -0.250000 1.000000 1.770000
v -0.250000 1.000000 1.956667
v -0.250000 0.200000 -0.050000
v -0.250000 1.000000 -0.050000
v -0.200001 0.200000 0.000000
v -0.200001 1.000000 0.000001
vt 0.597527 0.870328
vt 0.597527 0.947359
vt 0.597527 0.947359
vt 0.597527 0.870328
vt 0.597527 0.962984
vt 0.534761 0.962984
vt 0.547599 0.962984
vt 0.597527 0.962984
vt 0.597527 0.962984
vt 0.533334 0.962984
vt 0.792395 0.859544
vt 0.831071 0.859544
vt 0.831071 0.859544
vt 0.792395 0.859544
vt 0.831071 0.891181
vt 0.831071 0.896204
vt 0.792395 0.896204
vt 0.792395 0.891181
vt 0.831071 0.927840
vt 0.792395 0.927840
vt 0.792395 0.927454
vt 0.831071 0.927454
vt 0.831071 0.859931
vt 0.792395 0.859931
vt 0.831071 0.927840
vt 0.792395 0.927840
vt 0.792395 0.890794
vt 0.792395 0.896590
vt 0.792395 0.890794
vt 0.792395 0.896590
vt 0.547599 0.870328
vt 0.547599 0.833239
vt 0.597527 0.833239
vt 0.792395 0.859544
vt 0.831071 0.859544
vt 0.831071 0.859544
vt 0.792395 0.859544
vt 0.831071 0.891181
vt 0.831071 0.896204
vt 0.792395 0.896204
vt 0.792395 0.891181
vt 0.831071 0.927840
vt 0.792395 0.927840
vt 0.792395 0.927454
vt 0.831071 0.927454
vt 0.831071 0.859931
vt 0.792395 0.859931
vt 0.831071 0.927840
vt 0.792395 0.927840
vt 0.792395 0.890794
vt 0.792395 0.896590
vt 0.792395 0.890794
vt 0.792395 0.896590
vt 0.547599 0.947359
vt 0.825666 0.867152
vt 0.825666 0.894990
vt 0.797800 0.894990
vt 0.797800 0.867152
vt 0.597527 0.833239
vt 0.533334 0.870328
vt 0.533334 0.947359
vt 0.597527 0.947359
vt 0.597527 0.870328
vt 0.597527 0.854703
vt 0.534761 0.854703
vt 0.533334 0.854703
vt 0.597527 0.854703
vt 0.547599 0.870328
vt 0.534761 0.870328
vt 0.534761 0.833239
vt 0.547599 0.833239
vt 0.534761 0.962984
vt 0.547599 0.962984
vt 0.533334 0.962984
vt 0.792395 0.859544
vt 0.831071 0.859544
vt 0.831071 0.859544
vt 0.792395 0.859544
vt 0.831071 0.891181
vt 0.831071 0.896204
vt 0.792395 0.896204
vt 0.792395 0.891181
vt 0.831071 0.927840
vt 0.792395 0.927840
vt 0.792395 0.927454
vt 0.831071 0.927454
vt 0.831071 0.859931
vt 0.792395 0.859931
vt 0.831071 0.927840
vt 0.792395 0.927840
vt 0.831071 0.896590
vt 0.831071 0.890794
vt 0.831071 0.896590
vt 0.831071 0.890794
vt 0.792395 0.859544
vt 0.831071 0.859544
vt 0.831071 0.859544
vt 0.792395 0.859544
vt 0.831071 0.891181
vt 0.831071 0.896204
vt 0.792395 0.896204
vt 0.792395 0.891181
vt 0.831071 0.927840
vt 0.792395 0.927840
vt 0.792395 0.927454
vt 0.831071 0.927454
vt 0.831071 0.859931
vt 0.792395 0.859931
vt 0.831071 0.927840
vt 0.792395 0.927840
vt 0.831071 0.896590
vt 0.831071 0.890794
vt 0.831071 0.896590
vt 0.831071 0.890794
vt 0.547599 0.947359
vt 0.825666 0.867152
vt 0.825666 0.894990
vt 0.797800 0.894990
vt 0.797800 0.867152
vt 0.534761 0.947359
vt 0.533334 0.870328
vt 0.533334 0.947359
vt 0.534761 0.854703
vt 0.533334 0.854703
vt 0.597527 0.817614
vt 0.547599 0.817614
vt 0.534761 0.817614
vt 0.597527 0.817614
vt 0.534761 0.817614
vt 0.547599 0.817614
vt 0.804320 0.867611
vt 0.804320 0.890988
vt 0.793362 0.890988
vt 0.793362 0.867611
vt 0.793362 0.898861
vt 0.793362 0.922238
vt 0.792395 0.922238
vt 0.792395 0.898861
vt 0.804320 0.859738
vt 0.804320 0.836361
vt 0.805287 0.836361
vt 0.805287 0.859738
vt 0.804320 0.867611
vt 0.804320 0.890988
vt 0.793362 0.890988
vt 0.793362 0.867611
vt 0.793362 0.898861
vt 0.793362 0.922238
vt 0.792395 0.922238
vt 0.792395 0.898861
vt 0.804320 0.859738
vt 0.804320 0.836361
vt 0.805287 0.836361
vt 0.805287 0.859738
vt 0.804320 0.867611
vt 0.804320 0.890988
vt 0.793362 0.890988
vt 0.793362 0.867611
vt 0.793362 0.898861
vt 0.793362 0.922238
vt 0.792395 0.922238
vt 0.792395 0.898861
vt 0.804320 0.859738
vt 0.804320 0.836361
vt 0.805287 0.836361
vt 0.805287 0.859738
vt 0.804320 0.867611
vt 0.804320 0.890988
vt 0.793362 0.890988
vt 0.793362 0.867611
vt 0.793362 0.898861
vt 0.793362 0.922238
vt 0.792395 0.922238
vt 0.792395 0.898861
vt 0.804320 0.859738
vt 0.804320 0.836361
vt 0.805287 0.836361
vt 0.805287 0.859738
vt 0.804320 0.867611
vt 0.804320 0.890988
vt 0.793362 0.890988
vt 0.793362 0.867611
vt 0.793362 0.898861
vt 0.793362 0.922238
vt 0.792395 0.922238
vt 0.792395 0.898861
vt 0.804320 0.859738
vt 0.804320 0.836361
vt 0.805287 0.836361
vt 0.805287 0.859738
vt 0.804320 0.867611
vt 0.804320 0.890988
vt 0.793362 0.890988
vt 0.793362 0.867611
vt 0.793362 0.898861
vt 0.793362 0.922238
vt 0.792395 0.922238
vt 0.792395 0.898861
vt 0.804320 0.859738
vt 0.804320 0.836361
vt 0.805287 0.836361
vt 0.805287 0.859738
vt 0.804320 0.867611
vt 0.804320 0.890988
vt 0.793362 0.890988
vt 0.793362 0.867611
vt 0.793362 0.898861
vt 0.793362 0.922238
vt 0.792395 0.922238
vt 0.792395 0.898861
vt 0.804320 0.859738
vt 0.804320 0.836361
vt 0.805287 0.836361
vt 0.805287 0.859738
vt 0.804320 0.867611
vt 0.804320 0.890988
vt 0.793362 0.890988
vt 0.793362 0.867611
vt 0.793362 0.898861
vt 0.793362 0.922238
vt 0.792395 0.922238
vt 0.792395 0.898861
vt 0.804320 0.867611
vt 0.804320 0.890988
vt 0.793362 0.890988
vt 0.793362 0.867611
vt 0.793362 0.898861
vt 0.793362 0.922238
vt 0.792395 0.922238
vt 0.792395 0.898861
vt 0.804320 0.859738
vt 0.804320 0.836361
vt 0.805287 0.836361
vt 0.805287 0.859738
vt 0.804320 0.867611
vt 0.804320 0.890988
vt 0.793362 0.890988
vt 0.793362 0.867611
vt 0.793362 0.898861
vt 0.793362 0.922238
vt 0.792395 0.922238
vt 0.792395 0.898861
vt 0.804320 0.859738
vt 0.804320 0.836361
vt 0.805287 0.836361
vt 0.805287 0.859738
vt 0.804320 0.867611
vt 0.804320 0.890988
vt 0.793362 0.890988
vt 0.793362 0.867611
vt 0.793362 0.898861
vt 0.793362 0.922238
vt 0.792395 0.922238
vt 0.792395 0.898861
vt 0.804320 0.859738
vt 0.804320 0.836361
vt 0.805287 0.836361
vt 0.805287 0.859738
vt 0.804320 0.867611
vt 0.804320 0.890988
vt 0.793362 0.890988
vt 0.793362 0.867611
vt 0.793362 0.898861
vt 0.793362 0.922238
vt 0.792395 0.922238
vt 0.792395 0.898861
vt 0.804320 0.859738
vt 0.804320 0.836361
vt 0.805287 0.836361
vt 0.805287 0.859738
vt 0.804320 0.867611
vt 0.804320 0.890988
vt 0.793362 0.890988
vt 0.793362 0.867611
vt 0.793362 0.898861
vt 0.793362 0.922238
vt 0.792395 0.922238
vt 0.792395 0.898861
vt 0.804320 0.859738
vt 0.804320 0.836361
vt 0.805287 0.836361
vt 0.805287 0.859738
vt 0.804320 0.867611
vt 0.804320 0.890988
vt 0.793362 0.890988
vt 0.793362 0.867611
vt 0.793362 0.898861
vt 0.793362 0.922238
vt 0.792395 0.922238
vt 0.792395 0.898861
vt 0.804320 0.859738
vt 0.804320 0.836361
vt 0.805287 0.836361
vt 0.805287 0.859738
vt 0.804320 0.867611
vt 0.804320 0.890988
vt 0.793362 0.890988
vt 0.793362 0.867611
vt 0.793362 0.898861
vt 0.793362 0.922238
vt 0.792395 0.922238
vt 0.792395 0.898861
vt 0.804320 0.859738
vt 0.804320 0.836361
vt 0.805287 0.836361
vt 0.805287 0.859738
vt 0.804320 0.867611
vt 0.804320 0.890988
vt 0.793362 0.890988
vt 0.793362 0.867611
vt 0.804320 0.859738
vt 0.804320 0.836361
vt 0.805287 0.836361
vt 0.805287 0.859738
vn 1.0000 0.0000 -0.0000
vn 0.0000 1.0000 0.0000
vn -0.0000 -1.0000 -0.0000
vn -0.0000 -0.8334 -0.5526
vn -0.0000 -0.9239 -0.3827
vn -0.0000 -0.0000 -1.0000
vn -0.0000 0.7071 -0.7071
vn -0.0000 -0.7071 -0.7071
vn 0.0000 -0.0000 1.0000
vn -0.0000 0.8334 -0.5526
vn -0.0000 0.9239 -0.3827
vn -1.0000 -0.0000 0.0000
vn -0.3827 0.9239 0.0000
vn -0.5526 0.8334 0.0000
vn -0.7071 0.7071 0.0000
vn -0.7071 -0.7071 0.0000
vn -0.3827 0.0000 -0.9239
vn 0.7071 0.0000 -0.7071
vn -0.7071 0.0000 -0.7071
vn -0.7557 0.0000 -0.6549
vn -0.0348 0.0000 -0.9994
vn -0.9239 -0.0000 0.3827
vn -0.7071 -0.0000 0.7071
vn -0.9239 0.0000 -0.3827
vn -0.6549 -0.0000 0.7557
vn -0.9991 0.0000 -0.0431
usemtl tiny_treats_1
s 1
f 24/1/1 5/2/1 3/3/1 22/4/1
f 5/5/2 33/6/2 31/7/2 3/8/2
f 33/6/2 5/5/2 25/9/2 26/10/2
f 8/11/3 7/12/3 39/13/4 9/14/5
f 13/15/6 40/16/6 11/17/6 10/18/6
f 41/19/7 12/20/7 11/21/7 40/22/7
f 13/23/8 10/24/8 9/14/5 39/13/4
f 37/25/2 6/26/2 12/20/2 41/19/2
f 9/27/1 10/18/1 11/17/1 12/28/1
f 8/29/1 9/27/1 12/28/1 6/30/1
f 23/31/9 1/32/9 2/33/9 22/4/9
f 16/34/3 15/35/3 49/36/3 17/37/3
f 21/38/6 50/39/6 19/40/6 18/41/6
f 51/42/10 20/43/11 19/44/7 50/45/7
f 21/46/8 18/47/8 17/37/8 49/36/8
f 47/48/2 14/49/2 20/43/11 51/42/10
f 17/50/1 18/41/1 19/40/1 20/51/1
f 16/52/1 17/50/1 20/51/1 14/53/1
f 31/54/9 23/31/9 22/4/9 3/3/9
f 32/55/6 58/56/6 24/57/6 4/58/6
f 4/59/1 24/1/1 22/4/1 2/33/1
f 28/60/6 26/61/6 25/62/6 27/63/6
f 5/2/1 24/1/1 27/63/1 25/62/1
f 24/64/3 58/65/3 28/66/3 27/67/3
f 57/68/9 56/69/9 34/70/9 29/71/9
f 33/6/2 35/72/2 30/73/2 31/7/2
f 35/72/2 33/6/2 26/10/2 59/74/2
f 7/75/3 38/76/3 45/77/3 39/78/3
f 44/79/12 43/80/12 40/81/12 13/82/12
f 42/83/13 41/84/14 40/85/15 43/86/15
f 44/87/16 13/88/16 39/78/16 45/77/16
f 36/89/2 37/90/2 41/84/14 42/83/13
f 42/91/9 43/80/9 44/79/9 45/92/9
f 36/93/9 42/91/9 45/92/9 38/94/9
f 57/68/1 29/71/1 1/32/1 23/31/1
f 15/95/3 48/96/3 55/97/3 49/98/3
f 54/99/12 53/100/12 50/101/12 21/102/12
f 52/103/13 51/104/14 50/105/15 53/106/15
f 54/107/16 21/108/16 49/98/16 55/97/16
f 46/109/2 47/110/2 51/104/14 52/103/13
f 52/111/9 53/100/9 54/99/9 55/112/9
f 46/113/9 52/111/9 55/112/9 48/114/9
f 30/115/1 57/68/1 23/31/1 31/54/1
f 34/116/12 56/117/12 58/118/12 32/119/12
f 30/115/9 35/120/9 56/69/9 57/68/9
f 60/121/12 59/122/12 26/61/12 28/60/12
f 58/65/3 56/123/3 60/124/3 28/66/3
f 56/69/9 35/120/9 59/122/9 60/121/9
f 2/125/3 1/126/3 32/127/3 4/128/3
f 34/129/3 32/127/3 1/126/3 29/130/3
f 62/131/17 66/132/17 65/133/6 63/134/6
f 63/135/18 65/136/18 64/137/18 61/138/18
f 66/139/17 62/140/17 67/141/19 71/142/19
f 69/143/17 73/144/17 72/145/6 70/146/6
f 70/147/18 72/148/18 71/149/18 67/150/18
f 73/151/17 69/152/17 74/153/19 68/154/19
f 75/155/17 78/156/17 77/157/6 76/158/6
f 76/159/18 77/160/18 68/161/18 74/162/18
f 78/163/17 75/164/17 79/165/19 83/166/19
f 81/167/17 85/168/17 84/169/6 82/170/6
f 82/171/18 84/172/18 83/173/18 79/174/18
f 85/175/17 81/176/17 86/177/19 80/178/19
f 87/179/17 90/180/17 89/181/6 88/182/6
f 88/183/18 89/184/18 80/185/18 86/186/18
f 90/187/17 87/188/17 91/189/19 95/190/19
f 93/191/17 97/192/17 96/193/6 94/194/6
f 94/195/18 96/196/18 95/197/18 91/198/18
f 97/199/17 93/200/17 98/201/19 92/202/19
f 101/203/6 104/204/6 103/205/6 102/206/6
f 102/207/18 103/208/18 92/209/18 98/210/18
f 104/211/20 101/212/20 100/213/20 99/214/20
f 108/215/21 107/216/21 110/217/21 109/218/21
f 109/219/18 110/220/18 105/221/18 106/222/18
f 112/223/22 116/224/22 115/225/12 113/226/12
f 113/227/19 115/228/19 114/229/19 111/230/19
f 116/231/22 112/232/22 117/233/23 121/234/23
f 119/235/22 123/236/22 122/237/12 120/238/12
f 120/239/19 122/240/19 121/241/19 117/242/19
f 123/243/22 119/244/22 124/245/23 118/246/23
f 125/247/22 128/248/22 127/249/12 126/250/12
f 126/251/19 127/252/19 118/253/19 124/254/19
f 128/255/22 125/256/22 129/257/23 133/258/23
f 131/259/22 135/260/22 134/261/12 132/262/12
f 132/263/19 134/264/19 133/265/19 129/266/19
f 135/267/22 131/268/22 136/269/23 130/270/23
f 137/271/22 140/272/22 139/273/24 138/274/24
f 138/275/24 139/276/24 130/277/19 136/278/19
f 140/279/22 137/280/22 141/281/23 145/282/23
f 143/283/22 147/284/22 146/285/24 144/286/24
f 144/287/24 146/288/24 145/289/19 141/290/19
f 147/291/22 143/292/22 148/293/23 142/294/23
f 151/295/12 154/296/12 153/297/24 152/298/24
f 152/299/24 153/300/24 142/301/19 148/302/19
f 154/303/25 151/304/25 150/305/25 149/306/25
f 155/307/26 156/308/26 107/309/26 108/310/26
f 156/311/23 155/312/23 157/313/23 158/314/23
