# Blender v3.4.1 OBJ File: 'Tiny_Treats_Bakery_Interior_1.1_ASSETS_EXPORT.blend'
# www.blender.org
mtllib wall_panelled_bakery_window_full_center.mtl
o wall_panelled_bakery_window_full_center
v -1.000000 -0.000000 0.200001
v -1.000000 4.000000 0.200000
v 1.000000 0.000000 0.200000
v 1.000000 4.000000 0.200000
v -1.000000 3.500000 0.200000
v 1.000000 3.500000 0.200000
v -1.000000 0.500000 0.200000
v 1.000000 0.500000 0.200000
v 1.000000 4.000000 0.250000
v -1.000000 4.000000 0.250000
v -1.000000 3.500000 0.250000
v 1.000000 3.500000 0.250000
v -0.999999 0.200000 0.200000
v 1.000001 0.200000 0.200001
v -0.999999 -0.000000 0.200000
v 1.000001 -0.000000 0.200001
v 1.000001 -0.000000 0.280001
v 1.000001 0.020000 0.300001
v 1.000001 0.180000 0.300001
v 1.000001 0.200000 0.280001
v -0.999999 0.200000 0.280000
v -0.999999 0.180000 0.300000
v -0.999999 0.020000 0.300000
v -0.999999 -0.000000 0.280000
v 0.750000 0.500000 0.200000
v 0.750000 0.200000 0.200000
v 0.803333 0.500000 0.250000
v 0.950000 0.500000 0.250000
v 1.000000 0.500000 0.200000
v 0.950000 0.200000 0.250000
v 0.803333 0.200000 0.250000
v 1.000000 0.200000 0.200000
v -0.750000 0.500000 0.200000
v -0.750000 0.200000 0.200000
v -1.000000 0.500000 0.200000
v -1.000000 0.200000 0.200000
v -0.956666 0.200000 0.250000
v -0.800000 0.200000 0.250000
v -0.800000 0.500000 0.250000
v -0.956666 0.500000 0.250000
v 0.663333 0.500000 0.250000
v 0.750000 0.500000 0.200000
v 0.663333 0.200000 0.250000
v 0.476667 0.200000 0.250000
v 0.426667 0.500000 0.200000
v 0.750000 0.200000 0.200000
v 0.476667 0.500000 0.250000
v 0.426667 0.200000 0.200000
v 0.190000 0.200000 0.250000
v 0.376667 0.200000 0.250000
v 0.376667 0.500000 0.250000
v 0.190000 0.500000 0.250000
v 0.140000 0.200000 0.200000
v -0.146667 0.500000 0.200000
v -0.096666 0.200000 0.250000
v 0.090000 0.200000 0.250000
v 0.140000 0.500000 0.200000
v 0.090000 0.500000 0.250000
v -0.096666 0.500000 0.250000
v -0.146667 0.200000 0.200000
v -0.383333 0.200000 0.250000
v -0.196667 0.200000 0.250000
v -0.196667 0.500000 0.250000
v -0.383333 0.500000 0.250000
v -0.433333 0.200000 0.200000
v -0.750000 0.500000 0.200000
v -0.700000 0.200000 0.250000
v -0.483333 0.200000 0.250000
v -0.433333 0.500000 0.200000
v -0.483333 0.500000 0.250000
v -0.700000 0.500000 0.250000
v -0.750000 0.200000 0.200000
v -1.000000 0.500000 0.000000
v 1.000000 3.500000 0.000000
v -1.000000 0.000000 -0.250000
v -1.000000 4.000000 -0.250000
v 1.000000 4.000000 -0.250000
v 1.000000 0.000000 -0.250000
v 1.000000 3.500000 -0.250000
v 1.000000 0.500000 -0.250000
v 1.000000 0.500000 0.000000
v -1.000000 3.500000 -0.250000
v -1.000000 0.500000 -0.250000
v -1.000000 3.500000 0.000000
v 1.000000 0.375000 0.450000
v 1.000000 0.425000 0.500000
v 1.000000 0.675000 0.500000
v 1.000000 0.725000 0.450000
v 1.000000 0.375000 -0.450000
v 1.000000 0.425000 -0.500000
v 1.000000 0.725000 -0.450000
v 1.000000 0.675000 -0.500000
v -1.000000 0.375000 0.450000
v -1.000000 0.425000 0.500000
v -1.000000 0.725000 0.450000
v -1.000000 0.675000 0.500000
v -1.000000 0.375000 -0.450000
v -1.000000 0.425000 -0.500000
v -1.000000 0.725000 -0.450000
v -1.000000 0.675000 -0.500000
v -1.000000 3.625000 0.450000
v -1.000000 3.325000 0.500000
v -1.000000 3.275000 0.450000
v 1.000000 3.575000 -0.500000
v 1.000000 3.625000 -0.450000
v 1.000000 3.325000 -0.500000
v 1.000000 3.275000 -0.450000
v 1.000000 3.625000 0.450000
v 1.000000 3.575000 0.500000
v 1.000000 3.325000 0.500000
v 1.000000 3.275000 0.450000
v -1.000000 0.760319 -0.100000
v -1.000000 0.790320 -0.070000
v -1.000000 0.620319 -0.100000
v -1.000000 0.590320 -0.070000
v -1.000000 0.760319 0.100000
v -1.000000 0.790320 0.070000
v -1.000000 0.620319 0.100000
v -1.000000 0.590320 0.070000
v 1.000000 0.760319 -0.100000
v 1.000000 0.790320 -0.070000
v 1.000000 0.620319 -0.100000
v 1.000000 0.590320 -0.070000
v 1.000000 0.790320 0.070000
v 1.000000 0.760319 0.100000
v 1.000000 0.620319 0.100000
v 1.000000 0.590320 0.070000
v 1.000000 0.590320 0.000000
v -1.000000 0.590320 0.000000
v 1.000000 3.290320 0.000000
v -1.000000 3.290320 0.000000
v -1.000000 3.290320 -0.050000
v -1.000000 0.590320 -0.050000
v 1.000000 0.590320 -0.050000
v 1.000000 3.290320 -0.050000
v -1.000000 3.275000 0.150000
v 1.000000 3.275000 0.150000
v -1.000000 3.200000 0.150000
v 1.000000 3.200000 0.150000
v -1.000000 3.275000 -0.150000
v 1.000000 3.275000 -0.150000
v -1.000000 3.200000 -0.150000
v 1.000000 3.200000 -0.150000
v -1.000000 3.575000 0.500000
v -1.000000 3.275000 -0.450000
v -1.000000 3.325000 -0.500000
v -1.000000 3.625000 -0.450000
v -1.000000 3.575000 -0.500000
v -1.000000 0.000000 0.000000
v 1.000000 0.000000 0.000000
v 1.000000 4.000000 0.000000
v -1.000000 4.000000 0.000000
vt 0.797908 0.867260
vt 0.801503 0.881071
vt 0.821963 0.881071
vt 0.825557 0.867260
vt 0.568997 0.962984
vt 0.568997 0.962984
vt 0.511937 0.962984
vt 0.511937 0.962984
vt 0.561579 0.930241
vt 0.519355 0.930241
vt 0.519355 0.930241
vt 0.561579 0.930241
vt 0.821963 0.881071
vt 0.801503 0.881071
vt 0.519355 0.930241
vt 0.561579 0.930241
vt 0.568997 0.947359
vt 0.511937 0.947359
vt 0.792395 0.859544
vt 0.792395 0.859544
vt 0.831071 0.859544
vt 0.831071 0.859544
vt 0.831071 0.891181
vt 0.792395 0.891181
vt 0.792395 0.896204
vt 0.831071 0.896204
vt 0.831071 0.927840
vt 0.831071 0.927454
vt 0.792395 0.927454
vt 0.792395 0.927840
vt 0.831071 0.859931
vt 0.792395 0.859931
vt 0.831071 0.927840
vt 0.792395 0.927840
vt 0.831071 0.896590
vt 0.831071 0.890794
vt 0.831071 0.896590
vt 0.831071 0.890794
vt 0.792395 0.890794
vt 0.792395 0.896590
vt 0.792395 0.890794
vt 0.792395 0.896590
vt 0.804320 0.867611
vt 0.793362 0.867611
vt 0.793362 0.890988
vt 0.804320 0.890988
vt 0.793362 0.898861
vt 0.792395 0.898861
vt 0.792395 0.922238
vt 0.793362 0.922238
vt 0.804320 0.859738
vt 0.805287 0.859738
vt 0.805287 0.836361
vt 0.804320 0.836361
vt 0.804320 0.867611
vt 0.793362 0.867611
vt 0.793362 0.890988
vt 0.804320 0.890988
vt 0.793362 0.898861
vt 0.792395 0.898861
vt 0.792395 0.922238
vt 0.793362 0.922238
vt 0.804320 0.859738
vt 0.805287 0.859738
vt 0.805287 0.836361
vt 0.804320 0.836361
vt 0.804320 0.867611
vt 0.793362 0.867611
vt 0.793362 0.890988
vt 0.804320 0.890988
vt 0.793362 0.898861
vt 0.792395 0.898861
vt 0.792395 0.922238
vt 0.793362 0.922238
vt 0.804320 0.859738
vt 0.805287 0.859738
vt 0.805287 0.836361
vt 0.804320 0.836361
vt 0.804320 0.867611
vt 0.793362 0.867611
vt 0.793362 0.890988
vt 0.804320 0.890988
vt 0.793362 0.898861
vt 0.792395 0.898861
vt 0.792395 0.922238
vt 0.793362 0.922238
vt 0.804320 0.859738
vt 0.805287 0.859738
vt 0.805287 0.836361
vt 0.804320 0.836361
vt 0.804320 0.867611
vt 0.793362 0.867611
vt 0.793362 0.890988
vt 0.804320 0.890988
vt 0.793362 0.898861
vt 0.792395 0.898861
vt 0.792395 0.922238
vt 0.793362 0.922238
vt 0.804320 0.859738
vt 0.805287 0.859738
vt 0.805287 0.836361
vt 0.804320 0.836361
vt 0.804320 0.867611
vt 0.793362 0.867611
vt 0.793362 0.890988
vt 0.804320 0.890988
vt 0.793362 0.898861
vt 0.792395 0.898861
vt 0.792395 0.922238
vt 0.793362 0.922238
vt 0.804320 0.859738
vt 0.805287 0.859738
vt 0.805287 0.836361
vt 0.804320 0.836361
vt 0.804320 0.867611
vt 0.793362 0.867611
vt 0.793362 0.890988
vt 0.804320 0.890988
vt 0.793362 0.898861
vt 0.792395 0.898861
vt 0.792395 0.922238
vt 0.793362 0.922238
vt 0.804320 0.859738
vt 0.805287 0.859738
vt 0.805287 0.836361
vt 0.804320 0.836361
vt 0.568997 0.962984
vt 0.511937 0.962984
vt 0.793187 0.817614
vt 0.793187 0.817614
vt 0.818997 0.817614
vt 0.818997 0.817614
vt 0.568997 0.947359
vt 0.511937 0.947359
vt 0.519355 0.930241
vt 0.561579 0.930241
vt 0.568997 0.833239
vt 0.561579 0.856063
vt 0.519355 0.856063
vt 0.511937 0.833239
vt 0.561579 0.856063
vt 0.519355 0.856063
vt 0.466537 0.883087
vt 0.408463 0.883087
vt 0.408463 0.892853
vt 0.466537 0.892853
vt 0.466537 0.916130
vt 0.466537 0.916130
vt 0.408463 0.916130
vt 0.408463 0.916130
vt 0.408463 0.883087
vt 0.466537 0.883087
vt 0.466537 0.892853
vt 0.408463 0.892853
vt 0.466537 0.869821
vt 0.466537 0.873076
vt 0.408463 0.873076
vt 0.408463 0.869821
vt 0.408463 0.926140
vt 0.408463 0.922885
vt 0.466537 0.922885
vt 0.466537 0.926140
vt 0.408463 0.869821
vt 0.408463 0.873076
vt 0.466537 0.873076
vt 0.466537 0.869821
vt 0.466537 0.926140
vt 0.466537 0.922885
vt 0.408463 0.922885
vt 0.408463 0.926140
vt 0.408463 0.859810
vt 0.408463 0.859810
vt 0.466537 0.859810
vt 0.466537 0.859810
vt 0.466537 0.916130
vt 0.466537 0.916130
vt 0.408463 0.916130
vt 0.408463 0.916130
vt 0.466537 0.883087
vt 0.408463 0.883087
vt 0.408463 0.892853
vt 0.466537 0.892853
vt 0.408463 0.883087
vt 0.466537 0.883087
vt 0.466537 0.892853
vt 0.408463 0.892853
vt 0.390036 0.936033
vt 0.390036 0.932270
vt 0.484964 0.932270
vt 0.484964 0.936033
vt 0.484964 0.936033
vt 0.484964 0.932270
vt 0.390036 0.932270
vt 0.390036 0.936033
vt 0.390036 0.848449
vt 0.390036 0.852211
vt 0.484964 0.852211
vt 0.484964 0.848449
vt 0.484964 0.920408
vt 0.484964 0.920408
vt 0.390036 0.920408
vt 0.390036 0.920408
vt 0.390036 0.832823
vt 0.390036 0.832824
vt 0.484964 0.832824
vt 0.484964 0.832823
vt 0.484964 0.848448
vt 0.484964 0.852211
vt 0.390036 0.852211
vt 0.390036 0.848448
vt 0.484964 0.867836
vt 0.390036 0.867836
vt 0.390036 0.885395
vt 0.484964 0.885395
vt 0.390036 0.867836
vt 0.484964 0.867836
vt 0.484964 0.885395
vt 0.390036 0.885395
vt 0.411345 0.937821
vt 0.463655 0.937821
vt 0.458424 0.932595
vt 0.416576 0.932595
vt 0.411345 0.937821
vt 0.416576 0.932595
vt 0.458424 0.932595
vt 0.463655 0.937821
vt 0.458424 0.901345
vt 0.458424 0.901345
vt 0.416576 0.901345
vt 0.416576 0.901345
vt 0.408463 0.859810
vt 0.408463 0.859810
vt 0.408463 0.873076
vt 0.408463 0.922885
vt 0.408463 0.922885
vt 0.466537 0.869821
vt 0.466537 0.873076
vt 0.408463 0.869821
vt 0.408463 0.926140
vt 0.466537 0.922885
vt 0.466537 0.926140
vt 0.408463 0.869821
vt 0.408463 0.873076
vt 0.466537 0.873076
vt 0.466537 0.869821
vt 0.466537 0.926140
vt 0.466537 0.922885
vt 0.408463 0.926140
vt 0.466537 0.859810
vt 0.466537 0.859810
vt 0.568997 0.962984
vt 0.511937 0.962984
vt 0.511937 0.817614
vt 0.511937 0.817614
vt 0.506497 0.817614
vt 0.568997 0.817614
vt 0.509463 0.865446
vt 0.543187 0.817614
vt 0.994960 0.005040
vt 0.994960 0.244960
vt 0.755040 0.244960
vt 0.755040 0.005040
vt 0.755040 0.005040
vt 0.755040 0.244960
vt 0.994960 0.244960
vt 0.994960 0.005040
vn 0.0000 0.0000 1.0000
vn 0.0000 1.0000 -0.0000
vn 0.0000 -1.0000 0.0000
vn -1.0000 -0.0000 0.0000
vn -0.0000 -0.9239 0.3827
vn -0.0000 0.9239 0.3827
vn -0.0000 0.7071 0.7071
vn -0.0000 -0.7071 0.7071
vn 1.0000 0.0000 0.0000
vn -0.3677 0.0000 0.9299
vn 0.7071 0.0000 0.7071
vn -0.6839 0.0000 0.7295
vn -0.7557 0.0000 0.6549
vn -0.3827 0.0000 0.9239
vn 0.2587 0.0000 0.9660
vn 0.4997 0.0000 0.8662
vn -0.7071 0.0000 0.7071
vn -0.0000 0.0000 -1.0000
vn 0.0000 -0.3827 0.9239
vn 0.0000 0.3827 0.9239
vn 0.0000 -0.3827 -0.9239
vn 0.0000 0.3827 -0.9239
vn 0.0000 -0.7071 -0.7071
vn 0.0000 0.7071 -0.7071
vn 0.0000 0.9239 -0.3827
vn 0.0000 -0.9239 -0.3827
usemtl tiny_treats_1
s 1
f 3/1/1 8/2/1 7/3/1 1/4/1
f 2/5/2 10/6/2 9/7/2 4/8/2
f 84/9/3 74/10/3 6/11/3 5/12/3
f 73/13/2 7/3/2 8/2/2 81/14/2
f 6/11/3 12/15/3 11/16/3 5/12/3
f 10/17/4 2/5/4 5/12/4 11/16/4
f 9/18/1 10/17/1 11/16/1 12/15/1
f 16/19/3 17/20/5 24/21/5 15/22/3
f 23/23/1 18/24/1 19/25/1 22/26/1
f 21/27/6 22/28/7 19/29/7 20/30/6
f 23/31/8 24/21/5 17/20/5 18/32/8
f 13/33/2 21/27/6 20/30/6 14/34/2
f 21/35/4 24/36/4 23/23/4 22/26/4
f 13/37/4 15/38/4 24/36/4 21/35/4
f 17/39/9 20/40/9 19/25/9 18/24/9
f 16/41/9 14/42/9 20/40/9 17/39/9
f 31/43/10 30/44/1 28/45/1 27/46/10
f 30/47/11 32/48/11 29/49/11 28/50/11
f 27/51/10 25/52/12 26/53/12 31/54/10
f 37/55/1 38/56/1 39/57/1 40/58/1
f 38/59/11 34/60/11 33/61/11 39/62/11
f 40/63/13 35/64/13 36/65/13 37/66/13
f 44/67/14 43/68/15 41/69/15 47/70/14
f 43/71/15 46/72/16 42/73/16 41/74/15
f 47/75/14 45/76/17 48/77/17 44/78/14
f 49/79/14 50/80/1 51/81/1 52/82/14
f 50/83/11 48/84/11 45/85/11 51/86/11
f 52/87/14 57/88/17 53/89/17 49/90/14
f 55/91/14 56/92/1 58/93/1 59/94/14
f 56/95/11 53/96/11 57/97/11 58/98/11
f 59/99/14 54/100/17 60/101/17 55/102/14
f 61/103/14 62/104/1 63/105/1 64/106/14
f 62/107/11 60/108/11 54/109/11 63/110/11
f 64/111/14 69/112/17 65/113/17 61/114/14
f 67/115/14 68/116/1 70/117/1 71/118/14
f 68/119/11 65/120/11 69/121/11 70/122/11
f 71/123/14 66/124/17 72/125/17 67/126/14
f 47/70/2 41/69/2 42/73/2 45/76/2
f 52/87/2 51/86/2 45/85/2 57/88/2
f 57/97/2 54/100/2 59/99/2 58/93/2
f 64/111/2 63/110/2 54/109/2 69/112/2
f 69/121/2 66/124/2 71/123/2 70/117/2
f 152/127/2 2/5/2 4/8/2 151/128/2
f 150/129/3 3/130/3 1/131/3 149/132/3
f 76/133/18 77/134/18 79/135/18 82/136/18
f 75/137/18 83/138/18 80/139/18 78/140/18
f 83/138/2 73/141/2 81/142/2 80/139/2
f 82/136/3 79/135/3 74/10/3 84/9/3
f 94/143/19 86/144/19 87/145/20 96/146/20
f 99/147/2 95/148/2 88/149/2 91/150/2
f 90/151/21 98/152/21 100/153/22 92/154/22
f 97/155/23 98/156/21 90/157/21 89/158/23
f 91/159/24 92/160/22 100/161/22 99/162/24
f 85/163/8 86/164/19 94/165/19 93/166/8
f 95/167/7 96/168/20 87/169/20 88/170/7
f 89/171/3 85/172/3 93/173/3 97/174/3
f 147/175/25 101/176/6 108/177/6 105/178/25
f 102/179/19 110/180/19 109/181/1 144/182/1
f 106/183/21 146/184/21 148/185/18 104/186/18
f 85/172/9 89/171/9 90/157/9 86/144/9
f 121/187/24 120/188/22 112/189/22 113/190/24
f 117/191/7 116/192/20 125/193/20 124/194/7
f 127/195/5 126/196/8 118/197/8 119/198/5
f 113/199/2 117/200/2 124/201/2 121/202/2
f 123/203/26 127/204/5 119/205/5 115/206/26
f 115/207/26 114/208/23 122/209/23 123/210/26
f 118/211/1 126/212/1 125/213/20 116/214/20
f 122/215/18 114/216/18 112/217/22 120/218/22
f 114/216/4 118/211/4 116/214/4 112/189/4
f 137/219/1 136/220/1 138/221/1 139/222/1
f 117/191/4 113/190/4 112/189/4 116/192/4
f 141/223/18 143/224/18 142/225/18 140/226/18
f 136/220/4 140/226/4 142/225/4 138/227/4
f 142/228/3 143/229/3 139/230/3 138/227/3
f 86/144/9 90/151/9 92/154/9 87/169/9
f 87/169/9 92/160/9 91/159/9 88/149/9
f 111/231/9 107/232/9 106/233/9 110/180/9
f 110/180/9 106/183/9 104/186/9 109/234/9
f 105/178/9 108/177/9 109/234/9 104/235/9
f 145/236/23 146/237/21 106/233/21 107/238/23
f 105/239/25 104/235/24 148/240/24 147/241/25
f 111/242/8 110/243/19 102/244/19 103/245/8
f 101/246/6 144/247/7 109/234/7 108/248/6
f 107/232/3 111/231/3 103/249/3 145/250/3
f 84/9/4 5/12/4 2/5/4 152/127/4
f 82/136/4 84/9/4 152/127/4 76/251/4
f 76/251/2 152/127/2 151/128/2 77/252/2
f 78/253/3 150/254/3 149/255/3 75/256/3
f 101/176/4 147/175/4 148/240/4 144/247/4
f 146/184/4 102/179/4 144/182/4 148/240/4
f 102/179/4 146/184/4 145/236/4 103/249/4
f 95/148/4 99/147/4 100/161/4 96/168/4
f 98/152/4 94/143/4 96/146/4 100/161/4
f 94/143/4 98/152/4 97/155/4 93/173/4
f 119/198/4 118/197/4 114/216/4 115/207/4
f 1/131/4 7/3/4 73/13/4 149/132/4
f 75/256/4 149/255/4 73/257/4 83/138/4
f 9/7/9 12/15/9 6/11/9 4/8/9
f 6/11/9 74/10/9 151/128/9 4/8/9
f 77/252/9 151/128/9 74/10/9 79/135/9
f 8/2/9 3/130/9 150/129/9 81/14/9
f 80/139/9 81/142/9 150/258/9 78/253/9
f 137/219/9 139/230/9 143/224/9 141/223/9
f 121/187/9 124/194/9 125/193/9 120/188/9
f 126/212/9 122/215/9 120/218/9 125/193/9
f 122/215/9 126/212/9 127/195/9 123/203/9
usemtl tiny_treats_1_GLASS
f 128/259/1 130/260/1 131/261/1 129/262/1
f 133/263/18 132/264/18 135/265/18 134/266/18
