# Blender v3.4.1 OBJ File: 'Tiny_Treats_Bakery_Interior_1.1_ASSETS_EXPORT.blend'
# www.blender.org
mtllib wall_modular_panelled_bakery_window_full_right_A.mtl
o wall_modular_panelled_bakery_window_full_right_A
v -1.000000 -0.000000 0.200001
v -1.000000 4.000000 0.200000
v 1.000000 0.000000 0.200000
v 1.000000 4.000000 0.200000
v -1.000000 3.500000 0.200000
v 0.750000 3.500000 0.200000
v -1.000000 0.500000 0.200000
v 0.750000 0.500000 0.200000
v 0.750000 1.300000 0.200000
v 1.000000 1.300000 0.200000
v 1.000000 4.000000 0.250000
v -1.000000 4.000000 0.250000
v -1.000000 3.500000 0.250000
v 0.750000 3.500000 0.250000
v 0.750000 1.300000 0.250000
v 1.000000 1.300000 0.250000
v 0.750000 1.300000 0.200000
v 1.000001 1.300000 0.200001
v 0.750000 1.000000 0.200000
v 1.000001 1.000000 0.200001
v 1.000001 1.000000 0.280001
v 1.000001 1.020000 0.300001
v 1.000001 1.280000 0.300001
v 1.000001 1.300000 0.280001
v 0.750000 1.300000 0.280000
v 0.750000 1.280000 0.300000
v 0.750000 1.020000 0.300000
v 0.750000 1.000000 0.280000
v -0.999999 0.200000 0.200000
v 1.000001 0.200000 0.200001
v -0.999999 -0.000000 0.200000
v 1.000001 -0.000000 0.200001
v 1.000001 -0.000000 0.280001
v 1.000001 0.020000 0.300001
v 1.000001 0.180000 0.300001
v 1.000001 0.200000 0.280001
v -0.999999 0.200000 0.280000
v -0.999999 0.180000 0.300000
v -0.999999 0.020000 0.300000
v -0.999999 -0.000000 0.280000
v 0.750000 1.000000 0.200000
v 0.750000 0.200000 0.200000
v 0.803333 1.000000 0.250000
v 0.950000 1.000000 0.250000
v 1.000000 1.000000 0.200000
v 0.950000 0.200000 0.250000
v 0.803333 0.200000 0.250000
v 1.000000 0.200000 0.200000
v -0.750000 0.500000 0.200000
v -0.750000 0.200000 0.200000
v -1.000000 0.500000 0.200000
v -1.000000 0.200000 0.200000
v -0.956666 0.200000 0.250000
v -0.800000 0.200000 0.250000
v -0.800000 0.500000 0.250000
v -0.956666 0.500000 0.250000
v 0.663333 0.500000 0.250000
v 0.750000 0.500000 0.200000
v 0.663333 0.200000 0.250000
v 0.476667 0.200000 0.250000
v 0.426667 0.500000 0.200000
v 0.750000 0.200000 0.200000
v 0.476667 0.500000 0.250000
v 0.426667 0.200000 0.200000
v 0.190000 0.200000 0.250000
v 0.376667 0.200000 0.250000
v 0.376667 0.500000 0.250000
v 0.190000 0.500000 0.250000
v 0.140000 0.200000 0.200000
v -0.146667 0.500000 0.200000
v -0.096666 0.200000 0.250000
v 0.090000 0.200000 0.250000
v 0.140000 0.500000 0.200000
v 0.090000 0.500000 0.250000
v -0.096666 0.500000 0.250000
v -0.146667 0.200000 0.200000
v -0.383333 0.200000 0.250000
v -0.196667 0.200000 0.250000
v -0.196667 0.500000 0.250000
v -0.383333 0.500000 0.250000
v -0.433333 0.200000 0.200000
v -0.750000 0.500000 0.200000
v -0.700000 0.200000 0.250000
v -0.483333 0.200000 0.250000
v -0.433333 0.500000 0.200000
v -0.483333 0.500000 0.250000
v -0.700000 0.500000 0.250000
v -0.750000 0.200000 0.200000
v -1.000000 0.500000 0.000000
v 0.750000 3.500000 0.000000
v 0.750000 0.500000 0.000000
v 0.750000 1.300000 0.000000
v -1.000000 3.500000 0.000000
v -1.000000 0.000000 0.000000
v 1.000000 0.000000 0.000000
v 1.000000 4.000000 0.000000
v -1.000000 4.000000 0.000000
v 1.000000 1.300000 0.000000
vt 0.797908 0.867260
vt 0.801503 0.881071
vt 0.821963 0.881071
vt 0.825557 0.867260
vt 0.568997 0.962984
vt 0.568997 0.962984
vt 0.511937 0.962984
vt 0.511937 0.962984
vt 0.561579 0.930241
vt 0.519355 0.930241
vt 0.519355 0.930241
vt 0.561579 0.930241
vt 0.821963 0.881071
vt 0.801503 0.881071
vt 0.797908 0.894882
vt 0.801503 0.894882
vt 0.519355 0.930241
vt 0.561579 0.930241
vt 0.568997 0.947359
vt 0.511937 0.947359
vt 0.519355 0.870328
vt 0.511937 0.870328
vt 0.511937 0.947359
vt 0.511937 0.870328
vt 0.519355 0.870328
vt 0.792395 0.859544
vt 0.792395 0.859544
vt 0.831071 0.859544
vt 0.831071 0.859544
vt 0.831071 0.891181
vt 0.792395 0.891181
vt 0.792395 0.896204
vt 0.831071 0.896204
vt 0.831071 0.927840
vt 0.831071 0.927454
vt 0.792395 0.927454
vt 0.792395 0.927840
vt 0.831071 0.859931
vt 0.792395 0.859931
vt 0.831071 0.927840
vt 0.792395 0.927840
vt 0.831071 0.896590
vt 0.831071 0.890794
vt 0.831071 0.896590
vt 0.831071 0.890794
vt 0.792395 0.890794
vt 0.792395 0.896590
vt 0.792395 0.890794
vt 0.792395 0.896590
vt 0.792395 0.859544
vt 0.792395 0.859544
vt 0.831071 0.859544
vt 0.831071 0.859544
vt 0.831071 0.891181
vt 0.792395 0.891181
vt 0.792395 0.896204
vt 0.831071 0.896204
vt 0.831071 0.927840
vt 0.831071 0.927454
vt 0.792395 0.927454
vt 0.792395 0.927840
vt 0.831071 0.859931
vt 0.792395 0.859931
vt 0.831071 0.927840
vt 0.792395 0.927840
vt 0.831071 0.896590
vt 0.831071 0.890794
vt 0.831071 0.896590
vt 0.831071 0.890794
vt 0.792395 0.890794
vt 0.792395 0.896590
vt 0.792395 0.890794
vt 0.792395 0.896590
vt 0.804320 0.867611
vt 0.793362 0.867611
vt 0.793362 0.890988
vt 0.804320 0.890988
vt 0.793362 0.898861
vt 0.792395 0.898861
vt 0.792395 0.922238
vt 0.793362 0.922238
vt 0.804320 0.859738
vt 0.805287 0.859738
vt 0.805287 0.836361
vt 0.804320 0.836361
vt 0.804320 0.867611
vt 0.793362 0.867611
vt 0.793362 0.890988
vt 0.804320 0.890988
vt 0.793362 0.898861
vt 0.792395 0.898861
vt 0.792395 0.922238
vt 0.793362 0.922238
vt 0.804320 0.859738
vt 0.805287 0.859738
vt 0.805287 0.836361
vt 0.804320 0.836361
vt 0.519355 0.870328
vt 0.801503 0.894882
vt 0.804320 0.867611
vt 0.793362 0.867611
vt 0.793362 0.890988
vt 0.804320 0.890988
vt 0.793362 0.898861
vt 0.792395 0.898861
vt 0.792395 0.922238
vt 0.793362 0.922238
vt 0.804320 0.859738
vt 0.805287 0.859738
vt 0.805287 0.836361
vt 0.804320 0.836361
vt 0.804320 0.867611
vt 0.793362 0.867611
vt 0.793362 0.890988
vt 0.804320 0.890988
vt 0.793362 0.898861
vt 0.792395 0.898861
vt 0.792395 0.922238
vt 0.793362 0.922238
vt 0.804320 0.859738
vt 0.805287 0.859738
vt 0.805287 0.836361
vt 0.804320 0.836361
vt 0.804320 0.867611
vt 0.793362 0.867611
vt 0.793362 0.890988
vt 0.804320 0.890988
vt 0.793362 0.898861
vt 0.792395 0.898861
vt 0.792395 0.922238
vt 0.793362 0.922238
vt 0.804320 0.859738
vt 0.805287 0.859738
vt 0.805287 0.836361
vt 0.804320 0.836361
vt 0.804320 0.867611
vt 0.793362 0.867611
vt 0.793362 0.890988
vt 0.804320 0.890988
vt 0.793362 0.898861
vt 0.792395 0.898861
vt 0.792395 0.922238
vt 0.793362 0.922238
vt 0.804320 0.859738
vt 0.805287 0.859738
vt 0.805287 0.836361
vt 0.804320 0.836361
vt 0.804320 0.867611
vt 0.793362 0.867611
vt 0.793362 0.890988
vt 0.804320 0.890988
vt 0.793362 0.898861
vt 0.792395 0.898861
vt 0.792395 0.922238
vt 0.793362 0.922238
vt 0.804320 0.859738
vt 0.805287 0.859738
vt 0.805287 0.836361
vt 0.804320 0.836361
vt 0.568997 0.962984
vt 0.511937 0.962984
vt 0.793187 0.817614
vt 0.793187 0.817614
vt 0.818997 0.817614
vt 0.818997 0.817614
vt 0.511937 0.870328
vt 0.511937 0.947359
vt 0.793187 0.870328
vt 0.793187 0.833239
vt 0.793187 0.833239
vt 0.793187 0.870328
vn 0.0000 0.0000 1.0000
vn 0.0000 1.0000 -0.0000
vn 0.0000 -1.0000 0.0000
vn -1.0000 -0.0000 0.0000
vn 1.0000 -0.0000 0.0000
vn -0.0000 -0.9239 0.3827
vn -0.0000 0.9239 0.3827
vn -0.0000 0.7071 0.7071
vn -0.0000 -0.7071 0.7071
vn -0.3677 0.0000 0.9299
vn 0.7071 0.0000 0.7071
vn -0.6839 0.0000 0.7295
vn -0.7557 0.0000 0.6549
vn -0.3827 0.0000 0.9239
vn 0.2587 0.0000 0.9660
vn 0.4997 0.0000 0.8662
vn -0.7071 0.0000 0.7071
usemtl tiny_treats_1
s 1
f 3/1/1 8/2/1 7/3/1 1/4/1
f 2/5/2 12/6/2 11/7/2 4/8/2
f 93/9/3 90/10/3 6/11/3 5/12/3
f 89/13/2 7/3/2 8/2/2 91/14/2
f 10/15/1 9/16/1 8/2/1 3/1/1
f 6/11/3 14/17/3 13/18/3 5/12/3
f 12/19/4 2/5/4 5/12/4 13/18/4
f 11/20/1 12/19/1 13/18/1 14/17/1
f 11/20/1 14/17/1 15/21/1 16/22/1
f 4/23/5 11/20/5 16/22/5 10/24/5
f 9/25/4 15/21/4 14/17/4 6/11/4
f 20/26/3 21/27/6 28/28/6 19/29/3
f 27/30/1 22/31/1 23/32/1 26/33/1
f 25/34/7 26/35/8 23/36/8 24/37/7
f 27/38/9 28/28/6 21/27/6 22/39/9
f 17/40/2 25/34/7 24/37/7 18/41/2
f 25/42/4 28/43/4 27/30/4 26/33/4
f 17/44/4 19/45/4 28/43/4 25/42/4
f 21/46/5 24/47/5 23/32/5 22/31/5
f 20/48/5 18/49/5 24/47/5 21/46/5
f 32/50/3 33/51/6 40/52/6 31/53/3
f 39/54/1 34/55/1 35/56/1 38/57/1
f 37/58/7 38/59/8 35/60/8 36/61/7
f 39/62/9 40/52/6 33/51/6 34/63/9
f 29/64/2 37/58/7 36/61/7 30/65/2
f 37/66/4 40/67/4 39/54/4 38/57/4
f 29/68/4 31/69/4 40/67/4 37/66/4
f 33/70/5 36/71/5 35/56/5 34/55/5
f 32/72/5 30/73/5 36/71/5 33/70/5
f 47/74/10 46/75/1 44/76/1 43/77/10
f 46/78/11 48/79/11 45/80/11 44/81/11
f 43/82/10 41/83/12 42/84/12 47/85/10
f 53/86/1 54/87/1 55/88/1 56/89/1
f 54/90/11 50/91/11 49/92/11 55/93/11
f 56/94/13 51/95/13 52/96/13 53/97/13
f 6/11/4 90/10/4 92/98/4 9/25/4
f 9/16/4 92/99/4 91/14/4 8/2/4
f 60/100/14 59/101/15 57/102/15 63/103/14
f 59/104/15 62/105/16 58/106/16 57/107/15
f 63/108/14 61/109/17 64/110/17 60/111/14
f 65/112/14 66/113/1 67/114/1 68/115/14
f 66/116/11 64/117/11 61/118/11 67/119/11
f 68/120/14 73/121/17 69/122/17 65/123/14
f 71/124/14 72/125/1 74/126/1 75/127/14
f 72/128/11 69/129/11 73/130/11 74/131/11
f 75/132/14 70/133/17 76/134/17 71/135/14
f 77/136/14 78/137/1 79/138/1 80/139/14
f 78/140/11 76/141/11 70/142/11 79/143/11
f 80/144/14 85/145/17 81/146/17 77/147/14
f 83/148/14 84/149/1 86/150/1 87/151/14
f 84/152/11 81/153/11 85/154/11 86/155/11
f 87/156/14 82/157/17 88/158/17 83/159/14
f 63/103/2 57/102/2 58/106/2 61/109/2
f 68/120/2 67/119/2 61/118/2 73/121/2
f 73/130/2 70/133/2 75/132/2 74/126/2
f 80/144/2 79/143/2 70/142/2 85/145/2
f 85/154/2 82/157/2 87/156/2 86/150/2
f 97/160/2 2/5/2 4/8/2 96/161/2
f 95/162/3 3/163/3 1/164/3 94/165/3
f 93/9/4 5/12/4 2/5/4 97/160/4
f 4/23/5 10/24/5 98/166/5 96/167/5
f 10/168/5 3/169/5 95/170/5 98/171/5
f 1/164/4 7/3/4 89/13/4 94/165/4
f 55/93/2 49/92/2 51/95/2 56/94/2
