# Blender v3.4.1 OBJ File: 'Tiny_Treats_Bakery_Interior_1.1_ASSETS_EXPORT.blend'
# www.blender.org
mtllib wall_modular_panelled_bakery_straight_A.mtl
o wall_modular_panelled_bakery_straight_A
v -1.000000 -0.000000 0.200000
v -1.000000 4.000000 0.200001
v 1.000000 -0.000000 0.200000
v 1.000000 4.000000 0.200000
v 1.000000 1.300000 0.200000
v -1.000000 1.300000 0.200000
v 1.000000 1.000000 0.200000
v -1.000000 1.000000 0.200000
v -1.000000 1.000000 0.280000
v -1.000000 1.020000 0.300000
v -1.000000 1.280000 0.300000
v -1.000000 1.300000 0.280000
v 1.000000 1.300000 0.280000
v 1.000000 1.280000 0.300000
v 1.000000 1.020000 0.300000
v 1.000000 1.000000 0.280000
v 1.000000 0.200000 0.200000
v -1.000000 0.200000 0.200000
v 1.000000 -0.000000 0.200000
v -1.000000 -0.000000 0.200000
v -1.000000 -0.000000 0.280000
v -1.000000 0.020000 0.300000
v -1.000000 0.180000 0.300000
v -1.000000 0.200000 0.280000
v 1.000000 0.200000 0.280000
v 1.000000 0.180000 0.300000
v 1.000000 0.020000 0.300000
v 1.000000 -0.000000 0.280000
v 1.000000 1.300000 0.200000
v -1.000000 1.300000 0.200000
v -1.000000 4.000000 0.250001
v 1.000000 4.000000 0.250000
v -1.000000 1.300000 0.250000
v 1.000000 1.300000 0.250000
v -1.000000 0.200000 0.200000
v -0.763333 0.200000 0.250000
v -0.950000 0.200000 0.250000
v -1.000000 1.000000 0.200000
v -0.950000 1.000000 0.250000
v -0.763333 1.000000 0.250000
v -0.713333 0.200000 0.200000
v -0.426667 1.000000 0.200000
v -0.476667 0.200000 0.250000
v -0.663333 0.200000 0.250000
v -0.713333 1.000000 0.200000
v -0.663333 1.000000 0.250000
v -0.476667 1.000000 0.250000
v -0.426667 0.200000 0.200000
v -0.190000 0.200000 0.250000
v -0.376667 0.200000 0.250000
v -0.376667 1.000000 0.250000
v -0.190000 1.000000 0.250000
v -0.140000 0.200000 0.200000
v 0.146667 1.000000 0.200000
v 0.096666 0.200000 0.250000
v -0.090000 0.200000 0.250000
v -0.140000 1.000000 0.200000
v -0.090000 1.000000 0.250000
v 0.096666 1.000000 0.250000
v 0.146667 0.200000 0.200000
v 0.383333 0.200000 0.250000
v 0.196667 0.200000 0.250000
v 0.196667 1.000000 0.250000
v 0.383333 1.000000 0.250000
v 0.433333 0.200000 0.200000
v 0.720000 1.000000 0.200000
v 0.670000 0.200000 0.250000
v 0.483333 0.200000 0.250000
v 0.433333 1.000000 0.200000
v 0.483333 1.000000 0.250000
v 0.670000 1.000000 0.250000
v 0.720000 0.200000 0.200000
v 1.000000 1.000000 0.200000
v 1.000000 0.200000 0.200000
v 0.956666 0.200000 0.250000
v 0.770000 0.200000 0.250000
v 0.770000 1.000000 0.250000
v 0.956666 1.000000 0.250000
v 1.000000 0.000000 0.000000
v -1.000000 0.000000 0.000000
v 1.000000 4.000000 0.000000
v -1.000000 4.000000 0.000001
vt 0.568997 0.833239
vt 0.568997 0.870328
vt 0.568997 0.833239
vt 0.568997 0.817614
vt 0.511937 0.817614
vt 0.511937 0.817614
vt 0.568997 0.817614
vt 0.568997 0.962984
vt 0.511937 0.962984
vt 0.511937 0.962984
vt 0.568997 0.962984
vt 0.792395 0.859544
vt 0.831071 0.859544
vt 0.831071 0.859544
vt 0.792395 0.859544
vt 0.831071 0.891181
vt 0.831071 0.896204
vt 0.792395 0.896204
vt 0.792395 0.891181
vt 0.831071 0.927840
vt 0.792395 0.927840
vt 0.792395 0.927454
vt 0.831071 0.927454
vt 0.831071 0.859931
vt 0.792395 0.859931
vt 0.831071 0.927840
vt 0.792395 0.927840
vt 0.831071 0.896590
vt 0.831071 0.890794
vt 0.831071 0.896590
vt 0.831071 0.890794
vt 0.792395 0.890794
vt 0.792395 0.896590
vt 0.792395 0.890794
vt 0.792395 0.896590
vt 0.792395 0.859544
vt 0.831071 0.859544
vt 0.831071 0.859544
vt 0.792395 0.859544
vt 0.831071 0.891181
vt 0.831071 0.896204
vt 0.792395 0.896204
vt 0.792395 0.891181
vt 0.831071 0.927840
vt 0.792395 0.927840
vt 0.792395 0.927454
vt 0.831071 0.927454
vt 0.831071 0.859931
vt 0.792395 0.859931
vt 0.831071 0.927840
vt 0.792395 0.927840
vt 0.831071 0.896590
vt 0.831071 0.890794
vt 0.831071 0.896590
vt 0.831071 0.890794
vt 0.792395 0.890794
vt 0.792395 0.896590
vt 0.792395 0.890794
vt 0.792395 0.896590
vt 0.824989 0.867828
vt 0.824989 0.894314
vt 0.798477 0.894314
vt 0.798477 0.867828
vt 0.568997 0.962984
vt 0.511937 0.962984
vt 0.568997 0.870328
vt 0.568997 0.947359
vt 0.511937 0.947359
vt 0.511937 0.870328
vt 0.511937 0.947359
vt 0.511937 0.870328
vt 0.511937 0.854703
vt 0.568997 0.854703
vt 0.568997 0.854703
vt 0.511937 0.854703
vt 0.568997 0.947359
vt 0.804320 0.867611
vt 0.804320 0.890988
vt 0.793362 0.890988
vt 0.793362 0.867611
vt 0.793362 0.898861
vt 0.793362 0.922238
vt 0.792395 0.922238
vt 0.792395 0.898861
vt 0.804320 0.859738
vt 0.804320 0.836361
vt 0.805287 0.836361
vt 0.805287 0.859738
vt 0.804320 0.867611
vt 0.804320 0.890988
vt 0.793362 0.890988
vt 0.793362 0.867611
vt 0.793362 0.898861
vt 0.793362 0.922238
vt 0.792395 0.922238
vt 0.792395 0.898861
vt 0.804320 0.859738
vt 0.804320 0.836361
vt 0.805287 0.836361
vt 0.805287 0.859738
vt 0.804320 0.867611
vt 0.804320 0.890988
vt 0.793362 0.890988
vt 0.793362 0.867611
vt 0.793362 0.898861
vt 0.793362 0.922238
vt 0.792395 0.922238
vt 0.792395 0.898861
vt 0.804320 0.859738
vt 0.804320 0.836361
vt 0.805287 0.836361
vt 0.805287 0.859738
vt 0.804320 0.867611
vt 0.804320 0.890988
vt 0.793362 0.890988
vt 0.793362 0.867611
vt 0.793362 0.898861
vt 0.793362 0.922238
vt 0.792395 0.922238
vt 0.792395 0.898861
vt 0.804320 0.859738
vt 0.804320 0.836361
vt 0.805287 0.836361
vt 0.805287 0.859738
vt 0.804320 0.867611
vt 0.804320 0.890988
vt 0.793362 0.890988
vt 0.793362 0.867611
vt 0.793362 0.898861
vt 0.793362 0.922238
vt 0.792395 0.922238
vt 0.792395 0.898861
vt 0.804320 0.859738
vt 0.804320 0.836361
vt 0.805287 0.836361
vt 0.805287 0.859738
vt 0.804320 0.867611
vt 0.804320 0.890988
vt 0.793362 0.890988
vt 0.793362 0.867611
vt 0.793362 0.898861
vt 0.793362 0.922238
vt 0.792395 0.922238
vt 0.792395 0.898861
vt 0.804320 0.859738
vt 0.804320 0.836361
vt 0.805287 0.836361
vt 0.805287 0.859738
vt 0.804320 0.867611
vt 0.804320 0.890988
vt 0.793362 0.890988
vt 0.793362 0.867611
vt 0.793362 0.898861
vt 0.793362 0.922238
vt 0.792395 0.922238
vt 0.792395 0.898861
vt 0.804320 0.859738
vt 0.804320 0.836361
vt 0.805287 0.836361
vt 0.805287 0.859738
vt 0.511937 0.947359
vt 0.511937 0.833239
vt 0.568997 0.947359
vt 0.511937 0.833239
vn 1.0000 -0.0000 0.0000
vn 0.0000 -1.0000 -0.0000
vn 0.0000 1.0000 0.0000
vn 0.0000 -0.9239 0.3827
vn 0.0000 -0.0000 1.0000
vn 0.0000 0.9239 0.3827
vn 0.0000 0.7071 0.7071
vn 0.0000 -0.7071 0.7071
vn -1.0000 0.0000 0.0000
vn 0.3827 -0.0000 0.9239
vn -0.7071 -0.0000 0.7071
vn 0.7071 -0.0000 0.7071
vn 0.7557 -0.0000 0.6549
usemtl tiny_treats_1
s 1
f 79/1/1 29/2/1 3/3/1
f 3/4/2 1/5/2 80/6/2 79/7/2
f 4/8/3 2/9/3 31/10/3 32/11/3
f 8/12/2 7/13/2 16/14/4 9/15/4
f 15/16/5 14/17/5 11/18/5 10/19/5
f 13/20/6 12/21/6 11/22/7 14/23/7
f 15/24/8 10/25/8 9/15/4 16/14/4
f 5/26/3 6/27/3 12/21/6 13/20/6
f 13/28/1 14/17/1 15/16/1 16/29/1
f 5/30/1 13/28/1 16/29/1 7/31/1
f 9/32/9 10/19/9 11/18/9 12/33/9
f 8/34/9 9/32/9 12/33/9 6/35/9
f 20/36/2 19/37/2 28/38/4 21/39/4
f 27/40/5 26/41/5 23/42/5 22/43/5
f 25/44/6 24/45/6 23/46/7 26/47/7
f 27/48/8 22/49/8 21/39/4 28/38/4
f 17/50/3 18/51/3 24/45/6 25/44/6
f 25/52/1 26/41/1 27/40/1 28/53/1
f 17/54/1 25/52/1 28/53/1 19/55/1
f 21/56/9 22/43/9 23/42/9 24/57/9
f 20/58/9 21/56/9 24/57/9 18/59/9
f 3/60/5 29/61/5 30/62/5 1/63/5
f 2/9/3 4/8/3 81/64/3 82/65/3
f 34/66/5 32/67/5 31/68/5 33/69/5
f 2/70/9 30/71/9 33/69/9 31/68/9
f 30/72/2 29/73/2 34/74/2 33/75/2
f 29/2/1 4/76/1 32/67/1 34/66/1
f 36/77/10 40/78/10 39/79/5 37/80/5
f 37/81/11 39/82/11 38/83/11 35/84/11
f 40/85/10 36/86/10 41/87/12 45/88/12
f 43/89/10 47/90/10 46/91/5 44/92/5
f 44/93/11 46/94/11 45/95/11 41/96/11
f 47/97/10 43/98/10 48/99/12 42/100/12
f 49/101/10 52/102/10 51/103/5 50/104/5
f 50/105/11 51/106/11 42/107/11 48/108/11
f 52/109/10 49/110/10 53/111/12 57/112/12
f 55/113/10 59/114/10 58/115/5 56/116/5
f 56/117/11 58/118/11 57/119/11 53/120/11
f 59/121/10 55/122/10 60/123/12 54/124/12
f 61/125/10 64/126/10 63/127/5 62/128/5
f 62/129/11 63/130/11 54/131/11 60/132/11
f 64/133/10 61/134/10 65/135/12 69/136/12
f 67/137/10 71/138/10 70/139/5 68/140/5
f 68/141/11 70/142/11 69/143/11 65/144/11
f 71/145/10 67/146/10 72/147/12 66/148/12
f 75/149/5 78/150/5 77/151/5 76/152/5
f 76/153/11 77/154/11 66/155/11 72/156/11
f 78/157/13 75/158/13 74/159/13 73/160/13
f 30/71/9 2/70/9 82/161/9 80/162/9
f 81/163/1 4/76/1 29/2/1 79/1/1
f 1/164/9 30/71/9 80/162/9
