# Blender v3.4.1 OBJ File: 'Tiny_Treats_Bakery_Interior_1.1_ASSETS_EXPORT.blend'
# www.blender.org
mtllib wall_shelf_bakery_A.mtl
o wall_shelf_bakery_A
v -0.720000 0.420793 0.080000
v -0.720000 0.399283 0.100000
v -0.700000 0.399283 0.080000
v -0.720000 -0.374190 0.100000
v -0.700000 -0.374190 0.080000
v -0.720000 0.420793 0.000000
v -0.700000 0.399283 0.000000
v -0.700000 -0.374190 -0.000000
v -0.880000 0.420793 0.080000
v -0.900000 0.399283 0.080000
v -0.880000 0.399283 0.100000
v -0.880000 -0.374190 0.100000
v -0.900000 -0.374190 0.080000
v -0.880000 0.420793 0.000000
v -0.900000 0.399283 0.000000
v -0.900000 -0.374190 -0.000000
v 0.880000 0.420793 0.080000
v 0.880000 0.399283 0.100000
v 0.900000 0.399283 0.080000
v 0.880000 -0.374190 0.100000
v 0.900000 -0.374190 0.080000
v 0.880000 0.420793 0.000000
v 0.900000 0.399283 0.000000
v 0.900000 -0.374190 -0.000000
v 0.720000 0.420793 0.080000
v 0.700000 0.399283 0.080000
v 0.720000 0.399283 0.100000
v 0.720000 -0.374190 0.100000
v 0.700000 -0.374190 0.080000
v 0.720000 0.420793 0.000000
v 0.700000 0.399283 0.000000
v 0.700000 -0.374190 -0.000000
v 0.080000 0.420793 0.080000
v 0.080000 0.399283 0.100000
v 0.100000 0.399283 0.080000
v 0.080000 -0.374190 0.100000
v 0.100000 -0.374190 0.080000
v 0.080000 0.420793 0.000000
v 0.100000 0.399283 0.000000
v 0.100000 -0.374190 -0.000000
v -0.080000 0.420793 0.080000
v -0.100000 0.399283 0.080000
v -0.080000 0.399283 0.100000
v -0.080000 -0.374190 0.100000
v -0.100000 -0.374190 0.080000
v -0.080000 0.420793 0.000000
v -0.100000 0.399283 0.000000
v -0.100000 -0.374190 -0.000000
v 0.962590 -0.558706 0.100000
v 0.941606 -0.558706 0.120000
v 0.941606 -0.579207 0.100000
v 0.962590 -0.558706 0.000000
v 0.941606 -0.579207 -0.000000
v 0.962590 -0.394692 0.100000
v 0.941606 -0.374190 0.100000
v 0.941606 -0.394692 0.120000
v 0.962590 -0.394692 0.000000
v 0.941606 -0.374190 0.000000
v -0.962590 -0.394691 0.100000
v -0.941607 -0.394691 0.120000
v -0.941607 -0.374190 0.100000
v -0.962590 -0.394691 0.000000
v -0.941607 -0.374190 0.000000
v -0.962590 -0.558705 0.100000
v -0.941607 -0.579207 0.100000
v -0.941607 -0.558705 0.120000
v -0.962590 -0.558705 0.000000
v -0.941607 -0.579207 0.000000
v -0.950000 -0.144917 0.100000
v -1.000000 -0.094950 0.100000
v -1.000000 0.054950 0.100000
v -0.950000 0.100000 0.100000
v 0.950000 -0.144917 0.100000
v 1.000000 -0.094950 0.100000
v 0.950000 0.100000 0.100000
v 1.000000 0.054950 0.100000
v -0.950000 -0.144917 0.750000
v -0.950000 -0.094950 0.800000
v -1.000000 -0.094950 0.750000
v -0.950000 0.100000 0.750000
v -1.000000 0.054950 0.750000
v -0.950000 0.054950 0.800000
v 0.950000 -0.144917 0.750000
v 1.000000 -0.094950 0.750000
v 0.950000 -0.094950 0.800000
v 0.950000 0.100000 0.750000
v 0.950000 0.054950 0.800000
v 1.000000 0.054950 0.750000
vt 0.339395 0.824319
vt 0.339395 0.868095
vt 0.308944 0.868095
vt 0.308944 0.824319
vt 0.343201 0.824319
vt 0.343201 0.868095
vt 0.343201 0.868095
vt 0.343201 0.824319
vt 0.305137 0.824319
vt 0.305137 0.868095
vt 0.305137 0.868095
vt 0.305137 0.824319
vt 0.308944 0.789265
vt 0.308944 0.793069
vt 0.305137 0.793069
vt 0.339395 0.789265
vt 0.343201 0.793069
vt 0.339395 0.793069
vt 0.308944 0.789265
vt 0.305137 0.793069
vt 0.339395 0.789265
vt 0.343201 0.793069
vt 0.316056 0.824319
vt 0.316056 0.868095
vt 0.285605 0.868095
vt 0.285605 0.824319
vt 0.319863 0.824319
vt 0.319863 0.868095
vt 0.319863 0.868095
vt 0.319863 0.824319
vt 0.281799 0.824319
vt 0.281799 0.868095
vt 0.281799 0.868095
vt 0.281799 0.824319
vt 0.285605 0.789265
vt 0.285605 0.793069
vt 0.281799 0.793069
vt 0.316056 0.789265
vt 0.319863 0.793069
vt 0.316056 0.793069
vt 0.281799 0.793069
vt 0.285605 0.789265
vt 0.319863 0.793069
vt 0.316056 0.789265
vt 0.316056 0.824319
vt 0.316056 0.868095
vt 0.285605 0.868095
vt 0.285605 0.824319
vt 0.319863 0.824319
vt 0.319863 0.868095
vt 0.319863 0.868095
vt 0.319863 0.824319
vt 0.281799 0.824319
vt 0.281799 0.868095
vt 0.281799 0.868095
vt 0.281799 0.824319
vt 0.285605 0.789265
vt 0.285605 0.793069
vt 0.281799 0.793069
vt 0.316056 0.789265
vt 0.319863 0.793069
vt 0.316056 0.793069
vt 0.281799 0.793069
vt 0.285605 0.789265
vt 0.319863 0.793069
vt 0.316056 0.789265
vt 0.285605 0.824319
vt 0.316056 0.824319
vt 0.319863 0.824319
vt 0.281799 0.824319
vt 0.285605 0.789265
vt 0.285605 0.793069
vt 0.281799 0.793069
vt 0.316056 0.789265
vt 0.319863 0.793069
vt 0.316056 0.793069
vt 0.285605 0.789265
vt 0.281799 0.793069
vt 0.319863 0.793069
vt 0.316056 0.789265
vt 0.316056 0.824319
vt 0.285605 0.824319
vt 0.281799 0.793069
vt 0.319863 0.824319
vt 0.319863 0.824319
vt 0.285605 0.789265
vt 0.285605 0.793069
vt 0.281799 0.793069
vt 0.316056 0.789265
vt 0.319863 0.793069
vt 0.316056 0.793069
vt 0.281799 0.824319
vt 0.281799 0.824319
vt 0.319863 0.824319
vt 0.285605 0.789265
vt 0.319863 0.793069
vt 0.316056 0.789265
vt 0.281799 0.824319
vt 0.717171 0.879049
vt 0.717171 0.902201
vt 0.655373 0.902201
vt 0.655373 0.879049
vt 0.724896 0.879049
vt 0.724896 0.902201
vt 0.724896 0.902201
vt 0.724896 0.879049
vt 0.717171 0.941168
vt 0.655373 0.941168
vt 0.655373 0.941168
vt 0.717171 0.941168
vt 0.655373 0.879049
vt 0.655373 0.902201
vt 0.717171 0.902201
vt 0.717171 0.879049
vt 0.717171 0.855707
vt 0.724896 0.863424
vt 0.717171 0.863424
vt 0.717171 0.956793
vt 0.717171 0.949076
vt 0.724896 0.949076
vt 0.717171 0.855707
vt 0.717171 0.863424
vt 0.724896 0.863424
vt 0.717171 0.956793
vt 0.724896 0.949076
vt 0.717171 0.949076
vt 0.655373 0.840082
vt 0.655373 0.956793
vt 0.655373 0.855707
vt 0.655373 0.949076
vt 0.655373 0.956793
vt 0.655373 0.855707
vt 0.655373 0.863424
vt 0.655373 0.949076
vt 0.724896 0.917826
vt 0.724896 0.894674
vt 0.717171 0.894674
vt 0.717171 0.917826
vt 0.717171 0.917826
vt 0.717171 0.894674
vt 0.724896 0.894674
vt 0.724896 0.917826
vt 0.655373 0.863424
vt 0.717171 0.840082
vt 0.717171 0.840082
vt 0.655373 0.840082
vn -0.3436 0.3268 0.8804
vn -0.3827 -0.0000 0.9239
vn 0.3827 -0.0000 0.9239
vn 0.3436 0.3268 0.8804
vn -0.9307 0.3658 0.0000
vn -1.0000 0.0000 0.0000
vn -0.8804 0.3268 0.3436
vn 0.8804 0.3268 0.3436
vn 1.0000 0.0000 0.0000
vn 0.9307 0.3658 0.0000
vn 0.4778 0.7372 0.4778
vn -0.4778 0.7372 0.4778
vn 0.7323 0.6809 0.0000
vn 0.7071 -0.0000 0.7071
vn -0.7323 0.6809 0.0000
vn -0.7071 -0.0000 0.7071
vn 0.0000 1.0000 0.0000
vn 0.0000 0.0000 -1.0000
vn -0.3325 0.3379 0.8805
vn 0.3325 0.3379 0.8805
vn 0.3362 0.8754 0.3473
vn -0.3362 0.8754 0.3473
vn 0.7483 -0.4652 0.4729
vn 0.3325 -0.3379 0.8805
vn 0.3362 -0.8754 0.3473
vn 0.7483 0.4652 0.4729
vn 0.6988 -0.7153 0.0000
vn 0.3773 -0.9261 0.0000
vn 0.6988 0.7153 0.0000
vn 0.3773 0.9261 0.0000
vn -0.3325 -0.3379 0.8805
vn -0.7483 0.4652 0.4729
vn -0.7483 -0.4652 0.4729
vn -0.3362 -0.8754 0.3473
vn -0.3773 -0.9261 -0.0000
vn -0.6988 0.7153 0.0000
vn -0.3773 0.9261 0.0000
vn -0.6988 -0.7153 -0.0000
vn -0.8755 -0.3417 0.3416
vn -0.8682 0.3626 0.3387
vn 0.3416 -0.3417 0.8755
vn 0.3387 0.3626 0.8682
vn -0.0000 0.0000 1.0000
vn 0.3232 0.8895 0.3232
vn 0.3585 0.9335 0.0000
vn -0.3585 0.9335 0.0000
vn -0.3232 0.8895 0.3232
vn -0.3415 -0.8757 0.3415
vn -0.4605 -0.4607 0.7587
vn -0.4567 0.4890 0.7431
vn 0.3415 -0.8757 0.3415
vn 0.7587 -0.4607 0.4605
vn 0.7431 0.4890 0.4567
vn 0.3825 -0.9239 -0.0000
vn 0.7069 -0.7073 -0.0000
vn 0.6694 0.7429 0.0000
vn -0.3825 -0.9239 -0.0000
vn -0.7069 -0.7073 -0.0000
vn -0.6694 0.7429 0.0000
usemtl tiny_treats_1
s 1
f 11/1/1 12/2/2 4/3/3 2/4/4
f 15/5/5 16/6/6 13/7/6 10/8/7
f 3/9/8 5/10/9 8/11/9 7/12/10
f 1/13/11 2/14/4 3/15/8
f 9/16/12 10/17/7 11/18/1
f 6/19/13 1/13/11 3/15/8 7/20/10
f 2/4/4 4/3/3 5/10/14 3/9/8
f 9/16/12 14/21/15 15/22/5 10/17/7
f 12/2/2 11/1/1 10/8/7 13/7/16
f 1/13/11 9/16/12 11/18/1 2/14/4
f 6/19/17 14/21/17 9/16/17 1/13/17
f 27/23/1 28/24/2 20/25/3 18/26/4
f 31/27/5 32/28/6 29/29/6 26/30/7
f 19/31/8 21/32/9 24/33/9 23/34/10
f 17/35/11 18/36/4 19/37/8
f 25/38/12 26/39/7 27/40/1
f 32/28/18 31/27/18 23/41/18 24/33/18
f 22/42/13 17/35/11 19/37/8 23/41/10
f 18/26/4 20/25/3 21/32/14 19/31/8
f 22/42/18 23/41/18 31/43/18 30/44/18
f 7/20/18 8/11/18 16/6/18 15/22/18
f 6/19/18 7/20/18 15/22/18 14/21/18
f 25/38/12 30/44/15 31/43/5 26/39/7
f 28/24/2 27/23/1 26/30/7 29/29/16
f 17/35/11 25/38/12 27/40/1 18/36/4
f 22/42/17 30/44/17 25/38/17 17/35/17
f 43/45/1 44/46/2 36/47/3 34/48/4
f 47/49/5 48/50/6 45/51/6 42/52/7
f 35/53/8 37/54/9 40/55/9 39/56/10
f 33/57/11 34/58/4 35/59/8
f 41/60/12 42/61/7 43/62/1
f 48/50/18 47/49/18 39/63/18 40/55/18
f 38/64/13 33/57/11 35/59/8 39/63/10
f 34/48/4 36/47/3 37/54/14 35/53/8
f 38/64/18 39/63/18 47/65/18 46/66/18
f 41/60/12 46/66/15 47/65/5 42/61/7
f 44/46/2 43/45/1 42/52/7 45/51/16
f 33/57/11 41/60/12 43/62/1 34/58/4
f 38/64/17 46/66/17 41/60/17 33/57/17
f 60/67/19 56/68/20 55/69/21 61/70/22
f 49/71/23 50/72/24 51/73/25
f 54/74/26 55/75/21 56/76/20
f 52/77/27 49/71/23 51/73/25 53/78/28
f 52/77/18 53/78/18 58/79/18 57/80/18
f 54/74/26 57/80/29 58/79/30 55/75/21
f 49/71/23 54/74/26 56/76/20 50/72/24
f 52/77/9 57/80/9 54/74/9 49/71/9
f 66/81/31 50/82/24 56/68/20 60/67/19
f 63/83/18 58/84/18 53/78/18 68/85/18
f 59/86/32 60/87/19 61/88/22
f 64/89/33 65/90/34 66/91/31
f 68/85/35 53/92/28 51/93/25 65/94/34
f 62/95/36 59/86/32 61/88/22 63/83/37
f 65/94/34 51/93/25 50/82/24 66/81/31
f 62/95/18 63/83/18 68/96/18 67/97/18
f 64/89/33 67/97/38 68/96/35 65/90/34
f 61/70/22 55/69/21 58/84/30 63/98/37
f 59/86/32 64/89/33 66/91/31 60/87/19
f 62/95/6 67/97/6 64/89/6 59/86/6
f 79/99/39 81/100/40 71/101/6 70/102/6
f 85/103/41 87/104/42 82/105/43 78/106/43
f 86/107/44 75/108/45 72/109/46 80/110/47
f 74/111/9 76/112/9 88/113/9 84/114/9
f 77/115/48 78/116/49 79/117/39
f 80/118/47 81/119/40 82/120/50
f 83/121/51 84/122/52 85/123/41
f 86/124/44 87/125/42 88/126/53
f 74/111/18 73/127/18 75/128/18 76/112/18
f 73/127/18 69/129/18 72/109/18 75/108/18
f 69/129/18 70/102/18 71/130/18 72/131/18
f 83/121/51 73/132/54 74/133/55 84/122/52
f 75/128/45 86/124/44 88/126/53 76/134/56
f 87/135/42 85/136/41 84/137/52 88/138/53
f 77/115/48 83/121/51 85/123/41 78/116/49
f 86/124/44 80/118/47 82/120/50 87/125/42
f 81/139/40 79/140/39 78/141/49 82/142/50
f 69/129/57 77/115/48 79/117/39 70/143/58
f 80/118/47 72/131/46 71/130/59 81/119/40
f 73/127/54 83/144/51 77/145/48 69/146/57
