# Blender v3.4.1 OBJ File: 'Tiny_Treats_Bakery_Interior_1.1_ASSETS_EXPORT.blend'
# www.blender.org
mtllib wall_shelf_bakery_B.mtl
o wall_shelf_bakery_B
v -0.720000 0.420793 0.080000
v -0.720000 0.399283 0.100000
v -0.700000 0.399283 0.080000
v -0.720000 -0.374190 0.100000
v -0.700000 -0.374190 0.080000
v -0.720000 0.420793 0.000000
v -0.700000 0.399283 0.000000
v -0.700000 -0.374190 -0.000000
v -0.880000 0.420793 0.080000
v -0.900000 0.399283 0.080000
v -0.880000 0.399283 0.100000
v -0.880000 -0.374190 0.100000
v -0.900000 -0.374190 0.080000
v -0.880000 0.420793 0.000000
v -0.900000 0.399283 0.000000
v -0.900000 -0.374190 -0.000000
v 0.880000 0.420793 0.080000
v 0.880000 0.399283 0.100000
v 0.900000 0.399283 0.080000
v 0.880000 -0.374190 0.100000
v 0.900000 -0.374190 0.080000
v 0.880000 0.420793 0.000000
v 0.900000 0.399283 0.000000
v 0.900000 -0.374190 -0.000000
v 0.720000 0.420793 0.080000
v 0.700000 0.399283 0.080000
v 0.720000 0.399283 0.100000
v 0.720000 -0.374190 0.100000
v 0.700000 -0.374190 0.080000
v 0.720000 0.420793 0.000000
v 0.700000 0.399283 0.000000
v 0.700000 -0.374190 -0.000000
v 0.080000 0.420793 0.080000
v 0.080000 0.399283 0.100000
v 0.100000 0.399283 0.080000
v 0.080000 -0.374190 0.100000
v 0.100000 -0.374190 0.080000
v 0.080000 0.420793 0.000000
v 0.100000 0.399283 0.000000
v 0.100000 -0.374190 -0.000000
v -0.080000 0.420793 0.080000
v -0.100000 0.399283 0.080000
v -0.080000 0.399283 0.100000
v -0.080000 -0.374190 0.100000
v -0.100000 -0.374190 0.080000
v -0.080000 0.420793 0.000000
v -0.100000 0.399283 0.000000
v -0.100000 -0.374190 -0.000000
v 0.962590 -0.558706 0.100000
v 0.941606 -0.558706 0.120000
v 0.941606 -0.579207 0.100000
v 0.962590 -0.558706 0.000000
v 0.941606 -0.579207 -0.000000
v 0.962590 -0.394692 0.100000
v 0.941606 -0.374190 0.100000
v 0.941606 -0.394692 0.120000
v 0.962590 -0.394692 0.000000
v 0.941606 -0.374190 0.000000
v -0.962590 -0.394691 0.100000
v -0.941607 -0.394691 0.120000
v -0.941607 -0.374190 0.100000
v -0.962590 -0.394691 0.000000
v -0.941607 -0.374190 0.000000
v -0.962590 -0.558705 0.100000
v -0.941607 -0.579207 0.100000
v -0.941607 -0.558705 0.120000
v -0.962590 -0.558705 0.000000
v -0.941607 -0.579207 0.000000
v -0.900000 -0.079998 0.660000
v -0.880000 -0.079998 0.680000
v -0.891716 -0.099998 0.700000
v -0.920000 -0.099998 0.671716
v -0.900000 0.080002 0.660000
v -0.920000 0.100002 0.671716
v -0.891716 0.100002 0.700000
v -0.880000 0.080002 0.680000
v -0.900000 -0.079998 0.240000
v -0.920000 -0.099998 0.228284
v -0.891716 -0.099998 0.200000
v -0.880000 -0.079998 0.220000
v -0.900000 0.080002 0.240000
v -0.880000 0.080002 0.220000
v -0.891716 0.100002 0.200000
v -0.920000 0.100002 0.228284
v 0.900000 -0.079998 0.660000
v 0.920000 -0.099998 0.671716
v 0.891716 -0.099998 0.700000
v 0.880000 -0.079998 0.680000
v 0.900000 0.080002 0.660000
v 0.880000 0.080002 0.680000
v 0.891716 0.100002 0.700000
v 0.920000 0.100002 0.671716
v 0.880000 -0.079998 0.220000
v 0.891716 -0.099998 0.200000
v 0.920000 -0.099998 0.228284
v 0.900000 -0.079998 0.240000
v 0.880000 0.080002 0.220000
v 0.900000 0.080002 0.240000
v 0.920000 0.100002 0.228284
v 0.891716 0.100002 0.200000
v -0.980000 -0.099998 0.148284
v -1.000000 -0.079998 0.120000
v -0.980000 -0.079998 0.100000
v -0.951716 -0.099998 0.120000
v -0.980000 -0.099998 0.751716
v -0.951716 -0.099998 0.780000
v -0.980000 -0.079998 0.800000
v -1.000000 -0.079998 0.780000
v -0.980000 0.080002 0.800000
v -0.951716 0.100002 0.780000
v -0.980000 0.100002 0.751716
v -1.000000 0.080002 0.780000
v -0.980000 0.100002 0.148284
v -0.951716 0.100002 0.120000
v -0.980000 0.080002 0.100000
v -1.000000 0.080002 0.120000
v 0.951716 -0.099998 0.120000
v 0.980000 -0.079998 0.100000
v 1.000000 -0.079998 0.120000
v 0.980000 -0.099998 0.148284
v 0.951716 0.100002 0.120000
v 0.980000 0.100002 0.148284
v 1.000000 0.080002 0.120000
v 0.980000 0.080002 0.100000
v 0.980000 -0.099998 0.751716
v 1.000000 -0.079998 0.780000
v 0.980000 -0.079998 0.800000
v 0.951716 -0.099998 0.780000
v 0.980000 0.100002 0.751716
v 0.951716 0.100002 0.780000
v 0.980000 0.080002 0.800000
v 1.000000 0.080002 0.780000
v -0.925858 -0.079998 0.490000
v -0.925858 -0.099998 0.510000
v -0.925858 0.100002 0.510000
v -0.925858 0.080002 0.490000
v 0.925858 -0.099998 0.510000
v 0.925858 -0.079998 0.490000
v 0.925858 0.080002 0.490000
v 0.925858 0.100002 0.510000
v -0.925858 -0.099998 0.600000
v -0.925858 -0.079998 0.620000
v -0.925858 0.080002 0.620000
v -0.925858 0.100002 0.600000
v 0.925858 -0.079998 0.620000
v 0.925858 -0.099998 0.600000
v 0.925858 0.100002 0.600000
v 0.925858 0.080002 0.620000
v -0.925858 -0.079998 0.280000
v -0.925858 -0.099998 0.300000
v -0.925858 0.100002 0.300000
v -0.925858 0.080002 0.280000
v 0.925858 -0.099998 0.300000
v 0.925858 -0.079998 0.280000
v 0.925858 0.080002 0.280000
v 0.925858 0.100002 0.300000
v -0.925858 -0.099998 0.390000
v -0.925858 -0.079998 0.410000
v -0.925858 0.080002 0.410000
v -0.925858 0.100002 0.390000
v 0.925858 -0.079998 0.410000
v 0.925858 -0.099998 0.390000
v 0.925858 0.100002 0.390000
v 0.925858 0.080002 0.410000
vt 0.339395 0.824319
vt 0.339395 0.868095
vt 0.308944 0.868095
vt 0.308944 0.824319
vt 0.343201 0.824319
vt 0.343201 0.868095
vt 0.343201 0.868095
vt 0.343201 0.824319
vt 0.305137 0.824319
vt 0.305137 0.868095
vt 0.305137 0.868095
vt 0.305137 0.824319
vt 0.308944 0.789265
vt 0.308944 0.793069
vt 0.305137 0.793069
vt 0.339395 0.789265
vt 0.343201 0.793069
vt 0.339395 0.793069
vt 0.308944 0.789265
vt 0.305137 0.793069
vt 0.339395 0.789265
vt 0.343201 0.793069
vt 0.316056 0.824319
vt 0.316056 0.868095
vt 0.285605 0.868095
vt 0.285605 0.824319
vt 0.319863 0.824319
vt 0.319863 0.868095
vt 0.319863 0.868095
vt 0.319863 0.824319
vt 0.281799 0.824319
vt 0.281799 0.868095
vt 0.281799 0.868095
vt 0.281799 0.824319
vt 0.285605 0.789265
vt 0.285605 0.793069
vt 0.281799 0.793069
vt 0.316056 0.789265
vt 0.319863 0.793069
vt 0.316056 0.793069
vt 0.281799 0.793069
vt 0.285605 0.789265
vt 0.319863 0.793069
vt 0.316056 0.789265
vt 0.316056 0.824319
vt 0.316056 0.868095
vt 0.285605 0.868095
vt 0.285605 0.824319
vt 0.319863 0.824319
vt 0.319863 0.868095
vt 0.319863 0.868095
vt 0.319863 0.824319
vt 0.281799 0.824319
vt 0.281799 0.868095
vt 0.281799 0.868095
vt 0.281799 0.824319
vt 0.285605 0.789265
vt 0.285605 0.793069
vt 0.281799 0.793069
vt 0.316056 0.789265
vt 0.319863 0.793069
vt 0.316056 0.793069
vt 0.281799 0.793069
vt 0.285605 0.789265
vt 0.319863 0.793069
vt 0.316056 0.789265
vt 0.285605 0.824319
vt 0.316056 0.824319
vt 0.319863 0.824319
vt 0.281799 0.824319
vt 0.285605 0.789265
vt 0.285605 0.793069
vt 0.281799 0.793069
vt 0.316056 0.789265
vt 0.319863 0.793069
vt 0.316056 0.793069
vt 0.285605 0.789265
vt 0.281799 0.793069
vt 0.319863 0.793069
vt 0.316056 0.789265
vt 0.316056 0.824319
vt 0.285605 0.824319
vt 0.281799 0.793069
vt 0.319863 0.824319
vt 0.319863 0.824319
vt 0.285605 0.789265
vt 0.285605 0.793069
vt 0.281799 0.793069
vt 0.316056 0.789265
vt 0.319863 0.793069
vt 0.316056 0.793069
vt 0.281799 0.824319
vt 0.281799 0.824319
vt 0.319863 0.824319
vt 0.285605 0.789265
vt 0.319863 0.793069
vt 0.316056 0.789265
vt 0.281799 0.824319
vt 0.281002 0.895779
vt 0.281002 0.907902
vt 0.341030 0.907902
vt 0.341030 0.895779
vt 0.341030 0.895779
vt 0.341030 0.907902
vt 0.281002 0.907902
vt 0.281002 0.895779
vt 0.341643 0.895779
vt 0.341643 0.907902
vt 0.341643 0.907902
vt 0.341643 0.895779
vt 0.339192 0.909418
vt 0.339192 0.909418
vt 0.341030 0.909418
vt 0.341030 0.909418
vt 0.282840 0.909418
vt 0.282840 0.909418
vt 0.281002 0.909418
vt 0.281002 0.909418
vt 0.284065 0.907902
vt 0.337967 0.907902
vt 0.337967 0.895779
vt 0.284065 0.895779
vt 0.338326 0.909418
vt 0.283706 0.909418
vt 0.281868 0.909418
vt 0.340164 0.909418
vt 0.283706 0.909418
vt 0.338326 0.909418
vt 0.340164 0.909418
vt 0.281868 0.909418
vt 0.339192 0.894264
vt 0.339192 0.894264
vt 0.341030 0.894264
vt 0.341030 0.894264
vt 0.338580 0.907902
vt 0.338580 0.907902
vt 0.338580 0.895779
vt 0.338580 0.895779
vt 0.280390 0.895779
vt 0.280390 0.907902
vt 0.280390 0.907902
vt 0.280390 0.895779
vt 0.282840 0.894264
vt 0.282840 0.894264
vt 0.281002 0.894264
vt 0.281002 0.894264
vt 0.337967 0.907902
vt 0.284065 0.907902
vt 0.284065 0.895779
vt 0.337967 0.895779
vt 0.338326 0.894264
vt 0.283706 0.894264
vt 0.281868 0.894264
vt 0.340164 0.894264
vt 0.283706 0.894264
vt 0.338326 0.894264
vt 0.340164 0.894264
vt 0.281868 0.894264
vt 0.283452 0.895779
vt 0.283452 0.907902
vt 0.283452 0.895779
vt 0.283452 0.907902
vt 0.339372 0.895779
vt 0.339372 0.907902
vt 0.282660 0.907902
vt 0.282660 0.895779
vt 0.282660 0.907902
vt 0.339372 0.907902
vt 0.339372 0.895779
vt 0.282660 0.895779
vt 0.339372 0.909418
vt 0.282660 0.909418
vt 0.282660 0.909418
vt 0.339372 0.909418
vt 0.282660 0.894264
vt 0.339372 0.894264
vt 0.339372 0.894264
vt 0.282660 0.894264
vt 0.339372 0.895779
vt 0.339372 0.907902
vt 0.282660 0.907902
vt 0.282660 0.895779
vt 0.282660 0.907902
vt 0.339372 0.907902
vt 0.339372 0.895779
vt 0.282660 0.895779
vt 0.339372 0.909418
vt 0.282660 0.909418
vt 0.282660 0.909418
vt 0.339372 0.909418
vt 0.282660 0.894264
vt 0.339372 0.894264
vt 0.339372 0.894264
vt 0.282660 0.894264
vn -0.3436 0.3268 0.8804
vn -0.3827 -0.0000 0.9239
vn 0.3827 -0.0000 0.9239
vn 0.3436 0.3268 0.8804
vn -0.9307 0.3658 0.0000
vn -1.0000 0.0000 0.0000
vn -0.8804 0.3268 0.3436
vn 0.8804 0.3268 0.3436
vn 1.0000 0.0000 0.0000
vn 0.9307 0.3658 0.0000
vn 0.4778 0.7372 0.4778
vn -0.4778 0.7372 0.4778
vn 0.7323 0.6809 0.0000
vn 0.7071 -0.0000 0.7071
vn -0.7323 0.6809 0.0000
vn -0.7071 -0.0000 0.7071
vn 0.0000 1.0000 0.0000
vn 0.0000 0.0000 -1.0000
vn -0.3325 0.3379 0.8805
vn 0.3325 0.3379 0.8805
vn 0.3362 0.8754 0.3473
vn -0.3362 0.8754 0.3473
vn 0.7483 -0.4652 0.4729
vn 0.3325 -0.3379 0.8805
vn 0.3362 -0.8754 0.3473
vn 0.7483 0.4652 0.4729
vn 0.6988 -0.7153 0.0000
vn 0.3773 -0.9261 0.0000
vn 0.6988 0.7153 0.0000
vn 0.3773 0.9261 0.0000
vn -0.3325 -0.3379 0.8805
vn -0.7483 0.4652 0.4729
vn -0.7483 -0.4652 0.4729
vn -0.3362 -0.8754 0.3473
vn -0.3773 -0.9261 -0.0000
vn -0.6988 0.7153 0.0000
vn -0.3773 0.9261 0.0000
vn -0.6988 -0.7153 -0.0000
vn -0.1770 -0.5873 -0.7898
vn 0.1770 -0.5873 -0.7898
vn 0.3681 -0.4349 0.8218
vn 0.3681 0.4349 0.8218
vn -0.3681 0.4349 0.8218
vn -0.3681 -0.4349 0.8218
vn 0.8218 -0.4349 -0.3681
vn 0.9239 0.0000 -0.3827
vn 0.7898 -0.5873 0.1770
vn -0.2465 0.9631 0.1079
vn -0.2465 0.9631 -0.1079
vn 0.3812 0.9202 0.0892
vn 0.3812 0.9202 -0.0892
vn 0.2465 0.9631 -0.1079
vn 0.2465 0.9631 0.1079
vn -0.3812 0.9202 -0.0892
vn -0.3812 0.9202 0.0892
vn 0.3276 0.4566 -0.8272
vn -0.3276 0.4566 -0.8272
vn -0.3276 -0.4566 -0.8272
vn 0.3276 -0.4566 -0.8272
vn -0.1079 0.9631 -0.2465
vn 0.1079 0.9631 -0.2465
vn -0.0892 0.9202 0.3812
vn 0.0892 0.9202 0.3812
vn 0.1079 0.9631 0.2465
vn -0.1079 0.9631 0.2465
vn 0.0892 0.9202 -0.3812
vn -0.0892 0.9202 -0.3812
vn -0.2465 -0.9631 -0.1079
vn -0.2465 -0.9631 0.1079
vn 0.3812 -0.9202 -0.0892
vn 0.3812 -0.9202 0.0892
vn -0.8013 0.5719 -0.1755
vn -0.8272 0.4566 0.3276
vn -0.9239 0.0000 0.3827
vn -0.7898 -0.5873 0.1770
vn -0.9239 -0.0000 -0.3827
vn -0.8218 -0.4349 -0.3681
vn 0.2465 -0.9631 0.1079
vn 0.2465 -0.9631 -0.1079
vn -0.3812 -0.9202 0.0892
vn -0.3812 -0.9202 -0.0892
vn -0.1755 0.5719 0.8013
vn 0.1755 0.5719 0.8013
vn 0.0000 -0.0000 1.0000
vn -0.1079 -0.9631 0.2465
vn 0.1079 -0.9631 0.2465
vn -0.0892 -0.9202 -0.3812
vn 0.0892 -0.9202 -0.3812
vn 0.1079 -0.9631 -0.2465
vn -0.1079 -0.9631 -0.2465
vn 0.0892 -0.9202 0.3812
vn -0.0892 -0.9202 0.3812
vn 0.6171 -0.7523 -0.2309
vn 0.8013 0.5719 -0.1755
vn 0.6171 -0.7523 0.2308
vn 0.2309 -0.7523 0.6171
vn 0.8272 0.4566 0.3276
vn -0.6171 -0.7523 -0.2309
vn -0.2309 -0.7523 0.6171
vn -0.6171 -0.7523 0.2308
vn -0.4816 0.8391 0.2528
vn -0.2528 0.8391 -0.4816
vn -0.4816 0.8391 -0.2528
vn 0.4816 0.8391 -0.2528
vn 0.2528 0.8391 -0.4816
vn 0.4816 0.8391 0.2528
vn -0.7071 0.0000 -0.7071
vn 0.7071 0.0000 -0.7071
vn 0.9239 0.0000 0.3827
vn 0.0000 -0.3827 0.9239
vn 0.0000 0.3827 0.9239
vn 0.0000 0.3827 -0.9239
vn 0.0000 -0.3827 -0.9239
vn 0.0000 -1.0000 -0.0000
vn 0.0000 -0.7071 0.7071
vn 0.0000 0.7071 0.7071
vn 0.0000 -0.7071 -0.7071
vn 0.0000 0.7071 -0.7071
usemtl tiny_treats_1
s 1
f 11/1/1 12/2/2 4/3/3 2/4/4
f 15/5/5 16/6/6 13/7/6 10/8/7
f 3/9/8 5/10/9 8/11/9 7/12/10
f 1/13/11 2/14/4 3/15/8
f 9/16/12 10/17/7 11/18/1
f 6/19/13 1/13/11 3/15/8 7/20/10
f 2/4/4 4/3/3 5/10/14 3/9/8
f 9/16/12 14/21/15 15/22/5 10/17/7
f 12/2/2 11/1/1 10/8/7 13/7/16
f 1/13/11 9/16/12 11/18/1 2/14/4
f 6/19/17 14/21/17 9/16/17 1/13/17
f 27/23/1 28/24/2 20/25/3 18/26/4
f 31/27/5 32/28/6 29/29/6 26/30/7
f 19/31/8 21/32/9 24/33/9 23/34/10
f 17/35/11 18/36/4 19/37/8
f 25/38/12 26/39/7 27/40/1
f 32/28/18 31/27/18 23/41/18 24/33/18
f 22/42/13 17/35/11 19/37/8 23/41/10
f 18/26/4 20/25/3 21/32/14 19/31/8
f 22/42/18 23/41/18 31/43/18 30/44/18
f 7/20/18 8/11/18 16/6/18 15/22/18
f 6/19/18 7/20/18 15/22/18 14/21/18
f 25/38/12 30/44/15 31/43/5 26/39/7
f 28/24/2 27/23/1 26/30/7 29/29/16
f 17/35/11 25/38/12 27/40/1 18/36/4
f 22/42/17 30/44/17 25/38/17 17/35/17
f 43/45/1 44/46/2 36/47/3 34/48/4
f 47/49/5 48/50/6 45/51/6 42/52/7
f 35/53/8 37/54/9 40/55/9 39/56/10
f 33/57/11 34/58/4 35/59/8
f 41/60/12 42/61/7 43/62/1
f 48/50/18 47/49/18 39/63/18 40/55/18
f 38/64/13 33/57/11 35/59/8 39/63/10
f 34/48/4 36/47/3 37/54/14 35/53/8
f 38/64/18 39/63/18 47/65/18 46/66/18
f 41/60/12 46/66/15 47/65/5 42/61/7
f 44/46/2 43/45/1 42/52/7 45/51/16
f 33/57/11 41/60/12 43/62/1 34/58/4
f 38/64/17 46/66/17 41/60/17 33/57/17
f 60/67/19 56/68/20 55/69/21 61/70/22
f 49/71/23 50/72/24 51/73/25
f 54/74/26 55/75/21 56/76/20
f 52/77/27 49/71/23 51/73/25 53/78/28
f 52/77/18 53/78/18 58/79/18 57/80/18
f 54/74/26 57/80/29 58/79/30 55/75/21
f 49/71/23 54/74/26 56/76/20 50/72/24
f 52/77/9 57/80/9 54/74/9 49/71/9
f 66/81/31 50/82/24 56/68/20 60/67/19
f 63/83/18 58/84/18 53/78/18 68/85/18
f 59/86/32 60/87/19 61/88/22
f 64/89/33 65/90/34 66/91/31
f 68/85/35 53/92/28 51/93/25 65/94/34
f 62/95/36 59/86/32 61/88/22 63/83/37
f 65/94/34 51/93/25 50/82/24 66/81/31
f 62/95/18 63/83/18 68/96/18 67/97/18
f 64/89/33 67/97/38 68/96/35 65/90/34
f 61/70/22 55/69/21 58/84/30 63/98/37
f 59/86/32 64/89/33 66/91/31 60/87/19
f 62/95/6 67/97/6 64/89/6 59/86/6
f 103/99/39 115/100/18 124/101/18 118/102/40
f 127/103/41 131/104/42 109/105/43 107/106/44
f 119/107/45 123/108/46 132/109/9 126/110/47
f 99/111/48 92/112/49 129/113/50 122/114/51
f 74/115/52 84/116/53 113/117/54 111/118/55
f 76/119/56 90/120/57 88/121/58 70/122/59
f 91/123/60 75/124/61 110/125/62 130/126/63
f 83/127/64 100/128/65 121/129/66 114/130/67
f 86/131/68 95/132/69 120/133/70 125/134/71
f 89/135/72 98/136/73 96/137/74 85/138/6
f 108/139/75 112/140/6 116/141/76 102/142/77
f 78/143/78 72/144/79 105/145/80 101/146/81
f 97/147/82 82/148/83 80/149/84 93/150/84
f 94/151/85 79/152/86 104/153/87 117/154/88
f 71/155/89 87/156/90 128/157/91 106/158/92
f 69/159/93 70/122/59 71/155/89 72/144/79
f 73/160/94 74/115/52 75/124/61 76/119/56
f 77/161/95 78/143/78 79/152/86 80/149/96
f 81/162/97 82/148/83 83/127/64 84/116/53
f 85/138/98 86/131/68 87/156/90 88/121/58
f 89/135/72 90/120/57 91/123/60 92/112/49
f 93/150/99 94/151/85 95/132/69 96/137/100
f 97/147/82 98/136/73 99/111/48 100/128/65
f 101/146/81 102/142/77 103/99/39 104/153/87
f 105/145/80 106/158/92 107/106/44 108/139/75
f 109/105/43 110/125/62 111/118/55 112/140/101
f 113/117/54 114/130/67 115/100/102 116/141/103
f 117/154/88 118/102/40 119/107/45 120/133/70
f 121/129/66 122/114/51 123/108/104 124/101/105
f 125/134/71 126/110/47 127/103/41 128/157/91
f 129/113/50 130/126/63 131/104/42 132/109/106
f 101/146/81 105/145/80 108/139/75 102/142/77
f 107/106/44 109/105/43 112/140/16 108/139/16
f 111/118/55 113/117/54 116/141/103 112/140/101
f 115/100/107 103/99/107 102/142/77 116/141/76
f 117/154/88 104/153/87 103/99/39 118/102/40
f 114/130/67 121/129/66 124/101/105 115/100/102
f 123/108/46 119/107/45 118/102/108 124/101/108
f 125/134/71 120/133/70 119/107/45 126/110/47
f 122/114/51 129/113/50 132/109/106 123/108/104
f 131/104/42 127/103/41 126/110/14 132/109/14
f 106/158/92 128/157/91 127/103/41 107/106/44
f 130/126/63 110/125/62 109/105/43 131/104/42
f 77/161/95 69/159/93 72/144/79 78/143/78
f 73/160/94 81/162/97 84/116/53 74/115/52
f 93/150/99 80/149/96 79/152/86 94/151/85
f 82/148/83 97/147/82 100/128/65 83/127/64
f 85/138/98 96/137/100 95/132/69 86/131/68
f 98/136/73 89/135/72 92/112/49 99/111/48
f 70/122/59 88/121/58 87/156/90 71/155/89
f 90/120/57 76/119/56 75/124/61 91/123/60
f 104/153/87 79/152/86 78/143/78 101/146/81
f 71/155/89 106/158/92 105/145/80 72/144/79
f 110/125/62 75/124/61 74/115/52 111/118/55
f 83/127/64 114/130/67 113/117/54 84/116/53
f 120/133/70 95/132/69 94/151/85 117/154/88
f 99/111/48 122/114/51 121/129/66 100/128/65
f 128/157/91 87/156/90 86/131/68 125/134/71
f 91/123/60 130/126/63 129/113/50 92/112/49
f 69/159/108 73/160/108 76/119/56 70/122/59
f 89/135/107 85/138/107 88/121/58 90/120/57
f 97/147/16 93/150/16 96/137/74 98/136/73
f 81/162/97 77/161/109 80/149/14 82/148/14
f 81/162/97 73/160/94 69/159/9 77/161/109
f 145/163/110 148/164/111 143/165/111 142/166/110
f 136/167/112 139/168/112 138/169/113 133/170/113
f 140/171/17 135/172/17 144/173/17 147/174/17
f 134/175/114 137/176/114 146/177/114 141/178/114
f 141/178/115 146/177/115 145/163/110 142/166/110
f 147/174/116 144/173/116 143/165/111 148/164/111
f 133/170/113 138/169/113 137/176/117 134/175/117
f 139/168/112 136/167/112 135/172/118 140/171/118
f 161/179/110 164/180/111 159/181/111 158/182/110
f 152/183/112 155/184/112 154/185/113 149/186/113
f 156/187/17 151/188/17 160/189/17 163/190/17
f 150/191/114 153/192/114 162/193/114 157/194/114
f 157/194/115 162/193/115 161/179/110 158/182/110
f 163/190/116 160/189/116 159/181/111 164/180/111
f 149/186/113 154/185/113 153/192/117 150/191/117
f 155/184/112 152/183/112 151/188/118 156/187/118
