# Blender v3.4.1 OBJ File: 'Tiny_Treats_Bakery_Interior_1.1_ASSETS_EXPORT.blend'
# www.blender.org
mtllib window_full_center_modular.mtl
o window_full_center_modular
v 1.000000 0.375000 0.450000
v 1.000000 0.425000 0.500000
v 1.000000 0.675000 0.500000
v 1.000000 0.725000 0.450000
v 1.000000 0.375000 -0.450000
v 1.000000 0.425000 -0.500000
v 1.000000 0.725000 -0.450000
v 1.000000 0.675000 -0.500000
v -1.000000 0.375000 0.450000
v -1.000000 0.425000 0.500000
v -1.000000 0.725000 0.450000
v -1.000000 0.675000 0.500000
v -1.000000 0.375000 -0.450000
v -1.000000 0.425000 -0.500000
v -1.000000 0.725000 -0.450000
v -1.000000 0.675000 -0.500000
v -1.000000 3.625000 0.450000
v -1.000000 3.325000 0.500000
v -1.000000 3.275000 0.450000
v 1.000000 3.575000 -0.500000
v 1.000000 3.625000 -0.450000
v 1.000000 3.325000 -0.500000
v 1.000000 3.275000 -0.450000
v 1.000000 3.625000 0.450000
v 1.000000 3.575000 0.500000
v 1.000000 3.325000 0.500000
v 1.000000 3.275000 0.450000
v -1.000000 0.760319 -0.100000
v -1.000000 0.790320 -0.070000
v -1.000000 0.620319 -0.100000
v -1.000000 0.590320 -0.070000
v -1.000000 0.760319 0.100000
v -1.000000 0.790320 0.070000
v -1.000000 0.620319 0.100000
v -1.000000 0.590320 0.070000
v 1.000000 0.760319 -0.100000
v 1.000000 0.790320 -0.070000
v 1.000000 0.620319 -0.100000
v 1.000000 0.590320 -0.070000
v 1.000000 0.790320 0.070000
v 1.000000 0.760319 0.100000
v 1.000000 0.620319 0.100000
v 1.000000 0.590320 0.070000
v 1.000000 0.590320 0.000000
v -1.000000 0.590320 0.000000
v 1.000000 3.290320 0.000000
v -1.000000 3.290320 0.000000
v -1.000000 3.290320 -0.050000
v -1.000000 0.590320 -0.050000
v 1.000000 0.590320 -0.050000
v 1.000000 3.290320 -0.050000
v -1.000000 3.275000 0.150000
v 1.000000 3.275000 0.150000
v -1.000000 3.200000 0.150000
v 1.000000 3.200000 0.150000
v -1.000000 3.275000 -0.150000
v 1.000000 3.275000 -0.150000
v -1.000000 3.200000 -0.150000
v 1.000000 3.200000 -0.150000
v -1.000000 3.575000 0.500000
v -1.000000 3.275000 -0.450000
v -1.000000 3.325000 -0.500000
v -1.000000 3.625000 -0.450000
v -1.000000 3.575000 -0.500000
vt 0.466537 0.883087
vt 0.408463 0.883087
vt 0.408463 0.892853
vt 0.466537 0.892853
vt 0.466537 0.916130
vt 0.466537 0.916130
vt 0.408463 0.916130
vt 0.408463 0.916130
vt 0.408463 0.883087
vt 0.466537 0.883087
vt 0.466537 0.892853
vt 0.408463 0.892853
vt 0.466537 0.869821
vt 0.466537 0.873076
vt 0.408463 0.873076
vt 0.408463 0.869821
vt 0.408463 0.926140
vt 0.408463 0.922885
vt 0.466537 0.922885
vt 0.466537 0.926140
vt 0.408463 0.869821
vt 0.408463 0.873076
vt 0.466537 0.873076
vt 0.466537 0.869821
vt 0.466537 0.926140
vt 0.466537 0.922885
vt 0.408463 0.922885
vt 0.408463 0.926140
vt 0.408463 0.859810
vt 0.408463 0.859810
vt 0.466537 0.859810
vt 0.466537 0.859810
vt 0.466537 0.916130
vt 0.466537 0.916130
vt 0.408463 0.916130
vt 0.408463 0.916130
vt 0.466537 0.883087
vt 0.408463 0.883087
vt 0.408463 0.892853
vt 0.466537 0.892853
vt 0.408463 0.883087
vt 0.466537 0.883087
vt 0.466537 0.892853
vt 0.408463 0.892853
vt 0.390036 0.936033
vt 0.390036 0.932270
vt 0.484964 0.932270
vt 0.484964 0.936033
vt 0.484964 0.936033
vt 0.484964 0.932270
vt 0.390036 0.932270
vt 0.390036 0.936033
vt 0.390036 0.848449
vt 0.390036 0.852211
vt 0.484964 0.852211
vt 0.484964 0.848449
vt 0.484964 0.920408
vt 0.484964 0.920408
vt 0.390036 0.920408
vt 0.390036 0.920408
vt 0.390036 0.832823
vt 0.390036 0.832824
vt 0.484964 0.832824
vt 0.484964 0.832823
vt 0.484964 0.848448
vt 0.484964 0.852211
vt 0.390036 0.852211
vt 0.390036 0.848448
vt 0.484964 0.867836
vt 0.390036 0.867836
vt 0.390036 0.885395
vt 0.484964 0.885395
vt 0.390036 0.867836
vt 0.484964 0.867836
vt 0.484964 0.885395
vt 0.390036 0.885395
vt 0.411345 0.937821
vt 0.463655 0.937821
vt 0.458424 0.932595
vt 0.416576 0.932595
vt 0.411345 0.937821
vt 0.416576 0.932595
vt 0.458424 0.932595
vt 0.463655 0.937821
vt 0.458424 0.901345
vt 0.458424 0.901345
vt 0.416576 0.901345
vt 0.416576 0.901345
vt 0.408463 0.859810
vt 0.408463 0.859810
vt 0.408463 0.873076
vt 0.408463 0.922885
vt 0.408463 0.922885
vt 0.466537 0.869821
vt 0.466537 0.873076
vt 0.408463 0.869821
vt 0.408463 0.926140
vt 0.466537 0.922885
vt 0.466537 0.926140
vt 0.408463 0.869821
vt 0.408463 0.873076
vt 0.466537 0.873076
vt 0.466537 0.869821
vt 0.466537 0.926140
vt 0.466537 0.922885
vt 0.408463 0.926140
vt 0.466537 0.859810
vt 0.466537 0.859810
vt 0.994960 0.005040
vt 0.994960 0.244960
vt 0.755040 0.244960
vt 0.755040 0.005040
vt 0.755040 0.005040
vt 0.755040 0.244960
vt 0.994960 0.244960
vt 0.994960 0.005040
vn 0.0000 -0.3827 0.9239
vn 0.0000 0.3827 0.9239
vn 0.0000 1.0000 0.0000
vn 0.0000 -0.3827 -0.9239
vn 0.0000 0.3827 -0.9239
vn 0.0000 -0.7071 -0.7071
vn 0.0000 0.7071 -0.7071
vn 0.0000 -0.7071 0.7071
vn 0.0000 0.7071 0.7071
vn 0.0000 -1.0000 0.0000
vn 0.0000 0.9239 -0.3827
vn 0.0000 0.9239 0.3827
vn 0.0000 0.0000 1.0000
vn 0.0000 0.0000 -1.0000
vn 1.0000 0.0000 0.0000
vn 0.0000 -0.9239 0.3827
vn 0.0000 -0.9239 -0.3827
vn -1.0000 0.0000 0.0000
usemtl tiny_treats_1
s 1
f 10/1/1 2/2/1 3/3/2 12/4/2
f 15/5/3 11/6/3 4/7/3 7/8/3
f 6/9/4 14/10/4 16/11/5 8/12/5
f 13/13/6 14/14/4 6/15/4 5/16/6
f 7/17/7 8/18/5 16/19/5 15/20/7
f 1/21/8 2/22/1 10/23/1 9/24/8
f 11/25/9 12/26/2 3/27/2 4/28/9
f 5/29/10 1/30/10 9/31/10 13/32/10
f 63/33/11 17/34/12 24/35/12 21/36/11
f 18/37/1 26/38/1 25/39/13 60/40/13
f 22/41/4 62/42/4 64/43/14 20/44/14
f 1/30/15 5/29/15 6/15/15 2/2/15
f 37/45/7 36/46/5 28/47/5 29/48/7
f 33/49/9 32/50/2 41/51/2 40/52/9
f 43/53/16 42/54/8 34/55/8 35/56/16
f 29/57/3 33/58/3 40/59/3 37/60/3
f 39/61/17 43/62/16 35/63/16 31/64/17
f 31/65/17 30/66/6 38/67/6 39/68/17
f 34/69/13 42/70/13 41/71/2 32/72/2
f 38/73/14 30/74/14 28/75/5 36/76/5
f 30/74/18 34/69/18 32/72/18 28/47/18
f 53/77/13 52/78/13 54/79/13 55/80/13
f 33/49/18 29/48/18 28/47/18 32/50/18
f 57/81/14 59/82/14 58/83/14 56/84/14
f 52/78/18 56/84/18 58/83/18 54/85/18
f 58/86/10 59/87/10 55/88/10 54/85/10
f 2/2/15 6/9/15 8/12/15 3/27/15
f 3/27/15 8/18/15 7/17/15 4/7/15
f 27/89/15 23/90/15 22/91/15 26/38/15
f 26/38/15 22/41/15 20/44/15 25/92/15
f 21/36/15 24/35/15 25/92/15 20/93/15
f 61/94/6 62/95/4 22/91/4 23/96/6
f 21/97/11 20/93/7 64/98/7 63/99/11
f 27/100/8 26/101/1 18/102/1 19/103/8
f 17/104/12 60/105/9 25/92/9 24/106/12
f 23/90/10 27/89/10 19/107/10 61/108/10
f 17/34/18 63/33/18 64/98/18 60/105/18
f 62/42/18 18/37/18 60/40/18 64/98/18
f 18/37/18 62/42/18 61/94/18 19/107/18
f 11/6/18 15/5/18 16/19/18 12/26/18
f 14/10/18 10/1/18 12/4/18 16/19/18
f 10/1/18 14/10/18 13/13/18 9/31/18
f 35/56/18 34/55/18 30/74/18 31/65/18
f 53/77/15 55/88/15 59/82/15 57/81/15
f 37/45/15 40/52/15 41/51/15 36/46/15
f 42/70/15 38/73/15 36/76/15 41/51/15
f 38/73/15 42/70/15 43/53/15 39/61/15
usemtl tiny_treats_1_GLASS
f 44/109/13 46/110/13 47/111/13 45/112/13
f 49/113/14 48/114/14 51/115/14 50/116/14
